<svg version="1.1" viewBox="0.0 0.0 133.44094488188978 133.44094488188978" fill="none" stroke="none" stroke-linecap="square" stroke-miterlimit="10" xmlns:xlink="http://www.w3.org/1999/xlink" xmlns="http://www.w3.org/2000/svg"><clipPath id="p.0"><path d="m0 0l133.44095 0l0 133.44095l-133.44095 0l0 -133.44095z" clip-rule="nonzero"/></clipPath><g clip-path="url(#p.0)"><path fill="#000000" fill-opacity="0.0" d="m0 0l133.44095 0l0 133.44095l-133.44095 0z" fill-rule="evenodd"/><path fill="#e3d93e" d="m-0.43569553 -0.43569553l133.88977 0l0 133.88977l-133.88977 0z" fill-rule="evenodd"/><path stroke="#e3d93e" stroke-width="1.0" stroke-linejoin="round" stroke-linecap="butt" d="m-0.43569553 -0.43569553l133.88977 0l0 133.88977l-133.88977 0z" fill-rule="evenodd"/><path fill="#000000" fill-opacity="0.0" d="m-23.175854 20.895014l179.37009 0l0 91.65354l-179.37009 0z" fill-rule="evenodd"/><path fill="#000000" d="m5.3060575 68.710014q0 -7.0 2.09375 -11.75q1.5625005 -3.5 4.2656255 -6.28125q2.703125 -2.78125 5.921874 -4.125q4.28125 -1.8125 9.875 -1.8125q10.125 0 16.203125 6.28125q6.078125 6.28125 6.078125 17.46875q0 11.09375 -6.03125 17.359375q-6.03125 6.265625 -16.125 6.265625q-10.21875 0 -16.25 -6.234375q-6.0312505 -6.234375 -6.0312505 -17.171875zm9.53125 -0.3125q0 7.78125 3.593749 11.796875q3.59375 4.015625 9.125 4.015625q5.53125 0 9.078125 -3.984375q3.546875 -3.984375 3.546875 -11.953125q0 -7.875 -3.453125 -11.75q-3.453125 -3.875 -9.171875 -3.875q-5.71875 0 -9.21875 3.921875q-3.499999 3.921875 -3.499999 11.828125zm42.1875 22.9375l0 -45.8125l31.406254 0l0 7.75l-22.15625 0l0 10.84375l19.125 0l0 7.75l-19.125 0l0 19.46875l-9.250004 0zm39.093754 0l0 -45.8125l31.406242 0l0 7.75l-22.15625 0l0 10.84375l19.125 0l0 7.75l-19.125 0l0 19.46875l-9.249992 0z" fill-rule="nonzero"/></g></svg>