<?xml version="1.0" encoding="utf-8"?>
<!-- Generator: Adobe Illustrator 27.1.1, SVG Export Plug-In . SVG Version: 6.00 Build 0)  -->
<svg version="1.1" id="Layer_1" xmlns="http://www.w3.org/2000/svg" xmlns:xlink="http://www.w3.org/1999/xlink" x="0px" y="0px"
	 viewBox="0 0 133 133" style="enable-background:new 0 0 133 133;" xml:space="preserve">
<style type="text/css">
	.st0{fill:#8123DE;}
	.st1{fill:#FFFFFF;}
</style>
<g id="Layer_1_00000100353006172504592090000011037520865703512746_">
	<g id="Layer_1_00000034053264222620918190000010351990880555746997_">
		<g id="Layer_2_00000121985297356614623580000008100043912113383595_">
			<path class="st0" d="M121,133H12c-6.6,0-12-5.4-12-12V12C0,5.4,5.4,0,12,0h109c6.6,0,12,5.4,12,12v109
				C133,127.6,127.6,133,121,133z"/>
			<path class="st0" d="M121,133H12c-6.6,0-12-5.4-12-12V12C0,5.4,5.4,0,12,0h109c6.6,0,12,5.4,12,12v109
				C133,127.6,127.6,133,121,133z"/>
		</g>
	</g>
</g>
<g id="Layer_2_00000100364897265377898250000004874674987474592190_">
</g>
<g id="Layer_3">
</g>
<g id="Layer_4">
</g>
<g id="Layer_5">
</g>
<g id="Layer_6">
</g>
<g id="Layer_7">
	<g>
		<g id="XMLID_00000103240381726990657990000014883109116492559009_">
			<g>
				<path class="st1" d="M76.5,23.9c2.8-3,7.2-4.4,10-5.1c-1.6,4.7-6.1,14.1-16.8,19.5C70,31.9,71.5,29,76.5,23.9z"/>
				<path class="st1" d="M104.2,42.4c10,7.9,10.8,36.1-1.9,54.1c-4.5,6.4-6.9,9.3-16.9,12.9c-3.4,1.2-6.4,0-9.8-1.4
					c-2.7-1.1-5.4-2.3-8.6-2.3c-0.1,0-0.1,0-0.2,0c-2.8,0-5.5,0.8-8,1.6c-4.4,1.3-8.5,2.5-13.6,0.5C38,105,34.7,101.7,31,96.4
					c-12.2-17.1-13-44-1.6-54.1c5.1-4.5,11.9-6.5,18.7-5.4c8,1.3,14.4,3.5,18,6c0.2,0.1,0.4,0.2,0.6,0.3c0.5,0.3,1.1,0.3,1.7,0.1
					c0.5-0.2,1-0.4,1.4-0.6c5.3-2.2,14-5,19.9-5.3C94.6,37.2,99.9,39,104.2,42.4z M44.8,48.1c0.1-1.1-0.7-2.1-1.8-2.2
					c-3.7-0.3-7.3,0.9-10.2,3.4c-3.3,2.9-5.3,7.3-5.5,12.3c-0.1,1.1,0.8,2.1,1.9,2.1h0.1c1.1,0,2-0.8,2-1.9c0.2-3.9,1.7-7.3,4.1-9.4
					c2-1.8,4.6-2.6,7.2-2.4C43.7,50,44.7,49.2,44.8,48.1z"/>
				<path d="M106.7,39.2c12.5,9.9,12,41.1-1.1,59.7c-4.7,6.7-7.7,10.4-18.9,14.4c-1.5,0.5-2.9,0.7-4.2,0.7c-3.1,0-6-1.2-8.5-2.2
					s-4.8-2-7.2-2c-2.2,0-4.5,0.7-6.9,1.4c-4.6,1.4-9.8,2.9-16.2,0.4c-8.1-3.2-11.9-7-16-12.8c-13.5-19.1-13.9-48-0.9-59.6
					c6-5.3,14-7.6,22-6.3c5,0.8,11.5,2.3,16.6,4.9c-0.6-3.3-2.3-6.4-3.8-7.6c-5.7-5-9.2-6.1-11.5-6.8l-0.9-0.3
					c-1.1-0.4-1.6-1.5-1.3-2.6c0.4-1.1,1.5-1.6,2.6-1.3l0.9,0.3c2.5,0.8,6.6,2.1,13,7.7c0.9,0.8,1.9,2,2.7,3.5
					c1.2-3.3,3.2-6,6.6-9.6c5.6-5.9,15.2-6.9,15.6-6.9c0.6-0.1,1.3,0.2,1.7,0.6c0.4,0.5,0.6,1.1,0.5,1.7c-0.1,0.5-1.9,10-9.9,18.1
					c2.8-0.7,5.6-1.2,8.1-1.3C95.4,33.1,101.7,35.2,106.7,39.2z M102.3,96.5c12.8-18.1,11.9-46.3,1.9-54.1
					c-4.3-3.4-9.6-5.2-14.5-4.9c-5.9,0.3-14.7,3.1-19.9,5.3c-0.5,0.2-0.9,0.4-1.4,0.6c-0.6,0.2-1.2,0.2-1.7-0.1
					c-0.2-0.1-0.4-0.2-0.6-0.3c-3.6-2.6-10-4.7-18-6c-6.8-1.1-13.6,0.8-18.7,5.4c-11.4,10.1-10.6,37,1.5,54.2
					c3.7,5.3,7,8.5,14.2,11.4c5.1,2,9.2,0.8,13.6-0.5c2.6-0.8,5.2-1.6,8-1.6c0.1,0,0.1,0,0.2,0c3.2,0,5.9,1.2,8.6,2.3
					c3.4,1.4,6.4,2.7,9.8,1.4C95.4,105.8,97.8,102.9,102.3,96.5z M86.5,18.7c-2.9,0.7-7.2,2.2-10,5.1c-5,5.2-6.5,8-6.8,14.4
					C80.4,32.8,84.9,23.5,86.5,18.7z"/>
				<path d="M42.9,45.9c1.1,0.1,2,1.1,1.8,2.2c-0.1,1.1-1.1,1.9-2.2,1.9c-2.6-0.2-5.1,0.6-7.2,2.4c-2.5,2.2-3.9,5.5-4.1,9.4
					c0,1.1-0.9,1.9-2,1.9h-0.1c-1.1-0.1-2-1-1.9-2.1c0.2-5,2.2-9.4,5.5-12.3C35.6,46.8,39.2,45.6,42.9,45.9z"/>
			</g>
		</g>
	</g>
</g>
<g id="Layer_8">
</g>
<g id="Layer_9">
</g>
</svg>
