<?xml version="1.0" encoding="utf-8"?>
<!-- Generator: Adobe Illustrator 26.3.1, SVG Export Plug-In . SVG Version: 6.00 Build 0)  -->
<svg version="1.1" id="Layer_1" xmlns="http://www.w3.org/2000/svg" xmlns:xlink="http://www.w3.org/1999/xlink" x="0px" y="0px"
	 viewBox="0 0 133 70" style="enable-background:new 0 0 133 70;" xml:space="preserve">
<style type="text/css">
	.st0{fill:#FFFFFF;}
	.st1{fill:#231F20;}
</style>
<g>
	<g id="XMLID_00000000907265322131139180000009535862150648820642_">
		<g>
			<path class="st0" d="M45.7,38.8c-0.6,0.6-1.2,1.1-1.9,1.5h-0.1c-2.7,0.9-6.9-0.5-9.1-3.5c2.3,2.9,6.4,4.3,9,3.4h0.1
				C44.4,39.8,45.1,39.3,45.7,38.8z"/>
			<path class="st0" d="M38.9,28.1c0.2,1.2-0.3,2.5-1.3,3.2c-0.3,0.2-0.5,0.6-0.6,1c0-0.4,0.2-0.8,0.5-1.1
				C38.5,30.5,39,29.2,38.9,28.1c-0.2-0.3-0.3-0.4-0.4-0.6C38.6,27.6,38.8,27.8,38.9,28.1z"/>
			<path class="st0" d="M41.9,26.8c0.6,1.9,0.3,3.8-0.8,5.4C42.1,30.6,42.3,28.7,41.9,26.8c-0.7-1.3-1.9-2.3-3.3-2.8
				c-1.9-0.7-4.1-0.6-5.9,0.3c-0.5,0.2-0.9,0.5-1.2,0.9c0.4-0.4,0.8-0.7,1.3-1c1.8-0.9,4-1,5.9-0.3C40.2,24.4,41.3,25.4,41.9,26.8z"
				/>
			<path class="st0" d="M36.1,42.5c0.1,0,0.1,0.1,0.2,0.1c-0.9,0.1-1.8,0-2.7-0.2c-3.3-0.7-6.2-2.6-8.1-5.4s-2.6-6.2-1.9-9.5
				c0.3-1.3,0.7-2.5,1.3-3.6c-0.6,1.1-1,2.3-1.2,3.5c-0.7,3.3,0,6.7,1.9,9.5s4.8,4.8,8.1,5.4C34.5,42.4,35.3,42.5,36.1,42.5z"/>
			<path class="st0" d="M62.3,18.6L62.3,18.6c-1-0.9-2.4-1.3-3.8-1.2c-2.7,0.3-4.7,2.6-4.6,5.3v8.6c0,1-0.3,2-0.8,3
				c-0.5,0.9-1.2,1.8-2,2.5H51c-1,3-3.2,5.5-6.1,6.8c-2.6,1.7-5.6,2.6-8.7,2.6c-1,0-2.1-0.1-3.1-0.3c-1.3-0.3-2.6-0.7-3.8-1.3
				c-0.1,0.1-0.1,0.2-0.2,0.3c-1.5,1.2-2.8,2.6-3.9,4.2v0.1c-0.1,0-0.1,0-0.1-0.1c-0.1-0.1-0.1-0.2,0-0.3c1.2-1.5,2.5-2.9,3.9-4.2
				c0.1-0.1,0.1-0.2,0.2-0.3c1.2,0.6,2.5,1,3.8,1.3c1,0.2,2,0.3,3.1,0.3c3.1,0,6.1-0.9,8.7-2.6c2.9-1.3,5.1-3.8,6.1-6.8H51
				c1.8-1.2,2.8-3.1,2.8-5.2v-8.7c0-2.6,1.9-4.9,4.6-5.3C59.8,17.2,61.2,17.6,62.3,18.6z"/>
			<path d="M66.6,7.4c0.8,0.4,1.2,1.4,0.8,2.3l-3.1,6.1c0.1,0.1,0.3,0.2,0.5,0.3c1.8,1.6,2.8,3.9,2.8,6.3c0,1.3-0.3,2.7-0.9,3.8
				c-1.5,2.7-2.4,5.7-2.4,8.8v2.6c0,4-1.6,7.9-4.5,10.7c-2.9,2.8-6.7,4.4-10.7,4.5H25.4c-1.4,0-2.6-0.8-3.2-2s-0.5-2.7,0.3-3.8
				c1.1-1.6,2.4-3,3.9-4.3c-3.7-2.9-6-7.2-6.2-11.9c-0.2-4.7,1.6-9.2,5.1-12.5c3.4-3.2,8.1-4.7,12.8-4.2s8.9,3.1,11.5,7
				c0.3,0.5,0.6,1.1,0.9,1.8v-0.2c0-1.7,0.5-3.3,1.4-4.7c0.9-1.4,2.2-2.5,3.7-3.3V7.2c0-0.9,0.8-1.7,1.7-1.7S59,6.3,59,7.2V14
				c0.7,0,1.5,0.1,2.2,0.3l3.1-6.1C64.7,7.4,65.7,7,66.6,7.4z M64,22.4c0-0.3,0-0.7-0.1-1c-0.2-0.9-0.6-1.7-1.2-2.4
				c-0.1-0.1-0.2-0.2-0.3-0.3l-0.1-0.1c-1.1-1-2.5-1.4-3.9-1.3c-2.7,0.4-4.6,2.7-4.6,5.3v8.7c0,2.1-1,4-2.8,5.2h-0.1
				c-1,3-3.2,5.5-6.1,6.8c-2.6,1.7-5.6,2.6-8.7,2.6c-1.1,0-2.1-0.1-3.1-0.3c-1.3-0.3-2.6-0.7-3.8-1.3c-0.1,0.1-0.1,0.2-0.2,0.3
				c-1.4,1.3-2.7,2.7-3.9,4.2c-0.1,0.1-0.1,0.2,0,0.3c0,0.1,0,0.1,0.1,0.1c0,0.1,0,0.1,0,0.2s0.1,0.1,0.2,0.1h23.4
				c3.1,0,6.1-1.3,8.3-3.5c2.2-2.3,3.5-5.3,3.5-8.4V35c0-1.6,0.3-3.2,0.6-4.8c0.5-1.9,1.2-3.8,2.2-5.5C63.8,24,64,23.2,64,22.4z
				 M48.1,34.8c1.3-3.9,0.8-8.3-1.4-11.9c-1.9-2.8-4.8-4.7-8.1-5.4s-6.7,0-9.5,1.9c-0.7,0.5-1.4,1.1-2,1.7c-0.1,0.2-0.3,0.3-0.4,0.5
				c-0.3,0.3-0.5,0.6-0.7,0.9c-0.1,0.2-0.2,0.3-0.4,0.5c-0.2,0.3-0.5,0.7-0.6,1.1c-0.6,1.1-1.1,2.3-1.3,3.6c-0.7,3.3,0,6.7,1.9,9.5
				s4.8,4.7,8.1,5.4c0.9,0.2,1.8,0.3,2.7,0.2c-0.1,0-0.1-0.1-0.2-0.1c0.1,0,0.2,0,0.3,0c-2.6-1.3-4.8-3.4-6-6.1
				c-1.4-3.1-1.6-8.2,0.8-11c0.1-0.1,0.2-0.2,0.3-0.3c0.4-0.3,0.8-0.6,1.2-0.9c1.8-0.9,4-1,5.9-0.3c1.4,0.5,2.6,1.5,3.2,2.9
				c0.6,1.8,0.3,3.8-0.7,5.3c-0.1,0.2-0.2,0.3-0.3,0.5s-0.3,0.3-0.4,0.5c-0.2,0.2-0.3,0.3-0.5,0.5c-0.7,0.6-1.8,0.6-2.4-0.1
				c-0.3-0.4-0.5-0.9-0.4-1.3s0.3-0.7,0.6-1c1-0.7,1.5-2,1.3-3.2c-0.1-0.2-0.2-0.4-0.4-0.6l0,0c-0.2-0.2-0.5-0.4-0.8-0.5
				c-0.5-0.2-1-0.3-1.5-0.3c-0.6,0-1.1,0.1-1.7,0.4c-1.9,1.1-2.1,5.3-0.9,8c0.2,0.5,0.5,0.9,0.7,1.3c0.1,0.2,0.2,0.3,0.3,0.5
				c2.2,2.9,6.5,4.4,9.1,3.5H44c0.7-0.4,1.4-0.9,1.9-1.5l0.1-0.1C46.9,37.6,47.7,36.3,48.1,34.8z"/>
			<path class="st0" d="M63.9,21.3c0.1,0.3,0.1,0.7,0.1,1c0,0.8-0.2,1.6-0.6,2.3c-1,1.8-1.7,3.6-2.2,5.5c-0.4,1.5-0.6,3-0.7,4.5v2.6
				c0,3.2-1.3,6.2-3.5,8.4c-2.2,2.3-5.2,3.5-8.3,3.5H25.3h-0.1V49c1.1-1.6,2.4-3,3.9-4.2c0.1-0.1,0.1-0.2,0.2-0.3
				c1.2,0.6,2.5,1,3.8,1.3c1,0.2,2.1,0.3,3.1,0.3c3.1,0,6.1-0.9,8.7-2.6c2.9-1.3,5.1-3.8,6.1-6.8h0.1c0.9-0.8,1.5-1.6,2-2.5
				s0.8-1.9,0.8-3v-8.6c-0.1-2.7,1.9-5,4.6-5.3c1.4-0.1,2.8,0.3,3.9,1.3c0.1,0.1,0.2,0.2,0.3,0.3C63.3,19.6,63.7,20.5,63.9,21.3z"/>
			<path class="st0" d="M63.9,21.3c-0.2-0.9-0.6-1.7-1.2-2.4C63.3,19.6,63.7,20.4,63.9,21.3z"/>
			<path class="st1" d="M61.2,30.1c-0.4,1.6-0.6,3.2-0.6,4.8v2.6c0,3.1-1.3,6.1-3.5,8.4c-2.2,2.2-5.2,3.5-8.3,3.5H25.4
				c-0.1,0-0.2,0-0.2-0.1s0-0.1,0-0.2h0.1h23.4c3.1,0,6.1-1.2,8.3-3.5c2.2-2.2,3.5-5.2,3.5-8.4v-2.6C60.6,33.2,60.8,31.7,61.2,30.1z
				"/>
			<path class="st0" d="M46.7,22.9c2.2,3.6,2.7,8,1.4,11.9c-0.4,1.5-1.2,2.9-2.2,3.9c1-1.1,1.8-2.4,2.2-3.8
				C49.5,30.9,49,26.5,46.7,22.9c-1.9-2.7-4.8-4.6-8.1-5.3c-3.3-0.7-6.7,0-9.5,1.9c-0.7,0.5-1.3,1-1.9,1.6c0.6-0.6,1.3-1.2,2-1.7
				c2.8-1.9,6.2-2.6,9.5-1.9S44.8,20.1,46.7,22.9z"/>
			<path class="st0" d="M46.6,23c2.3,3.5,2.8,7.9,1.4,11.9c-0.4,1.4-1.1,2.8-2.2,3.8l-0.1,0.1c-0.6,0.6-1.3,1-2,1.4h-0.1
				c-2.6,0.9-6.7-0.5-9-3.4c-0.1-0.2-0.2-0.3-0.3-0.5c-0.2-0.4-0.5-0.8-0.6-1.2c-0.5-1.1-0.8-2.5-0.8-3.8c0-1.8,0.5-3.5,1.7-4.2
				c1-0.4,2.2-0.5,3.2-0.1c0.2,0.1,0.5,0.2,0.7,0.4l0,0c0.1,0.1,0.2,0.3,0.3,0.5c0.2,1.2-0.3,2.5-1.3,3.2c-0.3,0.3-0.5,0.7-0.5,1.1
				c-0.1,0.5-0.1,1,0.3,1.4c0.7,0.7,1.7,0.7,2.4,0.1c0.2-0.2,0.5-0.4,0.6-0.6c0.2-0.2,0.3-0.3,0.4-0.5c0.1-0.2,0.3-0.3,0.3-0.5
				c1.1-1.6,1.3-3.6,0.8-5.4c-0.6-1.4-1.7-2.4-3.2-2.9c-1.9-0.7-4.1-0.6-5.9,0.3c-0.5,0.3-0.9,0.6-1.3,1c-0.1,0.1-0.2,0.2-0.3,0.3
				c-2.5,2.8-2.3,8-0.9,11.1c1.2,2.6,3.2,4.7,5.8,6c-0.8,0-1.6-0.1-2.4-0.2c-3.3-0.6-6.2-2.6-8.1-5.4s-2.6-6.2-1.9-9.5
				c0.2-1.2,0.6-2.4,1.2-3.5c0.2-0.4,0.4-0.7,0.6-1.1c0.1-0.2,0.2-0.3,0.4-0.5c0.2-0.3,0.5-0.6,0.7-0.9c0.1-0.2,0.3-0.3,0.4-0.5
				c0.6-0.6,1.2-1.1,1.9-1.6c2.8-1.9,6.2-2.6,9.5-1.9C41.8,18.3,44.7,20.2,46.6,23z"/>
			<path class="st0" d="M40.3,33.2c0.2-0.2,0.3-0.3,0.4-0.5C40.6,32.8,40.5,33,40.3,33.2z"/>
			<path class="st0" d="M39.8,33.7c0.2-0.2,0.4-0.3,0.5-0.5C40.1,33.4,39.9,33.6,39.8,33.7c-0.8,0.7-1.8,0.7-2.5,0
				c-0.4-0.4-0.5-0.9-0.3-1.4c0,0.5,0.1,1,0.4,1.3C38,34.3,39.1,34.3,39.8,33.7z"/>
			<path class="st0" d="M38.4,27.4c-0.2-0.2-0.5-0.3-0.7-0.4c-1-0.4-2.2-0.3-3.2,0.1c-1.1,0.7-1.7,2.3-1.7,4.2
				c0,1.3,0.3,2.7,0.8,3.8c0.2,0.4,0.4,0.8,0.6,1.2c-0.3-0.4-0.5-0.8-0.7-1.3c-1.2-2.7-1-6.9,0.9-8c0.5-0.3,1.1-0.4,1.7-0.4
				c0.5,0,1,0.1,1.5,0.3C37.9,27,38.1,27.2,38.4,27.4z"/>
			<path class="st0" d="M36.4,42.6c-0.1,0-0.2,0-0.3,0c-2.6-1.3-4.6-3.4-5.8-6c-1.4-3.2-1.6-8.3,0.9-11.1c-2.4,2.8-2.2,7.9-0.8,11
				C31.6,39.2,33.8,41.3,36.4,42.6z"/>
			<path class="st0" d="M27,21.1c-0.1,0.2-0.3,0.3-0.4,0.5C26.7,21.4,26.9,21.2,27,21.1z"/>
		</g>
	</g>
</g>
<g>
	<g id="XMLID_00000166676779302793936930000016655496184585056150_">
		<g>
			<path class="st0" d="M82.2,54.5c-0.9,0.1-1.8,0-2.7-0.2c-0.2,0-0.3-0.1-0.5-0.1c0.2,0.1,0.4,0.1,0.6,0.1
				C80.5,54.4,81.4,54.5,82.2,54.5z"/>
			<path class="st0" d="M81.1,29.2c-2.1,0.2-4.2,0.9-6.1,2.1c-2.8,1.9-4.7,4.8-5.4,8.1c-0.7,3.3,0,6.7,1.9,9.5
				c1.3,1.9,3.1,3.5,5.1,4.4c-2.1-1-3.9-2.5-5.2-4.4c-1.9-2.8-2.5-6.2-1.9-9.5c0.7-3.3,2.6-6.2,5.4-8.1
				C76.8,30.1,78.9,29.3,81.1,29.2z"/>
			<path class="st0" d="M89.7,52.1c0.5-0.2,1-0.5,1.5-0.9C90.8,51.6,90.3,51.9,89.7,52.1L89.7,52.1c-3.2,1.2-8.5-1-10.2-5
				c-0.8-2-1-4.6-0.4-6.4c-0.6,1.8-0.5,4.4,0.4,6.3C81.3,51,86.5,53.2,89.7,52.1L89.7,52.1z"/>
			<path d="M112.5,19.2c0.8,0.4,1.2,1.4,0.8,2.3l-3.1,6.1c0.2,0.1,0.3,0.2,0.5,0.3c1.8,1.6,2.8,3.9,2.8,6.3c0,1.3-0.3,2.7-0.9,3.8
				c-1.5,2.7-2.3,5.7-2.4,8.8v2.6c0,4-1.6,7.9-4.5,10.7c-2.9,2.8-6.7,4.4-10.7,4.5H71.3c-1.4,0-2.6-0.8-3.2-2s-0.5-2.7,0.3-3.8
				c1.1-1.6,2.4-3,3.9-4.3c-3.7-2.9-6-7.2-6.2-11.9c-0.2-4.7,1.6-9.3,5.1-12.5c3.4-3.2,8.1-4.7,12.8-4.2c4.7,0.5,8.9,3.1,11.5,7
				c0.2,0.6,0.6,1.2,0.9,1.8v-0.2c0-1.7,0.5-3.3,1.4-4.7c0.9-1.4,2.2-2.5,3.7-3.3V19c0-0.9,0.8-1.7,1.7-1.7s1.7,0.8,1.7,1.7v6.8
				c0.7,0,1.5,0.1,2.2,0.3l3.1-6.1C110.7,19.2,111.7,18.8,112.5,19.2z M109.9,34.2c0-0.2,0-0.3,0-0.5c-0.1-1.2-0.7-2.5-1.7-3.3
				c-1.1-1-2.5-1.4-3.9-1.3c-2.7,0.4-4.6,2.7-4.6,5.3V43c0,2.1-1,4-2.8,5.2h-0.1c-1,3-3.2,5.5-6.1,6.8c-2.6,1.7-5.6,2.6-8.7,2.6
				c-1.1,0-2.1-0.1-3.1-0.3c-1.3-0.3-2.6-0.7-3.8-1.3c-0.1,0.1-0.1,0.2-0.2,0.3c-1.4,1.3-2.7,2.7-3.9,4.2c-0.1,0.1-0.1,0.2,0,0.3
				c0,0.1,0.1,0.1,0.2,0.1c0,0,0,0.1-0.1,0.1c0,0.1-0.1,0.2,0,0.3c0,0.1,0.1,0.1,0.2,0.1h23.3c3.2,0,6.2-1.3,8.4-3.5
				c1.8-1.8,2.9-4.1,3.3-6.5c0.2-0.8,0.3-1.6,0.3-2.5v-2.6c0-2.3,0.5-4.9,1.5-7.3c0.1-0.2,0.2-0.5,0.3-0.7c0.3-0.6,0.6-1.2,0.9-1.7
				C109.8,35.9,109.9,35.1,109.9,34.2C109.9,34.3,109.9,34.3,109.9,34.2C109.9,34.3,109.9,34.2,109.9,34.2z M94,46.7
				c1.3-3.9,0.8-8.3-1.4-11.9c-1.9-2.8-4.8-4.7-8.1-5.4c-0.7-0.1-1.3-0.2-2-0.2c-0.5,0-1,0-1.4,0c-2.2,0.2-4.3,0.9-6.2,2.1
				c-2.8,1.9-4.7,4.8-5.4,8.1c-0.6,3.3,0,6.7,1.9,9.5c1.3,2,3.1,3.5,5.2,4.4c0.8,0.4,1.5,0.6,2.4,0.8c0.2,0.1,0.3,0.1,0.5,0.1
				c0.9,0.2,1.8,0.3,2.7,0.2h0.1c-2.6-1.3-4.8-3.4-6-6.1c-0.8-1.9-1.2-4.4-0.9-6.8c0-0.2,0.1-0.3,0.1-0.5c0-0.1,0-0.3,0.1-0.4
				c0.5-1.9,1.4-3.6,3.2-4.6c1.8-0.9,4-1,5.9-0.3c1.2,0.4,2.3,1.3,2.9,2.4c0.1,0.2,0.2,0.3,0.2,0.5c0.3,0.9,0.4,1.8,0.3,2.7
				c-0.2,1.6-1,3.1-2.4,4.2c-0.4,0.4-1,0.5-1.5,0.4c-0.2-0.1-0.4-0.1-0.6-0.3c-0.1-0.1-0.2-0.1-0.2-0.2l0,0c-0.4-0.4-0.5-1-0.4-1.5
				c0.1-0.3,0.2-0.6,0.5-0.9c0.9-0.6,1.4-1.7,1.3-2.7c0-0.1,0-0.1,0-0.2s0-0.2,0-0.4c-0.3-0.5-0.7-0.9-1.2-1s-0.9-0.2-1.4-0.2
				c-0.6,0-1.2,0.1-1.8,0.4c-0.4,0.2-0.8,0.7-1,1.2c-0.1,0.2-0.2,0.3-0.2,0.5c-0.7,1.8-0.5,4.4,0.4,6.4c1.7,4,7,6.2,10.1,5.1h0.1
				c0.5-0.3,1-0.6,1.5-1c0,0,0,0,0.1-0.1C92.6,50.1,93.6,48.5,94,46.7z"/>
			<path class="st0" d="M109.9,34.3L109.9,34.3c0,0.8-0.2,1.7-0.6,2.3c-0.3,0.6-0.6,1.2-0.9,1.7c0.3-0.6,0.6-1.2,0.9-1.8
				C109.7,35.8,109.9,35,109.9,34.3z"/>
			<path class="st0" d="M109.9,33.8c0,0.2,0,0.3,0,0.5c0,0.8-0.2,1.6-0.6,2.2c-0.3,0.6-0.6,1.2-0.9,1.8c-0.1,0.2-0.2,0.5-0.3,0.7
				c-1,2.5-1.6,5.1-1.6,7.8v2.6c0,0.7,0,1.3-0.2,1.9c-0.5,2.3-1.6,4.3-3.2,5.9c-2.3,2.3-5.3,3.5-8.4,3.5H71.3l0,0
				c1.1-1.6,2.4-2.9,3.8-4.1c0.1-0.1,0.1-0.2,0.2-0.3c1.2,0.6,2.5,1,3.8,1.3c1,0.2,2.1,0.3,3.1,0.3c3.1,0,6.1-0.9,8.7-2.6
				c2.9-1.3,5.1-3.8,6.1-6.8h0.1c0.9-0.6,1.6-1.4,2-2.3c0.5-0.9,0.8-1.9,0.8-2.9v-8.6c-0.1-2.7,1.9-5,4.6-5.3
				c1.4-0.1,2.8,0.3,3.9,1.3C109.2,31.4,109.8,32.5,109.9,33.8z"/>
			<path class="st0" d="M109.9,33.8c-0.1-1.3-0.7-2.3-1.6-2.8c-1.1-1-2.5-1.4-3.9-1.3c-2.7,0.3-4.7,2.6-4.6,5.3v8.6
				c0,1.1-0.3,2.1-0.8,2.9c-0.5,0.9-1.2,1.7-2,2.3h-0.1c-1,3-3.2,5.5-6.1,6.8c-2.6,1.7-5.6,2.6-8.7,2.6c-1,0-2.1-0.1-3.1-0.3
				c-1.3-0.3-2.6-0.7-3.8-1.3c-0.1,0.1-0.1,0.2-0.2,0.3c-1.5,1.2-2.7,2.5-3.8,4.1c-0.1,0-0.2,0-0.2-0.1c-0.1-0.1-0.1-0.2,0-0.3
				c1.2-1.5,2.5-2.9,3.9-4.2c0.1-0.1,0.1-0.2,0.2-0.3c1.2,0.6,2.5,1,3.8,1.3c1,0.2,2,0.3,3.1,0.3c3.1,0,6.1-0.9,8.7-2.6
				c2.9-1.3,5.1-3.8,6.1-6.8h0.1c1.8-1.2,2.8-3.1,2.8-5.2v-8.6c0-2.6,1.9-4.9,4.6-5.3c1.4-0.1,2.8,0.3,3.9,1.3
				C109.2,31.3,109.8,32.5,109.9,33.8z"/>
			<path class="st1" d="M103.2,57.4c1.6-1.6,2.8-3.7,3.2-5.9c-0.4,2.4-1.5,4.6-3.3,6.5c-2.2,2.2-5.2,3.5-8.4,3.5H71.3
				c-0.1,0-0.2,0-0.2-0.1c-0.1-0.1,0-0.2,0-0.3c0,0,0-0.1,0.1-0.1l0,0h23.5C97.9,60.9,100.9,59.7,103.2,57.4z"/>
			<path class="st0" d="M92.7,34.8c2.2,3.6,2.7,8,1.4,11.9c-0.4,1.8-1.5,3.4-2.9,4.5c1.3-1.1,2.3-2.7,2.8-4.5
				C95.4,42.7,94.9,38.3,92.7,34.8c-2-2.8-4.9-4.7-8.2-5.4c-0.6-0.1-1.3-0.2-1.9-0.2c0.7,0,1.3,0.1,2,0.2
				C87.9,30.1,90.8,32,92.7,34.8z"/>
			<path class="st0" d="M92.5,34.8c2.3,3.5,2.8,7.9,1.4,11.9c-0.4,1.8-1.4,3.3-2.8,4.5c0,0,0,0-0.1,0.1c-0.4,0.3-0.9,0.6-1.5,0.9
				h-0.1c-3.1,1.1-8.3-1.1-10.1-5.1c-0.8-1.9-1-4.5-0.4-6.3c0.1-0.2,0.1-0.3,0.2-0.5c0.3-0.5,0.6-0.9,1-1.1c0.6-0.3,1.2-0.4,1.8-0.4
				c0.5,0,0.9,0,1.4,0.2s1,0.5,1.2,1c0,0.1,0,0.2,0,0.3c0,0.1,0,0.1,0,0.2c0,1-0.5,2-1.3,2.6c-0.3,0.3-0.4,0.7-0.5,1
				c-0.1,0.5,0,1.1,0.4,1.5l0,0l0,0c0.1,0.1,0.2,0.2,0.2,0.2c0.2,0.1,0.4,0.2,0.6,0.3c0.5,0.1,1.1,0,1.5-0.4c1.4-1,2.2-2.6,2.4-4.2
				c0.1-0.9,0-1.8-0.3-2.7c-0.1-0.2-0.2-0.3-0.2-0.5c-0.6-1.1-1.6-1.9-2.9-2.4c-1.9-0.7-4.1-0.6-5.9,0.3s-2.7,2.6-3.2,4.6
				c0,0.1-0.1,0.3-0.1,0.4c0,0.2-0.1,0.3-0.1,0.5c-0.3,2.4,0.1,4.9,0.8,6.8c1.2,2.7,3.3,4.8,6,6.1c-0.9,0-1.7-0.1-2.6-0.2
				c-0.2,0-0.4-0.1-0.6-0.1c-0.8-0.2-1.6-0.5-2.4-0.8c-2-1-3.8-2.5-5.1-4.4c-1.9-2.8-2.6-6.2-1.9-9.5s2.6-6.2,5.4-8.1
				c1.8-1.2,3.9-2,6.1-2.1c0.5,0,1,0,1.4,0c0.6,0,1.3,0.1,1.9,0.2C87.8,30.1,90.7,32,92.5,34.8z"/>
			<path class="st0" d="M85.8,45.6c1.4-1.1,2.2-2.6,2.4-4.2C87.9,43,87.1,44.6,85.8,45.6z"/>
			<path class="st1" d="M84.8,39.8c0,0.1,0,0.2,0,0.4C84.8,40.1,84.8,40,84.8,39.8c-0.2-0.4-0.7-0.7-1.2-0.9s-0.9-0.2-1.4-0.2
				c-0.6,0-1.2,0.1-1.8,0.4c-0.4,0.2-0.8,0.6-1,1.1c0.2-0.5,0.6-0.9,1-1.2c0.6-0.3,1.2-0.4,1.8-0.4c0.5,0,0.9,0.1,1.4,0.2
				S84.4,39.3,84.8,39.8z"/>
			<path class="st0" d="M83.6,45.8c0.2,0.1,0.4,0.2,0.6,0.3C84,46,83.8,45.9,83.6,45.8z"/>
			<path class="st1" d="M82.3,54.5L82.3,54.5c-2.8-1.3-4.9-3.4-6.1-6.1c-0.8-1.9-1.2-4.5-0.8-6.8c-0.3,2.4,0.1,4.9,0.9,6.8
				C77.5,51.1,79.8,53.2,82.3,54.5z"/>
			<path class="st0" d="M75.5,41.1c0,0.2-0.1,0.3-0.1,0.5C75.4,41.4,75.5,41.2,75.5,41.1z"/>
		</g>
	</g>
</g>
</svg>
