<svg version="1.1" viewBox="0.0 0.0 133.44094488188978 133.44094488188978" fill="none" stroke="none" stroke-linecap="square" stroke-miterlimit="10" xmlns:xlink="http://www.w3.org/1999/xlink" xmlns="http://www.w3.org/2000/svg"><clipPath id="p.0"><path d="m0 0l133.44095 0l0 133.44095l-133.44095 0l0 -133.44095z" clip-rule="nonzero"/></clipPath><g clip-path="url(#p.0)"><path fill="#000000" fill-opacity="0.0" d="m0 0l133.44095 0l0 133.44095l-133.44095 0z" fill-rule="evenodd"/><path fill="#b30000" d="m1.6141732 23.974182l0 0c0 -11.837395 9.596105 -21.4335 21.433498 -21.4335l86.896774 0l0 0c5.684517 0 11.136215 2.2581658 15.155777 6.2777267c4.019554 4.019561 6.277733 9.471256 6.277733 15.155773l0 85.73142c0 11.837395 -9.596115 21.43351 -21.43351 21.43351l-86.896774 0c-11.837395 0 -21.433498 -9.596115 -21.433498 -21.43351z" fill-rule="evenodd"/><path stroke="#000000" stroke-width="4.0" stroke-linejoin="round" stroke-linecap="butt" d="m1.6141732 23.974182l0 0c0 -11.837395 9.596105 -21.4335 21.433498 -21.4335l86.896774 0l0 0c5.684517 0 11.136215 2.2581658 15.155777 6.2777267c4.019554 4.019561 6.277733 9.471256 6.277733 15.155773l0 85.73142c0 11.837395 -9.596115 21.43351 -21.43351 21.43351l-86.896774 0c-11.837395 0 -21.433498 -9.596115 -21.433498 -21.43351z" fill-rule="evenodd"/><path fill="#ffffff" d="m42.094696 76.71989l0 -20.046871l8.515625 0q3.21875 0 4.671875 0.546875q1.453125 0.53125 2.328125 1.921875q0.875 1.375 0.875 3.15625q0 2.2499962 -1.328125 3.7187462q-1.3125 1.46875 -3.953125 1.859375q1.3125 0.765625 2.15625 1.6875q0.859375 0.90625 2.3125 3.25l2.453125 3.90625l-4.84375 0l-2.921875 -4.359375q-1.5625 -2.34375 -2.140625 -2.953125q-0.578125 -0.609375 -1.21875 -0.828125q-0.640625 -0.234375 -2.03125 -0.234375l-0.828125 0l0 8.375l-4.046875 0zm4.046875 -11.5625l3.0 0q2.90625 0 3.625 -0.25q0.734375 -0.25 1.140625 -0.84375q0.421875 -0.6093712 0.421875 -1.5156212q0 -1.0 -0.546875 -1.625q-0.546875 -0.625 -1.53125 -0.78125q-0.484375 -0.078125 -2.953125 -0.078125l-3.15625 0l0 5.093746zm24.548828 6.9375l3.828125 0.640625q-0.734375 2.109375 -2.328125 3.21875q-1.59375 1.09375 -3.984375 1.09375q-3.796875 0 -5.609375 -2.46875q-1.4375 -1.984375 -1.4375 -5.015625q0 -3.609375 1.875 -5.640621q1.890625 -2.046875 4.78125 -2.046875q3.234375 0 5.109375 2.1406212q1.875 2.140625 1.796875 6.546875l-9.625 0q0.046875 1.71875 0.921875 2.671875q0.890625 0.9375 2.21875 0.9375q0.90625 0 1.515625 -0.484375q0.625 -0.5 0.9375 -1.59375zm0.21875 -3.875q-0.046875 -1.671875 -0.875 -2.53125q-0.8125 -0.875 -1.984375 -0.875q-1.265625 0 -2.078125 0.90625q-0.828125 0.921875 -0.8125 2.5l5.75 0zm20.259766 8.5l-3.5625 0l0 -2.140625q-0.890625 1.25 -2.109375 1.859375q-1.203125 0.609375 -2.4375 0.609375q-2.5 0 -4.28125 -2.015625q-1.78125 -2.015625 -1.78125 -5.625q0 -3.6875 1.734375 -5.609371q1.734375 -1.921875 4.390625 -1.921875q2.421875 0 4.203125 2.015625l0 -7.21875l3.84375 0l0 20.046871zm-10.25 -7.578125q0 2.328125 0.640625 3.359375q0.921875 1.515625 2.59375 1.515625q1.328125 0 2.25 -1.125q0.9375 -1.140625 0.9375 -3.375q0 -2.5 -0.90625 -3.59375q-0.90625 -1.109375 -2.3125 -1.109375q-1.359375 0 -2.28125 1.09375q-0.921875 1.078125 -0.921875 3.234375z" fill-rule="nonzero"/></g></svg>