<?xml version="1.0" encoding="utf-8"?>
<!-- Generator: Adobe Illustrator 27.1.1, SVG Export Plug-In . SVG Version: 6.00 Build 0)  -->
<svg version="1.1" id="Layer_1" xmlns="http://www.w3.org/2000/svg" xmlns:xlink="http://www.w3.org/1999/xlink" x="0px" y="0px"
	 viewBox="0 0 133 133" style="enable-background:new 0 0 133 133;" xml:space="preserve">
<style type="text/css">
	.st0{fill:#1C7F52;}
	.st1{fill:#FFFFFF;}
	.st2{fill:none;stroke:#000000;stroke-miterlimit:10;}
</style>
<path class="st0" d="M120.9,133H12.1c-6.6,0-12-5.4-12-12V12c0-6.6,5.4-12,12-12h108.8c6.6,0,12,5.4,12,12v109
	C132.9,127.6,127.5,133,120.9,133z"/>
<g>
	<g id="XMLID_00000171680851213780649640000007749640630514851203_">
		<g>
			<path d="M83.9,84.3l0.2,1.5h-1.9c-0.9,0-1.6-0.6-1.7-1.5l-0.2-1.5h1.9C83,82.8,83.7,83.4,83.9,84.3z"/>
			<path class="st1" d="M5.6,115.7H4.7c-0.2,0-0.3-0.1-0.3-0.2s-0.1-0.2,0-0.4l5.3-8.3c0.1-0.1,0.2-0.2,0.3-0.2h6.9
				c2.4,0,4.5-1.5,5.3-3.7l3.7-10.4h-1.4c-2.1,0-3.9-1.6-4.3-3.8h49.3L72,85v-5.3h-6.2c-1.3,0-2.6-0.5-3.6-1.5l-5.7-5.7
				c-0.2-0.2-0.2-0.5-0.1-0.7c0.2-0.2,0.4-0.3,0.7-0.2l10.2,4.1l-1.6-9.6c0.4,0,1.1,0.3,1.3,0.7l8.3,12h4.6c2.3,0,4,1,5.3,2.9
				l3.8,5.5c0.6,0.9,0.7,2,0.2,2.9s-1.4,1.5-2.5,1.5h-4.5l-0.9,4c-0.8,4.2-4.2,7.4-8.4,8l-2.2,0.4l2.9,2.7h10.2c1,0,1.9,0.5,2.5,1.3
				l2.2,3.3c0.3,0.5,0.3,1.1,0.1,1.6c-0.3,0.5-0.8,0.8-1.3,0.8s-0.9-0.2-1.2-0.6l-2.5-3.4H69.7c-0.6,0-1.2-0.3-1.5-0.8l-3.7-5.2H40
				l-7.6,4.9c-1.1,0.7-2.4,1.1-3.7,1.1h-17l-2.8,4.2C8.1,115,6.9,115.7,5.6,115.7z M84.1,85.8l-0.2-1.5c-0.1-0.8-0.9-1.5-1.7-1.5
				h-1.9l0.2,1.5c0.1,0.8,0.9,1.5,1.7,1.5H84.1z"/>
			<path d="M22.2,103c-0.8,2.2-2.9,3.7-5.3,3.7H10c-0.1,0-0.2,0.1-0.3,0.2l-5.3,8.3c-0.1,0.2-0.1,0.3,0,0.4c0,0.1,0.1,0.2,0.3,0.2
				h0.9c1.3,0,2.6-0.7,3.3-1.8l2.8-4.2h16.9c1.3,0,2.6-0.4,3.7-1.1l7.6-4.9h24.6l3.7,5.2c0.4,0.5,0.9,0.8,1.5,0.8h13.8l2.5,3.4
				c0.3,0.4,0.7,0.6,1.2,0.6c0.6,0,1.1-0.3,1.3-0.8c0.3-0.5,0.2-1.1-0.1-1.6l-2.2-3.3c-0.6-0.8-1.5-1.3-2.5-1.3H73.6l-2.9-2.8
				l2.1-0.3c4.3-0.5,7.7-3.7,8.4-8l0.9-4h4.5c1.1,0,2-0.6,2.5-1.5s0.4-2.1-0.2-2.9l-3.8-5.5c-1.3-2-3-2.9-5.3-2.9h-4.6l-8.3-12
				c-0.2-0.4-0.9-0.7-1.3-0.7l1.6,9.6L57,71.7c-0.3-0.1-0.5,0-0.7,0.2s-0.1,0.5,0.1,0.7l5.8,5.8c0.9,1,2.2,1.5,3.6,1.5H72v5.3
				l-2.5,3.7H20.3c0.4,2.2,2.1,3.8,4.3,3.8H26L22.2,103z M16.9,104.7c1.5,0,2.9-1,3.4-2.4l2.8-7.9c-2.8-0.7-5-3.4-5-6.6v-1h50.4
				l1.5-2.3v-2.7h-4.2c-1.9,0-3.7-0.7-5-2.1L55,73.9c-0.9-0.9-1-2.3-0.3-3.3s2-1.4,3.1-0.9l7,2.8l-1-6.1c-0.1-0.6,0.1-1.2,0.4-1.6
				c0.4-0.4,0.9-0.7,1.5-0.7c1.1,0,2.4,0.7,3,1.6l7.8,11.1H80c2.9,0,5.3,1.3,6.9,3.8l3.7,5.5c1,1.5,1.1,3.4,0.3,5
				c-0.9,1.6-2.5,2.6-4.3,2.6h-2.9l-0.6,2.4c-0.7,3.9-3.2,7-6.7,8.6h7.3c1.7,0,3.2,0.8,4.2,2.2l2.2,3.3c0.7,1.1,0.8,2.5,0.2,3.6
				c-0.6,1.1-1.8,1.9-3.1,1.9c-1.1,0-2.2-0.5-2.8-1.4l-1.9-2.6H69.7c-1.2,0-2.4-0.6-3.2-1.6l-3-4.4H40.6l-7.2,4.6
				c-1.4,0.9-3.1,1.4-4.8,1.4H12.8l-2.3,3.3c-1.1,1.7-3,2.7-5,2.7H4.6c-0.9,0-1.6-0.5-2.1-1.2s-0.4-1.7,0.1-2.4l5.3-8.3
				c0.4-0.7,1.2-1.1,2-1.1H16.9z"/>
		</g>
		<g>
			<path class="st2" d="M5.6,117.7H4.7c-0.9,0-1.6-0.5-2.1-1.2s-0.4-1.7,0.1-2.4l5.3-8.3c0.4-0.7,1.2-1.1,2-1.1h6.9
				c1.5,0,2.9-1,3.4-2.4l2.8-7.9c-2.8-0.7-5-3.4-5-6.6v-1h50.4l1.5-2.3v-2.7h-4.2c-1.9,0-3.7-0.7-5-2.1L55,73.9
				c-0.9-0.9-1-2.3-0.3-3.3s2-1.4,3.1-0.9l7,2.8l-1-6.1c-0.1-0.6,0.1-1.2,0.4-1.6c0.4-0.4,0.9-0.7,1.5-0.7c1.1,0,2.4,0.7,3,1.6
				l7.8,11.1H80c2.9,0,5.3,1.3,6.9,3.8l3.7,5.5c1,1.5,1.1,3.4,0.3,5c-0.9,1.6-2.5,2.6-4.3,2.6h-2.9l-0.6,2.4c-0.7,3.9-3.2,7-6.7,8.6
				h7.3c1.7,0,3.2,0.8,4.2,2.2l2.2,3.3c0.7,1.1,0.8,2.5,0.2,3.6c-0.6,1.1-1.8,1.9-3.1,1.9c-1.1,0-2.2-0.5-2.8-1.4l-1.9-2.6H69.7
				c-1.2,0-2.4-0.6-3.2-1.6l-3-4.4H40.6l-7.2,4.6c-1.4,0.9-3.1,1.4-4.8,1.4H12.8l-2.3,3.3C9.4,116.7,7.6,117.7,5.6,117.7z"/>
			<path class="st2" d="M10,106.7c-0.1,0-0.2,0.1-0.3,0.2l-5.3,8.3c-0.1,0.2-0.1,0.3,0,0.4c0,0.1,0.1,0.2,0.3,0.2h0.9
				c1.3,0,2.6-0.7,3.3-1.8l2.8-4.2h16.9c1.3,0,2.6-0.4,3.7-1.1l7.6-4.9h24.6l3.7,5.2c0.4,0.5,0.9,0.8,1.5,0.8h13.8l2.5,3.4
				c0.3,0.4,0.7,0.6,1.2,0.6c0.6,0,1.1-0.3,1.3-0.8c0.3-0.5,0.2-1.1-0.1-1.6l-2.2-3.3c-0.6-0.8-1.5-1.3-2.5-1.3H73.6l-2.9-2.8
				l2.1-0.3c4.3-0.5,7.7-3.7,8.4-8l0.9-4h4.5c1.1,0,2-0.6,2.5-1.5s0.4-2.1-0.2-2.9l-3.8-5.5c-1.3-2-3-2.9-5.3-2.9h-4.6l-8.3-12
				c-0.2-0.4-0.9-0.7-1.3-0.7l1.6,9.6L57,71.7c-0.3-0.1-0.5,0-0.7,0.2s-0.1,0.5,0.1,0.7l5.8,5.8c0.9,1,2.2,1.5,3.6,1.5H72v5.3
				l-2.5,3.7H20.3c0.4,2.2,2.1,3.8,4.3,3.8H26L22.2,103c-0.8,2.2-2.9,3.7-5.3,3.7H10z"/>
			<path class="st2" d="M83.9,84.3l0.2,1.5h-1.9c-0.9,0-1.6-0.6-1.7-1.5l-0.2-1.5h1.9C83,82.8,83.7,83.4,83.9,84.3z"/>
		</g>
	</g>
</g>
<g>
	<g id="XMLID_00000056406412294032893760000015209615809114644651_">
		<g>
			<path d="M120,93.7l0.2,1.5h-1.9c-0.9,0-1.6-0.6-1.7-1.5l-0.2-1.5h1.9C119.1,92.2,119.8,92.8,120,93.7z"/>
			<path class="st1" d="M40.5,124.5l5.3-8.3c0.1-0.1,0.2-0.2,0.3-0.2H53c2.4,0,4.5-1.5,5.3-3.7l3.7-10.4h-1.4
				c-2.1,0-3.9-1.6-4.3-3.8h49.3l2.5-3.7v-5.3h-6.2c-1.3,0-2.6-0.5-3.6-1.5l-5.7-5.7c-0.2-0.2-0.2-0.5-0.1-0.7
				c0.2-0.2,0.4-0.3,0.7-0.2l10.2,4.1l-1.5-9.6c0.4,0,1.1,0.3,1.3,0.7l8.4,12h4.6c2.3,0,4,1,5.3,2.9l3.8,5.5c0.6,0.9,0.7,2,0.2,2.9
				c-0.5,1-1.4,1.5-2.5,1.5h-4.5l-0.9,4c-0.8,4.2-4.2,7.4-8.4,8l-2.1,0.3l2.9,2.7h10.2c1,0,1.9,0.5,2.5,1.3l2.2,3.3
				c0.3,0.5,0.3,1.1,0.1,1.6c-0.3,0.5-0.8,0.8-1.3,0.8s-0.9-0.2-1.2-0.6L120,119h-13.7c-0.6,0-1.2-0.3-1.5-0.8l-3.7-5.2h-25
				l-7.7,4.9c-1.1,0.7-2.4,1.1-3.7,1.1H47.8l-2.8,4.2c-0.7,1.1-2,1.8-3.3,1.8h-0.9c-0.2,0-0.3-0.1-0.3-0.2
				C40.5,124.8,40.4,124.7,40.5,124.5z M120.2,95.2l-0.2-1.5c-0.1-0.8-0.9-1.5-1.7-1.5h-1.9l0.2,1.5c0.1,0.8,0.9,1.5,1.7,1.5H120.2z
				"/>
			<path d="M38.8,125.9c-0.4-0.8-0.4-1.7,0.1-2.4l5.3-8.3c0.4-0.7,1.2-1.1,2-1.1h6.9c1.5,0,2.9-1,3.4-2.4l2.8-7.9
				c-2.8-0.7-5-3.4-5-6.6v-1h50.3l1.5-2.3v-2.7h-4.2c-1.9,0-3.7-0.7-5-2.1l-5.8-5.8c-0.9-0.9-1-2.3-0.3-3.3s2-1.4,3.1-0.9l7,2.8
				l-1-6.1c-0.1-0.6,0.1-1.2,0.4-1.6c0.4-0.4,0.9-0.7,1.5-0.7c1.1,0,2.4,0.7,3,1.6l7.7,11.2h3.5c2.9,0,5.3,1.3,6.9,3.8l3.8,5.5
				c1,1.5,1.1,3.4,0.3,5c-0.9,1.6-2.5,2.6-4.3,2.6h-2.9l-0.6,2.4c-0.7,3.8-3.2,7-6.7,8.6h7.3c1.7,0,3.2,0.8,4.2,2.2l2.2,3.3
				c0.7,1.1,0.8,2.5,0.2,3.6c-0.6,1.1-1.8,1.9-3.1,1.9c-1.1,0-2.2-0.5-2.8-1.4l-1.9-2.6h-12.7c-1.2,0-2.4-0.6-3.2-1.6l-3.1-4.4H76.7
				l-7.2,4.6c-1.4,0.9-3.1,1.4-4.8,1.4H48.9l-2.3,3.2c-1.1,1.7-3,2.7-5,2.7h-0.9C40,127.1,39.2,126.6,38.8,125.9z M45.8,116.3
				l-5.3,8.3c-0.1,0.2-0.1,0.3,0,0.4c0,0.1,0.1,0.2,0.3,0.2h0.9c1.3,0,2.6-0.7,3.3-1.8l2.8-4.2h16.9c1.3,0,2.6-0.4,3.7-1.1l7.7-4.9
				h24.5l3.7,5.2c0.4,0.5,0.9,0.8,1.5,0.8h13.8l2.5,3.4c0.3,0.4,0.8,0.6,1.2,0.6c0.6,0,1.1-0.3,1.3-0.8c0.3-0.5,0.2-1.1-0.1-1.6
				l-2.2-3.3c-0.6-0.8-1.5-1.3-2.5-1.3h-10.2l-2.9-2.7l2.1-0.3c4.3-0.5,7.7-3.7,8.4-8l0.9-4h4.5c1.1,0,2-0.6,2.5-1.5
				s0.4-2.1-0.2-2.9l-3.8-5.5c-1.3-2-3-2.9-5.3-2.9h-4.6l-8.4-12c-0.2-0.4-0.9-0.7-1.3-0.7l1.5,9.6l-10.2-4.1
				c-0.2-0.1-0.5,0-0.7,0.2S92,81.8,92.2,82l5.8,5.8c0.9,1,2.2,1.5,3.6,1.5h6.2v5.3l-2.5,3.7H56.4c0.4,2.2,2.1,3.8,4.3,3.8h1.4
				l-3.8,10.2c-0.8,2.2-2.9,3.7-5.3,3.7h-6.9C46,116.1,45.8,116.2,45.8,116.3z"/>
		</g>
		<g>
			<path class="st2" d="M41.7,127.1h-0.9c-0.9,0-1.6-0.5-2.1-1.2c-0.4-0.8-0.4-1.7,0.1-2.4l5.3-8.3c0.4-0.7,1.2-1.1,2-1.1H53
				c1.5,0,2.9-1,3.4-2.4l2.8-7.9c-2.8-0.7-5-3.4-5-6.6v-1h50.4l1.5-2.3v-2.7h-4.2c-1.9,0-3.7-0.7-5-2.1l-5.8-5.8
				c-0.9-0.9-1-2.3-0.3-3.3s2-1.4,3.1-0.9l7,2.8l-1-6.1c-0.1-0.6,0.1-1.2,0.4-1.6c0.4-0.4,0.9-0.7,1.5-0.7c1.1,0,2.4,0.7,3,1.6
				l7.7,11.2h3.5c2.9,0,5.3,1.3,6.9,3.8l3.8,5.5c1,1.5,1.1,3.4,0.3,5c-0.9,1.6-2.5,2.6-4.3,2.6h-2.9l-0.6,2.4
				c-0.7,3.8-3.2,7-6.7,8.6h7.3c1.7,0,3.2,0.8,4.2,2.2l2.2,3.3c0.7,1.1,0.8,2.5,0.2,3.6c-0.6,1.1-1.8,1.9-3.1,1.9
				c-1.1,0-2.2-0.5-2.8-1.4l-1.9-2.6h-12.7c-1.2,0-2.4-0.6-3.2-1.6l-3.1-4.4H76.7l-7.2,4.6c-1.4,0.9-3.1,1.4-4.8,1.4H48.9l-2.3,3.2
				C45.5,126.1,43.7,127.1,41.7,127.1z"/>
			<path class="st2" d="M46.1,116.1c-0.1,0-0.2,0.1-0.3,0.2l-5.3,8.3c-0.1,0.2-0.1,0.3,0,0.4c0,0.1,0.1,0.2,0.3,0.2h0.9
				c1.3,0,2.6-0.7,3.3-1.8l2.8-4.2h16.9c1.3,0,2.6-0.4,3.7-1.1l7.7-4.9h24.5l3.7,5.2c0.4,0.5,0.9,0.8,1.5,0.8h13.8l2.5,3.4
				c0.3,0.4,0.8,0.6,1.2,0.6c0.6,0,1.1-0.3,1.3-0.8c0.3-0.5,0.2-1.1-0.1-1.6l-2.2-3.3c-0.6-0.8-1.5-1.3-2.5-1.3h-10.2l-2.9-2.7
				l2.1-0.3c4.3-0.5,7.7-3.7,8.4-8l0.9-4h4.5c1.1,0,2-0.6,2.5-1.5s0.4-2.1-0.2-2.9l-3.8-5.5c-1.3-2-3-2.9-5.3-2.9h-4.6l-8.4-12
				c-0.2-0.4-0.9-0.7-1.3-0.7l1.5,9.6l-10.2-4.1c-0.2-0.1-0.5,0-0.7,0.2S92,81.8,92.2,82l5.8,5.8c0.9,1,2.2,1.5,3.6,1.5h6.2v5.3
				l-2.5,3.7H56.4c0.4,2.2,2.1,3.8,4.3,3.8h1.4l-3.8,10.2c-0.8,2.2-2.9,3.7-5.3,3.7H46.1z"/>
			<path class="st2" d="M120,93.7l0.2,1.5h-1.9c-0.9,0-1.6-0.6-1.7-1.5l-0.2-1.5h1.9C119.1,92.2,119.8,92.8,120,93.7z"/>
		</g>
	</g>
</g>
</svg>
