<?xml version="1.0" encoding="utf-8"?>
<!-- Generator: Adobe Illustrator 26.3.1, SVG Export Plug-In . SVG Version: 6.00 Build 0)  -->
<svg version="1.1" id="Layer_1" xmlns="http://www.w3.org/2000/svg" xmlns:xlink="http://www.w3.org/1999/xlink" x="0px" y="0px"
	 viewBox="0 0 133 133" style="enable-background:new 0 0 133 133;" xml:space="preserve">
<style type="text/css">
	.st0{fill:#2CC774;}
	.st1{fill:#FFFFFF;}
	.st2{fill:none;stroke:#000000;stroke-miterlimit:10;}
</style>
<path class="st0" d="M120.8,133.5H12c-6.6,0-12-5.4-12-12v-109c0-6.6,5.4-12,12-12h108.8c6.6,0,12,5.4,12,12v109
	C132.8,128.1,127.4,133.5,120.8,133.5z"/>
<g>
	<g id="XMLID_00000171680851213780649640000007749640630514851203_">
		<g>
			<path d="M91.4,78.3l0.2,1.5h-1.9c-0.9,0-1.6-0.6-1.7-1.5l-0.2-1.5h1.9C90.5,76.8,91.2,77.4,91.4,78.3z"/>
			<path class="st1" d="M13.1,109.7h-0.9c-0.2,0-0.3-0.1-0.3-0.2c0-0.1-0.1-0.2,0-0.4l5.3-8.3c0.1-0.1,0.2-0.2,0.3-0.2h6.9
				c2.4,0,4.5-1.5,5.3-3.7l3.7-10.4h-1.4c-2.1,0-3.9-1.6-4.3-3.8h49.3l2.5-3.7v-5.3l-6.2,0c-1.3,0-2.6-0.5-3.6-1.5L64,66.5
				c-0.2-0.2-0.2-0.5-0.1-0.7c0.2-0.2,0.4-0.3,0.7-0.2l10.2,4.1l-1.6-9.6c0.4,0,1.1,0.3,1.3,0.7l8.3,12h4.6c2.3,0,4,1,5.3,2.9
				l3.8,5.5c0.6,0.9,0.7,2,0.2,2.9s-1.4,1.5-2.5,1.5h-4.5l-0.9,4c-0.8,4.2-4.2,7.4-8.4,8L78.2,98l2.9,2.7h10.2c1,0,1.9,0.5,2.5,1.3
				l2.2,3.3c0.3,0.5,0.3,1.1,0.1,1.6c-0.3,0.5-0.8,0.8-1.3,0.8c-0.5,0-0.9-0.2-1.2-0.6l-2.5-3.4H77.2c-0.6,0-1.2-0.3-1.5-0.8
				L72,97.7H47.5l-7.6,4.9c-1.1,0.7-2.4,1.1-3.7,1.1H19.2l-2.8,4.2C15.6,109,14.4,109.7,13.1,109.7z M91.6,79.8l-0.2-1.5
				c-0.1-0.8-0.9-1.5-1.7-1.5h-1.9l0.2,1.5c0.1,0.8,0.9,1.5,1.7,1.5H91.6z"/>
			<path d="M29.7,97c-0.8,2.2-2.9,3.7-5.3,3.7h-6.9c-0.1,0-0.2,0.1-0.3,0.2l-5.3,8.3c-0.1,0.2-0.1,0.3,0,0.4c0,0.1,0.1,0.2,0.3,0.2
				h0.9c1.3,0,2.6-0.7,3.3-1.8l2.8-4.2h16.9c1.3,0,2.6-0.4,3.7-1.1l7.6-4.9H72l3.7,5.2c0.4,0.5,0.9,0.8,1.5,0.8H91l2.5,3.4
				c0.3,0.4,0.7,0.6,1.2,0.6c0.6,0,1.1-0.3,1.3-0.8c0.3-0.5,0.2-1.1-0.1-1.6l-2.2-3.3c-0.6-0.8-1.5-1.3-2.5-1.3H81.1L78.2,98
				l2.1-0.3c4.3-0.5,7.7-3.7,8.4-8l0.9-4h4.5c1.1,0,2-0.6,2.5-1.5s0.4-2.1-0.2-2.9l-3.8-5.5c-1.3-2-3-2.9-5.3-2.9h-4.6l-8.3-12
				c-0.2-0.4-0.9-0.7-1.3-0.7l1.6,9.6l-10.2-4.1c-0.3-0.1-0.5,0-0.7,0.2c-0.2,0.2-0.1,0.5,0.1,0.7l5.8,5.8c0.9,1,2.2,1.5,3.6,1.5
				l6.2,0v5.3l-2.5,3.7H27.8c0.4,2.2,2.1,3.8,4.3,3.8h1.4L29.7,97z M24.4,98.7c1.5,0,2.9-1,3.4-2.4l2.8-7.9c-2.8-0.7-5-3.4-5-6.6v-1
				H76l1.5-2.3v-2.7l-4.2,0c-1.9,0-3.7-0.7-5-2.1l-5.8-5.8c-0.9-0.9-1-2.3-0.3-3.3c0.7-1,2-1.4,3.1-0.9l7,2.8l-1-6.1
				c-0.1-0.6,0.1-1.2,0.4-1.6c0.4-0.4,0.9-0.7,1.5-0.7c1.1,0,2.4,0.7,3,1.6L84,70.8h3.5c2.9,0,5.3,1.3,6.9,3.8l3.7,5.5
				c1,1.5,1.1,3.4,0.3,5c-0.9,1.6-2.5,2.6-4.3,2.6h-2.9l-0.6,2.4c-0.7,3.9-3.2,7-6.7,8.6h7.3c1.7,0,3.2,0.8,4.2,2.2l2.2,3.3
				c0.7,1.1,0.8,2.5,0.2,3.6c-0.6,1.1-1.8,1.9-3.1,1.9c-1.1,0-2.2-0.5-2.8-1.4l-1.9-2.6H77.2c-1.2,0-2.4-0.6-3.2-1.6L71,99.7H48.1
				l-7.2,4.6c-1.4,0.9-3.1,1.4-4.8,1.4H20.3L18,109c-1.1,1.7-3,2.7-5,2.7h-0.9c-0.9,0-1.6-0.5-2.1-1.2s-0.4-1.7,0.1-2.4l5.3-8.3
				c0.4-0.7,1.2-1.1,2-1.1H24.4z"/>
		</g>
		<g>
			<path class="st2" d="M13.1,111.7h-0.9c-0.9,0-1.6-0.5-2.1-1.2s-0.4-1.7,0.1-2.4l5.3-8.3c0.4-0.7,1.2-1.1,2-1.1h6.9
				c1.5,0,2.9-1,3.4-2.4l2.8-7.9c-2.8-0.7-5-3.4-5-6.6v-1H76l1.5-2.3v-2.7l-4.2,0c-1.9,0-3.7-0.7-5-2.1l-5.8-5.8
				c-0.9-0.9-1-2.3-0.3-3.3c0.7-1,2-1.4,3.1-0.9l7,2.8l-1-6.1c-0.1-0.6,0.1-1.2,0.4-1.6c0.4-0.4,0.9-0.7,1.5-0.7
				c1.1,0,2.4,0.7,3,1.6L84,70.8h3.5c2.9,0,5.3,1.3,6.9,3.8l3.7,5.5c1,1.5,1.1,3.4,0.3,5c-0.9,1.6-2.5,2.6-4.3,2.6h-2.9l-0.6,2.4
				c-0.7,3.9-3.2,7-6.7,8.6h7.3c1.7,0,3.2,0.8,4.2,2.2l2.2,3.3c0.7,1.1,0.8,2.5,0.2,3.6c-0.6,1.1-1.8,1.9-3.1,1.9
				c-1.1,0-2.2-0.5-2.8-1.4l-1.9-2.6H77.2c-1.2,0-2.4-0.6-3.2-1.6L71,99.7H48.1l-7.2,4.6c-1.4,0.9-3.1,1.4-4.8,1.4H20.3L18,109
				C16.9,110.7,15.1,111.7,13.1,111.7z"/>
			<path class="st2" d="M17.5,100.7c-0.1,0-0.2,0.1-0.3,0.2l-5.3,8.3c-0.1,0.2-0.1,0.3,0,0.4c0,0.1,0.1,0.2,0.3,0.2h0.9
				c1.3,0,2.6-0.7,3.3-1.8l2.8-4.2h16.9c1.3,0,2.6-0.4,3.7-1.1l7.6-4.9H72l3.7,5.2c0.4,0.5,0.9,0.8,1.5,0.8H91l2.5,3.4
				c0.3,0.4,0.7,0.6,1.2,0.6c0.6,0,1.1-0.3,1.3-0.8c0.3-0.5,0.2-1.1-0.1-1.6l-2.2-3.3c-0.6-0.8-1.5-1.3-2.5-1.3H81.1L78.2,98
				l2.1-0.3c4.3-0.5,7.7-3.7,8.4-8l0.9-4h4.5c1.1,0,2-0.6,2.5-1.5s0.4-2.1-0.2-2.9l-3.8-5.5c-1.3-2-3-2.9-5.3-2.9h-4.6l-8.3-12
				c-0.2-0.4-0.9-0.7-1.3-0.7l1.6,9.6l-10.2-4.1c-0.3-0.1-0.5,0-0.7,0.2c-0.2,0.2-0.1,0.5,0.1,0.7l5.8,5.8c0.9,1,2.2,1.5,3.6,1.5
				l6.2,0v5.3l-2.5,3.7H27.8c0.4,2.2,2.1,3.8,4.3,3.8h1.4L29.7,97c-0.8,2.2-2.9,3.7-5.3,3.7H17.5z"/>
			<path class="st2" d="M91.4,78.3l0.2,1.5h-1.9c-0.9,0-1.6-0.6-1.7-1.5l-0.2-1.5h1.9C90.5,76.8,91.2,77.4,91.4,78.3z"/>
		</g>
	</g>
</g>
<g>
	<g id="XMLID_00000056406412294032893760000015209615809114644651_">
		<g>
			<path d="M116.4,86.3l0.2,1.5h-1.9c-0.9,0-1.6-0.6-1.7-1.5l-0.2-1.5h1.9C115.5,84.8,116.2,85.4,116.4,86.3z"/>
			<path class="st1" d="M36.9,117.1l5.3-8.3c0.1-0.1,0.2-0.2,0.3-0.2h6.9c2.4,0,4.5-1.5,5.3-3.7l3.7-10.4h-1.4
				c-2.1,0-3.9-1.6-4.3-3.8h49.3l2.5-3.7v-5.3l-6.2,0c-1.3,0-2.6-0.5-3.6-1.5L89,74.5c-0.2-0.2-0.2-0.5-0.1-0.7
				c0.2-0.2,0.4-0.3,0.7-0.2l10.2,4.1l-1.5-9.6c0.4,0,1.1,0.3,1.3,0.7l8.4,12h4.6c2.3,0,4,1,5.3,2.9l3.8,5.5c0.6,0.9,0.7,2,0.2,2.9
				c-0.5,1-1.4,1.5-2.5,1.5h-4.5l-0.9,4c-0.8,4.2-4.2,7.4-8.4,8l-2.1,0.3l2.9,2.7h10.2c1,0,1.9,0.5,2.5,1.3l2.2,3.3
				c0.3,0.5,0.3,1.1,0.1,1.6c-0.3,0.5-0.8,0.8-1.3,0.8c-0.5,0-0.9-0.2-1.2-0.6l-2.5-3.4h-13.7c-0.6,0-1.2-0.3-1.5-0.8l-3.7-5.2H72.5
				l-7.7,4.9c-1.1,0.7-2.4,1.1-3.7,1.1H44.2l-2.8,4.2c-0.7,1.1-2,1.8-3.3,1.8h-0.9c-0.2,0-0.3-0.1-0.3-0.2
				C36.9,117.4,36.8,117.3,36.9,117.1z M116.6,87.8l-0.2-1.5c-0.1-0.8-0.9-1.5-1.7-1.5h-1.9l0.2,1.5c0.1,0.8,0.9,1.5,1.7,1.5H116.6z
				"/>
			<path d="M35.2,118.5c-0.4-0.8-0.4-1.7,0.1-2.4l5.3-8.3c0.4-0.7,1.2-1.1,2-1.1h6.9c1.5,0,2.9-1,3.4-2.4l2.8-7.9
				c-2.8-0.7-5-3.4-5-6.6v-1H101l1.5-2.3v-2.7l-4.2,0c-1.9,0-3.7-0.7-5-2.1l-5.8-5.8c-0.9-0.9-1-2.3-0.3-3.3c0.7-1,2-1.4,3.1-0.9
				l7,2.8l-1-6.1c-0.1-0.6,0.1-1.2,0.4-1.6c0.4-0.4,0.9-0.7,1.5-0.7c1.1,0,2.4,0.7,3,1.6l7.7,11.2h3.5c2.9,0,5.3,1.3,6.9,3.8
				l3.8,5.5c1,1.5,1.1,3.4,0.3,5c-0.9,1.6-2.5,2.6-4.3,2.6h-2.9l-0.6,2.4c-0.7,3.8-3.2,7-6.7,8.6h7.3c1.7,0,3.2,0.8,4.2,2.2l2.2,3.3
				c0.7,1.1,0.8,2.5,0.2,3.6c-0.6,1.1-1.8,1.9-3.1,1.9c-1.1,0-2.2-0.5-2.8-1.4l-1.9-2.6h-12.7c-1.2,0-2.4-0.6-3.2-1.6l-3.1-4.4H73.1
				l-7.2,4.6c-1.4,0.9-3.1,1.4-4.8,1.4H45.3L43,117c-1.1,1.7-3,2.7-5,2.7h-0.9C36.4,119.7,35.6,119.2,35.2,118.5z M42.2,108.9
				l-5.3,8.3c-0.1,0.2-0.1,0.3,0,0.4c0,0.1,0.1,0.2,0.3,0.2h0.9c1.3,0,2.6-0.7,3.3-1.8l2.8-4.2h16.9c1.3,0,2.6-0.4,3.7-1.1l7.7-4.9
				H97l3.7,5.2c0.4,0.5,0.9,0.8,1.5,0.8H116l2.5,3.4c0.3,0.4,0.8,0.6,1.2,0.6c0.6,0,1.1-0.3,1.3-0.8c0.3-0.5,0.2-1.1-0.1-1.6
				l-2.2-3.3c-0.6-0.8-1.5-1.3-2.5-1.3h-10.2l-2.9-2.7l2.1-0.3c4.3-0.5,7.7-3.7,8.4-8l0.9-4h4.5c1.1,0,2-0.6,2.5-1.5
				c0.5-0.9,0.4-2.1-0.2-2.9l-3.8-5.5c-1.3-2-3-2.9-5.3-2.9h-4.6l-8.4-12c-0.2-0.4-0.9-0.7-1.3-0.7l1.5,9.6l-10.2-4.1
				c-0.2-0.1-0.5,0-0.7,0.2c-0.2,0.2-0.1,0.5,0.1,0.7l5.8,5.8c0.9,1,2.2,1.5,3.6,1.5l6.2,0v5.3l-2.5,3.7H52.8
				c0.4,2.2,2.1,3.8,4.3,3.8h1.4L54.7,105c-0.8,2.2-2.9,3.7-5.3,3.7h-6.9C42.4,108.7,42.2,108.8,42.2,108.9z"/>
		</g>
		<g>
			<path class="st2" d="M38.1,119.7h-0.9c-0.9,0-1.6-0.5-2.1-1.2c-0.4-0.8-0.4-1.7,0.1-2.4l5.3-8.3c0.4-0.7,1.2-1.1,2-1.1h6.9
				c1.5,0,2.9-1,3.4-2.4l2.8-7.9c-2.8-0.7-5-3.4-5-6.6v-1H101l1.5-2.3v-2.7l-4.2,0c-1.9,0-3.7-0.7-5-2.1l-5.8-5.8
				c-0.9-0.9-1-2.3-0.3-3.3c0.7-1,2-1.4,3.1-0.9l7,2.8l-1-6.1c-0.1-0.6,0.1-1.2,0.4-1.6c0.4-0.4,0.9-0.7,1.5-0.7
				c1.1,0,2.4,0.7,3,1.6l7.7,11.2h3.5c2.9,0,5.3,1.3,6.9,3.8l3.8,5.5c1,1.5,1.1,3.4,0.3,5c-0.9,1.6-2.5,2.6-4.3,2.6h-2.9l-0.6,2.4
				c-0.7,3.8-3.2,7-6.7,8.6h7.3c1.7,0,3.2,0.8,4.2,2.2l2.2,3.3c0.7,1.1,0.8,2.5,0.2,3.6c-0.6,1.1-1.8,1.9-3.1,1.9
				c-1.1,0-2.2-0.5-2.8-1.4l-1.9-2.6h-12.7c-1.2,0-2.4-0.6-3.2-1.6l-3.1-4.4H73.1l-7.2,4.6c-1.4,0.9-3.1,1.4-4.8,1.4H45.3L43,117
				C41.9,118.7,40.1,119.7,38.1,119.7z"/>
			<path class="st2" d="M42.5,108.7c-0.1,0-0.2,0.1-0.3,0.2l-5.3,8.3c-0.1,0.2-0.1,0.3,0,0.4c0,0.1,0.1,0.2,0.3,0.2h0.9
				c1.3,0,2.6-0.7,3.3-1.8l2.8-4.2h16.9c1.3,0,2.6-0.4,3.7-1.1l7.7-4.9H97l3.7,5.2c0.4,0.5,0.9,0.8,1.5,0.8H116l2.5,3.4
				c0.3,0.4,0.8,0.6,1.2,0.6c0.6,0,1.1-0.3,1.3-0.8c0.3-0.5,0.2-1.1-0.1-1.6l-2.2-3.3c-0.6-0.8-1.5-1.3-2.5-1.3h-10.2l-2.9-2.7
				l2.1-0.3c4.3-0.5,7.7-3.7,8.4-8l0.9-4h4.5c1.1,0,2-0.6,2.5-1.5c0.5-0.9,0.4-2.1-0.2-2.9l-3.8-5.5c-1.3-2-3-2.9-5.3-2.9h-4.6
				l-8.4-12c-0.2-0.4-0.9-0.7-1.3-0.7l1.5,9.6l-10.2-4.1c-0.2-0.1-0.5,0-0.7,0.2c-0.2,0.2-0.1,0.5,0.1,0.7l5.8,5.8
				c0.9,1,2.2,1.5,3.6,1.5l6.2,0v5.3l-2.5,3.7H52.8c0.4,2.2,2.1,3.8,4.3,3.8h1.4L54.7,105c-0.8,2.2-2.9,3.7-5.3,3.7H42.5z"/>
			<path class="st2" d="M116.4,86.3l0.2,1.5h-1.9c-0.9,0-1.6-0.6-1.7-1.5l-0.2-1.5h1.9C115.5,84.8,116.2,85.4,116.4,86.3z"/>
		</g>
	</g>
</g>
</svg>
