<?xml version="1.0" encoding="utf-8"?>
<!-- Generator: Adobe Illustrator 26.3.1, SVG Export Plug-In . SVG Version: 6.00 Build 0)  -->
<svg version="1.1" xmlns="http://www.w3.org/2000/svg" xmlns:xlink="http://www.w3.org/1999/xlink" x="0px" y="0px"
	 viewBox="0 0 133 133" style="enable-background:new 0 0 133 133;" xml:space="preserve">
<style type="text/css">
	.st0{fill:#BCD0D8;}
	.st1{fill:#6699B2;}
	.st2{fill:#496D7F;}
	.st3{fill:#5D699B;}
	.st4{fill:#FFFFFF;}
	.st5{fill:#FFFFFF;stroke:#000000;stroke-width:2;stroke-miterlimit:10;}
</style>
<g id="Layer_1">
	<g id="Layer_2_00000052094396670134869590000004635503529299657610_">
		<path class="st2" d="M121,133H12c-6.6,0-12-5.4-12-12V12C0,5.4,5.4,0,12,0h109c6.6,0,12,5.4,12,12v109
			C133,127.6,127.6,133,121,133z"/>
		<path class="st2" d="M121,133H12c-6.6,0-12-5.4-12-12V12C0,5.4,5.4,0,12,0h109c6.6,0,12,5.4,12,12v109
			C133,127.6,127.6,133,121,133z"/>
	</g>
</g>
<g id="Layer_2">
</g>
<g id="Layer_4">
</g>
<g id="Layer_5_00000096759886075198047500000016841880956640546723_">
</g>
<g id="Layer_6_00000151532325249707469710000014370122528315639221_">
</g>
<g id="Layer_7_00000042717999357893301760000000855885267568530853_">
</g>
<g id="Layer_8_00000168831599467053464300000003505523461608539011_">
	<g>
		<g id="XMLID_00000128458924780790195720000002270054210163116973_">
			<g>
				<path d="M76.1,79.5C76.8,66.5,78.1,67.3,76.1,79.5L76.1,79.5z"/>
				<path class="st4" d="M88.9,111.4l0,0.8l-15.4-3c-0.2,0-0.3-0.2-0.3-0.4c0.3-1.5,0.7-3.1,1-5c0-0.2,0.3-0.4,0.5-0.2L88.9,111.4z"
					/>
				<path class="st4" d="M58.8,108.8c0,0.2-0.1,0.4-0.3,0.4l-15.2,2.9v-0.8l14-7.7c0.2-0.1,0.5,0,0.5,0.2
					C58.2,105.7,58.5,107.3,58.8,108.8z"/>
				<polygon class="st4" points="28.1,75.3 28.1,76.6 26.3,76.6 26.3,75.7 				"/>
				<path class="st4" d="M45.3,72.2l0,2c0,0.2-0.2,0.3-0.3,0.3l-1.5,0c-0.2,0-0.3-0.2-0.3-0.3l0-1.6c0-0.2,0.1-0.3,0.3-0.3l1.5-0.3
					C45.1,71.8,45.3,71.9,45.3,72.2z"/>
				<polygon class="st4" points="105.9,75.7 106,76.6 104.2,76.6 104.2,75.3 				"/>
				<path class="st4" d="M87.4,71.8l1.5,0.3c0.2,0,0.3,0.2,0.3,0.3l0,1.6c0,0.2-0.1,0.3-0.3,0.4l-1.5,0c-0.2,0-0.4-0.1-0.4-0.3l0-2
					C87,71.9,87.2,71.8,87.4,71.8z"/>
				<path class="st4" d="M118.3,68.1l0.1,5.8c0,0.2-0.2,0.4-0.4,0.3l-9.6-2c-0.1,0-0.1,0-0.2,0l-5.5-1.1c0,0-0.1,0-0.2,0l-11-2.3
					c-0.1,0-0.1,0-0.2,0l-5.9-1.2c-0.1,0-0.1,0-0.2,0l-6.8-1.4c-0.2,0-0.3-0.2-0.3-0.4l0.1-1.5c0.2-3.9,0.6-10.1,0.7-16.7
					c0-0.3,0.3-0.4,0.5-0.3l38.5,20.6C118.2,67.8,118.3,67.9,118.3,68.1z"/>
				<path class="st4" d="M54,65.7c0,0.2-0.1,0.3-0.3,0.4L47,67.4c-0.1,0-0.2,0-0.3,0.1l-5.8,1.2c-0.1,0-0.1,0-0.2,0l-11,2.3
					c0,0-0.1,0-0.2,0l-5.4,1.1c-0.1,0-0.1,0-0.2,0l-9.7,2c-0.2,0-0.4-0.1-0.4-0.3l0.1-5.8c0-0.1,0.1-0.2,0.2-0.3l38.5-20.6
					c0.2-0.1,0.5,0.1,0.5,0.3c0,6.7,0.4,12.8,0.7,16.7L54,65.7z"/>
				<path class="st4" d="M72,28.9c0-5.4-2.5-9.4-5.9-9.4c-3.4,0-5.9,4.1-5.9,9.4c0,1.3,1.2,2.3,2.6,1.8c0.7-0.3,1.2-1,1.2-1.8
					c0-3.6,1.5-5.6,2.1-5.6c0.6,0,2.1,2,2.1,5.6c0,0.8,0.5,1.5,1.2,1.8C70.8,31.1,72,30.1,72,28.9z M67.8,17.2
					c4.5,2.1,7.1,11.5,7.4,26.6c0.1,7.9-0.3,15.6-0.6,20.2l-0.2,3.4c-0.4,5.4-0.8,10.3-1.2,14.8c-0.4,0.3-1.2,10.8-1.2,11.3
					c-2.1,17-4.4,21.2-5.2,22.2c-0.2,0.3-0.5,0.5-0.8,0.6c-0.3-0.1-0.5-0.2-0.7-0.4c-0.3-0.4-1.1-1.6-2.1-5.4v-0.1l0,0
					c0-0.1,0-0.2-0.1-0.2c-0.6-2.6-1.3-5.9-1.9-9.8c0-0.1,0-0.2,0-0.2c-1.2-8.2-2.3-19.2-3.2-32.7L57.7,64
					c-0.3-4.6-0.8-12.3-0.6-20.2c0.4-19.3,4.2-25.1,7.4-26.6v0C65.5,16.6,66.8,16.6,67.8,17.2z"/>
				<path d="M73.2,82.1c0.4-0.3,2.4-2.7,2.9-2.6c0.2,0.3,0.7,0.6,0.4,6.3C76,86.6,75,86.9,74,86.5c-0.8-0.3-1.2-1.2-1.1-2
					C73,83.8,73.1,83,73.2,82.1z"/>
				<path d="M73.2,82.1c0.4-4.4,0.8-9.4,1.2-14.8l0.2-3.4c0.3-4.6,0.8-12.3,0.6-20.2c-0.3-15-2.9-24.5-7.4-26.6
					c-1.1-0.5-2.3-0.5-3.4,0v0c-3.2,1.5-7,7.3-7.4,26.6c-0.1,7.9,0.3,15.6,0.6,20.2l0.2,3.5c0.9,13.4,2,24.4,3.2,32.7
					c0,0.1,0,0.1,0,0.2c0.6,3.9,1.2,7.2,1.9,9.8c0,0.1,0.1,0.2,0.1,0.2l0,0v0.1c1,3.8,1.8,5,2.1,5.4c0.2,0.2,0.4,0.4,0.7,0.4
					c0.3-0.1,0.7-0.3,0.8-0.6c0.9-1,3.1-5.2,5.2-22.2C72,92.9,72.8,82.5,73.2,82.1c-0.1,0.8-0.2,1.6-0.2,2.4c-0.1,0.8,0.3,1.7,1.1,2
					c1,0.4,2,0,2.4-0.7c-0.1,2-0.3,4.6-0.7,8.2c-0.2,1.8-0.5,3.5-0.7,5.1c0,0.1,0.1,0.3,0.2,0.4l16.6,9.1c0.6,0.3,1,1,1,1.6l0.1,4.2
					c0,0.6-0.2,1.1-0.7,1.5c-0.4,0.4-1,0.5-1.6,0.4l-18.1-3.5c-0.2,0-0.3,0.1-0.4,0.2c-0.5,1.8-1.3,3.5-2.4,5
					c-0.9,1.2-2.3,1.9-3.8,1.9c-1.4,0-2.7-0.7-3.6-1.8c-1.1-1.5-1.9-3.2-2.4-5.1c0-0.2-0.2-0.3-0.4-0.3l-17.8,3.4
					c-0.6,0.1-1.1-0.1-1.6-0.4c-0.4-0.4-0.7-0.9-0.7-1.5l0.1-4.2c0-0.7,0.4-1.3,1-1.6l16.5-9.1c0.1-0.1,0.2-0.2,0.2-0.3
					c-1.1-7.6-2-17.3-2.9-28.9c0-0.2-0.2-0.4-0.4-0.3l-4.5,0.9c-0.2,0-0.3,0.2-0.3,0.3L49,76.5c0,1-0.8,1.8-1.9,1.8h-0.1l-6-0.1
					c-1.1,0-1.9-0.9-1.9-1.9l0-2.8c0-0.2-0.2-0.4-0.4-0.4l-6.6,1.4c-0.2,0-0.3,0.2-0.3,0.3l-0.1,3.9c0,1-0.8,1.8-1.9,1.8h-0.1
					l-6.8-0.1c-0.6,0-1.1-0.5-1.1-1.1c0-0.3,0.1-0.5,0.3-0.8c0.1-0.1,0.1-0.1,0.1-0.2l0-1.4c0-0.2-0.2-0.4-0.4-0.4l-9.7,2
					c-0.1,0-0.3,0-0.4,0c-0.5,0-1-0.2-1.4-0.6c-0.4-0.4-0.6-0.9-0.6-1.4l0.2-10c0-0.7,0.4-1.3,1-1.7l41.9-22.4
					c0.1-0.1,0.2-0.2,0.2-0.3c0.5-16.4,3.6-25.8,9.5-28.6c2.1-1,4.6-1,6.7,0c5.9,2.8,9.1,12.2,9.5,28.6c0,0.1,0.1,0.2,0.2,0.3
					L121.1,65c0.6,0.3,1,1,1,1.7l0.2,10c0,0.5-0.2,1-0.5,1.4c-0.4,0.4-0.9,0.6-1.4,0.6c-0.1,0-0.2,0-0.4,0l-9.7-2
					c-0.2-0.1-0.4,0.1-0.4,0.3l0,1.6c0,1-0.8,1.9-1.8,1.9h-0.1l-5.6,0.1h0c-1,0-1.9-0.8-1.9-1.9l-0.1-3.8c0-0.2-0.1-0.3-0.3-0.3
					l-6.6-1.4c-0.2,0-0.4,0.1-0.4,0.4l0,2.9c0,1-0.8,1.9-1.8,1.9h-0.1l-6,0.1h0c-1,0-1.9-0.8-1.9-1.9h0l-0.1-5.3
					c0-0.2-0.1-0.3-0.3-0.3l-4.5-0.9c-0.2,0-0.4,0.1-0.4,0.3c-0.4,5.4-0.8,10.4-1.2,14.7c0,0.3-0.1,0.6-0.3,0.8
					c0.4-5.7-0.1-6-0.4-6.3c2-12.2,0.7-13,0,0C75.6,79.5,73.6,81.8,73.2,82.1z M118.4,73.9l-0.1-5.8c0-0.1-0.1-0.2-0.2-0.3
					L79.6,47.2c-0.2-0.1-0.5,0.1-0.5,0.3c0,6.7-0.4,12.8-0.7,16.7l-0.1,1.5c0,0.2,0.1,0.3,0.3,0.4l6.8,1.4c0.1,0,0.1,0,0.2,0
					l5.9,1.2c0.1,0,0.1,0,0.2,0l11,2.3c0.1,0,0.1,0,0.2,0l5.5,1.1c0.1,0,0.1,0,0.2,0l9.6,2C118.2,74.3,118.4,74.2,118.4,73.9z
					 M106,76.6l0-0.9l-1.8-0.4l0,1.3L106,76.6z M88.9,74.4c0.2,0,0.4-0.2,0.3-0.4l0-1.6c0-0.2-0.1-0.3-0.3-0.3l-1.5-0.3
					c-0.2-0.1-0.4,0.1-0.4,0.3l0,2c0,0.2,0.2,0.3,0.4,0.3L88.9,74.4z M89,112.2l0-0.8l-14.2-7.8c-0.2-0.1-0.5,0-0.5,0.2
					c-0.3,1.8-0.7,3.5-1,5c-0.1,0.2,0.1,0.4,0.3,0.4L89,112.2z M58.5,109.2c0.2,0,0.3-0.2,0.3-0.4c-0.3-1.5-0.6-3.1-1-4.9
					c0-0.2-0.3-0.4-0.5-0.2l-14,7.7v0.8L58.5,109.2z M53.7,66c0.2,0,0.3-0.2,0.3-0.4l-0.1-1.5c-0.2-3.9-0.6-10-0.7-16.7
					c0-0.3-0.3-0.4-0.5-0.3L14.2,67.8c-0.1,0.1-0.2,0.2-0.2,0.3l-0.1,5.8c0,0.2,0.2,0.4,0.4,0.3l9.7-2c0.1,0,0.1,0,0.2,0l5.4-1.1
					c0.1,0,0.1,0,0.2,0l11-2.3c0.1,0,0.1,0,0.2,0l5.8-1.2c0.1,0,0.2,0,0.3-0.1L53.7,66z M45.2,74.1l0-2c0-0.2-0.2-0.4-0.4-0.3
					l-1.5,0.3c-0.2,0-0.3,0.2-0.3,0.3l0,1.6c0,0.2,0.1,0.3,0.3,0.3l1.5,0C45.1,74.5,45.2,74.3,45.2,74.1z M28.1,76.6l0-1.3l-1.8,0.4
					l0,0.9L28.1,76.6z"/>
				<path d="M66.1,19.5c3.4,0,5.9,4.1,5.9,9.4c0,1.3-1.3,2.3-2.6,1.8c-0.8-0.3-1.2-1-1.2-1.8c0-3.6-1.5-5.6-2.1-5.6
					c-0.6,0-2.1,2-2.1,5.6c0,0.8-0.5,1.5-1.2,1.8c-1.3,0.5-2.6-0.5-2.6-1.8C60.2,23.5,62.8,19.5,66.1,19.5z"/>
			</g>
		</g>
	</g>
</g>
<g id="Layer_9_00000089543259283313251050000005252079673544207528_">
</g>
<g id="Layer_10_00000084509998272139497780000008077192264451833754_">
</g>
<g id="Layer_11_00000116220595310884250560000013807966725250984093_">
</g>
<g id="Layer_12">
</g>
<g id="Layer_13">
</g>
<g id="Layer_14">
</g>
<g id="Layer_15">
</g>
<g id="Layer_16">
</g>
<g id="Layer_17">
</g>
<g id="Layer_18">
</g>
</svg>
