<?xml version="1.0" encoding="utf-8"?>
<!-- Generator: Adobe Illustrator 26.3.1, SVG Export Plug-In . SVG Version: 6.00 Build 0)  -->
<svg version="1.1" id="Layer_1" xmlns="http://www.w3.org/2000/svg" xmlns:xlink="http://www.w3.org/1999/xlink" x="0px" y="0px"
	 viewBox="0 0 133 70" style="enable-background:new 0 0 133 70;" xml:space="preserve">
<style type="text/css">
	.st0{fill:#FFFFFF;}
	.st1{fill:none;stroke:#000000;stroke-miterlimit:10;}
	.st2{fill:#231F20;}
</style>
<g>
	<g id="XMLID_00000147927472071016018280000010978683635909836982_">
		<g>
			<path d="M109.8,31.4c1,1.5,1.1,3.4,0.3,5s-2.5,2.6-4.3,2.6h-2.9l-0.6,2.4c-0.7,3.9-3.2,7-6.7,8.6h7.3c1.7,0,3.2,0.8,4.2,2.2
				l2.2,3.3c0.7,1.1,0.8,2.5,0.2,3.6c-0.6,1.1-1.8,1.9-3.1,1.9c-1.1,0-2.2-0.5-2.8-1.4l-1.9-2.6H88.9c-1.3,0-2.4-0.6-3.2-1.6
				L82.6,51H59.7l-7.2,4.6c-1.4,0.9-3.1,1.4-4.8,1.4H31.9l-2.2,3.3c-1.1,1.7-3,2.7-5,2.7h-0.9c-0.9,0-1.6-0.5-2.1-1.2
				c-0.4-0.8-0.4-1.7,0.1-2.4l5.3-8.3c0.4-0.7,1.2-1.1,2-1.1H36c1.5,0,2.9-1,3.4-2.4l2.8-7.9c-2.8-0.7-5-3.4-5-6.6v-1h50.4l1.5-2.3
				v-2.7h-4.2c-1.9,0-3.7-0.7-5-2.1l-5.7-5.9c-0.9-0.9-1-2.3-0.3-3.3s2-1.4,3.1-0.9l7,2.8l-1-6.1c-0.1-0.6,0.1-1.2,0.4-1.6
				c0.4-0.4,0.9-0.7,1.5-0.7c1.1,0,2.4,0.7,3,1.6L95.6,22h3.5c2.9,0,5.3,1.3,6.9,3.8L109.8,31.4z M108.3,35.4c0.5-1,0.4-2.1-0.2-2.9
				l-3.8-5.5c-1.3-2-3-2.9-5.3-2.9h-4.4l-8.3-12c-0.2-0.4-0.9-0.7-1.3-0.7l1.5,9.6l-10.2-4.1c-0.3-0.1-0.5,0-0.7,0.2
				s-0.1,0.5,0.1,0.7l5.8,5.8c0.9,0.9,2.2,1.5,3.6,1.5h6.2v5.3l-2.5,3.7H39.4c0.4,2.2,2.1,3.8,4.3,3.8h1.4l-3.7,10.4
				c-0.8,2.2-2.9,3.7-5.3,3.7h-7c-0.1,0-0.2,0.1-0.3,0.2l-5.3,8.3c-0.1,0.2,0,0.3,0,0.4s0.1,0.2,0.3,0.2h0.9c1.3,0,2.6-0.7,3.3-1.8
				l2.8-4.2h16.9c1.3,0,2.6-0.4,3.7-1.1l7.7-4.9h24.5l3.7,5.2c0.4,0.5,0.9,0.8,1.5,0.8h13.8l2.5,3.4c0.3,0.4,0.7,0.6,1.2,0.6
				c0.6,0,1.1-0.3,1.3-0.8c0.3-0.5,0.2-1.1-0.1-1.6l-2.2-3.3c-0.6-0.8-1.5-1.3-2.5-1.3H92.7l-2.9-2.7l2.1-0.3c4.3-0.5,7.7-3.7,8.4-8
				l1-4h4.5C106.9,36.9,107.8,36.4,108.3,35.4z"/>
			<path class="st0" d="M108.2,32.5c0.6,0.9,0.7,2,0.2,2.9s-1.4,1.5-2.5,1.5h-4.5l-1,4c-0.8,4.2-4.2,7.4-8.4,8l-2.1,0.3l2.9,2.7H103
				c1,0,1.9,0.5,2.5,1.3l2.2,3.3c0.3,0.5,0.4,1.1,0.1,1.6s-0.8,0.8-1.3,0.8s-0.9-0.2-1.2-0.6l-2.5-3.4H88.9c-0.6,0-1.2-0.3-1.5-0.8
				l-3.7-5.2H59.2l-7.7,4.9c-1.1,0.7-2.4,1.1-3.7,1.1h-17L28,59.1c-0.7,1.1-2,1.8-3.3,1.8h-0.9c-0.2,0-0.3-0.1-0.3-0.2
				s-0.1-0.2,0-0.4l5.3-8.3c0.1-0.1,0.2-0.2,0.3-0.2h7c2.4,0,4.5-1.5,5.3-3.7l3.7-10.4h-1.4c-2.1,0-3.9-1.6-4.3-3.8h49.3l2.5-3.7
				v-5.3H85c-1.3,0-2.6-0.5-3.6-1.5l-5.8-5.7c-0.2-0.2-0.2-0.5-0.1-0.7c0.2-0.2,0.4-0.3,0.7-0.2l10.2,4.1l-1.5-9.6
				c0.4,0,1.1,0.3,1.3,0.7l8.3,12h4.6c2.3,0,4,1,5.3,2.9L108.2,32.5z M103.2,31l-0.2-1.5c-0.1-0.9-0.9-1.5-1.7-1.5h-1.9l0.2,1.5
				c0.1,0.8,0.9,1.5,1.7,1.5H103.2z"/>
			<path d="M103,29.5l0.2,1.5h-1.9c-0.9,0-1.6-0.6-1.7-1.5L99.4,28h1.9C102.2,28,102.9,28.6,103,29.5z"/>
		</g>
		<g>
			<path class="st1" d="M24.7,62.9h-0.9c-0.9,0-1.6-0.5-2.1-1.2c-0.4-0.8-0.4-1.7,0.1-2.4l5.3-8.3c0.4-0.7,1.2-1.1,2-1.1H36
				c1.5,0,2.9-1,3.4-2.4l2.8-7.9c-2.8-0.7-5-3.4-5-6.6v-1h50.4l1.5-2.3V27h-4.2c-1.9,0-3.7-0.7-5-2.1l-5.7-5.8
				c-0.9-0.9-1-2.3-0.3-3.3s2-1.4,3.1-0.9l7,2.8l-1-6.1c-0.1-0.6,0.1-1.2,0.4-1.6c0.4-0.4,0.9-0.7,1.5-0.7c1.1,0,2.4,0.7,3,1.6
				L95.6,22h3.5c2.9,0,5.3,1.3,6.9,3.8l3.7,5.5c1,1.5,1.1,3.4,0.3,5s-2.5,2.6-4.3,2.6h-2.9l-0.6,2.4c-0.7,3.9-3.2,7-6.7,8.6h7.3
				c1.7,0,3.2,0.8,4.2,2.2l2.2,3.3c0.7,1.1,0.8,2.5,0.2,3.6c-0.6,1.1-1.8,1.9-3.1,1.9c-1.1,0-2.2-0.5-2.8-1.4l-1.9-2.6H88.9
				c-1.3,0-2.4-0.6-3.2-1.6l-3.1-4.4H59.7l-7.2,4.6c-1.4,0.9-3.1,1.4-4.8,1.4H31.9l-2.2,3.3C28.6,61.9,26.7,62.9,24.7,62.9z"/>
			<path class="st1" d="M29.1,51.9c-0.1,0-0.2,0.1-0.3,0.2l-5.3,8.3c-0.1,0.2,0,0.3,0,0.4s0.1,0.2,0.3,0.2h0.9
				c1.3,0,2.6-0.7,3.3-1.8l2.8-4.2h16.9c1.3,0,2.6-0.4,3.7-1.1l7.7-4.9h24.5l3.7,5.2c0.4,0.5,0.9,0.8,1.5,0.8h13.8l2.5,3.4
				c0.3,0.4,0.7,0.6,1.2,0.6c0.6,0,1.1-0.3,1.3-0.8c0.3-0.5,0.2-1.1-0.1-1.6l-2.2-3.3c-0.6-0.8-1.5-1.3-2.5-1.3H92.7l-2.9-2.7
				l2.1-0.3c4.3-0.5,7.7-3.7,8.4-8l1-4h4.5c1.1,0,2-0.6,2.5-1.5c0.5-1,0.4-2.1-0.2-2.9l-3.8-5.5c-1.3-2-3-2.9-5.3-2.9h-4.4l-8.3-12
				c-0.2-0.4-0.9-0.7-1.3-0.7l1.5,9.6L76.3,17c-0.3-0.1-0.5,0-0.7,0.2s-0.1,0.5,0.1,0.7l5.8,5.8c0.9,0.9,2.2,1.5,3.6,1.5h6.2v5.3
				l-2.5,3.7H39.4c0.4,2.2,2.1,3.8,4.3,3.8h1.4l-3.7,10.4c-0.8,2.2-2.9,3.7-5.3,3.7h-7V51.9z"/>
			<path class="st1" d="M103,29.5l0.2,1.5h-1.9c-0.9,0-1.6-0.6-1.7-1.5L99.4,28h1.9C102.2,28,102.9,28.6,103,29.5z"/>
		</g>
	</g>
</g>
</svg>
