<?xml version="1.0" encoding="utf-8"?>
<!-- Generator: Adobe Illustrator 26.3.1, SVG Export Plug-In . SVG Version: 6.00 Build 0)  -->
<svg version="1.1" xmlns="http://www.w3.org/2000/svg" xmlns:xlink="http://www.w3.org/1999/xlink" x="0px" y="0px"
	 viewBox="0 0 133 133" style="enable-background:new 0 0 133 133;" xml:space="preserve">
<style type="text/css">
	.st0{fill:#BCD0D8;}
	.st1{fill:#6699B2;}
	.st2{fill:#496D7F;}
	.st3{fill:#5D699B;}
	.st4{fill:#FFFFFF;}
	.st5{fill:#FFFFFF;stroke:#000000;stroke-width:2;stroke-miterlimit:10;}
</style>
<g id="Layer_1">
	<g id="Layer_2_00000172437847879557975690000016411563570191679111_">
		<path class="st2" d="M121,133H12c-6.6,0-12-5.4-12-12V12C0,5.4,5.4,0,12,0h109c6.6,0,12,5.4,12,12v109
			C133,127.6,127.6,133,121,133z"/>
		<path class="st2" d="M121,133H12c-6.6,0-12-5.4-12-12V12C0,5.4,5.4,0,12,0h109c6.6,0,12,5.4,12,12v109
			C133,127.6,127.6,133,121,133z"/>
	</g>
</g>
<g id="Layer_2">
</g>
<g id="Layer_4">
</g>
<g id="Layer_5_00000096759886075198047500000016841880956640546723_">
</g>
<g id="Layer_6_00000151532325249707469710000014370122528315639221_">
</g>
<g id="Layer_7_00000042717999357893301760000000855885267568530853_">
</g>
<g id="Layer_8_00000168831599467053464300000003505523461608539011_">
</g>
<g id="Layer_9_00000089543259283313251050000005252079673544207528_">
	<g>
		<g>
			<g id="XMLID_00000161633234436277305200000005634255180062509485_">
				<g>
					<path class="st4" d="M96.9,89.1c0,3-2.5,5.4-5.6,5.4s-5.6-2.5-5.6-5.4c0-3.1,2.5-5.6,5.6-5.6S96.9,86,96.9,89.1z"/>
					<path class="st4" d="M41.7,89.1c0,3-2.5,5.4-5.4,5.4c-3.1,0-5.6-2.5-5.6-5.4c0-3.1,2.5-5.6,5.6-5.6
						C39.2,83.5,41.7,86,41.7,89.1z"/>
					<path class="st4" d="M71.2,58l10.9,10.5C69,67.7,55.9,66.8,42.9,66l7-8.3L71.2,58z"/>
					<path class="st4" d="M91.3,97c4.4,0,7.9-3.6,7.9-7.9c0-4.4-3.5-7.9-7.9-7.9c-4.4,0-7.9,3.5-7.9,7.9C83.4,93.4,86.9,97,91.3,97z
						 M45.6,91.3c-1.4,4.4-4.5,7.4-9.3,7.4c-4.9,0-8-3-9.5-7.4h-7c-1.2-0.4-1.8-1.7-2.2-2.7V72.2c0.1-3.5,2.2-4.5,5.2-5.3l7.4,0.5
						l15.8-18l28.8,0.1l24,22.4l11.4,0.8c3.2,0.8,4.8,2.7,5.2,6v0l-0.1,10.4c0,1.3-0.7,1.9-2.1,2.1l-12.3,0.1
						c-1.4,4.3-4.7,7.4-9.5,7.4c-4.8,0-7.9-3-9.5-7.4H45.6z M36.2,97c4.3,0,7.8-3.6,7.8-7.9c0-4.4-3.5-7.9-7.8-7.9
						c-4.4,0-7.9,3.5-7.9,7.9C28.4,93.4,31.9,97,36.2,97z M88.3,71.2L88.3,71.2L88.3,71.2L72.3,55.7l-23.4-0.3L37.9,68
						C54.8,69.1,71.5,70.2,88.3,71.2L88.3,71.2z"/>
					<path class="st4" d="M63.4,30c6.9,0,12.9-2.8,17.9-8.4v18.3c-5-5.6-11.1-8.4-17.9-8.4h-1.6c-0.5,0-1,0.3-1.2,0.8
						c-0.3,0.7-0.7,1-0.9,1c-0.2,0-0.6-0.4-0.9-1c-0.2-0.5-0.7-0.8-1.2-0.8V30c0.5,0,1-0.3,1.2-0.8c0.3-0.7,0.7-1,0.9-1
						c0.2,0,0.6,0.4,0.9,1c0.2,0.5,0.7,0.8,1.2,0.8H63.4z"/>
					<path class="st4" d="M54.6,30h3v1.5h-3c-0.6,0-1.1,0.4-1.2,0.9c-0.7,2.2-2.7,3.6-5,3.6c-2.9,0-5.2-2.3-5.2-5.2s2.3-5.2,5.2-5.2
						c2.3,0,4.3,1.5,5,3.6C53.5,29.6,54,30,54.6,30z"/>
					<path d="M93.5,29.4c0.7,0,1.3,0.6,1.3,1.3c0,0.7-0.6,1.3-1.3,1.3H88c-0.7,0-1.3-0.6-1.3-1.3c0-0.7,0.6-1.3,1.3-1.3H93.5z"/>
					<path d="M93.3,24.1l-5.2,1.6c-0.1,0-0.3,0.1-0.4,0.1c-0.6,0-1.1-0.4-1.2-0.9c-0.2-0.7,0.2-1.4,0.9-1.6l5.2-1.6
						c0.7-0.2,1.4,0.2,1.6,0.9C94.4,23.1,94,23.9,93.3,24.1z"/>
					<path d="M92.6,39.8l-5.2-1.6c-0.7-0.2-1.1-1-0.9-1.6c0.2-0.7,1-1.1,1.6-0.9l5.2,1.6c0.7,0.2,1.1,1,0.9,1.6
						c-0.2,0.6-0.7,0.9-1.2,0.9C92.8,39.9,92.7,39.9,92.6,39.8z"/>
					<polygon points="88.3,71.2 88.3,71.2 88.3,71.2 					"/>
					<path d="M96.9,89.1c0-3.1-2.5-5.6-5.6-5.6s-5.6,2.5-5.6,5.6c0,3,2.5,5.4,5.6,5.4S96.9,92.1,96.9,89.1z M99.2,89.1
						c0,4.3-3.5,7.9-7.9,7.9c-4.4,0-7.9-3.6-7.9-7.9c0-4.4,3.5-7.9,7.9-7.9C95.7,81.2,99.2,84.7,99.2,89.1z"/>
					<path d="M71.2,58l-21.4-0.3l-7,8.3c13.1,0.8,26.2,1.7,39.2,2.5L71.2,58z M37.9,68l10.9-12.6l23.4,0.3l16,15.5
						C71.5,70.2,54.8,69.1,37.9,68z"/>
					<path d="M56.8,34.1h-1.3c-1.3,2.7-4,4.5-7.1,4.5c-4.3,0-7.9-3.5-7.9-7.9c0-4.3,3.5-7.9,7.9-7.9c3.1,0,5.8,1.8,7.1,4.5h1.3
						c0.7-1.2,1.8-1.9,2.9-1.9c1.2,0,2.2,0.7,2.9,1.9h0.8c6.3,0,11.7-2.6,16.3-7.9c0.5-0.5,1.1-0.8,1.8-0.8c1.3,0,2.4,1.1,2.4,2.4
						v19.3c0,0.7-0.3,1.3-0.8,1.8c-0.5,0.4-1.1,0.7-1.7,0.7c-0.7,0-1.3-0.3-1.8-0.8c-4.6-5.3-10-7.9-16.3-7.9h-0.8
						c-0.7,1.2-1.8,1.9-2.9,1.9C58.5,35.9,57.5,35.2,56.8,34.1z M48.3,25.5c-2.9,0-5.2,2.4-5.2,5.2s2.3,5.2,5.2,5.2
						c2.3,0,4.3-1.4,5-3.6c0.2-0.5,0.7-0.9,1.2-0.9h3c0.5,0,1,0.3,1.2,0.8c0.3,0.7,0.7,1,0.9,1c0.2,0,0.6-0.3,0.9-1
						c0.2-0.5,0.7-0.8,1.2-0.8h1.6c6.9,0,12.9,2.8,17.9,8.4V21.6c-5,5.6-11.1,8.4-17.9,8.4h-1.6c-0.5,0-1-0.3-1.2-0.8
						c-0.3-0.7-0.6-1-0.9-1c-0.2,0-0.6,0.4-0.9,1c-0.2,0.5-0.7,0.8-1.2,0.8h-3c-0.6,0-1.1-0.4-1.2-0.9
						C52.6,26.9,50.6,25.5,48.3,25.5z"/>
					<path d="M44,89.1c0,4.3-3.5,7.9-7.8,7.9c-4.4,0-7.9-3.6-7.9-7.9c0-4.4,3.5-7.9,7.9-7.9C40.5,81.2,44,84.7,44,89.1z M41.7,89.1
						c0-3.1-2.5-5.6-5.4-5.6c-3.1,0-5.6,2.5-5.6,5.6c0,3,2.5,5.4,5.6,5.4C39.2,94.5,41.7,92.1,41.7,89.1z"/>
					<path d="M15.3,72.2c0.1-4.8,3.1-6.6,7.3-7.6l6.7,0.5l15.7-18h30.7l24.1,22.5c3.6,0.3,7.1,0.5,10.8,0.8c4.3,1,6.7,3.8,7.3,8.2
						l-0.3,10.5c0,2.6-1.7,4.3-4.2,4.5h-10.9c-1.9,4.4-6.2,7.4-11.1,7.4c-4.9,0-9.2-2.8-11.1-7.4H47.3c-1.8,4.5-6.2,7.4-11,7.4
						c-4.9,0-9.2-2.8-11.1-7.4h-5.6c-2.6-0.6-3.6-2.5-4.3-4.8V72.2z M22.8,66.9c-3,0.8-5.1,1.8-5.2,5.3v16.3c0.4,1,1,2.3,2.2,2.7h7
						c1.4,4.4,4.5,7.4,9.5,7.4c4.8,0,7.9-3,9.3-7.4h36.3c1.6,4.4,4.7,7.4,9.5,7.4c4.8,0,8-3.1,9.5-7.4l12.3-0.1
						c1.4-0.1,2.1-0.8,2.1-2.1l0.1-10.4v0c-0.4-3.2-1.9-5.2-5.2-6L98.7,72l-24-22.4L46,49.5l-15.8,18L22.8,66.9z"/>
				</g>
			</g>
		</g>
	</g>
</g>
<g id="Layer_10_00000084509998272139497780000008077192264451833754_">
</g>
<g id="Layer_11_00000116220595310884250560000013807966725250984093_">
</g>
<g id="Layer_12">
</g>
<g id="Layer_13">
</g>
<g id="Layer_14">
</g>
<g id="Layer_15">
</g>
<g id="Layer_16">
</g>
<g id="Layer_17">
</g>
<g id="Layer_18">
</g>
</svg>
