<?xml version="1.0" encoding="utf-8"?>
<!-- Generator: Adobe Illustrator 27.1.1, SVG Export Plug-In . SVG Version: 6.00 Build 0)  -->
<svg version="1.1" id="Layer_1" xmlns="http://www.w3.org/2000/svg" xmlns:xlink="http://www.w3.org/1999/xlink" x="0px" y="0px"
	 viewBox="0 0 133 133" style="enable-background:new 0 0 133 133;" xml:space="preserve">
<style type="text/css">
	.st0{fill:#526AAE;}
	.st1{fill:#FFFFFF;}
</style>
<g id="Layer_1_00000165925485329542970010000007323128357386783656_">
	<g id="Layer_2_00000172437847879557975690000016411563570191679111_">
		<path class="st0" d="M121,133H12c-6.6,0-12-5.4-12-12V12C0,5.4,5.4,0,12,0h109c6.6,0,12,5.4,12,12v109
			C133,127.6,127.6,133,121,133z"/>
		<path class="st0" d="M121,133H12c-6.6,0-12-5.4-12-12V12C0,5.4,5.4,0,12,0h109c6.6,0,12,5.4,12,12v109
			C133,127.6,127.6,133,121,133z"/>
	</g>
</g>
<g id="Layer_2_00000006699522325247728620000010125036476938006666_">
</g>
<g id="Layer_4">
</g>
<g id="Layer_5_00000096759886075198047500000016841880956640546723_">
</g>
<g id="Layer_6_00000151532325249707469710000014370122528315639221_">
</g>
<g id="Layer_7_00000042717999357893301760000000855885267568530853_">
</g>
<g id="Layer_8_00000168831599467053464300000003505523461608539011_">
</g>
<g>
	<g id="XMLID_00000098207946591691568830000007021371241168072871_">
		<g>
			<path class="st1" d="M93.5,29.4c0.7,0,1.3,0.6,1.3,1.3c0,0.7-0.6,1.3-1.3,1.3H88c-0.7,0-1.3-0.6-1.3-1.3c0-0.7,0.6-1.3,1.3-1.3
				H93.5z"/>
			<path class="st1" d="M93.3,24.1l-5.2,1.6c-0.1,0-0.3,0.1-0.4,0.1c-0.6,0-1.1-0.4-1.2-0.9c-0.2-0.7,0.2-1.4,0.9-1.6l5.2-1.6
				c0.7-0.2,1.4,0.2,1.6,0.9C94.4,23.1,94,23.9,93.3,24.1z"/>
			<path class="st1" d="M92.6,39.8l-5.2-1.6c-0.7-0.2-1.1-1-0.9-1.6c0.2-0.7,1-1.1,1.6-0.9l5.2,1.6c0.7,0.2,1.1,1,0.9,1.6
				c-0.2,0.6-0.7,0.9-1.2,0.9C92.8,39.9,92.7,39.9,92.6,39.8z"/>
			<path class="st1" d="M91.3,83.5c3.1,0,5.6,2.5,5.6,5.6c0,3-2.5,5.4-5.6,5.4c-0.4,0-0.8,0-1.1-0.1c-2.2-0.4-3.9-2.2-4.4-4.2
				c-0.1-0.3-0.1-0.7-0.1-1.1C85.7,86,88.2,83.5,91.3,83.5z"/>
			<path d="M88.2,71.2c-2.1-0.1-4.2-0.2-6.3-0.4C84,70.9,86.1,71.1,88.2,71.2L88.2,71.2z"/>
			<path d="M91.3,83.5c-3.1,0-5.6,2.5-5.6,5.6c0,0.4,0,0.7,0.1,1.1c0.4,2.1,2.2,3.8,4.4,4.2c0.4,0.1,0.7,0.1,1.1,0.1
				c3.1,0,5.6-2.4,5.6-5.4C96.9,86,94.4,83.5,91.3,83.5z M83.4,89.1c0-4.4,3.5-7.9,7.9-7.9c4.4,0,7.9,3.5,7.9,7.9
				c0,4.3-3.5,7.9-7.9,7.9C86.9,97,83.4,93.4,83.4,89.1z"/>
			<path d="M82.1,68.5c0,0-0.1,0-0.1,0L71.2,58L82.1,68.5z"/>
			<path class="st1" d="M82,68.5c-3.2-0.2-6.5-0.4-9.7-0.6c-6.5-0.4-13.1-0.8-19.7-1.3c-3.2-0.2-6.5-0.4-9.7-0.6l7-8.3L71.2,58
				L82,68.5z"/>
			<path d="M81.3,21.6v18.3c0,0-0.1-0.1-0.1-0.1v0V21.7C81.2,21.7,81.3,21.6,81.3,21.6z"/>
			<path d="M63.3,31.4c6.5,0,12.1,2.5,17,7.4c-4.8-4.8-10.5-7.3-16.8-7.3h-1.6c-0.5,0-1,0.3-1.2,0.8c-0.3,0.7-0.7,1-0.9,1
				c-0.1,0-0.2,0-0.3-0.2c0.1,0,0.1,0.1,0.2,0.1c0.2,0,0.6-0.3,0.9-1c0.2-0.5,0.7-0.8,1.2-0.8H63.3z"/>
			<path d="M60.6,29.2c0.2,0.5,0.6,0.8,1.1,0.8C61.2,30,60.7,29.7,60.6,29.2c-0.4-0.7-0.7-1-0.9-1c0,0,0,0,0,0
				C59.9,28.2,60.3,28.6,60.6,29.2z"/>
			<path class="st1" d="M58.8,32.3c-0.1-0.2-0.2-0.3-0.3-0.4c0,0,0,0,0,0c-0.2-0.2-0.5-0.4-0.9-0.4V30c0.5,0,1-0.3,1.2-0.8
				c0.3-0.7,0.7-1,0.9-1c0.3,0,0.6,0.3,0.8,1c0.2,0.5,0.7,0.8,1.2,0.8h1.6c0.4,0,0.9,0,1.3,0c6.4-0.3,11.9-3,16.6-8.3v18.1
				c-0.3-0.4-0.6-0.7-0.9-1c-4.8-4.9-10.5-7.4-17-7.4h-1.6c-0.5,0-1,0.3-1.2,0.8c-0.3,0.7-0.7,1-0.9,1c0,0-0.1,0-0.2-0.1
				c0,0,0,0,0,0C59.2,33,59,32.7,58.8,32.3z"/>
			<path d="M58.5,31.8c-0.2-0.2-0.5-0.3-0.9-0.3v-0.1C57.9,31.4,58.2,31.6,58.5,31.8z"/>
			<path d="M53.4,29.2c0.1,0.4,0.6,0.8,1.2,0.8h-0.1c-0.6,0-1.1-0.4-1.2-0.9c-0.1-0.4-0.3-0.8-0.5-1.1C53,28.3,53.2,28.8,53.4,29.2z
				"/>
			<path class="st1" d="M57.6,30v1.4c0,0-0.1,0-0.1,0h-3c-0.5,0-1,0.4-1.2,0.9c-0.7,2.2-2.7,3.6-5,3.6c-1.6,0-3.1-0.8-4-1.9
				c-0.1-0.1-0.1-0.2-0.2-0.3c-0.5-0.8-0.9-1.8-0.9-2.9c0-2.9,2.3-5.2,5.2-5.2c1.7,0,3.2,0.8,4.2,2.1c0.1,0.1,0.1,0.2,0.2,0.2
				c0.2,0.3,0.4,0.7,0.5,1.1c0.1,0.5,0.6,0.9,1.2,0.9h0.1H57.6C57.5,30,57.6,30,57.6,30z"/>
			<path d="M71.2,58l-21.3-0.3h-0.1l-7,8.3c3.3,0.2,6.5,0.4,9.8,0.6c6.6,0.4,13.1,0.8,19.7,1.3c3.2,0.2,6.5,0.4,9.7,0.6l0,0
				c0,0,0.1,0,0.1,0L71.2,58z M48.9,55.4l23.3,0.3l16,15.5c-2.1-0.1-4.2-0.2-6.3-0.4c-14.6-0.9-29.2-1.8-44-2.8L48.9,55.4z"/>
			<polygon points="48.9,55.4 37.9,68 48.8,55.4 			"/>
			<polygon points="74.8,49.5 98.8,71.9 104.6,72.3 98.7,72 74.7,49.6 46,49.5 30.2,67.5 22.8,66.9 30.2,67.4 46,49.4 			"/>
			<path d="M54.5,31.4h3c0,0,0.1,0,0.1,0v0.1h-3c-0.6,0-1.1,0.4-1.2,0.9c-0.7,2.2-2.7,3.6-5,3.6c-1.7,0-3.2-0.8-4.1-2
				c1,1.2,2.4,1.9,4,1.9c2.3,0,4.3-1.4,5-3.6C53.5,31.8,54,31.4,54.5,31.4z"/>
			<path d="M56.8,27.3c0.7-1.2,1.8-1.9,2.9-1.9c1.2,0,2.2,0.7,2.9,1.9h0.8c6.3,0,11.7-2.6,16.3-7.9c0.5-0.5,1.1-0.8,1.8-0.8
				c1.3,0,2.4,1.1,2.4,2.4v19.3c0,0.7-0.3,1.3-0.8,1.8c-0.5,0.4-1.1,0.7-1.7,0.7c-0.7,0-1.3-0.3-1.8-0.8c-4.6-5.3-10-7.9-16.3-7.9
				h-0.8c-0.7,1.2-1.8,1.9-2.9,1.9c-1.1-0.1-2.1-0.8-2.8-1.9h-1.3c-1.3,2.7-4,4.5-7.1,4.5c-4.3,0-7.9-3.5-7.9-7.9
				c0-4.3,3.5-7.9,7.9-7.9c3.1,0,5.8,1.8,7.1,4.5H56.8z M58.7,32.2c0.2,0.5,0.5,0.8,0.7,0.9c0,0,0,0,0,0c0.1,0.1,0.2,0.2,0.3,0.2
				c0.2,0,0.6-0.3,0.9-1c0.2-0.5,0.7-0.8,1.2-0.8h1.6c6.3,0,12.1,2.4,16.8,7.3c0.3,0.3,0.6,0.7,0.9,1v0c0,0,0.1,0.1,0.1,0.1V21.6
				c0,0-0.1,0.1-0.1,0.1v-0.1c-4.7,5.2-10.3,8-16.6,8.4c-0.4,0-0.8,0-1.3,0h-1.6c-0.5,0-0.9-0.3-1.1-0.8c-0.3-0.6-0.7-1-0.9-1
				c0,0,0,0,0,0c0,0,0,0-0.1,0c-0.2,0-0.6,0.4-0.9,1c-0.2,0.5-0.6,0.8-1.1,0.8c0,0-0.1,0-0.1,0h-2.9c-0.6,0-1.1-0.4-1.2-0.8
				c-0.2-0.5-0.4-0.9-0.6-1.2c-0.1-0.1-0.1-0.2-0.2-0.2c-1-1.4-2.5-2.2-4.3-2.2c-2.9,0-5.2,2.4-5.2,5.2c0,1.1,0.4,2.1,1,3
				c0.1,0.1,0.1,0.2,0.2,0.3c0.9,1.2,2.4,2,4.1,2c2.3,0,4.3-1.4,5-3.6c0.1-0.5,0.6-0.9,1.2-0.9h3c0.3,0,0.6,0.1,0.9,0.3c0,0,0,0,0,0
				C58.6,32,58.7,32.1,58.7,32.2z"/>
			<path class="st1" d="M36.3,83.5c2.9,0,5.4,2.5,5.4,5.6c0,3-2.5,5.4-5.4,5.4c-0.4,0-0.8,0-1.1-0.1c-2.2-0.4-3.9-2.2-4.4-4.2
				c-0.1-0.3-0.1-0.7-0.1-1.1C30.7,86,33.2,83.5,36.3,83.5z"/>
			<path d="M81.9,91.2c1.6,4.4,4.7,7.4,9.5,7.4c4.8,0,8-3.1,9.5-7.4l12.3-0.1c1.4-0.1,2.1-0.8,2.1-2.1v0.1c0,1.3-0.7,1.9-2.1,2.1
				l-12.3,0.1c-1.4,4.3-4.7,7.4-9.5,7.4c-4.8,0-7.9-3-9.5-7.4H45.6c-1.4,4.4-4.5,7.4-9.3,7.4c-3.1,0-5.5-1.2-7.2-3.2
				c1.7,1.9,4.1,3.1,7.2,3.1c4.8,0,7.9-3,9.3-7.4H81.9z"/>
			<path d="M41.7,89.1c0-3.1-2.5-5.6-5.4-5.6c-3.1,0-5.6,2.5-5.6,5.6c0,0.4,0,0.7,0.1,1.1c0.4,2.1,2.2,3.8,4.4,4.2
				c0.4,0.1,0.7,0.1,1.1,0.1C39.2,94.5,41.7,92.1,41.7,89.1z M36.2,81.2c4.3,0,7.8,3.5,7.8,7.9c0,4.3-3.5,7.9-7.8,7.9
				c-0.5,0-1.1-0.1-1.6-0.2c-3.5-0.8-6.2-4-6.3-7.7C28.3,84.7,31.8,81.2,36.2,81.2z"/>
			<path class="st1" d="M83.4,89.1c0,4.3,3.5,7.9,7.9,7.9c4.4,0,7.9-3.6,7.9-7.9c0-4.4-3.5-7.9-7.9-7.9
				C86.9,81.2,83.4,84.7,83.4,89.1z M36.2,97c4.3,0,7.8-3.6,7.8-7.9c0-4.4-3.5-7.9-7.8-7.9c-4.4,0-7.9,3.5-7.9,7.9
				c0,3.8,2.7,7,6.3,7.7C35.1,96.9,35.7,97,36.2,97z M88.3,71.2l-16-15.5h-0.1l-23.3-0.3h-0.1L37.9,68c14.8,1,29.4,1.9,44,2.8
				c2.1,0.1,4.2,0.3,6.3,0.4l0,0C88.2,71.2,88.3,71.2,88.3,71.2z M91.4,98.6c-4.8,0-7.9-3-9.5-7.4H45.6c-1.4,4.4-4.5,7.4-9.3,7.4
				c-3.1,0-5.5-1.2-7.2-3.1c-0.2-0.2-0.3-0.4-0.5-0.6c-0.2-0.2-0.3-0.4-0.5-0.7c-0.3-0.4-0.5-0.9-0.8-1.4c-0.2-0.5-0.4-1-0.6-1.6h-7
				c-1.2-0.4-1.8-1.7-2.2-2.7V72.2c0.1-3.5,2.2-4.5,5.2-5.3l7.4,0.6l15.8-18l28.7,0.1l24,22.4l5.9,0.3l5.6,0.4
				c3.2,0.8,4.8,2.7,5.2,6L115.3,89c0,1.3-0.7,2-2.1,2.1l-12.3,0.1C99.4,95.5,96.2,98.6,91.4,98.6z"/>
			<path d="M28.6,94.9c0.2,0.2,0.3,0.4,0.5,0.6C28.9,95.3,28.8,95.1,28.6,94.9z"/>
			<path d="M34.6,96.8c-3.6-0.7-6.3-4-6.3-7.7C28.4,92.9,31.1,96.1,34.6,96.8z"/>
			<path d="M27.4,92.8c0.2,0.5,0.5,1,0.8,1.4C27.9,93.8,27.6,93.3,27.4,92.8z"/>
			<path d="M17.6,88.5c0.4,1,1,2.3,2.2,2.7h7c0.2,0.6,0.4,1.1,0.6,1.6c-0.2-0.5-0.4-1-0.6-1.5h-7C18.6,90.9,18,89.6,17.6,88.5
				L17.6,88.5z"/>
			<path d="M91.4,101c-4.9,0-9.2-2.8-11.1-7.4h-33c-1.8,4.5-6.2,7.4-11,7.4c-4.9,0-9.2-2.8-11.1-7.4h-5.6C17,93,16,91.1,15.3,88.8
				V72.2c0.1-4.8,3.1-6.6,7.3-7.6l6.7,0.5l15.7-18h30.7l24.1,22.5c3.6,0.3,7.1,0.5,10.8,0.8c4.3,1,6.7,3.8,7.3,8.2l-0.3,10.5
				c0,2.6-1.7,4.3-4.2,4.5h-10.9C100.6,98,96.3,101,91.4,101z M45.6,91.3h36.3c1.6,4.4,4.7,7.4,9.5,7.4c4.8,0,8.1-3.1,9.5-7.4
				l12.3-0.1c1.4-0.2,2.1-0.8,2.1-2.1V89l0.1-10.3v-0.1c-0.2-1.6-0.7-2.9-1.5-3.9c-0.8-1-2-1.7-3.7-2.1l-5.6-0.3l-5.8-0.4l-24-22.4
				L46,49.4l-15.8,18l-7.4-0.5c-3,0.8-5.1,1.8-5.2,5.3v16.3v0.1c0.4,1,1,2.3,2.2,2.7h7c0.2,0.5,0.4,1,0.6,1.5c0.2,0.5,0.5,1,0.8,1.4
				c0.1,0.2,0.3,0.5,0.5,0.7c0.1,0.2,0.3,0.4,0.5,0.6c1.7,2,4.1,3.2,7.2,3.2C41.1,98.7,44.2,95.7,45.6,91.3z"/>
		</g>
		<g>
		</g>
	</g>
</g>
<g id="Layer_10_00000084509998272139497780000008077192264451833754_">
</g>
<g id="Layer_11_00000116220595310884250560000013807966725250984093_">
</g>
<g id="Layer_12">
</g>
<g id="Layer_13">
</g>
<g id="Layer_14">
</g>
<g id="Layer_15">
</g>
<g id="Layer_16">
</g>
<g id="Layer_17">
</g>
<g id="Layer_18">
</g>
</svg>
