<svg version="1.1" viewBox="0.0 0.0 133.44094488188978 133.44094488188978" fill="none" stroke="none" stroke-linecap="square" stroke-miterlimit="10" xmlns:xlink="http://www.w3.org/1999/xlink" xmlns="http://www.w3.org/2000/svg"><clipPath id="p.0"><path d="m0 0l133.44095 0l0 133.44095l-133.44095 0l0 -133.44095z" clip-rule="nonzero"/></clipPath><g clip-path="url(#p.0)"><path fill="#000000" fill-opacity="0.0" d="m0 0l133.44095 0l0 133.44095l-133.44095 0z" fill-rule="evenodd"/><path fill="#ff9c4c" d="m-4.1364827 -0.21784776l137.57481 0l0 133.44882l-137.57481 0z" fill-rule="evenodd"/><path stroke="#ff9c4c" stroke-width="1.0" stroke-linejoin="round" stroke-linecap="butt" d="m-4.1364827 -0.21784776l137.57481 0l0 133.44882l-137.57481 0z" fill-rule="evenodd"/><path fill="#000000" fill-opacity="0.0" d="m-26.421259 -24.648294l182.14174 0l0 182.74016l-182.14174 0z" fill-rule="evenodd"/><path fill="#000000" d="m35.467968 107.23171l0 -91.625l12.125 0l0 91.625l-12.125 0z" fill-rule="nonzero"/><path fill="#000000" d="m81.33125 107.23171l0 -57.625l-9.9375 0l0 -8.75l9.9375 0l0 -7.0625q0 -6.687502 1.1875 -9.937502q1.625 -4.375 5.71875 -7.09375q4.09375 -2.718749 11.46875 -2.718749q4.7499924 0 10.499992 1.125l-1.6875 9.812499q-3.5 -0.625 -6.625 -0.625q-5.1249924 0 -7.2499924 2.1875q-2.125 2.1875 -2.125 8.187502l0 6.125l12.937492 0l0 8.75l-12.937492 0l0 57.625l-11.1875 0z" fill-rule="nonzero"/></g></svg>