<?xml version="1.0" encoding="utf-8"?>
<!-- Generator: Adobe Illustrator 26.3.1, SVG Export Plug-In . SVG Version: 6.00 Build 0)  -->
<svg version="1.1" id="Layer_1" xmlns="http://www.w3.org/2000/svg" xmlns:xlink="http://www.w3.org/1999/xlink" x="0px" y="0px"
	 viewBox="0 0 133 133" style="enable-background:new 0 0 133 133;" xml:space="preserve">
<style type="text/css">
	.st0{fill:#896FC9;}
	.st1{fill:#FFFFFF;}
</style>
<g id="Layer_1_00000067954951576483941990000017093624153513267104_">
	<g id="Layer_1_00000005225669801636289210000001809376391952712850_">
		<g id="Layer_2_00000060021133882677660080000005371206251005519509_">
			<path class="st0" d="M121,133H12c-6.6,0-12-5.4-12-12V12C0,5.4,5.4,0,12,0h109c6.6,0,12,5.4,12,12v109
				C133,127.6,127.6,133,121,133z"/>
			<path class="st0" d="M121,133H12c-6.6,0-12-5.4-12-12V12C0,5.4,5.4,0,12,0h109c6.6,0,12,5.4,12,12v109
				C133,127.6,127.6,133,121,133z"/>
		</g>
	</g>
</g>
<g id="Layer_2_00000112628199128963071790000011933057861660501941_">
</g>
<g id="Layer_3">
</g>
<g id="Layer_4">
</g>
<g id="Layer_5">
</g>
<g id="Layer_6">
</g>
<g id="Layer_7">
</g>
<g id="Layer_8">
	<g>
		<g id="XMLID_00000123434775517666122710000015319992002421600408_">
			<g>
				<path class="st1" d="M90,36.4c-4.2,0.1-7.6-0.8-10.2-2.5s-4.6-4.3-5.8-8.2c0.4,0,0.8,0,1.2,0c3.6,0,6.4,0.8,8.8,2.4
					C86.5,29.8,88.5,32.5,90,36.4z"/>
				<path class="st1" d="M106.1,84.2c2.3,3.7,2.3,9.7,1.7,12.2c-0.8,3.2-2,7.3-4.5,10.7c-2.5,3.3-6,5.9-12.4,6.3s-11.4-1.8-15.1-5.1
					c-3.7-3.3-6-7.7-6.7-11.5c-0.2-1.1-0.3-2.2-0.3-3.4V93c0-3,0.8-6.3,2.6-8.6c2.6-3.2,7.2-5.4,16.9-3c0.2,0.1,0.5,0.1,0.8,0.1h0.1
					h0.1l0,0c0.3,0,0.6-0.1,0.9-0.2c3.1-1.1,5.7-1.5,7.7-1.5l0,0c1.1,0,2.1,0.1,2.9,0.3C103.4,81,104.9,82.3,106.1,84.2z
					 M87.7,108.5c0.3-0.6,0.3-1.2,0.1-1.8c-0.2-0.6-0.6-1.1-1.2-1.3c-3.1-1.5-5.5-4.7-6.7-8.3C78.8,93.6,79,90,80.2,88
					c0.4-0.7,0.5-1.6,0.1-2.3c-0.4-0.7-1.1-1.2-2-1.2c-0.8,0-1.6,0.4-2.1,1.1c-2.2,3.7-2.2,8.5-0.7,13c1.4,4.5,4.5,8.8,9,11
					c0.6,0.3,1.2,0.3,1.8,0.1C87,109.5,87.4,109.1,87.7,108.5z"/>
				<path class="st1" d="M64.2,93.2v0.3c0,1.2-0.1,2.3-0.3,3.4c-0.7,3.8-3,8.2-6.7,11.4c-3.7,3.3-8.6,5.4-15,5.1
					c-6.4-0.4-10-3-12.4-6.3s-3.6-7.5-4.5-10.7c-0.6-2.5-0.6-8.5,1.7-12.2c1.1-1.9,2.7-3.2,5.2-3.9C33,80.1,34,80,35.1,80
					c2.1,0,4.6,0.4,7.7,1.5c0.3,0.1,0.6,0.2,0.9,0.2h0.1l0,0c0.3,0,0.6,0,0.9-0.2c9.7-2.4,14.3-0.2,16.9,3
					C63.4,86.9,64.1,90.1,64.2,93.2z M43.9,108.5c0.3-0.6,0.3-1.2,0.1-1.8c-0.2-0.6-0.6-1.1-1.2-1.3c-3.1-1.5-5.5-4.7-6.6-8.3
					C35,93.7,35.3,90,36.5,88c0.4-0.7,0.5-1.6,0.1-2.3c-0.4-0.7-1.2-1.2-2-1.2s-1.6,0.4-2.1,1.1c-2.2,3.7-2.2,8.5-0.7,13
					c1.4,4.5,4.4,8.8,9,11c0.6,0.3,1.2,0.3,1.8,0.1C43.2,109.5,43.7,109.1,43.9,108.5z"/>
				<path d="M87.8,106.7c0.2,0.6,0.2,1.2-0.1,1.8c-0.3,0.6-0.8,1-1.3,1.2c-0.6,0.2-1.2,0.2-1.8-0.1c-4.6-2.2-7.6-6.5-9-11
					c-1.5-4.5-1.5-9.3,0.7-13c0.4-0.7,1.2-1.2,2.1-1.1c0.8,0,1.6,0.5,2,1.2s0.4,1.6-0.1,2.3c-1.2,2-1.4,5.6-0.3,9.2
					c1.1,3.5,3.5,6.8,6.7,8.3C87.2,105.7,87.6,106.2,87.8,106.7z"/>
				<path d="M63.6,16.7c0.1,0.1,0.2,0.2,0.3,0.3c0,0.1,0.1,0.1,0.1,0.2s0.1,0.1,0.1,0.2c0.1,0.1,0.1,0.3,0.2,0.4c0,0.1,0,0.1,0,0.2
					s0,0.3,0,0.5c0,0.3,0,0.5,0,0.8c2.5,1.2,3.2,1.7,6.5,2.1h0.1c6.1-0.9,11.3,0,15.5,2.9c4.1,2.8,7,7.4,8.7,13.3
					c0.3,0.7,0.3,1.6-0.2,2.3c-0.4,0.7-1.2,1.1-2.1,1l0,0c-6.2,0.6-11.5-0.3-15.7-3c-3.9-2.6-6.6-6.7-8.1-12
					c-1.6-0.3-2.8-0.6-3.9-1.1c2,7.2,7,13.9,12.2,21.2c6.3,8.7,13,18.2,13.9,30.3c4.2-1.1,7.7-1.2,10.7-0.5c3.7,0.9,6.3,3.2,8,5.9
					c3.3,5.4,3.2,11.9,2.2,15.8c-0.8,3.2-2.1,8-5.2,12.3c-3.1,4.2-8.2,7.7-15.9,8.2c-7.6,0.5-13.9-2.2-18.4-6.2
					c-2.8-2.4-4.8-5.3-6.3-8.3c-1.4,3-3.5,5.9-6.3,8.3c-4.5,4-10.8,6.7-18.4,6.2c-7.7-0.4-12.8-4-15.9-8.2s-4.4-9-5.2-12.2l0,0
					c-1-3.9-1.1-10.5,2.2-15.8c1.7-2.7,4.3-5,8-5.9c2.9-0.8,6.4-0.7,10.6,0.4c0.6-10.3,5.1-19.6,9.3-28.7c4.6-9.7,9-19.1,9-29.1
					c0-0.1,0-0.1,0-0.2c0-0.2,0.1-0.5,0.1-0.7c0.1-0.1,0.1-0.3,0.2-0.4c0.1-0.1,0.2-0.2,0.3-0.4c0.1,0,0.1-0.1,0.2-0.2
					c0.1,0,0.1-0.1,0.2-0.1c0.1-0.1,0.3-0.2,0.4-0.2c0.3-0.1,0.6-0.2,0.9-0.2c0.1,0,0.2,0,0.2,0c0.1,0,0.2,0,0.2,0
					c0.1,0,0.2,0,0.2,0.1c0.1,0,0.2,0,0.2,0.1c0.1,0,0.1,0.1,0.2,0.1c0.1,0,0.1,0.1,0.2,0.1C63.5,16.6,63.5,16.6,63.6,16.7z
					 M43.7,81.7c-0.3,0-0.6-0.1-0.9-0.2C39.6,80.4,37.1,80,35,80c-1.1,0-2.1,0.1-2.9,0.3c-2.5,0.6-4,2-5.2,3.9
					c-2.3,3.7-2.3,9.7-1.7,12.2c0.8,3.2,2,7.3,4.5,10.7c2.5,3.3,6,5.9,12.4,6.3s11.4-1.8,15-5.1c3.7-3.2,6-7.7,6.7-11.4
					c0.2-1.1,0.3-2.2,0.3-3.4v-0.3c0-3.1-0.8-6.3-2.6-8.6c-2.6-3.2-7.2-5.4-16.9-3C44.3,81.7,44,81.8,43.7,81.7L43.7,81.7L43.7,81.7
					z M90.2,81.5c-0.3,0.1-0.6,0.2-0.9,0.2l0,0h-0.1h-0.1c-0.3,0-0.5,0-0.8-0.1c-9.7-2.4-14.4-0.3-16.9,3c-1.8,2.3-2.6,5.5-2.6,8.6
					v0.4c0,1.2,0.1,2.3,0.3,3.4c0.7,3.8,3,8.2,6.7,11.5s8.6,5.4,15.1,5.1c6.4-0.4,10-3,12.4-6.3s3.6-7.5,4.5-10.7
					c0.7-2.5,0.6-8.5-1.7-12.2c-1.2-1.9-2.7-3.2-5.2-3.9c-0.8-0.2-1.8-0.3-2.9-0.3l0,0C95.9,80,93.4,80.4,90.2,81.5z M79.8,34
					c2.6,1.7,5.9,2.5,10.2,2.5c-1.5-3.9-3.5-6.6-6-8.3c-2.3-1.6-5.2-2.4-8.8-2.4c-0.4,0-0.8,0-1.2,0C75.2,29.6,77.2,32.2,79.8,34z
					 M86.8,76.5C86,65.9,80,57.3,73.8,48.6C69.6,43,65.3,37.3,62.6,31l0,0c-1.8,6.5-4.7,12.6-7.6,18.5c-4.3,9-8.3,17.8-8.9,27
					c9.3-1.7,15.7,0.8,19.1,5.2c0.5,0.6,0.9,1.3,1.3,1.9c0.4-0.7,0.8-1.3,1.3-1.9C71.2,77.4,77.5,74.9,86.8,76.5z"/>
				<path d="M36.5,88c-1.2,2-1.4,5.7-0.3,9.2c1.1,3.5,3.5,6.8,6.6,8.3c0.6,0.3,1,0.7,1.2,1.3c0.2,0.6,0.2,1.2-0.1,1.8
					c-0.3,0.6-0.8,1-1.3,1.2c-0.6,0.2-1.2,0.2-1.8-0.1c-4.6-2.2-7.6-6.5-9-11c-1.5-4.5-1.5-9.3,0.7-13c0.4-0.7,1.2-1.2,2.1-1.1
					c0.8,0,1.6,0.5,2,1.2C36.9,86.4,36.9,87.3,36.5,88z"/>
			</g>
		</g>
	</g>
</g>
<g id="Layer_9">
</g>
</svg>
