<?xml version="1.0" encoding="utf-8"?>
<!-- Generator: Adobe Illustrator 27.1.1, SVG Export Plug-In . SVG Version: 6.00 Build 0)  -->
<svg version="1.1" id="Layer_1" xmlns="http://www.w3.org/2000/svg" xmlns:xlink="http://www.w3.org/1999/xlink" x="0px" y="0px"
	 viewBox="0 0 133 133" style="enable-background:new 0 0 133 133;" xml:space="preserve">
<style type="text/css">
	.st0{fill:#5C00B8;}
	.st1{fill:#FFFFFF;}
</style>
<rect x="0" class="st0" width="133" height="133"/>
<g id="Layer_1_00000005252893899575804410000002324762745691182746_">
	<g id="Layer_1_00000144339670836911877070000017255901639124468135_">
		<g id="Layer_2_00000176043578981142717990000013479160105509053322_">
			<path class="st0" d="M121,133H12c-6.6,0-12-5.4-12-12V12C0,5.4,5.4,0,12,0h109c6.6,0,12,5.4,12,12v109
				C133,127.6,127.6,133,121,133z"/>
			<path class="st0" d="M121,133H12c-6.6,0-12-5.4-12-12V12C0,5.4,5.4,0,12,0h109c6.6,0,12,5.4,12,12v109
				C133,127.6,127.6,133,121,133z"/>
		</g>
	</g>
</g>
<g id="Layer_4_00000081625892626182500160000014120265064281576336_">
	<g>
		<g>
			<g id="XMLID_00000169545946970319607520000013988127747837584793_">
				<g>
					<path class="st1" d="M99.2,40.5l14.6,14.7L99.2,69.8l-2.9-2.9l6.3-6.2c0.6-0.6,0.8-1.5,0.4-2.2c-0.3-0.8-1.1-1.3-1.9-1.3H95
						c-9.7,0-17.6,7.9-17.6,17.6c0,9.4,7.3,17,16.6,17.6v4.1C82.5,96,73.3,86.4,73.3,74.8c0-12,9.8-21.8,21.8-21.8h5.7
						c0.8,0,1.6-0.5,1.9-1.3s0.1-1.7-0.5-2.3l-5.9-5.9L99.2,40.5z"/>
					<path class="st1" d="M59.7,76c0,11.7-9.2,21.2-20.7,21.7v-4.2c9.2-0.5,16.6-8.2,16.6-17.6c0-9.7-7.9-17.6-17.6-17.6h-6
						c-0.8,0-1.6,0.5-1.9,1.3s-0.1,1.7,0.5,2.3l6.3,6.2l-2.9,3L19.1,56.5l14.6-14.7l3,3l-5.9,6c-0.6,0.6-0.8,1.5-0.5,2.3
						s1.1,1.3,1.9,1.3h5.7C49.9,54.3,59.7,64,59.7,76z"/>
					<path d="M118.3,53.8c0.8,0.8,0.8,2.1,0,2.9l-17.6,17.6c-0.4,0.4-0.9,0.6-1.5,0.6c-0.5,0-1.1-0.2-1.5-0.6l-5.9-5.9
						c-0.4-0.4-0.6-0.9-0.6-1.5s0.2-1.1,0.6-1.5l4.2-4.2h-1c-7.4,0-13.5,6-13.5,13.5c0,7.4,6,13.5,13.5,13.5h1
						c1.1,0,2.1,0.9,2.1,2.1v8.3c0,1.1-0.9,2.1-2.1,2.1h-1c-14.3,0-25.9-11.6-25.9-25.9S80.7,48.9,95,48.9h0.7L91.9,45
						c-0.8-0.8-0.8-2.1,0-2.9l5.9-5.9c0.4-0.4,0.9-0.6,1.5-0.6s1.1,0.2,1.5,0.6L118.3,53.8z M113.9,55.2L99.2,40.5l-2.9,3l5.9,5.9
						c0.6,0.6,0.8,1.5,0.5,2.3s-1.1,1.3-1.9,1.3h-5.7c-12,0-21.8,9.8-21.8,21.8c0,11.6,9.2,21.2,20.7,21.7v-4.1
						c-9.2-0.5-16.6-8.2-16.6-17.6c0-9.7,7.9-17.6,17.6-17.6h6.1c0.8,0,1.6,0.5,1.9,1.3s0.1,1.7-0.4,2.2l-6.3,6.2l2.9,2.9
						L113.9,55.2z"/>
					<path d="M37.9,50.1c14.3,0,25.9,11.6,25.9,25.9s-11.6,25.9-25.9,25.9h-1c-1.1,0-2.1-0.9-2.1-2.1v-8.3c0-1.1,0.9-2.1,2.1-2.1h1
						c7.4,0,13.5-6,13.5-13.5c0-7.4-6-13.5-13.5-13.5h-1l4.2,4.2c0.4,0.4,0.6,0.9,0.6,1.5c0,0.5-0.2,1.1-0.6,1.5l-5.9,5.9
						c-0.4,0.4-0.9,0.6-1.5,0.6s-1.1-0.2-1.5-0.6L14.7,58c-0.8-0.8-0.8-2.1,0-2.9l17.6-17.6c0.4-0.4,0.9-0.6,1.5-0.6
						s1.1,0.2,1.5,0.6l5.9,5.9c0.8,0.8,0.8,2.1,0,2.9l-3.9,3.9h0.6C37.9,50.2,37.9,50.1,37.9,50.1z M39,97.8
						C50.5,97.2,59.7,87.7,59.7,76c0-12-9.8-21.8-21.8-21.8h-5.7c-0.8,0-1.6-0.5-1.9-1.3s-0.1-1.7,0.5-2.3l5.9-6l-3-3L19.1,56.5
						l14.6,14.6l2.9-3L30.4,62c-0.6-0.6-0.8-1.5-0.5-2.3s1.1-1.3,1.9-1.3h6c9.7,0,17.6,7.9,17.6,17.6c0,9.4-7.3,17-16.6,17.6v4.2
						C38.8,97.8,39,97.8,39,97.8z"/>
				</g>
			</g>
		</g>
	</g>
</g>
</svg>
