<?xml version="1.0" encoding="utf-8"?>
<!-- Generator: Adobe Illustrator 27.1.1, SVG Export Plug-In . SVG Version: 6.00 Build 0)  -->
<svg version="1.1" id="Layer_1" xmlns="http://www.w3.org/2000/svg" xmlns:xlink="http://www.w3.org/1999/xlink" x="0px" y="0px"
	 viewBox="0 0 133 133" style="enable-background:new 0 0 133 133;" xml:space="preserve">
<style type="text/css">
	.st0{fill:#526AAE;}
	.st1{fill:#FFFFFF;}
</style>
<g id="Layer_1_00000106139709437454152500000004557694661829596805_">
	<g id="Layer_2_00000132782648371917467930000002999603194377433491_">
		<path class="st0" d="M121,133H12c-6.6,0-12-5.4-12-12V12C0,5.4,5.4,0,12,0h109c6.6,0,12,5.4,12,12v109
			C133,127.6,127.6,133,121,133z"/>
		<path class="st0" d="M121,133H12c-6.6,0-12-5.4-12-12V12C0,5.4,5.4,0,12,0h109c6.6,0,12,5.4,12,12v109
			C133,127.6,127.6,133,121,133z"/>
	</g>
	<g id="Layer_2_00000182526950756243415880000012054659947005584006_">
		<path class="st0" d="M121,133H12c-6.6,0-12-5.4-12-12V12C0,5.4,5.4,0,12,0h109c6.6,0,12,5.4,12,12v109
			C133,127.6,127.6,133,121,133z"/>
		<path class="st0" d="M121,133H12c-6.6,0-12-5.4-12-12V12C0,5.4,5.4,0,12,0h109c6.6,0,12,5.4,12,12v109
			C133,127.6,127.6,133,121,133z"/>
	</g>
</g>
<g id="Layer_2_00000044139758074815813260000017128741065703938236_">
</g>
<g id="Layer_4">
</g>
<g id="Layer_5_00000096759886075198047500000016841880956640546723_">
</g>
<g id="Layer_6_00000151532325249707469710000014370122528315639221_">
</g>
<g id="Layer_7_00000042717999357893301760000000855885267568530853_">
</g>
<g id="Layer_8_00000168831599467053464300000003505523461608539011_">
</g>
<g id="Layer_9_00000089543259283313251050000005252079673544207528_">
</g>
<g id="Layer_10_00000084509998272139497780000008077192264451833754_">
</g>
<g id="Layer_11_00000116220595310884250560000013807966725250984093_">
</g>
<g id="Layer_12">
	<g>
		<g id="XMLID_00000075876957815907780600000007462240222413204374_">
			<g>
				<path class="st1" d="M46.4,86.7c1.3,1.3,2.2,3.2,2.2,5.2c0,2.1-0.8,3.9-2.2,5.3c-1.3,1.3-3.2,2.2-5.2,2.2s-3.9-0.8-5.2-2.2
					c-1.3-1.3-2.2-3.2-2.2-5.3c0-2.1,0.8-3.9,2.2-5.2c1.3-1.3,3.2-2.2,5.2-2.2C43.2,84.6,45.1,85.4,46.4,86.7z M44.7,92
					c0-1.9-1.6-3.5-3.5-3.5S37.7,90,37.7,92s1.6,3.5,3.5,3.5S44.7,93.9,44.7,92z"/>
				<path class="st1" d="M94.4,86.7c1.3,1.3,2.2,3.2,2.2,5.2c0,2.1-0.8,3.9-2.2,5.3c-1.3,1.3-3.2,2.2-5.2,2.2
					c-2.1,0-3.9-0.8-5.2-2.2c-1.3-1.3-2.2-3.2-2.2-5.3c0-2.1,0.8-3.9,2.2-5.2c1.3-1.3,3.2-2.2,5.2-2.2
					C91.2,84.6,93.1,85.4,94.4,86.7z M92.7,92c0-1.9-1.6-3.5-3.5-3.5s-3.5,1.6-3.5,3.5s1.6,3.5,3.5,3.5S92.7,93.9,92.7,92z"/>
				<path class="st1" d="M112.8,80.1v0.7l-0.2-0.1c-0.8-0.6-1.4-1.3-1.9-2.1c-0.5-0.9-0.8-2-0.9-3c0-0.2,0-0.5,0-0.7h0.1
					c1,0.6,1.7,1.3,2.2,2.2C112.5,77.9,112.8,79,112.8,80.1z"/>
				<polygon class="st1" points="94.3,56.1 98.4,65.5 80.8,65.5 80.8,56.1 88.3,56.1 				"/>
				<path class="st1" d="M80.7,43v1.6H76V43c0-0.6,0.3-1.2,0.7-1.6c0.4-0.4,1-0.7,1.6-0.7s1.2,0.3,1.7,0.7l0.1,0.1
					C80.4,41.9,80.7,42.4,80.7,43z"/>
				<path d="M116.9,80.1V92c0,1.1-0.9,2-2,2h-14.4c-0.4,2.4-1.6,4.5-3.2,6.1c-2.1,2.1-5,3.4-8.1,3.4s-6-1.3-8.1-3.4
					c-1.6-1.6-2.8-3.7-3.2-6.1H52.5c-0.4,2.4-1.6,4.5-3.2,6.1c-2.1,2.1-5,3.4-8.1,3.4c-3.2,0-6-1.3-8.1-3.4
					c-1.6-1.6-2.8-3.7-3.2-6.1h-3.6c-2.8,0-5.3-1.1-7.1-3c-1.8-1.8-3-4.4-3-7.2v-29c0-2.8,1.1-5.3,3-7.2c1.8-1.8,4.4-3,7.1-3H72V43
					c0-1.8,0.7-3.3,1.9-4.5l0,0c1.2-1.2,2.8-1.9,4.5-1.9c1.8,0,3.4,0.7,4.5,1.9l0.1,0.1c1.1,1.2,1.8,2.7,1.8,4.4v1.6h3.6
					c1.1,0,2,0.9,2,2V52h5.3c0.9,0,1.7,0.6,1.9,1.4l5.5,12.7l6.2,3.7c0.1,0,0.2,0.1,0.2,0.1l2.3,1.4c1.6,0.9,2.8,2.2,3.6,3.7
					C116.4,76.6,116.9,78.3,116.9,80.1z M112.8,89.9v-4.6c-0.9-0.3-1.8-0.8-2.6-1.4c-1.2-0.9-2.3-2-3-3.4c-0.9-1.5-1.3-3.1-1.5-4.8
					c-0.1-1.1,0-2.2,0.3-3.2l-5-3H78.8c-1.1,0-2-0.9-2-2V54c0-1.1,0.9-2,2-2h7.5v-3.3H26.2c-1.7,0-3.2,0.7-4.3,1.8
					c-1.1,1.1-1.8,2.6-1.8,4.3v29.1c0,1.7,0.7,3.2,1.8,4.3c1.1,1.1,2.6,1.8,4.3,1.8h3.6c0.4-2.3,1.6-4.4,3.2-6.1
					c2.1-2.1,5-3.4,8.1-3.4c3.2,0,6,1.3,8.1,3.4c1.6,1.6,2.8,3.7,3.2,6.1h25.4c0.4-2.3,1.6-4.4,3.2-6.1c2.1-2.1,5-3.4,8.1-3.4
					c3.2,0,6.1,1.3,8.1,3.4c1.6,1.6,2.8,3.7,3.2,6.1h12.4V89.9z M112.8,80.8v-0.7c0-1.1-0.3-2.1-0.8-3s-1.2-1.6-2.2-2.2h-0.1
					c0,0.2,0,0.5,0,0.7c0.1,1,0.4,2.1,0.9,3s1.2,1.6,1.9,2.1L112.8,80.8z M98.4,65.5l-4.1-9.4h-6h-7.5v9.4H98.4z M96.6,92
					c0-2.1-0.8-3.9-2.2-5.2c-1.3-1.3-3.2-2.2-5.2-2.2c-2.1,0-3.9,0.8-5.2,2.2c-1.3,1.3-2.2,3.2-2.2,5.2c0,2.1,0.8,3.9,2.2,5.3
					c1.3,1.3,3.2,2.2,5.2,2.2c2.1,0,3.9-0.8,5.2-2.2C95.7,95.9,96.6,94,96.6,92z M80.7,44.7V43c0-0.6-0.2-1.2-0.6-1.6H80
					c-0.4-0.4-1-0.7-1.7-0.7c-0.6,0-1.2,0.3-1.6,0.7S76,42.4,76,43v1.6h4.7V44.7z M48.6,92c0-2.1-0.8-3.9-2.2-5.2
					c-1.3-1.3-3.2-2.2-5.2-2.2s-3.9,0.8-5.2,2.2c-1.3,1.3-2.2,3.2-2.2,5.2c0,2.1,0.8,3.9,2.2,5.3c1.3,1.3,3.2,2.2,5.2,2.2
					c2.1,0,3.9-0.8,5.2-2.2C47.8,95.9,48.6,94,48.6,92z"/>
				<path class="st1" d="M112.8,85.4V90h-12.3c-0.4-2.3-1.6-4.5-3.2-6.1c-2.1-2.1-5-3.4-8.1-3.4c-3.2,0-6,1.3-8.1,3.4
					c-1.6,1.6-2.8,3.7-3.2,6.1H52.5c-0.4-2.3-1.6-4.5-3.2-6.1c-2.1-2.1-4.9-3.4-8.1-3.4s-6,1.3-8.1,3.4c-1.6,1.6-2.8,3.7-3.2,6.1
					h-3.6c-1.7,0-3.2-0.7-4.3-1.8c-1.1-1.1-1.8-2.6-1.8-4.3V54.8c0-1.7,0.7-3.2,1.8-4.3c1.1-1.1,2.6-1.8,4.3-1.8h60.1V52h-7.5
					c-1.1,0-2,0.9-2,2v13.5c0,1.1,0.9,2,2,2H101l5,3c-0.2,1.1-0.3,2.2-0.3,3.2c0.1,1.6,0.6,3.3,1.5,4.8c0.8,1.3,1.8,2.5,3,3.4
					C111,84.5,111.9,85,112.8,85.4z M65.9,70.5v-7.8c0-1.1-0.9-2-2-2h-5.2v-5.2c0-1.1-0.9-2-2-2h-7.8c-1.1,0-2,0.9-2,2v5.2h-5.2
					c-1.1,0-2,0.9-2,2v7.8c0,1.1,0.9,2,2,2h5.2v5.2c0,1.1,0.9,2,2,2h7.8c1.1,0,2-0.9,2-2v-5.2h5.2C65,72.5,65.9,71.6,65.9,70.5z"/>
				<path d="M89.1,88.5c1.9,0,3.5,1.6,3.5,3.5s-1.6,3.5-3.5,3.5s-3.5-1.6-3.5-3.5S87.2,88.5,89.1,88.5z"/>
				<path d="M89.5,30.1c0.8,0.8,0.7,2.1-0.1,2.9l-3.8,3.5c-0.8,0.8-2.1,0.7-2.9-0.1s-0.7-2.1,0.1-2.9l3.8-3.5
					C87.5,29.2,88.7,29.3,89.5,30.1z"/>
				<path d="M80.4,28v4.6c0,1.1-0.9,2-2,2s-2-0.9-2-2V28c0-1.1,0.9-2,2-2S80.4,26.9,80.4,28z"/>
				<path d="M73.8,33.5c0.8,0.8,0.9,2,0.1,2.9c-0.8,0.8-2.1,0.9-2.9,0.1L67.3,33c-0.8-0.8-0.9-2.1-0.1-2.9s2.1-0.9,2.9-0.1
					L73.8,33.5z"/>
				<path d="M65.9,62.7v7.8c0,1.1-0.9,2-2,2h-5.2v5.2c0,1.1-0.9,2-2,2h-7.8c-1.1,0-2-0.9-2-2v-5.2h-5.2c-1.1,0-2-0.9-2-2v-7.8
					c0-1.1,0.9-2,2-2h5.2v-5.2c0-1.1,0.9-2,2-2h7.8c1.1,0,2,0.9,2,2v5.2h5.2C65,60.7,65.9,61.6,65.9,62.7z M61.8,68.4v-3.7h-5.2
					c-1.1,0-2-0.9-2-2v-5.2h-3.7v5.2c0,1.1-0.9,2-2,2h-5.2v3.7h5.2c1.1,0,2,0.9,2,2v5.2h3.7v-5.2c0-1.1,0.9-2,2-2H61.8z"/>
				<path class="st1" d="M61.8,64.7v3.7h-5.2c-1.1,0-2,0.9-2,2v5.2h-3.7v-5.2c0-1.1-0.9-2-2-2h-5.2v-3.7h5.2c1.1,0,2-0.9,2-2v-5.2
					h3.7v5.2c0,1.1,0.9,2,2,2H61.8z"/>
				<path d="M41.2,88.5c1.9,0,3.5,1.6,3.5,3.5s-1.6,3.5-3.5,3.5s-3.5-1.6-3.5-3.5S39.2,88.5,41.2,88.5z"/>
			</g>
		</g>
	</g>
</g>
<g id="Layer_13">
</g>
<g id="Layer_14">
</g>
<g id="Layer_15">
</g>
<g id="Layer_16">
</g>
<g id="Layer_17">
</g>
<g id="Layer_18">
</g>
</svg>
