<?xml version="1.0" encoding="utf-8"?>
<!-- Generator: Adobe Illustrator 26.3.1, SVG Export Plug-In . SVG Version: 6.00 Build 0)  -->
<svg version="1.1" id="Layer_1" xmlns="http://www.w3.org/2000/svg" xmlns:xlink="http://www.w3.org/1999/xlink" x="0px" y="0px"
	 viewBox="0 0 133 133" style="enable-background:new 0 0 133 133;" xml:space="preserve">
<style type="text/css">
	.st0{fill:#FFFFFF;}
</style>
<g id="XMLID_00000170243257839735807180000010092365119887852418_">
	<g>
		<path d="M94,54.4c5.9,4.7,5.6,19.3-0.5,28c-2.2,3.2-3.6,4.9-8.8,6.8c-0.7,0.3-1.3,0.3-2,0.3c-1.5,0-2.8-0.5-4-1
			c-1.1-0.5-2.2-1-3.4-0.9c-1,0-2.1,0.3-3.2,0.7c-2.1,0.6-4.6,1.4-7.6,0.2c-3.8-1.5-5.6-3.3-7.5-6c-6.3-8.9-6.5-22.6-0.4-28
			c2.8-2.5,6.6-3.6,10.3-3c2.3,0.4,5.4,1.1,7.8,2.3c-0.3-1.5-1.1-3-1.8-3.6c-2.6-2.4-4.3-2.9-5.4-3.2l-0.4-0.1
			c-0.5-0.2-0.8-0.7-0.6-1.2c0.2-0.5,0.7-0.8,1.2-0.6l0.4,0.1c1.2,0.4,3.1,1,6.1,3.6c0.4,0.4,0.9,1,1.3,1.6c0.5-1.5,1.5-2.8,3.1-4.5
			c2.6-2.8,7.1-3.2,7.3-3.3c0.3,0,0.6,0.1,0.8,0.3c0.2,0.2,0.3,0.5,0.2,0.8c0,0.3-0.9,4.7-4.6,8.5c1.3-0.3,2.6-0.5,3.8-0.6
			C88.7,51.5,91.7,52.5,94,54.4z M92,81.3c6-8.5,5.6-21.7,0.9-25.4c-2-1.6-4.5-2.4-6.8-2.3c-2.8,0.1-6.9,1.5-9.3,2.5
			c-0.2,0.1-0.4,0.2-0.7,0.3c-0.3,0.1-0.6,0.1-0.8,0c-0.1,0-0.2-0.1-0.3-0.1c-1.7-1.2-4.7-2.2-8.4-2.8c-3.2-0.5-6.3,0.4-8.7,2.5
			c-5.3,4.8-5,17.4,0.7,25.5c1.8,2.5,3.3,4,6.6,5.3c2.4,0.9,4.3,0.4,6.3-0.2c1.2-0.4,2.4-0.7,3.7-0.8c0,0,0.1,0,0.1,0
			c1.5,0,2.8,0.5,4,1.1c1.6,0.7,3,1.2,4.6,0.7C88.7,85.7,89.9,84.3,92,81.3z M76.7,54c5-2.6,7.1-7,7.9-9.2c-1.3,0.3-3.4,1-4.7,2.4
			C77.6,49.6,76.9,51,76.7,54z"/>
		<path class="st0" d="M92.9,55.9c4.7,3.7,5.1,16.9-0.9,25.4c-2.1,3-3.2,4.4-7.9,6.1c-1.6,0.6-3,0-4.6-0.7c-1.3-0.5-2.5-1.1-4-1.1
			c0,0-0.1,0-0.1,0c-1.3,0-2.5,0.4-3.7,0.8c-2,0.6-4,1.2-6.3,0.2c-3.4-1.3-4.9-2.8-6.6-5.3c-5.7-8.1-6-20.7-0.7-25.5
			c2.4-2.1,5.5-3,8.7-2.5c3.7,0.6,6.7,1.6,8.4,2.8c0.1,0.1,0.2,0.1,0.3,0.1c0.2,0.1,0.5,0.2,0.8,0c0.2-0.1,0.4-0.2,0.7-0.3
			c2.5-1,6.5-2.4,9.3-2.5C88.4,53.5,90.9,54.3,92.9,55.9z M65.1,58.6c0-0.5-0.3-1-0.9-1c-1.7-0.1-3.4,0.4-4.7,1.6
			c-1.5,1.4-2.5,3.4-2.6,5.8c0,0.5,0.4,1,0.9,1c0,0,0,0,0,0c0.5,0,0.9-0.4,0.9-0.9c0.1-1.8,0.8-3.4,1.9-4.4c0.9-0.8,2.1-1.2,3.3-1.1
			C64.6,59.5,65.1,59.1,65.1,58.6z"/>
		<path class="st0" d="M84.6,44.8c-0.8,2.2-2.8,6.6-7.9,9.2c0.2-3,0.9-4.3,3.2-6.8C81.2,45.8,83.3,45.1,84.6,44.8z"/>
		<path d="M64.2,57.6c0.5,0,0.9,0.5,0.9,1c0,0.5-0.5,0.9-1,0.9c-1.2-0.1-2.4,0.3-3.3,1.1c-1.2,1-1.8,2.6-1.9,4.4
			c0,0.5-0.4,0.9-0.9,0.9c0,0,0,0,0,0c-0.5,0-0.9-0.5-0.9-1c0.1-2.4,1-4.4,2.6-5.8C60.8,58,62.5,57.4,64.2,57.6z"/>
	</g>
</g>
<g>
	<g id="XMLID_00000142870482583346469370000013627080705093983924_">
		<g>
			<path d="M116.2,77.3c1.1,1.8,1.1,3.9,0.7,5.2c-0.3,1.1-0.7,2.7-1.7,4c-1,1.4-2.7,2.6-5.2,2.7c-2.5,0.1-4.6-0.7-6.1-2.1
				c-0.9-0.8-1.6-1.8-2.1-2.8c-0.5,1-1.2,2-2.1,2.8c-1.5,1.3-3.5,2.2-6.1,2.1c-2.5-0.2-4.2-1.3-5.2-2.7c-0.5-0.7-0.9-1.4-1.1-2.1
				c-0.3-0.7-0.4-1.4-0.6-1.9c-0.3-1.3-0.4-3.5,0.7-5.2c0.5-0.9,1.4-1.6,2.6-2c1-0.3,2.1-0.2,3.5,0.1c0.2-3.4,1.7-6.5,3.1-9.5
				c1.5-3.2,3-6.3,3-9.6c0,0,0,0,0-0.1c0-0.1,0-0.2,0-0.2c0,0,0-0.1,0.1-0.1s0.1-0.1,0.1-0.1c0,0,0,0,0.1-0.1c0,0,0,0,0.1,0
				c0,0,0.1-0.1,0.1-0.1c0.1,0,0.2-0.1,0.3-0.1c0,0,0,0,0.1,0c0,0,0,0,0.1,0c0,0,0,0,0.1,0c0,0,0,0,0.1,0c0,0,0,0,0.1,0
				c0,0,0,0,0.1,0c0,0,0,0,0.1,0c0,0,0.1,0.1,0.1,0.1c0,0,0,0,0,0.1c0,0,0,0,0,0.1c0,0,0,0.1,0.1,0.1c0,0,0,0,0,0.1c0,0,0,0.1,0,0.1
				c0,0.1,0,0.2,0,0.3c0.8,0.4,1,0.6,2.1,0.7h0v0c2-0.3,3.7,0,5.1,0.9c1.4,0.9,2.3,2.4,2.9,4.4c0.1,0.2,0.1,0.5-0.1,0.8
				c-0.1,0.2-0.4,0.4-0.7,0.3h0c-2,0.2-3.8-0.1-5.2-1c-1.3-0.8-2.2-2.2-2.7-4c-0.5-0.1-0.9-0.2-1.3-0.3c0.6,2.4,2.3,4.6,4,7
				c2.1,2.9,4.3,6,4.6,10c1.4-0.4,2.6-0.4,3.5-0.2C114.7,75.6,115.6,76.4,116.2,77.3z M115.4,82.1c0.2-0.8,0.2-2.8-0.5-4
				c-0.4-0.6-0.9-1.1-1.7-1.3c-0.3-0.1-0.6-0.1-1-0.1c-0.7,0-1.5,0.1-2.6,0.5c-0.1,0-0.2,0.1-0.3,0.1h0h0c-0.1,0-0.2,0-0.3,0
				c-3.2-0.8-4.7-0.1-5.6,1c-0.6,0.8-0.8,1.8-0.9,2.8v0.1c0,0.4,0,0.8,0.1,1.1c0.2,1.3,1,2.7,2.2,3.8c1.2,1.1,2.8,1.8,5,1.7
				c2.1-0.1,3.3-1,4.1-2.1C114.7,84.5,115.1,83.2,115.4,82.1z M106.2,61.5c0.8,0.6,2,0.8,3.4,0.8c-0.5-1.3-1.2-2.2-2-2.7
				c-0.8-0.5-1.7-0.8-2.9-0.8c-0.1,0-0.3,0-0.4,0C104.7,60.1,105.3,60.9,106.2,61.5z M108.5,75.5c-0.3-3.5-2.2-6.3-4.3-9.2
				c-1.4-1.9-2.8-3.8-3.7-5.8h0c-0.6,2.1-1.6,4.1-2.5,6.1c-1.4,3-2.8,5.9-2.9,8.9c3.1-0.6,5.2,0.3,6.3,1.7c0.2,0.2,0.3,0.4,0.4,0.6
				c0.1-0.2,0.3-0.4,0.4-0.6C103.4,75.8,105.4,75,108.5,75.5z M101,81.1V81c0-1-0.3-2.1-0.9-2.8c-0.8-1.1-2.4-1.8-5.6-1
				c-0.1,0-0.2,0-0.3,0h0h0c-0.1,0-0.2,0-0.3-0.1c-1-0.4-1.9-0.5-2.6-0.5v0c-0.4,0-0.7,0-1,0.1c-0.8,0.2-1.3,0.7-1.7,1.3
				c-0.8,1.2-0.8,3.2-0.5,4c0.3,1.1,0.7,2.4,1.5,3.5c0.8,1.1,2,2,4.1,2.1c2.1,0.1,3.8-0.6,5-1.7c1.2-1.1,2-2.5,2.2-3.8
				C101,81.9,101,81.5,101,81.1z"/>
			<path class="st0" d="M114.9,78.1c0.8,1.2,0.8,3.2,0.5,4c-0.3,1.1-0.7,2.4-1.5,3.5c-0.8,1.1-2,2-4.1,2.1c-2.1,0.1-3.8-0.6-5-1.7
				c-1.2-1.1-2-2.5-2.2-3.8c-0.1-0.3-0.1-0.7-0.1-1.1V81c0-1,0.3-2.1,0.9-2.8c0.8-1.1,2.4-1.8,5.6-1c0.1,0,0.2,0,0.3,0h0h0
				c0.1,0,0.2,0,0.3-0.1c1-0.4,1.9-0.5,2.6-0.5c0.4,0,0.7,0,1,0.1C114,77,114.5,77.5,114.9,78.1z M108.8,86.1c0.1-0.2,0.1-0.4,0-0.6
				c-0.1-0.2-0.2-0.3-0.4-0.4c-1-0.5-1.8-1.6-2.2-2.7c-0.4-1.2-0.3-2.4,0.1-3c0.1-0.2,0.2-0.5,0-0.8c-0.1-0.2-0.4-0.4-0.6-0.4
				c-0.3,0-0.5,0.1-0.7,0.4c-0.7,1.2-0.7,2.8-0.2,4.3c0.5,1.5,1.5,2.9,3,3.6c0.2,0.1,0.4,0.1,0.6,0
				C108.5,86.4,108.7,86.3,108.8,86.1z"/>
			<path class="st0" d="M109.5,62.3c-1.4,0-2.5-0.3-3.4-0.8c-0.9-0.6-1.5-1.4-1.9-2.7c0.1,0,0.3,0,0.4,0c1.2,0,2.1,0.3,2.9,0.8
				C108.4,60.1,109,61,109.5,62.3z"/>
			<path d="M108.8,85.5c0.1,0.2,0.1,0.4,0,0.6c-0.1,0.2-0.2,0.3-0.4,0.4c-0.2,0.1-0.4,0-0.6,0c-1.5-0.7-2.5-2.1-3-3.6
				c-0.5-1.5-0.5-3.1,0.2-4.3c0.1-0.2,0.4-0.4,0.7-0.4c0.3,0,0.5,0.2,0.6,0.4c0.1,0.2,0.1,0.5,0,0.8c-0.4,0.6-0.5,1.9-0.1,3
				c0.4,1.2,1.2,2.2,2.2,2.7C108.6,85.2,108.7,85.3,108.8,85.5z"/>
			<path class="st0" d="M101,81v0.1c0,0.4,0,0.8-0.1,1.1c-0.2,1.3-1,2.7-2.2,3.8c-1.2,1.1-2.8,1.8-5,1.7c-2.1-0.1-3.3-1-4.1-2.1
				c-0.8-1.1-1.2-2.5-1.5-3.5c-0.2-0.8-0.2-2.8,0.5-4c0.4-0.6,0.9-1.1,1.7-1.3c0.3-0.1,0.6-0.1,1-0.1v0c0.7,0,1.5,0.1,2.6,0.5
				c0.1,0,0.2,0.1,0.3,0.1h0h0c0.1,0,0.2,0,0.3,0c3.2-0.8,4.7-0.1,5.6,1C100.8,79,101,80,101,81z M94.3,86.1c0.1-0.2,0.1-0.4,0-0.6
				c-0.1-0.2-0.2-0.3-0.4-0.4c-1-0.5-1.8-1.6-2.2-2.7c-0.4-1.2-0.3-2.4,0.1-3c0.1-0.1,0.1-0.3,0.1-0.4c0-0.1,0-0.3-0.1-0.4
				c-0.1-0.2-0.4-0.4-0.6-0.4c-0.3,0-0.5,0.1-0.7,0.4c-0.7,1.2-0.7,2.8-0.3,4.3c0.5,1.5,1.5,2.9,3,3.6c0.2,0.1,0.4,0.1,0.6,0
				C94.1,86.4,94.2,86.3,94.3,86.1z"/>
			<path d="M94.4,85.5c0.1,0.2,0.1,0.4,0,0.6c-0.1,0.2-0.3,0.3-0.4,0.4c-0.2,0.1-0.4,0.1-0.6,0c-1.5-0.7-2.5-2.2-3-3.6
				c-0.5-1.5-0.5-3.1,0.3-4.3c0.1-0.2,0.4-0.4,0.7-0.4c0.3,0,0.5,0.2,0.6,0.4c0.1,0.1,0.1,0.2,0.1,0.4c0,0.1,0,0.3-0.1,0.4
				c-0.4,0.6-0.5,1.9-0.1,3c0.4,1.2,1.2,2.2,2.2,2.7C94.2,85.2,94.3,85.3,94.4,85.5z"/>
		</g>
	</g>
</g>
</svg>
