<svg version="1.1" viewBox="0.0 0.0 133.44094488188978 133.44094488188978" fill="none" stroke="none" stroke-linecap="square" stroke-miterlimit="10" xmlns:xlink="http://www.w3.org/1999/xlink" xmlns="http://www.w3.org/2000/svg"><clipPath id="p.0"><path d="m0 0l133.44095 0l0 133.44095l-133.44095 0l0 -133.44095z" clip-rule="nonzero"/></clipPath><g clip-path="url(#p.0)"><path fill="#000000" fill-opacity="0.0" d="m0 0l133.44095 0l0 133.44095l-133.44095 0z" fill-rule="evenodd"/><path fill="#000000" d="m1.6141732 23.974182l0 0c0 -11.837395 9.596105 -21.4335 21.433498 -21.4335l86.896774 0l0 0c5.684517 0 11.136215 2.2581658 15.155777 6.2777267c4.019554 4.019561 6.277733 9.471256 6.277733 15.155773l0 85.73142c0 11.837395 -9.596115 21.43351 -21.43351 21.43351l-86.896774 0c-11.837395 0 -21.433498 -9.596115 -21.433498 -21.43351z" fill-rule="evenodd"/><path stroke="#000000" stroke-width="4.0" stroke-linejoin="round" stroke-linecap="butt" d="m1.6141732 23.974182l0 0c0 -11.837395 9.596105 -21.4335 21.433498 -21.4335l86.896774 0l0 0c5.684517 0 11.136215 2.2581658 15.155777 6.2777267c4.019554 4.019561 6.277733 9.471256 6.277733 15.155773l0 85.73142c0 11.837395 -9.596115 21.43351 -21.43351 21.43351l-86.896774 0c-11.837395 0 -21.433498 -9.596115 -21.433498 -21.43351z" fill-rule="evenodd"/><path fill="#ffffff" d="m31.18454 56.673016l8.015625 0q2.375 0 3.546875 0.203125q1.171875 0.203125 2.09375 0.828125q0.921875 0.625 1.53125 1.671875q0.625 1.046875 0.625 2.34375q0 1.40625 -0.765625 2.5937462q-0.75 1.171875 -2.046875 1.75q1.828125 0.53125 2.8125 1.828125q0.984375 1.28125 0.984375 3.015625q0 1.375 -0.640625 2.671875q-0.640625 1.28125 -1.734375 2.0625q-1.09375 0.765625 -2.71875 0.9375q-1.0 0.109375 -4.875 0.140625l-6.828125 0l0 -20.046871zm4.046875 3.34375l0 4.624996l2.65625 0q2.359375 0 2.9375 -0.0625q1.046875 -0.125 1.640625 -0.7187462q0.59375 -0.59375 0.59375 -1.5625q0 -0.9375 -0.515625 -1.515625q-0.515625 -0.578125 -1.53125 -0.703125q-0.59375 -0.0625 -3.453125 -0.0625l-2.328125 0zm0 7.968746l0 5.359375l3.75 0q2.1875 0 2.78125 -0.125q0.890625 -0.171875 1.453125 -0.796875q0.578125 -0.640625 0.578125 -1.703125q0 -0.90625 -0.4375 -1.53125q-0.4375 -0.625 -1.265625 -0.90625q-0.828125 -0.296875 -3.59375 -0.296875l-3.265625 0zm16.142578 8.734375l0 -20.046871l3.84375 0l0 20.046871l-3.84375 0zm10.638672 -10.09375l-3.484375 -0.625q0.59375 -2.1093712 2.03125 -3.1093712q1.4375 -1.015625 4.265625 -1.015625q2.5625 0 3.8125 0.609375q1.265625 0.609375 1.78125 1.5468712q0.515625 0.921875 0.515625 3.4375l-0.046875 4.484375q0 1.90625 0.1875 2.8125q0.1875 0.90625 0.6875 1.953125l-3.796875 0q-0.15625 -0.390625 -0.375 -1.140625q-0.09375 -0.34375 -0.125 -0.453125q-0.984375 0.96875 -2.109375 1.453125q-1.125 0.46875 -2.390625 0.46875q-2.25 0 -3.546875 -1.21875q-1.28125 -1.21875 -1.28125 -3.078125q0 -1.234375 0.578125 -2.1875q0.59375 -0.96875 1.65625 -1.484375q1.0625 -0.515625 3.0625 -0.890625q2.6875 -0.5 3.71875 -0.9375l0 -0.390625q0 -1.109375 -0.546875 -1.578125q-0.546875 -0.46875 -2.0625 -0.46875q-1.015625 0 -1.59375 0.40625q-0.578125 0.390625 -0.9375 1.40625zm5.140625 3.125q-0.734375 0.234375 -2.34375 0.578125q-1.59375 0.34375 -2.078125 0.671875q-0.75 0.53125 -0.75 1.359375q0 0.796875 0.59375 1.390625q0.609375 0.59375 1.53125 0.59375q1.046875 0 1.984375 -0.6875q0.703125 -0.515625 0.921875 -1.265625q0.140625 -0.5 0.140625 -1.875l0 -0.765625zm20.228516 -3.265625l-3.78125 0.6875q-0.203125 -1.125 -0.875 -1.703125q-0.671875 -0.578125 -1.75 -0.578125q-1.4375 0 -2.296875 1.0q-0.859375 0.984375 -0.859375 3.3125q0 2.578125 0.859375 3.65625q0.875 1.0625 2.34375 1.0625q1.09375 0 1.78125 -0.625q0.703125 -0.625 1.0 -2.140625l3.765625 0.640625q-0.578125 2.59375 -2.25 3.921875q-1.671875 1.328125 -4.46875 1.328125q-3.1875 0 -5.09375 -2.0q-1.890625 -2.015625 -1.890625 -5.578125q0 -3.59375 1.90625 -5.593746q1.90625 -2.0 5.140625 -2.0q2.65625 0 4.21875 1.140625q1.5625 1.1406212 2.25 3.4687462zm2.7753906 10.234375l0 -20.046871l3.84375 0l0 10.640621l4.5 -5.109371l4.71875 0l-4.953125 5.296871l5.3125 9.21875l-4.140625 0l-3.65625 -6.515625l-1.78125 1.859375l0 4.65625l-3.84375 0z" fill-rule="nonzero"/></g></svg>