<?xml version="1.0" encoding="utf-8"?>
<!-- Generator: Adobe Illustrator 27.1.1, SVG Export Plug-In . SVG Version: 6.00 Build 0)  -->
<svg version="1.1" id="Layer_1" xmlns="http://www.w3.org/2000/svg" xmlns:xlink="http://www.w3.org/1999/xlink" x="0px" y="0px"
	 viewBox="0 0 133 133" style="enable-background:new 0 0 133 133;" xml:space="preserve">
<style type="text/css">
	.st0{fill:#5B8DA5;}
	.st1{fill:#231F20;}
	.st2{fill:#FFFFFF;}
</style>
<g id="Layer_2_00000159463367602967289450000017608281772301768885_">
	<path class="st0" d="M121,133H12c-6.6,0-12-5.4-12-12V12C0,5.4,5.4,0,12,0h109c6.6,0,12,5.4,12,12v109C133,127.6,127.6,133,121,133
		z"/>
</g>
<g id="Layer_1_00000062188623336902687130000011001726284523936940_">
</g>
<g id="Layer_3">
</g>
<g id="Layer_5">
</g>
<g id="Layer_6">
</g>
<g id="Layer_7">
</g>
<g id="Layer_8">
</g>
<g id="Layer_9">
</g>
<g id="Layer_10">
</g>
<g>
	<g id="XMLID_00000115481927371269714480000002746332310196226211_">
		<g>
			<path class="st1" d="M101.6,49.8c0.7-0.6,1.4-1.1,2.2-1.5c-0.6-0.7-1.1-1.4-1.5-2.2c-0.6,0.6-1.4,1.1-2.2,1.5
				C100.6,48.3,101.2,49,101.6,49.8z M107.8,47.5c0.5,0.4,0.7,1,0.6,1.6c-0.1,0.6-0.5,1.1-1.1,1.3c-2,0.5-3.8,1.8-5,3.5
				c-0.3,0.4-0.8,0.6-1.3,0.6c-0.1,0-0.2,0-0.3,0c-0.6-0.1-1.1-0.5-1.3-1.1c-0.5-2-1.8-3.8-3.5-5c-0.5-0.4-0.7-1-0.6-1.6
				c0.1-0.6,0.5-1.1,1.1-1.3c2-0.5,3.8-1.8,5-3.5c0.4-0.5,1-0.7,1.6-0.6c0.6,0.1,1.1,0.5,1.3,1.1C104.8,44.5,106.1,46.3,107.8,47.5z
				"/>
			<path class="st2" d="M102.2,46.1c0.4,0.8,0.9,1.5,1.5,2.2c-0.8,0.4-1.5,0.9-2.2,1.5c-0.4-0.8-0.9-1.5-1.5-2.2
				C100.8,47.2,101.6,46.7,102.2,46.1z"/>
			<polygon class="st2" points="98.6,84.1 74.5,90 69.7,83.3 92.9,78.5 			"/>
			<path class="st2" d="M95.4,23.4c1.5,2.1,1.6,4.8,0.4,7c-1.2,2.2-3.6,3.6-6.2,3.4l-1.1,3.4l-3.2-1l1.5-4.8c0.1-0.4,0.4-0.8,0.8-1
				s0.8-0.2,1.3-0.1c1.3,0.4,2.7,0,3.6-1.1c0.9-1,1-2.5,0.4-3.7c-0.6-1.2-1.9-1.9-3.3-1.8c-1.3,0.1-2.5,1-2.9,2.3l-3.2-1
				c0.8-2.4,2.8-4.2,5.3-4.6C91.5,20.2,94,21.3,95.4,23.4z"/>
			<path class="st2" d="M94.7,50l1.1,3.1c-3.4,1.2-6.6,2.8-9.6,4.8c-3,2-5.8,4.5-8.2,7.1c-2.4,2.7-4.5,5.7-6.2,8.9l-2.9-1.6
				c3.7-6.9,9-12.9,15.6-17.3C87.5,53,91,51.3,94.7,50z"/>
			<path class="st2" d="M87.5,39.2c0.2,0.4,0.2,0.9,0.1,1.3c-0.1,0.4-0.4,0.8-0.8,1c-0.4,0.2-0.8,0.2-1.3,0.1
				c-0.4-0.1-0.8-0.4-1-0.8c-0.2-0.4-0.2-0.9-0.1-1.3c0.1-0.4,0.4-0.8,0.8-1c0.4-0.2,0.8-0.2,1.3-0.1C86.9,38.5,87.3,38.8,87.5,39.2
				z"/>
			<path class="st2" d="M75.2,41.9c0,4-2.7,7.6-6.7,8.5v7.9h-3.3v-9.3c0-0.4,0.2-0.9,0.5-1.2c0.3-0.3,0.7-0.5,1.2-0.5
				c2.9-0.1,5.1-2.5,5-5.3c0.1-1.4-0.4-2.7-1.3-3.7c-0.9-1-2.2-1.6-3.6-1.6c-1.4,0-2.7,0.5-3.7,1.5s-1.5,2.3-1.5,3.6h0l-3.3-0.2
				c0.1-4.5,3.8-8.2,8.3-8.3C71.5,33.3,75.3,37.2,75.2,41.9z"/>
			<path class="st2" d="M72.5,92.8c0.4,0.5,1.1,0.8,1.8,0.7l19-4.7v18.3l-24.7,7.3v-27L72.5,92.8z"/>
			<path class="st2" d="M66.8,59.9c0.9,0,1.7,0.9,1.7,1.7c0,0.9-0.7,1.7-1.7,1.7c-0.9,0-1.7-0.9-1.7-1.7
				C65.2,60.6,65.9,59.9,66.8,59.9z"/>
			<path class="st2" d="M65.1,72.7l-3.1,1.2c-1.1-3.1-7.4-18.5-20.4-20.6c-2-0.3-4.1-0.3-6.1,0l-0.5-3.3c2.4-0.4,4.8-0.4,7.2,0v0
				C56.9,52.4,63.8,69.3,65.1,72.7z"/>
			<polygon class="st2" points="64,83.3 59.2,90 35.1,84.1 40.8,78.5 			"/>
			<path d="M74.2,93.5c-0.7,0.2-1.3-0.1-1.8-0.7l-4-5.5v27l24.7-7.3V88.8L74.2,93.5z M59.4,93.5l-19-4.7v18.3l24.7,7.3v-27l-4,5.5
				C60.8,93.4,60.1,93.6,59.4,93.5L59.4,93.5z M103.1,83.8c0.4,0.4,0.6,1.1,0.4,1.6c-0.2,0.6-0.6,1-1.2,1.2L96.5,88v20.4
				c0,0.7-0.5,1.4-1.2,1.6l-28,8.2c-0.1,0-0.3,0.1-0.5,0.1c-0.2,0-0.3,0-0.5-0.1l-28-8.2c-0.7-0.2-1.2-0.9-1.2-1.6V88l-5.7-1.4
				c-0.6-0.1-1.1-0.6-1.2-1.2c-0.1-0.6,0-1.2,0.4-1.6l8.4-8.2c0.2-0.2,0.5-0.4,0.8-0.4l16.8-3.5l0.7,3.3l-8.9,1.8l18.4,3.8l18.4-3.8
				l-8.9-1.8l0.7-3.3l16.8,3.5v0c0.3,0.1,0.6,0.2,0.8,0.4L103.1,83.8z M74.5,90l24-5.9l-5.6-5.5l-23.2,4.8L74.5,90z M59.2,90
				l4.8-6.6l-23.2-4.8l-5.6,5.5L59.2,90z"/>
			<path class="st2" d="M59.4,93.5c0.7,0.1,1.4-0.1,1.7-0.7l4-5.5v27l-24.7-7.3V88.8L59.4,93.5L59.4,93.5z"/>
			<path class="st2" d="M49.7,19.2c1.1,2.9,0.1,6.1-2.4,7.8l1.2,3.3l-3.1,1.2l-1.8-4.7c-0.3-0.9,0.1-1.8,1-2.1
				c1.3-0.5,2.1-1.7,2.2-3c0-1.3-0.7-2.6-2-3.2c-1.2-0.6-2.7-0.3-3.7,0.6c-1,0.9-1.3,2.4-0.8,3.6l-3.1,1.2c-1.3-3.5,0.5-7.3,3.9-8.6
				C44.6,14,48.4,15.7,49.7,19.2z"/>
			<path class="st2" d="M48.8,32.5c0.4,0.2,0.7,0.5,0.9,0.9c0.2,0.4,0.1,0.9,0,1.3c-0.2,0.4-0.5,0.7-0.9,0.9c-0.4,0.2-0.9,0.1-1.3,0
				c-0.4-0.2-0.7-0.5-0.9-0.9c-0.3-0.9,0.1-1.8,1-2.2C48,32.3,48.4,32.3,48.8,32.5z"/>
			<path class="st1" d="M34.4,55.1c0.4,0.4,0.6,1.1,0.4,1.7c-0.2,0.6-0.7,1-1.3,1.2c-2.1,0.3-4,1.3-5.4,2.9
				c-0.3,0.3-0.7,0.5-1.2,0.5c-0.2,0-0.3,0-0.5-0.1c-0.6-0.2-1-0.7-1.2-1.3c-0.3-2.1-1.3-4-2.9-5.4c-0.4-0.4-0.6-1.1-0.4-1.7
				c0.2-0.6,0.7-1,1.3-1.2c2.1-0.3,4-1.3,5.4-2.9c0.4-0.4,1.1-0.6,1.7-0.4c0.6,0.2,1,0.7,1.2,1.3C31.8,51.8,32.8,53.7,34.4,55.1z
				 M30.3,55.4c-0.5-0.7-1-1.5-1.3-2.3c-0.7,0.5-1.5,0.9-2.3,1.3c0.5,0.7,1,1.5,1.3,2.3C28.7,56.2,29.4,55.7,30.3,55.4z"/>
			<path class="st2" d="M29,53.1c0.3,0.8,0.8,1.6,1.3,2.3c-0.8,0.3-1.6,0.8-2.3,1.3c-0.3-0.8-0.7-1.6-1.3-2.3
				C27.5,54,28.3,53.6,29,53.1z"/>
		</g>
		<g>
		</g>
	</g>
</g>
</svg>
