<?xml version="1.0" encoding="utf-8"?>
<!-- Generator: Adobe Illustrator 26.3.1, SVG Export Plug-In . SVG Version: 6.00 Build 0)  -->
<svg version="1.1" id="Layer_1" xmlns="http://www.w3.org/2000/svg" xmlns:xlink="http://www.w3.org/1999/xlink" x="0px" y="0px"
	 viewBox="0 0 133 70" style="enable-background:new 0 0 133 70;" xml:space="preserve">
<style type="text/css">
	.st0{fill:#FFFFFF;}
	.st1{fill:none;stroke:#000000;stroke-miterlimit:10;}
	.st2{fill:#231F20;}
</style>
<g>
	<g id="XMLID_00000171680851213780649640000007749640630514851203_">
		<g>
			<path d="M83.3,23.2l0.2,1.5h-1.9c-0.9,0-1.6-0.6-1.7-1.5l-0.2-1.5h1.9C82.4,21.7,83.1,22.3,83.3,23.2z"/>
			<path class="st0" d="M5,54.6H4.1c-0.2,0-0.3-0.1-0.3-0.2s-0.1-0.2,0-0.4l5.3-8.3c0.1-0.1,0.2-0.2,0.3-0.2h6.9
				c2.4,0,4.5-1.5,5.3-3.7l3.7-10.4h-1.4c-2.1,0-3.9-1.6-4.3-3.8h49.3l2.5-3.7v-5.3h-6.2c-1.3,0-2.6-0.5-3.6-1.5l-5.7-5.7
				c-0.2-0.2-0.2-0.5-0.1-0.7c0.2-0.2,0.4-0.3,0.7-0.2l10.2,4.1L65.1,5c0.4,0,1.1,0.3,1.3,0.7l8.3,12h4.6c2.3,0,4,1,5.3,2.9l3.8,5.5
				c0.6,0.9,0.7,2,0.2,2.9s-1.4,1.5-2.5,1.5h-4.5l-0.9,4c-0.8,4.2-4.2,7.4-8.4,8l-2.2,0.4l2.9,2.7h10.2c1,0,1.9,0.5,2.5,1.3l2.2,3.3
				c0.3,0.5,0.3,1.1,0.1,1.6c-0.3,0.5-0.8,0.8-1.3,0.8s-0.9-0.2-1.2-0.6L83,48.6H69.1c-0.6,0-1.2-0.3-1.5-0.8l-3.7-5.2H39.4
				l-7.6,4.9c-1.1,0.7-2.4,1.1-3.7,1.1h-17l-2.8,4.2C7.5,53.9,6.3,54.6,5,54.6z M83.5,24.7l-0.2-1.5c-0.1-0.8-0.9-1.5-1.7-1.5h-1.9
				l0.2,1.5c0.1,0.8,0.9,1.5,1.7,1.5H83.5z"/>
			<path d="M21.6,41.9c-0.8,2.2-2.9,3.7-5.3,3.7H9.4c-0.1,0-0.2,0.1-0.3,0.2l-5.3,8.3c-0.1,0.2-0.1,0.3,0,0.4c0,0.1,0.1,0.2,0.3,0.2
				H5c1.3,0,2.6-0.7,3.3-1.8l2.8-4.2H28c1.3,0,2.6-0.4,3.7-1.1l7.6-4.9h24.6l3.7,5.2c0.4,0.5,0.9,0.8,1.5,0.8h13.8l2.5,3.4
				c0.3,0.4,0.7,0.6,1.2,0.6c0.6,0,1.1-0.3,1.3-0.8c0.3-0.5,0.2-1.1-0.1-1.6L85.6,47c-0.6-0.8-1.5-1.3-2.5-1.3H73l-2.9-2.8l2.1-0.3
				c4.3-0.5,7.7-3.7,8.4-8l0.9-4H86c1.1,0,2-0.6,2.5-1.5s0.4-2.1-0.2-2.9l-3.8-5.5c-1.3-2-3-2.9-5.3-2.9h-4.6l-8.3-12
				c-0.2-0.4-0.9-0.7-1.3-0.7l1.6,9.6l-10.2-4.1c-0.3-0.1-0.5,0-0.7,0.2s-0.1,0.5,0.1,0.7l5.8,5.8c0.9,1,2.2,1.5,3.6,1.5h6.2v5.3
				l-2.5,3.7H19.7c0.4,2.2,2.1,3.8,4.3,3.8h1.4L21.6,41.9z M16.3,43.6c1.5,0,2.9-1,3.4-2.4l2.8-7.9c-2.8-0.7-5-3.4-5-6.6v-1h50.4
				l1.5-2.3v-2.7h-4.2c-1.9,0-3.7-0.7-5-2.1l-5.8-5.8c-0.9-0.9-1-2.3-0.3-3.3s2-1.4,3.1-0.9l7,2.8l-1-6.1c-0.1-0.6,0.1-1.2,0.4-1.6
				C64,3.3,64.5,3,65.1,3c1.1,0,2.4,0.7,3,1.6l7.8,11.1h3.5c2.9,0,5.3,1.3,6.9,3.8L90,25c1,1.5,1.1,3.4,0.3,5
				c-0.9,1.6-2.5,2.6-4.3,2.6h-2.9L82.5,35c-0.7,3.9-3.2,7-6.7,8.6h7.3c1.7,0,3.2,0.8,4.2,2.2l2.2,3.3c0.7,1.1,0.8,2.5,0.2,3.6
				c-0.6,1.1-1.8,1.9-3.1,1.9c-1.1,0-2.2-0.5-2.8-1.4l-1.9-2.6H69.1c-1.2,0-2.4-0.6-3.2-1.6l-3-4.4H40l-7.2,4.6
				c-1.4,0.9-3.1,1.4-4.8,1.4H12.2l-2.3,3.3c-1.1,1.7-3,2.7-5,2.7H4c-0.9,0-1.6-0.5-2.1-1.2S1.5,53.7,2,53l5.3-8.3
				c0.4-0.7,1.2-1.1,2-1.1C9.3,43.6,16.3,43.6,16.3,43.6z"/>
		</g>
		<g>
			<path class="st1" d="M5,56.6H4.1c-0.9,0-1.6-0.5-2.1-1.2S1.6,53.7,2.1,53l5.3-8.3c0.4-0.7,1.2-1.1,2-1.1h6.9c1.5,0,2.9-1,3.4-2.4
				l2.8-7.9c-2.8-0.7-5-3.4-5-6.6v-1h50.4l1.5-2.3v-2.7h-4.2c-1.9,0-3.7-0.7-5-2.1l-5.8-5.8c-0.9-0.9-1-2.3-0.3-3.3s2-1.4,3.1-0.9
				l7,2.8l-1-6.1c-0.1-0.6,0.1-1.2,0.4-1.6C64,3.3,64.5,3,65.1,3c1.1,0,2.4,0.7,3,1.6l7.8,11.1h3.5c2.9,0,5.3,1.3,6.9,3.8L90,25
				c1,1.5,1.1,3.4,0.3,5c-0.9,1.6-2.5,2.6-4.3,2.6h-2.9L82.5,35c-0.7,3.9-3.2,7-6.7,8.6h7.3c1.7,0,3.2,0.8,4.2,2.2l2.2,3.3
				c0.7,1.1,0.8,2.5,0.2,3.6c-0.6,1.1-1.8,1.9-3.1,1.9c-1.1,0-2.2-0.5-2.8-1.4l-1.9-2.6H69.1c-1.2,0-2.4-0.6-3.2-1.6l-3-4.4H40
				l-7.2,4.6c-1.4,0.9-3.1,1.4-4.8,1.4H12.2l-2.3,3.3C8.8,55.6,7,56.6,5,56.6z"/>
			<path class="st1" d="M9.4,45.6c-0.1,0-0.2,0.1-0.3,0.2l-5.3,8.3c-0.1,0.2-0.1,0.3,0,0.4c0,0.1,0.1,0.2,0.3,0.2H5
				c1.3,0,2.6-0.7,3.3-1.8l2.8-4.2H28c1.3,0,2.6-0.4,3.7-1.1l7.6-4.9h24.6l3.7,5.2c0.4,0.5,0.9,0.8,1.5,0.8h13.8l2.5,3.4
				c0.3,0.4,0.7,0.6,1.2,0.6c0.6,0,1.1-0.3,1.3-0.8c0.3-0.5,0.2-1.1-0.1-1.6L85.6,47c-0.6-0.8-1.5-1.3-2.5-1.3H73l-2.9-2.8l2.1-0.3
				c4.3-0.5,7.7-3.7,8.4-8l0.9-4H86c1.1,0,2-0.6,2.5-1.5s0.4-2.1-0.2-2.9l-3.8-5.5c-1.3-2-3-2.9-5.3-2.9h-4.6l-8.3-12
				c-0.2-0.4-0.9-0.7-1.3-0.7l1.6,9.6l-10.2-4.1c-0.3-0.1-0.5,0-0.7,0.2s-0.1,0.5,0.1,0.7l5.8,5.8c0.9,1,2.2,1.5,3.6,1.5h6.2v5.3
				l-2.5,3.7H19.7c0.4,2.2,2.1,3.8,4.3,3.8h1.4l-3.8,10.3c-0.8,2.2-2.9,3.7-5.3,3.7H9.4z"/>
			<path class="st1" d="M83.3,23.2l0.2,1.5h-1.9c-0.9,0-1.6-0.6-1.7-1.5l-0.2-1.5h1.9C82.4,21.7,83.1,22.3,83.3,23.2z"/>
		</g>
	</g>
</g>
<g>
	<g id="XMLID_00000056406412294032893760000015209615809114644651_">
		<g>
			<path d="M119.4,32.6l0.2,1.5h-1.9c-0.9,0-1.6-0.6-1.7-1.5l-0.2-1.5h1.9C118.5,31.1,119.2,31.7,119.4,32.6z"/>
			<path class="st0" d="M39.9,63.4l5.3-8.3c0.1-0.1,0.2-0.2,0.3-0.2h6.9c2.4,0,4.5-1.5,5.3-3.7l3.7-10.4H60c-2.1,0-3.9-1.6-4.3-3.8
				H105l2.5-3.7V28h-6.2c-1.3,0-2.6-0.5-3.6-1.5L92,20.8c-0.2-0.2-0.2-0.5-0.1-0.7c0.2-0.2,0.4-0.3,0.7-0.2l10.2,4.1l-1.5-9.6
				c0.4,0,1.1,0.3,1.3,0.7l8.4,12h4.6c2.3,0,4,1,5.3,2.9l3.8,5.5c0.6,0.9,0.7,2,0.2,2.9c-0.5,1-1.4,1.5-2.5,1.5h-4.5l-0.9,4
				c-0.8,4.2-4.2,7.4-8.4,8l-2.1,0.3l2.9,2.7h10.2c1,0,1.9,0.5,2.5,1.3l2.2,3.3c0.3,0.5,0.3,1.1,0.1,1.6c-0.3,0.5-0.8,0.8-1.3,0.8
				s-0.9-0.2-1.2-0.6l-2.5-3.4h-13.7c-0.6,0-1.2-0.3-1.5-0.8l-3.7-5.2h-25l-7.7,4.9c-1.1,0.7-2.4,1.1-3.7,1.1H47.2l-2.8,4.2
				c-0.7,1.1-2,1.8-3.3,1.8h-0.9c-0.2,0-0.3-0.1-0.3-0.2C39.9,63.7,39.8,63.6,39.9,63.4z M119.6,34.1l-0.2-1.5
				c-0.1-0.8-0.9-1.5-1.7-1.5h-1.9l0.2,1.5c0.1,0.8,0.9,1.5,1.7,1.5H119.6z"/>
			<path d="M38.2,64.8c-0.4-0.8-0.4-1.7,0.1-2.4l5.3-8.3c0.4-0.7,1.2-1.1,2-1.1h6.9c1.5,0,2.9-1,3.4-2.4l2.8-7.9
				c-2.8-0.7-5-3.4-5-6.6v-1H104l1.5-2.3v-2.7h-4.2c-1.9,0-3.7-0.7-5-2.1l-5.8-5.8c-0.9-0.9-1-2.3-0.3-3.3s2-1.4,3.1-0.9l7,2.8
				l-1-6.1c-0.1-0.6,0.1-1.2,0.4-1.6c0.4-0.4,0.9-0.7,1.5-0.7c1.1,0,2.4,0.7,3,1.6l7.7,11.2h3.5c2.9,0,5.3,1.3,6.9,3.8l3.8,5.5
				c1,1.5,1.1,3.4,0.3,5c-0.9,1.6-2.5,2.6-4.3,2.6h-2.9l-0.6,2.4c-0.7,3.8-3.2,7-6.7,8.6h7.3c1.7,0,3.2,0.8,4.2,2.2l2.2,3.3
				c0.7,1.1,0.8,2.5,0.2,3.6c-0.6,1.1-1.8,1.9-3.1,1.9c-1.1,0-2.2-0.5-2.8-1.4l-1.9-2.6h-12.7c-1.2,0-2.4-0.6-3.2-1.6L99,54.1H76.1
				l-7.2,4.6c-1.4,0.9-3.1,1.4-4.8,1.4H48.3L46,63.3C44.9,65,43,66,41,66h-0.9C39.4,66,38.6,65.5,38.2,64.8z M45.2,55.2l-5.3,8.3
				c-0.1,0.2-0.1,0.3,0,0.4c0,0.1,0.1,0.2,0.3,0.2h0.9c1.3,0,2.6-0.7,3.3-1.8l2.8-4.2h16.9c1.3,0,2.6-0.4,3.7-1.1l7.7-4.9H100
				l3.7,5.2c0.4,0.5,0.9,0.8,1.5,0.8H119l2.5,3.4c0.3,0.4,0.8,0.6,1.2,0.6c0.6,0,1.1-0.3,1.3-0.8c0.3-0.5,0.2-1.1-0.1-1.6l-2.2-3.3
				c-0.6-0.8-1.5-1.3-2.5-1.3H109l-2.9-2.7l2.1-0.3c4.3-0.5,7.7-3.7,8.4-8l0.9-4h4.5c1.1,0,2-0.6,2.5-1.5s0.4-2.1-0.2-2.9l-3.8-5.5
				c-1.3-2-3-2.9-5.3-2.9h-4.6l-8.4-12c-0.2-0.4-0.9-0.7-1.3-0.7l1.5,9.6l-10.2-4.1c-0.2-0.1-0.5,0-0.7,0.2s-0.1,0.4,0.1,0.6
				l5.8,5.8c0.9,1,2.2,1.5,3.6,1.5h6.2v5.3l-2.5,3.7H55.8c0.4,2.2,2.1,3.8,4.3,3.8h1.4l-3.8,10.2c-0.8,2.2-2.9,3.7-5.3,3.7h-6.9
				C45.4,55,45.2,55.1,45.2,55.2z"/>
		</g>
		<g>
			<path class="st1" d="M41.1,66h-0.9c-0.9,0-1.6-0.5-2.1-1.2c-0.4-0.8-0.4-1.7,0.1-2.4l5.3-8.3c0.4-0.7,1.2-1.1,2-1.1h6.9
				c1.5,0,2.9-1,3.4-2.4l2.8-7.9c-2.8-0.7-5-3.4-5-6.6v-1H104l1.5-2.3v-2.7h-4.2c-1.9,0-3.7-0.7-5-2.1l-5.8-5.8
				c-0.9-0.9-1-2.3-0.3-3.3s2-1.4,3.1-0.9l7,2.8l-1-6.1c-0.1-0.6,0.1-1.2,0.4-1.6c0.4-0.4,0.9-0.7,1.5-0.7c1.1,0,2.4,0.7,3,1.6
				l7.7,11.2h3.5c2.9,0,5.3,1.3,6.9,3.8l3.8,5.5c1,1.5,1.1,3.4,0.3,5c-0.9,1.6-2.5,2.6-4.3,2.6h-2.9l-0.6,2.4
				c-0.7,3.8-3.2,7-6.7,8.6h7.3c1.7,0,3.2,0.8,4.2,2.2l2.2,3.3c0.7,1.1,0.8,2.5,0.2,3.6c-0.6,1.1-1.8,1.9-3.1,1.9
				c-1.1,0-2.2-0.5-2.8-1.4l-1.9-2.6h-12.7c-1.2,0-2.4-0.6-3.2-1.6L99,54.1H76.1l-7.2,4.6c-1.4,0.9-3.1,1.4-4.8,1.4H48.3L46,63.3
				C44.9,65,43.1,66,41.1,66z"/>
			<path class="st1" d="M45.5,55c-0.1,0-0.2,0.1-0.3,0.2l-5.3,8.3c-0.1,0.2-0.1,0.3,0,0.4c0,0.1,0.1,0.2,0.3,0.2h0.9
				c1.3,0,2.6-0.7,3.3-1.8l2.8-4.2h16.9c1.3,0,2.6-0.4,3.7-1.1l7.7-4.9H100l3.7,5.2c0.4,0.5,0.9,0.8,1.5,0.8H119l2.5,3.4
				c0.3,0.4,0.8,0.6,1.2,0.6c0.6,0,1.1-0.3,1.3-0.8c0.3-0.5,0.2-1.1-0.1-1.6l-2.2-3.3c-0.6-0.8-1.5-1.3-2.5-1.3H109l-2.9-2.7
				l2.1-0.3c4.3-0.5,7.7-3.7,8.4-8l0.9-4h4.5c1.1,0,2-0.6,2.5-1.5s0.4-2.1-0.2-2.9l-3.8-5.5c-1.3-2-3-2.9-5.3-2.9h-4.6l-8.4-12
				c-0.2-0.4-0.9-0.7-1.3-0.7l1.5,9.6l-10.2-4.1c-0.2-0.1-0.5,0-0.7,0.2s-0.1,0.4,0.1,0.6l5.8,5.8c0.9,1,2.2,1.5,3.6,1.5h6.2v5.3
				l-2.5,3.7H55.8c0.4,2.2,2.1,3.8,4.3,3.8h1.4l-3.8,10.2c-0.8,2.2-2.9,3.7-5.3,3.7L45.5,55L45.5,55z"/>
			<path class="st1" d="M119.4,32.6l0.2,1.5h-1.9c-0.9,0-1.6-0.6-1.7-1.5l-0.2-1.5h1.9C118.5,31.1,119.2,31.7,119.4,32.6z"/>
		</g>
	</g>
</g>
</svg>
