<?xml version="1.0" encoding="utf-8"?>
<!-- Generator: Adobe Illustrator 26.3.1, SVG Export Plug-In . SVG Version: 6.00 Build 0)  -->
<svg version="1.1" id="Layer_1" xmlns="http://www.w3.org/2000/svg" xmlns:xlink="http://www.w3.org/1999/xlink" x="0px" y="0px"
	 viewBox="0 0 133 133" style="enable-background:new 0 0 133 133;" xml:space="preserve">
<style type="text/css">
	.st0{fill:#896FC9;}
	.st1{fill:#FFFFFF;}
</style>
<g id="Layer_1_00000128485207937604550500000013752489972070939821_">
	<g id="Layer_1_00000074417547667883309330000004734507109457939379_">
		<g id="Layer_2_00000034774410882367540010000000349553493443249837_">
			<path class="st0" d="M121,133H12c-6.6,0-12-5.4-12-12V12C0,5.4,5.4,0,12,0h109c6.6,0,12,5.4,12,12v109
				C133,127.6,127.6,133,121,133z"/>
			<path class="st0" d="M121,133H12c-6.6,0-12-5.4-12-12V12C0,5.4,5.4,0,12,0h109c6.6,0,12,5.4,12,12v109
				C133,127.6,127.6,133,121,133z"/>
		</g>
	</g>
</g>
<g id="Layer_2_00000152953984002400210870000014593610661643972531_">
</g>
<g id="Layer_3">
</g>
<g id="Layer_4">
</g>
<g id="Layer_5">
</g>
<g id="Layer_6">
	<g>
		<g id="XMLID_00000168086789158433584270000013925999398864016550_">
			<g>
				<path class="st1" d="M58,85.8c2.9,5.3,8.7,9.9,8.8,10c0.4,0.3,0.9,0.5,1.4,0.5s0.9-0.2,1.3-0.5c0.8-0.6,1-1.8,0.6-2.7
					c-0.3-0.4-0.3-0.4-1.2-1.2c-12.4-10.8-9.5-19.6-13.8-18.4C51.3,74.6,55.6,81.4,58,85.8z M80.2,110.7
					c-6.3-4.9-22.3-11.9-28.4-33.5c-0.4-1.3-1.7-4.4-1.9-4.9c4.4-2.2,5.5-2.8,8.7-2.3c2,2.7,10.3,13.8,13.5,14.9
					c12.3,23.8,11.6,20.3,18.1,25.9c-0.5,0.5-2.6,2-2.8,2.1l0,0c-2.1-1.1-4.4-1.7-6.7-1.9L80.2,110.7z M70.9,99.8
					c0,1.2,1,2.1,2.2,2.1s2.1-1,2.1-2.1s-1-2.1-2.1-2.1C71.8,97.6,70.9,98.6,70.9,99.8z"/>
				<path class="st1" d="M86.5,58.5c12,0.6,14.5,4.8,15.8,17c-10.4-13.5-26.6-10.6-29.5-1c-3.2-11-0.2-12.2,7-15.3
					C82.2,58.3,83.1,58.3,86.5,58.5z"/>
				<path class="st1" d="M86.6,41.2c-3,4-5.3,8.5-6.5,13.4c-3.3,1.1-6.4,2.6-9.2,4.6c0-1.6-0.1-2.7,0.1-5.3
					C72.1,53,73.8,43.4,86.6,41.2z"/>
				<path class="st1" d="M45.7,54.3c-0.2,1.5-0.4,2.9-0.4,4.4c-0.4,0.1-0.7,0.3-1,0.4c-2.7-2.9-8.6-4.3-11.5-4.4
					C39.7,47.6,43.1,49.8,45.7,54.3z"/>
				<path class="st1" d="M47.8,62.4c2.7-0.2,4.9,1.2,7.3,3.3c-12.2,2.1-18,13.8-19.8,26.1c-0.4-1.9-0.7-3.8-1-5.7
					C33,73.6,40,64.1,47.8,62.4z"/>
				<path class="st1" d="M67.4,62.6c-0.2,9.7,2.4,11.7,1.7,13.1c-0.1,0.2-0.3,0.4-0.5,0.5c-3.1,1.8-7.8-17-19-18
					c0.2-2.8,0.6-5.7,1.1-8.5C53.8,27,66,10.8,69,24.9c1.2,5.6-0.2,9.9-1.3,26.2c0,0.5-0.1,1.4-0.1,1.9c0,0.8-0.1,1.5-0.1,2.3
					C67.5,57.5,67.5,58.7,67.4,62.6z"/>
				<path d="M105.1,65.9c1.4,3.6,2.2,17.2,2.2,17.4c-0.3,1.1-1.5,1.8-2.7,1.5c-1.8-0.5-7.8-12.7-16.9-14.1c-1.8-0.2-3.7-0.2-5.5,0.2
					c-7.5,3.3-5.4,8.1-4.9,10.9c1.2,1.9-0.1,1.6,3.1,9c3.5,7.7,4.1,6.7,3.9,8c5.2,8.2,9.9,8.6,10.4,11.3c0.6,3.2-5.6,6.9-6.5,7.2
					c-1.4,0.5-2.9-0.5-4-1c-5.5-1.9-2.8,0.7-9.9-4.1c-24.7-16.4-24.4-28.3-28-37c-11,13.1-4.9,29.4-8.9,30.5
					c-4.6,1.3-10-20.8-6.2-32.5c1.4-5,4.5-9.2,8.9-11.9c-6.9-4.6-15.9,0.5-14.5-4.7c1-3.4,12.5-15.5,20.7-8.2
					c1.6-11,7-31.9,18.3-32.7c12.1-0.9,8.7,17.6,7,28.9c5.6-6.5,16.4-8.9,20.1-7.1c5.6,2.6-3.3,4-7.3,16.8
					C97.8,54.4,102.1,58.2,105.1,65.9z M102.3,75.4c-1.3-12.2-3.8-16.4-15.8-17c-3.4-0.2-4.3-0.2-6.7,0.8c-7.2,3.1-10.2,4.2-7,15.3
					C75.7,64.9,91.9,62,102.3,75.4z M87.3,113c0.1-0.1,2.2-1.6,2.8-2.1c-6.5-5.6-5.8-2.1-18.1-25.9c-3.2-1.2-11.5-12.3-13.5-15
					c-3.2-0.5-4.2,0.1-8.7,2.3c0.2,0.5,1.6,3.6,1.9,4.9c6.1,21.6,22.1,28.6,28.4,33.5l0.5,0.3C83,111.3,85.2,111.9,87.3,113
					L87.3,113z M80.1,54.6c1.2-4.9,3.5-9.4,6.5-13.4C73.8,43.4,72.1,53,71,53.9c-0.1,2.7-0.1,3.7-0.1,5.3
					C73.7,57.2,76.8,55.7,80.1,54.6z M69.1,75.7c0.8-1.3-1.9-3.3-1.7-13.1c0.1-3.9,0-5.1,0.1-7.2c0-0.8,0.1-1.5,0.1-2.3
					c0-0.5,0.1-1.4,0.1-1.9c1-16.3,2.5-20.7,1.3-26.2c-3-14.2-15.2,2-18.4,24.7c-0.5,2.8-0.9,5.7-1.1,8.5c11.3,1,15.9,19.8,19,18
					C68.8,76.1,69,75.9,69.1,75.7z M55.1,65.7c-2.4-2.1-4.6-3.5-7.3-3.3C40,64.1,33,73.6,34.4,86.1c0.3,1.9,0.6,3.8,1,5.7
					C37.1,79.6,42.9,67.9,55.1,65.7z M45.3,58.7c0-1.5,0.1-2.9,0.4-4.4c-2.6-4.5-6-6.7-13,0.3c2.9,0.2,8.8,1.5,11.5,4.4
					C44.6,58.9,44.9,58.8,45.3,58.7z"/>
				<path d="M73,97.6c1.2,0,2.1,1,2.1,2.1s-1,2.1-2.1,2.1c-1.2,0-2.2-1-2.2-2.1S71.8,97.6,73,97.6z"/>
				<path d="M70.1,93.2c0.5,0.9,0.2,2-0.6,2.7c-0.4,0.3-0.9,0.5-1.3,0.5c-0.5,0-1-0.2-1.4-0.5c-0.1-0.1-5.9-4.7-8.8-10
					c-2.4-4.4-6.7-11.2-2.9-12.2c4.4-1.2,1.4,7.6,13.8,18.4C69.8,92.8,69.8,92.8,70.1,93.2z"/>
			</g>
		</g>
	</g>
</g>
<g id="Layer_7">
</g>
<g id="Layer_8">
</g>
<g id="Layer_9">
</g>
</svg>
