<?xml version="1.0" encoding="utf-8"?>
<!-- Generator: Adobe Illustrator 26.3.1, SVG Export Plug-In . SVG Version: 6.00 Build 0)  -->
<svg version="1.1" id="Layer_1" xmlns="http://www.w3.org/2000/svg" xmlns:xlink="http://www.w3.org/1999/xlink" x="0px" y="0px"
	 viewBox="0 0 133 133" style="enable-background:new 0 0 133 133;" xml:space="preserve">
<style type="text/css">
	.st0{fill:#7DBFDB;}
	.st1{fill:#FFFFFF;}
</style>
<path class="st0" d="M121,133H12c-6.6,0-12-5.4-12-12V12C0,5.4,5.4,0,12,0h109c6.6,0,12,5.4,12,12v109C133,127.6,127.6,133,121,133z
	"/>
<g>
	<g id="XMLID_00000143607751360475716110000012542615186460330396_">
		<g>
			<path class="st1" d="M104.1,41.3c0.4,0.8,0.9,1.5,1.6,2.2c-0.8,0.4-1.5,0.9-2.2,1.6c-0.4-0.8-0.9-1.5-1.6-2.2
				C102.7,42.4,103.5,41.9,104.1,41.3z"/>
			<path class="st1" d="M30.1,48.3c0.3,0.8,0.8,1.6,1.3,2.4C30.5,51,29.7,51.5,29,52c-0.3-0.8-0.8-1.6-1.3-2.4
				C28.6,49.3,29.4,48.9,30.1,48.3z"/>
			<polygon class="st1" points="100.5,79.7 76.2,85.6 71.3,78.9 94.8,74.1 			"/>
			<path class="st1" d="M95,84.5V103l-25,7.4V83l4,5.5c0.3,0.4,0.8,0.7,1.4,0.7c0.1,0,0.3,0,0.4,0L95,84.5z"/>
			<path class="st1" d="M66.7,83v27.4l-25-7.4V84.5l19.2,4.7v0c0.7,0.2,1.4-0.1,1.8-0.7L66.7,83z"/>
			<polygon class="st1" points="65.5,78.9 60.6,85.6 36.3,79.7 42,74.1 			"/>
			<path d="M109.8,42.7c0.5,0.4,0.7,1,0.6,1.6c-0.1,0.6-0.5,1.1-1.1,1.3c-2.1,0.5-3.9,1.8-5.1,3.6c-0.3,0.4-0.8,0.6-1.3,0.6
				c-0.1,0-0.2,0-0.3,0c-0.6-0.1-1.1-0.5-1.3-1.1c-0.5-2.1-1.8-3.9-3.6-5.1c-0.5-0.4-0.7-1-0.6-1.6c0.1-0.6,0.5-1.1,1.1-1.3
				c2.1-0.5,3.9-1.8,5.1-3.6c0.4-0.5,1-0.7,1.6-0.6c0.6,0.1,1.1,0.5,1.3,1.1C106.8,39.7,108.1,41.5,109.8,42.7z M105.7,43.5
				c-0.6-0.7-1.1-1.4-1.6-2.2c-0.7,0.6-1.4,1.1-2.2,1.6c0.6,0.7,1.1,1.4,1.6,2.2C104.1,44.4,104.9,43.9,105.7,43.5z"/>
			<path d="M105,79.4c0.4,0.4,0.6,1.1,0.4,1.7c-0.2,0.6-0.6,1-1.2,1.2l-5.8,1.4v20.6c0,0.8-0.5,1.4-1.2,1.6l-28.4,8.3h0
				c-0.2,0-0.3,0.1-0.5,0.1c-0.2,0-0.3,0-0.5-0.1l-28.3-8.3c-0.7-0.2-1.2-0.9-1.2-1.6V83.7l-5.8-1.4c-0.6-0.2-1.1-0.6-1.2-1.2
				c-0.2-0.6,0-1.2,0.4-1.7l8.5-8.3c0.2-0.2,0.5-0.4,0.8-0.4l0,0v0l17-3.5l0.7,3.3l-9,1.9l18.6,3.8L87,72.2l-9-1.9l0.7-3.3l17,3.5v0
				c0.3,0.1,0.6,0.2,0.8,0.4L105,79.4z M76.2,85.6l24.3-6l-5.7-5.6l-23.5,4.9L76.2,85.6z M95,103V84.5l-19.2,4.7c-0.1,0-0.3,0-0.4,0
				c-0.5,0-1-0.2-1.4-0.7l-4-5.5v27.3L95,103z M66.7,110.3V83l-4,5.6c-0.4,0.6-1.1,0.8-1.8,0.7v0l-19.2-4.7V103L66.7,110.3z
				 M60.6,85.6l4.9-6.7L42,74.1l-5.7,5.6L60.6,85.6z"/>
			<path d="M97.3,18.3c1.5,2.1,1.6,4.9,0.4,7.1c-1.2,2.3-3.7,3.6-6.2,3.5l-1.1,3.4l-3.2-1l1.5-4.8c0.1-0.4,0.4-0.8,0.8-1
				c0.4-0.2,0.9-0.2,1.3-0.1c1.3,0.4,2.7,0,3.6-1.1c0.9-1,1-2.5,0.4-3.7c-0.6-1.2-1.9-1.9-3.3-1.8c-1.4,0.1-2.5,1.1-2.9,2.4v0
				l-3.2-1c0.8-2.5,2.9-4.3,5.4-4.7C93.3,15.1,95.8,16.2,97.3,18.3z"/>
			<path d="M96.5,45.2l1.1,3.2c-3.4,1.2-6.7,2.9-9.8,4.9c-6.1,4.2-11.2,9.7-14.7,16.3l-3-1.6c3.7-7,9.2-13,15.7-17.5
				C89.3,48.3,92.8,46.5,96.5,45.2z"/>
			<path d="M89.4,35.5c-0.1,0.4-0.4,0.8-0.8,1c-0.4,0.2-0.9,0.2-1.3,0.1c-0.4-0.1-0.8-0.4-1-0.8c-0.2-0.4-0.2-0.8-0.1-1.3
				c0.1-0.4,0.4-0.8,0.8-1c0.4-0.2,0.9-0.2,1.3-0.1s0.8,0.4,1,0.8C89.5,34.7,89.5,35.1,89.4,35.5z"/>
			<path d="M76.8,37c0,4.1-2.8,7.7-6.8,8.6v7.9h-3.4v-9.4c0-0.5,0.2-0.9,0.5-1.2c0.3-0.3,0.8-0.5,1.2-0.5c2.9-0.1,5.2-2.5,5.1-5.4
				c0.1-1.4-0.4-2.7-1.3-3.8c-0.9-1-2.2-1.6-3.6-1.7c-1.4,0-2.7,0.5-3.7,1.5c-1,1-1.5,2.3-1.5,3.7h0l-3.4-0.1
				c0.1-4.6,3.8-8.3,8.4-8.4C73.1,28.3,76.9,32.2,76.8,37z"/>
			<path d="M68.4,55.2c0.9,0,1.7,0.9,1.7,1.7c0,0.9-0.8,1.7-1.7,1.7s-1.7-0.9-1.7-1.7C66.7,56,67.4,55.2,68.4,55.2z"/>
			<path d="M66.6,68.1l-3.2,1.2c-1.1-3.1-7.5-18.7-20.6-20.9c-2.1-0.3-4.2-0.3-6.2,0L36,45.1c2.4-0.4,4.9-0.4,7.3,0l0,0
				C58.3,47.6,65.3,64.7,66.6,68.1z"/>
			<path d="M51.1,14c1.1,2.9,0.1,6.1-2.5,7.9l1.3,3.4l-3.2,1.2l-1.8-4.7c-0.3-0.9,0.1-1.8,1-2.2c1.3-0.5,2.2-1.7,2.2-3
				c0-1.4-0.7-2.6-2-3.2c-1.2-0.6-2.7-0.3-3.7,0.6c-1,0.9-1.3,2.4-0.9,3.6l-3.2,1.2c-1.3-3.5,0.5-7.4,4-8.7
				C45.9,8.8,49.8,10.6,51.1,14z"/>
			<path d="M50.2,27.5c0.4,0.2,0.7,0.5,0.9,0.9c0.2,0.4,0.2,0.9,0,1.3c-0.2,0.4-0.5,0.7-0.9,0.9c-0.4,0.2-0.9,0.2-1.3,0
				s-0.7-0.5-0.9-1c-0.3-0.9,0.1-1.8,1-2.2C49.3,27.3,49.8,27.3,50.2,27.5z"/>
			<polygon points="41.1,70.6 41.1,70.6 41.1,70.6 			"/>
			<path d="M35.6,50.4c0.4,0.4,0.6,1.1,0.4,1.7c-0.2,0.6-0.7,1-1.3,1.2c-2.1,0.3-4,1.3-5.4,3c-0.3,0.3-0.7,0.5-1.2,0.5
				c-0.2,0-0.3,0-0.5-0.1c-0.6-0.2-1-0.7-1.2-1.3c-0.3-2.1-1.3-4-3-5.4c-0.4-0.4-0.6-1.1-0.4-1.7c0.2-0.6,0.7-1,1.3-1.2
				c2.1-0.3,4-1.3,5.4-3c0.4-0.4,1.1-0.6,1.7-0.4c0.6,0.2,1,0.7,1.2,1.3C32.9,47.1,34,49,35.6,50.4z M31.4,50.7
				c-0.5-0.7-1-1.5-1.3-2.4c-0.7,0.5-1.5,1-2.4,1.3c0.5,0.7,1,1.5,1.3,2.4C29.7,51.5,30.5,51,31.4,50.7z"/>
		</g>
		<g>
		</g>
	</g>
</g>
</svg>
