<svg version="1.1" viewBox="0.0 0.0 133.44094488188978 133.44094488188978" fill="none" stroke="none" stroke-linecap="square" stroke-miterlimit="10" xmlns:xlink="http://www.w3.org/1999/xlink" xmlns="http://www.w3.org/2000/svg"><clipPath id="p.0"><path d="m0 0l133.44095 0l0 133.44095l-133.44095 0l0 -133.44095z" clip-rule="nonzero"/></clipPath><g clip-path="url(#p.0)"><path fill="#000000" fill-opacity="0.0" d="m0 0l133.44095 0l0 133.44095l-133.44095 0z" fill-rule="evenodd"/><path fill="#000000" d="m1.6141732 23.974182l0 0c0 -11.837395 9.596105 -21.4335 21.433498 -21.4335l86.896774 0l0 0c5.684517 0 11.136215 2.2581658 15.155777 6.2777267c4.019554 4.019561 6.277733 9.471256 6.277733 15.155773l0 85.73142c0 11.837395 -9.596115 21.43351 -21.43351 21.43351l-86.896774 0c-11.837395 0 -21.433498 -9.596115 -21.433498 -21.43351z" fill-rule="evenodd"/><path stroke="#000000" stroke-width="4.0" stroke-linejoin="round" stroke-linecap="butt" d="m1.6141732 23.974182l0 0c0 -11.837395 9.596105 -21.4335 21.433498 -21.4335l86.896774 0l0 0c5.684517 0 11.136215 2.2581658 15.155777 6.2777267c4.019554 4.019561 6.277733 9.471256 6.277733 15.155773l0 85.73142c0 11.837395 -9.596115 21.43351 -21.43351 21.43351l-86.896774 0c-11.837395 0 -21.433498 -9.596115 -21.433498 -21.43351z" fill-rule="evenodd"/><path fill="#ffffff" d="m47.500946 66.81364q0 -3.0624962 0.921875 -5.140621q0.671875 -1.53125 1.859375 -2.734375q1.1875 -1.21875 2.59375 -1.8125q1.875 -0.796875 4.3125 -0.796875q4.4375 0 7.09375 2.75q2.65625 2.75 2.65625 7.640621q0 4.859375 -2.640625 7.609375q-2.640625 2.734375 -7.046875 2.734375q-4.46875 0 -7.109375 -2.71875q-2.640625 -2.734375 -2.640625 -7.53125zm4.171875 -0.125q0 3.40625 1.5625 5.15625q1.578125 1.75 4.0 1.75q2.421875 0 3.96875 -1.734375q1.546875 -1.75 1.546875 -5.234375q0 -3.4374962 -1.515625 -5.124996q-1.5 -1.703125 -4.0 -1.703125q-2.5 0 -4.03125 1.71875q-1.53125 1.703125 -1.53125 5.171871zm16.716797 -4.484371l2.140625 0l0 -1.09375q0 -1.84375 0.375 -2.734375q0.390625 -0.90625 1.4375 -1.46875q1.046875 -0.578125 2.65625 -0.578125q1.640625 0 3.203125 0.5l-0.515625 2.671875q-0.921875 -0.21875 -1.765625 -0.21875q-0.828125 0 -1.203125 0.390625q-0.359375 0.390625 -0.359375 1.5l0 1.03125l2.875 0l0 3.0156212l-2.875 0l0 11.5l-3.828125 0l0 -11.5l-2.140625 0l0 -3.0156212zm9.324219 0l2.140625 0l0 -1.09375q0 -1.84375 0.375 -2.734375q0.390625 -0.90625 1.4375 -1.46875q1.046875 -0.578125 2.65625 -0.578125q1.640625 0 3.203125 0.5l-0.515625 2.671875q-0.921875 -0.21875 -1.765625 -0.21875q-0.828125 0 -1.203125 0.390625q-0.359375 0.390625 -0.359375 1.5l0 1.03125l2.875 0l0 3.0156212l-2.875 0l0 11.5l-3.828125 0l0 -11.5l-2.140625 0l0 -3.0156212z" fill-rule="nonzero"/></g></svg>