<?xml version="1.0" encoding="utf-8"?>
<!-- Generator: Adobe Illustrator 26.3.1, SVG Export Plug-In . SVG Version: 6.00 Build 0)  -->
<svg version="1.1" id="Layer_1" xmlns="http://www.w3.org/2000/svg" xmlns:xlink="http://www.w3.org/1999/xlink" x="0px" y="0px"
	 viewBox="0 0 133 133" style="enable-background:new 0 0 133 133;" xml:space="preserve">
<style type="text/css">
	.st0{fill:#FFFFFF;}
</style>
<g>
	<g id="XMLID_00000091728207240147756930000017049777632846529413_">
		<g>
			<path d="M131.7,20.9V48c0,3.5-2.9,6.4-6.4,6.4h-19l-13.4,8.4c-0.3,0.2-0.7,0.3-1,0.3c-0.3,0-0.6-0.1-0.9-0.2c-0.6-0.3-1-1-1-1.7
				v-6.8h-4.4c-3.5,0-6.4-2.9-6.4-6.4V20.9c0-3.5,2.9-6.4,6.4-6.4h39.8C128.8,14.4,131.7,17.3,131.7,20.9z M127.9,48V20.9
				c0-1.4-1.2-2.6-2.6-2.6H85.4c-1.4,0-2.6,1.2-2.6,2.6V48c0,1.4,1.2,2.6,2.6,2.6h6.3c1.1,0,1.9,0.8,1.9,1.9v5.3l11-6.9
				c0.3-0.2,0.7-0.3,1-0.3h19.6C126.7,50.5,127.9,49.4,127.9,48z"/>
			<path class="st0" d="M127.9,20.9V48c0,1.4-1.2,2.6-2.6,2.6h-19.6c-0.4,0-0.7,0.1-1,0.3l-11,6.9v-5.3c0-1-0.8-1.9-1.9-1.9h-6.3
				c-1.4,0-2.6-1.2-2.6-2.6V20.9c0-1.4,1.2-2.6,2.6-2.6h39.8C126.7,18.2,127.9,19.4,127.9,20.9z"/>
		</g>
	</g>
</g>
<g>
	<g id="XMLID_00000055683398556830301960000003694524239404851351_">
		<g>
			<path class="st0" d="M73,112.4c-0.5,0.5-1.1,0.7-1.7,0.7l0,0c-1,0-1.9-0.6-2.2-1.5c-0.4-0.9-0.2-2,0.5-2.7
				c0.7-0.7,1.8-0.9,2.7-0.5c0.9,0.4,1.5,1.3,1.5,2.3C73.7,111.3,73.4,111.9,73,112.4z"/>
			<path class="st0" d="M56.3,109.9c0.9,0.4,1.5,1.3,1.5,2.3c0,0.7-0.3,1.3-0.7,1.7c-0.5,0.5-1.1,0.7-1.7,0.7l0,0
				c-1,0-1.9-0.6-2.3-1.5c-0.4-0.9-0.2-2,0.5-2.7C54.3,109.7,55.4,109.5,56.3,109.9z"/>
			<path class="st0" d="M104.6,102l0.1,5c0,5-3.9,9-8.8,9.4l-1.9,0.2c0.1-0.4,0.2-0.8,0.2-1.2V93.6c0-0.4-0.1-0.8-0.2-1.2l1.9,0.3
				C100.8,93,104.6,97.1,104.6,102z"/>
			<path class="st0" d="M89.3,117.5c-1.1,0-2-0.9-2-2.1V93.6c0-1.1,0.9-2,2.1-2.1c1.1,0,2.1,0.9,2.1,2.1v21.8
				C91.4,116.6,90.5,117.5,89.3,117.5L89.3,117.5z"/>
			<path class="st0" d="M41.3,115.4c0,0.6-0.2,1.1-0.6,1.5c-0.4,0.4-0.9,0.6-1.5,0.6c-1.1,0-2.1-0.9-2.1-2.1V93.6
				c0-1.1,0.9-2.1,2.1-2.1c1.1,0,2,0.9,2,2.1V115.4z"/>
			<path class="st0" d="M23.9,102c0-4.9,3.8-9,8.8-9.4l1.9-0.2v0c-0.1,0.4-0.2,0.8-0.2,1.2v21.8c0,0.4,0.1,0.8,0.2,1.2l-1.9-0.2
				c-2.5-0.2-4.6-1.3-6.2-3c-1.6-1.7-2.5-3.9-2.6-6.4V102z"/>
			<path d="M57.8,112.1c0-1-0.6-1.9-1.5-2.3c-0.9-0.4-2-0.2-2.7,0.5c-0.7,0.7-0.9,1.8-0.5,2.7c0.4,0.9,1.3,1.5,2.3,1.5l0,0
				c0.7,0,1.3-0.2,1.7-0.7C57.5,113.4,57.8,112.8,57.8,112.1z M73,112.4c0.5-0.5,0.7-1.1,0.7-1.7c0-1-0.6-1.9-1.5-2.3
				c-0.9-0.4-2-0.2-2.7,0.5c-0.7,0.7-0.9,1.7-0.5,2.7c0.4,0.9,1.3,1.5,2.2,1.5l0,0C71.9,113.1,72.5,112.8,73,112.4z M76.6,95.6v15
				c0,2.4-1.6,4.5-3.9,5.1c-2.3,0.6-4.7-0.3-6-2.4c-1.2-2-1-4.6,0.7-6.4c1.6-1.7,4.2-2.2,6.3-1.1V95.7c0-0.2-0.1-0.3-0.2-0.5
				c-0.1-0.1-0.3-0.2-0.5-0.1l-11.9,1.8c-0.3,0-0.5,0.3-0.5,0.6v13.2c0,0.2,0,0.3-0.1,0.5c0.5,2.4-0.8,4.9-3.1,5.9
				c-2.3,1-4.9,0.3-6.4-1.7c-1.5-2-1.4-4.8,0.2-6.6c1.6-1.9,4.3-2.4,6.5-1.3v-10c0-1.7,1.2-3.2,2.9-3.4l11.9-1.8
				c1-0.2,2,0.1,2.8,0.8C76.1,93.7,76.6,94.6,76.6,95.6z"/>
			<path d="M95.9,116.4c4.9-0.3,8.8-4.4,8.8-9.4l-0.1-5c0-4.9-3.8-9-8.7-9.4L94,92.4c0.1,0.4,0.2,0.8,0.2,1.2v21.8
				c0,0.4-0.1,0.8-0.2,1.2L95.9,116.4z M23.9,107c0,2.5,1,4.7,2.6,6.4c1.6,1.7,3.8,2.8,6.2,3l1.9,0.2c-0.1-0.4-0.2-0.8-0.2-1.2V93.6
				c0-0.4,0.1-0.8,0.2-1.2v0l-1.9,0.2c-4.9,0.4-8.8,4.5-8.8,9.4V107z M40.7,116.9c0.4-0.4,0.6-0.9,0.6-1.5V93.6c0-1.1-0.9-2-2-2.1
				c-1.1,0-2.1,0.9-2.1,2.1v21.8c0,1.1,0.9,2.1,2.1,2.1C39.8,117.5,40.3,117.3,40.7,116.9z M89.3,117.5L89.3,117.5
				c1.2,0,2.1-0.9,2.1-2V93.6c0-1.1-0.9-2.1-2.1-2.1c-1.1,0-2.1,0.9-2.1,2.1v21.8C87.3,116.6,88.2,117.5,89.3,117.5z M91.4,119.9
				c-0.6,0.3-1.3,0.5-2.1,0.5c-1.3,0-2.6-0.5-3.5-1.4c-0.9-0.9-1.5-2.2-1.4-3.5V93.6c0-2.7,2.2-4.9,4.9-4.9c0.7,0,1.4,0.2,2.1,0.5
				h0.1l3,0.4c0.1-0.6,0.1-1.3,0.1-1.9c-0.2-10.7-6-20.5-15.3-25.8s-20.7-5.3-29.9,0C40,67.1,34.2,76.9,34,87.6
				c0,0.6,0.1,1.2,0.1,1.9l3-0.4h0.1c0.6-0.3,1.3-0.5,2.1-0.5c2.7,0,4.9,2.2,4.9,4.9v21.8c0,2.7-2.2,4.9-4.9,4.9
				c-0.7,0-1.4-0.2-2-0.5h-0.1l-4.9-0.6C25.9,118.7,21,113.4,21,107v-5c0-6,4.4-11.1,10.3-12.1c-0.1-0.8-0.1-1.6-0.1-2.3
				c0.2-11.7,6.6-22.4,16.7-28.2c10.2-5.8,22.6-5.8,32.8,0c5.1,2.9,9.2,7,12.1,11.9c2.9,4.9,4.5,10.5,4.6,16.3c0,0.8,0,1.6-0.1,2.3
				c5.9,1,10.2,6.1,10.3,12.1v5c0,6.4-5,11.7-11.3,12.2L91.4,119.9L91.4,119.9z"/>
		</g>
	</g>
</g>
</svg>
