<svg version="1.1" viewBox="0.0 0.0 133.44094488188978 133.44094488188978" fill="none" stroke="none" stroke-linecap="square" stroke-miterlimit="10" xmlns:xlink="http://www.w3.org/1999/xlink" xmlns="http://www.w3.org/2000/svg"><clipPath id="p.0"><path d="m0 0l133.44095 0l0 133.44095l-133.44095 0l0 -133.44095z" clip-rule="nonzero"/></clipPath><g clip-path="url(#p.0)"><path fill="#000000" fill-opacity="0.0" d="m0 0l133.44095 0l0 133.44095l-133.44095 0z" fill-rule="evenodd"/><path fill="#01ff0c" d="m1.6141732 23.974182l0 0c0 -11.837395 9.596105 -21.4335 21.433498 -21.4335l86.896774 0l0 0c5.684517 0 11.136215 2.2581658 15.155777 6.2777267c4.019554 4.019561 6.277733 9.471256 6.277733 15.155773l0 85.73142c0 11.837395 -9.596115 21.43351 -21.43351 21.43351l-86.896774 0c-11.837395 0 -21.433498 -9.596115 -21.433498 -21.43351z" fill-rule="evenodd"/><path stroke="#000000" stroke-width="4.0" stroke-linejoin="round" stroke-linecap="butt" d="m1.6141732 23.974182l0 0c0 -11.837395 9.596105 -21.4335 21.433498 -21.4335l86.896774 0l0 0c5.684517 0 11.136215 2.2581658 15.155777 6.2777267c4.019554 4.019561 6.277733 9.471256 6.277733 15.155773l0 85.73142c0 11.837395 -9.596115 21.43351 -21.43351 21.43351l-86.896774 0c-11.837395 0 -21.433498 -9.596115 -21.433498 -21.43351z" fill-rule="evenodd"/><path fill="#000000" d="m37.393524 69.34489l0 -3.375l8.71875 0l0 7.984375q-1.265625 1.234375 -3.6875 2.171875q-2.40625 0.9375 -4.875 0.9375q-3.140625 0 -5.484375 -1.3125q-2.34375 -1.328125 -3.515625 -3.78125q-1.171875 -2.453125 -1.171875 -5.34375q0 -3.1249962 1.3125 -5.562496q1.3125 -2.4375 3.84375 -3.734375q1.921875 -1.0 4.796875 -1.0q3.734375 0 5.828125 1.578125q2.09375 1.5625 2.703125 4.3125l-4.015625 0.765625q-0.4375 -1.484375 -1.609375 -2.328125q-1.15625 -0.859375 -2.90625 -0.859375q-2.65625 0 -4.21875 1.6875q-1.5625 1.671875 -1.5625 4.984371q0 3.5625 1.578125 5.34375q1.59375 1.78125 4.15625 1.78125q1.28125 0 2.546875 -0.484375q1.28125 -0.5 2.203125 -1.21875l0 -2.546875l-4.640625 0zm16.107422 7.375l-3.84375 0l0 -14.515621l3.578125 0l0 2.0624962q0.90625 -1.4687462 1.640625 -1.9218712q0.734375 -0.46875 1.65625 -0.46875q1.3125 0 2.53125 0.71875l-1.1875 3.3437462q-0.96875 -0.625 -1.796875 -0.625q-0.8125 0 -1.375 0.453125q-0.5625 0.4375 -0.890625 1.609375q-0.3125 1.15625 -0.3125 4.859375l0 4.484375zm15.630859 -4.625l3.828125 0.640625q-0.734375 2.109375 -2.328125 3.21875q-1.59375 1.09375 -3.984375 1.09375q-3.796875 0 -5.609375 -2.46875q-1.4375 -1.984375 -1.4375 -5.015625q0 -3.609375 1.875 -5.640621q1.890625 -2.046875 4.78125 -2.046875q3.234375 0 5.109375 2.1406212q1.875 2.140625 1.796875 6.546875l-9.625 0q0.046875 1.71875 0.921875 2.671875q0.890625 0.9375 2.21875 0.9375q0.90625 0 1.515625 -0.484375q0.625 -0.5 0.9375 -1.59375zm0.21875 -3.875q-0.046875 -1.671875 -0.875 -2.53125q-0.8125 -0.875 -1.984375 -0.875q-1.265625 0 -2.078125 0.90625q-0.828125 0.921875 -0.8125 2.5l5.75 0zm15.353516 3.875l3.828125 0.640625q-0.734375 2.109375 -2.328125 3.21875q-1.59375 1.09375 -3.984375 1.09375q-3.796875 0 -5.609375 -2.46875q-1.4375 -1.984375 -1.4375 -5.015625q0 -3.609375 1.875 -5.640621q1.890625 -2.046875 4.78125 -2.046875q3.234375 0 5.109375 2.1406212q1.875 2.140625 1.796875 6.546875l-9.625 0q0.046875 1.71875 0.921875 2.671875q0.890625 0.9375 2.21875 0.9375q0.90625 0 1.515625 -0.484375q0.625 -0.5 0.9375 -1.59375zm0.21875 -3.875q-0.046875 -1.671875 -0.875 -2.53125q-0.8125 -0.875 -1.984375 -0.875q-1.265625 0 -2.078125 0.90625q-0.828125 0.921875 -0.8125 2.5l5.75 0zm20.15039 8.5l-3.84375 0l0 -7.40625q0 -2.359375 -0.25 -3.046875q-0.234375 -0.6875 -0.796875 -1.0625q-0.546875 -0.390625 -1.328125 -0.390625q-1.0 0 -1.796875 0.546875q-0.796875 0.546875 -1.09375 1.453125q-0.28125 0.890625 -0.28125 3.328125l0 6.578125l-3.84375 0l0 -14.515621l3.5625 0l0 2.1249962q1.90625 -2.4531212 4.796875 -2.4531212q1.265625 0 2.3125 0.453125q1.0625 0.453125 1.59375 1.171875q0.546875 0.7031212 0.75 1.6093712q0.21875 0.90625 0.21875 2.578125l0 9.03125z" fill-rule="nonzero"/></g></svg>