<?xml version="1.0" encoding="utf-8"?>
<!-- Generator: Adobe Illustrator 27.1.1, SVG Export Plug-In . SVG Version: 6.00 Build 0)  -->
<svg version="1.1" id="Layer_1" xmlns="http://www.w3.org/2000/svg" xmlns:xlink="http://www.w3.org/1999/xlink" x="0px" y="0px"
	 viewBox="0 0 133 133" style="enable-background:new 0 0 133 133;" xml:space="preserve">
<style type="text/css">
	.st0{fill:#1C7F52;}
	.st1{fill:#231F20;}
	.st2{fill:#FFFFFF;}
</style>
<path class="st0" d="M120.9,133H12.1c-6.6,0-12-5.4-12-12V12c0-6.6,5.4-12,12-12h108.8c6.6,0,12,5.4,12,12v109
	C132.9,127.6,127.5,133,120.9,133z"/>
<g>
	<g id="XMLID_00000164481427849604519860000000758968659365780874_">
		<g>
			<path class="st1" d="M48.2,99.7c1.3,1.9,3.1,3.5,5.1,4.4c-2.1-1-3.9-2.5-5.2-4.4c-1.9-2.8-2.6-6.2-1.9-9.5
				c0.7-3.3,2.6-6.2,5.4-8.1c1.9-1.3,4-2,6.2-2.1c-2.1,0.2-4.2,0.9-6,2.1c-2.8,1.9-4.8,4.8-5.4,8.1C45.6,93.5,46.3,96.9,48.2,99.7z"
				/>
			<path class="st2" d="M58.9,105.3c-0.9,0.1-1.8,0-2.7-0.2c-0.2,0-0.3-0.1-0.5-0.1c0.2,0,0.4,0.1,0.6,0.1
				C57.2,105.2,58,105.3,58.9,105.3z"/>
			<path class="st2" d="M64.5,89.5c0.8,2.5,0,5.2-2.1,6.9c-0.3,0.2-0.6,0.4-0.9,0.4c0.3,0,0.6-0.2,0.8-0.4
				C64.4,94.8,65.2,92,64.5,89.5c-0.7-1.4-1.9-2.4-3.3-2.9c-0.6-0.2-1.3-0.4-1.9-0.4c0.7,0,1.4,0.2,2,0.4
				C62.8,87.1,63.9,88.1,64.5,89.5z"/>
			<path class="st2" d="M81,80c1.5-0.2,2.8,0.2,3.9,1.2c0.7,0.7,1.2,1.5,1.5,2.4c-0.2-0.7-0.7-1.3-1.4-2c-1.1-1-2.5-1.4-3.9-1.3
				c-2.7,0.3-4.7,2.6-4.6,5.3v8.6c0,1.1-0.3,2.1-0.8,2.9c-0.5,0.9-1.2,1.7-2,2.3h-0.1c-1,3-3.2,5.5-6.1,6.8
				c-2.6,1.7-5.6,2.6-8.7,2.6c-1,0-2.1-0.1-3.1-0.3c-1.3-0.3-2.6-0.7-3.8-1.3c-0.1,0.1-0.1,0.2-0.2,0.3c-1.5,1.2-2.8,2.6-3.9,4.2
				c0,0.1,0,0.1,0,0.2c-0.1,0-0.1,0-0.1-0.1c-0.1-0.1-0.1-0.2,0-0.3c1.2-1.5,2.5-2.9,3.9-4.2c0.1-0.1,0.1-0.2,0.2-0.3
				c1.2,0.6,2.5,1,3.8,1.3c1,0.2,2,0.3,3.1,0.3c3.1,0,6.1-0.9,8.7-2.6c2.9-1.3,5.1-3.8,6.1-6.8h0.1c1.8-1.2,2.8-3.1,2.8-5.2v-8.7
				C76.4,82.7,78.3,80.4,81,80z"/>
			<path class="st2" d="M86.5,84c0.1,0.3,0.1,0.6,0.1,1C86.6,84.7,86.6,84.3,86.5,84z"/>
			<path d="M66.3,102.9c2.2-1,3.8-3,4.4-5.4c1.3-3.9,0.8-8.3-1.4-11.9c-1.9-2.8-4.8-4.7-8.1-5.4c-0.7-0.1-1.3-0.2-2-0.2
				c-0.5,0-1,0-1.5,0c-2.2,0.2-4.3,0.9-6.2,2.1c-2.8,1.9-4.7,4.8-5.4,8.1c-0.7,3.3,0,6.7,1.9,9.5c1.3,2,3.1,3.5,5.2,4.4
				c0.8,0.4,1.5,0.6,2.3,0.8c0.2,0,0.3,0.1,0.5,0.1c0.9,0.2,1.8,0.3,2.7,0.2c0,0,0.1,0,0.1,0c-2.6-1.3-4.8-3.4-6-6.1
				c-1.6-3.7-1.7-10.1,2.4-12.3c0.9-0.5,1.9-0.7,2.9-0.8c0.3,0,0.7,0,1,0c0.7,0.1,1.3,0.2,1.9,0.4c1.4,0.5,2.6,1.5,3.2,2.9
				c0.8,2.5,0,5.3-2.1,6.9c-0.2,0.2-0.5,0.4-0.8,0.4c-0.2,0-0.4,0-0.6,0c-0.3-0.1-0.6-0.2-0.9-0.5c-0.3-0.4-0.5-1-0.4-1.5
				c0.1-0.3,0.2-0.7,0.5-0.9c1-0.7,1.5-2,1.3-3.2c-0.1-0.2-0.2-0.4-0.4-0.5c0,0-0.1-0.1-0.1-0.1c-0.2-0.2-0.5-0.3-0.7-0.4
				c-0.1,0-0.3-0.1-0.4-0.1h0c-0.4-0.1-0.8-0.2-1.1-0.2c-0.6,0-1.1,0.1-1.7,0.4c-0.5,0.3-0.9,0.8-1.1,1.4c-0.1,0.2-0.2,0.4-0.2,0.6
				c-0.1,0.2-0.1,0.4-0.2,0.6c-0.2,0.9-0.2,2,0,3.1c0.1,0.7,0.2,1.3,0.5,1.9c0,0.2,0.1,0.3,0.2,0.4c1.2,2.7,3.9,4.6,6.5,5.2
				c1.3,0.3,2.5,0.3,3.6-0.1H66.3z M89.2,70c0.8,0.4,1.2,1.4,0.8,2.3l-3.1,6.1c0.1,0.1,0.3,0.2,0.5,0.3c1.6,1.7,2.6,4,2.6,6.3
				c0,1.3-0.3,2.7-0.9,3.8c-1.5,2.7-2.4,5.7-2.4,8.8v2.6c0,4-1.6,7.9-4.5,10.7c-2.9,2.8-6.7,4.4-10.7,4.5H48c-1.4,0-2.6-0.8-3.2-2
				c-0.6-1.2-0.5-2.7,0.3-3.8c1.1-1.6,2.4-3,3.9-4.3c-3.7-2.9-6-7.2-6.2-11.9c-0.2-4.7,1.6-9.2,5.1-12.5c3.4-3.2,8.1-4.7,12.8-4.2
				s8.9,3.1,11.5,7c0.3,0.6,0.6,1.2,0.9,1.8v-0.2c0-1.7,0.5-3.3,1.4-4.7s2.2-2.5,3.7-3.3v-7.5c0-0.9,0.8-1.7,1.7-1.7
				s1.7,0.8,1.7,1.7v6.8c0.7,0,1.5,0.1,2.2,0.3l3.1-6.1C87.3,70,88.3,69.6,89.2,70z M86.6,85c0-0.3,0-0.7-0.1-1
				c0-0.1-0.1-0.3-0.1-0.4c-0.2-0.9-0.8-1.7-1.5-2.4c-1.1-1-2.4-1.4-3.9-1.2c-2.7,0.4-4.6,2.7-4.6,5.3V94c0,2.1-1,4-2.8,5.2h-0.1
				c-1,3-3.2,5.5-6.1,6.8c-2.6,1.7-5.6,2.6-8.7,2.6c-1.1,0-2.1-0.1-3.1-0.3c-1.3-0.3-2.6-0.7-3.8-1.3c-0.1,0.1-0.1,0.2-0.2,0.3
				c-1.4,1.3-2.7,2.7-3.9,4.2c-0.1,0.1-0.1,0.2,0,0.3c0,0.1,0,0.1,0.1,0.1c0,0,0,0.1,0,0.1c0,0.1,0.1,0.1,0.2,0.1h23.4
				c3.1,0,6.1-1.3,8.3-3.5c2.2-2.3,3.5-5.3,3.5-8.4v-2.6c0-1.3,0.2-2.7,0.5-4c0,0,0-0.1,0-0.1c0.5-2.1,1.3-4.2,2.3-6.2
				C86.4,86.6,86.6,85.8,86.6,85z"/>
			<path class="st2" d="M69.3,85.6c2.2,3.6,2.7,8,1.4,11.9c-0.6,2.4-2.2,4.4-4.4,5.4c2.1-1,3.7-3,4.3-5.4c1.4-4,0.9-8.4-1.4-11.9
				c-1.9-2.8-4.8-4.7-8.1-5.4c-0.6-0.1-1.3-0.2-1.9-0.2c0.7,0,1.3,0.1,2,0.2C64.5,80.9,67.4,82.8,69.3,85.6z"/>
			<path class="st2" d="M60.9,90.1c-0.2-0.2-0.5-0.3-0.7-0.4C60.5,89.8,60.7,89.9,60.9,90.1z"/>
			<path class="st2" d="M59.8,89.6c-0.9-0.2-1.9-0.1-2.8,0.2c0.5-0.3,1.1-0.4,1.7-0.4C59,89.4,59.4,89.5,59.8,89.6z"/>
			<path class="st2" d="M55.5,95.5c0.1,0.7,0.2,1.3,0.5,1.9C55.7,96.8,55.5,96.1,55.5,95.5z"/>
			<path class="st2" d="M53.3,104.1c-2-1-3.8-2.5-5.1-4.4c-1.9-2.8-2.6-6.2-1.9-9.5c0.6-3.3,2.6-6.2,5.4-8.1c1.8-1.2,3.9-2,6-2.1
				c0.5,0,1,0,1.5,0c0.6,0,1.3,0.1,1.9,0.2c3.3,0.7,6.2,2.6,8.1,5.4c2.3,3.5,2.8,7.9,1.4,11.9c-0.6,2.4-2.2,4.4-4.3,5.4h-0.1
				c-1,0.4-2.3,0.4-3.6,0.1c-2.6-0.6-5.3-2.5-6.5-5.2c-0.1-0.1-0.1-0.3-0.2-0.4c-0.2-0.6-0.4-1.2-0.5-1.9c-0.2-1.1-0.1-2.2,0-3.1
				c0-0.2,0.1-0.4,0.2-0.6c0.1-0.2,0.1-0.4,0.2-0.6c0.3-0.6,0.6-1.1,1.1-1.4c0.9-0.4,1.9-0.5,2.8-0.2h0c0.1,0,0.3,0.1,0.4,0.1
				c0.2,0.1,0.5,0.2,0.7,0.4c0,0,0.1,0.1,0.1,0.1c0.1,0.1,0.3,0.3,0.4,0.5c0.2,1.2-0.3,2.5-1.3,3.2c-0.3,0.2-0.5,0.6-0.5,0.9
				c-0.1,0.5,0.1,1.1,0.4,1.5c0.2,0.3,0.6,0.5,0.9,0.5c0.2,0,0.4,0,0.6,0c0.3,0,0.6-0.2,0.9-0.4c2.1-1.7,2.9-4.4,2.1-6.9
				c-0.6-1.4-1.7-2.4-3.2-2.9c-0.6-0.2-1.3-0.4-2-0.4c-0.3,0-0.7,0-1,0c-1,0-2,0.3-3,0.8c-4.1,2.2-4,8.6-2.4,12.3
				c1.2,2.7,3.3,4.8,6,6.1c-0.9,0-1.7-0.1-2.6-0.2c-0.2,0-0.4-0.1-0.6-0.1C54.9,104.8,54.1,104.5,53.3,104.1z"/>
			<path class="st2" d="M51.9,107.2c1.2,0.6,2.5,1,3.8,1.3c1,0.2,2.1,0.3,3.1,0.3c3.1,0,6.1-0.9,8.7-2.6c2.9-1.3,5.1-3.8,6.1-6.8
				h0.1c0.9-0.6,1.6-1.4,2-2.3c0.5-0.9,0.8-1.9,0.8-2.9v-8.6c-0.1-2.7,1.9-5,4.6-5.3c1.4-0.1,2.8,0.3,3.9,1.3c0.7,0.6,1.1,1.2,1.4,2
				c0.1,0.2,0.1,0.3,0.1,0.4c0.1,0.3,0.1,0.7,0.1,1c0,0.8-0.2,1.6-0.6,2.3c-1.1,2-1.9,4-2.3,6.2c0,0.1,0,0.1,0,0.1
				c-0.3,1.3-0.5,2.5-0.6,3.8v2.6c0,3.2-1.3,6.2-3.5,8.4c-2.2,2.3-5.2,3.5-8.3,3.5H47.9c0,0-0.1,0-0.1,0c0-0.1,0-0.1,0-0.2
				c1.1-1.6,2.4-3,3.9-4.2C51.8,107.4,51.8,107.3,51.9,107.2z"/>
			<path class="st2" d="M55.4,86.9c-4.1,2.2-4,8.6-2.4,12.3c1.2,2.7,3.4,4.8,6,6.1c0,0-0.1,0-0.1,0c-2.7-1.3-4.8-3.4-6-6.1
				c-1.6-3.7-1.7-10.1,2.4-12.3c0.9-0.5,1.9-0.7,3-0.8C57.3,86.2,56.3,86.4,55.4,86.9z"/>
			<path class="st1" d="M83.2,97.6v2.6c0,3.1-1.3,6.1-3.5,8.4c-2.2,2.2-5.2,3.5-8.3,3.5H48c-0.1,0-0.2,0-0.2-0.1c0,0,0-0.1,0-0.1
				c0,0,0.1,0,0.1,0h23.4c3.1,0,6.1-1.2,8.3-3.5c2.2-2.2,3.5-5.2,3.5-8.4v-2.6c0.1-1.3,0.3-2.5,0.6-3.8
				C83.4,94.9,83.2,96.2,83.2,97.6z"/>
		</g>
		<g>
		</g>
	</g>
</g>
</svg>
