<?xml version="1.0" encoding="utf-8"?>
<!-- Generator: Adobe Illustrator 26.3.1, SVG Export Plug-In . SVG Version: 6.00 Build 0)  -->
<svg version="1.1" id="Layer_1" xmlns="http://www.w3.org/2000/svg" xmlns:xlink="http://www.w3.org/1999/xlink" x="0px" y="0px"
	 viewBox="0 0 133 133" style="enable-background:new 0 0 133 133;" xml:space="preserve">
<style type="text/css">
	.st0{fill:#2CC774;}
	.st1{fill:#FFFFFF;}
	.st2{fill:none;stroke:#000000;stroke-miterlimit:10;}
</style>
<path class="st0" d="M120.5,133.5H11.7c-6.6,0-12-5.4-12-12v-109c0-6.6,5.4-12,12-12h108.8c6.6,0,12,5.4,12,12v109
	C132.5,128.1,127.1,133.5,120.5,133.5z"/>
<g>
	<g id="XMLID_00000145739035240450780980000016579277639461335428_">
		<g>
			<path d="M73.1,85.5v-0.2c0-1.7,0.5-3.3,1.4-4.7c0.9-1.4,2.2-2.5,3.7-3.3v-7.5c0-0.9,0.8-1.7,1.7-1.7c0.9,0,1.7,0.8,1.7,1.7v6.8
				c0.7,0,1.5,0.1,2.2,0.3l3.1-6.1c0.4-0.8,1.4-1.2,2.3-0.8c0.8,0.4,1.2,1.4,0.8,2.3l-3.1,6.1c0.1,0.1,0.3,0.2,0.5,0.3
				C89,80.4,90,82.7,90,85c0,1.3-0.3,2.7-0.9,3.8c-1.5,2.7-2.4,5.7-2.4,8.8v2.6c0,4-1.6,7.9-4.5,10.7c-2.9,2.8-6.7,4.4-10.7,4.5H48
				c-1.4,0-2.6-0.8-3.2-2c-0.6-1.2-0.5-2.7,0.3-3.8c1.1-1.6,2.4-3,3.9-4.3c-3.7-2.9-6-7.2-6.2-11.9c-0.2-4.7,1.6-9.2,5.1-12.5
				c3.4-3.2,8.1-4.7,12.8-4.2c4.7,0.5,8.9,3.1,11.5,7C72.5,84.3,72.8,84.9,73.1,85.5z M86,87.3c0.4-0.7,0.6-1.5,0.6-2.3
				c0-1.4-0.6-2.8-1.7-3.8S82.5,79.8,81,80c-2.7,0.4-4.6,2.7-4.6,5.3V94c0,2.1-1,4-2.8,5.2l0,0c0,0-0.1,0-0.1,0
				c-1,3-3.2,5.5-6.1,6.8c-2.6,1.7-5.6,2.6-8.7,2.6c-1.1,0-2.1-0.1-3.1-0.3c-1.3-0.3-2.6-0.7-3.8-1.3c-0.1,0.1-0.1,0.2-0.2,0.3
				c-1.4,1.3-2.7,2.7-3.9,4.2c-0.1,0.1-0.1,0.2,0,0.3c0,0.1,0.1,0.1,0.2,0.1h23.4c3.1,0,6.1-1.2,8.3-3.5c2.2-2.2,3.5-5.2,3.5-8.4
				v-2.6C83.3,94,84.3,90.5,86,87.3z M70.6,97.5c1.4-4,0.9-8.4-1.4-11.9c-1.9-2.8-4.8-4.7-8.1-5.4c-3.3-0.7-6.7,0-9.5,1.9
				c-2.8,1.9-4.7,4.8-5.4,8.1c-0.7,3.3,0,6.7,1.9,9.5c1.9,2.8,4.8,4.7,8.1,5.4c0.9,0.2,1.8,0.3,2.7,0.2c-2.7-1.3-4.8-3.4-6-6.1
				c-1.6-3.7-1.7-10.1,2.4-12.3c1.8-0.9,4-1,5.9-0.3c1.4,0.5,2.6,1.5,3.2,2.9c0.8,2.5,0,5.3-2.1,6.9C61.7,97,60.7,97,60,96.3
				c-0.6-0.7-0.6-1.7,0.1-2.4c1-0.7,1.5-2,1.3-3.2c-0.2-0.5-0.7-0.8-1.2-1c-1-0.4-2.2-0.3-3.2,0.1h0c-1.9,1.1-2.1,5.2-0.9,8
				c1.7,4,7,6.2,10.1,5.1l0.1,0C68.4,101.9,70,99.9,70.6,97.5z"/>
			<path class="st1" d="M86.6,85c0,0.8-0.2,1.6-0.6,2.3c-1.8,3.2-2.7,6.7-2.8,10.3v2.6c0,3.1-1.3,6.1-3.5,8.4
				c-2.2,2.2-5.2,3.5-8.3,3.5H48c-0.1,0-0.2,0-0.2-0.1c0-0.1,0-0.2,0-0.3c1.1-1.6,2.4-3,3.9-4.2c0.1-0.1,0.1-0.2,0.2-0.3
				c1.2,0.6,2.5,1,3.8,1.3c1,0.2,2.1,0.3,3.1,0.3c3.1,0,6.1-0.9,8.7-2.6c2.9-1.3,5.1-3.8,6.1-6.8c0,0,0.1,0,0.1,0l0,0
				c1.7-1.2,2.8-3.1,2.8-5.2v-8.6c-0.1-2.7,1.9-5,4.6-5.3c1.4-0.1,2.8,0.3,3.9,1.3S86.6,83.6,86.6,85z"/>
			<path class="st1" d="M69.3,85.6c2.2,3.6,2.7,8,1.4,11.9c-0.6,2.4-2.2,4.4-4.4,5.4l-0.1,0c-3.1,1.1-8.3-1.1-10.1-5.1
				c-1.2-2.7-1-6.9,0.9-8h0c1-0.5,2.1-0.5,3.2-0.1c0.5,0.1,0.9,0.5,1.2,1c0.2,1.2-0.3,2.5-1.3,3.2c-0.7,0.6-0.7,1.7-0.1,2.4
				c0.6,0.7,1.7,0.7,2.4,0.1c2.1-1.7,2.9-4.4,2.1-6.9c-0.6-1.4-1.7-2.4-3.2-2.9c-1.9-0.7-4.1-0.6-5.9,0.3c-4.1,2.2-4,8.6-2.4,12.3
				c1.2,2.7,3.4,4.8,6,6.1c-0.9,0-1.8-0.1-2.7-0.2c-3.3-0.6-6.2-2.6-8.1-5.4c-1.9-2.8-2.6-6.2-1.9-9.5c0.6-3.3,2.6-6.2,5.4-8.1
				c2.8-1.9,6.2-2.6,9.5-1.9C64.5,80.9,67.4,82.8,69.3,85.6z"/>
		</g>
	</g>
</g>
</svg>
