<?xml version="1.0" encoding="utf-8"?>
<!-- Generator: Adobe Illustrator 27.1.1, SVG Export Plug-In . SVG Version: 6.00 Build 0)  -->
<svg version="1.1" id="Layer_1" xmlns="http://www.w3.org/2000/svg" xmlns:xlink="http://www.w3.org/1999/xlink" x="0px" y="0px"
	 viewBox="0 0 133 133" style="enable-background:new 0 0 133 133;" xml:space="preserve">
<style type="text/css">
	.st0{fill:#608697;}
	.st1{fill:#FFFFFF;}
</style>
<g id="Layer_1_00000075157336298015066690000010605422397081877127_">
	<g id="Layer_2_00000145745039768261879060000003061740180092824470_">
		<path class="st0" d="M121,133H12c-6.6,0-12-5.4-12-12V12C0,5.4,5.4,0,12,0h109c6.6,0,12,5.4,12,12v109
			C133,127.6,127.6,133,121,133z"/>
		<path class="st0" d="M121,133H12c-6.6,0-12-5.4-12-12V12C0,5.4,5.4,0,12,0h109c6.6,0,12,5.4,12,12v109
			C133,127.6,127.6,133,121,133z"/>
	</g>
</g>
<g id="Layer_2_00000163061604804082568700000000106220703142572714_">
</g>
<g id="Layer_4">
	<g>
		<g id="XMLID_00000106146340692422703440000005962140890977440442_">
			<g>
				<circle class="st1" cx="109.7" cy="51.3" r="3.5"/>
				<path class="st1" d="M99.3,49.6h3.7c-0.1,0.5-0.2,1.1-0.2,1.7c0,0.6,0.1,1.2,0.2,1.7h-3.7V49.6z"/>
				<path class="st1" d="M95.9,46.1v10.4c0,1-0.8,1.7-1.7,1.7c-0.9,0-1.7-0.8-1.7-1.7V46.1c0-1,0.8-1.7,1.7-1.7
					C95.1,44.4,95.9,45.2,95.9,46.1z"/>
				<rect x="85.5" y="49.6" class="st1" width="3.5" height="3.5"/>
				<path class="st1" d="M82,42.7V60c0,1-0.8,1.7-1.7,1.7c-1,0-1.7-0.8-1.7-1.7V42.7c0-1,0.8-1.7,1.7-1.7C81.3,40.9,82,41.7,82,42.7
					z"/>
				<rect x="71.7" y="49.6" class="st1" width="3.5" height="3.5"/>
				<path class="st1" d="M68.2,40.9v20.8c0,1-0.8,1.7-1.7,1.7h-1.7V39.2h1.7C67.4,39.2,68.2,40,68.2,40.9z"/>
				<path class="st1" d="M61.3,35.7v31.1c0,1-0.8,1.7-1.7,1.7c-1,0-1.7-0.8-1.7-1.7V35.7c0-1,0.8-1.7,1.7-1.7S61.3,34.8,61.3,35.7z"
					/>
				<path class="st1" d="M48.9,68.6l-0.3,2c-0.1,0.8-0.9,1.5-1.7,1.5H45l0.5-3.5H48.9z"/>
				<path class="st1" d="M43.8,94.9c0.6,0.3,1,1.1,0.9,1.8l-0.5,3.1H29c-0.5,0-1-0.2-1.3-0.6s-0.5-0.9-0.4-1.4l4.4-29.2h0.2H42
					l-3,19.8c-0.3,2.1,0.7,4.3,2.6,5.3L43.8,94.9L43.8,94.9z"/>
				<circle class="st1" cx="35.3" cy="51.3" r="1.7"/>
				<path class="st1" d="M54.4,37.5v27.7H31.9c-2.8,0-5.2-2.3-5.2-5.2V42.7c0-2.9,2.3-5.2,5.2-5.2H54.4z M50.9,44.4
					c0-1-0.8-1.7-1.7-1.7h-3.5c-1,0-1.7,0.8-1.7,1.7s0.8,1.7,1.7,1.7h3.5C50.1,46.1,50.9,45.3,50.9,44.4z M50.9,51.3
					c0-1-0.8-1.7-1.7-1.7h-3.5c-1,0-1.7,0.8-1.7,1.7s0.8,1.7,1.7,1.7h3.5C50.1,53,50.9,52.3,50.9,51.3z M50.9,58.2
					c0-1-0.8-1.7-1.7-1.7h-3.5c-1,0-1.7,0.8-1.7,1.7c0,1,0.8,1.7,1.7,1.7h3.5C50.1,60,50.9,59.2,50.9,58.2z M40.5,51.3
					c0-2.9-2.3-5.2-5.2-5.2c-2.8,0-5.2,2.3-5.2,5.2c0,2.8,2.3,5.2,5.2,5.2S40.5,54.2,40.5,51.3z"/>
				<path class="st1" d="M23.2,46.1v10.4h-1.7c-1,0-1.7-0.8-1.7-1.7v-6.9c0-0.9,0.8-1.7,1.7-1.7L23.2,46.1L23.2,46.1z"/>
				<path d="M109.8,44.4c3.8,0,6.9,3.1,6.9,6.9c0,3.8-3.1,6.9-6.9,6.9c-1.7,0-3.3-0.7-4.5-1.7h-5.8c0,2.8-2.3,5.2-5.2,5.2
					c-2.9,0-5.2-2.3-5.2-5.2h-3.5V60c0,2.9-2.3,5.2-5.2,5.2c-2.9,0-5.2-2.3-5.2-5.2v-3.5h-3.5v5.2c0,2.9-2.3,5.2-5.2,5.2h-1.7
					c0,2.9-2.3,5.2-5.2,5.2c-2.3,0-4.2-1.5-4.9-3.5h-2.3L52,71.1c-0.4,2.5-2.6,4.4-5.1,4.4h-2.5l-2,13.3c-0.1,0.7,0.2,1.4,0.9,1.8
					l2.2,1.2c1.9,1.1,2.9,3.2,2.6,5.3l-0.5,3.1c-0.3,1.7-1.7,2.9-3.4,2.9H29c-1.5,0-2.9-0.6-3.9-1.8c-1-1.1-1.4-2.7-1.2-4.2
					l4.4-29.5c-3-1.4-5-4.4-5-7.8h-1.7c-2.9,0-5.2-2.3-5.2-5.2v-6.9c0-2.9,2.3-5.2,5.2-5.2h1.7c0-4.8,3.9-8.7,8.6-8.7h22.8
					c0.7-2,2.6-3.5,4.9-3.5c2.9,0,5.2,2.3,5.2,5.2h1.7c2.9,0,5.2,2.3,5.2,5.2v5.2h3.5v-3.5c0-2.9,2.3-5.2,5.2-5.2
					c2.9,0,5.2,2.3,5.2,5.2v3.5H89c0-2.9,2.3-5.2,5.2-5.2c2.9,0,5.2,2.3,5.2,5.2h5.8C106.4,45.1,108,44.4,109.8,44.4L109.8,44.4z
					 M113.2,51.3c0-1.9-1.5-3.5-3.5-3.5c-1.9,0-3.5,1.6-3.5,3.5s1.6,3.5,3.5,3.5S113.2,53.2,113.2,51.3z M103,49.6h-3.7V53h3.7
					c-0.1-0.6-0.2-1.1-0.2-1.7C102.8,50.7,102.9,50.1,103,49.6z M95.9,56.5V46.1c0-1-0.8-1.7-1.7-1.7c-0.9,0-1.7,0.8-1.7,1.7v10.4
					c0,1,0.8,1.7,1.7,1.7S95.9,57.5,95.9,56.5z M88.9,53v-3.5h-3.5V53H88.9z M82,60V42.7c0-1-0.8-1.7-1.7-1.7c-1,0-1.7,0.8-1.7,1.7
					V60c0,1,0.8,1.7,1.7,1.7C81.3,61.7,82,60.9,82,60z M75.1,53v-3.5h-3.4V53H75.1z M68.2,61.7V40.9c0-1-0.8-1.7-1.7-1.7h-1.7v24.2
					h1.7C67.4,63.4,68.2,62.6,68.2,61.7z M61.3,66.9V35.7c0-1-0.8-1.7-1.7-1.7c-1,0-1.7,0.8-1.7,1.7v31.1c0,1,0.8,1.7,1.7,1.7
					C60.5,68.6,61.3,67.8,61.3,66.9z M54.4,65.2V37.5H31.9c-2.8,0-5.2,2.3-5.2,5.2V60c0,2.9,2.3,5.2,5.2,5.2H54.4z M48.6,70.6l0.3-2
					h-3.4L45,72.1h1.9C47.7,72.1,48.5,71.4,48.6,70.6z M44.7,96.7c0.1-0.7-0.2-1.4-0.9-1.8l0,0l-2.2-1.2c-1.9-1.1-2.9-3.2-2.6-5.3
					l3-19.8H31.9c-0.1,0-0.2,0-0.2,0l-4.4,29.2c-0.1,0.5,0.1,1,0.4,1.4c0.4,0.4,0.8,0.6,1.3,0.6h15.2L44.7,96.7z M23.2,56.5V46.1
					h-1.7c-1,0-1.7,0.8-1.7,1.7v6.9c0,1,0.8,1.7,1.7,1.7L23.2,56.5L23.2,56.5z"/>
				<path d="M49.2,42.7c1,0,1.7,0.8,1.7,1.7s-0.8,1.7-1.7,1.7h-3.5c-1,0-1.7-0.8-1.7-1.7s0.8-1.7,1.7-1.7H49.2z"/>
				<path d="M49.2,49.6c1,0,1.7,0.8,1.7,1.7S50.1,53,49.2,53h-3.5c-1,0-1.7-0.8-1.7-1.7c0-1,0.8-1.7,1.7-1.7H49.2z"/>
				<path d="M49.2,56.5c1,0,1.7,0.8,1.7,1.7c0,1-0.8,1.7-1.7,1.7h-3.5c-1,0-1.7-0.8-1.7-1.7c0-1,0.8-1.7,1.7-1.7H49.2z"/>
				<path d="M35.3,46.1c2.9,0,5.2,2.3,5.2,5.2c0,2.8-2.3,5.2-5.2,5.2c-2.8,0-5.2-2.3-5.2-5.2C30.2,48.5,32.5,46.1,35.3,46.1z
					 M37.1,51.3c0-1-0.8-1.7-1.7-1.7c-1,0-1.7,0.8-1.7,1.7s0.8,1.7,1.7,1.7S37.1,52.3,37.1,51.3z"/>
			</g>
		</g>
	</g>
</g>
<g id="Layer_5_00000096759886075198047500000016841880956640546723_">
</g>
<g id="Layer_6_00000151532325249707469710000014370122528315639221_">
</g>
<g id="Layer_7_00000042717999357893301760000000855885267568530853_">
</g>
<g id="Layer_8_00000168831599467053464300000003505523461608539011_">
</g>
<g id="Layer_9_00000089543259283313251050000005252079673544207528_">
</g>
<g id="Layer_10_00000084509998272139497780000008077192264451833754_">
</g>
<g id="Layer_11_00000116220595310884250560000013807966725250984093_">
</g>
<g id="Layer_12">
</g>
<g id="Layer_13">
</g>
<g id="Layer_14">
</g>
<g id="Layer_15">
</g>
<g id="Layer_16">
</g>
<g id="Layer_17">
</g>
<g id="Layer_18">
</g>
</svg>
