<?xml version="1.0" encoding="utf-8"?>
<!-- Generator: Adobe Illustrator 27.1.1, SVG Export Plug-In . SVG Version: 6.00 Build 0)  -->
<svg version="1.1" id="Layer_1" xmlns="http://www.w3.org/2000/svg" xmlns:xlink="http://www.w3.org/1999/xlink" x="0px" y="0px"
	 viewBox="0 0 133 133" style="enable-background:new 0 0 133 133;" xml:space="preserve">
<style type="text/css">
	.st0{fill:#608697;}
	.st1{fill:#FFFFFF;}
</style>
<g id="Layer_1_00000126317551092565969170000007627168040421268123_">
	<g id="Layer_2_00000031208784034740376830000006115804922631409570_">
		<path class="st0" d="M121,133H12c-6.6,0-12-5.4-12-12V12C0,5.4,5.4,0,12,0h109c6.6,0,12,5.4,12,12v109
			C133,127.6,127.6,133,121,133z"/>
		<path class="st0" d="M121,133H12c-6.6,0-12-5.4-12-12V12C0,5.4,5.4,0,12,0h109c6.6,0,12,5.4,12,12v109
			C133,127.6,127.6,133,121,133z"/>
	</g>
</g>
<g id="Layer_2_00000092439140311988053700000017905768265942130867_">
</g>
<g id="Layer_4">
</g>
<g id="Layer_5_00000096759886075198047500000016841880956640546723_">
</g>
<g id="Layer_6_00000151532325249707469710000014370122528315639221_">
	<g>
		<g id="XMLID_00000091703510863603154270000001602681207870717614_">
			<g>
				<path class="st1" d="M78.7,25.4l28.9,28.9c-14,0.8-27.1,6.8-37,16.7L60.3,81.3l-8.6-8.6L62,62.3C71.9,52.5,77.9,39.3,78.7,25.4z
					"/>
				<path class="st1" d="M60.4,85.7l-5.2,5.2c-0.8-3.2-2.4-6.1-4.7-8.4s-5.2-3.9-8.4-4.7l5.2-5.2L60.4,85.7z"/>
				<path class="st1" d="M48.3,84.7c2.8,2.8,4.3,6.5,4.3,10.4s-1.5,7.6-4.3,10.4s-6.5,4.3-10.4,4.3s-7.6-1.5-10.4-4.3
					s-4.3-6.5-4.3-10.4s1.5-7.6,4.3-10.4s6.5-4.3,10.4-4.3S45.6,81.9,48.3,84.7z M46.4,94.3c0-2-3.1-2-3.1,0
					C43.4,96.3,46.4,96.3,46.4,94.3z M42.4,103.9l-1.1-2.9l-1.6,0.6c-1.1,0.4-2.3,0.4-3.4,0l-1.6-0.6l-1.1,2.9l1.6,0.6l0,0
					c1.8,0.7,3.9,0.7,5.7,0L42.4,103.9z M32.6,94.3c0-2-3.1-2-3.1,0C29.5,96.3,32.6,96.3,32.6,94.3z"/>
				<rect x="105.1" y="38.7" width="7.7" height="3.1"/>
				<polygon points="109.2,25.9 103.1,32.1 100.9,29.9 107.1,23.8 				"/>
				<rect x="91.2" y="20.2" width="3.1" height="7.7"/>
				<path d="M75.8,21.8c0-0.6,0.4-1.2,0.9-1.4c0.6-0.2,1.2-0.1,1.7,0.3l33.9,33.9c0.4,0.4,0.6,1.1,0.3,1.7c-0.2,0.6-0.8,1-1.4,1
					C96.8,57.3,83,63,72.8,73.2L62.5,83.5l1.2,1.2c0.6,0.6,0.6,1.6,0,2.2l-8,8c0,0.1,0,0.2,0,0.3c0,4.7-1.9,9.2-5.2,12.5
					s-7.8,5.2-12.5,5.2s-9.2-1.9-12.5-5.2c-3.3-3.3-5.2-7.8-5.2-12.5s1.9-9.2,5.2-12.5c1.7-1.7,3.6-3,5.8-3.8
					c2.1-0.9,4.4-1.3,6.8-1.3c0.1,0,0.2,0,0.3,0l8-8c0.6-0.6,1.6-0.6,2.2,0l1.1,1.2L60,60.5C70.1,50,75.8,36.2,75.8,21.8z
					 M107.6,54.3L78.7,25.4c-0.8,14-6.8,27.1-16.7,37L51.7,72.7l8.6,8.6L70.7,71C80.5,61.1,93.7,55.1,107.6,54.3z M55.2,90.9
					l5.2-5.2L47.3,72.6l-5.2,5.2c3.2,0.8,6.1,2.4,8.4,4.7C52.8,84.8,54.4,87.7,55.2,90.9z M52.6,95c0-3.9-1.5-7.6-4.3-10.4
					s-6.5-4.3-10.4-4.3s-7.6,1.5-10.4,4.3s-4.3,6.5-4.3,10.4s1.5,7.6,4.3,10.4s6.5,4.3,10.4,4.3s7.6-1.5,10.4-4.3
					C51.1,102.7,52.6,98.9,52.6,95z"/>
				<path d="M43.4,94.3c0-2,3.1-2,3.1,0C46.4,96.3,43.4,96.3,43.4,94.3z"/>
				<path d="M41.2,101l1.1,2.9l-1.6,0.6c-1.8,0.7-3.9,0.7-5.7,0l0,0l-1.6-0.6l1.1-2.9l1.6,0.6c1.1,0.4,2.3,0.4,3.4,0L41.2,101z"/>
				<path d="M29.5,94.3c0-2,3.1-2,3.1,0S29.5,96.3,29.5,94.3z"/>
			</g>
		</g>
	</g>
</g>
<g id="Layer_7_00000042717999357893301760000000855885267568530853_">
</g>
<g id="Layer_8_00000168831599467053464300000003505523461608539011_">
</g>
<g id="Layer_9_00000089543259283313251050000005252079673544207528_">
</g>
<g id="Layer_10_00000084509998272139497780000008077192264451833754_">
</g>
<g id="Layer_11_00000116220595310884250560000013807966725250984093_">
</g>
<g id="Layer_12">
</g>
<g id="Layer_13">
</g>
<g id="Layer_14">
</g>
<g id="Layer_15">
</g>
<g id="Layer_16">
</g>
<g id="Layer_17">
</g>
<g id="Layer_18">
</g>
</svg>
