<?xml version="1.0" encoding="utf-8"?>
<!-- Generator: Adobe Illustrator 27.1.1, SVG Export Plug-In . SVG Version: 6.00 Build 0)  -->
<svg version="1.1" id="Layer_1" xmlns="http://www.w3.org/2000/svg" xmlns:xlink="http://www.w3.org/1999/xlink" x="0px" y="0px"
	 viewBox="0 0 133 133" style="enable-background:new 0 0 133 133;" xml:space="preserve">
<style type="text/css">
	.st0{fill:#5B8DA5;}
	.st1{fill:#FFFFFF;}
</style>
<g id="Layer_2_00000010311310429212324450000001366469100749219461_">
	<path class="st0" d="M121,133H12c-6.6,0-12-5.4-12-12V12C0,5.4,5.4,0,12,0h109c6.6,0,12,5.4,12,12v109C133,127.6,127.6,133,121,133
		z"/>
</g>
<g id="Layer_1_00000072276962015000481480000003079525219390659743_">
</g>
<g id="Layer_3">
</g>
<g id="Layer_5">
</g>
<g id="Layer_6">
</g>
<g id="Layer_7">
</g>
<g id="Layer_8">
</g>
<g id="Layer_9">
</g>
<g id="Layer_10">
</g>
<g id="Layer_11">
	<g>
		<g id="XMLID_00000042700015888007565880000012548678139550242985_">
			<g>
				<path d="M111.8,56.5c3.8,2.7,4.8,6.8,3.2,11.8c-0.5,1.5-1.7,2.7-3.5,3.3c0.6,4.3-1.7,7.2-4.2,8.6c-1.3,0.7-2.8,1.1-4.2,1.1
					c-2.4,0-4.8-1-6.5-3l-2.8-3c-1.4,1.6-3.1,3-5,4c0.9,0.9,1.5,1.9,1.6,3c0.2,1.7-0.5,3.3-2.1,4.9c-2.5,2.5-6.2,3.2-9.7,3.2
					c-1.6,0-3-0.1-4.3-0.3c-1.1,1.8-2.5,2.9-4.1,3.4V99l3.9,2.6c0.7,0.5,0.9,1.4,0.4,2.1c-0.5,0.7-1.4,0.9-2.1,0.4l-2.2-1.5v1.7
					c0,0.8-0.7,1.5-1.5,1.5c-0.8,0-1.5-0.7-1.5-1.5v-1.7l-2.2,1.5c-0.3,0.2-0.6,0.2-0.8,0.2c-0.5,0-1-0.2-1.3-0.7
					c0-0.1,0-0.1-0.1-0.2c0,0.1,0,0.2-0.1,0.2c-0.5,0.7-1.4,0.9-2.1,0.4l-2.2-1.5v1.7c0,0.8-0.7,1.5-1.5,1.5c-0.8,0-1.5-0.7-1.5-1.5
					v-1.7l-2.2,1.5c-0.3,0.2-0.5,0.2-0.8,0.2c-0.5,0-1-0.2-1.3-0.7c-0.5-0.7-0.3-1.6,0.4-2.1l3.9-2.6v-5.5c-3.5-1-6.1-5.6-6.1-11.1
					c0-0.2,0-0.4,0-0.7c-5.2-0.8-11.7-2.3-16-5.4c-4-2.9-5.6-8.4-4-13.2c1.5-4.4,1.9-7.8,1-9.4c-0.2-0.5-0.6-0.7-1.1-0.8
					c-0.3-0.1-0.6-0.2-0.8-0.3c-0.7,4.4-1.4,7.7-1.9,9.8c-1.1,4.6-3.3,5.2-4.3,5.2c-0.2,0-0.3,0-0.4,0c-1.6-0.3-3.1-2.1-2.8-5.7
					c0.1-1.8,1.1-4.5,2.1-7.7c0.1-0.4,0.3-0.8,0.4-1.2h-1c-0.6,0-1.2-0.4-1.4-1c-0.2-0.6,0-1.3,0.5-1.7l3.6-2.9
					c0.1-0.4,0.2-0.8,0.3-1.1c0.2-1.4,1.5-2.4,2.9-2.4c0.4,0,0.8,0.1,1.1,0.2c1-1.2,2.3-2.1,3.8-2.8c2.8-1.3,6.6-2.4,9.3-0.7
					c1.8,1.1,2.7,3.2,2.7,6.3c0,5,0.4,6.6,0.7,7.1c0.5-0.2,1.7-1,4.3-3.6c1.7-1.7,4.4-4,7.9-6l-1.9-1.6c-1.5-1.3-2.3-3.5-2-5.7
					c0.2-1.8,1.2-3.3,2.6-4c1.2-0.6,2.5-0.8,4-0.4c0.6-2,2-3.8,4-4.8c2.2-1.1,4.8-1.1,7.4,0c0.4-2.2,1.8-4.2,3.8-5.5
					c1.5-0.9,5.4-2.5,10.4,0.8c1.1-1.4,2.7-2.4,4.5-2.9c2.8-0.6,6.3,0.1,8.2,1.8c2.1,1.8,3,4.5,2.8,7.2c3.8-0.7,6.1,0.6,7.3,2
					c2.1,2.2,2.6,5.5,2.4,7.8c2.5,0.4,4.3,1.7,5.1,3.6C117.2,48,116.2,52.7,111.8,56.5z M112.1,67.3c1.4-4.2,0.4-7.2-3.2-9.1
					c0.7,1.7,1.2,3.7,1.1,5.7c0,2.1-0.6,3.9-1.6,5.3c0.4,0,0.7-0.1,1.1-0.1C110.3,68.9,111.7,68.5,112.1,67.3z M109,54.9
					c4.1-3,5.1-6.5,3.1-11c-0.7-1.5-2.7-1.9-4.2-2c-0.7,0-1.4,0-2.2,0.1c1.6,1.3,2.7,3,3.1,4.9c0.5,2.5-0.1,5.2-1.5,7.3
					C107.8,54.4,108.4,54.6,109,54.9z M105.9,77.5c1.9-1,2.9-3,2.6-5.4c-0.1,0-0.2,0-0.4,0c-0.6,0-1.1-0.1-1.7-0.1
					c-0.1,1.4-0.5,3.3-1.9,4.7c-0.6,0.6-1.3,1-2,1.4C103.8,78.3,104.9,78,105.9,77.5z M107,63.8c0.1-3.2-1.5-6.4-3-7.3
					c-0.2,0-0.3-0.1-0.5-0.1c1.2,1.8,2,3.9,2,6c0,1.5-0.5,3.5-2.3,5.3c0.6,0.3,1.1,0.5,1.7,0.7C106.5,67.3,106.9,65.3,107,63.8z
					 M106.7,38.9c0.1-1.5-0.1-4.1-1.6-5.6c-1.3-1.4-3.3-1.6-6.1-0.7c0,0.1-0.1,0.1-0.1,0.2L98.2,34c1.5,0.3,2.7,0.9,3.6,1.9
					c0.9,1.1,1.2,2.4,1.3,3.5C104.3,39.1,105.5,38.9,106.7,38.9z M104,53.4c1.5-1.5,2.2-3.8,1.8-5.8c-0.4-2.1-2-3.6-4.4-4.5
					c-0.5,0.2-1.1,0.4-1.7,0.6c1.2,1.1,2.1,2.3,2.5,3.8c0.6,2.1,0.2,4-0.4,5.5C102.5,53.1,103.3,53.3,104,53.4z M102.4,74.7
					c1-1,1.1-2.5,1.1-3.5c-0.5-0.2-1-0.4-1.6-0.7c-0.2,2.7-1.3,4.3-3.5,5.2l0.1,0.1C100.2,75.9,101.6,75.5,102.4,74.7z M102.5,62.3
					c0.1-2.5-1.8-5.2-3.7-6.6c-0.4,0-0.9-0.1-1.4-0.1c1.4,3.3,1.7,6.8,1.1,10.3c-0.5,2.4-1.4,4.7-2.8,6.8l0.4,0.5
					c2.4-0.5,3-1.5,2.8-5.2c0-0.6,0.2-1.1,0.7-1.4C101.5,65.5,102.4,64.1,102.5,62.3z M100,40.4c0.1-0.9,0-1.8-0.6-2.5
					c-0.5-0.6-1.5-1-2.8-1L95.6,39c0.4,0.2,0.9,0.5,1.2,0.9s0.6,0.9,0.8,1.3C98.4,41,99.3,40.6,100,40.4z M98.6,52.7
					c0.5-1,1.1-2.7,0.7-4.4c-0.3-1.2-1.3-2.3-2.8-3.2c-1.7,0.7-3.4,1.6-5.2,2.5c1.9,1.5,3.4,3.2,4.6,5
					C96.8,52.6,97.7,52.6,98.6,52.7z M96.4,30.9c1-2.5,0.5-5-1.2-6.6c-1-0.9-3.4-1.6-5.5-1.1c-1.6,0.4-2.7,1.3-3.3,2.7
					c-0.3,0.7-0.5,1.6-0.6,2.6c2.3-0.8,4.6-0.8,6.5,0c1.5,0.6,2.8,1.8,3.7,3.4l0.3-0.6C96.3,31.2,96.4,31,96.4,30.9z M95.5,65.4
					c0.7-3.7,0.1-7.3-1.8-10.6c-1.4-2.4-3.4-4.5-6.1-6.2c-0.4-0.3-0.7-0.8-0.7-1.3c0-0.5,0.3-1,0.8-1.3c0.3-0.2,0.7-0.4,1.1-0.6
					l2-3.7c-0.2-0.7-0.7-1.7-1.6-2.2c-0.8-0.5-1.9-0.5-3.3-0.1v5.7c0,0.5-0.3,1-0.7,1.3c-0.4,0.3-1,0.3-1.5,0.1
					c-2.8-1.3-5.5-2.2-8.2-2.7c-2.9-0.5-5.8-0.6-8.7-0.1c-2.5,0.4-4.9,1.1-7.2,2.2c-4.1,1.9-7.2,4.6-9.1,6.5
					c-2.3,2.3-4.3,4.2-6.1,4.5c-1.8,4-5.3,8.2-12.1,8.2c-0.1,0-0.1,0-0.2,0c-0.7,3.3,0.5,6.8,3.2,8.8c3.1,2.3,8.2,4,14.8,4.9
					c-1.6-1.7-2.8-3.7-3.4-6c-0.6-2.2-0.8-5.4,1.3-8.3c2.3-3.2,6.9-5.1,13.5-5.5c2.5-0.2,4.9-0.2,7.1,0c2.5,0.2,4.8,0.6,6.8,1.2
					c7.3,2.3,7.9,6.6,7.9,7.9c0,0.9-0.2,1.7-0.6,2.4c0.8,0.6,1.4,1.3,1.8,2.2c0.4,1,0.7,2.4,0.1,4.1c0.2,0.1,0.4,0.1,0.6,0.2
					c0.3,0.1,0.6,0.3,0.9,0.5c2.6-1.1,4.9-2.9,6.6-5.2C94,70.1,95,67.8,95.5,65.4z M94.9,42.5c-0.1-0.2-0.2-0.3-0.3-0.5
					c-0.1-0.1-0.2-0.2-0.4-0.3l-0.8,1.5C93.9,42.9,94.4,42.7,94.9,42.5z M92.4,38.6l1.8-3.3c-0.7-2-1.7-3.4-3.1-4
					c-1.9-0.8-4-0.1-5.3,0.5l0,4.5c1.8-0.3,3.5-0.1,4.8,0.6C91.3,37.4,91.9,38,92.4,38.6z M86.2,85.1c0.6-0.6,1.3-1.6,1.2-2.4
					c-0.1-0.8-0.9-1.6-2.3-2.4c-0.4-0.3-0.9-0.5-1.4-0.7c-0.6-0.3-1.3-0.5-1.9-0.7c-0.7-0.2-1.4-0.4-2.1-0.5
					c0.4,1.1,0.7,2.4,0.6,3.7c-0.1,2-1,3.8-2.4,5.3C81.7,87.5,84.6,86.7,86.2,85.1z M82.7,28.1c0.1-0.8,0.2-1.6,0.4-2.3
					c-2.7-1.9-5.4-2.3-7.5-1c-1.6,1-2.6,2.7-2.6,4.4c1.2-1.1,2.6-1.7,3.6-1.9C78.7,26.9,80.8,27.2,82.7,28.1z M82.7,42.8v-3.8
					c-2.5-1.8-4.5-1.8-6.6-0.2l0.7,2.1C78.8,41.5,80.8,42,82.7,42.8z M82.7,35.6v-4c-1.6-1.1-3.7-1.7-5.4-1.3
					c-1.4,0.3-2.5,1.2-3.2,2.6l1,3.1C77.5,34.4,80.1,34.3,82.7,35.6z M81.5,75.6c0.3-0.7,0.3-1.3,0-1.9c-0.3-0.8-1.1-1.3-2-1.5
					l-0.4-0.1c0.1,1.1,0,2.1-0.4,2.9l1.2,0.2C80.5,75.4,81,75.5,81.5,75.6z M79.6,69.2c0.3-0.2,0.5-0.7,0.4-1.2
					c0-0.8-0.5-1.8-1.6-2.8c0.3,1.2,0.3,2.5,0.2,3.8L79.6,69.2z M77.3,81.9c0.1-2-0.8-3.7-1.8-4.3L72.2,77c0.3,1.5,0.3,3.1-0.1,4.7
					c-0.5,1.8-1.5,3.2-2.8,4.1c1.3,0.4,2.7,0.8,4.1,1C76.4,85.5,77.2,83.4,77.3,81.9z M75.7,74.5c0.5-0.6,0.9-1.6,0.2-3L73.4,71
					c0.1,0.7,0,1.5-0.2,2.2c-0.1,0.3-0.2,0.6-0.4,0.8L75.7,74.5z M75.7,68.4c0.2-2.2-0.4-4-1.8-5.5c-0.3-0.1-0.7-0.2-1-0.3
					c0.2,0.4,0.4,0.8,0.5,1.2c0.3,1.3,0.2,2.7-0.3,4.1L75.7,68.4z M73.5,40.5l-0.3-0.8c-0.1,0-0.2,0-0.2-0.1
					c-2.2-0.6-4.3-0.9-5.7,0.9C69.4,40.4,71.4,40.3,73.5,40.5z M72.1,36.4l-0.8-2.3c-3.9-0.5-5.7,0.5-7,2.5l1.1,1.5
					C67.5,36,70.2,36,72.1,36.4z M70.1,67.2c0.4-0.8,0.7-1.8,0.4-2.7c-0.3-1.3-1.5-2.1-2.5-2.7c-1.9-0.1-4-0.1-6.3,0
					c-5.6,0.4-9.5,1.8-11.2,4.3c-1.4,2-1.2,4.2-0.8,5.8c0.9,3.4,3.6,6.3,7.1,7.5c2.5,0.9,4.8,2.1,7.1,3.9c0.4,0.3,1,0.6,1.6,0.9
					c2.4-0.4,3.5-2.1,3.8-3.4c0.5-1.9,0.1-3.8-0.5-4.5l-4.4-0.8c-0.8-0.2-1.4-0.9-1.2-1.8c0.2-0.8,0.9-1.4,1.8-1.2l4.5,0.8
					c0.4-0.2,0.8-0.6,0.9-1.1c0.2-0.6,0.1-1.3-0.3-1.9l-4.2-0.8c-0.8-0.2-1.4-1-1.2-1.8c0.2-0.8,0.9-1.4,1.8-1.2L70.1,67.2z
					 M62.3,34.3c1.8-2.4,4.2-3.4,7.6-3.4c-2-1.2-4-1.4-5.6-0.5c-1.3,0.7-2.3,2-2.5,3.4C61.9,34,62.1,34.2,62.3,34.3z M68.8,90.7
					c0.8,0,1.6-0.5,2.3-1.3c-2.4-0.6-4.7-1.3-6.6-2.2c0,0,0,0,0,0c0,0,0,0-0.1,0c-0.2-0.1-0.3-0.2-0.5-0.3c-1,3.4-3,5.8-5.4,6.6V99
					l3.9,2.6c0.2,0.2,0.4,0.4,0.5,0.6c0.1-0.2,0.3-0.5,0.5-0.6l3.9-2.6v-5.5c-1.3-0.4-2.5-1.2-3.4-2.5c-0.5-0.7-0.4-1.6,0.3-2.1
					c0.7-0.5,1.6-0.4,2.1,0.3C66.8,89.9,67.6,90.7,68.8,90.7z M62.8,41.5c-0.7-0.1-1.4-0.1-2.1,0.2c-0.5,0.2-0.9,0.5-1.3,1
					C60.5,42.3,61.6,41.9,62.8,41.5z M62,38.5l-0.2-0.2c-2.9,0.1-4.1,0.8-4.8,2.6c0.7-0.9,1.5-1.6,2.5-2
					C60.4,38.6,61.2,38.5,62,38.5z M57,90.7c1.8,0,3.6-2.3,4.2-5.5c-2.4-1.7-4.3-2.4-5.5-2.9c-1.1-0.4-2.2-0.9-3.1-1.5
					c-0.1,0.5-0.1,1.1-0.1,1.6C52.5,87.3,54.8,90.7,57,90.7z M58.6,35.6c-0.9-0.3-1.7-0.3-2.3,0c-0.7,0.4-0.9,1.2-1,1.7
					c0,0.2,0,0.3,0,0.5C56.2,36.7,57.3,36,58.6,35.6z M41.6,55.7c-1-1.5-1.2-4.4-1.2-8.9c0-1.9-0.4-3.2-1.3-3.7
					c-1.2-0.8-3.5-0.4-6.4,0.9c-1.4,0.6-2.5,1.5-3.2,2.6c0,0.2,0,0.5,0,0.7l0,0.2c-0.1,0.6-0.2,1.3-0.3,2c0.2,0.1,0.5,0.3,1,0.4
					c1.4,0.3,2.4,1.1,3,2.3c1.1,2.1,1.1,5.4-0.2,9.8C36.9,61.8,39.8,59.7,41.6,55.7z M26.2,48c0,0.2-0.1,0.3-0.1,0.5
					c-0.2,1-0.5,2.1-1,3.3c-0.3,1.1-0.7,2.2-1,3.2c-0.9,2.8-1.8,5.6-2,7c-0.1,1.3,0.1,2,0.3,2.3c0.3-0.3,0.8-1.1,1.3-2.8
					c0.5-2.1,1.2-5.7,2-10.5c0.1-0.5,0.2-0.9,0.2-1.3C26,49.1,26.1,48.5,26.2,48z"/>
				<path class="st1" d="M108.9,58.2c3.6,2,4.7,4.9,3.2,9.1c-0.4,1.2-1.8,1.6-2.6,1.7c-0.3,0.1-0.7,0.1-1.1,0.1
					c1-1.4,1.6-3.2,1.6-5.3C110,61.9,109.6,59.9,108.9,58.2z"/>
				<path class="st1" d="M112.1,43.8c2,4.6,1,8-3.1,11c-0.5-0.2-1.1-0.5-1.7-0.7c1.4-2.1,2.1-4.8,1.5-7.3c-0.4-2-1.5-3.7-3.1-4.9
					c0.8-0.1,1.5-0.2,2.2-0.1C109.4,41.9,111.4,42.3,112.1,43.8z"/>
				<path class="st1" d="M108.5,72.1c0.3,2.4-0.7,4.4-2.6,5.4c-0.9,0.5-2.1,0.7-3.3,0.6c0.8-0.3,1.4-0.8,2-1.4
					c1.4-1.4,1.8-3.3,1.9-4.7c0.6,0.1,1.1,0.1,1.7,0.1C108.3,72.2,108.4,72.1,108.5,72.1z"/>
				<path class="st1" d="M104,56.5c1.5,0.9,3.1,4.1,3,7.3c0,1.5-0.5,3.5-2.2,4.7c-0.5-0.2-1.1-0.4-1.7-0.7c1.8-1.8,2.3-3.8,2.3-5.3
					c0.1-2.2-0.8-4.3-2-6C103.6,56.4,103.8,56.4,104,56.5z"/>
				<path class="st1" d="M105.1,33.3c1.5,1.5,1.7,4.1,1.6,5.6c-1.1,0.1-2.3,0.2-3.6,0.5c-0.1-1.1-0.4-2.4-1.3-3.5
					c-0.9-1-2.1-1.6-3.6-1.9l0.7-1.3c0-0.1,0.1-0.1,0.1-0.2C101.8,31.7,103.8,31.9,105.1,33.3z"/>
				<path class="st1" d="M105.8,47.5c0.4,2-0.3,4.3-1.8,5.8c-0.7-0.1-1.5-0.3-2.3-0.4c0.6-1.5,1-3.5,0.4-5.5
					c-0.4-1.4-1.2-2.7-2.5-3.8c0.6-0.2,1.2-0.4,1.7-0.6C103.9,44,105.4,45.5,105.8,47.5z"/>
				<path class="st1" d="M103.5,71.2c0,0.9-0.1,2.5-1.1,3.5c-0.8,0.8-2.2,1.2-3.9,1.1l-0.1-0.1c2.2-0.9,3.3-2.5,3.5-5.2
					C102.5,70.8,103,71,103.5,71.2z"/>
				<path class="st1" d="M98.8,55.8c1.9,1.4,3.7,4.1,3.7,6.6c0,1.7-1,3.2-2.9,4.3c-0.5,0.3-0.7,0.8-0.7,1.4c0.3,3.7-0.4,4.7-2.8,5.2
					l-0.4-0.5c1.3-2.1,2.3-4.4,2.8-6.8c0.7-3.6,0.3-7.1-1.1-10.3C97.9,55.7,98.3,55.7,98.8,55.8z"/>
				<path class="st1" d="M99.4,37.9c0.6,0.7,0.7,1.6,0.6,2.5c-0.8,0.3-1.6,0.6-2.4,0.9c-0.2-0.5-0.5-0.9-0.8-1.3S96,39.2,95.6,39
					l1.1-2.1C98,36.9,98.9,37.2,99.4,37.9z"/>
				<path class="st1" d="M99.2,48.3c0.5,1.6-0.2,3.3-0.7,4.4c-0.9,0-1.8-0.1-2.8-0.1c-1.2-1.8-2.7-3.5-4.6-5c1.8-1,3.6-1.8,5.2-2.5
					C97.9,46,98.9,47.1,99.2,48.3z"/>
				<path class="st1" d="M95.2,24.3c1.8,1.5,2.3,4.1,1.2,6.6c0,0.2-0.1,0.3-0.2,0.5l-0.3,0.6c-0.9-1.6-2.2-2.7-3.7-3.4
					c-1.9-0.8-4.2-0.8-6.5,0c0.1-1,0.3-1.9,0.6-2.6c0.6-1.4,1.8-2.4,3.3-2.7C91.8,22.7,94.2,23.4,95.2,24.3z"/>
				<path class="st1" d="M93.6,54.9c1.9,3.2,2.6,6.9,1.8,10.6C95,67.8,94,70.1,92.5,72c-1.7,2.3-4,4.1-6.6,5.2
					c-0.3-0.2-0.6-0.3-0.9-0.5c-0.2-0.1-0.4-0.1-0.6-0.2c0.6-1.7,0.3-3.1-0.1-4.1c-0.4-0.9-1-1.6-1.8-2.2c0.4-0.7,0.6-1.5,0.6-2.4
					c0-1.3-0.6-5.6-7.9-7.9c-2-0.6-4.3-1-6.8-1.2c-2.1-0.2-4.5-0.1-7,0c-6.6,0.4-11.2,2.3-13.5,5.5c-2.1,2.9-1.9,6.1-1.3,8.3
					c0.6,2.2,1.8,4.3,3.4,6c-6.6-0.9-11.7-2.6-14.8-4.9c-2.7-1.9-3.9-5.4-3.2-8.8c0.1,0,0.1,0,0.2,0c6.8,0,10.3-4.2,12.1-8.2
					c1.8-0.3,3.8-2.2,6.1-4.5c1.9-1.9,5-4.5,9.1-6.5c2.3-1.1,4.7-1.8,7.1-2.2c2.8-0.5,5.8-0.4,8.7,0.1c2.7,0.5,5.4,1.4,8.2,2.7
					c0.5,0.2,1,0.2,1.5-0.1c0.4-0.3,0.7-0.8,0.7-1.3v-5.7c1.4-0.3,2.5-0.3,3.3,0.1c0.9,0.5,1.3,1.5,1.6,2.2l-2,3.7
					c-0.4,0.2-0.7,0.4-1.1,0.6c-0.5,0.3-0.8,0.7-0.8,1.3c0,0.5,0.2,1,0.7,1.3C90.2,50.4,92.2,52.5,93.6,54.9z"/>
				<path class="st1" d="M94.6,42c0.1,0.2,0.2,0.3,0.3,0.5c-0.5,0.2-1,0.4-1.5,0.7l0.8-1.5C94.3,41.8,94.5,41.9,94.6,42z"/>
				<path class="st1" d="M94.1,35.3l-1.8,3.3c-0.4-0.6-1-1.2-1.8-1.6c-1.3-0.8-2.9-1-4.8-0.6l0-4.5c1.3-0.6,3.4-1.3,5.3-0.5
					C92.4,31.9,93.4,33.2,94.1,35.3z"/>
				<path class="st1" d="M87.4,82.7c0.1,0.8-0.6,1.8-1.2,2.4c-1.6,1.6-4.5,2.4-8.3,2.3c1.4-1.4,2.3-3.2,2.4-5.3
					c0.1-1.3-0.2-2.6-0.6-3.7c0.7,0.1,1.4,0.3,2.1,0.5c0.7,0.2,1.3,0.4,1.9,0.7c0.5,0.2,0.9,0.4,1.4,0.7
					C86.5,81.1,87.4,81.9,87.4,82.7z"/>
				<path class="st1" d="M83.2,25.8c-0.2,0.7-0.3,1.5-0.4,2.3c-1.9-0.9-4.1-1.2-6-0.8c-1.1,0.2-2.4,0.8-3.6,1.9c0-1.7,1-3.4,2.6-4.4
					C77.8,23.6,80.4,23.9,83.2,25.8z"/>
				<path class="st1" d="M82.7,39.1v3.8c-2-0.8-3.9-1.4-5.9-1.8l-0.7-2.1C78.2,37.3,80.3,37.3,82.7,39.1z"/>
				<path class="st1" d="M82.7,31.6v4c-2.6-1.3-5.2-1.2-7.6,0.3l-1-3.1c0.8-1.4,1.8-2.3,3.2-2.6C79.1,29.9,81.2,30.4,82.7,31.6z"/>
				<path class="st1" d="M81.5,73.7c0.3,0.6,0.2,1.2,0,1.9c-0.5-0.1-1-0.2-1.5-0.3l-1.2-0.2c0.4-0.9,0.5-1.9,0.4-2.9l0.4,0.1
					C80.5,72.4,81.2,73,81.5,73.7z"/>
				<path class="st1" d="M80.1,68c0,0.5-0.2,0.9-0.4,1.2L78.7,69c0.2-1.3,0.1-2.6-0.2-3.8C79.6,66.1,80.1,67.2,80.1,68z"/>
				<path class="st1" d="M75.5,77.6c1,0.6,1.9,2.4,1.8,4.3c-0.1,1.6-0.9,3.6-3.9,4.9c-1.4-0.2-2.8-0.6-4.1-1c1.3-1,2.3-2.4,2.8-4.1
					c0.4-1.6,0.4-3.2,0.1-4.7L75.5,77.6z"/>
				<path class="st1" d="M75.9,71.5c0.6,1.5,0.3,2.5-0.2,3L72.8,74c0.1-0.3,0.3-0.5,0.4-0.8c0.2-0.7,0.3-1.4,0.2-2.2L75.9,71.5z"/>
				<path class="st1" d="M74,62.8c1.4,1.5,2,3.4,1.8,5.5l-2.6-0.5c0.6-1.4,0.7-2.8,0.3-4.1c-0.1-0.4-0.2-0.8-0.5-1.2
					C73.3,62.7,73.6,62.8,74,62.8z"/>
				<path class="st1" d="M73.2,39.8l0.3,0.8c-2.1-0.2-4.1-0.2-6.2,0.1c1.4-1.8,3.5-1.5,5.7-0.9C73.1,39.7,73.2,39.7,73.2,39.8z"/>
				<path class="st1" d="M71.4,34.1l0.8,2.3c-1.9-0.3-4.6-0.4-6.7,1.8l-1.1-1.5C65.7,34.6,67.5,33.6,71.4,34.1z"/>
				<path class="st1" d="M70.5,64.5c0.2,0.9,0,1.9-0.4,2.7l-3.7-0.7c-0.8-0.2-1.6,0.4-1.8,1.2c-0.2,0.8,0.4,1.6,1.2,1.8l4.2,0.8
					c0.4,0.7,0.5,1.3,0.3,1.9c-0.2,0.5-0.5,0.9-0.9,1.1l-4.5-0.8c-0.8-0.2-1.6,0.4-1.8,1.2c-0.2,0.8,0.4,1.6,1.2,1.8l4.4,0.8
					c0.6,0.7,1,2.6,0.5,4.5c-0.4,1.3-1.4,3-3.8,3.4c-0.6-0.3-1.2-0.6-1.6-0.9c-2.3-1.8-4.6-3-7.1-3.9c-3.5-1.2-6.2-4.1-7.1-7.5
					c-0.4-1.6-0.6-3.8,0.8-5.8c1.7-2.4,5.6-3.9,11.2-4.3c2.3-0.2,4.4-0.2,6.3,0C69,62.4,70.2,63.3,70.5,64.5z"/>
				<path class="st1" d="M69.9,31c-3.3-0.1-5.8,1-7.6,3.4c-0.2-0.2-0.4-0.3-0.6-0.5c0.3-1.5,1.2-2.8,2.5-3.4
					C65.9,29.6,67.9,29.8,69.9,31z"/>
				<path class="st1" d="M60.7,41.7c0.7-0.3,1.4-0.3,2.1-0.2c-1.1,0.3-2.2,0.7-3.3,1.2C59.8,42.2,60.2,41.9,60.7,41.7z"/>
				<path class="st1" d="M61.8,38.2l0.2,0.2c-0.8,0-1.6,0.1-2.3,0.4c-1,0.4-1.9,1.1-2.5,2C57.7,39,59,38.3,61.8,38.2z"/>
				<path class="st1" d="M61.2,85.2c-0.7,3.2-2.4,5.5-4.2,5.5c-2.2,0-4.5-3.4-4.5-8.3c0-0.5,0-1,0.1-1.6c1,0.6,2,1.1,3.1,1.5
					C56.9,82.8,58.8,83.5,61.2,85.2z"/>
				<path class="st1" d="M56.3,35.7c0.7-0.3,1.5-0.3,2.3,0c-1.3,0.4-2.5,1-3.3,2.2c0-0.2,0-0.3,0-0.5C55.4,36.9,55.6,36,56.3,35.7z"
					/>
				<path class="st1" d="M40.3,46.8c0,4.5,0.2,7.4,1.2,8.9c-1.8,4-4.7,6.1-8.6,6.3c1.3-4.4,1.3-7.7,0.2-9.8c-0.7-1.2-1.7-2-3-2.3
					c-0.5-0.1-0.8-0.3-1-0.4c0.1-0.7,0.2-1.4,0.3-2l0-0.2c0-0.2,0-0.5,0-0.7c0.8-1.1,1.8-2,3.2-2.6c2.9-1.3,5.2-1.6,6.4-0.9
					C39.9,43.6,40.3,44.8,40.3,46.8z M34.3,46.8c0-2-3-2-3,0C31.2,48.8,34.3,48.8,34.3,46.8z"/>
				<path d="M31.2,46.8c0-2,3-2,3,0C34.3,48.8,31.2,48.8,31.2,46.8z"/>
				<path class="st1" d="M26.1,48.5c0-0.2,0.1-0.3,0.1-0.5c-0.1,0.5-0.2,1.2-0.3,1.8c-0.1,0.4-0.1,0.8-0.2,1.3
					c-0.8,4.8-1.5,8.3-2,10.5c-0.4,1.7-1,2.5-1.3,2.8c-0.2-0.3-0.4-1-0.3-2.3c0.1-1.4,1.1-4.3,2-7c0.4-1.1,0.7-2.2,1-3.2
					C25.6,50.5,25.9,49.5,26.1,48.5z"/>
			</g>
		</g>
	</g>
</g>
</svg>
