<?xml version="1.0" encoding="utf-8"?>
<!-- Generator: Adobe Illustrator 26.3.1, SVG Export Plug-In . SVG Version: 6.00 Build 0)  -->
<svg version="1.1" xmlns="http://www.w3.org/2000/svg" xmlns:xlink="http://www.w3.org/1999/xlink" x="0px" y="0px"
	 viewBox="0 0 133 133" style="enable-background:new 0 0 133 133;" xml:space="preserve">
<style type="text/css">
	.st0{fill:#BCD0D8;}
	.st1{fill:#FFFFFF;}
</style>
<g id="Layer_2">
	<path class="st0" d="M121,133H12c-6.6,0-12-5.4-12-12V12C0,5.4,5.4,0,12,0h109c6.6,0,12,5.4,12,12v109C133,127.6,127.6,133,121,133
		z"/>
</g>
<g id="Layer_1">
</g>
<g id="Layer_3">
</g>
<g id="Layer_5">
</g>
<g id="Layer_6">
</g>
<g id="Layer_7">
</g>
<g id="Layer_8">
</g>
<g id="Layer_9">
</g>
<g id="Layer_10">
</g>
<g id="Layer_11">
	<g>
		<g id="XMLID_00000042700015888007565880000012548678139550242985_">
			<g>
				<path d="M111.83,56.47c3.75,2.71,4.84,6.75,3.15,11.81c-0.51,1.54-1.73,2.69-3.49,3.32c0.58,4.33-1.67,7.25-4.18,8.59
					c-1.32,0.71-2.75,1.05-4.16,1.05c-2.44,0-4.83-1.03-6.53-2.96l-2.79-3.03c-1.43,1.62-3.12,2.98-4.99,4.01
					c0.93,0.93,1.47,1.95,1.61,3.04c0.22,1.66-0.49,3.31-2.1,4.92c-2.46,2.47-6.23,3.16-9.67,3.16c-1.56,0-3.04-0.14-4.31-0.32
					c-1.08,1.76-2.52,2.94-4.08,3.42v5.5l3.87,2.57c0.7,0.47,0.88,1.41,0.42,2.11c-0.47,0.69-1.4,0.88-2.1,0.42l-2.19-1.46v1.71
					c0,0.84-0.68,1.51-1.51,1.51c-0.84,0-1.52-0.67-1.52-1.51v-1.72l-2.19,1.47c-0.26,0.17-0.55,0.25-0.84,0.25
					c-0.49,0-0.97-0.23-1.26-0.67c-0.04-0.07-0.05-0.14-0.09-0.22c-0.03,0.07-0.04,0.15-0.08,0.22c-0.47,0.69-1.41,0.88-2.1,0.42
					l-2.19-1.46v1.71c0,0.84-0.68,1.51-1.52,1.51c-0.83,0-1.51-0.67-1.51-1.51v-1.72l-2.19,1.47c-0.26,0.17-0.55,0.25-0.84,0.25
					c-0.49,0-0.97-0.23-1.26-0.67c-0.46-0.7-0.28-1.64,0.42-2.11l3.87-2.57v-5.47c-3.5-1.03-6.06-5.55-6.06-11.14
					c0-0.22,0-0.45,0.02-0.68c-5.18-0.76-11.7-2.3-16-5.45c-4.01-2.93-5.65-8.38-3.99-13.25c1.49-4.4,1.86-7.81,1.02-9.36
					c-0.25-0.45-0.59-0.71-1.11-0.84c-0.3-0.07-0.56-0.17-0.83-0.26c-0.72,4.38-1.35,7.69-1.88,9.76c-1.15,4.62-3.26,5.23-4.31,5.23
					c-0.16,0-0.29-0.01-0.4-0.03c-1.61-0.26-3.1-2.13-2.81-5.69c0.15-1.78,1.06-4.54,2.11-7.74c0.14-0.41,0.26-0.82,0.4-1.22h-1
					c-0.64,0-1.21-0.41-1.42-1.02c-0.22-0.61-0.03-1.28,0.47-1.68l3.59-2.9c0.09-0.38,0.19-0.76,0.26-1.1
					c0.24-1.37,1.47-2.39,2.92-2.39c0.4,0,0.77,0.1,1.13,0.25c1-1.17,2.28-2.13,3.8-2.83c2.76-1.26,6.61-2.4,9.3-0.67
					c1.77,1.14,2.67,3.25,2.67,6.28c0,5.04,0.38,6.61,0.67,7.09c0.49-0.16,1.66-0.95,4.33-3.62c1.72-1.72,4.4-4.03,7.91-5.99
					l-1.92-1.64c-1.51-1.29-2.31-3.51-2.04-5.65c0.22-1.82,1.18-3.28,2.63-4.01c1.2-0.62,2.55-0.75,3.95-0.42
					c0.59-2.05,2.02-3.84,3.98-4.83c2.22-1.13,4.81-1.1,7.36,0.03c0.43-2.18,1.79-4.22,3.84-5.47c1.51-0.93,5.39-2.54,10.43,0.8
					c1.09-1.44,2.66-2.43,4.54-2.85c2.83-0.63,6.26,0.13,8.15,1.79c2.05,1.79,3.03,4.48,2.77,7.21c3.77-0.67,6.06,0.6,7.34,1.96
					c2.07,2.17,2.58,5.51,2.39,7.83c2.49,0.43,4.3,1.66,5.14,3.59C117.2,48.05,116.19,52.7,111.83,56.47z M112.11,67.32
					c1.42-4.25,0.38-7.16-3.23-9.12c0.73,1.73,1.16,3.71,1.13,5.66c-0.04,2.09-0.6,3.86-1.59,5.26c0.37-0.02,0.73-0.05,1.07-0.11
					C110.3,68.87,111.73,68.47,112.11,67.32z M108.96,54.86c4.1-3.05,5.07-6.49,3.09-11.05c-0.67-1.55-2.66-1.92-4.2-1.95
					c-0.68-0.02-1.41,0.04-2.16,0.14c1.61,1.27,2.68,2.95,3.09,4.94c0.51,2.46-0.1,5.15-1.54,7.27
					C107.85,54.41,108.42,54.63,108.96,54.86z M105.89,77.52c1.95-1.04,2.88-3.01,2.62-5.4c-0.12,0-0.24,0.03-0.36,0.03
					c-0.56,0-1.11-0.05-1.66-0.13c-0.1,1.42-0.52,3.28-1.88,4.73c-0.57,0.6-1.26,1.04-2.02,1.39
					C103.77,78.26,104.95,78.02,105.89,77.52z M106.98,63.81c0.06-3.2-1.51-6.43-3.01-7.33c-0.15-0.04-0.33-0.06-0.48-0.09
					c1.19,1.75,2.04,3.86,1.99,6.03c-0.03,1.49-0.52,3.48-2.35,5.32c0.58,0.28,1.13,0.52,1.65,0.72
					C106.52,67.35,106.95,65.35,106.98,63.81z M106.65,38.86c0.14-1.46-0.09-4.07-1.55-5.6c-1.28-1.35-3.33-1.58-6.11-0.71
					c-0.03,0.06-0.06,0.12-0.09,0.18l-0.69,1.31c1.49,0.26,2.7,0.87,3.56,1.89c0.92,1.1,1.24,2.37,1.31,3.48
					C104.31,39.11,105.52,38.92,106.65,38.86z M104,53.4c1.48-1.53,2.23-3.85,1.82-5.85c-0.43-2.07-1.96-3.59-4.43-4.45
					c-0.51,0.18-1.08,0.38-1.69,0.62c1.23,1.07,2.06,2.33,2.46,3.77c0.57,2.06,0.16,4.04-0.42,5.53
					C102.52,53.12,103.27,53.26,104,53.4z M102.39,74.68c0.96-1.01,1.11-2.53,1.1-3.47c-0.5-0.2-1.03-0.43-1.56-0.7
					c-0.24,2.68-1.35,4.29-3.54,5.21l0.06,0.07C100.24,75.89,101.58,75.53,102.39,74.68z M102.46,62.35c0.06-2.49-1.8-5.18-3.66-6.6
					c-0.45-0.04-0.91-0.06-1.4-0.08c1.37,3.26,1.74,6.79,1.05,10.35c-0.46,2.41-1.42,4.71-2.76,6.77l0.45,0.49
					c2.39-0.52,3.03-1.47,2.76-5.2c-0.04-0.55,0.24-1.09,0.7-1.38C101.46,65.53,102.42,64.07,102.46,62.35z M100.04,40.36
					c0.08-0.87-0.04-1.82-0.59-2.48c-0.53-0.63-1.48-0.95-2.77-0.97L95.56,39c0.45,0.24,0.87,0.53,1.23,0.93s0.63,0.86,0.84,1.34
					C98.45,40.95,99.29,40.62,100.04,40.36z M98.57,52.69c0.51-1.03,1.13-2.74,0.67-4.38c-0.35-1.25-1.34-2.33-2.85-3.22
					c-1.65,0.73-3.37,1.56-5.2,2.52c1.86,1.47,3.38,3.15,4.58,4.99C96.77,52.61,97.7,52.64,98.57,52.69z M96.44,30.86
					c1.01-2.46,0.5-5.05-1.25-6.57c-1.04-0.92-3.38-1.59-5.5-1.12c-1.59,0.36-2.72,1.27-3.35,2.71c-0.33,0.74-0.52,1.64-0.59,2.64
					c2.32-0.79,4.59-0.81,6.48-0.03c1.54,0.65,2.77,1.78,3.71,3.38l0.3-0.56C96.31,31.17,96.4,31.02,96.44,30.86z M95.47,65.45
					c0.72-3.69,0.09-7.35-1.83-10.57c-1.39-2.38-3.45-4.46-6.12-6.18c-0.44-0.29-0.71-0.79-0.69-1.32c0.01-0.53,0.3-1.01,0.76-1.27
					c0.34-0.19,0.7-0.39,1.07-0.58l1.98-3.72c-0.22-0.74-0.66-1.7-1.57-2.22c-0.81-0.45-1.93-0.49-3.3-0.14v5.72
					c0,0.52-0.27,1-0.7,1.28c-0.45,0.28-1,0.31-1.47,0.08c-2.75-1.31-5.49-2.21-8.15-2.69c-2.92-0.54-5.84-0.58-8.69-0.11
					c-2.46,0.39-4.87,1.13-7.15,2.2c-4.14,1.94-7.24,4.58-9.12,6.46c-2.32,2.31-4.31,4.15-6.1,4.46c-1.81,4.01-5.34,8.2-12.15,8.2
					c-0.06,0-0.13,0-0.2,0c-0.69,3.32,0.53,6.8,3.19,8.75c3.12,2.28,8.24,3.96,14.8,4.91c-1.61-1.68-2.8-3.73-3.38-5.97
					c-0.57-2.2-0.81-5.43,1.29-8.33c2.33-3.22,6.87-5.07,13.5-5.51c2.55-0.17,4.92-0.18,7.05-0.03c2.48,0.16,4.75,0.56,6.75,1.19
					c7.27,2.26,7.87,6.61,7.88,7.89c0.01,0.88-0.21,1.69-0.58,2.37c0.78,0.57,1.41,1.31,1.78,2.19c0.42,0.98,0.7,2.39,0.07,4.08
					c0.2,0.08,0.42,0.13,0.61,0.22c0.31,0.14,0.63,0.31,0.94,0.47c2.62-1.12,4.9-2.89,6.6-5.23C94.01,70.1,95.02,67.82,95.47,65.45z
					 M94.86,42.47c-0.08-0.17-0.16-0.34-0.3-0.49c-0.1-0.11-0.24-0.23-0.41-0.32l-0.79,1.49C93.87,42.91,94.36,42.68,94.86,42.47z
					 M92.37,38.56l1.75-3.28c-0.67-2.05-1.69-3.41-3.07-3.99c-1.87-0.78-3.99-0.1-5.29,0.49l0.01,4.55
					c1.85-0.33,3.46-0.13,4.79,0.63C91.34,37.39,91.92,37.96,92.37,38.56z M86.21,85.08c0.63-0.62,1.35-1.55,1.24-2.38
					c-0.09-0.77-0.91-1.63-2.29-2.43c-0.45-0.26-0.93-0.49-1.39-0.7c-0.62-0.28-1.26-0.51-1.95-0.72c-0.66-0.2-1.37-0.37-2.11-0.51
					c0.44,1.14,0.68,2.42,0.6,3.71c-0.11,2.04-0.96,3.85-2.37,5.29C81.69,87.46,84.61,86.69,86.21,85.08z M82.74,28.1
					c0.07-0.8,0.2-1.57,0.41-2.27c-2.7-1.9-5.39-2.27-7.5-0.98c-1.59,0.97-2.58,2.71-2.56,4.37c1.21-1.15,2.55-1.68,3.64-1.92
					C78.65,26.89,80.81,27.21,82.74,28.1z M82.74,42.85v-3.77c-2.46-1.76-4.5-1.82-6.57-0.15l0.71,2.12
					C78.81,41.45,80.77,42.05,82.74,42.85z M82.74,35.58v-4c-1.59-1.15-3.67-1.68-5.37-1.31c-1.4,0.3-2.47,1.19-3.23,2.58l1.02,3.07
					C77.54,34.41,80.11,34.31,82.74,35.58z M81.5,75.63c0.28-0.69,0.3-1.32,0.04-1.92c-0.32-0.75-1.06-1.3-1.98-1.49l-0.36-0.07
					c0.14,1.08,0,2.08-0.37,2.95L80,75.3C80.51,75.4,81.01,75.51,81.5,75.63z M79.64,69.15c0.28-0.24,0.46-0.67,0.45-1.18
					c0-0.81-0.48-1.84-1.57-2.82c0.29,1.2,0.35,2.47,0.19,3.81L79.64,69.15z M77.29,81.88c0.12-1.96-0.81-3.72-1.77-4.32l-3.28-0.59
					c0.34,1.46,0.33,3.13-0.11,4.7c-0.49,1.76-1.49,3.16-2.84,4.14c1.31,0.41,2.7,0.75,4.09,1C76.42,85.5,77.2,83.43,77.29,81.88z
					 M75.66,74.52c0.51-0.56,0.87-1.57,0.25-3.03l-2.56-0.51c0.09,0.73,0.03,1.46-0.2,2.18c-0.09,0.29-0.24,0.56-0.38,0.83
					L75.66,74.52z M75.72,68.36c0.22-2.17-0.36-3.99-1.76-5.52c-0.33-0.09-0.65-0.19-0.99-0.27c0.22,0.42,0.37,0.82,0.46,1.18
					c0.35,1.3,0.24,2.69-0.31,4.09L75.72,68.36z M73.51,40.52l-0.26-0.77c-0.08-0.02-0.15-0.03-0.24-0.06
					c-2.2-0.58-4.29-0.93-5.67,0.92C69.37,40.37,71.43,40.32,73.51,40.52z M72.12,36.38l-0.76-2.29c-3.88-0.49-5.68,0.53-6.98,2.54
					l1.07,1.51C67.48,36.01,70.19,36.04,72.12,36.38z M70.09,67.24c0.4-0.81,0.67-1.77,0.42-2.7c-0.34-1.26-1.51-2.13-2.53-2.67
					c-1.92-0.11-4.05-0.1-6.34,0.05c-5.6,0.37-9.49,1.85-11.23,4.26c-1.42,1.96-1.23,4.23-0.82,5.8c0.88,3.42,3.59,6.28,7.08,7.47
					c2.52,0.88,4.79,2.11,7.14,3.88c0.42,0.3,0.97,0.62,1.57,0.92c2.45-0.4,3.46-2.05,3.84-3.4c0.53-1.87,0.09-3.78-0.47-4.51
					l-4.45-0.81c-0.82-0.15-1.37-0.94-1.22-1.76c0.15-0.82,0.93-1.37,1.76-1.22l4.48,0.81c0.43-0.21,0.79-0.62,0.95-1.12
					c0.2-0.61,0.07-1.28-0.33-1.94l-4.15-0.83c-0.83-0.17-1.36-0.96-1.19-1.78c0.16-0.83,0.95-1.36,1.78-1.19L70.09,67.24z
					 M62.32,34.32c1.81-2.37,4.22-3.43,7.56-3.37c-2.02-1.18-4-1.38-5.64-0.54c-1.32,0.67-2.28,1.98-2.54,3.43
					C61.92,33.99,62.12,34.15,62.32,34.32z M68.78,90.7c0.77,0,1.58-0.46,2.3-1.27c-2.38-0.56-4.68-1.33-6.55-2.21
					c-0.01,0-0.01-0.01-0.02-0.01c-0.02-0.01-0.04-0.02-0.05-0.03c-0.19-0.08-0.35-0.18-0.53-0.27c-0.98,3.42-3,5.84-5.42,6.57v5.5
					l3.86,2.57c0.24,0.16,0.4,0.39,0.51,0.63c0.11-0.24,0.27-0.47,0.51-0.63l3.87-2.57V93.5c-1.27-0.38-2.46-1.22-3.44-2.47
					c-0.52-0.66-0.41-1.61,0.25-2.13c0.66-0.51,1.62-0.4,2.13,0.26C66.75,89.86,67.64,90.7,68.78,90.7z M62.78,41.53
					c-0.67-0.09-1.41-0.09-2.07,0.17c-0.51,0.2-0.92,0.55-1.28,1.02C60.53,42.26,61.64,41.86,62.78,41.53z M61.96,38.45l-0.15-0.21
					c-2.86,0.1-4.12,0.76-4.75,2.62c0.69-0.89,1.52-1.57,2.55-1.97C60.39,38.58,61.19,38.46,61.96,38.45z M56.99,90.7
					c1.83,0,3.58-2.33,4.23-5.5c-2.39-1.68-4.28-2.45-5.54-2.88c-1.11-0.39-2.16-0.9-3.13-1.53c-0.06,0.54-0.1,1.06-0.1,1.58
					C52.45,87.28,54.84,90.7,56.99,90.7z M58.64,35.63c-0.87-0.31-1.66-0.31-2.33,0.03c-0.74,0.37-0.94,1.21-1.01,1.68
					c-0.01,0.15,0,0.3,0,0.45C56.19,36.65,57.35,35.99,58.64,35.63z M41.58,55.66c-1.02-1.51-1.25-4.4-1.25-8.88
					c0-1.93-0.43-3.19-1.28-3.74c-1.17-0.75-3.51-0.43-6.39,0.89c-1.38,0.62-2.46,1.53-3.21,2.63c0.01,0.22,0.02,0.45-0.02,0.68
					l-0.04,0.22c-0.1,0.58-0.21,1.27-0.33,1.99c0.21,0.14,0.54,0.28,1.03,0.4c1.35,0.33,2.39,1.14,3.05,2.34
					c1.14,2.09,1.07,5.39-0.2,9.82C36.91,61.8,39.75,59.68,41.58,55.66z M26.23,47.97c-0.03,0.17-0.08,0.33-0.12,0.5
					c-0.24,0.98-0.55,2.06-0.95,3.31c-0.33,1.06-0.69,2.15-1.04,3.22c-0.9,2.77-1.84,5.62-1.96,7.05c-0.11,1.29,0.12,2.02,0.29,2.33
					c0.3-0.29,0.84-1.09,1.27-2.82c0.53-2.14,1.2-5.66,1.99-10.48c0.09-0.48,0.16-0.91,0.22-1.31
					C26.04,49.12,26.14,48.52,26.23,47.97z"/>
				<path class="st1" d="M108.88,58.2c3.61,1.96,4.65,4.87,3.23,9.12c-0.38,1.15-1.81,1.55-2.62,1.69c-0.34,0.06-0.7,0.09-1.07,0.11
					c0.99-1.4,1.55-3.17,1.59-5.26C110.04,61.91,109.61,59.93,108.88,58.2z"/>
				<path class="st1" d="M112.05,43.81c1.98,4.56,1.01,8-3.09,11.05c-0.54-0.23-1.11-0.45-1.72-0.65c1.44-2.12,2.05-4.81,1.54-7.27
					c-0.41-1.99-1.48-3.67-3.09-4.94c0.75-0.1,1.48-0.16,2.16-0.14C109.39,41.89,111.38,42.26,112.05,43.81z"/>
				<path class="st1" d="M108.51,72.12c0.26,2.39-0.67,4.36-2.62,5.4c-0.94,0.5-2.12,0.74-3.3,0.62c0.76-0.35,1.45-0.79,2.02-1.39
					c1.36-1.45,1.78-3.31,1.88-4.73c0.55,0.08,1.1,0.13,1.66,0.13C108.27,72.15,108.39,72.12,108.51,72.12z"/>
				<path class="st1" d="M103.97,56.48c1.5,0.9,3.07,4.13,3.01,7.33c-0.03,1.54-0.46,3.54-2.2,4.65c-0.52-0.2-1.07-0.44-1.65-0.72
					c1.83-1.84,2.32-3.83,2.35-5.32c0.05-2.17-0.8-4.28-1.99-6.03C103.64,56.42,103.82,56.44,103.97,56.48z"/>
				<path class="st1" d="M105.1,33.26c1.46,1.53,1.69,4.14,1.55,5.6c-1.13,0.06-2.34,0.25-3.57,0.55c-0.07-1.11-0.39-2.38-1.31-3.48
					c-0.86-1.02-2.07-1.63-3.56-1.89l0.69-1.31c0.03-0.06,0.06-0.12,0.09-0.18C101.77,31.68,103.82,31.91,105.1,33.26z"/>
				<path class="st1" d="M105.82,47.55c0.41,2-0.34,4.32-1.82,5.85c-0.73-0.14-1.48-0.28-2.26-0.38c0.58-1.49,0.99-3.47,0.42-5.53
					c-0.4-1.44-1.23-2.7-2.46-3.77c0.61-0.24,1.18-0.44,1.69-0.62C103.86,43.96,105.39,45.48,105.82,47.55z"/>
				<path class="st1" d="M103.49,71.21c0.01,0.94-0.14,2.46-1.1,3.47c-0.81,0.85-2.15,1.21-3.94,1.11l-0.06-0.07
					c2.19-0.92,3.3-2.53,3.54-5.21C102.46,70.78,102.99,71.01,103.49,71.21z"/>
				<path class="st1" d="M98.8,55.75c1.86,1.42,3.72,4.11,3.66,6.6c-0.04,1.72-1,3.18-2.86,4.35c-0.46,0.29-0.74,0.83-0.7,1.38
					c0.27,3.73-0.37,4.68-2.76,5.2l-0.45-0.49c1.34-2.06,2.3-4.36,2.76-6.77c0.69-3.56,0.32-7.09-1.05-10.35
					C97.89,55.69,98.35,55.71,98.8,55.75z"/>
				<path class="st1" d="M99.45,37.88c0.55,0.66,0.67,1.61,0.59,2.48c-0.75,0.26-1.59,0.59-2.41,0.91
					c-0.21-0.48-0.48-0.94-0.84-1.34s-0.78-0.69-1.23-0.93l1.12-2.09C97.97,36.93,98.92,37.25,99.45,37.88z"/>
				<path class="st1" d="M99.24,48.31c0.46,1.64-0.16,3.35-0.67,4.38c-0.87-0.05-1.8-0.08-2.8-0.09c-1.2-1.84-2.72-3.52-4.58-4.99
					c1.83-0.96,3.55-1.79,5.2-2.52C97.9,45.98,98.89,47.06,99.24,48.31z"/>
				<path class="st1" d="M95.19,24.29c1.75,1.52,2.26,4.11,1.25,6.57c-0.04,0.16-0.13,0.31-0.2,0.45l-0.3,0.56
					c-0.94-1.6-2.17-2.73-3.71-3.38c-1.89-0.78-4.16-0.76-6.48,0.03c0.07-1,0.26-1.9,0.59-2.64c0.63-1.44,1.76-2.35,3.35-2.71
					C91.81,22.7,94.15,23.37,95.19,24.29z"/>
				<path class="st1" d="M93.64,54.88c1.92,3.22,2.55,6.88,1.83,10.57c-0.45,2.37-1.46,4.65-2.93,6.6c-1.7,2.34-3.98,4.11-6.6,5.23
					c-0.31-0.16-0.63-0.33-0.94-0.47c-0.19-0.09-0.41-0.14-0.61-0.22c0.63-1.69,0.35-3.1-0.07-4.08c-0.37-0.88-1-1.62-1.78-2.19
					c0.37-0.68,0.59-1.49,0.58-2.37c-0.01-1.28-0.61-5.63-7.88-7.89c-2-0.63-4.27-1.03-6.75-1.19c-2.13-0.15-4.5-0.14-7.05,0.03
					c-6.63,0.44-11.17,2.29-13.5,5.51c-2.1,2.9-1.86,6.13-1.29,8.33c0.58,2.24,1.77,4.29,3.38,5.97c-6.56-0.95-11.68-2.63-14.8-4.91
					c-2.66-1.95-3.88-5.43-3.19-8.75c0.07,0,0.14,0,0.2,0c6.81,0,10.34-4.19,12.15-8.2c1.79-0.31,3.78-2.15,6.1-4.46
					c1.88-1.88,4.98-4.52,9.12-6.46c2.28-1.07,4.69-1.81,7.15-2.2c2.85-0.47,5.77-0.43,8.69,0.11c2.66,0.48,5.4,1.38,8.15,2.69
					c0.47,0.23,1.02,0.2,1.47-0.08c0.43-0.28,0.7-0.76,0.7-1.28v-5.72c1.37-0.35,2.49-0.31,3.3,0.14c0.91,0.52,1.35,1.48,1.57,2.22
					l-1.98,3.72c-0.37,0.19-0.73,0.39-1.07,0.58c-0.46,0.26-0.75,0.74-0.76,1.27c-0.02,0.53,0.25,1.03,0.69,1.32
					C90.19,50.42,92.25,52.5,93.64,54.88z"/>
				<path class="st1" d="M94.56,41.98c0.14,0.15,0.22,0.32,0.3,0.49c-0.5,0.21-0.99,0.44-1.5,0.68l0.79-1.49
					C94.32,41.75,94.46,41.87,94.56,41.98z"/>
				<path class="st1" d="M94.12,35.28l-1.75,3.28c-0.45-0.6-1.03-1.17-1.81-1.6c-1.33-0.76-2.94-0.96-4.79-0.63l-0.01-4.55
					c1.3-0.59,3.42-1.27,5.29-0.49C92.43,31.87,93.45,33.23,94.12,35.28z"/>
				<path class="st1" d="M87.45,82.7c0.11,0.83-0.61,1.76-1.24,2.38c-1.6,1.61-4.52,2.38-8.27,2.26c1.41-1.44,2.26-3.25,2.37-5.29
					c0.08-1.29-0.16-2.57-0.6-3.71c0.74,0.14,1.45,0.31,2.11,0.51c0.69,0.21,1.33,0.44,1.95,0.72c0.46,0.21,0.94,0.44,1.39,0.7
					C86.54,81.07,87.36,81.93,87.45,82.7z"/>
				<path class="st1" d="M83.15,25.83c-0.21,0.7-0.34,1.47-0.41,2.27c-1.93-0.89-4.09-1.21-6.01-0.8c-1.09,0.24-2.43,0.77-3.64,1.92
					c-0.02-1.66,0.97-3.4,2.56-4.37C77.76,23.56,80.45,23.93,83.15,25.83z"/>
				<path class="st1" d="M82.74,39.08v3.77c-1.97-0.8-3.93-1.4-5.86-1.8l-0.71-2.12C78.24,37.26,80.28,37.32,82.74,39.08z"/>
				<path class="st1" d="M82.74,31.58v4c-2.63-1.27-5.2-1.17-7.58,0.34l-1.02-3.07c0.76-1.39,1.83-2.28,3.23-2.58
					C79.07,29.9,81.15,30.43,82.74,31.58z"/>
				<path class="st1" d="M81.54,73.71c0.26,0.6,0.24,1.23-0.04,1.92c-0.49-0.12-0.99-0.23-1.5-0.33l-1.17-0.2
					c0.37-0.87,0.51-1.87,0.37-2.95l0.36,0.07C80.48,72.41,81.22,72.96,81.54,73.71z"/>
				<path class="st1" d="M80.09,67.97c0.01,0.51-0.17,0.94-0.45,1.18l-0.93-0.19c0.16-1.34,0.1-2.61-0.19-3.81
					C79.61,66.13,80.09,67.16,80.09,67.97z"/>
				<path class="st1" d="M75.52,77.56c0.96,0.6,1.89,2.36,1.77,4.32c-0.09,1.55-0.87,3.62-3.91,4.93c-1.39-0.25-2.78-0.59-4.09-1
					c1.35-0.98,2.35-2.38,2.84-4.14c0.44-1.57,0.45-3.24,0.11-4.7L75.52,77.56z"/>
				<path class="st1" d="M75.91,71.49c0.62,1.46,0.26,2.47-0.25,3.03l-2.89-0.53c0.14-0.27,0.29-0.54,0.38-0.83
					c0.23-0.72,0.29-1.45,0.2-2.18L75.91,71.49z"/>
				<path class="st1" d="M73.96,62.84c1.4,1.53,1.98,3.35,1.76,5.52l-2.6-0.52c0.55-1.4,0.66-2.79,0.31-4.09
					c-0.09-0.36-0.24-0.76-0.46-1.18C73.31,62.65,73.63,62.75,73.96,62.84z"/>
				<path class="st1" d="M73.25,39.75l0.26,0.77c-2.08-0.2-4.14-0.15-6.17,0.09c1.38-1.85,3.47-1.5,5.67-0.92
					C73.1,39.72,73.17,39.73,73.25,39.75z"/>
				<path class="st1" d="M71.36,34.09l0.76,2.29c-1.93-0.34-4.64-0.37-6.67,1.76l-1.07-1.51C65.68,34.62,67.48,33.6,71.36,34.09z"/>
				<path class="st1" d="M70.51,64.54c0.25,0.93-0.02,1.89-0.42,2.7l-3.71-0.74c-0.83-0.17-1.62,0.36-1.78,1.19
					c-0.17,0.82,0.36,1.61,1.19,1.78l4.15,0.83c0.4,0.66,0.53,1.33,0.33,1.94c-0.16,0.5-0.52,0.91-0.95,1.12l-4.48-0.81
					c-0.83-0.15-1.61,0.4-1.76,1.22c-0.15,0.82,0.4,1.61,1.22,1.76l4.45,0.81c0.56,0.73,1,2.64,0.47,4.51
					c-0.38,1.35-1.39,3-3.84,3.4c-0.6-0.3-1.15-0.62-1.57-0.92c-2.35-1.77-4.62-3-7.14-3.88c-3.49-1.19-6.2-4.05-7.08-7.47
					c-0.41-1.57-0.6-3.84,0.82-5.8c1.74-2.41,5.63-3.89,11.23-4.26c2.29-0.15,4.42-0.16,6.34-0.05C69,62.41,70.17,63.28,70.51,64.54
					z"/>
				<path class="st1" d="M69.88,30.95c-3.34-0.06-5.75,1-7.56,3.37c-0.2-0.17-0.4-0.33-0.62-0.48c0.26-1.45,1.22-2.76,2.54-3.43
					C65.88,29.57,67.86,29.77,69.88,30.95z"/>
				<path class="st1" d="M60.71,41.7c0.66-0.26,1.4-0.26,2.07-0.17c-1.14,0.33-2.25,0.73-3.35,1.19
					C59.79,42.25,60.2,41.9,60.71,41.7z"/>
				<path class="st1" d="M61.81,38.24l0.15,0.21c-0.77,0.01-1.57,0.13-2.35,0.44c-1.03,0.4-1.86,1.08-2.55,1.97
					C57.69,39,58.95,38.34,61.81,38.24z"/>
				<path class="st1" d="M61.22,85.2c-0.65,3.17-2.4,5.5-4.23,5.5c-2.15,0-4.54-3.42-4.54-8.33c0-0.52,0.04-1.04,0.1-1.58
					c0.97,0.63,2.02,1.14,3.13,1.53C56.94,82.75,58.83,83.52,61.22,85.2z"/>
				<path class="st1" d="M56.31,35.66c0.67-0.34,1.46-0.34,2.33-0.03c-1.29,0.36-2.45,1.02-3.34,2.16c0-0.15-0.01-0.3,0-0.45
					C55.37,36.87,55.57,36.03,56.31,35.66z"/>
				<path class="st1" d="M40.33,46.78c0,4.48,0.23,7.37,1.25,8.88c-1.83,4.02-4.67,6.14-8.64,6.35c1.27-4.43,1.34-7.73,0.2-9.82
					c-0.66-1.2-1.7-2.01-3.05-2.34c-0.49-0.12-0.82-0.26-1.03-0.4c0.12-0.72,0.23-1.41,0.33-1.99l0.04-0.22
					c0.04-0.23,0.03-0.46,0.02-0.68c0.75-1.1,1.83-2.01,3.21-2.63c2.88-1.32,5.22-1.64,6.39-0.89
					C39.9,43.59,40.33,44.85,40.33,46.78z M34.27,46.78c0-2.02-3.02-2.02-3.02,0C31.25,48.79,34.27,48.79,34.27,46.78z"/>
				<path d="M31.25,46.78c0-2.02,3.02-2.02,3.02,0C34.27,48.79,31.25,48.79,31.25,46.78z"/>
				<path class="st1" d="M26.11,48.47c0.04-0.17,0.09-0.33,0.12-0.5c-0.09,0.55-0.19,1.15-0.3,1.8c-0.06,0.4-0.13,0.83-0.22,1.31
					c-0.79,4.82-1.46,8.34-1.99,10.48c-0.43,1.73-0.97,2.53-1.27,2.82c-0.17-0.31-0.4-1.04-0.29-2.33c0.12-1.43,1.06-4.28,1.96-7.05
					c0.35-1.07,0.71-2.16,1.04-3.22C25.56,50.53,25.87,49.45,26.11,48.47z"/>
			</g>
		</g>
	</g>
</g>
</svg>
