<?xml version="1.0" encoding="utf-8"?>
<!-- Generator: Adobe Illustrator 26.3.1, SVG Export Plug-In . SVG Version: 6.00 Build 0)  -->
<svg version="1.1" xmlns="http://www.w3.org/2000/svg" xmlns:xlink="http://www.w3.org/1999/xlink" x="0px" y="0px"
	 viewBox="0 0 133 133" style="enable-background:new 0 0 133 133;" xml:space="preserve">
<style type="text/css">
	.st0{fill:#BCD0D8;}
	.st1{fill:#6699B2;}
	.st2{fill:#496D7F;}
	.st3{fill:#5D699B;}
	.st4{fill:#FFFFFF;}
	.st5{fill:#FFFFFF;stroke:#000000;stroke-width:2;stroke-miterlimit:10;}
</style>
<g id="Layer_1">
	<g id="Layer_2_00000181064001516203178130000015337386046978697128_">
		<path class="st2" d="M121,133H12c-6.6,0-12-5.4-12-12V12C0,5.4,5.4,0,12,0h109c6.6,0,12,5.4,12,12v109
			C133,127.6,127.6,133,121,133z"/>
		<path class="st2" d="M121,133H12c-6.6,0-12-5.4-12-12V12C0,5.4,5.4,0,12,0h109c6.6,0,12,5.4,12,12v109
			C133,127.6,127.6,133,121,133z"/>
	</g>
</g>
<g id="Layer_2">
</g>
<g id="Layer_4">
</g>
<g id="Layer_5_00000096759886075198047500000016841880956640546723_">
</g>
<g id="Layer_6_00000151532325249707469710000014370122528315639221_">
</g>
<g id="Layer_7_00000042717999357893301760000000855885267568530853_">
</g>
<g id="Layer_8_00000168831599467053464300000003505523461608539011_">
</g>
<g id="Layer_9_00000089543259283313251050000005252079673544207528_">
</g>
<g id="Layer_10_00000084509998272139497780000008077192264451833754_">
</g>
<g id="Layer_11_00000116220595310884250560000013807966725250984093_">
</g>
<g id="Layer_12">
</g>
<g id="Layer_13">
	<g>
		<g>
			<g id="XMLID_00000048472965812985369230000006665896329872448443_">
				<g>
					<path class="st4" d="M49.4,35.8c-14.8,0-26.8,12-26.8,26.8c0,14.8,12,26.8,26.8,26.8c2.3,0,4.5-0.3,6.7-0.8
						c-1.6,3.4-2.6,5.5-3,6.6C38.8,96.8,25,88.8,19.3,75.6c-3.5-8-3.6-16.9-0.4-25s9.4-14.5,17.4-18c16.6-7.2,35.8,0.5,43,17.1
						c0.5,1.2,0.9,2.4,1.3,3.6c0,0.1,0.1,0.2,0.2,0.3c-2.3-0.3-6.5-0.6-6.6-0.9C70.1,42.4,60.3,35.8,49.4,35.8z"/>
					<path d="M18.9,50.5c-3.2,8.1-3.1,17,0.4,25C25,88.8,38.8,96.8,53,95.1c-0.6,1.5-0.4,1.1,0.2,0c0,0,0,0,0.1,0
						c0.7-0.1,1.3,0.4,1.4,1.1c0.1,0.7-0.4,1.3-1,1.4c-1.4,0.2-2.8,0.3-4.2,0.3c-13.8,0-26.7-8.3-32.3-21.2
						c-3.7-8.6-3.9-18.2-0.4-26.9c3.5-8.7,10.1-15.6,18.7-19.3c17.8-7.7,38.5,0.5,46.2,18.3c0.5,1.3,1,2.6,1.4,3.9
						c0.2,0.6-0.2,1.3-0.8,1.5c-0.2,0.1-0.5,0.1-0.8,0c1.6-0.1,0.9-0.3-0.6-0.5c-0.1-0.1-0.1-0.2-0.2-0.3c-0.4-1.2-0.8-2.4-1.3-3.6
						c-7.2-16.6-26.4-24.2-43-17.1C28.3,36,22.1,42.4,18.9,50.5z"/>
					<path d="M53.2,95.1c-0.6,1.2-0.8,1.5-0.2,0C53.1,95.1,53.2,95.1,53.2,95.1z"/>
					<path d="M63.2,53.1l6.6-3.8c-1.9-3-4.5-5.5-7.4-7.3l-3.7,6.5c-0.2,0.4-0.6,0.6-1,0.6c-0.2,0-0.4,0-0.6-0.2
						c-0.4-0.2-0.6-0.6-0.6-1c0-0.2,0-0.4,0.2-0.6l3.7-6.4c-3.3-1.6-7-2.5-10.9-2.5c-4.1,0-8,1-11.4,2.8l3.5,6
						c0.1,0.2,0.2,0.4,0.2,0.6c0,0.4-0.2,0.8-0.6,1.1c-0.2,0.1-0.4,0.2-0.6,0.2c-0.4,0-0.8-0.2-1-0.6l-3.5-6c-2.8,1.9-5.2,4.4-7,7.2
						l5.9,3.4c0.4,0.2,0.6,0.6,0.6,1c0,0.2-0.1,0.4-0.2,0.6c-0.2,0.4-0.6,0.6-1.1,0.6c-0.2,0-0.4-0.1-0.6-0.2l-5.8-3.4
						c-1.5,2.9-2.4,6.2-2.5,9.7h6.6c0.7,0,1.2,0.5,1.2,1.2c0,0.7-0.6,1.2-1.2,1.2h-6.6c0.2,3.4,1.1,6.7,2.5,9.7l5.8-3.3
						c0.6-0.3,1.3-0.1,1.7,0.4c0.1,0.2,0.2,0.4,0.2,0.6c0,0.4-0.2,0.8-0.6,1.1l-5.8,3.3c1.8,2.9,4.2,5.3,7,7.2l3.4-5.9
						c0.3-0.6,1.1-0.8,1.7-0.5c0.4,0.2,0.6,0.6,0.6,1.1c0,0.2-0.1,0.4-0.2,0.6l-3.4,5.9c2.9,1.6,6.2,2.6,9.7,2.8v-7
						c0-0.7,0.5-1.2,1.2-1.2c0.7,0,1.2,0.5,1.2,1.2v7.1c1.8-0.1,3.7-0.3,5.4-0.8c0.6-0.2,1.3,0.2,1.5,0.9c0.1,0.3-2.5,5.8-3.7,8
						c-0.1,0-0.1,0-0.2,0c0.5-1.1,1.4-3.2,3-6.6c-2.2,0.6-4.4,0.8-6.7,0.8c-14.8,0-26.8-12-26.8-26.8c0-14.8,12-26.8,26.8-26.8
						c11,0,20.7,6.6,24.8,16.7c0.1,0.3,4.3,0.6,6.6,0.9c0.2,0.2,0.4,0.4,0.6,0.5c-1.2,0.1-3.6,0.1-7.9,0.1c-0.7,0-1.3,0-1.6-0.7
						c-0.3-0.7-0.6-1.4-0.9-2l-6.6,3.8c-0.2,0.1-0.4,0.2-0.6,0.2c-0.4,0-0.8-0.2-1-0.6c-0.1-0.2-0.2-0.4-0.2-0.6
						C62.6,53.8,62.8,53.4,63.2,53.1z"/>
					<path d="M118.3,79.7c0.8,1.5,0.8,3.2,0,4.8l-8.6,16.5c-0.8,1.6-2.7,2.6-4.7,2.6h-5.3c-1.1,0-2.1-0.6-2.7-1.4
						c-0.5-0.8-0.5-1.7-0.1-2.5l8.4-16c0.5-1,0.5-2.1,0-3l-8.4-16c-0.4-0.8-0.4-1.8,0.1-2.5c0.5-0.9,1.6-1.4,2.7-1.4h5.3
						c2,0,3.8,1,4.7,2.6L118.3,79.7z M116.1,83.3c0.4-0.8,0.4-1.7,0-2.5l-8.6-16.4c-0.4-0.8-1.4-1.3-2.5-1.3h-5.3
						c-0.3,0-0.5,0.1-0.6,0.3c0,0.1,0,0.1,0,0.1l8.4,16c0.9,1.7,0.9,3.6,0,5.3l-8.4,16c0,0,0,0.1,0,0.2c0.1,0.1,0.3,0.3,0.6,0.3h5.3
						c1.1,0,2.1-0.5,2.5-1.3L116.1,83.3z"/>
					<path class="st4" d="M116.1,80.8c0.4,0.8,0.4,1.7,0,2.5l-8.6,16.5c-0.4,0.8-1.4,1.3-2.5,1.3h-5.3c-0.3,0-0.5-0.1-0.6-0.3
						c0-0.1,0-0.1,0-0.2l8.4-16c0.9-1.7,0.9-3.6,0-5.3l-8.4-16c0,0,0-0.1,0-0.1c0.1-0.1,0.3-0.3,0.6-0.3h5.3c1.1,0,2.1,0.5,2.5,1.3
						L116.1,80.8z"/>
					<path d="M99.1,79.7c0.8,1.5,0.8,3.2,0,4.8l-8.6,16.5c-0.8,1.6-2.7,2.6-4.7,2.6h-5.3c-1.1,0-2.1-0.6-2.7-1.4
						c-0.5-0.8-0.5-1.7-0.1-2.5l8.4-16c0.5-1,0.5-2.1,0-3l-8.4-16c-0.4-0.8-0.4-1.8,0.1-2.5c0.5-0.9,1.6-1.4,2.7-1.4h5.3
						c2,0,3.8,1,4.7,2.6L99.1,79.7z M96.9,83.3c0.4-0.8,0.4-1.7,0-2.5l-8.6-16.4c-0.4-0.8-1.4-1.3-2.5-1.3h-5.3
						c-0.3,0-0.5,0.1-0.6,0.3c0,0.1,0,0.1,0,0.2l8.4,16c0.9,1.7,0.9,3.6,0,5.3l-8.4,16c0,0,0,0.1,0,0.2c0.1,0.1,0.3,0.3,0.6,0.3h5.3
						c1.1,0,2.1-0.5,2.5-1.3L96.9,83.3z"/>
					<path class="st4" d="M96.9,80.8c0.4,0.8,0.4,1.7,0,2.5l-8.6,16.5c-0.4,0.8-1.4,1.3-2.5,1.3h-5.3c-0.3,0-0.5-0.1-0.6-0.3
						c0-0.1,0-0.1,0-0.2l8.4-16c0.9-1.7,0.9-3.6,0-5.3l-8.4-16c0-0.1,0-0.1,0-0.2c0.1-0.1,0.3-0.3,0.6-0.3h5.3
						c1.1,0,2.1,0.5,2.5,1.3L96.9,80.8z"/>
					<path d="M80.8,53.5c1.5,0.2,2.2,0.4,0.6,0.5C81.2,53.9,80.9,53.8,80.8,53.5z"/>
					<path d="M79.9,79.7c0.8,1.5,0.8,3.2,0,4.8l-8.6,16.5c-0.8,1.6-2.7,2.6-4.7,2.6h-5.3c-1.1,0-2.1-0.6-2.7-1.4
						c-0.5-0.8-0.5-1.7-0.1-2.5l8.4-16c0.5-1,0.5-2.1,0-3l-8.4-16c-0.4-0.8-0.4-1.8,0.1-2.5c0.5-0.9,1.6-1.4,2.7-1.4h5.3
						c2,0,3.8,1,4.7,2.6L79.9,79.7z M77.8,83.3c0.4-0.8,0.4-1.7,0-2.5l-8.6-16.4c-0.4-0.8-1.4-1.3-2.5-1.3h-5.3
						c-0.3,0-0.5,0.1-0.6,0.3c0,0.1,0,0.1,0,0.1l8.4,16c0.9,1.7,0.9,3.6,0,5.3l-8.4,16c0,0,0,0.1,0,0.2c0.1,0.1,0.3,0.3,0.6,0.3h5.3
						c1.1,0,2.1-0.5,2.5-1.3L77.8,83.3z"/>
					<path class="st4" d="M77.8,80.8c0.4,0.8,0.4,1.7,0,2.5l-8.6,16.5c-0.4,0.8-1.4,1.3-2.5,1.3h-5.3c-0.3,0-0.5-0.1-0.6-0.3
						c0-0.1,0-0.1,0-0.2l8.4-16c0.9-1.7,0.9-3.6,0-5.3l-8.4-16c0,0,0-0.1,0-0.1c0.1-0.1,0.3-0.3,0.6-0.3h5.3c1.1,0,2.1,0.5,2.5,1.3
						L77.8,80.8z"/>
					<path d="M53.3,67.3c0.2,1.2-0.2,2.4-0.9,3.4c-0.8,0.9-1.9,1.5-3.1,1.6c-0.1,0-0.2,0-0.3,0c-1.2,0-2.3-0.5-3.2-1.3
						c-0.9-0.9-1.3-2.2-1.2-3.5l2.6-22.3c0.1-0.6,0.6-1.1,1.2-1.1c0.5,0,1.1,0.4,1.2,1L53.3,67.3z M50.5,69.2
						c0.3-0.4,0.5-0.9,0.4-1.5l-2.2-13.6l-1.6,13.6c-0.1,0.6,0.1,1.1,0.5,1.5c0.4,0.4,0.9,0.6,1.5,0.6
						C49.7,69.8,50.1,69.6,50.5,69.2z"/>
					<path class="st4" d="M50.9,67.7c0.1,0.5-0.1,1.1-0.4,1.5c-0.3,0.4-0.8,0.7-1.4,0.7c-0.6,0-1.1-0.2-1.5-0.6
						c-0.4-0.4-0.6-1-0.5-1.5l1.6-13.6L50.9,67.7z"/>
				</g>
			</g>
		</g>
		<path class="st5" d="M53.7,96.4c0.8-3,1.5-6,2.3-8.9"/>
		<path class="st5" d="M72.9,53.2c3-0.1,5.9-0.1,8.9-0.2"/>
	</g>
</g>
<g id="Layer_14">
</g>
<g id="Layer_15">
</g>
<g id="Layer_16">
</g>
<g id="Layer_17">
</g>
<g id="Layer_18">
</g>
</svg>
