<svg version="1.1" viewBox="0.0 0.0 133.44094488188978 133.44094488188978" fill="none" stroke="none" stroke-linecap="square" stroke-miterlimit="10" xmlns:xlink="http://www.w3.org/1999/xlink" xmlns="http://www.w3.org/2000/svg"><clipPath id="p.0"><path d="m0 0l133.44095 0l0 133.44095l-133.44095 0l0 -133.44095z" clip-rule="nonzero"/></clipPath><g clip-path="url(#p.0)"><path fill="#000000" fill-opacity="0.0" d="m0 0l133.44095 0l0 133.44095l-133.44095 0z" fill-rule="evenodd"/><path fill="#ffd966" d="m0 22.241915l0 0c0 -12.283871 9.958044 -22.241915 22.241915 -22.241915l88.96499 0l0 0c5.898926 0 11.556244 2.3433378 15.727409 6.514506c4.171173 4.171168 6.514511 9.828487 6.514511 15.727409l0 88.96499c0 12.2838745 -9.958046 22.24192 -22.24192 22.24192l-88.96499 0c-12.283871 0 -22.241915 -9.958046 -22.241915 -22.24192z" fill-rule="evenodd"/><path fill="#ffffff" d="m23.586615 23.590551l86.267715 0l0 86.267715l-86.267715 0z" fill-rule="evenodd"/><path stroke="#000000" stroke-width="8.0" stroke-linejoin="round" stroke-linecap="butt" d="m23.586615 23.590551l86.267715 0l0 86.267715l-86.267715 0z" fill-rule="evenodd"/></g></svg>