<svg version="1.1" viewBox="0.0 0.0 133.44094488188978 133.44094488188978" fill="none" stroke="none" stroke-linecap="square" stroke-miterlimit="10" xmlns:xlink="http://www.w3.org/1999/xlink" xmlns="http://www.w3.org/2000/svg"><clipPath id="p.0"><path d="m0 0l133.44095 0l0 133.44095l-133.44095 0l0 -133.44095z" clip-rule="nonzero"/></clipPath><g clip-path="url(#p.0)"><path fill="#000000" fill-opacity="0.0" d="m0 0l133.44095 0l0 133.44095l-133.44095 0z" fill-rule="evenodd"/><path fill="#5e591b" d="m-0.43569553 -0.43569553l133.88977 0l0 133.88977l-133.88977 0z" fill-rule="evenodd"/><path stroke="#5e591b" stroke-width="1.0" stroke-linejoin="round" stroke-linecap="butt" d="m-0.43569553 -0.43569553l133.88977 0l0 133.88977l-133.88977 0z" fill-rule="evenodd"/><path fill="#000000" fill-opacity="0.0" d="m-23.175854 20.895014l179.37009 0l0 91.65354l-179.37009 0z" fill-rule="evenodd"/><path fill="#ffffff" d="m21.290432 68.710014q0 -7.0 2.09375 -11.75q1.5625 -3.5 4.265625 -6.28125q2.703125 -2.78125 5.921875 -4.125q4.28125 -1.8125 9.875 -1.8125q10.125 0 16.203125 6.28125q6.078129 6.28125 6.078129 17.46875q0 11.09375 -6.031254 17.359375q-6.03125 6.265625 -16.125 6.265625q-10.21875 0 -16.25 -6.234375q-6.03125 -6.234375 -6.03125 -17.171875zm9.53125 -0.3125q0 7.78125 3.59375 11.796875q3.59375 4.015625 9.125 4.015625q5.53125 0 9.078125 -3.984375q3.546875 -3.984375 3.546875 -11.953125q0 -7.875 -3.453125 -11.75q-3.453125 -3.875 -9.171875 -3.875q-5.71875 0 -9.21875 3.921875q-3.5 3.921875 -3.5 11.828125zm42.218754 22.9375l0 -45.8125l9.0 0l18.75 30.59375l0 -30.59375l8.593742 0l0 45.8125l-9.281242 0l-18.46875 -29.875l0 29.875l-8.59375 0z" fill-rule="nonzero"/></g></svg>