<svg version="1.1" viewBox="0.0 0.0 133.44094488188978 133.44094488188978" fill="none" stroke="none" stroke-linecap="square" stroke-miterlimit="10" xmlns:xlink="http://www.w3.org/1999/xlink" xmlns="http://www.w3.org/2000/svg"><clipPath id="p.0"><path d="m0 0l133.44095 0l0 133.44095l-133.44095 0l0 -133.44095z" clip-rule="nonzero"/></clipPath><g clip-path="url(#p.0)"><path fill="#000000" fill-opacity="0.0" d="m0 0l133.44095 0l0 133.44095l-133.44095 0z" fill-rule="evenodd"/><path fill="#77721e" d="m1.6141732 23.974182l0 0c0 -11.837395 9.596105 -21.4335 21.433498 -21.4335l86.896774 0l0 0c5.684517 0 11.136215 2.2581658 15.155777 6.2777267c4.019554 4.019561 6.277733 9.471256 6.277733 15.155773l0 85.73142c0 11.837395 -9.596115 21.43351 -21.43351 21.43351l-86.896774 0c-11.837395 0 -21.433498 -9.596115 -21.433498 -21.43351z" fill-rule="evenodd"/><path stroke="#ffffff" stroke-width="4.0" stroke-linejoin="round" stroke-linecap="butt" d="m1.6141732 23.974182l0 0c0 -11.837395 9.596105 -21.4335 21.433498 -21.4335l86.896774 0l0 0c5.684517 0 11.136215 2.2581658 15.155777 6.2777267c4.019554 4.019561 6.277733 9.471256 6.277733 15.155773l0 85.73142c0 11.837395 -9.596115 21.43351 -21.43351 21.43351l-86.896774 0c-11.837395 0 -21.433498 -9.596115 -21.433498 -21.43351z" fill-rule="evenodd"/><path fill="#ffffff" d="m48.273407 66.81364q0 -3.0624962 0.921875 -5.140621q0.671875 -1.53125 1.859375 -2.734375q1.1875 -1.21875 2.59375 -1.8125q1.875 -0.796875 4.3125 -0.796875q4.4375 0 7.09375 2.75q2.65625 2.75 2.65625 7.640621q0 4.859375 -2.640625 7.609375q-2.640625 2.734375 -7.046875 2.734375q-4.46875 0 -7.109375 -2.71875q-2.640625 -2.734375 -2.640625 -7.53125zm4.171875 -0.125q0 3.40625 1.5625 5.15625q1.578125 1.75 4.0 1.75q2.421875 0 3.96875 -1.734375q1.546875 -1.75 1.546875 -5.234375q0 -3.4374962 -1.515625 -5.124996q-1.5 -1.703125 -4.0 -1.703125q-2.5 0 -4.03125 1.71875q-1.53125 1.703125 -1.53125 5.171871zm31.607422 10.03125l-3.84375 0l0 -7.40625q0 -2.359375 -0.25 -3.046875q-0.234375 -0.6875 -0.796875 -1.0625q-0.546875 -0.390625 -1.328125 -0.390625q-1.0 0 -1.796875 0.546875q-0.796875 0.546875 -1.09375 1.453125q-0.28125 0.890625 -0.28125 3.328125l0 6.578125l-3.84375 0l0 -14.515621l3.5625 0l0 2.1249962q1.90625 -2.4531212 4.796875 -2.4531212q1.265625 0 2.3125 0.453125q1.0625 0.453125 1.59375 1.171875q0.546875 0.7031212 0.75 1.6093712q0.21875 0.90625 0.21875 2.578125l0 9.03125z" fill-rule="nonzero"/></g></svg>