<?xml version="1.0" encoding="utf-8"?>
<!-- Generator: Adobe Illustrator 26.3.1, SVG Export Plug-In . SVG Version: 6.00 Build 0)  -->
<svg version="1.1" id="Layer_1" xmlns="http://www.w3.org/2000/svg" xmlns:xlink="http://www.w3.org/1999/xlink" x="0px" y="0px"
	 viewBox="0 0 133 133" style="enable-background:new 0 0 133 133;" xml:space="preserve">
<style type="text/css">
	.st0{fill:#8123DE;}
	.st1{fill:#FFFFFF;}
</style>
<g id="Layer_1_00000044873295794470796150000000278353769518299554_">
	<g id="Layer_1_00000130640081086220838410000011721614330154684315_">
		<g id="Layer_2_00000080909792367530824080000017432296311554303617_">
			<path class="st0" d="M121,133H12c-6.6,0-12-5.4-12-12V12C0,5.4,5.4,0,12,0h109c6.6,0,12,5.4,12,12v109
				C133,127.6,127.6,133,121,133z"/>
			<path class="st0" d="M121,133H12c-6.6,0-12-5.4-12-12V12C0,5.4,5.4,0,12,0h109c6.6,0,12,5.4,12,12v109
				C133,127.6,127.6,133,121,133z"/>
		</g>
	</g>
</g>
<g id="Layer_2_00000170979145909033208260000011020591678184695463_">
</g>
<g id="Layer_3">
</g>
<g id="Layer_4">
</g>
<g id="Layer_6">
</g>
<g id="Layer_7">
</g>
<g id="Layer_8">
</g>
<g id="Layer_9">
</g>
<g id="Layer_7_00000072980184099858228360000001606369193047666345_">
	<g>
		<g id="XMLID_00000103240381726990657990000014883109116492559009_">
			<g>
				<path class="st1" d="M72.1,16c1.6-1.7,4-2.5,5.6-2.9c-0.9,2.6-3.4,7.9-9.4,10.9C68.5,20.5,69.3,18.9,72.1,16z"/>
				<path class="st1" d="M87.6,26.4c5.6,4.4,6,20.2-1.1,30.3c-2.5,3.6-3.9,5.2-9.4,7.2c-1.9,0.7-3.6,0-5.5-0.8
					c-1.5-0.6-3-1.3-4.8-1.3c-0.1,0-0.1,0-0.1,0c-1.6,0-3.1,0.4-4.5,0.9c-2.5,0.7-4.8,1.4-7.6,0.3c-4-1.6-5.9-3.4-7.9-6.4
					C39.9,47,39.4,32,45.8,26.3c2.9-2.5,6.7-3.6,10.5-3c4.5,0.7,8.1,2,10.1,3.4c0.1,0.1,0.2,0.1,0.3,0.2c0.3,0.2,0.6,0.2,1,0.1
					c0.3-0.1,0.6-0.2,0.8-0.3c3-1.2,7.8-2.8,11.1-3C82.2,23.5,85.2,24.5,87.6,26.4z M54.4,29.6c0.1-0.6-0.4-1.2-1-1.2
					c-2.1-0.2-4.1,0.5-5.7,1.9c-1.8,1.6-3,4.1-3.1,6.9c-0.1,0.6,0.4,1.2,1.1,1.2h0.1c0.6,0,1.1-0.4,1.1-1.1c0.1-2.2,1-4.1,2.3-5.3
					c1.1-1,2.6-1.5,4-1.3C53.7,30.6,54.3,30.2,54.4,29.6z"/>
				<path d="M89,24.6c7,5.5,6.7,23-0.6,33.4c-2.6,3.7-4.3,5.8-10.6,8.1c-0.8,0.3-1.6,0.4-2.3,0.4c-1.7,0-3.4-0.7-4.8-1.2
					s-2.7-1.1-4-1.1c-1.2,0-2.5,0.4-3.9,0.8c-2.6,0.8-5.5,1.6-9.1,0.2c-4.5-1.8-6.7-3.9-8.9-7.2c-7.5-10.8-7.8-26.9-0.5-33.4
					c3.4-3,7.8-4.2,12.3-3.5c2.8,0.4,6.4,1.3,9.3,2.7c-0.3-1.8-1.3-3.6-2.1-4.2c-3.2-2.8-5.1-3.4-6.4-3.8l-0.6-0.2
					c-0.6-0.2-0.9-0.8-0.7-1.5c0.2-0.6,0.8-0.9,1.5-0.7l0.5,0.2c1.4,0.4,3.7,1.2,7.3,4.3c0.5,0.4,1.1,1.1,1.5,2
					c0.7-1.8,1.8-3.4,3.7-5.4c3.1-3.3,8.4-3.9,8.6-3.9c0.3-0.1,0.7,0.1,1,0.3c0.2,0.3,0.3,0.6,0.3,1c-0.1,0.3-1.1,5.6-5.5,10.1
					c1.6-0.4,3.1-0.7,4.5-0.7C82.7,21.2,86.2,22.4,89,24.6z M86.5,56.6c7.2-10.1,6.7-25.9,1.1-30.3c-2.4-1.9-5.4-2.9-8.1-2.7
					c-3.3,0.2-8.2,1.7-11.1,3c-0.3,0.1-0.5,0.2-0.8,0.3c-0.3,0.1-0.7,0.1-1-0.1c-0.1-0.1-0.2-0.1-0.3-0.2c-2-1.5-5.6-2.6-10.1-3.4
					c-3.8-0.6-7.6,0.4-10.5,3c-6.4,5.6-5.9,20.7,0.8,30.3c2.1,3,3.9,4.8,7.9,6.4c2.9,1.1,5.1,0.4,7.6-0.3c1.5-0.4,2.9-0.9,4.5-0.9
					c0.1,0,0.1,0,0.1,0c1.8,0,3.3,0.7,4.8,1.3c1.9,0.8,3.6,1.5,5.5,0.8C82.7,61.8,84,60.2,86.5,56.6z M77.7,13.1
					c-1.6,0.4-4,1.2-5.6,2.9c-2.8,2.9-3.6,4.5-3.8,8.1C74.3,21,76.8,15.8,77.7,13.1z"/>
				<path d="M53.3,28.3c0.6,0.1,1.1,0.6,1,1.2s-0.6,1.1-1.2,1.1c-1.5-0.1-2.9,0.3-4,1.3c-1.4,1.2-2.2,3.1-2.3,5.3
					c0,0.6-0.5,1.1-1.1,1.1h-0.1c-0.6-0.1-1.1-0.6-1.1-1.2c0.1-2.8,1.2-5.3,3.1-6.9C49.2,28.8,51.2,28.2,53.3,28.3z"/>
			</g>
		</g>
	</g>
</g>
</svg>
