<?xml version="1.0" encoding="utf-8"?>
<!-- Generator: Adobe Illustrator 26.3.1, SVG Export Plug-In . SVG Version: 6.00 Build 0)  -->
<svg version="1.1" id="Layer_1" xmlns="http://www.w3.org/2000/svg" xmlns:xlink="http://www.w3.org/1999/xlink" x="0px" y="0px"
	 viewBox="0 0 133 133" style="enable-background:new 0 0 133 133;" xml:space="preserve">
<style type="text/css">
	.st0{fill:#896FC9;}
	.st1{fill:#FFFFFF;}
</style>
<g id="Layer_1_00000092444106019410514010000012084225038226774665_">
	<g id="Layer_1_00000130640081086220838410000011721614330154684315_">
		<g id="Layer_2_00000080909792367530824080000017432296311554303617_">
			<path class="st0" d="M121,133H12c-6.6,0-12-5.4-12-12V12C0,5.4,5.4,0,12,0h109c6.6,0,12,5.4,12,12v109
				C133,127.6,127.6,133,121,133z"/>
			<path class="st0" d="M121,133H12c-6.6,0-12-5.4-12-12V12C0,5.4,5.4,0,12,0h109c6.6,0,12,5.4,12,12v109
				C133,127.6,127.6,133,121,133z"/>
		</g>
	</g>
</g>
<g id="Layer_2_00000088813838582174209490000013633965803189442474_">
</g>
<g id="Layer_3">
</g>
<g id="Layer_4">
</g>
<g id="Layer_5">
	<g transform="translate(0,-952.36218)">
		<g id="XMLID_00000170276779254362717910000005392973548536058536_">
			<g>
				<path class="st1" d="M24.4,1009.1l24.9,10.1c-0.2,0.3-0.3,0.7-0.3,1.1l-24.5,9.6C22,1023.5,21.6,1016.2,24.4,1009.1z"/>
				<path class="st1" d="M49.1,1024.7l-9.8,22.1c-5.5-3.1-10.1-7.7-13.1-13.1L49.1,1024.7z"/>
				<path class="st1" d="M53.1,1025.9l10.1,21.8c-6.6,2.2-13.7,2.4-20.1,0.6L53.1,1025.9z"/>
				<path class="st1" d="M56.9,1022.3l24.3,9.9c-3.4,6.6-8.4,11.2-14.2,14l-10.6-22.8C56.6,1023,56.8,1022.6,56.9,1022.3z"/>
				<path class="st1" d="M78.8,988.1c-2.3,0-4.1,0.9-4.1,2s1.8,2,4.1,2c2.3,0,4.1-0.9,4.1-2S81,988.1,78.8,988.1z M78.8,987
					c17.7,0,31.9,14.2,31.9,31.8c0,17.6-14.3,31.8-31.9,31.8c-3.2,0-6.2-0.4-9-1.3c6.8-3.5,12.7-9.3,16.2-17.5
					c0.4-1-0.1-2.3-1.1-2.7l-37.6-15.3C49.6,998.7,62.8,987,78.8,987z"/>
				<path d="M78.8,982.9c19.9,0,36,16.2,36,36c0,19.8-16.2,35.9-36,35.9c-5.2,0-10.2-1.1-14.6-3.1c-7,2.2-16.6,2.8-24.6-0.2
					c-16.2-7.7-26.9-27.4-18.3-46c0.3-0.7,1.1-1.2,1.8-1.2c6.9,1.2,13.4,6.2,20.2,8C46.4,995.6,61.1,982.9,78.8,982.9z
					 M110.7,1018.9c0-17.6-14.3-31.8-31.9-31.8c-16,0-29.2,11.6-31.5,26.9l37.6,15.3c1,0.4,1.5,1.7,1.1,2.7
					c-3.6,8.2-9.5,14-16.2,17.5c2.9,0.8,5.9,1.3,9,1.3C96.4,1050.7,110.7,1036.5,110.7,1018.9z M81.2,1032.1l-24.3-9.9
					c-0.1,0.4-0.3,0.7-0.5,1L67,1046C72.7,1043.3,77.8,1038.7,81.2,1032.1z M63.2,1047.7l-10.1-21.8l-10,22.4
					C49.5,1050,56.6,1049.9,63.2,1047.7z M49.3,1019.2l-24.9-10.1c-2.8,7.2-2.4,14.4,0.1,20.8l24.5-9.6
					C49,1019.9,49.1,1019.6,49.3,1019.2z M39.3,1046.8l9.8-22.1l-22.9,9C29.2,1039.1,33.8,1043.7,39.3,1046.8z"/>
				<ellipse cx="78.8" cy="990.1" rx="4.1" ry="2"/>
			</g>
		</g>
	</g>
</g>
<g id="Layer_6">
</g>
<g id="Layer_7">
</g>
<g id="Layer_8">
</g>
<g id="Layer_9">
</g>
</svg>
