<?xml version="1.0" encoding="utf-8"?>
<!-- Generator: Adobe Illustrator 26.3.1, SVG Export Plug-In . SVG Version: 6.00 Build 0)  -->
<svg version="1.1" xmlns="http://www.w3.org/2000/svg" xmlns:xlink="http://www.w3.org/1999/xlink" x="0px" y="0px"
	 viewBox="0 0 133 133" style="enable-background:new 0 0 133 133;" xml:space="preserve">
<style type="text/css">
	.st0{fill:#BCD0D8;}
	.st1{fill:#6699B2;}
	.st2{fill:#496D7F;}
	.st3{fill:#5D699B;}
	.st4{fill:#FFFFFF;}
	.st5{fill:#FFFFFF;stroke:#000000;stroke-width:2;stroke-miterlimit:10;}
</style>
<g id="Layer_1">
	<g id="Layer_2_00000155104920816493244110000011383053977841191595_">
		<path class="st3" d="M120.8,133h-109c-6.6,0-12-5.4-12-12V12c0-6.6,5.4-12,12-12h109c6.6,0,12,5.4,12,12v109
			C132.8,127.6,127.4,133,120.8,133z"/>
		<path class="st3" d="M120.8,133h-109c-6.6,0-12-5.4-12-12V12c0-6.6,5.4-12,12-12h109c6.6,0,12,5.4,12,12v109
			C132.8,127.6,127.4,133,120.8,133z"/>
	</g>
</g>
<g id="Layer_2">
</g>
<g id="Layer_4">
</g>
<g id="Layer_5_00000096759886075198047500000016841880956640546723_">
</g>
<g id="Layer_6_00000151532325249707469710000014370122528315639221_">
</g>
<g id="Layer_7_00000042717999357893301760000000855885267568530853_">
</g>
<g id="Layer_8_00000168831599467053464300000003505523461608539011_">
</g>
<g id="Layer_9_00000089543259283313251050000005252079673544207528_">
</g>
<g id="Layer_10_00000084509998272139497780000008077192264451833754_">
</g>
<g id="Layer_11_00000116220595310884250560000013807966725250984093_">
</g>
<g id="Layer_12">
</g>
<g id="Layer_13">
</g>
<g id="Layer_14">
</g>
<g id="Layer_15">
</g>
<g id="Layer_16">
</g>
<g id="Layer_17">
	<g id="Layer_11_00000173125108914298207790000015985465671501625531_">
		<g>
			<g id="XMLID_00000086690264395568463330000003081574575985863331_">
				<g>
					<path class="st4" d="M103.5,46c0.4,0.8,0.9,1.5,1.5,2.2c-0.8,0.4-1.5,0.9-2.2,1.5c-0.4-0.8-0.9-1.5-1.5-2.2
						C102.1,47.1,102.8,46.6,103.5,46z"/>
					<path class="st4" d="M30.3,53c0.3,0.8,0.8,1.6,1.3,2.3c-0.8,0.3-1.6,0.8-2.3,1.3c-0.3-0.8-0.7-1.6-1.3-2.3
						C28.8,54,29.5,53.5,30.3,53z"/>
					<path class="st4" d="M66.4,87.3v27L41.7,107V88.7l19,4.7v0c0.7,0.2,1.3-0.1,1.7-0.7L66.4,87.3z"/>
					<path class="st4" d="M94.5,88.7V107l-24.7,7.3v-27l4,5.5c0.4,0.6,1.1,0.8,1.8,0.7L94.5,88.7z"/>
					<polygon class="st4" points="99.8,84 75.8,89.9 71,83.3 94.2,78.5 					"/>
					<polygon class="st4" points="65.2,83.3 60.4,89.9 36.4,84 42,78.5 					"/>
					<path d="M109.1,47.4c0.5,0.4,0.7,1,0.6,1.6c-0.1,0.6-0.5,1.1-1.1,1.3c-2,0.5-3.8,1.8-5,3.5c-0.3,0.4-0.8,0.6-1.3,0.6
						c-0.1,0-0.2,0-0.3,0c-0.6-0.1-1.1-0.5-1.3-1.1c-0.5-2-1.8-3.8-3.5-5c-0.5-0.4-0.7-1-0.6-1.6c0.1-0.6,0.5-1.1,1.1-1.3
						c2-0.5,3.8-1.8,5-3.5c0.4-0.5,1-0.7,1.6-0.6c0.6,0.1,1.1,0.5,1.3,1.1C106.1,44.5,107.4,46.2,109.1,47.4z M105,48.2
						c-0.6-0.7-1.1-1.4-1.5-2.2c-0.7,0.6-1.4,1.1-2.2,1.5c0.6,0.7,1.1,1.4,1.5,2.2C103.5,49.1,104.2,48.6,105,48.2z"/>
					<path d="M41.1,75l16.8-3.5l0.7,3.3l-8.9,1.8l18.4,3.8l18.4-3.8l-8.9-1.8l0.7-3.3L95.1,75v0c0.3,0.1,0.6,0.2,0.8,0.4l8.4,8.2
						c0.4,0.4,0.6,1.1,0.4,1.6c-0.2,0.6-0.6,1-1.2,1.2l-5.7,1.4v20.4c0,0.7-0.5,1.4-1.2,1.6l-28,8.2c-0.2,0.1-0.3,0.1-0.5,0.1
						c-0.2,0-0.3,0-0.5-0.1l-28-8.2c-0.7-0.2-1.2-0.9-1.2-1.6V87.9l-5.7-1.4c-0.6-0.1-1.1-0.6-1.2-1.2c-0.1-0.6,0-1.2,0.5-1.6
						l8.4-8.2C40.5,75.2,40.8,75.1,41.1,75z M75.8,89.9l24-5.9l-5.6-5.5L71,83.3L75.8,89.9z M94.5,107V88.7l-19,4.7
						c-0.7,0.2-1.3-0.1-1.8-0.7l-4-5.5v27L94.5,107z M66.4,114.3v-27l-4,5.5c-0.4,0.6-1.1,0.8-1.7,0.7v0l-19-4.7V107L66.4,114.3z
						 M60.4,89.9l4.8-6.6L42,78.5L36.4,84L60.4,89.9z"/>
					<path d="M96.7,23.3c1.5,2.1,1.6,4.8,0.4,7.1c-1.2,2.2-3.6,3.6-6.2,3.4l-1.1,3.4l-3.2-1l1.5-4.8c0.1-0.4,0.4-0.8,0.8-1
						s0.8-0.2,1.3-0.1c1.3,0.4,2.7,0,3.6-1.1c0.9-1,1-2.5,0.4-3.7c-0.6-1.2-1.9-1.9-3.3-1.8c-1.3,0.1-2.5,1-2.9,2.3l-3.2-1
						c0.8-2.4,2.8-4.2,5.3-4.6C92.7,20.1,95.2,21.2,96.7,23.3z"/>
					<path d="M95.9,49.9L97,53c-3.4,1.2-6.6,2.8-9.6,4.8c-3,2.1-5.8,4.5-8.2,7.1c-2.4,2.7-4.5,5.7-6.2,8.9L70,72.4
						c3.7-6.9,9-12.9,15.6-17.3C88.8,52.9,92.2,51.2,95.9,49.9z"/>
					<path d="M88.9,40.4c-0.1,0.4-0.4,0.8-0.8,1s-0.8,0.2-1.3,0.1c-0.4-0.1-0.8-0.4-1-0.8c-0.2-0.4-0.2-0.8-0.1-1.3
						c0.1-0.4,0.4-0.8,0.8-1s0.8-0.2,1.3-0.1c0.4,0.1,0.8,0.4,1,0.8C89,39.5,89,39.9,88.9,40.4z"/>
					<path d="M76.4,41.8c0.1,4-2.7,7.6-6.7,8.5v7.8h-3.3v-9.3c0-0.4,0.2-0.9,0.5-1.2c0.3-0.3,0.7-0.5,1.2-0.5c2.9-0.1,5.1-2.5,5-5.3
						c0.1-1.4-0.4-2.7-1.3-3.7c-0.9-1-2.2-1.6-3.6-1.6c-1.4,0-2.7,0.5-3.7,1.5s-1.5,2.3-1.5,3.6h0l-3.3-0.2c0.1-4.5,3.8-8.2,8.3-8.3
						C72.8,33.2,76.5,37.1,76.4,41.8z"/>
					<path d="M68.1,59.8c0.9,0,1.7,0.9,1.7,1.7c0,0.9-0.7,1.7-1.7,1.7c-0.9,0-1.7-0.9-1.7-1.7C66.4,60.6,67.2,59.8,68.1,59.8z"/>
					<path d="M66.3,72.6l-3.1,1.2c-1.1-3.1-7.4-18.5-20.4-20.6c-2-0.3-4.1-0.3-6.1,0l-0.5-3.3c2.4-0.4,4.8-0.4,7.2,0v0
						C58.1,52.3,65.1,69.2,66.3,72.6z"/>
					<path d="M51,19.1c1.1,2.9,0.1,6.1-2.4,7.8l1.2,3.3l-3.1,1.2l-1.8-4.7c-0.3-0.9,0.1-1.8,1-2.1c1.3-0.5,2.1-1.7,2.2-3
						s-0.7-2.6-2-3.2s-2.7-0.3-3.7,0.6c-1,0.9-1.3,2.4-0.8,3.6l-3.1,1.2c-1.3-3.5,0.5-7.3,3.9-8.6C45.9,13.9,49.7,15.7,51,19.1z"/>
					<path d="M50.1,32.4c0.4,0.2,0.7,0.5,0.9,0.9c0.2,0.4,0.1,0.9,0,1.3c-0.2,0.4-0.5,0.7-0.9,0.9c-0.4,0.2-0.9,0.1-1.3,0
						c-0.4-0.2-0.7-0.5-0.9-0.9c-0.3-0.9,0.1-1.8,1-2.2C49.2,32.2,49.7,32.3,50.1,32.4z"/>
					<path d="M35.7,55.1c0.4,0.4,0.6,1.1,0.4,1.7c-0.2,0.6-0.7,1-1.3,1.2c-2.1,0.3-4,1.3-5.4,2.9c-0.3,0.3-0.7,0.5-1.2,0.5
						c-0.2,0-0.3,0-0.5-0.1c-0.6-0.2-1-0.7-1.2-1.3c-0.3-2.1-1.3-4-2.9-5.4c-0.4-0.4-0.6-1.1-0.4-1.7c0.2-0.6,0.7-1,1.3-1.2
						c2.1-0.3,4-1.3,5.4-2.9c0.4-0.4,1.1-0.6,1.7-0.4c0.6,0.2,1,0.7,1.2,1.3C33.1,51.8,34.1,53.7,35.7,55.1z M31.5,55.3
						c-0.5-0.7-1-1.5-1.3-2.3c-0.7,0.5-1.5,1-2.3,1.3c0.5,0.7,1,1.5,1.3,2.3C29.9,56.1,30.7,55.7,31.5,55.3z"/>
				</g>
			</g>
		</g>
	</g>
</g>
<g id="Layer_18">
</g>
</svg>
