<?xml version="1.0" encoding="utf-8"?>
<!-- Generator: Adobe Illustrator 27.1.1, SVG Export Plug-In . SVG Version: 6.00 Build 0)  -->
<svg version="1.1" id="Layer_1" xmlns="http://www.w3.org/2000/svg" xmlns:xlink="http://www.w3.org/1999/xlink" x="0px" y="0px"
	 viewBox="0 0 133 133" style="enable-background:new 0 0 133 133;" xml:space="preserve">
<style type="text/css">
	.st0{fill:#5B8DA5;}
	.st1{fill:#FFFFFF;}
</style>
<g id="Layer_2_00000093141461902381533440000016001386806369555376_">
	<path class="st0" d="M121,133H12c-6.6,0-12-5.4-12-12V12C0,5.4,5.4,0,12,0h109c6.6,0,12,5.4,12,12v109C133,127.6,127.6,133,121,133
		z"/>
</g>
<g id="Layer_1_00000055699069439593866580000016909284159479219097_">
</g>
<g id="Layer_3">
</g>
<g id="Layer_5">
	<g>
		<g id="XMLID_00000116923732406508342740000008196836764597066115_">
			<g>
				<path class="st1" d="M76.3,100.5l-1,0.9c-0.5,0.5-0.9,1.2-1.1,1.9l-8.7,0c0-1.6,1.3-2.8,2.8-2.8
					C68.4,100.5,76.3,100.5,76.3,100.5z"/>
				<path class="st1" d="M40.7,89.4c-1,1.4-2.4,2.6-4,3.3c-1.5,0.7-2.4,2.2-2.4,3.8v2.5c0,0.4-0.2,0.9-0.6,1.1l-3.7,2.8
					c-0.3,0.2-0.7,0.4-1.1,0.4c-0.6,0-1.2-0.3-1.5-0.8l-0.4-0.6c-0.8-1.2-1.2-2.6-1.2-4c0-1.6,0.6-3.2,1.6-4.5l1.3-1.6
					c1.8-2.2,2.8-5.1,2.8-8v-2.2C34.1,84.6,37.2,87.3,40.7,89.4z"/>
				<path d="M108.2,86.7c1.8,2.1,2.8,4.8,2.8,7.6c0,6.5-5.3,11.8-11.8,11.8h-8.3c-0.6,1.7-2.2,2.8-4,2.8l-8.3,0
					c-1.9,0-3.5-1.2-4.1-2.8h-8.8c-1.6,0-2.8-1.3-2.8-2.8c0-3.1,2.5-5.7,5.7-5.7h8.5l0-0.6c0-0.8-0.1-1.5-0.2-2.3H59.9
					c-0.9,0-1.9,0-2.8-0.1v10.1c0,2.3-1.9,4.3-4.2,4.3h-8.4c-2.4,0-4.4-2-4.4-4.4c0-1.2,0.5-2.3,1.3-3.1l1.1-1.1
					c0.3-0.3,0.5-0.7,0.5-1.1v-2.2c0-1.7-0.3-3.3-0.8-4.9c-1.2,1.3-2.5,2.3-4.1,3.1c-0.5,0.2-0.8,0.7-0.8,1.3v2.5
					c0,1.3-0.6,2.6-1.7,3.4l-3.7,2.8c-0.8,0.6-1.8,0.9-2.8,0.9c-1.6,0-3-0.8-3.9-2.1l-0.4-0.6c-1.1-1.7-1.7-3.6-1.7-5.6
					c0-2.3,0.8-4.5,2.2-6.3l1.3-1.6c1.4-1.8,2.2-4,2.2-6.2v-6.2c-0.2-0.4-0.4-0.7-0.6-1.1c-3.3-5.6-5-12.1-5-18.6v-5.2
					c0-5.3,1-10.5,3-15.4c2-4.9,5-9.3,8.7-13c2.1-2.1,4.9-3.3,7.9-3.3c3.3,0,6.3,1.4,8.5,3.9l4.9,5.7c0.7,0.8,1,1.8,1,2.8v0
					c0,2.5-2,4.5-4.5,4.5H41.8c-0.6,0-1.2-0.1-1.7-0.2c-1.8,2.5-2.9,5.5-2.9,8.6c0,7.9,6.4,14.3,14.3,14.3H73
					c8.3,0,16.2,3.6,21.6,10L108.2,86.7z M108.2,94.4c0-2.1-0.8-4.2-2.1-5.8l-13.6-16c-4.9-5.7-12-9-19.5-9H51.5
					c-9.5,0-17.2-7.7-17.2-17.2c0-3.5,1.1-7,3.2-9.9c-0.7-0.6-1.2-1.2-1.6-2l2.5-1.3c0.6,1.3,1.9,2,3.3,2h10.8
					c0.9,0,1.7-0.8,1.7-1.7v0c0-0.4-0.1-0.7-0.4-1L49,26.8c-1.6-1.9-3.9-2.9-6.3-2.9c-2.2,0-4.3,0.9-5.9,2.4
					c-7,7-10.9,16.4-10.9,26.4v5.2c0,10.2,4.6,19.8,12.3,26.2c-0.6-1.8-0.9-3.8-0.9-5.8v-0.6H40v0.6c0,3.1,0.9,6,2.6,8.6
					c2,3,3.1,6.5,3.1,10.2v2.2c0,1.2-0.5,2.3-1.3,3.1l-1.1,1.1c-0.3,0.3-0.5,0.7-0.5,1.1c0,0.9,0.7,1.6,1.6,1.6h8.3
					c0.8,0,1.4-0.6,1.4-1.4V92.3c0-2.3,0.5-4.6,1.6-6.7l2.5,1.3c-0.8,1.5-1.2,3.2-1.3,4.9C58,91.9,59,92,59.9,92h16.2
					c-0.4-1.2-1-2.4-1.7-3.5c-2-3-3.1-6.5-3.1-10.2v-0.6h2.8v0.6c0,3.1,0.9,6,2.6,8.6c2,3,3.1,6.5,3.1,10.2v2.2
					c0,1.2-0.5,2.3-1.3,3.1l-1.1,1.1c-0.3,0.3-0.5,0.7-0.5,1.1c0,0.9,0.7,1.6,1.6,1.6h8.3c0.8,0,1.4-0.6,1.4-1.4V92.3
					c0-2.3,0.5-4.6,1.6-6.7l2.5,1.3c-0.8,1.6-1.2,3.3-1.3,5.1h7.1c2.3,0,4.3,1.9,4.3,4.2c0,2.3-1.9,4.3-4.3,4.3h-7.1v2.8h8.1
					C104.1,103.3,108.2,99.3,108.2,94.4z M99.7,96.2c0-0.8-0.6-1.4-1.4-1.4h-7.1v2.8h7.1C99,97.7,99.7,97,99.7,96.2z M75.4,101.4
					l1-0.9h-7.9c-1.6,0-2.8,1.3-2.8,2.8l8.7,0C74.5,102.6,74.9,102,75.4,101.4z M36.7,92.8c1.6-0.8,2.9-1.9,4-3.3
					c-3.5-2.1-6.6-4.8-9.2-7.9v2.2c0,2.9-1,5.7-2.8,8l-1.3,1.6c-1,1.3-1.6,2.9-1.6,4.5c0,1.4,0.4,2.8,1.2,4l0.4,0.6
					c0.3,0.5,0.9,0.8,1.5,0.8c0.4,0,0.8-0.1,1.1-0.4l3.7-2.8c0.3-0.3,0.6-0.7,0.6-1.1v-2.5C34.3,94.9,35.3,93.5,36.7,92.8z"/>
				<path class="st1" d="M106,88.6c1.4,1.6,2.1,3.7,2.1,5.8c0,4.9-4,9-9,9h-8.1v-2.8h7.1c2.3,0,4.3-1.9,4.3-4.3
					c0-2.3-1.9-4.2-4.3-4.2h-7.1c0.1-1.8,0.5-3.5,1.3-5.1l-2.5-1.3c-1,2.1-1.6,4.4-1.6,6.7v12.4c0,0.8-0.6,1.4-1.4,1.4h-8.3
					c-0.9,0-1.6-0.7-1.6-1.6c0-0.4,0.2-0.8,0.5-1.1l1.1-1.1c0.8-0.8,1.3-1.9,1.3-3.1v-2.2c0-3.6-1.1-7.2-3.1-10.2
					c-1.7-2.6-2.6-5.5-2.6-8.6v-0.6h-2.8v0.6c0,3.6,1.1,7.1,3.1,10.2c0.7,1.1,1.3,2.2,1.7,3.5H59.9c-0.9,0-1.9,0-2.8-0.1
					c0.1-1.7,0.5-3.4,1.3-4.9l-2.5-1.3c-1,2.1-1.6,4.3-1.6,6.7v12.4c0,0.8-0.6,1.4-1.4,1.4h-8.3c-0.9,0-1.6-0.7-1.6-1.6
					c0-0.4,0.2-0.8,0.5-1.1l1.1-1.1c0.8-0.8,1.3-1.9,1.3-3.1v-2.2c0-3.6-1.1-7.2-3.1-10.2c-1.7-2.6-2.6-5.5-2.6-8.6v-0.6h-2.8v0.6
					c0,2,0.3,3.9,0.9,5.8c-7.7-6.4-12.3-16-12.3-26.2v-5.2c0-10,3.9-19.3,10.9-26.4c1.6-1.6,3.7-2.4,5.9-2.4c2.4,0,4.7,1.1,6.3,2.9
					l4.9,5.7c0.2,0.3,0.4,0.6,0.4,1v0c0,0.9-0.8,1.7-1.7,1.7H41.8c-1.4,0-2.7-0.8-3.3-2l-2.5,1.3c0.4,0.8,1,1.5,1.6,2
					c-2,2.9-3.2,6.4-3.2,9.9c0,9.5,7.7,17.2,17.2,17.2H73c7.5,0,14.6,3.3,19.5,9L106,88.6z M45.7,28.1c0-1.9-2.8-1.9-2.8,0
					C42.9,30,45.7,30,45.7,28.1z"/>
				<path d="M42.9,28.1c0-1.9,2.8-1.9,2.8,0C45.7,30,42.9,30,42.9,28.1z"/>
			</g>
		</g>
	</g>
</g>
<g id="Layer_6">
</g>
<g id="Layer_7">
</g>
<g id="Layer_8">
</g>
<g id="Layer_9">
</g>
<g id="Layer_10">
</g>
<g id="Layer_11">
</g>
</svg>
