<?xml version="1.0" encoding="utf-8"?>
<!-- Generator: Adobe Illustrator 26.3.1, SVG Export Plug-In . SVG Version: 6.00 Build 0)  -->
<svg version="1.1" xmlns="http://www.w3.org/2000/svg" xmlns:xlink="http://www.w3.org/1999/xlink" x="0px" y="0px"
	 viewBox="0 0 133 133" style="enable-background:new 0 0 133 133;" xml:space="preserve">
<style type="text/css">
	.st0{fill:#BCD0D8;}
	.st1{fill:#FFFFFF;}
</style>
<g id="Layer_2">
	<path class="st0" d="M121,133H12c-6.6,0-12-5.4-12-12V12C0,5.4,5.4,0,12,0h109c6.6,0,12,5.4,12,12v109C133,127.6,127.6,133,121,133
		z"/>
</g>
<g id="Layer_1">
</g>
<g id="Layer_3">
</g>
<g id="Layer_5">
	<g>
		<g id="XMLID_00000116923732406508342740000008196836764597066115_">
			<g>
				<path class="st1" d="M76.35,100.49l-0.96,0.95c-0.53,0.53-0.91,1.18-1.12,1.89l-8.69-0.01c0-1.56,1.28-2.83,2.84-2.83H76.35z"/>
				<path class="st1" d="M40.68,89.41c-1.04,1.41-2.39,2.56-3.97,3.34c-1.45,0.73-2.36,2.19-2.36,3.81v2.51
					c0,0.44-0.21,0.87-0.56,1.13l-3.68,2.76c-0.31,0.23-0.71,0.36-1.1,0.36c-0.62,0-1.2-0.3-1.54-0.82l-0.41-0.62
					c-0.8-1.19-1.22-2.59-1.22-4.03c0-1.64,0.57-3.25,1.59-4.54l1.29-1.61c1.8-2.25,2.79-5.08,2.79-7.97v-2.25
					C34.11,84.6,37.21,87.29,40.68,89.41z"/>
				<path d="M108.19,86.72c1.81,2.13,2.81,4.85,2.81,7.64c0,6.51-5.29,11.8-11.79,11.8h-8.32c-0.59,1.66-2.17,2.84-4.02,2.84
					l-8.34,0.01c-1.88,0-3.5-1.18-4.14-2.84h-8.81c-1.57,0-2.84-1.28-2.84-2.84c0-3.14,2.55-5.68,5.68-5.68h8.51l0.01-0.56
					c0-0.77-0.06-1.53-0.17-2.28H59.9c-0.94,0-1.89-0.04-2.84-0.12v10.05c0,2.35-1.91,4.26-4.25,4.26h-8.35
					c-2.44,0-4.43-1.99-4.43-4.43c0-1.18,0.46-2.3,1.29-3.13l1.08-1.07c0.3-0.3,0.47-0.7,0.47-1.13v-2.15c0-1.68-0.27-3.33-0.8-4.9
					c-1.16,1.27-2.54,2.33-4.09,3.11c-0.49,0.24-0.79,0.72-0.79,1.26v2.51c0,1.33-0.63,2.6-1.7,3.4l-3.67,2.75
					c-0.81,0.61-1.81,0.94-2.81,0.94c-1.57,0-3.04-0.78-3.9-2.08l-0.41-0.62c-1.11-1.67-1.7-3.61-1.7-5.61
					c0-2.28,0.78-4.52,2.21-6.3l1.29-1.61c1.4-1.76,2.18-3.96,2.18-6.21v-6.15c-0.23-0.36-0.44-0.71-0.65-1.07
					C24.74,70.89,23,64.45,23,57.9v-5.25c0-5.3,1.03-10.46,3.05-15.36c2.03-4.89,4.96-9.27,8.7-13.02c2.11-2.11,4.92-3.27,7.9-3.27
					c3.26,0,6.35,1.42,8.47,3.9l4.89,5.7c0.68,0.8,1.05,1.81,1.05,2.85v0.05c0,2.5-2.03,4.53-4.52,4.53H41.78
					c-0.59,0-1.17-0.08-1.72-0.23c-1.85,2.47-2.87,5.51-2.87,8.6c0,7.91,6.44,14.34,14.34,14.34h21.45
					c8.34,0,16.23,3.65,21.63,10.01L108.19,86.72z M108.16,94.36c0-2.12-0.76-4.18-2.13-5.8L92.45,72.58c-4.87-5.72-11.96-9-19.47-9
					H51.53c-9.47,0-17.18-7.71-17.18-17.18c0-3.55,1.13-7.05,3.17-9.94c-0.65-0.56-1.2-1.25-1.6-2.05l2.54-1.27
					c0.63,1.27,1.91,2.05,3.32,2.05h10.75c0.94,0,1.69-0.76,1.69-1.69v-0.05c0-0.37-0.13-0.72-0.37-1l-4.88-5.7
					c-1.58-1.85-3.89-2.91-6.32-2.91c-2.23,0-4.32,0.87-5.89,2.43c-7.04,7.05-10.92,16.42-10.92,26.38v5.25
					c0,10.16,4.6,19.77,12.28,26.19c-0.61-1.84-0.93-3.78-0.93-5.75v-0.56h2.84v0.56c0,3.06,0.9,6.03,2.6,8.59
					c2.02,3.01,3.08,6.53,3.08,10.16v2.15c0,1.18-0.46,2.3-1.3,3.13l-1.07,1.08c-0.3,0.3-0.47,0.7-0.47,1.12
					c0,0.88,0.72,1.59,1.59,1.59h8.35c0.78,0,1.42-0.63,1.42-1.42V92.31c0-2.3,0.54-4.6,1.56-6.65l2.54,1.27
					c-0.76,1.52-1.19,3.21-1.26,4.92c0.94,0.08,1.89,0.12,2.83,0.12h16.16c-0.42-1.22-1-2.38-1.72-3.47
					c-2.02-3.02-3.08-6.53-3.08-10.16v-0.56h2.84v0.56c0,3.06,0.9,6.03,2.6,8.59c2.01,3.01,3.08,6.53,3.08,10.16v2.15
					c0,1.18-0.46,2.3-1.3,3.13l-1.07,1.08c-0.31,0.3-0.47,0.69-0.47,1.12c0,0.88,0.71,1.59,1.59,1.59h8.34
					c0.79,0,1.42-0.63,1.42-1.42V92.31c0-2.3,0.54-4.6,1.57-6.66l2.54,1.27c-0.78,1.56-1.22,3.3-1.27,5.05h7.1
					c2.34,0,4.26,1.91,4.26,4.25c0,2.35-1.92,4.26-4.26,4.26h-7.1v2.84h8.07C104.14,103.32,108.16,99.3,108.16,94.36z M99.65,96.23
					c0-0.79-0.64-1.42-1.42-1.42h-7.1v2.84h7.1C99.01,97.65,99.65,97.01,99.65,96.23z M75.39,101.44l0.96-0.95h-7.93
					c-1.56,0-2.84,1.27-2.84,2.83l8.69,0.01C74.48,102.62,74.86,101.97,75.39,101.44z M36.71,92.75c1.58-0.78,2.93-1.93,3.97-3.34
					c-3.47-2.12-6.57-4.81-9.17-7.93v2.25c0,2.89-0.99,5.72-2.79,7.97l-1.29,1.61c-1.02,1.29-1.59,2.9-1.59,4.54
					c0,1.44,0.42,2.84,1.22,4.03l0.41,0.62c0.34,0.52,0.92,0.82,1.54,0.82c0.39,0,0.79-0.13,1.1-0.36l3.68-2.76
					c0.35-0.26,0.56-0.69,0.56-1.13v-2.51C34.35,94.94,35.26,93.48,36.71,92.75z"/>
				<path class="st1" d="M106.03,88.56c1.37,1.62,2.13,3.68,2.13,5.8c0,4.94-4.02,8.96-8.96,8.96h-8.07v-2.84h7.1
					c2.34,0,4.26-1.91,4.26-4.26c0-2.34-1.92-4.25-4.26-4.25h-7.1c0.05-1.75,0.49-3.49,1.27-5.05l-2.54-1.27
					c-1.03,2.06-1.57,4.36-1.57,6.66v12.43c0,0.79-0.63,1.42-1.42,1.42h-8.34c-0.88,0-1.59-0.71-1.59-1.59
					c0-0.43,0.16-0.82,0.47-1.12l1.07-1.08c0.84-0.83,1.3-1.95,1.3-3.13v-2.15c0-3.63-1.07-7.15-3.08-10.16
					c-1.7-2.56-2.6-5.53-2.6-8.59v-0.56h-2.84v0.56c0,3.63,1.06,7.14,3.08,10.16c0.72,1.09,1.3,2.25,1.72,3.47H59.9
					c-0.94,0-1.89-0.04-2.83-0.12c0.07-1.71,0.5-3.4,1.26-4.92l-2.54-1.27c-1.02,2.05-1.56,4.35-1.56,6.65v12.43
					c0,0.79-0.64,1.42-1.42,1.42h-8.35c-0.87,0-1.59-0.71-1.59-1.59c0-0.42,0.17-0.82,0.47-1.12l1.07-1.08
					c0.84-0.83,1.3-1.95,1.3-3.13v-2.15c0-3.63-1.06-7.15-3.08-10.16c-1.7-2.56-2.6-5.53-2.6-8.59v-0.56h-2.84v0.56
					c0,1.97,0.32,3.91,0.93,5.75c-7.68-6.42-12.28-16.03-12.28-26.19v-5.25c0-9.96,3.88-19.33,10.92-26.38
					c1.57-1.56,3.66-2.43,5.89-2.43c2.43,0,4.74,1.06,6.32,2.91l4.88,5.7c0.24,0.28,0.37,0.63,0.37,1v0.05
					c0,0.93-0.75,1.69-1.69,1.69H41.78c-1.41,0-2.69-0.78-3.32-2.05l-2.54,1.27c0.4,0.8,0.95,1.49,1.6,2.05
					c-2.04,2.89-3.17,6.39-3.17,9.94c0,9.47,7.71,17.18,17.18,17.18h21.45c7.51,0,14.6,3.28,19.47,9L106.03,88.56z M45.71,28.1
					c0-1.9-2.84-1.9-2.84,0C42.87,29.99,45.71,29.99,45.71,28.1z"/>
				<path d="M42.87,28.1c0-1.9,2.84-1.9,2.84,0C45.71,29.99,42.87,29.99,42.87,28.1z"/>
			</g>
		</g>
	</g>
</g>
<g id="Layer_6">
</g>
<g id="Layer_7">
</g>
<g id="Layer_8">
</g>
<g id="Layer_9">
</g>
<g id="Layer_10">
</g>
<g id="Layer_11">
</g>
</svg>
