<?xml version="1.0" encoding="utf-8"?>
<!-- Generator: Adobe Illustrator 27.1.1, SVG Export Plug-In . SVG Version: 6.00 Build 0)  -->
<svg version="1.1" id="Layer_1" xmlns="http://www.w3.org/2000/svg" xmlns:xlink="http://www.w3.org/1999/xlink" x="0px" y="0px"
	 viewBox="0 0 133 133" style="enable-background:new 0 0 133 133;" xml:space="preserve">
<style type="text/css">
	.st0{fill:#5C00B8;}
	.st1{fill:#FFFFFF;}
	.st2{fill:none;stroke:#000000;stroke-width:4;stroke-linecap:round;stroke-linejoin:round;}
</style>
<rect class="st0" width="133" height="133"/>
<g id="Layer_1_00000053532560804949431360000008156932259416001184_">
	<g id="Layer_1_00000090274356291899824030000010684537839710869680_">
		<g id="Layer_2_00000086651517982588396750000013161939668548864944_">
			<path class="st0" d="M121,133H12c-6.6,0-12-5.4-12-12V12C0,5.4,5.4,0,12,0h109c6.6,0,12,5.4,12,12v109
				C133,127.6,127.6,133,121,133z"/>
			<path class="st0" d="M121,133H12c-6.6,0-12-5.4-12-12V12C0,5.4,5.4,0,12,0h109c6.6,0,12,5.4,12,12v109
				C133,127.6,127.6,133,121,133z"/>
		</g>
	</g>
</g>
<g id="Layer_3">
	<g transform="matrix(0.94871952,0,0,0.95348927,2.5640238,46.62058)">
		<g id="XMLID_00000121247205149937285870000009296183785889000346_">
			<g>
				<path class="st1" d="M111.5,37.5c0.1,0.1,0.1,0.2,0.1,0.4s-0.1,0.3-0.1,0.4L94.7,60.4c0,0.1-0.1,0.1-0.1,0.2l-6.7,8.9
					c-0.1,0.2-0.4,0.2-0.5,0l-6.7-8.9c0,0-0.1-0.1-0.1-0.2L63.8,38.3c-0.1-0.2-0.1-0.5,0-0.7l6.7-8.9c0.1-0.2,0.4-0.2,0.5,0
					l10.4,13.8v-68.9c0-0.8,0.5-1.5,1.1-1.5h11.1c0.6,0,1.1,0.7,1.1,1.5v67.8l9.6-12.7c0.1-0.2,0.4-0.2,0.5,0L111.5,37.5z"/>
				<path class="st1" d="M71,3.4c0.1,0.1,0.1,0.2,0.1,0.4S71,4.1,71,4.2L64.3,13c-0.1,0.2-0.4,0.2-0.5,0L54.2,0.4v67.8
					c0,0.8-0.5,1.5-1.1,1.5H42c-0.6,0-1.1-0.7-1.1-1.5V-0.7L30.5,13c-0.1,0.2-0.4,0.2-0.5,0l-6.7-8.9c-0.1-0.2-0.1-0.5,0-0.7
					l16.8-22.2c0-0.1,0.1-0.1,0.1-0.2l6.7-8.9c0.1-0.2,0.4-0.2,0.6,0l6.7,8.9c0,0,0.1,0.1,0.1,0.2L71,3.4z"/>
			</g>
			<g>
				<path class="st2" d="M111.6,37.9c0-0.1-0.1-0.3-0.1-0.4l-6.7-8.9c-0.1-0.2-0.4-0.2-0.5,0l-9.6,12.7v-67.8c0-0.8-0.5-1.5-1.1-1.5
					H82.5c-0.6,0-1.1,0.7-1.1,1.5v68.9L71,28.7c-0.1-0.2-0.4-0.2-0.5,0l-6.7,8.9c-0.1,0.2-0.1,0.5,0,0.7l16.8,22.2
					c0,0.1,0.1,0.1,0.1,0.2l6.7,8.9c0.1,0.2,0.4,0.2,0.5,0l6.7-8.9c0,0,0.1-0.1,0.1-0.2l16.8-22.2C111.5,38.2,111.6,38,111.6,37.9z"
					/>
				<path class="st2" d="M71.1,3.8c0,0.1-0.1,0.3-0.1,0.4L64.3,13c-0.1,0.2-0.4,0.2-0.5,0L54.2,0.4v67.8c0,0.8-0.5,1.5-1.1,1.5H42
					c-0.6,0-1.1-0.7-1.1-1.5V-0.7L30.5,13c-0.1,0.2-0.4,0.2-0.5,0l-6.7-8.9c-0.1-0.2-0.1-0.5,0-0.7l16.8-22.2c0-0.1,0.1-0.1,0.1-0.2
					l6.7-8.9c0.1-0.2,0.4-0.2,0.6,0l6.7,8.9c0,0,0.1,0.1,0.1,0.2L71,3.4C71,3.5,71.1,3.7,71.1,3.8z"/>
			</g>
		</g>
	</g>
</g>
</svg>
