<?xml version="1.0" encoding="utf-8"?>
<!-- Generator: Adobe Illustrator 26.3.1, SVG Export Plug-In . SVG Version: 6.00 Build 0)  -->
<svg version="1.1" id="Layer_1" xmlns="http://www.w3.org/2000/svg" xmlns:xlink="http://www.w3.org/1999/xlink" x="0px" y="0px"
	 viewBox="0 0 133 133" style="enable-background:new 0 0 133 133;" xml:space="preserve">
<style type="text/css">
	.st0{fill:#FFFFFF;}
</style>
<g>
	<g id="XMLID_00000052074743796886787830000011098123772207838885_">
		<g>
			<ellipse class="st0" cx="70.2" cy="66.9" rx="21.9" ry="22"/>
			<path d="M108.2,64.1c1.6,0,2.8,1.3,2.8,2.9s-1.3,2.9-2.8,2.9h-3.8c-1.6,0-2.8-1.3-2.8-2.9s1.3-2.9,2.8-2.9H108.2z"/>
			<path d="M105.5,46.4c0.8,1.4,0.3,3.1-1,3.9l-3.3,1.9c-0.5,0.3-0.9,0.4-1.4,0.4c-1,0-1.9-0.5-2.5-1.4c-0.8-1.4-0.3-3.1,1-3.9
				l3.3-1.9C103,44.6,104.7,45,105.5,46.4z"/>
			<path d="M104.5,83.5c1.4,0.8,1.8,2.5,1,3.9c-0.5,0.9-1.5,1.4-2.5,1.4c-0.5,0-1-0.1-1.4-0.4l-3.3-1.9c-1.4-0.8-1.8-2.5-1-3.9
				c0.8-1.4,2.5-1.8,3.9-1.1L104.5,83.5z"/>
			<path d="M90.6,31.4c1.4,0.8,1.8,2.5,1,3.9l-1.9,3.3c-0.5,0.9-1.5,1.4-2.5,1.4c-0.5,0-1-0.1-1.4-0.4c-1.4-0.8-1.8-2.5-1-3.9
				l1.9-3.3C87.5,31,89.2,30.6,90.6,31.4z"/>
			<path d="M91.6,98.6c0.8,1.4,0.3,3.1-1,3.9c-0.4,0.3-0.9,0.4-1.4,0.4c-1,0-1.9-0.5-2.5-1.4l-1.9-3.3c-0.8-1.4-0.3-3.1,1-3.9
				c1.4-0.8,3.1-0.3,3.9,1L91.6,98.6z"/>
			<path d="M70.2,39.2c15.2,0,27.5,12.4,27.5,27.7S85.3,94.6,70.2,94.6c-15.2,0-27.6-12.4-27.6-27.7S55,39.2,70.2,39.2z M92,66.9
				c0-12.1-9.8-22-21.8-22s-21.9,9.8-21.9,22s9.8,22,21.9,22S92,79,92,66.9z"/>
			<path d="M73,101.3v3.8c0,1.6-1.3,2.9-2.8,2.9c-1.6,0-2.8-1.3-2.8-2.9v-3.8c0-1.6,1.3-2.9,2.8-2.9C71.7,98.4,73,99.7,73,101.3z"/>
			<path d="M73,28.7v3.8c0,1.6-1.3,2.9-2.8,2.9c-1.6,0-2.8-1.3-2.8-2.9v-3.8c0-1.6,1.3-2.9,2.8-2.9C71.7,25.9,73,27.1,73,28.7z"/>
			<path d="M55.5,35.7c0.8,1.4,0.3,3.1-1,3.9C54,39.9,53.5,40,53,40c-1,0-2-0.5-2.5-1.4l-1.9-3.3c-0.8-1.4-0.3-3.1,1-3.9
				c1.4-0.8,3.1-0.3,3.9,1L55.5,35.7z"/>
			<path d="M54.5,94.2c1.4,0.8,1.8,2.6,1,3.9l-1.9,3.3c-0.5,0.9-1.5,1.4-2.5,1.4c-0.5,0-1-0.1-1.4-0.4c-1.4-0.8-1.8-2.5-1.1-3.9
				l1.9-3.3C51.4,93.9,53.1,93.4,54.5,94.2z"/>
			<path d="M42,47.3c1.4,0.8,1.8,2.5,1,3.9c-0.5,0.9-1.5,1.4-2.5,1.4c-0.5,0-1-0.1-1.4-0.4l-3.3-1.9c-1.4-0.8-1.8-2.5-1-3.9
				c0.8-1.4,2.5-1.8,3.9-1.1L42,47.3z"/>
			<path d="M43,82.7c0.8,1.4,0.3,3.1-1,3.9l-3.3,1.9c-0.5,0.3-0.9,0.4-1.4,0.4c-1,0-2-0.5-2.5-1.4c-0.8-1.4-0.3-3.1,1.1-3.9l3.3-1.9
				C40.5,80.8,42.2,81.3,43,82.7z"/>
			<path d="M36,64.1c1.6,0,2.8,1.3,2.8,2.9s-1.3,2.9-2.9,2.9h-3.8c-1.6,0-2.8-1.3-2.8-2.9s1.3-2.9,2.8-2.9H36z"/>
		</g>
	</g>
</g>
</svg>
