<?xml version="1.0" encoding="utf-8"?>
<!-- Generator: Adobe Illustrator 26.3.1, SVG Export Plug-In . SVG Version: 6.00 Build 0)  -->
<svg version="1.1" id="Layer_1" xmlns="http://www.w3.org/2000/svg" xmlns:xlink="http://www.w3.org/1999/xlink" x="0px" y="0px"
	 viewBox="0 0 133 70" style="enable-background:new 0 0 133 70;" xml:space="preserve">
<style type="text/css">
	.st0{fill:#FFFFFF;}
	.st1{fill:none;stroke:#000000;stroke-miterlimit:10;}
	.st2{fill:#231F20;}
</style>
<g>
	<g id="XMLID_00000164481427849604519860000000758968659365780874_">
		<g>
			<path class="st2" d="M50.1,41.4c1.3,1.9,3.1,3.5,5.1,4.4c-2.1-1-3.9-2.5-5.2-4.4c-1.9-2.8-2.6-6.2-1.9-9.5
				c0.7-3.3,2.6-6.2,5.4-8.1c1.9-1.3,4-2,6.2-2.1c-2.1,0.2-4.2,0.9-6,2.1c-2.8,1.9-4.8,4.8-5.4,8.1C47.5,35.2,48.2,38.6,50.1,41.4z"
				/>
			<path class="st0" d="M60.8,47c-0.9,0.1-1.8,0-2.7-0.2c-0.2,0-0.3-0.1-0.5-0.1c0.2,0,0.4,0.1,0.6,0.1C59.1,46.9,59.9,47,60.8,47z"
				/>
			<path class="st0" d="M66.4,31.2c0.8,2.5,0,5.2-2.1,6.9c-0.3,0.2-0.6,0.4-0.9,0.4c0.3,0,0.6-0.2,0.8-0.4
				C66.3,36.5,67.1,33.7,66.4,31.2c-0.7-1.4-1.9-2.4-3.3-2.9c-0.6-0.2-1.3-0.4-1.9-0.4c0.7,0,1.4,0.2,2,0.4
				C64.7,28.8,65.8,29.8,66.4,31.2z"/>
			<path class="st0" d="M82.9,21.7c1.5-0.2,2.8,0.2,3.9,1.2c0.7,0.7,1.2,1.5,1.5,2.4c-0.2-0.7-0.7-1.3-1.4-2c-1.1-1-2.5-1.4-3.9-1.3
				c-2.7,0.3-4.7,2.6-4.6,5.3v8.6c0,1.1-0.3,2.1-0.8,2.9c-0.5,0.9-1.2,1.7-2,2.3h-0.1c-1,3-3.2,5.5-6.1,6.8
				c-2.6,1.7-5.6,2.6-8.7,2.6c-1,0-2.1-0.1-3.1-0.3c-1.3-0.3-2.6-0.7-3.8-1.3c-0.1,0.1-0.1,0.2-0.2,0.3c-1.5,1.2-2.8,2.6-3.9,4.2
				c0,0.1,0,0.1,0,0.2c-0.1,0-0.1,0-0.1-0.1c-0.1-0.1-0.1-0.2,0-0.3c1.2-1.5,2.5-2.9,3.9-4.2c0.1-0.1,0.1-0.2,0.2-0.3
				c1.2,0.6,2.5,1,3.8,1.3c1,0.2,2,0.3,3.1,0.3c3.1,0,6.1-0.9,8.7-2.6c2.9-1.3,5.1-3.8,6.1-6.8h0.1c1.8-1.2,2.8-3.1,2.8-5.2V27
				C78.3,24.4,80.2,22.1,82.9,21.7z"/>
			<path class="st0" d="M88.4,25.7c0.1,0.3,0.1,0.6,0.1,1C88.5,26.4,88.5,26,88.4,25.7z"/>
			<path d="M68.2,44.6c2.2-1,3.8-3,4.4-5.4c1.3-3.9,0.8-8.3-1.4-11.9c-1.9-2.8-4.8-4.7-8.1-5.4c-0.7-0.1-1.3-0.2-2-0.2
				c-0.5,0-1,0-1.5,0c-2.2,0.2-4.3,0.9-6.2,2.1c-2.8,1.9-4.7,4.8-5.4,8.1c-0.7,3.3,0,6.7,1.9,9.5c1.3,2,3.1,3.5,5.2,4.4
				c0.8,0.4,1.5,0.6,2.3,0.8c0.2,0,0.3,0.1,0.5,0.1c0.9,0.2,1.8,0.3,2.7,0.2h0.1c-2.6-1.3-4.8-3.4-6-6.1c-1.6-3.7-1.7-10.1,2.4-12.3
				C58,28,59,27.8,60,27.7c0.3,0,0.7,0,1,0c0.7,0.1,1.3,0.2,1.9,0.4c1.4,0.5,2.6,1.5,3.2,2.9c0.8,2.5,0,5.3-2.1,6.9
				c-0.2,0.2-0.5,0.4-0.8,0.4c-0.2,0-0.4,0-0.6,0c-0.3-0.1-0.6-0.2-0.9-0.5c-0.3-0.4-0.5-1-0.4-1.5c0.1-0.3,0.2-0.7,0.5-0.9
				c1-0.7,1.5-2,1.3-3.2c-0.1-0.2-0.2-0.4-0.4-0.5l-0.1-0.1c-0.2-0.2-0.5-0.3-0.7-0.4c-0.1,0-0.3-0.1-0.4-0.1l0,0
				c-0.4-0.1-0.8-0.2-1.1-0.2c-0.6,0-1.1,0.1-1.7,0.4c-0.5,0.3-0.9,0.8-1.1,1.4c-0.1,0.2-0.2,0.4-0.2,0.6c-0.1,0.2-0.1,0.4-0.2,0.6
				c-0.2,0.9-0.2,2,0,3.1c0.1,0.7,0.2,1.3,0.5,1.9c0,0.2,0.1,0.3,0.2,0.4c1.2,2.7,3.9,4.6,6.5,5.2c1.3,0.3,2.5,0.3,3.6-0.1h0.2V44.6
				z M91.1,11.7c0.8,0.4,1.2,1.4,0.8,2.3l-3.1,6.1c0.1,0.1,0.3,0.2,0.5,0.3c1.6,1.7,2.6,4,2.6,6.3c0,1.3-0.3,2.7-0.9,3.8
				c-1.5,2.7-2.4,5.7-2.4,8.8v2.6c0,4-1.6,7.9-4.5,10.7c-2.9,2.8-6.7,4.4-10.7,4.5H49.9c-1.4,0-2.6-0.8-3.2-2
				c-0.6-1.2-0.5-2.7,0.3-3.8c1.1-1.6,2.4-3,3.9-4.3c-3.7-2.9-6-7.2-6.2-11.9c-0.2-4.7,1.6-9.2,5.1-12.5c3.4-3.2,8.1-4.7,12.8-4.2
				s8.9,3.1,11.5,7c0.3,0.6,0.6,1.2,0.9,1.8V27c0-1.7,0.5-3.3,1.4-4.7s2.2-2.5,3.7-3.3v-7.5c0-0.9,0.8-1.7,1.7-1.7s1.7,0.8,1.7,1.7
				v6.8c0.7,0,1.5,0.1,2.2,0.3l3.1-6.1C89.2,11.7,90.2,11.3,91.1,11.7z M88.5,26.7c0-0.3,0-0.7-0.1-1c0-0.1-0.1-0.3-0.1-0.4
				c-0.2-0.9-0.8-1.7-1.5-2.4c-1.1-1-2.4-1.4-3.9-1.2c-2.7,0.4-4.6,2.7-4.6,5.3v8.7c0,2.1-1,4-2.8,5.2h-0.1c-1,3-3.2,5.5-6.1,6.8
				c-2.6,1.7-5.6,2.6-8.7,2.6c-1.1,0-2.1-0.1-3.1-0.3c-1.3-0.3-2.6-0.7-3.8-1.3c-0.1,0.1-0.1,0.2-0.2,0.3c-1.4,1.3-2.7,2.7-3.9,4.2
				c-0.1,0.1-0.1,0.2,0,0.3c0,0.1,0,0.1,0.1,0.1v0.1c0,0.1,0.1,0.1,0.2,0.1h23.4c3.1,0,6.1-1.3,8.3-3.5c2.2-2.3,3.5-5.3,3.5-8.4
				v-2.6c0-1.3,0.2-2.7,0.5-4v-0.1c0.5-2.1,1.3-4.2,2.3-6.2C88.3,28.3,88.5,27.5,88.5,26.7z"/>
			<path class="st0" d="M71.2,27.3c2.2,3.6,2.7,8,1.4,11.9c-0.6,2.4-2.2,4.4-4.4,5.4c2.1-1,3.7-3,4.3-5.4
				C73.9,35.2,73.4,30.8,71.2,27.3c-2-2.8-4.9-4.7-8.2-5.4c-0.6-0.1-1.3-0.2-1.9-0.2c0.7,0,1.3,0.1,2,0.2
				C66.4,22.6,69.3,24.5,71.2,27.3z"/>
			<path class="st0" d="M62.8,31.8c-0.2-0.2-0.5-0.3-0.7-0.4C62.4,31.5,62.6,31.6,62.8,31.8z"/>
			<path class="st0" d="M61.7,31.3c-0.9-0.2-1.9-0.1-2.8,0.2c0.5-0.3,1.1-0.4,1.7-0.4C60.9,31.1,61.3,31.2,61.7,31.3z"/>
			<path class="st0" d="M57.4,37.2c0.1,0.7,0.2,1.3,0.5,1.9C57.6,38.5,57.4,37.8,57.4,37.2z"/>
			<path class="st0" d="M55.2,45.8c-2-1-3.8-2.5-5.1-4.4c-1.9-2.8-2.6-6.2-1.9-9.5c0.6-3.3,2.6-6.2,5.4-8.1c1.8-1.2,3.9-2,6-2.1
				c0.5,0,1,0,1.5,0c0.6,0,1.3,0.1,1.9,0.2c3.3,0.7,6.2,2.6,8.1,5.4c2.3,3.5,2.8,7.9,1.4,11.9c-0.6,2.4-2.2,4.4-4.3,5.4h-0.1
				c-1,0.4-2.3,0.4-3.6,0.1c-2.6-0.6-5.3-2.5-6.5-5.2c-0.1-0.1-0.1-0.3-0.2-0.4c-0.2-0.6-0.4-1.2-0.5-1.9c-0.2-1.1-0.1-2.2,0-3.1
				c0-0.2,0.1-0.4,0.2-0.6c0.1-0.2,0.1-0.4,0.2-0.6c0.3-0.6,0.6-1.1,1.1-1.4c0.9-0.4,1.9-0.5,2.8-0.2l0,0c0.1,0,0.3,0.1,0.4,0.1
				c0.2,0.1,0.5,0.2,0.7,0.4l0.1,0.1c0.1,0.1,0.3,0.3,0.4,0.5c0.2,1.2-0.3,2.5-1.3,3.2c-0.3,0.2-0.5,0.6-0.5,0.9
				c-0.1,0.5,0.1,1.1,0.4,1.5c0.2,0.3,0.6,0.5,0.9,0.5c0.2,0,0.4,0,0.6,0c0.3,0,0.6-0.2,0.9-0.4c2.1-1.7,2.9-4.4,2.1-6.9
				c-0.6-1.4-1.7-2.4-3.2-2.9c-0.6-0.2-1.3-0.4-2-0.4c-0.3,0-0.7,0-1,0c-1,0-2,0.3-3,0.8c-4.1,2.2-4,8.6-2.4,12.3
				c1.2,2.7,3.3,4.8,6,6.1c-0.9,0-1.7-0.1-2.6-0.2c-0.2,0-0.4-0.1-0.6-0.1C56.8,46.5,56,46.2,55.2,45.8z"/>
			<path class="st0" d="M53.8,48.9c1.2,0.6,2.5,1,3.8,1.3c1,0.2,2.1,0.3,3.1,0.3c3.1,0,6.1-0.9,8.7-2.6c2.9-1.3,5.1-3.8,6.1-6.8h0.1
				c0.9-0.6,1.6-1.4,2-2.3c0.5-0.9,0.8-1.9,0.8-2.9v-8.6c-0.1-2.7,1.9-5,4.6-5.3c1.4-0.1,2.8,0.3,3.9,1.3c0.7,0.6,1.1,1.2,1.4,2
				c0.1,0.2,0.1,0.3,0.1,0.4c0.1,0.3,0.1,0.7,0.1,1c0,0.8-0.2,1.6-0.6,2.3c-1.1,2-1.9,4-2.3,6.2c0,0.1,0,0.1,0,0.1
				c-0.3,1.3-0.5,2.5-0.6,3.8v2.6c0,3.2-1.3,6.2-3.5,8.4c-2.2,2.3-5.2,3.5-8.3,3.5H49.8h-0.1c0-0.1,0-0.1,0-0.2
				c1.1-1.6,2.4-3,3.9-4.2C53.7,49.1,53.7,49,53.8,48.9z"/>
			<path class="st0" d="M57.3,28.6c-4.1,2.2-4,8.6-2.4,12.3c1.2,2.7,3.4,4.8,6,6.1h-0.1c-2.7-1.3-4.8-3.4-6-6.1
				C53.2,37.2,53.1,30.8,57.3,28.6c0.8-0.5,1.8-0.7,2.9-0.8C59.2,27.9,58.2,28.1,57.3,28.6z"/>
			<path class="st2" d="M85.1,39.3v2.6c0,3.1-1.3,6.1-3.5,8.4c-2.2,2.2-5.2,3.5-8.3,3.5H49.9c-0.1,0-0.2,0-0.2-0.1v-0.1h0.1h23.4
				c3.1,0,6.1-1.2,8.3-3.5c2.2-2.2,3.5-5.2,3.5-8.4v-2.6c0.1-1.3,0.3-2.5,0.6-3.8C85.3,36.6,85.1,37.9,85.1,39.3z"/>
		</g>
	</g>
</g>
</svg>
