<?xml version="1.0" encoding="utf-8"?>
<!-- Generator: Adobe Illustrator 26.3.1, SVG Export Plug-In . SVG Version: 6.00 Build 0)  -->
<svg version="1.1" id="Layer_1" xmlns="http://www.w3.org/2000/svg" xmlns:xlink="http://www.w3.org/1999/xlink" x="0px" y="0px"
	 viewBox="0 0 133 133" style="enable-background:new 0 0 133 133;" xml:space="preserve">
<style type="text/css">
	.st0{fill:#FFFFFF;}
</style>
<g>
	<g>
		<g id="XMLID_00000087374024653682618120000005830587424471111336_">
			<g>
				<path class="st0" d="M75,93v15.6c0,5.9-4.9,10.6-10.9,10.6c-6,0-10.9-4.8-10.9-10.6V92.7c1.3-0.3,2.5-0.7,3.6-1.2
					c1.7-0.8,3.1-1.7,4.3-2.6v15.6c0,1.1,1,2.1,2.1,2.1s2.1-0.9,2.1-2.1V88.9c1.2,0.9,2.6,1.8,4.3,2.6C71.2,92.2,72.9,92.7,75,93z"
					/>
				<path class="st0" d="M63.2,54.7c6.9,0,11.7,3.2,11.7,6C75,63.9,69.8,72,63.2,72c-6.5,0-11.7-8.1-11.7-11.3
					C51.5,57.9,56.3,54.7,63.2,54.7z"/>
				<path d="M77.7,93.2c0.5,0,1,0,1.5-0.1v15.4c0,8.2-6.8,14.8-15.2,14.8s-15.2-6.6-15.2-14.8V93.2c1.5,0,3-0.2,4.3-0.5v15.9
					c0,5.9,4.9,10.6,10.9,10.6c6,0,10.9-4.8,10.9-10.6V93C75.8,93.2,76.8,93.2,77.7,93.2z"/>
				<path d="M79.2,91.1v2c-0.5,0.1-1,0.1-1.5,0.1c-1,0-1.9-0.1-2.8-0.2v-1.9c0-1.2,1-2.1,2.1-2.1C78.3,89.1,79.2,90,79.2,91.1z"/>
				<path d="M77.7,89c3.1,0,6.7-1,10.7-3.8c1-0.7,2.3-0.5,3,0.5c0.7,0.9,0.5,2.2-0.5,2.9c-4.2,3-8.2,4.2-11.6,4.5v-2
					c0-1.2-1-2.1-2.2-2.1v0C77.3,89,77.5,89,77.7,89z"/>
				<path d="M65.4,83.2c3.6,3.2,6.8,5.3,11.7,5.8v0c-1.2,0-2.1,0.9-2.1,2.1V93c-2-0.3-3.8-0.9-5.3-1.6c-1.7-0.8-3.1-1.7-4.3-2.6
					v-1.3c0-0.7-0.4-1.3-0.9-1.7c0.3-0.3,0.5-0.5,0.5-0.6c0.3-0.4,0.4-0.8,0.4-1.3V83.2z"/>
				<path d="M65.4,87.6v1.3c-0.8-0.6-1.6-1.3-2.1-1.8c0.5-0.5,0.9-0.9,1.2-1.2C65,86.2,65.4,86.9,65.4,87.6z"/>
				<path d="M65.4,74.1V76c-0.7,0.1-1.4,0.2-2.1,0.2c-0.7,0-1.4-0.1-2.1-0.2v-1.9c0-1.2,1-2.1,2.1-2.1S65.4,72.9,65.4,74.1z"/>
				<path d="M64.9,82.7c0,0.1,0.2,0.2,0.4,0.5V84c0,0.4-0.2,0.9-0.4,1.3c0,0-0.2,0.2-0.5,0.6c-0.3-0.2-0.8-0.4-1.2-0.4
					c-0.5,0-0.9,0.1-1.2,0.4c-0.3-0.3-0.5-0.5-0.5-0.6c-0.4-0.6-0.5-1.3-0.3-2c0.1-0.4,0.4-0.7,0.7-1C62.9,81.6,64.2,81.8,64.9,82.7
					z"/>
				<path d="M63.2,87.1c0.6,0.6,1.3,1.2,2.1,1.8v15.6c0,1.1-1,2.1-2.1,2.1s-2.1-0.9-2.1-2.1V88.9C61.9,88.3,62.6,87.6,63.2,87.1z"/>
				<path d="M63.2,85.5c0.4,0,0.9,0.1,1.2,0.4c-0.3,0.3-0.7,0.8-1.2,1.2c-0.5-0.5-0.9-0.9-1.2-1.2C62.3,85.6,62.8,85.5,63.2,85.5z"
					/>
				<path d="M63.2,87.1c-0.6,0.6-1.3,1.2-2.1,1.8v-1.3c0-0.7,0.4-1.3,0.9-1.7C62.3,86.2,62.7,86.6,63.2,87.1z"/>
				<path d="M61.1,83.2V76c0.7,0.1,1.4,0.2,2.1,0.2c0.7,0,1.4-0.1,2.1-0.2v7.2c-0.2-0.3-0.4-0.5-0.4-0.5c-0.7-0.9-2.1-1.1-3-0.4
					c-0.3,0.2-0.6,0.6-0.7,1L61.1,83.2z"/>
				<path d="M51.5,60.7c0,3.2,5.2,11.3,11.7,11.3c-1.2,0-2.1,0.9-2.1,2.1V76c-3.3-0.6-6.6-2.5-9.3-5.5c-2.8-3.1-4.6-6.9-4.6-9.7
					c0-5.7,7-10.2,16-10.2s16,4.5,16,10.2c0,2.8-1.8,6.6-4.6,9.7c-2.7,3-6,4.9-9.3,5.5v-1.9c0-1.2-1-2.1-2.1-2.1
					C69.8,72,75,63.9,75,60.7c0-2.8-4.8-6-11.7-6S51.5,57.9,51.5,60.7z"/>
				<path d="M53.2,91v1.7c-1.3,0.3-2.7,0.5-4.3,0.5V91c0-1,0.7-1.8,1.7-2c0.1,0,0.3,0,0.4,0C52.2,88.9,53.2,89.8,53.2,91z"/>
				<path d="M50.6,88.9c5.5-0.7,9.2-4.3,10.5-5.7l0.1,0.1c-0.2,0.6-0.1,1.4,0.3,2c0,0,0.2,0.2,0.5,0.6c-0.6,0.4-0.9,1-0.9,1.7v1.3
					c-1.2,0.9-2.7,1.8-4.3,2.6c-1.1,0.5-2.3,0.9-3.6,1.2V91c0-1.2-1-2.1-2.1-2.1C50.9,88.9,50.7,88.9,50.6,88.9L50.6,88.9z"/>
				<path d="M50.6,88.9c-1,0.2-1.7,1-1.7,2v2.2c0,0-0.1,0-0.2,0c-3.8,0-8.3-1.2-13.2-4.6c-1-0.7-1.2-2-0.5-2.9c0.7-0.9,2-1.2,3-0.5
					C42.8,88.6,47.1,89.4,50.6,88.9L50.6,88.9z"/>
			</g>
		</g>
	</g>
</g>
<g>
	<g id="XMLID_00000176758544217820325820000018162773733422606511_">
		<g>
			<path class="st0" d="M127.9,20.9V48c0,1.4-1.2,2.6-2.6,2.6h-19.6c-0.4,0-0.7,0.1-1,0.3l-11,6.9v-5.3c0-1-0.8-1.9-1.9-1.9h-6.3
				c-1.4,0-2.6-1.2-2.6-2.6V20.9c0-1.4,1.2-2.6,2.6-2.6h39.8C126.7,18.2,127.9,19.4,127.9,20.9z"/>
			<path d="M131.7,20.9V48c0,3.5-2.9,6.4-6.4,6.4h-19l-13.4,8.4c-0.3,0.2-0.7,0.3-1,0.3c-0.3,0-0.6-0.1-0.9-0.2c-0.6-0.3-1-1-1-1.7
				v-6.8h-4.4c-3.5,0-6.4-2.9-6.4-6.4V20.9c0-3.5,2.9-6.4,6.4-6.4h39.8C128.8,14.4,131.7,17.3,131.7,20.9z M127.9,48V20.9
				c0-1.4-1.2-2.6-2.6-2.6H85.4c-1.4,0-2.6,1.2-2.6,2.6V48c0,1.4,1.2,2.6,2.6,2.6h6.3c1.1,0,1.9,0.8,1.9,1.9v5.3l11-6.9
				c0.3-0.2,0.7-0.3,1-0.3h19.6C126.7,50.5,127.9,49.4,127.9,48z"/>
		</g>
	</g>
</g>
<g>
	<g id="XMLID_00000125582498241634337700000010559356287247041679_">
		<g>
			<path d="M131.7,20.9V48c0,3.5-2.9,6.4-6.4,6.4h-19l-13.4,8.4c-0.3,0.2-0.7,0.3-1,0.3c-0.3,0-0.6-0.1-0.9-0.2c-0.6-0.3-1-1-1-1.7
				v-6.8h-4.4c-3.5,0-6.4-2.9-6.4-6.4V20.9c0-3.5,2.9-6.4,6.4-6.4h39.8C128.8,14.4,131.7,17.3,131.7,20.9z M127.9,48V20.9
				c0-1.4-1.2-2.6-2.6-2.6H85.4c-1.4,0-2.6,1.2-2.6,2.6V48c0,1.4,1.2,2.6,2.6,2.6h6.3c1.1,0,1.9,0.8,1.9,1.9v5.3l11-6.9
				c0.3-0.2,0.7-0.3,1-0.3h19.6C126.7,50.5,127.9,49.4,127.9,48z"/>
			<path class="st0" d="M127.9,20.9V48c0,1.4-1.2,2.6-2.6,2.6h-19.6c-0.4,0-0.7,0.1-1,0.3l-11,6.9v-5.3c0-1-0.8-1.9-1.9-1.9h-6.3
				c-1.4,0-2.6-1.2-2.6-2.6V20.9c0-1.4,1.2-2.6,2.6-2.6h39.8C126.7,18.2,127.9,19.4,127.9,20.9z"/>
		</g>
	</g>
</g>
</svg>
