<?xml version="1.0" encoding="utf-8"?>
<!-- Generator: Adobe Illustrator 26.3.1, SVG Export Plug-In . SVG Version: 6.00 Build 0)  -->
<svg version="1.1" xmlns="http://www.w3.org/2000/svg" xmlns:xlink="http://www.w3.org/1999/xlink" x="0px" y="0px"
	 viewBox="0 0 133 133" style="enable-background:new 0 0 133 133;" xml:space="preserve">
<style type="text/css">
	.st0{fill:#BCD0D8;}
	.st1{fill:#6699B2;}
	.st2{fill:#496D7F;}
	.st3{fill:#5D699B;}
	.st4{fill:#FFFFFF;}
	.st5{fill:#FFFFFF;stroke:#000000;stroke-width:2;stroke-miterlimit:10;}
</style>
<g id="Layer_1">
	<g id="Layer_2_00000158734204849841396420000017450559979345024410_">
		<path class="st2" d="M121,133H12c-6.6,0-12-5.4-12-12V12C0,5.4,5.4,0,12,0h109c6.6,0,12,5.4,12,12v109
			C133,127.6,127.6,133,121,133z"/>
		<path class="st2" d="M121,133H12c-6.6,0-12-5.4-12-12V12C0,5.4,5.4,0,12,0h109c6.6,0,12,5.4,12,12v109
			C133,127.6,127.6,133,121,133z"/>
	</g>
</g>
<g id="Layer_2">
</g>
<g id="Layer_4">
</g>
<g id="Layer_5_00000096759886075198047500000016841880956640546723_">
</g>
<g id="Layer_6_00000151532325249707469710000014370122528315639221_">
</g>
<g id="Layer_7_00000042717999357893301760000000855885267568530853_">
</g>
<g id="Layer_8_00000168831599467053464300000003505523461608539011_">
</g>
<g id="Layer_9_00000089543259283313251050000005252079673544207528_">
</g>
<g id="Layer_10_00000084509998272139497780000008077192264451833754_">
</g>
<g id="Layer_11_00000116220595310884250560000013807966725250984093_">
</g>
<g id="Layer_12">
</g>
<g id="Layer_13">
</g>
<g id="Layer_14">
</g>
<g id="Layer_15">
</g>
<g id="Layer_16">
	<g>
		<g id="XMLID_00000169521872315891712810000011584634865157450129_">
			<g>
				<path class="st4" d="M87.8,80.7c2,0,3.6,1.6,3.6,3.6c0,2-1.6,3.5-3.6,3.5c-2,0-3.5-1.5-3.5-3.5C84.3,82.3,85.8,80.7,87.8,80.7z"
					/>
				<path class="st4" d="M45.2,80.7c2,0,3.5,1.6,3.5,3.6c0,2-1.6,3.5-3.5,3.5c-2,0-3.6-1.5-3.6-3.5C41.7,82.3,43.2,80.7,45.2,80.7z"
					/>
				<path d="M103.2,30.2v67c0,1.2-1.1,2.4-2.4,2.4H87.6l2.8,2.8c0.2,0.1,0.4,0.3,0.5,0.5l6.6,6.6c0.2,0.1,0.3,0.3,0.5,0.5l4.4,4.4
					c0.9,0.9,0.9,2.5,0.1,3.4c-0.9,0.9-2.5,0.9-3.4,0l-4-4H37.9l-4,4c-0.9,0.9-2.5,0.9-3.4,0c-0.9-0.9-0.9-2.5,0.1-3.4l4.2-4.2
					c0.2-0.3,0.5-0.6,0.8-0.8l6.3-6.2c0.2-0.4,0.5-0.6,0.8-0.9l2.7-2.7H32.2c-1.2,0-2.4-1.1-2.4-2.4v-67c0-4.7,3.6-8.7,8.3-8.7h11.8
					v-2.4c0-2.6,2.2-4.7,4.7-4.7h23.6c2.6,0,4.7,2.2,4.7,4.7v2.4h11.8C99.5,21.5,103.2,25.5,103.2,30.2z M98.5,94.9V30.2
					c0-2.3-1.6-3.9-3.5-3.9H38.1c-1.9,0-3.5,1.6-3.5,3.9v64.7h16c0.1,0,0.2,0,0.2,0c0.3-0.1,0.6,0,0.9,0h29.7c0.1,0,0.1,0,0.2,0
					c0.2,0,0.5,0,0.7,0H98.5z M90.4,109.1l-2.4-2.4H45l-2.4,2.4H90.4z M49.7,102h33.6l-2.4-2.4H52.1L49.7,102z"/>
				<path class="st4" d="M98.5,30.2v64.7H82.3c-0.2-0.1-0.5-0.1-0.7,0c-0.1,0-0.2,0-0.2,0H51.7c-0.3-0.1-0.6-0.1-0.9,0
					c-0.1,0-0.2,0-0.2,0h-16V30.2c0-2.3,1.6-3.9,3.5-3.9h56.8C96.8,26.3,98.5,27.9,98.5,30.2z M97.3,67.7V29.8
					c0-1.2-1.1-2.4-2.4-2.4H38.1h-0.2c-1.2,0.1-2.1,1.2-2.1,2.4v37.9c0,1.2,1.1,2.4,2.4,2.4h56.8C96.1,70.1,97.3,68.9,97.3,67.7z
					 M96.1,84.3c0-4.6-3.7-8.3-8.3-8.3c-4.5,0-8.3,3.8-8.3,8.3c0,4.5,3.7,8.3,8.3,8.3C92.3,92.5,96.1,88.8,96.1,84.3z M53.5,84.3
					c0-4.6-3.7-8.3-8.3-8.3c-4.6,0-8.3,3.8-8.3,8.3c0,4.5,3.7,8.3,8.3,8.3C49.8,92.5,53.5,88.8,53.5,84.3z"/>
				<path d="M97.3,29.8v37.9c0,1.2-1.1,2.4-2.4,2.4H38.1c-1.2,0-2.4-1.1-2.4-2.4V29.8c0-1.2,1-2.3,2.1-2.4h0.2h56.8
					C96.1,27.5,97.3,28.6,97.3,29.8z M92.5,65.3V32.2h-52v33.1H92.5z"/>
				<path d="M87.8,75.9c4.5,0,8.3,3.8,8.3,8.3c0,4.5-3.7,8.3-8.3,8.3c-4.5,0-8.3-3.7-8.3-8.3C79.5,79.7,83.3,75.9,87.8,75.9z
					 M91.4,84.3c0-2-1.6-3.6-3.6-3.6c-2,0-3.5,1.6-3.5,3.6c0,2,1.6,3.5,3.5,3.5C89.8,87.8,91.4,86.2,91.4,84.3z"/>
				<rect x="40.5" y="32.2" class="st4" width="52" height="33.1"/>
				<path d="M45.2,75.9c4.5,0,8.3,3.8,8.3,8.3c0,4.5-3.7,8.3-8.3,8.3c-4.6,0-8.3-3.7-8.3-8.3C36.9,79.7,40.7,75.9,45.2,75.9z
					 M48.8,84.3c0-2-1.6-3.6-3.5-3.6c-2,0-3.6,1.6-3.6,3.6c0,2,1.6,3.5,3.6,3.5C47.2,87.8,48.8,86.2,48.8,84.3z"/>
			</g>
		</g>
	</g>
</g>
<g id="Layer_17">
</g>
<g id="Layer_18">
</g>
</svg>
