<svg version="1.1" viewBox="0.0 0.0 133.44094488188978 133.44094488188978" fill="none" stroke="none" stroke-linecap="square" stroke-miterlimit="10" xmlns:xlink="http://www.w3.org/1999/xlink" xmlns="http://www.w3.org/2000/svg"><clipPath id="p.0"><path d="m0 0l133.44095 0l0 133.44095l-133.44095 0l0 -133.44095z" clip-rule="nonzero"/></clipPath><g clip-path="url(#p.0)"><path fill="#000000" fill-opacity="0.0" d="m0 0l133.44095 0l0 133.44095l-133.44095 0z" fill-rule="evenodd"/><path fill="#ffffff" d="m1.6141732 23.974182l0 0c0 -11.837395 9.596105 -21.4335 21.433498 -21.4335l86.896774 0l0 0c5.684517 0 11.136215 2.2581658 15.155777 6.2777267c4.019554 4.019561 6.277733 9.471256 6.277733 15.155773l0 85.73142c0 11.837395 -9.596115 21.43351 -21.43351 21.43351l-86.896774 0c-11.837395 0 -21.433498 -9.596115 -21.433498 -21.43351z" fill-rule="evenodd"/><path stroke="#000000" stroke-width="4.0" stroke-linejoin="round" stroke-linecap="butt" d="m1.6141732 23.974182l0 0c0 -11.837395 9.596105 -21.4335 21.433498 -21.4335l86.896774 0l0 0c5.684517 0 11.136215 2.2581658 15.155777 6.2777267c4.019554 4.019561 6.277733 9.471256 6.277733 15.155773l0 85.73142c0 11.837395 -9.596115 21.43351 -21.43351 21.43351l-86.896774 0c-11.837395 0 -21.433498 -9.596115 -21.433498 -21.43351z" fill-rule="evenodd"/><path fill="#000000" d="m33.267548 76.71989l-4.78125 -20.046871l4.140625 0l3.03125 13.765621l3.65625 -13.765621l4.8125 0l3.515625 13.999996l3.078125 -13.999996l4.078125 0l-4.875 20.046871l-4.296875 0l-3.984375 -14.984371l-3.984375 14.984371l-4.390625 0zm27.396484 -20.046871l0 7.374996q1.859375 -2.1718712 4.4375 -2.1718712q1.328125 0 2.390625 0.5q1.0625 0.484375 1.609375 1.25q0.546875 0.7656212 0.734375 1.7031212q0.203125 0.921875 0.203125 2.875l0 8.515625l-3.84375 0l0 -7.671875q0 -2.28125 -0.21875 -2.890625q-0.21875 -0.625 -0.78125 -0.984375q-0.546875 -0.359375 -1.375 -0.359375q-0.953125 0 -1.71875 0.46875q-0.75 0.453125 -1.09375 1.390625q-0.34375 0.9375 -0.34375 2.765625l0 7.28125l-3.84375 0l0 -20.046871l3.84375 0zm13.275391 3.5625l0 -3.5625l3.84375 0l0 3.5625l-3.84375 0zm0 16.484371l0 -14.515621l3.84375 0l0 14.515621l-3.84375 0zm14.435547 -14.515621l0 3.0624962l-2.625 0l0 5.84375q0 1.78125 0.0625 2.078125q0.078125 0.296875 0.34375 0.484375q0.28125 0.1875 0.65625 0.1875q0.53125 0 1.546875 -0.375l0.328125 2.984375q-1.34375 0.578125 -3.03125 0.578125q-1.046875 0 -1.890625 -0.34375q-0.828125 -0.359375 -1.21875 -0.90625q-0.375 -0.5625 -0.53125 -1.5q-0.125 -0.671875 -0.125 -2.703125l0 -6.328125l-1.765625 0l0 -3.0624962l1.765625 0l0 -2.890625l3.859375 -2.234375l0 5.125l2.625 0zm11.074219 9.890621l3.828125 0.640625q-0.734375 2.109375 -2.328125 3.21875q-1.59375 1.09375 -3.984375 1.09375q-3.796875 0 -5.609375 -2.46875q-1.4375 -1.984375 -1.4375 -5.015625q0 -3.609375 1.875 -5.640621q1.890625 -2.046875 4.78125 -2.046875q3.234375 0 5.109375 2.1406212q1.875 2.140625 1.796875 6.546875l-9.625 0q0.046875 1.71875 0.921875 2.671875q0.890625 0.9375 2.21875 0.9375q0.90625 0 1.515625 -0.484375q0.625 -0.5 0.9375 -1.59375zm0.21875 -3.875q-0.046875 -1.671875 -0.875 -2.53125q-0.8125 -0.875 -1.984375 -0.875q-1.265625 0 -2.078125 0.90625q-0.828125 0.921875 -0.8125 2.5l5.75 0z" fill-rule="nonzero"/></g></svg>