<?xml version="1.0" encoding="utf-8"?>
<!-- Generator: Adobe Illustrator 27.1.1, SVG Export Plug-In . SVG Version: 6.00 Build 0)  -->
<svg version="1.1" id="Layer_1" xmlns="http://www.w3.org/2000/svg" xmlns:xlink="http://www.w3.org/1999/xlink" x="0px" y="0px"
	 viewBox="0 0 133 133" style="enable-background:new 0 0 133 133;" xml:space="preserve">
<style type="text/css">
	.st0{fill:#1C7F52;}
	.st1{fill:#FFFFFF;}
	.st2{fill:none;stroke:#000000;stroke-miterlimit:10;}
	.st3{fill:#231F20;}
</style>
<path class="st0" d="M120.9,133H12.1c-6.6,0-12-5.4-12-12V12c0-6.6,5.4-12,12-12h108.8c6.6,0,12,5.4,12,12v109
	C132.9,127.6,127.5,133,120.9,133z"/>
<g>
	<g id="XMLID_00000087396644024621433550000007939379001921794993_">
		<g>
			<path d="M115.8,82.9l0.2,1.2h-1.5c-0.7,0-1.3-0.5-1.4-1.2l-0.2-1.2h1.5C115.1,81.7,115.7,82.3,115.8,82.9z"/>
			<path class="st1" d="M52.1,108.5h-0.7c-0.2,0-0.2-0.1-0.2-0.2s-0.1-0.2,0-0.3l4.3-6.7c0.1-0.1,0.2-0.2,0.2-0.2h5.6
				c2,0,3.7-1.2,4.3-3l3-8.5h-1.1c-1.7,0-3.2-1.3-3.5-3.1h40.1l2-3v-4.3h-5c-1.1,0-2.1-0.4-2.9-1.2l-4.6-4.6
				c-0.2-0.2-0.2-0.4-0.1-0.6c0.2-0.2,0.3-0.2,0.6-0.2l8.3,3.3l-1.3-7.8c0.3,0,0.9,0.2,1.1,0.6l6.8,9.8h3.7c1.9,0,3.3,0.8,4.3,2.4
				l3.1,4.5c0.5,0.7,0.6,1.6,0.2,2.4s-1.1,1.2-2,1.2h-3.7l-0.7,3.3c-0.7,3.4-3.4,6-6.8,6.5l-1.7,0.2l2.4,2.2h8.3
				c0.8,0,1.6,0.4,2,1.1l1.8,2.7c0.2,0.4,0.2,0.9,0.1,1.3c-0.2,0.4-0.7,0.7-1.1,0.7s-0.7-0.2-1-0.5l-2-2.8h-11.4
				c-0.5,0-1-0.2-1.2-0.7l-3-4.2H80.2l-6.2,4c-0.9,0.6-2,0.9-3,0.9H57.1l-2.3,3.4C54.2,107.9,53.2,108.5,52.1,108.5z M115.9,84.1
				l-0.2-1.2c-0.1-0.7-0.7-1.2-1.4-1.2h-1.5l0.2,1.2c0.1,0.7,0.7,1.2,1.4,1.2H115.9z"/>
			<path d="M56.2,107.9c-0.9,1.4-2.4,2.2-4.1,2.2h-0.7c-0.7,0-1.3-0.4-1.7-1c-0.3-0.7-0.3-1.4,0.1-2l4.3-6.7c0.3-0.6,1-0.9,1.6-0.9
				h5.6c1.2,0,2.4-0.8,2.8-2l2.3-6.4c-2.3-0.6-4.1-2.8-4.1-5.4V85h41l1.2-1.9v-2.2h-3.4c-1.5,0-3-0.6-4.1-1.7l-4.7-4.7
				c-0.7-0.7-0.8-1.9-0.2-2.7s1.6-1.1,2.5-0.7l5.7,2.3l-0.8-5c-0.1-0.5,0.1-1,0.3-1.3c0.3-0.3,0.7-0.6,1.2-0.6c0.9,0,2,0.6,2.4,1.3
				l6.3,9h2.8c2.4,0,4.3,1.1,5.6,3.1l3,4.5c0.8,1.2,0.9,2.8,0.2,4.1c-0.7,1.3-2,2.1-3.5,2.1h-2.4l-0.5,2c-0.6,3.1-2.6,5.7-5.4,7h5.9
				c1.4,0,2.6,0.7,3.4,1.8l1.8,2.7c0.6,0.9,0.7,2,0.2,2.9s-1.5,1.5-2.5,1.5c-0.9,0-1.8-0.4-2.3-1.1l-1.5-2.1h-10.3
				c-1,0-2-0.5-2.6-1.3l-2.5-3.6H80.7l-5.9,3.7c-1.1,0.7-2.5,1.1-3.9,1.1H58L56.2,107.9z M51.5,108.5h0.7c1.1,0,2.1-0.6,2.7-1.5
				l2.3-3.4h13.7c1.1,0,2.1-0.3,3-0.9l6.2-4H100l3,4.2c0.3,0.4,0.7,0.7,1.2,0.7h11.2l2,2.8c0.2,0.3,0.6,0.5,1,0.5
				c0.5,0,0.9-0.2,1.1-0.7c0.2-0.4,0.2-0.9-0.1-1.3l-1.8-2.7c-0.5-0.7-1.2-1.1-2-1.1h-8.1l-2.4-2.2l1.7-0.2c3.5-0.4,6.3-3,6.8-6.5
				l0.7-3.3h3.7c0.9,0,1.6-0.5,2-1.2s0.3-1.7-0.2-2.4l-3.1-4.5c-1.1-1.6-2.4-2.4-4.3-2.4H109l-6.8-9.8c-0.2-0.3-0.7-0.6-1.1-0.6
				l1.3,7.8l-8.3-3.3c-0.2-0.1-0.4,0-0.6,0.2s-0.1,0.4,0.1,0.6l4.7,4.7c0.7,0.8,1.8,1.2,2.9,1.2h5v4.3l-2,3H64.1
				c0.3,1.8,1.7,3.1,3.5,3.1h1.1l-3,8.5c-0.7,1.8-2.4,3-4.3,3h-5.6c-0.1,0-0.2,0.1-0.2,0.2l-4.3,6.7c-0.1,0.2-0.1,0.2,0,0.3
				C51.2,108.4,51.3,108.5,51.5,108.5z"/>
		</g>
		<g>
			<path class="st2" d="M52.1,110.1h-0.7c-0.7,0-1.3-0.4-1.7-1c-0.3-0.7-0.3-1.4,0.1-2l4.3-6.7c0.3-0.6,1-0.9,1.6-0.9h5.6
				c1.2,0,2.4-0.8,2.8-2l2.3-6.4c-2.3-0.6-4.1-2.8-4.1-5.4V85h41l1.2-1.9v-2.2h-3.4c-1.5,0-3-0.6-4.1-1.7l-4.7-4.7
				c-0.7-0.7-0.8-1.9-0.2-2.7s1.6-1.1,2.5-0.7l5.7,2.3l-0.8-5c-0.1-0.5,0.1-1,0.3-1.3c0.3-0.3,0.7-0.6,1.2-0.6c0.9,0,2,0.6,2.4,1.3
				l6.3,9h2.8c2.4,0,4.3,1.1,5.6,3.1l3,4.5c0.8,1.2,0.9,2.8,0.2,4.1c-0.7,1.3-2,2.1-3.5,2.1h-2.4l-0.5,2c-0.6,3.1-2.6,5.7-5.4,7h5.9
				c1.4,0,2.6,0.7,3.4,1.8l1.8,2.7c0.6,0.9,0.7,2,0.2,2.9s-1.5,1.5-2.5,1.5c-0.9,0-1.8-0.4-2.3-1.1l-1.5-2.1h-10.3
				c-1,0-2-0.5-2.6-1.3l-2.5-3.6H80.7l-5.9,3.7c-1.1,0.7-2.5,1.1-3.9,1.1H58l-1.8,2.7C55.3,109.3,53.7,110.1,52.1,110.1z"/>
			<path class="st2" d="M55.7,101.1c-0.1,0-0.2,0.1-0.2,0.2l-4.3,6.7c-0.1,0.2-0.1,0.2,0,0.3c0,0.1,0.1,0.2,0.2,0.2h0.7
				c1.1,0,2.1-0.6,2.7-1.5l2.3-3.4h13.7c1.1,0,2.1-0.3,3-0.9l6.2-4h20l3,4.2c0.3,0.4,0.7,0.7,1.2,0.7h11.2l2,2.8
				c0.2,0.3,0.6,0.5,1,0.5c0.5,0,0.9-0.2,1.1-0.7c0.2-0.4,0.2-0.9-0.1-1.3l-1.8-2.7c-0.5-0.7-1.2-1.1-2-1.1h-8.1l-2.4-2.2l1.7-0.2
				c3.5-0.4,6.3-3,6.8-6.5l0.7-3.3h3.7c0.9,0,1.6-0.5,2-1.2s0.3-1.7-0.2-2.4l-3.1-4.5c-1.1-1.6-2.4-2.4-4.3-2.4H109l-6.8-9.8
				c-0.2-0.3-0.7-0.6-1.1-0.6l1.3,7.8l-8.3-3.3c-0.2-0.1-0.4,0-0.6,0.2s-0.1,0.4,0.1,0.6l4.7,4.7c0.7,0.8,1.8,1.2,2.9,1.2h5v4.3
				l-2,3H64.1c0.3,1.8,1.7,3.1,3.5,3.1h1.1l-3,8.5c-0.7,1.8-2.4,3-4.3,3L55.7,101.1C55.7,101.1,55.7,101.1,55.7,101.1z"/>
			<path class="st2" d="M115.8,82.9l0.2,1.2h-1.5c-0.7,0-1.3-0.5-1.4-1.2l-0.2-1.2h1.5C115.1,81.7,115.7,82.3,115.8,82.9z"/>
		</g>
	</g>
</g>
<g>
	<g id="XMLID_00000039821859873842556300000007951130598460893357_">
		<g>
			<path class="st1" d="M30.8,88c0.7,2.3,0,4.7-1.9,6.3c-0.2,0.2-0.5,0.3-0.9,0.3c0.3-0.1,0.5-0.2,0.8-0.3
				C30.7,92.8,31.4,90.3,30.8,88c-0.6-1.2-1.7-2.1-3-2.6C27,85.2,26.3,85,25.5,85c0.8,0,1.6,0.1,2.4,0.4
				C29.2,85.8,30.3,86.7,30.8,88z"/>
			<path class="st1" d="M23.9,88.4c0.4-0.2,0.9-0.4,1.3-0.4c-0.4,0-0.8,0.2-1.2,0.4c-1.7,1-1.9,4.8-0.8,7.3c0.7,1.7,2.2,3.1,3.8,3.9
				c-1.6-0.8-3.1-2.2-3.9-3.9C22,93.1,22.1,89.4,23.9,88.4z"/>
			<path class="st1" d="M19.1,81.4c-2.5,1.7-4.3,4.4-4.9,7.4c-0.2,0.8-0.3,1.6-0.3,2.3c0-0.8,0-1.6,0.2-2.5c0.6-3,2.3-5.7,4.9-7.4
				c2.6-1.7,5.7-2.3,8.7-1.7c2.6,0.5,5,1.9,6.7,4c-1.7-2-4-3.4-6.6-3.9C24.8,79,21.6,79.7,19.1,81.4z"/>
			<path class="st1" d="M39.1,97.1c-0.9,2.7-3,5-5.6,6.2c-2.3,1.6-5.1,2.4-7.9,2.4c-0.9,0-1.9-0.1-2.8-0.3c-1.2-0.3-2.4-0.7-3.5-1.2
				c-0.1,0.1-0.1,0.2-0.2,0.3c-1.4,1.1-2.6,2.2-3.5,3.7c-0.1,0-0.2,0-0.2-0.1c-0.1-0.1-0.1-0.2,0-0.3c1.1-1.3,2.3-2.6,3.6-3.8
				c0.1-0.1,0.1-0.2,0.2-0.3c1.1,0.6,2.3,0.9,3.5,1.2c0,0,0.1,0,0.1,0c0.9,0.2,1.7,0.3,2.7,0.3c2.8,0,5.5-0.8,7.9-2.4
				c2.7-1.2,4.7-3.5,5.6-6.2h-0.1c1.7-1.1,2.6-2.8,2.6-4.7v-7.8c0-2.3,1.7-4.4,4.2-4.8c1.3-0.1,2.5,0.3,3.6,1.2
				c0.5,0.4,0.9,0.9,1.2,1.5c-0.2-0.4-0.5-0.7-0.9-1c-1-0.9-2.3-1.3-3.6-1.2c-2.5,0.2-4.3,2.3-4.2,4.8v7.8c0,0.9-0.2,1.8-0.7,2.7
				c-0.4,0.8-1.1,1.5-1.9,2H39.1z"/>
			<path class="st1" d="M37,89.5c0.3,2,0.2,4.1-0.5,6c-0.1,0.3-0.1,0.5-0.2,0.8c-0.7,1.8-2,3.3-3.8,4.1h-0.1c2-1,3.4-2.8,4-5
				C37.1,93.5,37.3,91.5,37,89.5z"/>
			<path class="st1" d="M35.8,85.8c-0.1-0.2-0.2-0.3-0.3-0.5C35.7,85.4,35.8,85.6,35.8,85.8z"/>
			<path class="st1" d="M35.2,84.6c0.1,0.2,0.3,0.4,0.4,0.7c-0.2-0.3-0.3-0.5-0.5-0.8c-0.1-0.2-0.2-0.3-0.3-0.5
				C34.9,84.2,35.1,84.4,35.2,84.6z"/>
			<path class="st1" d="M32.3,100.4h0.1c-0.6,0.2-1.4,0.3-2.2,0.2C31,100.7,31.7,100.6,32.3,100.4z"/>
			<path class="st1" d="M28,100.1c0.1,0.1,0.3,0.1,0.4,0.1C28.3,100.2,28.1,100.2,28,100.1z"/>
			<path class="st1" d="M28,89.1c0.2,1.1-0.3,2.3-1.2,2.9c-0.6,0.5-0.6,1.6-0.1,2.2c0.2,0.3,0.7,0.5,1.1,0.5c-0.4,0-0.9-0.1-1.2-0.5
				c-0.5-0.6-0.5-1.6,0.1-2.2c0.9-0.6,1.4-1.8,1.2-2.9c-0.2-0.5-0.6-0.7-1.1-0.9c-0.1,0-0.1,0-0.2-0.1c0.1,0,0.2,0.1,0.3,0.1
				C27.4,88.3,27.7,88.7,28,89.1z"/>
			<path class="st1" d="M23.2,102.3c-1.8-0.4-3.6-1.1-5-2.3c0,0-0.1-0.1-0.1-0.1c-0.8-0.7-1.6-1.5-2.2-2.4c-0.6-1-1.1-2-1.5-3.1
				c-0.1-0.3-0.2-0.5-0.2-0.8c-0.1-0.2-0.1-0.4-0.1-0.6c0-0.2-0.1-0.4-0.1-0.6c0-0.2-0.1-0.4-0.1-0.6s0-0.4,0-0.6
				c0-0.8,0.1-1.6,0.3-2.3c0.6-3,2.4-5.7,4.9-7.4c2.5-1.7,5.7-2.4,8.7-1.7c2.6,0.4,4.9,1.9,6.6,3.9c0.1,0.2,0.2,0.3,0.4,0.4
				c0.1,0.2,0.2,0.3,0.3,0.5c0.2,0.2,0.3,0.5,0.5,0.8c0.1,0.2,0.2,0.3,0.3,0.5c0.1,0.2,0.1,0.3,0.2,0.4c0.1,0.3,0.2,0.5,0.3,0.8
				c0.1,0.4,0.2,0.8,0.3,1.2c0.1,0.2,0.1,0.4,0.1,0.6c0.1,0.2,0.1,0.5,0.1,0.7c0.3,2,0.1,4-0.6,5.9c-0.6,2.2-2,4-4,5h-0.1
				c-0.6,0.2-1.3,0.3-2.1,0.2c-0.6,0-1.2-0.2-1.8-0.4c-0.1,0-0.3-0.1-0.4-0.1c-0.3-0.1-0.7-0.3-1-0.5c-1.6-0.8-3-2.2-3.8-3.9
				c-1.1-2.5-0.9-6.3,0.8-7.3c0.4-0.2,0.8-0.3,1.2-0.4c0.1,0,0.3,0,0.4,0c0.1,0,0.2,0,0.2,0c0.3,0,0.5,0.1,0.8,0.1
				c0.1,0,0.1,0,0.2,0.1c0.5,0.2,0.9,0.4,1.1,0.9c0.2,1.1-0.3,2.3-1.2,2.9c-0.6,0.6-0.6,1.6-0.1,2.2c0.3,0.3,0.8,0.5,1.2,0.5
				c0.1,0,0.2,0,0.2,0c0.3,0,0.6-0.2,0.9-0.3c1.9-1.6,2.6-4,1.9-6.3c-0.5-1.3-1.6-2.2-2.9-2.6c-0.8-0.3-1.6-0.4-2.4-0.4
				c-0.1,0-0.2,0-0.3,0c-1,0-2,0.2-2.8,0.7c-3.8,2-3.7,7.8-2.2,11.2c1.1,2.5,3,4.4,5.5,5.6c-0.1,0-0.2,0-0.4,0c-0.3,0-0.5,0-0.8,0
				c-0.2,0-0.3,0-0.5,0C23.8,102.4,23.5,102.4,23.2,102.3z"/>
			<path d="M39,96.6c-0.9,2.7-2.9,5-5.6,6.2c-2.4,1.6-5.1,2.4-7.9,2.4c-1,0-1.8-0.1-2.7-0.3l0.5-2.5c0.3,0,0.5,0.1,0.8,0.1
				c0.2,0,0.3,0,0.5,0c0.3,0,0.5,0,0.8,0c0.2,0,0.3,0,0.5,0c-2.4-1.2-4.4-3.1-5.5-5.6c-1.4-3.4-1.5-9.2,2.2-11.2
				c0.9-0.4,1.8-0.6,2.7-0.7c0.1,0,0.2,0,0.3,0c0.8,0,1.5,0.1,2.3,0.4c1.3,0.5,2.4,1.4,2.9,2.6c0.7,2.3,0,4.8-1.9,6.3
				c-0.2,0.2-0.5,0.3-0.8,0.3c-0.1,0-0.2,0-0.2,0c-0.4,0-0.8-0.2-1.1-0.5c-0.5-0.6-0.5-1.7,0.1-2.2c0.9-0.6,1.4-1.8,1.2-2.9
				c-0.3-0.4-0.6-0.8-1.1-0.9c-0.1,0-0.2,0-0.3-0.1C26.3,88,26.1,88,25.8,88c-0.1,0-0.2,0-0.2,0c-0.1,0-0.3,0-0.4,0
				c-0.4,0-0.9,0.1-1.3,0.4c-1.8,1-1.9,4.7-0.8,7.3c0.8,1.7,2.2,3.1,3.9,3.9c0.3,0.2,0.7,0.3,1,0.5c0.1,0.1,0.3,0.1,0.4,0.1
				c0.6,0.2,1.2,0.3,1.8,0.4c0.8,0.1,1.6,0,2.2-0.2h0.1c1.8-0.8,3.1-2.3,3.8-4.1L39,96.6L39,96.6z"/>
			<path class="st1" d="M24.1,102.5c0.1,0,0.3,0,0.5,0C24.4,102.5,24.2,102.5,24.1,102.5z"/>
			<path class="st1" d="M18.2,100c1.4,1.1,3.2,1.9,5,2.3c0.3,0.1,0.6,0.1,0.9,0.2c-0.2,0-0.5-0.1-0.8-0.1
				C21.4,102.1,19.7,101.2,18.2,100z"/>
			<path class="st1" d="M19.3,104.2c1.1,0.5,2.3,0.9,3.5,1.2c0.9,0.2,1.9,0.3,2.8,0.3c2.8,0,5.6-0.8,7.9-2.4
				c2.6-1.2,4.7-3.5,5.6-6.2h0.1c0.8-0.5,1.5-1.2,1.9-2c0.5-0.8,0.7-1.7,0.7-2.7v-7.8c-0.1-2.5,1.7-4.6,4.2-4.8
				c1.3-0.1,2.6,0.3,3.6,1.2c0.3,0.3,0.6,0.6,0.9,1c0.3,0.6,0.4,1.3,0.4,2c0,0.7-0.1,1.5-0.5,2.1c-1.6,2.9-2.4,6.1-2.5,8.8v2.4
				c0,3-1.2,5.7-3.2,7.7c-2.1,2.1-4.9,3.2-7.7,3.2H15.6c0,0,0,0,0,0c1-1.4,2.2-2.6,3.5-3.7C19.2,104.4,19.2,104.3,19.3,104.2z"/>
			<path class="st1" d="M22.5,85.7c-3.7,2-3.6,7.8-2.2,11.2c1.1,2.5,3.1,4.4,5.5,5.6c-0.1,0-0.3,0-0.5,0c0.1,0,0.2,0,0.4,0
				c-2.5-1.2-4.4-3.1-5.5-5.6c-1.5-3.4-1.6-9.2,2.2-11.2c0.9-0.4,1.8-0.7,2.8-0.7C24.3,85.1,23.4,85.3,22.5,85.7z"/>
			<path class="st3" d="M37,108.2c2.8,0,5.6-1.1,7.7-3.2c2-2,3.2-4.7,3.2-7.7v-2.4c0.1-2.7,0.9-5.9,2.5-8.8c0.4-0.6,0.5-1.4,0.5-2.1
				c0-0.7-0.1-1.4-0.4-2c0.5,0.7,0.7,1.6,0.7,2.5c0,0.7-0.2,1.5-0.5,2.1c-1.6,2.9-2.5,6.1-2.6,9.4v2.4c0,2.8-1.1,5.6-3.2,7.7
				c-2,2-4.7,3.2-7.7,3.2H15.7c-0.1,0-0.2,0-0.2-0.1c0-0.7,0-0.8,0-0.9c0,0,0.1-0.1,0.1-0.1c0,0,0,0,0,0H37z"/>
			<path class="st1" d="M14,92.4c0-0.2-0.1-0.4-0.1-0.6C14,92,14,92.2,14,92.4z"/>
			<path d="M47.1,107.7c-2.6,2.6-6.1,4.1-9.8,4.1H15.7c-1.3,0-2.4-0.7-2.9-1.8s-0.5-2.5,0.3-3.5c1-1.5,2.2-2.7,3.6-3.9
				C13.3,100,11.2,96,11,91.7c-0.2-4.3,1.5-8.5,4.7-11.4c3.1-2.9,7.4-4.3,11.7-3.8s8.1,2.8,10.5,6.4c0.4,0.5,0.6,1.1,0.9,1.6v-0.2
				c0-1.6,0.5-3,1.3-4.3c0.8-1.3,2-2.3,3.4-3v-6.8c0-0.8,0.7-1.6,1.6-1.6c0.8,0,1.6,0.7,1.6,1.6v6.2c0.6,0,1.4,0.1,2,0.3l2.8-5.6
				c0-0.8,0.9-1.1,1.7-0.8c0.7,0.4,1.1,1.3,0.7,2.1L51.1,78c0.2,0.1,0.3,0.2,0.5,0.3c1.6,1.5,2.6,3.6,2.6,5.7c0,1.2-0.3,2.5-0.8,3.5
				c-1.4,2.5-2.1,5.2-2.2,8v2.4C51.2,101.5,49.7,105.1,47.1,107.7z M37.2,109.3c3,0,5.7-1.2,7.7-3.2c2.1-2.1,3.2-4.9,3.2-7.7V96
				c0.1-3.3,1-6.5,2.6-9.4c0.3-0.6,0.5-1.4,0.5-2.1c0-0.9-0.3-1.8-0.7-2.5c-0.2-0.6-0.6-1.1-1.2-1.5c-1.1-0.9-2.3-1.3-3.6-1.2
				c-2.5,0.4-4.2,2.5-4.2,4.8v7.8c0,1.9-0.9,3.6-2.6,4.7l-2.6-0.3c0.1-0.3,0.2-0.5,0.2-0.8c0.7-1.9,0.8-4,0.5-6
				c0-0.2-0.1-0.5-0.1-0.7c0-0.2-0.1-0.4-0.1-0.6c-0.1-0.4-0.2-0.8-0.3-1.2c-0.1-0.3-0.2-0.5-0.3-0.8c-0.1-0.2-0.1-0.3-0.2-0.4
				c-0.1-0.2-0.2-0.3-0.3-0.5c-0.1-0.2-0.2-0.4-0.4-0.7c-0.1-0.2-0.3-0.4-0.4-0.6c-0.1-0.1-0.2-0.3-0.4-0.4c-1.7-2.1-4.1-3.4-6.7-4
				c-3-0.6-6.1,0-8.7,1.7c-2.6,1.7-4.3,4.4-4.9,7.4c-0.1,0.8-0.2,1.6-0.2,2.5c0,0.2,0,0.4,0,0.6s0,0.4,0.1,0.6
				c0,0.2,0.1,0.4,0.1,0.6c0,0.2,0.1,0.4,0.1,0.6c0.1,0.3,0.1,0.5,0.2,0.8c0.3,1,0.8,2,1.4,3c0.6,1,1.4,1.8,2.3,2.5
				c0,0,0.1,0,0.1,0.1c1.5,1.2,3.2,2.1,5.1,2.4l-0.5,2.5c0,0-0.1,0-0.1,0c-1.2-0.3-2.4-0.6-3.5-1.2c-0.1,0.1-0.1,0.2-0.2,0.3
				c-1.3,1.2-2.5,2.5-3.6,3.8c-0.1,0.1-0.1,0.2,0,0.3c0,0.1,0.1,0.1,0.2,0.1c0,0,0,0.1-0.1,0.1c0,0.1,0,0.2,0,0.9
				c0,0.1,0.1,0.1,0.2,0.1H37.2z"/>
		</g>
		<g>
		</g>
	</g>
</g>
</svg>
