<?xml version="1.0" encoding="utf-8"?>
<!-- Generator: Adobe Illustrator 26.3.1, SVG Export Plug-In . SVG Version: 6.00 Build 0)  -->
<svg version="1.1" id="Layer_1" xmlns="http://www.w3.org/2000/svg" xmlns:xlink="http://www.w3.org/1999/xlink" x="0px" y="0px"
	 viewBox="0 0 133 133" style="enable-background:new 0 0 133 133;" xml:space="preserve">
<style type="text/css">
	.st0{fill:#2CC774;}
	.st1{fill:#FFFFFF;}
	.st2{fill:none;stroke:#000000;stroke-miterlimit:10;}
</style>
<path class="st0" d="M120.9,133H12.1c-6.6,0-12-5.4-12-12V12c0-6.6,5.4-12,12-12h108.8c6.6,0,12,5.4,12,12v109
	C132.9,127.6,127.5,133,120.9,133z"/>
<g>
	<g id="XMLID_00000087396644024621433550000007939379001921794993_">
		<g>
			<path d="M115.8,82.9l0.2,1.2h-1.5c-0.7,0-1.3-0.5-1.4-1.2l-0.2-1.2h1.5C115.1,81.7,115.7,82.3,115.8,82.9z"/>
			<path class="st1" d="M52.1,108.5h-0.7c-0.2,0-0.2-0.1-0.2-0.2c0-0.1-0.1-0.2,0-0.3l4.3-6.7c0.1-0.1,0.2-0.2,0.2-0.2h5.6
				c2,0,3.7-1.2,4.3-3l3-8.5h-1.1c-1.7,0-3.2-1.3-3.5-3.1h40.1l2-3v-4.3h-5c-1.1,0-2.1-0.4-2.9-1.2l-4.6-4.6
				c-0.2-0.2-0.2-0.4-0.1-0.6c0.2-0.2,0.3-0.2,0.6-0.2l8.3,3.3l-1.3-7.8c0.3,0,0.9,0.2,1.1,0.6l6.8,9.8h3.7c1.9,0,3.3,0.8,4.3,2.4
				l3.1,4.5c0.5,0.7,0.6,1.6,0.2,2.4c-0.4,0.8-1.1,1.2-2,1.2h-3.7l-0.7,3.3c-0.7,3.4-3.4,6-6.8,6.5l-1.7,0.2l2.4,2.2h8.3
				c0.8,0,1.6,0.4,2,1.1l1.8,2.7c0.2,0.4,0.2,0.9,0.1,1.3c-0.2,0.4-0.7,0.7-1.1,0.7s-0.7-0.2-1-0.5l-2-2.8h-11.4
				c-0.5,0-1-0.2-1.2-0.7l-3-4.2H80.2l-6.2,4c-0.9,0.6-2,0.9-3,0.9H57.1l-2.3,3.4C54.2,107.9,53.2,108.5,52.1,108.5z M115.9,84.1
				l-0.2-1.2c-0.1-0.7-0.7-1.2-1.4-1.2h-1.5l0.2,1.2c0.1,0.7,0.7,1.2,1.4,1.2H115.9z"/>
			<path d="M56.2,107.9c-0.9,1.4-2.4,2.2-4.1,2.2h-0.7c-0.7,0-1.3-0.4-1.7-1c-0.3-0.7-0.3-1.4,0.1-2l4.3-6.7c0.3-0.6,1-0.9,1.6-0.9
				h5.6c1.2,0,2.4-0.8,2.8-2l2.3-6.4c-2.3-0.6-4.1-2.8-4.1-5.4V85h41l1.2-1.9v-2.2h-3.4c-1.5,0-3-0.6-4.1-1.7l-4.7-4.7
				c-0.7-0.7-0.8-1.9-0.2-2.7s1.6-1.1,2.5-0.7l5.7,2.3l-0.8-5c-0.1-0.5,0.1-1,0.3-1.3c0.3-0.3,0.7-0.6,1.2-0.6c0.9,0,2,0.6,2.4,1.3
				l6.3,9h2.8c2.4,0,4.3,1.1,5.6,3.1l3,4.5c0.8,1.2,0.9,2.8,0.2,4.1c-0.7,1.3-2,2.1-3.5,2.1h-2.4l-0.5,2c-0.6,3.1-2.6,5.7-5.4,7h5.9
				c1.4,0,2.6,0.7,3.4,1.8l1.8,2.7c0.6,0.9,0.7,2,0.2,2.9c-0.5,0.9-1.5,1.5-2.5,1.5c-0.9,0-1.8-0.4-2.3-1.1l-1.5-2.1h-10.3
				c-1,0-2-0.5-2.6-1.3l-2.5-3.6H80.7l-5.9,3.7c-1.1,0.7-2.5,1.1-3.9,1.1H58L56.2,107.9z M51.5,108.5h0.7c1.1,0,2.1-0.6,2.7-1.5
				l2.3-3.4h13.7c1.1,0,2.1-0.3,3-0.9l6.2-4H100l3,4.2c0.3,0.4,0.7,0.7,1.2,0.7h11.2l2,2.8c0.2,0.3,0.6,0.5,1,0.5
				c0.5,0,0.9-0.2,1.1-0.7c0.2-0.4,0.2-0.9-0.1-1.3l-1.8-2.7c-0.5-0.7-1.2-1.1-2-1.1h-8.1l-2.4-2.2l1.7-0.2c3.5-0.4,6.3-3,6.8-6.5
				l0.7-3.3h3.7c0.9,0,1.6-0.5,2-1.2c0.4-0.7,0.3-1.7-0.2-2.4l-3.1-4.5c-1.1-1.6-2.4-2.4-4.3-2.4H109l-6.8-9.8
				c-0.2-0.3-0.7-0.6-1.1-0.6l1.3,7.8l-8.3-3.3c-0.2-0.1-0.4,0-0.6,0.2c-0.2,0.2-0.1,0.4,0.1,0.6l4.7,4.7c0.7,0.8,1.8,1.2,2.9,1.2h5
				v4.3l-2,3H64.1c0.3,1.8,1.7,3.1,3.5,3.1h1.1l-3,8.5c-0.7,1.8-2.4,3-4.3,3h-5.6c-0.1,0-0.2,0.1-0.2,0.2l-4.3,6.7
				c-0.1,0.2-0.1,0.2,0,0.3C51.2,108.4,51.3,108.5,51.5,108.5z"/>
		</g>
		<g>
			<path class="st2" d="M52.1,110.1h-0.7c-0.7,0-1.3-0.4-1.7-1c-0.3-0.7-0.3-1.4,0.1-2l4.3-6.7c0.3-0.6,1-0.9,1.6-0.9h5.6
				c1.2,0,2.4-0.8,2.8-2l2.3-6.4c-2.3-0.6-4.1-2.8-4.1-5.4V85h41l1.2-1.9v-2.2h-3.4c-1.5,0-3-0.6-4.1-1.7l-4.7-4.7
				c-0.7-0.7-0.8-1.9-0.2-2.7s1.6-1.1,2.5-0.7l5.7,2.3l-0.8-5c-0.1-0.5,0.1-1,0.3-1.3c0.3-0.3,0.7-0.6,1.2-0.6c0.9,0,2,0.6,2.4,1.3
				l6.3,9h2.8c2.4,0,4.3,1.1,5.6,3.1l3,4.5c0.8,1.2,0.9,2.8,0.2,4.1c-0.7,1.3-2,2.1-3.5,2.1h-2.4l-0.5,2c-0.6,3.1-2.6,5.7-5.4,7h5.9
				c1.4,0,2.6,0.7,3.4,1.8l1.8,2.7c0.6,0.9,0.7,2,0.2,2.9c-0.5,0.9-1.5,1.5-2.5,1.5c-0.9,0-1.8-0.4-2.3-1.1l-1.5-2.1h-10.3
				c-1,0-2-0.5-2.6-1.3l-2.5-3.6H80.7l-5.9,3.7c-1.1,0.7-2.5,1.1-3.9,1.1H58l-1.8,2.7C55.3,109.3,53.7,110.1,52.1,110.1z"/>
			<path class="st2" d="M55.7,101.1c-0.1,0-0.2,0.1-0.2,0.2l-4.3,6.7c-0.1,0.2-0.1,0.2,0,0.3c0,0.1,0.1,0.2,0.2,0.2h0.7
				c1.1,0,2.1-0.6,2.7-1.5l2.3-3.4h13.7c1.1,0,2.1-0.3,3-0.9l6.2-4h20l3,4.2c0.3,0.4,0.7,0.7,1.2,0.7h11.2l2,2.8
				c0.2,0.3,0.6,0.5,1,0.5c0.5,0,0.9-0.2,1.1-0.7c0.2-0.4,0.2-0.9-0.1-1.3l-1.8-2.7c-0.5-0.7-1.2-1.1-2-1.1h-8.1l-2.4-2.2l1.7-0.2
				c3.5-0.4,6.3-3,6.8-6.5l0.7-3.3h3.7c0.9,0,1.6-0.5,2-1.2c0.4-0.7,0.3-1.7-0.2-2.4l-3.1-4.5c-1.1-1.6-2.4-2.4-4.3-2.4H109
				l-6.8-9.8c-0.2-0.3-0.7-0.6-1.1-0.6l1.3,7.8l-8.3-3.3c-0.2-0.1-0.4,0-0.6,0.2c-0.2,0.2-0.1,0.4,0.1,0.6l4.7,4.7
				c0.7,0.8,1.8,1.2,2.9,1.2h5v4.3l-2,3H64.1c0.3,1.8,1.7,3.1,3.5,3.1h1.1l-3,8.5c-0.7,1.8-2.4,3-4.3,3h-5.7V101.1z"/>
			<path class="st2" d="M115.8,82.9l0.2,1.2h-1.5c-0.7,0-1.3-0.5-1.4-1.2l-0.2-1.2h1.5C115.1,81.7,115.7,82.3,115.8,82.9z"/>
		</g>
	</g>
</g>
<g>
	<g id="XMLID_00000018949183111300741830000009136615636122929079_">
		<g>
			<path d="M53.2,70.3c0.7,0.4,1.1,1.3,0.7,2.1L51.1,78c0.2,0.1,0.3,0.2,0.5,0.3c1.6,1.5,2.6,3.6,2.6,5.7c0,1.2-0.3,2.5-0.8,3.5
				c-1.4,2.5-2.1,5.2-2.2,8v2.4c0,3.6-1.5,7.2-4.1,9.8c-2.6,2.6-6.1,4.1-9.8,4.1H15.7c-1.3,0-2.4-0.7-2.9-1.8
				c-0.5-1.1-0.5-2.5,0.3-3.5c1-1.5,2.2-2.7,3.6-3.9c-3.4-2.6-5.5-6.6-5.7-10.9s1.5-8.5,4.7-11.4c3.1-2.9,7.4-4.3,11.7-3.8
				s8.1,2.8,10.5,6.4c0.4,0.5,0.6,1.1,0.9,1.6v-0.2c0-1.6,0.5-3,1.3-4.3s2-2.3,3.4-3v-6.8c0-0.8,0.7-1.6,1.6-1.6
				c0.8,0,1.6,0.7,1.6,1.6v6.2c0.6,0,1.4,0.1,2,0.3l2.8-5.6C51.5,70.3,52.4,70,53.2,70.3z M50.4,86.1c0.4-0.6,0.5-1.4,0.5-2.1
				c0-1.3-0.5-2.6-1.6-3.5s-2.3-1.3-3.6-1.2c-2.5,0.4-4.2,2.5-4.2,4.8v7.8c0,1.9-0.9,3.6-2.6,4.7l0,0H39c-0.9,2.7-2.9,5-5.6,6.2
				c-2.4,1.6-5.1,2.4-7.9,2.4c-1,0-1.9-0.1-2.8-0.3c-1.2-0.3-2.4-0.6-3.5-1.2c-0.1,0.1-0.1,0.2-0.2,0.3c-1.3,1.2-2.5,2.5-3.6,3.8
				c-0.1,0.1-0.1,0.2,0,0.3c0,0.1,0.1,0.1,0.2,0.1H37c2.8,0,5.6-1.1,7.7-3.2c2-2,3.2-4.7,3.2-7.7v-2.4C48,92.2,48.8,89,50.4,86.1z
				 M36.4,95.4c1.3-3.6,0.8-7.7-1.3-10.9c-1.7-2.6-4.4-4.3-7.4-4.9c-3-0.6-6.1,0-8.7,1.7s-4.3,4.4-4.9,7.4c-0.5,3,0,6.1,1.7,8.7
				c1.7,2.6,4.4,4.3,7.4,4.9c0.8,0.2,1.6,0.3,2.5,0.2c-2.5-1.2-4.4-3.1-5.5-5.6c-1.5-3.4-1.6-9.2,2.2-11.2c1.6-0.8,3.6-0.9,5.4-0.3
				c1.3,0.5,2.4,1.4,2.9,2.6c0.7,2.3,0,4.8-1.9,6.3c-0.6,0.5-1.6,0.5-2.2-0.1c-0.5-0.6-0.5-1.6,0.1-2.2c0.9-0.6,1.4-1.8,1.2-2.9
				c-0.2-0.5-0.6-0.7-1.1-0.9c-0.5-0.2-0.8-0.2-1.3-0.2c-0.5,0-1.1,0.1-1.6,0.4c-1.8,1-1.9,4.7-0.8,7.3c1.6,3.6,6.4,5.7,9.2,4.7h0.1
				C34.4,99.4,35.8,97.6,36.4,95.4z"/>
			<path class="st1" d="M23.3,102.4c-3-0.5-5.7-2.4-7.4-4.9c-1.7-2.6-2.4-5.7-1.7-8.7c0.6-3,2.4-5.7,4.9-7.4s5.7-2.4,8.7-1.7
				c3,0.5,5.7,2.4,7.4,4.9c2,3.3,2.5,7.3,1.3,10.9c-0.5,2.2-2,4-4,4.9h-0.1c-2.8,1-7.6-1-9.2-4.7c-1.1-2.5-0.9-6.3,0.8-7.3
				c0.5-0.3,1.1-0.4,1.6-0.4c0.5,0,0.9,0.1,1.3,0.2c0.5,0.1,0.8,0.5,1.1,0.9c0.2,1.1-0.3,2.3-1.2,2.9c-0.6,0.5-0.6,1.6-0.1,2.2
				s1.6,0.6,2.2,0.1c1.9-1.6,2.6-4,1.9-6.3c-0.5-1.3-1.6-2.2-2.9-2.6c-1.7-0.6-3.7-0.5-5.4,0.3c-3.7,2-3.6,7.8-2.2,11.2
				c1.1,2.5,3.1,4.4,5.5,5.6C25,102.6,24.2,102.5,23.3,102.4z"/>
			<path class="st1" d="M15.5,108.3c1-1.5,2.2-2.7,3.6-3.8c0.1-0.1,0.1-0.2,0.2-0.3c1.1,0.5,2.3,0.9,3.5,1.2
				c0.9,0.2,1.9,0.3,2.8,0.3c2.8,0,5.6-0.8,7.9-2.4c2.6-1.2,4.7-3.5,5.6-6.2h0.1l0,0c1.6-1.1,2.6-2.8,2.6-4.7v-7.8
				c-0.1-2.5,1.7-4.6,4.2-4.8c1.3-0.1,2.6,0.3,3.6,1.2c1,0.9,1.6,2.1,1.6,3.5c0,0.7-0.2,1.5-0.5,2.1c-1.6,2.9-2.5,6.1-2.6,9.4v2.4
				c0,2.8-1.1,5.6-3.2,7.7c-2,2-4.7,3.2-7.7,3.2H15.7c-0.1,0-0.2,0-0.2-0.1C15.5,108.5,15.5,108.4,15.5,108.3z"/>
		</g>
	</g>
</g>
</svg>
