<?xml version="1.0" encoding="utf-8"?>
<!-- Generator: Adobe Illustrator 27.1.1, SVG Export Plug-In . SVG Version: 6.00 Build 0)  -->
<svg version="1.1" id="Layer_1" xmlns="http://www.w3.org/2000/svg" xmlns:xlink="http://www.w3.org/1999/xlink" x="0px" y="0px"
	 viewBox="0 0 133 133" style="enable-background:new 0 0 133 133;" xml:space="preserve">
<style type="text/css">
	.st0{fill:#608697;}
	.st1{fill:#FFFFFF;}
</style>
<g id="Layer_1_00000005231822023012018840000016625622337874666652_">
	<g id="Layer_2_00000163757599939546513010000018327579501474757774_">
		<path class="st0" d="M121,133H12c-6.6,0-12-5.4-12-12V12C0,5.4,5.4,0,12,0h109c6.6,0,12,5.4,12,12v109
			C133,127.6,127.6,133,121,133z"/>
		<path class="st0" d="M121,133H12c-6.6,0-12-5.4-12-12V12C0,5.4,5.4,0,12,0h109c6.6,0,12,5.4,12,12v109
			C133,127.6,127.6,133,121,133z"/>
	</g>
</g>
<g id="Layer_2_00000145048922669396464910000012662991921720919999_">
</g>
<g id="Layer_4">
</g>
<g id="Layer_5_00000096759886075198047500000016841880956640546723_">
	<g>
		<g id="XMLID_00000000930204940778951400000009183967733733490103_">
			<g>
				<path class="st1" d="M65.3,55.8l-0.1,4.3c-0.7,0-1.5,0-2.2,0v-4.3C63.8,55.8,64.6,55.8,65.3,55.8z"/>
				<path class="st1" d="M56.3,55.7v4.4c-0.8,0-1.5,0-2.2,0v-4.5C54.8,55.6,55.5,55.6,56.3,55.7z"/>
				<path class="st1" d="M18.2,51.8l-0.1,10.7c0,0.4-0.3,0.6-0.7,0.6c-0.4,0-0.6-0.3-0.6-0.7l0.1-10.7c0-0.4,0.3-0.6,0.7-0.6
					C17.9,51.1,18.2,51.4,18.2,51.8z"/>
				<path class="st1" d="M38.4,55.6c-1.4,0.9-2.6,2.1-3.6,3.4c-4.1-0.1-9.1-0.2-11.1,0.3c-0.8,0.2-2.2,0.8-3.4,1.4l0.1-7
					c1.1,0.6,2.6,1.3,3.4,1.5C26.2,55.7,33,55.7,38.4,55.6L38.4,55.6z"/>
				<path class="st1" d="M47.3,55.4l-0.1,4.7H47c-4.2,0-7.7,3.3-7.7,7.6v0.7v0.1c0,4.2,3.4,7.6,7.6,7.7h0.3v4.7h-0.9
					c-6.6-0.1-11.9-5.5-11.9-12.1v-1.5c0.1-6.6,5.5-11.9,12.1-11.9C46.5,55.4,46.8,55.4,47.3,55.4z"/>
				<path class="st1" d="M51.6,53c0.2,0.2,0.3,0.5,0.3,0.8l-0.3,29.3c0,0.7-0.5,1.2-1.2,1.2c-0.3,0-0.6-0.1-0.8-0.3
					c-0.2-0.2-0.3-0.5-0.3-0.8l0.3-29.3c0-0.3,0.1-0.6,0.3-0.8s0.5-0.3,0.8-0.3C51.1,52.7,51.4,52.8,51.6,53z"/>
				<polygon class="st1" points="56.1,76.3 56,81 53.8,80.9 53.9,76.2 				"/>
				<path class="st1" d="M60.6,53.2c0.2,0.2,0.3,0.5,0.3,0.8l-0.3,29.3c0,0.7-0.5,1.2-1.2,1.2c-0.3,0-0.6-0.1-0.8-0.3
					c-0.2-0.2-0.3-0.5-0.3-0.8L58.5,54c0-0.3,0.1-0.6,0.4-0.8c0.2-0.2,0.5-0.3,0.8-0.3C60,52.8,60.3,52.9,60.6,53.2z"/>
				<polygon class="st1" points="65.1,76.4 65,81.1 62.8,81.1 62.9,76.3 				"/>
				<path class="st1" d="M67.5,84.2c-0.2-0.2-0.3-0.5-0.3-0.8L67.5,54c0-0.3,0.1-0.6,0.3-0.8c0.2-0.2,0.5-0.3,0.8-0.3
					s0.6,0.1,0.8,0.4c0.2,0.2,0.3,0.5,0.3,0.8l-0.3,29.3c0,0.6-0.5,1.2-1.2,1.2C68.1,84.5,67.8,84.4,67.5,84.2z"/>
				<path class="st1" d="M82.2,63l-0.1,6.3c-0.1,5.9-4.5,10.9-10.4,11.8l0.1-4.9c3.2-1,5.4-3.9,5.4-7.2l0.1-6.2c0.5,0,1,0.1,1.4,0.1
					C79.8,62.8,81,62.8,82.2,63z"/>
				<path class="st1" d="M113.4,43.2c0.3-0.3,0.6-0.4,1-0.4s0.8,0.2,1,0.4c0.3,0.3,0.4,0.7,0.4,1L115.6,73c0,0.8-0.7,1.4-1.4,1.4
					l0,0l0,0c-0.8,0-1.4-0.7-1.4-1.4l0.3-28.8C113,43.8,113.2,43.4,113.4,43.2z"/>
				<path class="st1" d="M110.8,46.4l-0.3,24c-9-7.6-22.2-9.3-31.7-9.9c-1.6-0.1-3.9-0.2-6.8-0.2l0.1-4.3c3,0,5.3,0,6.9-0.1
					c4-0.2,10.1-0.8,16.4-2.4C101.6,51.7,106.7,49.4,110.8,46.4z"/>
				<path d="M114.5,42.8c-0.4,0-0.8,0.1-1,0.4c-0.3,0.3-0.4,0.6-0.4,1L112.7,73c0,0.8,0.6,1.4,1.4,1.4l0,0l0,0
					c0.8,0,1.4-0.6,1.4-1.4l0.3-28.8c0-0.4-0.2-0.8-0.4-1C115.2,42.9,114.8,42.8,114.5,42.8z M72,60.2c3,0.1,5.2,0.1,6.8,0.2
					c9.4,0.6,22.6,2.3,31.7,9.9l0.3-24c-4.1,3-9.2,5.3-15.4,6.9C89.1,55,83,55.6,79,55.8c-1.6,0.1-3.9,0.1-6.9,0.1L72,60.2z
					 M77.3,68.8c-0.1,3.3-2.2,6.2-5.4,7.2l-0.1,5c5.9-0.8,10.3-5.8,10.4-11.8l0.1-6.3c-1.2-0.1-2.4-0.2-3.5-0.3
					c-0.4,0-0.9,0-1.4-0.1L77.3,68.8z M71.9,73.7c1.9-0.9,3.1-2.8,3.2-4.9l0.1-6.3c-0.9,0-2,0-3.1-0.1L71.9,73.7z M62.8,81.1H65
					l0.1-4.7h-2.2L62.8,81.1z M65.1,74.2l0.1-11.8c-0.7,0-1.5,0-2.2,0l-0.1,11.8H65.1z M63,60.1c0.7,0,1.5,0,2.2,0l0.1-4.3
					c-0.7,0-1.5,0-2.2,0L63,60.1z M67.5,54l-0.3,29.3c0,0.3,0.1,0.6,0.3,0.8c0.2,0.2,0.5,0.3,0.8,0.3c0.6,0,1.2-0.5,1.2-1.2
					l0.3-29.3c0-0.3-0.1-0.6-0.3-0.8c-0.2-0.2-0.5-0.4-0.8-0.4s-0.6,0.1-0.8,0.3C67.7,53.5,67.5,53.7,67.5,54z M60.6,83.3L60.9,54
					c0-0.3-0.1-0.6-0.3-0.8s-0.5-0.4-0.8-0.4s-0.6,0.1-0.8,0.3s-0.3,0.5-0.4,0.8l-0.3,29.3c0,0.3,0.1,0.6,0.3,0.8
					c0.2,0.2,0.5,0.3,0.8,0.3C60,84.4,60.6,83.9,60.6,83.3z M51.6,83.2l0.3-29.3c0-0.3-0.1-0.6-0.3-0.8s-0.5-0.3-0.8-0.4
					c-0.3,0-0.6,0.1-0.8,0.3s-0.3,0.5-0.3,0.8l-0.3,29.3c0,0.3,0.1,0.6,0.3,0.8c0.2,0.2,0.5,0.3,0.8,0.3
					C51,84.3,51.6,83.8,51.6,83.2z M56.3,55.7c-0.8,0-1.5,0-2.2-0.1v4.5c0.7,0,1.4,0,2.2,0V55.7z M56.1,76.3h-2.2V81h2.2V76.3z
					 M56.2,62.3c-0.8,0-1.5,0-2.2,0L53.9,74h2.2L56.2,62.3z M46.8,74h0.3l0.1-11.6c-0.2,0-0.3,0-0.3,0l0,0c-3,0-5.5,2.4-5.5,5.4v0.7
					C41.4,71.4,43.8,73.9,46.8,74z M34.8,59c1-1.3,2.2-2.5,3.6-3.4l0,0c-5.4,0.1-12.2,0.1-14.6-0.5c-0.8-0.2-2.2-0.9-3.4-1.5l-0.1,7
					c1.1-0.6,2.6-1.2,3.4-1.4C25.8,58.9,30.8,58.9,34.8,59z M34.3,68.7c0,6.6,5.2,12,11.9,12.1h0.9v-4.7h-0.3
					c-4.2-0.1-7.6-3.5-7.6-7.7c0,0,0,0,0-0.1v-0.7c0-4.2,3.5-7.6,7.7-7.6h0.3l0.1-4.7c-0.5,0-0.9,0-0.9,0c-6.6-0.1-12,5.2-12.1,11.9
					L34.3,68.7z M15.9,49.5c0.7-0.5,1.7-0.7,2.6-0.4c0.1,0,0.2,0.1,0.4,0.1c0.8,0.4,1.3,1.1,1.5,1.9c1.3,0.7,3.2,1.7,3.9,1.8
					c2.9,0.7,13.4,0.5,19.7,0.3c1.1-0.1,2.3-0.1,3.4,0c0.2-1.2,1.1-2.2,2.2-2.5v-2.8h-0.8c-0.6,0-1.1-0.5-1.1-1.1
					c0-0.3,0.1-0.6,0.3-0.8s0.5-0.3,0.8-0.3l0,0h3.7c0.3,0,0.6,0.1,0.8,0.4c0.2,0.2,0.3,0.6,0.3,0.9c-0.1,0.6-0.6,1-1.2,1h-0.7v2.8
					c1.2,0.4,2,1.5,2.2,2.7c0.7,0,1.5,0,2.3,0.1c0.2-1.2,1.1-2.3,2.3-2.7v-2.8h-0.8c-0.6,0-1.1-0.5-1.1-1.1c0-0.3,0.1-0.6,0.3-0.8
					s0.5-0.3,0.8-0.3h3.7c0.3,0,0.6,0.2,0.8,0.4s0.3,0.6,0.3,0.9c-0.1,0.6-0.6,1-1.2,1h-0.7V51c1.2,0.4,2.1,1.5,2.2,2.8h2.3
					c0.2-1.3,1.1-2.3,2.3-2.7v-2.8h-0.8c-0.6,0-1.1-0.5-1.1-1.1c0-0.3,0.1-0.6,0.3-0.8c0.2-0.2,0.5-0.3,0.8-0.3h3.7
					c0.3,0,0.6,0.2,0.8,0.4c0.2,0.2,0.3,0.6,0.3,0.9c-0.1,0.6-0.6,1-1.1,1h-0.7v2.8c1.2,0.4,2.1,1.5,2.2,2.8c3,0,5.3,0,6.8-0.1
					c18.2-0.9,27.8-6.5,32-10c0.3-1.9,2.1-3.2,4-3s3.3,1.8,3.3,3.7L117.8,73c0,1.9-1.6,3.5-3.5,3.6c-0.1,0-0.1,0-0.2,0
					c-1.9,0-3.5-1.4-3.6-3.3c-6.9-6.7-17.2-9.1-26-10.2l-0.1,6.1c-0.1,3.5-1.4,6.8-3.7,9.4c-2.3,2.6-5.5,4.2-8.9,4.6v1.1
					c0,2-1.6,3-3.4,2.4c-1.2,0-2.3-0.7-2.9-1.7l0,0c-0.3-0.5-0.5-1.1-0.5-1.8l0,0l0,0h-2.2v1c0,2-1.6,3-3.4,2.4
					c-1.2,0-2.3-0.7-2.9-1.7c-0.3-0.5-0.5-1.1-0.5-1.8l0,0l0,0h-2.2v1c0,2-1.6,3.1-3.4,2.4c-1.2,0-2.3-0.7-2.9-1.7
					C47.2,84.3,47,83.7,47,83l0,0h-0.9c-3.8,0-7.4-1.6-10-4.3c-2.6-2.7-4.1-6.2-4.1-10v-0.1v-1.5c0-2.1,0.5-4.1,1.4-6
					c-4.7-0.1-8,0-9.3,0.3c-0.7,0.2-2.6,1.1-4,1.8c-0.2,0.8-0.8,1.5-1.6,1.9c-0.1,0-0.2,0.1-0.4,0.1c-1,0.3-2.2,0-2.9-0.8
					c-0.5-0.5-0.8-1.2-0.8-2c0,0,0,0,0-0.1l0.1-10.6C14.7,50.8,15.1,50,15.9,49.5z M17.6,51.1c-0.4,0-0.6,0.3-0.7,0.6l-0.1,10.7
					c0,0.4,0.3,0.7,0.6,0.7c0.4,0,0.7-0.3,0.7-0.6l0.1-10.7C18.2,51.4,17.9,51.1,17.6,51.1z"/>
			</g>
		</g>
	</g>
</g>
<g id="Layer_6_00000151532325249707469710000014370122528315639221_">
</g>
<g id="Layer_7_00000042717999357893301760000000855885267568530853_">
</g>
<g id="Layer_8_00000168831599467053464300000003505523461608539011_">
</g>
<g id="Layer_9_00000089543259283313251050000005252079673544207528_">
</g>
<g id="Layer_10_00000084509998272139497780000008077192264451833754_">
</g>
<g id="Layer_11_00000116220595310884250560000013807966725250984093_">
</g>
<g id="Layer_12">
</g>
<g id="Layer_13">
</g>
<g id="Layer_14">
</g>
<g id="Layer_15">
</g>
<g id="Layer_16">
</g>
<g id="Layer_17">
</g>
<g id="Layer_18">
</g>
</svg>
