<?xml version="1.0" encoding="utf-8"?>
<!-- Generator: Adobe Illustrator 26.3.1, SVG Export Plug-In . SVG Version: 6.00 Build 0)  -->
<svg version="1.1" xmlns="http://www.w3.org/2000/svg" xmlns:xlink="http://www.w3.org/1999/xlink" x="0px" y="0px"
	 viewBox="0 0 133 133" style="enable-background:new 0 0 133 133;" xml:space="preserve">
<style type="text/css">
	.st0{fill:#BCD0D8;}
	.st1{fill:#6699B2;}
	.st2{fill:#496D7F;}
	.st3{fill:#5D699B;}
	.st4{fill:#FFFFFF;}
	.st5{fill:#FFFFFF;stroke:#000000;stroke-width:2;stroke-miterlimit:10;}
</style>
<g id="Layer_1">
	<g id="Layer_2_00000059279085696385822300000004399164822538882722_">
		<path class="st0" d="M121,133H12c-6.6,0-12-5.4-12-12V12C0,5.4,5.4,0,12,0h109c6.6,0,12,5.4,12,12v109
			C133,127.6,127.6,133,121,133z"/>
		<path class="st0" d="M121,133H12c-6.6,0-12-5.4-12-12V12C0,5.4,5.4,0,12,0h109c6.6,0,12,5.4,12,12v109
			C133,127.6,127.6,133,121,133z"/>
	</g>
</g>
<g id="Layer_2">
	<g>
		<g id="XMLID_00000067207262051142871020000008722427557319458976_">
			<g>
				<path d="M98.1,48c11.1,6.7,16.2,17.8,11.6,25.4c-1.3,2.1-3.4,4-6.1,5.3c-2.6,1.3-5.7,2.2-8.8,2.3c-0.2,0-0.4,0-0.6,0
					c-1.9,0-3.7-0.3-5.4-0.8c-0.1,0.6-0.2,1.2-0.2,1.8c-0.4,2.4-0.9,4.7-1.6,6.9c-2.9,8.8-8.4,15.4-15,17.7l-2.4,9.2
					c-0.2,0.9-1.1,1.6-2,1.6c-0.9,0-1.8-0.7-2-1.6l-2.3-8.7c-7.4-1.7-13.7-8.8-16.8-18.3c-0.8-2.3-1.3-4.8-1.7-7.3
					c-0.1-0.4-0.1-0.9-0.2-1.3c-1.8,0.6-3.7,0.9-5.8,0.9c-0.2,0-0.4,0-0.6,0c-6.2-0.2-12.3-3.3-14.9-7.6c-1.1-1.9-1.7-4-1.7-6.2
					c0-6.7,4.9-14.2,13.3-19.2c6.3-3.8,14.3-3,19.9-1.5c0.2,0,0.4,0.1,0.6,0.1c0,0,0,0,0,0c0.6,0.1,1.1,0.3,1.6,0.5c0,0,0,0-0.1-0.1
					c0.1,0,0.2,0.1,0.2,0.1c-0.3-0.3-0.6-0.6-0.9-1l0,0c-2-2.4-3.3-5.5-3.3-8.9c0-4.4,2-8.2,5.2-10.8c-2.9-3.8-7.3-5.6-10.8-4.5
					c-2,0.6-3.4,2.1-4.2,3.3c-0.7,1-2,1.2-2.9,0.5c-1-0.7-1.2-2-0.5-2.9c1.2-1.7,3.2-3.9,6.4-4.9c5.4-1.7,11.7,0.9,15.7,6.4
					c1.5-0.6,3.1-0.9,4.8-0.9c1.7,0,3.3,0.3,4.8,0.9c4-5.5,10.3-8.1,15.7-6.4c3.2,1,5.2,3.2,6.4,4.9c0.7,1,0.4,2.3-0.5,2.9
					c-0.9,0.7-2.3,0.4-2.9-0.5c-0.8-1.1-2.2-2.6-4.2-3.3c-3.5-1.1-7.8,0.7-10.8,4.5c3.2,2.5,5.3,6.4,5.3,10.8c0,3.4-1.2,6.5-3.3,8.9
					c0,0,0,0-0.1,0.1c0,0-0.1,0-0.1-0.1l-0.3,0.4c-0.1,0.2-0.3,0.3-0.4,0.4c0.1,0,0.2,0,0.2-0.1c0,0,0,0-0.1,0.1
					c0.3-0.1,0.6-0.2,0.9-0.2c0.2,0,0.3-0.1,0.5-0.1C83.4,45.1,91.6,44.1,98.1,48z M106.1,71.2c0.7-1.2,1-2.5,1-3.9
					c0-5.2-4.3-11.6-11.2-15.7c-3.5-2.1-7.9-2.4-11.9-1.9c-1,0.1-1.9,0.3-2.8,0.4c-1.7,0.3-3.2,0.7-4.5,1.1c-0.8,0.2-1.5,0.5-2,0.7
					c0.3,0.9,0.8,2.2,1.4,3.7c1.1,2.7,2.6,6.2,4.6,9.8c1.2,2.2,2.5,4.4,4,6.5c0.1,0.1,0.1,0.2,0.2,0.3c0.2,0.2,0.3,0.4,0.5,0.6
					c1.2,1.3,2.5,2.2,3.8,2.8c2.1,0.9,4.2,1.1,5.6,1C99.4,76.6,104.3,74.2,106.1,71.2z M84.6,80.7c0.1-0.8,0.2-1.7,0.3-2.5
					c-1.2-0.8-2.2-1.9-3.2-3.1c-4.4,2.1-9.9,3.3-16,3.3c-5.6,0-10.6-1-14.8-2.7c-0.7,0.8-1.5,1.6-2.3,2.2c0.1,0.9,0.2,1.7,0.2,2.6
					c0.4,0.1,0.8,0.3,1.2,0.6c2.8,2,8.8,5.3,16.8,5.3c0,0,0,0,0,0c7.8,0,13.6-3.1,16.4-5C83.6,81,84.1,80.8,84.6,80.7z M73.3,101.3
					c3.2-2,6-5.3,8-9.6c-3.8,1.6-8.8,3-14.6,3c0,0,0,0,0,0c-5.9,0-10.9-1.4-14.8-3c2.4,5.1,5.9,8.8,9.9,10.6c1.5,0.6,3,1,4.6,1
					c0.1,0,0.2,0,0.2,0c0.6,0,1.2,0,1.8-0.1C70.2,102.8,71.8,102.2,73.3,101.3z M77.7,67.5C77.7,67.5,77.7,67.4,77.7,67.5
					c-0.1,0-0.2-0.1-0.3-0.1c0.1,0,0.1,0,0.1,0c-0.2-0.1-0.3-0.3-0.5-0.4c0,0-0.1,0-0.1-0.1l-0.2,0.3c-2.8-5.1-4.6-9.8-5.7-12.8
					c-1.7-0.3-3.5-0.4-5.4-0.4c-1.3,0-2.5,0.1-3.6,0.2c-1,2.9-2.9,7.7-5.7,12.8c0,0-0.1,0-0.1,0c0,0,0-0.1-0.1-0.1c0,0,0,0,0,0
					c0,0-0.1,0.1-0.1,0.1c-0.1,0.1-0.1,0.1-0.2,0.2c-0.2,0-0.3,0.1-0.5,0.1c0.1,0,0.2,0,0.3,0.1c0,0-0.1,0.1-0.1,0.1c0,0,0,0,0,0
					c0.2,0.1,0.4,0.1,0.6,0.2c-0.1,0.1-0.1,0.2-0.2,0.4c2.7,0.9,6.1,1.5,9.9,1.5c4.2,0,7.8-0.7,10.7-1.8c0,0,0,0,0,0
					c0.1,0,0.1-0.1,0.2-0.1c0.1,0,0.2-0.1,0.3-0.1c-0.1,0-0.1,0.1-0.2,0.2c0.1,0,0.2,0,0.2-0.1c0,0,0,0.1-0.1,0.1
					C77.1,67.6,77.4,67.5,77.7,67.5z M57.2,55c0.5-1.2,0.9-2.3,1.2-3.1c-0.5-0.2-1.1-0.4-1.8-0.6c-1.2-0.4-2.8-0.8-4.4-1.2
					c-1.5-0.3-3-0.5-4.6-0.6c-3.6-0.2-7.3,0.2-10.4,2.1c-8.7,5.3-13.4,14.3-10.1,19.6c1.8,3,6.7,5.4,11.4,5.6c1.5,0,3.8-0.1,6-1.2
					c1-0.5,1.9-1.1,2.8-2c0.5-0.5,0.9-1,1.3-1.6c0.1-0.1,0.1-0.2,0.2-0.3c1.2-1.8,2.3-3.6,3.3-5.5C54.2,62.1,56,58,57.2,55z"/>
				<path class="st4" d="M107.1,67.3c0,1.4-0.3,2.8-1,3.9c-1.8,3-6.7,5.4-11.4,5.6c-1.4,0-3.5-0.1-5.6-1c-1.3-0.6-2.6-1.5-3.8-2.8
					c-0.1-0.2-0.3-0.4-0.5-0.6c-0.1-0.1-0.1-0.2-0.2-0.3c-1.5-2.1-2.8-4.4-4-6.5c-2-3.6-3.5-7.1-4.6-9.8c-0.6-1.5-1.1-2.8-1.4-3.7
					c0.6-0.2,1.3-0.5,2-0.7c1.3-0.4,2.8-0.8,4.5-1.1c0.9-0.2,1.9-0.3,2.8-0.4c4-0.5,8.4-0.2,11.9,1.9
					C102.8,55.7,107.1,62.1,107.1,67.3z"/>
				<path class="st4" d="M84.8,78.1c-0.1,0.9-0.1,1.7-0.3,2.5c-0.5,0.1-1,0.3-1.4,0.6c-2.8,1.9-8.6,5-16.4,5c0,0,0,0,0,0
					c-8,0-14-3.3-16.8-5.3c-0.4-0.2-0.8-0.4-1.2-0.6c-0.1-0.8-0.2-1.7-0.2-2.6c0.9-0.7,1.7-1.4,2.3-2.2c4.2,1.7,9.2,2.7,14.8,2.7
					c6.2,0,11.7-1.2,16-3.3C82.6,76.2,83.6,77.3,84.8,78.1z"/>
				<path class="st4" d="M81.3,91.7c-2,4.3-4.8,7.6-8,9.6c-1.5,0.9-3.1,1.5-4.8,1.8c-0.6,0.1-1.2,0.1-1.8,0.1c-0.1,0-0.2,0-0.2,0
					c-1.6,0-3.1-0.4-4.6-1c-4-1.7-7.5-5.5-9.9-10.6c3.9,1.7,8.9,3,14.8,3c0,0,0,0,0,0C72.5,94.7,77.5,93.3,81.3,91.7z"/>
				<path d="M77.6,67.4C77.7,67.4,77.7,67.5,77.6,67.4c-0.2,0.1-0.5,0.2-0.8,0.3c0,0,0.1,0,0.1-0.1c-0.1,0-0.1,0.1-0.2,0.1
					c0.1-0.1,0.1-0.1,0.2-0.2c0.1,0,0.3-0.1,0.4-0.1c0.1,0,0.2,0,0.2-0.1C77.5,67.4,77.6,67.4,77.6,67.4z"/>
				<path d="M77.6,67.3c0,0-0.1,0-0.1,0c-0.1,0-0.2,0-0.2-0.1c0,0-0.1,0-0.1,0c0,0.1-0.1,0.1-0.1,0.1c-0.1-0.1-0.1-0.2-0.2-0.3
					l0.2-0.3c0,0,0.1,0.1,0.1,0.1C77.3,67.1,77.4,67.2,77.6,67.3z"/>
				<path d="M77.4,67.4c-0.1,0-0.2,0-0.2,0.1c-0.1,0-0.3,0.1-0.4,0.1c0,0,0.1-0.1,0.1-0.1c0,0,0,0,0.1,0c0,0,0,0,0,0
					c0,0,0.1-0.1,0.1-0.1c0.1,0,0.1,0,0.1,0C77.3,67.3,77.4,67.4,77.4,67.4z"/>
				<path d="M77.1,46.2c-0.1,0.1-0.2,0.2-0.3,0.4c-0.1,0.1-0.2,0.2-0.3,0.3c-0.1,0-0.2,0-0.2,0.1c0.1-0.2,0.3-0.3,0.4-0.4L77.1,46.2
					C77,46.1,77,46.1,77.1,46.2z"/>
				<path d="M76.9,67.4C76.9,67.4,76.9,67.4,76.9,67.4C76.9,67.4,76.9,67.4,76.9,67.4C76.9,67.4,76.9,67.4,76.9,67.4z"/>
				<path d="M76.8,67.1c0.1,0.1,0.1,0.2,0.2,0.3c0,0,0,0,0,0c-0.2,0.1-0.4,0.2-0.6,0.2c0.1-0.1,0.3-0.3,0.4-0.4L76.8,67.1z"/>
				<path d="M76.9,67.5C76.9,67.5,76.8,67.5,76.9,67.5c-0.2,0.1-0.3,0.2-0.4,0.2c-0.1,0-0.2,0.1-0.2,0.1c0,0,0,0,0,0
					C76.5,67.6,76.7,67.5,76.9,67.5z"/>
				<path class="st4" d="M76.8,67.1l-0.1,0.2c-0.1,0.1-0.3,0.3-0.4,0.4c-2.9,1-6.5,1.8-10.7,1.8c-3.8,0-7.1-0.6-9.9-1.5
					c0.1-0.1,0.1-0.2,0.2-0.4c0.4,0.1,0.7,0.2,1,0.3c0,0-0.1,0-0.1-0.1c0,0-0.1-0.1-0.1-0.1c0.2,0.1,0.4,0.1,0.6,0.2
					c0,0-0.1,0-0.1-0.1c0.1,0,0.2,0.1,0.2,0.1c-0.3-0.3-0.6-0.6-0.9-1c0,0-0.1,0-0.2,0c0,0-0.1,0-0.1,0c0,0-0.1,0-0.1,0
					C59.1,61.8,61,57,62,54.1c1.2-0.1,2.4-0.2,3.6-0.2c1.9,0,3.8,0.2,5.4,0.4C72.1,57.3,74,62,76.8,67.1z"/>
				<path d="M57.6,67.9c-0.1,0-0.2,0-0.2-0.1c0,0,0,0.1,0.1,0.1c-0.2-0.1-0.4-0.1-0.6-0.2c0,0,0,0,0,0c-0.2-0.2-0.4-0.4-0.6-0.6
					c0,0,0-0.1,0.1-0.1c0,0,0.1,0,0.1,0c0,0,0.1,0,0.1,0c0.1,0,0.1,0,0.2,0C56.9,67.2,57.2,67.6,57.6,67.9z"/>
				<path class="st4" d="M58.3,51.9c-0.3,0.8-0.7,1.9-1.2,3.1c-1.2,3-2.9,7.1-5.3,11.2c-1,1.8-2.1,3.7-3.3,5.5
					c-0.1,0.1-0.1,0.2-0.2,0.3c-0.4,0.6-0.9,1.1-1.3,1.6c-0.9,0.9-1.8,1.5-2.8,2c-2.2,1.1-4.5,1.2-6,1.2c-4.7-0.1-9.6-2.5-11.4-5.6
					c-3.2-5.4,1.4-14.4,10.1-19.6c3.1-1.9,6.9-2.3,10.4-2.1c1.6,0.1,3.2,0.4,4.6,0.6c1.7,0.3,3.2,0.8,4.4,1.2
					C57.2,51.5,57.8,51.7,58.3,51.9z"/>
				<path d="M56.9,67.8C56.9,67.8,57,67.9,56.9,67.8c-0.3,0-0.6-0.1-1-0.2c0,0,0-0.1,0.1-0.1c0.3,0.1,0.5,0.2,0.8,0.2c0,0,0,0,0,0
					C56.8,67.7,56.9,67.8,56.9,67.8z"/>
				<path d="M56.9,47C56.9,47,56.9,47.1,56.9,47c-0.4-0.1-1-0.2-1.5-0.4c0,0,0,0,0,0c0,0,0.1,0,0.1,0C56,46.8,56.5,46.9,56.9,47z"/>
				<path d="M56.8,67.7c-0.2-0.1-0.5-0.2-0.8-0.2c0.1-0.1,0.1-0.3,0.2-0.4C56.4,67.3,56.6,67.5,56.8,67.7z"/>
				<path d="M56.3,67c0,0,0,0.1-0.1,0.1c0,0,0-0.1-0.1-0.1C56.2,67,56.2,67,56.3,67z"/>
				<path d="M56.2,67C56.2,67,56.2,67.1,56.2,67c0,0.2-0.1,0.3-0.2,0.5c-0.1,0-0.1,0-0.2-0.1c0,0,0,0,0,0c-0.1,0-0.2-0.1-0.3-0.1
					c0.1-0.1,0.2-0.1,0.2-0.2C55.9,67.1,56,67,56.2,67z"/>
				<path d="M56.1,66.9C56.1,66.9,56.1,67,56.1,66.9c-0.1,0.1-0.2,0.1-0.3,0.2c0.1,0,0.1-0.1,0.2-0.2C56,66.9,56,66.9,56.1,66.9
					C56.1,66.9,56.1,66.9,56.1,66.9z"/>
				<path d="M56,67.5c0,0,0,0.1-0.1,0.1c-0.2-0.1-0.4-0.1-0.6-0.2c0,0,0,0,0,0c0,0,0.1-0.1,0.1-0.1c0.1,0,0.2,0,0.3,0.1c0,0,0,0,0,0
					C55.9,67.4,55.9,67.4,56,67.5z"/>
				<path d="M55.2,67.2c0.2-0.1,0.3-0.1,0.5-0.1c-0.1,0.1-0.2,0.1-0.2,0.2C55.4,67.3,55.3,67.2,55.2,67.2z"/>
			</g>
		</g>
	</g>
</g>
<g id="Layer_4">
</g>
<g id="Layer_5_00000096759886075198047500000016841880956640546723_">
</g>
<g id="Layer_6_00000151532325249707469710000014370122528315639221_">
</g>
<g id="Layer_7_00000042717999357893301760000000855885267568530853_">
</g>
<g id="Layer_8_00000168831599467053464300000003505523461608539011_">
</g>
<g id="Layer_9_00000089543259283313251050000005252079673544207528_">
</g>
<g id="Layer_10_00000084509998272139497780000008077192264451833754_">
</g>
<g id="Layer_11_00000116220595310884250560000013807966725250984093_">
</g>
<g id="Layer_12">
</g>
<g id="Layer_13">
</g>
<g id="Layer_14">
</g>
<g id="Layer_15">
</g>
<g id="Layer_16">
</g>
<g id="Layer_17">
</g>
<g id="Layer_18">
</g>
</svg>
