<?xml version="1.0" encoding="utf-8"?>
<!-- Generator: Adobe Illustrator 26.3.1, SVG Export Plug-In . SVG Version: 6.00 Build 0)  -->
<svg version="1.1" id="Layer_1" xmlns="http://www.w3.org/2000/svg" xmlns:xlink="http://www.w3.org/1999/xlink" x="0px" y="0px"
	 viewBox="0 0 133 133" style="enable-background:new 0 0 133 133;" xml:space="preserve">
<style type="text/css">
	.st0{fill:#FFFFFF;}
</style>
<g>
	<g id="XMLID_00000036947052388415767660000006435995474978522013_">
		<g>
			<path d="M89.9,86.1l-1.1,1.1c-0.5,0.4-1.1,0.6-1.6,0.6c-0.7,0-1.3-0.3-1.8-0.8l-1.2-1.2c-0.5-0.4-0.7-1.1-0.8-1.7
				c0-0.6,0.2-1.3,0.6-1.7l1-1.1c-0.5-0.9-0.9-1.9-1.2-2.9h-1.5c-1.3-0.1-2.4-1.2-2.3-2.5v-1.7c-0.1-1.3,1-2.5,2.3-2.5h1.5
				c0.3-1,0.7-2,1.2-2.9L84,67.8c-0.4-0.4-0.6-1-0.6-1.6c0-0.7,0.3-1.4,0.8-1.9l1.2-1.2c0.9-1,2.5-1,3.4-0.1l1.1,1.1
				c0.9-0.5,1.9-0.9,2.9-1.2v-1.5c0.1-1.3,1.2-2.4,2.5-2.3h1.7c1.3,0,2.5,1,2.5,2.3v1.5c1,0.3,2,0.7,2.9,1.2l1.1-1.1
				c0.5-0.4,1.1-0.6,1.7-0.6c0.7,0,1.3,0.3,1.8,0.8l1.2,1.2c0.5,0.5,0.8,1.1,0.8,1.8c0,0.6-0.2,1.2-0.6,1.6l-1.1,1.1
				c0.5,0.9,0.9,1.9,1.2,2.9h1.5c1.3,0.1,2.4,1.2,2.3,2.5v1.7c0.1,1.3-1,2.5-2.3,2.5h-1.5c-0.3,1-0.7,2-1.2,2.9l1.1,1.1
				c0.9,1,0.8,2.5-0.1,3.4l-1.2,1.2c-0.9,1-2.5,1-3.4,0.1l-1.1-1.1c-0.9,0.5-1.9,0.9-2.9,1.2v1.5c-0.1,1.3-1.2,2.4-2.5,2.3h-1.7
				c-1.3,0.1-2.5-1-2.5-2.3v-1.5C91.7,87,90.8,86.6,89.9,86.1z M110.4,74.3c0-0.4-0.3-0.8-0.7-0.8h-2.1c-0.4,0-0.7-0.3-0.8-0.7
				c-0.3-1.3-0.8-2.5-1.5-3.6c-0.1-0.1-0.1-0.3-0.1-0.5c0-0.2,0.1-0.4,0.2-0.6l1.5-1.5c0.2-0.3,0.2-0.8-0.1-1.1l-1.2-1.2
				c-0.3-0.3-0.7-0.4-1.1-0.1l-1.5,1.5c-0.3,0.3-0.7,0.3-1,0.1c-1.1-0.7-2.3-1.2-3.6-1.5c-0.4-0.1-0.7-0.4-0.7-0.8v-2.1
				c-0.1-0.4-0.4-0.7-0.8-0.7h-1.7c-0.4,0-0.8,0.3-0.8,0.7v2.1c0,0.4-0.3,0.7-0.7,0.8c-1.3,0.3-2.5,0.8-3.6,1.5
				c-0.3,0.2-0.8,0.2-1-0.1l-1.5-1.5c-0.3-0.2-0.8-0.2-1.1,0.1l-1.2,1.2c-0.2,0.1-0.3,0.4-0.3,0.6c0,0.2,0.1,0.3,0.1,0.5l1.5,1.5
				c0.3,0.3,0.3,0.7,0.1,1c-0.7,1.1-1.2,2.3-1.5,3.6c-0.1,0.4-0.4,0.7-0.8,0.7h-2.1c-0.4,0.1-0.7,0.4-0.7,0.8v1.7
				c0,0.4,0.2,0.8,0.7,0.8h2.1c0.4,0,0.7,0.3,0.8,0.7c0.3,1.3,0.8,2.5,1.5,3.6c0.2,0.3,0.2,0.8-0.1,1.1l-1.5,1.5
				c-0.1,0.1-0.2,0.3-0.2,0.5c0,0.2,0.1,0.4,0.3,0.6h0l1.2,1.2c0.3,0.3,0.7,0.4,1.1,0.1l1.5-1.5c0.3-0.3,0.7-0.3,1-0.1
				c1.1,0.7,2.3,1.2,3.6,1.5c0.4,0.1,0.7,0.4,0.7,0.8v2.1c0.1,0.4,0.4,0.7,0.8,0.7h1.7c0.4,0,0.8-0.2,0.8-0.7v-2.1
				c0-0.4,0.3-0.7,0.7-0.8c1.3-0.3,2.5-0.8,3.6-1.5c0.3-0.2,0.8-0.2,1.1,0.1v0l1.5,1.5c0.3,0.2,0.8,0.2,1.1-0.1h0l1.2-1.2
				c0.3-0.3,0.4-0.7,0.1-1.1l-1.5-1.5c-0.3-0.3-0.3-0.7-0.1-1.1c0.7-1.1,1.2-2.3,1.5-3.6c0.1-0.4,0.4-0.7,0.8-0.7h2.1
				c0.4-0.1,0.7-0.4,0.7-0.8V74.3z"/>
			<path d="M108.2,52.3l-0.9-0.9c0.4-0.7,0.8-1.4,0.9-2.2h1.3c0.5,0,0.9-0.5,0.9-1v-1c0-0.5-0.4-1-0.9-1h-1.3
				c-0.2-0.8-0.5-1.5-0.9-2.2l0.9-0.9c0.2-0.2,0.2-0.4,0.2-0.6c0-0.3-0.1-0.5-0.3-0.7l-0.7-0.7c-0.3-0.4-0.9-0.4-1.3-0.1l-0.9,0.9
				c-0.7-0.4-1.4-0.7-2.2-0.9v-1.3c0-0.5-0.5-0.9-1-0.9h-1c-0.5,0-0.9,0.4-1,0.9V41c-0.8,0.2-1.6,0.5-2.2,0.9L97,41
				c-0.4-0.3-1-0.3-1.3,0.1L95,41.8c-0.2,0.2-0.3,0.4-0.3,0.7c0,0.2,0.1,0.4,0.2,0.6l0.9,0.9c-0.4,0.7-0.8,1.4-0.9,2.2h-1.2
				c-0.5,0-0.9,0.5-0.9,1v1c0,0.5,0.4,0.9,0.9,1h1.2c0.2,0.8,0.5,1.6,0.9,2.2l-0.9,0.9c-0.3,0.4-0.3,1,0.1,1.3l0.7,0.7
				c0.3,0.4,0.9,0.4,1.3,0.1l0.9-0.9c0.7,0.4,1.4,0.8,2.2,0.9v1.2c0,0.5,0.5,0.9,1,0.9h1c0.5,0,0.9-0.4,1-0.9v-1.2
				c0.8-0.2,1.6-0.5,2.2-0.9l0.9,0.9c0.4,0.3,1,0.3,1.3-0.1l0.7-0.7C108.6,53.3,108.6,52.7,108.2,52.3z M112.1,48.2
				c0,1.4-1.1,2.6-2.6,2.7h0c0,0.1-0.1,0.2-0.1,0.2l0,0c1,1.1,0.9,2.7-0.1,3.7l-0.7,0.7c-0.5,0.5-1.2,0.8-1.9,0.8c0,0,0,0,0,0
				c-0.6,0-1.3-0.3-1.7-0.7l0,0c-0.1,0-0.2,0.1-0.2,0.1v0c0,1.4-1.2,2.6-2.7,2.6h-1c-0.7,0-1.3-0.2-1.8-0.7
				c-0.5-0.5-0.9-1.2-0.9-1.9v0c-0.1,0-0.2-0.1-0.2-0.1l0,0c-0.5,0.5-1.1,0.7-1.8,0.7c-0.7,0-1.4-0.3-1.9-0.8l-0.7-0.7
				c-0.5-0.5-0.8-1.1-0.8-1.8c0-0.7,0.2-1.4,0.7-1.9l0,0c0-0.1-0.1-0.2-0.1-0.2h0c-1.4,0-2.6-1.2-2.6-2.7v-1c0,0,0,0,0,0
				c0-1.4,1.1-2.6,2.6-2.6h0c0-0.1,0.1-0.2,0.1-0.2c-0.5-0.5-0.7-1.1-0.7-1.8c0-0.7,0.3-1.4,0.8-1.9l0.7-0.7
				c0.5-0.5,1.2-0.8,1.9-0.8c0.7,0,1.3,0.3,1.8,0.7l0,0c0.1,0,0.2-0.1,0.2-0.1v0c0-1.4,1.2-2.6,2.7-2.6h1c1.4,0,2.6,1.1,2.7,2.6v0
				c0.1,0,0.2,0.1,0.2,0.1l0,0c0.5-0.5,1.1-0.7,1.8-0.7c0.7,0,1.4,0.3,1.9,0.8l0.7,0.7c0.5,0.5,0.8,1.2,0.8,1.9
				c0,0.6-0.2,1.3-0.7,1.8l0,0c0,0.1,0.1,0.2,0.1,0.2h0c1.4,0,2.6,1.2,2.6,2.7V48.2z"/>
			<path class="st0" d="M109.8,73.4c0.4,0.1,0.7,0.4,0.7,0.8v1.7c0,0.4-0.3,0.8-0.7,0.8h-2.1c-0.4,0-0.7,0.3-0.8,0.7
				c-0.3,1.3-0.8,2.5-1.5,3.6c-0.2,0.3-0.2,0.8,0.1,1.1l1.5,1.5c0.2,0.3,0.2,0.8-0.1,1.1l-1.2,1.2h0c-0.3,0.3-0.7,0.4-1.1,0.1
				l-1.5-1.5v0c-0.3-0.3-0.7-0.3-1.1-0.1c-1.1,0.7-2.3,1.2-3.6,1.5c-0.4,0.1-0.7,0.4-0.7,0.8v2.1c-0.1,0.4-0.4,0.7-0.8,0.7h-1.7
				c-0.4,0-0.8-0.3-0.8-0.7v-2.1c0-0.4-0.3-0.7-0.7-0.8c-1.3-0.3-2.5-0.8-3.6-1.5c-0.3-0.2-0.8-0.2-1,0.1l-1.5,1.5
				c-0.3,0.2-0.8,0.2-1.1-0.1l-1.2-1.2h0c-0.2-0.2-0.3-0.4-0.3-0.6c0-0.2,0-0.3,0.2-0.5l1.5-1.5c0.3-0.3,0.3-0.7,0.1-1.1
				c-0.7-1.1-1.2-2.3-1.5-3.6c-0.1-0.4-0.4-0.7-0.8-0.7h-2.1c-0.4-0.1-0.7-0.4-0.7-0.8v-1.7c0-0.4,0.2-0.8,0.7-0.8h2.1
				c0.4,0,0.7-0.3,0.8-0.7c0.3-1.3,0.8-2.5,1.5-3.6c0.2-0.3,0.2-0.8-0.1-1l-1.5-1.5c-0.1-0.1-0.1-0.3-0.1-0.5c0-0.2,0.1-0.4,0.3-0.6
				l1.2-1.2c0.3-0.3,0.7-0.4,1.1-0.1l1.5,1.5c0.3,0.3,0.7,0.3,1,0.1c1.1-0.7,2.3-1.2,3.6-1.5c0.4-0.1,0.7-0.4,0.7-0.8v-2.1
				c0.1-0.4,0.4-0.7,0.8-0.7h1.7c0.4,0,0.8,0.3,0.8,0.7v2.1c0,0.4,0.3,0.7,0.7,0.8c1.3,0.3,2.5,0.8,3.6,1.5c0.3,0.2,0.8,0.2,1-0.1
				l1.5-1.5c0.3-0.2,0.8-0.2,1.1,0.1l1.2,1.2c0.3,0.3,0.4,0.7,0.1,1.1l-1.5,1.5c-0.2,0.2-0.2,0.4-0.2,0.6c0,0.2,0,0.3,0.1,0.5
				c0.7,1.1,1.2,2.3,1.5,3.6c0.1,0.4,0.4,0.7,0.8,0.7H109.8z M98.8,81.7c2.7-1.1,4.4-3.7,4.4-6.6c0-3.9-3.2-7.2-7.2-7.2
				c-2.9,0-5.5,1.7-6.6,4.4C88.4,75,89,78.1,91,80.2C93.1,82.2,96.2,82.8,98.8,81.7z"/>
			<path class="st0" d="M110.4,48.2c0,0.5-0.4,0.9-0.9,1h-1.3c-0.2,0.8-0.5,1.6-0.9,2.2l0.9,0.9c0.3,0.4,0.3,1-0.1,1.3l-0.7,0.7
				c-0.3,0.4-0.9,0.4-1.3,0.1l-0.9-0.9c-0.7,0.4-1.4,0.8-2.2,0.9v1.2c0,0.5-0.5,0.9-1,0.9h-1c-0.5,0-0.9-0.4-1-0.9v-1.2
				c-0.8-0.2-1.6-0.5-2.2-0.9L97,54.4c-0.4,0.3-1,0.3-1.3-0.1L95,53.6c-0.4-0.3-0.4-0.9-0.1-1.3l0.9-0.9c-0.4-0.7-0.8-1.4-0.9-2.2
				h-1.2c-0.5,0-0.9-0.5-0.9-1v-1c0-0.5,0.4-1,0.9-1h1.2c0.2-0.8,0.5-1.5,0.9-2.2l-0.9-0.9c-0.2-0.2-0.2-0.4-0.2-0.6
				c0-0.3,0.1-0.5,0.3-0.7l0.7-0.7c0.3-0.4,0.9-0.4,1.3-0.1l0.9,0.9c0.7-0.4,1.4-0.7,2.2-0.9v-1.3c0-0.5,0.5-0.9,1-0.9h1
				c0.5,0,0.9,0.4,1,0.9V41c0.8,0.2,1.6,0.5,2.2,0.9l0.9-0.9c0.4-0.3,1-0.3,1.3,0.1l0.7,0.7c0.2,0.2,0.3,0.4,0.3,0.7
				c0,0.2-0.1,0.4-0.2,0.6l-0.9,0.9c0.4,0.7,0.8,1.4,0.9,2.2h1.3c0.5,0,0.9,0.5,0.9,1V48.2z M103,51.2c1.4-0.6,2.3-2,2.3-3.5
				c0-2.1-1.7-3.8-3.8-3.8c-1.5,0-2.9,0.9-3.5,2.3c-0.6,1.4-0.3,3,0.8,4.1C100,51.5,101.6,51.8,103,51.2z"/>
			<path d="M105.4,47.7c0,1.5-0.9,2.9-2.3,3.5c-1.4,0.6-3,0.3-4.1-0.8c-1.1-1.1-1.4-2.7-0.8-4.1c0.6-1.4,2-2.3,3.5-2.3
				C103.7,43.9,105.4,45.6,105.4,47.7z M103.1,49.2c0.4-0.4,0.6-0.9,0.6-1.5c0-0.9-0.5-1.6-1.3-1.9c-0.8-0.3-1.7-0.1-2.3,0.5
				c-0.6,0.6-0.8,1.5-0.5,2.3c0.3,0.8,1.1,1.3,1.9,1.3C102.1,49.8,102.7,49.6,103.1,49.2z"/>
			<path d="M103.3,75.1c0,2.9-1.7,5.5-4.4,6.6c-2.7,1.1-5.8,0.5-7.8-1.6c-2-2.1-2.7-5.1-1.6-7.8c1.1-2.7,3.7-4.4,6.6-4.4
				C100.1,67.9,103.3,71.1,103.3,75.1z M101.6,75.1c0-2.2-1.3-4.2-3.4-5.1c-2.1-0.8-4.4-0.4-6,1.2s-2,3.9-1.2,6
				c0.8,2,2.8,3.4,5.1,3.4C99.1,80.6,101.6,78.1,101.6,75.1z"/>
			<path d="M80.3,43.3c0.9,2.6,0.9,5.4-0.2,8c-1,2.5-3,4.6-5.5,5.8v18.9c1.9,1.4,3.1,3.6,3.3,5.9c0.2,2.4-0.6,4.7-2.2,6.5
				c-1.6,1.8-3.9,2.8-6.2,2.8c-2.4,0-4.6-1-6.2-2.8c-1.6-1.8-2.4-4.1-2.1-6.5c0.2-2.4,1.4-4.5,3.3-5.9V57.1
				c-2.5-1.2-4.4-3.2-5.5-5.8c-1-2.6-1.1-5.4-0.2-8c0.9-2.6,2.8-4.7,5.2-6c0.3-0.1,0.6-0.1,0.8,0c0.3,0.2,0.4,0.4,0.4,0.7v9.4h8.4
				V38c0-0.3,0.2-0.6,0.4-0.7c0.3-0.1,0.6-0.2,0.8,0C77.5,38.6,79.3,40.7,80.3,43.3z M78.2,51.4c1-2,1.3-4.3,0.8-6.4
				c-0.5-2.2-1.8-4.1-3.5-5.4v8.8c0,0.5-0.4,0.8-0.8,0.8H64.5c-0.5,0-0.8-0.4-0.8-0.8v-8.8c-1.8,1.3-3,3.2-3.5,5.4
				c-0.5,2.2-0.2,4.4,0.8,6.4c1,2,2.7,3.5,4.8,4.4c0.3,0.1,0.5,0.4,0.5,0.8v19.8c0,0.3-0.1,0.5-0.4,0.7c-2.5,1.6-3.6,4.7-2.7,7.6
				c0.9,2.8,3.5,4.8,6.4,4.8c3,0,5.6-1.9,6.4-4.8c0.9-2.8-0.2-5.9-2.7-7.6c-0.2-0.2-0.4-0.4-0.4-0.7V56.5c0-0.3,0.2-0.6,0.5-0.8
				C75.5,54.9,77.2,53.4,78.2,51.4z"/>
			<path class="st0" d="M79,45c0.5,2.2,0.2,4.4-0.8,6.4c-1,2-2.7,3.5-4.8,4.4c-0.3,0.1-0.5,0.4-0.5,0.8v19.8c0,0.3,0.1,0.5,0.4,0.7
				c2.5,1.6,3.6,4.7,2.7,7.6c-0.9,2.8-3.5,4.8-6.4,4.8c-3,0-5.6-1.9-6.4-4.8c-0.9-2.8,0.2-5.9,2.7-7.6c0.2-0.2,0.4-0.4,0.4-0.7V56.5
				c0-0.3-0.2-0.6-0.5-0.8c-2.1-0.9-3.7-2.4-4.8-4.4c-1-2-1.3-4.3-0.8-6.4c0.5-2.2,1.8-4.1,3.5-5.4v8.8c0,0.5,0.4,0.8,0.8,0.8h10.1
				c0.5,0,0.8-0.4,0.8-0.8v-8.8C77.2,40.9,78.5,42.8,79,45z M71,86.2c1.4-0.6,2.3-2,2.3-3.5c0-2.1-1.7-3.8-3.8-3.8
				c-1.5,0-2.9,0.9-3.5,2.3c-0.6,1.4-0.3,3,0.8,4.1S69.6,86.8,71,86.2z M70.4,75.9V56.6c0-0.5-0.4-0.8-0.8-0.8
				c-0.5,0-0.8,0.4-0.8,0.8v19.4c0,0.5,0.4,0.8,0.8,0.8C70,76.8,70.4,76.4,70.4,75.9z"/>
			<path d="M73.4,82.7c0,1.5-0.9,2.9-2.3,3.5c-1.4,0.6-3,0.3-4.1-0.8s-1.4-2.7-0.8-4.1c0.6-1.4,2-2.3,3.5-2.3
				C71.7,78.9,73.4,80.6,73.4,82.7z M69.6,84.8c1.2,0,2.1-0.9,2.1-2.1c0-0.9-0.5-1.6-1.3-1.9s-1.7-0.1-2.3,0.5
				c-0.6,0.6-0.8,1.5-0.5,2.3C67.9,84.3,68.7,84.8,69.6,84.8z"/>
			<path class="st0" d="M71.7,82.7c0,1.2-0.9,2.1-2.1,2.1c-0.9,0-1.6-0.5-1.9-1.3c-0.3-0.8-0.1-1.7,0.5-2.3c0.6-0.6,1.5-0.8,2.3-0.5
				S71.7,81.8,71.7,82.7z"/>
			<path d="M70.4,56.6v19.4c0,0.5-0.4,0.8-0.8,0.8c-0.5,0-0.8-0.4-0.8-0.8V56.6c0-0.5,0.4-0.8,0.8-0.8C70,55.7,70.4,56.1,70.4,56.6z
				"/>
		</g>
	</g>
</g>
</svg>
