<?xml version="1.0" encoding="UTF-8"?>
<svg width="1200pt" height="1200pt" version="1.1" viewBox="0 0 1200 1200" xmlns="http://www.w3.org/2000/svg">
 <g>
  <path d="m312 348h168v504h-96v72h264v-72h-96v-504h168v72h72v-108c0-9.5469-3.793-18.703-10.543-25.457-6.7539-6.75-15.91-10.543-25.457-10.543h-480c-9.5469 0-18.703 3.793-25.457 10.543-6.75 6.7539-10.543 15.91-10.543 25.457v108h72z"/>
  <path d="m780 528v96h-96v72h96v120c0 28.645 11.379 56.113 31.633 76.367 20.254 20.254 47.723 31.633 76.367 31.633h72v-72h-72c-9.5469 0-18.703-3.793-25.457-10.543-6.75-6.7539-10.543-15.91-10.543-25.457v-120h96v-72h-96v-96z"/>
 </g>
</svg>
