<?xml version="1.0" encoding="utf-8"?>
<!-- Generator: Adobe Illustrator 26.3.1, SVG Export Plug-In . SVG Version: 6.00 Build 0)  -->
<svg version="1.1" id="Layer_1" xmlns="http://www.w3.org/2000/svg" xmlns:xlink="http://www.w3.org/1999/xlink" x="0px" y="0px"
	 viewBox="0 0 133 133" style="enable-background:new 0 0 133 133;" xml:space="preserve">
<style type="text/css">
	.st0{fill:#FFFFFF;}
</style>
<g>
	<g id="XMLID_00000059287910763133766980000004452583967038264705_">
		<g>
			<path class="st0" d="M98.4,33.7v10.7h-7.1V33.7c0-2,1.6-3.6,3.5-3.6C96.8,30.1,98.4,31.7,98.4,33.7z"/>
			<path class="st0" d="M105.5,49.7v7.1c0,0.5-0.2,0.9-0.5,1.3c-0.3,0.3-0.8,0.5-1.2,0.5h-3.6H89.5H86c-0.5,0-0.9-0.2-1.2-0.5
				c-0.3-0.3-0.5-0.8-0.5-1.3v-7.1c0-1,0.8-1.8,1.8-1.8h3.5h10.6h3.6c0.5,0,0.9,0.2,1.2,0.5C105.3,48.8,105.5,49.2,105.5,49.7z"/>
			<path class="st0" d="M98.4,62.2v42.7c0,2-1.6,3.6-3.5,3.6c-2,0-3.5-1.6-3.5-3.6V62.2H98.4z"/>
			<path class="st0" d="M70,97.8v7.1c0,2-1.6,3.6-3.5,3.6s-3.5-1.6-3.5-3.6v-7.1H70z"/>
			<path class="st0" d="M77.1,85.3v7.1c0,0.5-0.2,0.9-0.5,1.3c-0.3,0.3-0.8,0.5-1.2,0.5h-3.6H61.2h-3.5c-0.5,0-0.9-0.2-1.2-0.5
				c-0.3-0.3-0.5-0.8-0.5-1.3v-7.1c0-1,0.8-1.8,1.8-1.8l0,0h3.5c0,0,0,0,0.1,0s0.1,0,0.1,0l10.5,0h0h3.5c0.5,0,0.9,0.2,1.2,0.5
				C76.9,84.4,77.1,84.8,77.1,85.3z"/>
			<path class="st0" d="M70,33.7V80H63V33.7c0-2,1.6-3.6,3.5-3.6S70,31.7,70,33.7z"/>
			<path class="st0" d="M41.7,33.7v10.7h-7.1V33.7c0-2,1.6-3.6,3.5-3.6C40.1,30.1,41.7,31.7,41.7,33.7z"/>
			<path class="st0" d="M41.7,62.2v42.7c0,2-1.6,3.6-3.5,3.6c-2,0-3.5-1.6-3.5-3.6V62.2H41.7z"/>
			<path class="st0" d="M48.8,49.7v7.1c0,0.5-0.2,0.9-0.5,1.3c-0.3,0.3-0.8,0.5-1.2,0.5h-3.5H32.9h-3.6c-0.5,0-0.9-0.2-1.2-0.5
				c-0.3-0.3-0.5-0.8-0.5-1.3v-7.1c0-1,0.8-1.8,1.8-1.8h3.6h10.6H47c0.5,0,0.9,0.2,1.2,0.5C48.6,48.8,48.8,49.2,48.8,49.7z"/>
			<path d="M101.9,60.4c0-1-0.8-1.8-1.8-1.8h3.6c0.5,0,0.9-0.2,1.2-0.5c0.3-0.3,0.5-0.8,0.5-1.3v-7.1c0-0.5-0.2-0.9-0.5-1.2
				c-0.3-0.3-0.8-0.5-1.2-0.5h-3.6c0.5,0,0.9-0.2,1.3-0.5c0.3-0.3,0.5-0.8,0.5-1.3v-1.8h1.8c2.9,0,5.3,2.4,5.3,5.3v7.1
				c0,2.9-2.4,5.3-5.3,5.3h-1.8V60.4z"/>
			<path d="M101.9,62.2v42.7c0,1.9-0.8,3.7-2.1,5c-1.3,1.3-3.1,2.1-5,2.1c-3.9,0-7.1-3.2-7.1-7.1V62.2h3.5v42.7c0,2,1.6,3.6,3.5,3.6
				c2,0,3.5-1.6,3.5-3.6V62.2H101.9z"/>
			<path d="M101.9,60.4v1.8h-3.5v-1.8c0-1,0.8-1.8,1.8-1.8C101.1,58.6,101.9,59.4,101.9,60.4z"/>
			<path d="M101.9,44.4v1.8c0,0.5-0.2,0.9-0.5,1.3c-0.3,0.3-0.8,0.5-1.3,0.5c-1,0-1.8-0.8-1.8-1.8v-1.8H101.9z"/>
			<path d="M101.9,33.7v10.7h-3.5V33.7c0-2-1.6-3.6-3.5-3.6c-2,0-3.5,1.6-3.5,3.6v10.7h-3.5V33.7c0-3.9,3.2-7.1,7.1-7.1
				C98.8,26.6,101.9,29.8,101.9,33.7z"/>
			<path d="M100.1,47.9H89.5c1,0,1.8-0.8,1.8-1.8v-1.8h7.1v1.8C98.4,47.1,99.2,47.9,100.1,47.9z"/>
			<path d="M89.5,58.6h10.6c-1,0-1.8,0.8-1.8,1.8v1.8h-7.1v-1.8C91.3,59.4,90.5,58.6,89.5,58.6z"/>
			<path d="M91.3,60.4v1.8h-3.5v-1.8c0-1,0.8-1.8,1.8-1.8C90.5,58.6,91.3,59.4,91.3,60.4z"/>
			<path d="M91.3,44.4v1.8c0,1-0.8,1.8-1.8,1.8c-1,0-1.8-0.8-1.8-1.8v-1.8H91.3z"/>
			<path d="M89.5,47.9H86c-1,0-1.8,0.8-1.8,1.8v7.1c0,0.5,0.2,0.9,0.5,1.3c0.3,0.3,0.8,0.5,1.2,0.5h3.5c-1,0-1.8,0.8-1.8,1.8v1.8H86
				c-2.9,0-5.3-2.4-5.3-5.3v-7.1c0-2.9,2.4-5.3,5.3-5.3h1.8v1.8C87.8,47.1,88.5,47.9,89.5,47.9z"/>
			<path d="M73.6,96c0-1-0.8-1.8-1.8-1.8h3.6c0.5,0,0.9-0.2,1.2-0.5c0.3-0.3,0.5-0.8,0.5-1.3v-7.1c0-0.5-0.2-0.9-0.5-1.3
				c-0.3-0.3-0.8-0.5-1.2-0.5h-3.5c0.5,0,0.9-0.2,1.2-0.5c0.3-0.3,0.5-0.8,0.5-1.2V80h1.8c2.9,0,5.3,2.4,5.3,5.3v7.1
				c0,3-2.4,5.3-5.3,5.3h-1.8V96z"/>
			<path d="M73.6,97.8v7.1c0,1.9-0.7,3.7-2.1,5c-1.3,1.3-3.1,2.1-5,2.1c-3.9,0-7.1-3.2-7.1-7.1v-7.1H63v7.1c0,2,1.6,3.6,3.5,3.6
				s3.5-1.6,3.5-3.6v-7.1H73.6z"/>
			<path d="M73.6,96v1.8H70V96c0-1,0.8-1.8,1.8-1.8C72.8,94.2,73.6,95,73.6,96z"/>
			<path d="M73.6,80v1.8c0,0.5-0.2,0.9-0.5,1.2c-0.3,0.3-0.8,0.5-1.2,0.5h0c-1,0-1.8-0.8-1.8-1.8V80H73.6z"/>
			<path d="M73.6,33.7V80H70V33.7c0-2-1.6-3.6-3.5-3.6S63,31.7,63,33.7V80h-3.5V33.7c0-3.9,3.2-7.1,7.1-7.1S73.6,29.8,73.6,33.7z"/>
			<path d="M61.2,94.2h10.6c-1,0-1.8,0.8-1.8,1.8v1.8H63V96C63,95,62.2,94.2,61.2,94.2z"/>
			<path d="M71.8,83.5l-10.5,0c1,0,1.7-0.8,1.7-1.8V80H70v1.8C70,82.7,70.8,83.5,71.8,83.5z"/>
			<path d="M63,96v1.8h-3.5V96c0-1,0.8-1.8,1.8-1.8S63,95,63,96z"/>
			<path d="M63,80v1.8c0,1-0.8,1.7-1.7,1.8h-0.1c-1,0-1.7-0.8-1.7-1.8V80H63z"/>
			<path d="M61.3,83.5C61.2,83.5,61.2,83.5,61.3,83.5c-0.1,0-0.1,0-0.1,0H61.3z"/>
			<path d="M57.6,94.2h3.5c-1,0-1.8,0.8-1.8,1.8v1.8h-1.8c-2.9,0-5.3-2.4-5.3-5.3v-7.1c0-2.9,2.4-5.3,5.3-5.3h1.8v1.8
				c0,1,0.8,1.7,1.7,1.8h-3.5l0,0c-1,0-1.8,0.8-1.8,1.8v7.1c0,0.5,0.2,0.9,0.5,1.3C56.7,94,57.2,94.2,57.6,94.2z"/>
			<path d="M45.2,60.4c0-1-0.8-1.8-1.8-1.8H47c0.5,0,0.9-0.2,1.2-0.5c0.3-0.3,0.5-0.8,0.5-1.3v-7.1c0-0.5-0.2-0.9-0.5-1.2
				c-0.3-0.3-0.8-0.5-1.2-0.5h-3.5c0.5,0,0.9-0.2,1.2-0.5c0.3-0.3,0.5-0.8,0.5-1.3v-1.8H47c2.9,0,5.3,2.4,5.3,5.3v7.1
				c0,2.9-2.4,5.3-5.3,5.3h-1.8V60.4z"/>
			<path d="M45.2,62.2v42.7c0,1.9-0.8,3.7-2.1,5c-1.3,1.3-3.1,2.1-5,2.1c-3.9,0-7.1-3.2-7.1-7.1V62.2h3.5v42.7c0,2,1.6,3.6,3.5,3.6
				c2,0,3.5-1.6,3.5-3.6V62.2H45.2z"/>
			<path d="M45.2,60.4v1.8h-3.5v-1.8c0-1,0.8-1.8,1.8-1.8S45.2,59.4,45.2,60.4z"/>
			<path d="M45.2,44.4v1.8c0,0.5-0.2,0.9-0.5,1.3c-0.3,0.3-0.8,0.5-1.2,0.5c-1,0-1.8-0.8-1.8-1.8v-1.8H45.2z"/>
			<path d="M45.2,33.7v10.7h-3.5V33.7c0-2-1.6-3.6-3.5-3.6c-2,0-3.5,1.6-3.5,3.6v10.7h-3.5V33.7c0-3.9,3.2-7.1,7.1-7.1
				C42.1,26.6,45.2,29.8,45.2,33.7z"/>
			<path d="M43.5,47.9H32.9c1,0,1.8-0.8,1.8-1.8v-1.8h7.1v1.8C41.7,47.1,42.5,47.9,43.5,47.9z"/>
			<path d="M32.9,58.6h10.6c-1,0-1.8,0.8-1.8,1.8v1.8h-7.1v-1.8C34.6,59.4,33.8,58.6,32.9,58.6z"/>
			<path d="M34.6,60.4v1.8h-3.5v-1.8c0-1,0.8-1.8,1.8-1.8C33.8,58.6,34.6,59.4,34.6,60.4z"/>
			<path d="M34.6,44.4v1.8c0,1-0.8,1.8-1.8,1.8c-1,0-1.8-0.8-1.8-1.8v-1.8H34.6z"/>
			<path d="M32.9,47.9h-3.6c-1,0-1.8,0.8-1.8,1.8v7.1c0,0.5,0.2,0.9,0.5,1.3c0.3,0.3,0.8,0.5,1.2,0.5h3.6c-1,0-1.8,0.8-1.8,1.8v1.8
				h-1.8c-2.9,0-5.3-2.4-5.3-5.3v-7.1c0-2.9,2.4-5.3,5.3-5.3h1.8v1.8C31.1,47.1,31.9,47.9,32.9,47.9z"/>
		</g>
	</g>
</g>
</svg>
