<?xml version="1.0" encoding="utf-8"?>
<!-- Generator: Adobe Illustrator 26.3.1, SVG Export Plug-In . SVG Version: 6.00 Build 0)  -->
<svg version="1.1" id="Layer_1" xmlns="http://www.w3.org/2000/svg" xmlns:xlink="http://www.w3.org/1999/xlink" x="0px" y="0px"
	 viewBox="0 0 133 133" style="enable-background:new 0 0 133 133;" xml:space="preserve">
<style type="text/css">
	.st0{fill:#8123DE;}
	.st1{fill:#FFFFFF;}
</style>
<g id="Layer_1_00000044873295794470796150000000278353769518299554_">
	<g id="Layer_1_00000130640081086220838410000011721614330154684315_">
		<g id="Layer_2_00000080909792367530824080000017432296311554303617_">
			<path class="st0" d="M121,133H12c-6.6,0-12-5.4-12-12V12C0,5.4,5.4,0,12,0h109c6.6,0,12,5.4,12,12v109
				C133,127.6,127.6,133,121,133z"/>
			<path class="st0" d="M121,133H12c-6.6,0-12-5.4-12-12V12C0,5.4,5.4,0,12,0h109c6.6,0,12,5.4,12,12v109
				C133,127.6,127.6,133,121,133z"/>
		</g>
	</g>
</g>
<g id="Layer_2_00000170979145909033208260000011020591678184695463_">
</g>
<g id="Layer_3">
</g>
<g id="Layer_4">
</g>
<g id="Layer_6">
</g>
<g id="Layer_7">
</g>
<g id="Layer_8">
</g>
<g id="Layer_9">
</g>
<g id="Layer_9_00000044856210314014468320000001293235840354854825_">
	<g>
		<g id="XMLID_00000171702823582177244490000004708298057077536935_">
			<g>
				<path d="M82.3,38.4c0.1,0.4,0.1,0.9-0.1,1.3c-0.2,0.3-0.4,0.6-0.8,0.7c-0.5,0.1-2-0.8-3.7-3.3C80.4,37,82.1,37.7,82.3,38.4z"/>
				<path d="M71.1,43.4c2.4,1.3,3.5,2.8,3.4,3.4c-0.1,0.4-0.3,0.8-0.6,1.1C73.6,48,73.4,48,73.1,48c-0.1,0-0.1,0-0.3,0
					C72.4,48,71.6,46.5,71.1,43.4z"/>
				<path d="M62.4,46.9c1.6,2.3,2.1,4.1,1.8,4.7c-0.3,0.4-0.6,0.6-1,0.7c-0.3,0.1-0.7-0.1-0.9-0.3C61.8,51.6,61.6,49.8,62.4,46.9z"
					/>
				<path d="M53.3,45.3c0.5,2.8,0.1,4.7-0.4,5c-0.4,0.2-0.8,0.3-1.2,0.1c-0.3-0.1-0.6-0.4-0.8-0.7l0,0
					C50.7,49.2,51.2,47.5,53.3,45.3z"/>
				<path d="M46.5,38.8c-0.7,2.8-1.7,4.3-2.4,4.4c-0.4,0-0.8-0.1-1.1-0.4c-0.3-0.3-0.4-0.6-0.4-0.9l0,0
					C42.6,41.2,43.7,39.9,46.5,38.8z"/>
				<path d="M66.3,35.5c-0.3,0.1-0.6,0.2-1,0.1l0,0c-0.5-0.1-1.3-1.8-1.3-4.9l0,0c2.2,1.6,3.2,3.2,3.1,3.8
					C67,34.9,66.7,35.3,66.3,35.5z"/>
				<path d="M85.9,27.6c0.2,0.4,0.3,0.8,0.3,1.3c-0.1,0.3-0.3,0.6-0.6,0.8c-0.4,0.3-2-0.1-4.3-2C83.8,26.8,85.5,27,85.9,27.6z"/>
				<path d="M85.4,17.5c0.1,0.4,0.1,0.8-0.1,1.1c-0.2,0.5-1.8,1.1-4.7,0.8c1.8-2.1,3.4-3,4-2.7C85,16.8,85.2,17.1,85.4,17.5z"/>
				<path d="M74,25.3c0.2,0.4,0.3,0.8,0.2,1.3c-0.1,0.3-0.3,0.6-0.6,0.8c-0.4,0.3-2-0.1-4.3-2.2l0,0C71.9,24.4,73.7,24.7,74,25.3z"
					/>
				<path d="M56.7,32.2c0.6,2.8,0.3,4.7-0.3,5c-0.4,0.2-0.8,0.3-1.2,0.1c-0.3-0.1-0.6-0.4-0.8-0.7C54.2,36.2,54.8,34.4,56.7,32.2z"
					/>
				<path class="st1" d="M50.9,60.3c-8.3-3-15.2-9.3-19.2-17.7l1.3-0.8c2.6,5.5,6.5,10.2,11.4,13.5c5,3.5,11,5.3,16.9,5.3
					c4.9,0,9.7-1.3,14-3.7C83,52.5,88.6,45,90.8,36c2.3-8.9,1.1-18.5-3.1-26.6L89,8.6c4.5,8.4,5.7,18.4,3.3,27.8
					c-2.3,9.4-8.2,17.3-16.1,21.8C68.3,62.5,59.2,63.3,50.9,60.3z"/>
				<path class="st1" d="M87.2,17c-0.3-0.9-0.9-1.7-1.8-2.1l0,0c-2.1-1.1-5.1,1.7-7.1,4.7c-0.2,0.3-0.3,0.6-0.1,0.9
					c0.1,0.3,0.4,0.6,0.7,0.6c1.1,0.3,2.3,0.4,3.5,0.4c2.1,0,4-0.6,4.7-2C87.3,18.7,87.4,17.8,87.2,17z M84,37.8
					c-0.8-2.5-4.6-2.9-8-2.5c-0.3,0-0.6,0.3-0.7,0.6s-0.1,0.6,0,0.9c1.6,2.8,4,5.5,6,5.5c0.3,0,0.5,0,0.8-0.1
					c0.8-0.3,1.4-0.8,1.8-1.6C84.2,39.7,84.3,38.7,84,37.8L84,37.8z M67.2,23.9c-0.3,0.1-0.5,0.4-0.6,0.7c0,0.1,0,0.1,0,0.2
					c0,0.3,0.1,0.5,0.3,0.7c2,2.1,4.5,3.9,6.4,3.9c0.4,0,0.9-0.1,1.3-0.4c0.7-0.4,1.1-1.2,1.4-2c0.3-0.9,0.1-2-0.4-2.8
					C74.3,22,70.4,22.6,67.2,23.9z M34.7,41l51.5-30.5c4,7.6,5,16.5,2.9,24.9s-7.4,15.5-14.5,19.7c-7,3.8-15.2,4.5-22.7,1.8
					C44.5,54.2,38.3,48.5,34.7,41z M57.5,29.3c-0.3-0.1-0.6,0-0.8,0.3c-2.5,2.5-4.7,6-3.7,8.1c0.4,0.7,1,1.3,1.7,1.6
					c0.3,0.1,0.6,0.2,0.9,0.2c0.6,0,1.2-0.2,1.8-0.5c2-1.3,1.7-5.5,0.7-8.9C58,29.7,57.8,29.4,57.5,29.3z M87.9,29.3
					c0.2-1,0-2-0.5-2.8l0,0c-1.3-2.1-5.2-1.4-8.3,0c-0.3,0.1-0.5,0.4-0.6,0.8c-0.1,0.3,0.1,0.7,0.3,0.9l0,0c2,2,4.5,3.7,6.4,3.7
					c0.5,0,1-0.1,1.4-0.4C87.2,30.8,87.7,30.1,87.9,29.3z M76.3,47.2c0.4-2.5-2.8-4.9-5.9-6.3c-0.3-0.1-0.6-0.1-0.9,0.1
					c-0.3,0.2-0.4,0.5-0.4,0.9c0.2,3.7,1.2,7.7,3.5,8.2c0.2,0.1,0.4,0.1,0.6,0.1c0.6,0,1.2-0.2,1.7-0.5C75.7,49,76.2,48.1,76.3,47.2
					L76.3,47.2z M68.8,35c0.6-2.5-2.3-5.2-5.2-7c-0.3-0.2-0.6-0.1-0.9,0c-0.3,0.2-0.4,0.5-0.4,0.8c-0.2,3.7,0.4,7.9,2.6,8.6
					c0.3,0.1,0.6,0.1,0.9,0.1c0.5,0,0.9-0.1,1.4-0.4C67.9,36.7,68.5,36,68.8,35z M65.7,52.6c1.3-2.1-0.6-5.7-3-8.4
					c-0.2-0.3-0.5-0.4-0.8-0.3c-0.3,0.1-0.6,0.3-0.7,0.6c-1.2,3.5-1.8,7.6,0,9c0.6,0.4,1.2,0.6,1.8,0.6h0.4
					C64.3,54,65.1,53.5,65.7,52.6L65.7,52.6z M53.8,52c2.1-1.2,1.9-5.4,0.9-8.9c-0.1-0.3-0.3-0.6-0.6-0.7s-0.6,0-0.9,0.2
					c-2.6,2.5-4.9,5.9-3.8,8c0.4,0.8,1,1.3,1.7,1.6c0.3,0.1,0.7,0.2,1.1,0.2C52.7,52.4,53.3,52.3,53.8,52L53.8,52z M48.6,37.5
					c0.1-0.3-0.1-0.7-0.3-0.9s-0.4-0.3-0.6-0.3c-0.1,0-0.2,0-0.3,0.1c-3.3,1.1-6.7,3-6.6,5.5c0.1,0.9,0.4,1.6,0.9,2.3
					c0.6,0.6,1.4,1,2.3,1h0.2C46.6,45,48,41.1,48.6,37.5z"/>
				<path d="M87.4,26.5c0.5,0.8,0.7,1.8,0.5,2.8c-0.2,0.8-0.7,1.6-1.3,2c-0.4,0.3-0.9,0.4-1.4,0.4c-1.9,0-4.4-1.8-6.4-3.7l0,0
					c-0.3-0.3-0.3-0.6-0.3-0.9c0.1-0.3,0.3-0.6,0.6-0.8C82.1,25.1,86,24.4,87.4,26.5L87.4,26.5z M81.2,27.7c2.3,2,4,2.3,4.3,2
					c0.3-0.2,0.4-0.5,0.6-0.8c0.1-0.4,0-0.9-0.3-1.3C85.5,27,83.8,26.8,81.2,27.7z"/>
				<path d="M85.3,18.6c0.1-0.3,0.2-0.7,0.1-1.1s-0.4-0.8-0.8-0.9c-0.6-0.3-2.2,0.6-4,2.7C83.6,19.7,85.2,19.1,85.3,18.6z M87.2,17
					c0.3,0.8,0.2,1.7-0.1,2.5c-0.6,1.4-2.5,2-4.7,2c-1.2,0-2.4-0.1-3.5-0.4c-0.3-0.1-0.6-0.3-0.7-0.6c-0.1-0.3-0.1-0.7,0.1-0.9
					c2-3,5-5.7,7.1-4.7l0,0C86.2,15.2,86.9,16,87.2,17z"/>
				<path d="M84,37.8c0.3,0.9,0.2,2-0.3,2.9c-0.4,0.8-1,1.3-1.8,1.6c-0.3,0.1-0.5,0.1-0.8,0.1c-2,0-4.3-2.8-6-5.5
					c-0.1-0.3-0.1-0.6,0-0.9s0.4-0.5,0.7-0.6C79.4,34.9,83.3,35.3,84,37.8L84,37.8z M82.1,39.7c0.2-0.4,0.2-0.8,0.1-1.3
					c-0.2-0.7-1.8-1.4-4.5-1.3c1.8,2.5,3.2,3.3,3.7,3.2C81.7,40.2,82,40,82.1,39.7z"/>
				<path d="M73.6,27.4c0.3-0.2,0.5-0.5,0.6-0.8c0.1-0.4,0-0.9-0.2-1.3c-0.3-0.6-2.1-0.8-4.7-0.1l0,0C71.6,27.3,73.2,27.7,73.6,27.4
					z M76,27.1c-0.2,0.8-0.7,1.5-1.4,2c-0.4,0.3-0.8,0.4-1.3,0.4c-1.9,0-4.4-1.9-6.4-3.9c-0.2-0.2-0.3-0.4-0.3-0.7
					c0-0.1,0-0.1,0-0.2c0.1-0.3,0.3-0.6,0.6-0.7c3.2-1.3,7-1.8,8.3,0.4C76,25.1,76.2,26.1,76,27.1z"/>
				<path d="M72.6,50c-2.3-0.4-3.3-4.5-3.5-8.2c0-0.3,0.1-0.7,0.4-0.9s0.6-0.3,0.9-0.1c3.1,1.4,6.4,3.8,5.9,6.3l0,0
					c-0.2,1-0.7,1.9-1.4,2.4c-0.5,0.3-1.1,0.5-1.7,0.5C73,50.1,72.8,50.1,72.6,50z M71.1,43.4c0.4,3.1,1.3,4.6,1.8,4.7
					c0.1,0,0.1,0,0.3,0c0.3,0,0.5-0.1,0.8-0.2c0.3-0.3,0.5-0.6,0.6-1.1C74.6,46.2,73.5,44.7,71.1,43.4
					C71.1,43.3,71.1,43.3,71.1,43.4L71.1,43.4C71.1,43.3,71.1,43.4,71.1,43.4z"/>
				<path d="M66.3,35.5c0.4-0.2,0.6-0.6,0.8-1c0.1-0.6-0.8-2.2-3.1-3.8l0,0c0.1,3.1,0.8,4.8,1.3,4.9l0,0
					C65.6,35.6,66,35.6,66.3,35.5z M64.8,37.4c-2.1-0.7-2.8-4.9-2.6-8.6c0-0.3,0.2-0.6,0.4-0.8c0.2-0.2,0.6-0.2,0.9,0
					c3,1.8,5.9,4.5,5.2,7c-0.3,0.9-0.9,1.8-1.7,2.2c-0.4,0.3-0.9,0.4-1.4,0.4C65.4,37.6,65.1,37.5,64.8,37.4z"/>
				<path d="M62.4,46.9c-0.8,2.9-0.6,4.7-0.2,5.1c0.3,0.2,0.6,0.3,0.9,0.3c0.4-0.1,0.8-0.3,1-0.7C64.6,51,64.1,49.2,62.4,46.9
					C62.4,46.8,62.4,46.8,62.4,46.9L62.4,46.9C62.4,46.8,62.4,46.8,62.4,46.9z M62.8,44.3c2.3,2.7,4.3,6.3,3,8.4l0,0
					c-0.5,0.8-1.3,1.4-2.3,1.5h-0.4c-0.6,0-1.3-0.2-1.8-0.6c-1.8-1.4-1.2-5.6,0-9c0.1-0.3,0.4-0.6,0.7-0.6
					C62.3,43.9,62.6,44,62.8,44.3z"/>
				<path d="M56.5,37.2c0.5-0.3,0.8-2.2,0.3-5c-2,2.3-2.5,4-2.2,4.5c0.2,0.3,0.4,0.6,0.8,0.7C55.7,37.5,56.1,37.5,56.5,37.2z
					 M53,37.7c-1.1-2.1,1.1-5.6,3.7-8.1c0.3-0.3,0.6-0.3,0.8-0.3c0.3,0.1,0.6,0.3,0.6,0.6c1,3.5,1.4,7.7-0.7,8.9
					c-0.6,0.3-1.1,0.5-1.8,0.5c-0.3,0-0.6-0.1-0.9-0.2C54,39,53.4,38.4,53,37.7z"/>
				<path d="M52.9,50.3c0.5-0.3,0.9-2.2,0.4-5c-2,2.3-2.5,4-2.3,4.5l0,0c0.2,0.3,0.4,0.6,0.8,0.7C52.1,50.5,52.6,50.5,52.9,50.3z
					 M53.8,52c-0.5,0.3-1.1,0.4-1.6,0.4c-0.4,0-0.7-0.1-1.1-0.2c-0.8-0.3-1.3-0.9-1.7-1.6c-1.1-2.1,1.3-5.5,3.8-8
					c0.3-0.2,0.6-0.3,0.9-0.2c0.3,0.1,0.5,0.4,0.6,0.7C55.6,46.6,55.8,50.8,53.8,52L53.8,52z"/>
				<path d="M44.1,43.2c0.6-0.1,1.7-1.6,2.4-4.4c-2.8,1.1-3.9,2.5-3.9,3l0,0c0,0.4,0.2,0.7,0.4,0.9C43.3,43,43.7,43.2,44.1,43.2z
					 M48.6,37.5c-0.6,3.6-2,7.6-4.3,7.7h-0.2c-0.9,0-1.7-0.4-2.3-1s-0.9-1.4-0.9-2.3c-0.1-2.5,3.3-4.4,6.6-5.5
					c0.1,0,0.2-0.1,0.3-0.1c0.2,0,0.4,0.1,0.6,0.3C48.5,36.8,48.7,37.2,48.6,37.5z"/>
				<path d="M34.7,41c3.6,7.6,9.8,13.2,17.2,15.9c7.5,2.7,15.6,2.1,22.7-1.8C81.7,51,87,43.9,89.1,35.4c2.1-8.4,1.1-17.3-2.9-24.9
					L34.7,41z M44.4,55.2c-4.8-3.3-8.8-7.9-11.4-13.5L87.7,9.4c4.3,8,5.5,17.6,3.1,26.6c-2.3,8.9-7.8,16.6-15.4,20.9
					c-4.3,2.4-9.1,3.7-14,3.7C55.4,60.4,49.5,58.6,44.4,55.2z"/>
				<path d="M87.7,9.4L33,41.7c-0.1-0.3-0.3-0.4-0.3-0.7c-0.2-0.5-0.1-1.1,0.4-1.3l53-31.3c0.4-0.3,0.9-0.1,1.2,0.3
					C87.4,9,87.6,9.1,87.7,9.4z"/>
				<path d="M32.7,41c0.1,0.3,0.2,0.5,0.3,0.7l-1.3,0.8c4,8.4,10.9,14.8,19.2,17.7c8.3,3,17.4,2.3,25.2-2
					c7.9-4.5,13.8-12.5,16.1-21.8C94.6,27,93.4,17,88.9,8.6l-1.3,0.8c-0.1-0.3-0.2-0.4-0.4-0.7c-0.3-0.4-0.8-0.6-1.2-0.3L33.1,39.7
					C32.7,40,32.5,40.6,32.7,41z M29.3,41.7L89.6,6L90,6.8c3.4,6,5.2,13,5.2,19.9c0,3.4-0.4,6.9-1.3,10.2
					c-2.5,9.9-8.7,18.3-17.1,23.1c-4.8,2.6-10.1,4-15.5,4c-6.6,0-13.1-2-18.8-5.9c-5.6-3.8-10.1-9.3-13-15.7L29.3,41.7z"/>
			</g>
		</g>
	</g>
</g>
</svg>
