<?xml version="1.0" encoding="utf-8"?>
<!-- Generator: Adobe Illustrator 27.1.1, SVG Export Plug-In . SVG Version: 6.00 Build 0)  -->
<svg version="1.1" id="Layer_1" xmlns="http://www.w3.org/2000/svg" xmlns:xlink="http://www.w3.org/1999/xlink" x="0px" y="0px"
	 viewBox="0 0 133 133" style="enable-background:new 0 0 133 133;" xml:space="preserve">
<style type="text/css">
	.st0{fill:#526AAE;}
	.st1{fill:#FFFFFF;}
</style>
<g id="Layer_1_00000065758904979884197290000000799948216758723999_">
	<g id="Layer_2_00000176030138473647796440000011864257751089065120_">
		<path class="st0" d="M121,133H12c-6.6,0-12-5.4-12-12V12C0,5.4,5.4,0,12,0h109c6.6,0,12,5.4,12,12v109
			C133,127.6,127.6,133,121,133z"/>
		<path class="st0" d="M121,133H12c-6.6,0-12-5.4-12-12V12C0,5.4,5.4,0,12,0h109c6.6,0,12,5.4,12,12v109
			C133,127.6,127.6,133,121,133z"/>
	</g>
</g>
<g id="Layer_2_00000053504873838397158660000010622816126373820836_">
</g>
<g id="Layer_4">
</g>
<g id="Layer_5_00000096759886075198047500000016841880956640546723_">
</g>
<g id="Layer_6_00000151532325249707469710000014370122528315639221_">
</g>
<g id="Layer_7_00000042717999357893301760000000855885267568530853_">
</g>
<g id="Layer_8_00000168831599467053464300000003505523461608539011_">
</g>
<g id="Layer_9_00000089543259283313251050000005252079673544207528_">
</g>
<g id="Layer_10_00000084509998272139497780000008077192264451833754_">
</g>
<g id="Layer_11_00000116220595310884250560000013807966725250984093_">
	<g>
		<g id="XMLID_00000091714305187800810170000003927832561011425460_">
			<g>
				<path class="st1" d="M109.8,70.6H97.7c-8,0-14.5-6.5-14.5-14.5v-4.4h5.6c2.6,0,5.2,0.5,7.6,1.4s4.6,2.3,6.6,4
					C106.7,60.6,109.2,65.4,109.8,70.6z M100.5,64.7c0.4-0.5,0.6-1.1,0.5-1.7c-0.1-0.6-0.4-1.2-0.8-1.5l-4.5-3.8l0,0
					c-1-0.8-2.4-0.7-3.2,0.3c-0.8,1-0.7,2.4,0.3,3.2l4.5,3.8c0.5,0.4,1.1,0.6,1.7,0.5S100.2,65.1,100.5,64.7z"/>
				<path class="st1" d="M36.1,48l1.7,1.8l-13.2,2.3l-0.6-1c-0.5-0.8-0.6-1.9-0.1-2.7c0.5-0.9,1.4-1.4,2.3-1.4h7.9
					C34.8,47.1,35.6,47.5,36.1,48z"/>
				<path class="st1" d="M75.5,78.7c0-1.3-1-2.3-2.3-2.3h-3.8c-1.3,0-2.3,1-2.3,2.3s1,2.3,2.3,2.3h3.8C74.5,81,75.5,79.9,75.5,78.7z
					 M78.3,77.1c-0.4,0.4-0.7,1-0.7,1.6s0.2,1.2,0.7,1.6c0.4,0.4,1,0.7,1.6,0.7c0.3,0,0.6,0,0.9-0.2c0.3-0.1,0.5-0.3,0.8-0.5
					c0.4-0.4,0.7-1,0.7-1.6c0-0.3-0.1-0.6-0.2-0.9s-0.3-0.5-0.5-0.7s-0.5-0.4-0.8-0.5C80,76.2,79,76.4,78.3,77.1z M71,60.8
					c-0.9-0.8-2.3-0.8-3.2,0c-0.6,0.7-0.8,1.6-0.5,2.5c0.4,0.8,1.2,1.4,2.1,1.4c0.6,0,1.2-0.2,1.6-0.7c0.1-0.1,0.2-0.2,0.3-0.3
					c0.1-0.1,0.1-0.2,0.2-0.4c0.1-0.1,0.1-0.3,0.1-0.4c0-0.1,0-0.3,0-0.4C71.7,61.8,71.5,61.3,71,60.8z M67.8,53
					c0.4,0.4,1,0.7,1.6,0.7s1.2-0.2,1.6-0.7c0.4-0.4,0.7-1,0.7-1.6s-0.2-1.2-0.7-1.6c-0.9-0.9-2.3-0.9-3.2,0c-0.4,0.4-0.7,1-0.7,1.6
					C67.1,52,67.4,52.6,67.8,53z M67.8,58.5c0.9,0.9,2.3,0.9,3.2,0c0.4-0.4,0.7-1,0.7-1.6s-0.2-1.2-0.7-1.6c-0.9-0.9-2.3-0.9-3.2,0
					c-0.4,0.4-0.7,1-0.7,1.6c0,0.3,0.1,0.6,0.2,0.9C67.4,58.1,67.6,58.3,67.8,58.5z M109.9,75.2v4.6c0,1.9-0.8,3.7-2.1,5
					c-1.3,1.3-3,2.1-5,2.1H69.6c-4.6,0-8.3-3.7-8.3-8.3c0-4.8-3.9-8.7-8.7-8.7H39.8c-2.5,0-4.8-1.3-6.2-3.4l-6.4-10.2l14.1-2.5
					l1.4,1.6c0.4,0.5,1,0.8,1.7,0.8h14.2c1.3,0,2.3-1,2.3-2.3v-4.5c0-2.6,2.1-4.8,4.8-4.8h8.1c2.6,0,4.8,2.1,4.8,4.8V56
					c0,2.5,0.5,5,1.5,7.3c0.9,2.3,2.3,4.4,4.1,6.2c3.6,3.6,8.4,5.6,13.5,5.6h12.2V75.2z"/>
				<path d="M117.3,28.9c1.3,0,2.3,1,2.3,2.3c0,1.3-1,2.3-2.3,2.3H73.9v6.7c4.2,0,7.9,2.9,9,7h5.9c6.8,0,13.3,2.7,18.2,7.5
					c4.8,4.8,7.5,11.4,7.5,18.2v6.9c0,3.2-1.3,6.1-3.4,8.2s-5,3.4-8.2,3.4h-4l2.8,10h2.3l8.4-5.5c0.5-0.3,1.1-0.5,1.7-0.3
					c0.6,0.1,1.1,0.5,1.4,1s0.5,1.1,0.3,1.7c-0.1,0.6-0.5,1.1-1,1.5l-8.9,5.9c-0.4,0.2-0.8,0.4-1.2,0.4H57.4c-1.3,0-2.3-1-2.3-2.3
					s1-2.3,2.3-2.3h14l2.1-10h-3.8c-7.1,0-12.8-5.8-12.8-12.8c0-2.3-1.8-4.1-4.1-4.1h-13c0,0,0,0-0.1,0c-4.1,0-7.8-2.1-10-5.5
					L20,53.8c-1.4-2.2-1.5-5-0.2-7.4c1.3-2.3,3.7-3.8,6.4-3.8h7.9c1,0,2,0.2,2.9,0.6c0.9,0.4,1.8,1,2.4,1.8l6,6.7h10.9v-2.2
					c0-5.2,4.2-9.3,9.3-9.3h3.6v-6.7H15.7c-1.3,0-2.3-1-2.3-2.3s1-2.3,2.3-2.3C15.7,28.9,117.3,28.9,117.3,28.9z M109.9,79.8v-4.6
					H97.7c-5.1,0-9.9-2-13.5-5.6c-1.8-1.8-3.2-3.9-4.1-6.2c-1-2.3-1.5-4.8-1.5-7.3v-6.6c0-2.6-2.1-4.8-4.8-4.8h-8.1
					c-2.6,0-4.8,2.1-4.8,4.8V54c0,1.3-1,2.3-2.3,2.3H44.4c-0.6,0-1.3-0.3-1.7-0.8l-1.4-1.6l-14.1,2.5l6.4,10.2
					c1.3,2.1,3.7,3.4,6.2,3.4h12.9c4.8,0,8.7,3.9,8.7,8.7c0,4.6,3.7,8.3,8.3,8.3h33.2c2,0,3.7-0.8,5-2.1
					C109.1,83.5,109.9,81.8,109.9,79.8z M97.7,70.6h12.1c-0.6-5.2-3-10-6.9-13.5c-1.9-1.7-4.2-3.1-6.6-4s-5-1.4-7.6-1.4h-5.6v4.4
					C83.2,64.1,89.6,70.6,97.7,70.6z M96.8,101.4l-2.8-10H78.1l-2.1,10H96.8z M37.7,49.9L36.1,48c-0.5-0.6-1.2-0.9-2-0.9h-7.9
					c-1,0-1.9,0.5-2.3,1.4c-0.5,0.9-0.5,1.9,0.1,2.7l0.6,1L37.7,49.9z"/>
				<path d="M100.5,64.7c-0.4,0.5-1,0.8-1.6,0.8c-0.6,0.1-1.2-0.1-1.7-0.5l-4.5-3.8c-1-0.8-1.1-2.2-0.3-3.2c0.8-1,2.2-1.1,3.2-0.3
					l0,0l4.5,3.8c0.5,0.4,0.8,1,0.8,1.5C101.1,63.6,100.9,64.2,100.5,64.7z"/>
				<path d="M82.1,77.8c0.1,0.3,0.2,0.6,0.2,0.9c0,0.6-0.2,1.2-0.7,1.6c-0.2,0.2-0.5,0.4-0.8,0.5S80.2,81,79.9,81
					c-0.6,0-1.2-0.2-1.6-0.7c-0.4-0.4-0.7-1-0.7-1.6s0.2-1.2,0.7-1.6c0.7-0.7,1.6-0.8,2.5-0.5c0.3,0.1,0.5,0.3,0.8,0.5
					C81.8,77.3,82,77.5,82.1,77.8z"/>
				<path d="M73.2,76.4c1.3,0,2.3,1,2.3,2.3s-1,2.3-2.3,2.3h-3.8c-1.3,0-2.3-1-2.3-2.3s1-2.3,2.3-2.3H73.2z"/>
				<path d="M71.7,56.9c0,0.6-0.2,1.2-0.7,1.6c-0.9,0.9-2.3,0.9-3.2,0c-0.2-0.2-0.4-0.4-0.5-0.7s-0.2-0.6-0.2-0.9
					c0-0.6,0.2-1.2,0.7-1.6c0.9-0.9,2.3-0.9,3.2,0C71.4,55.7,71.7,56.3,71.7,56.9z"/>
				<path d="M71.7,51.4c0,0.6-0.2,1.2-0.7,1.6c-0.4,0.4-1,0.7-1.6,0.7s-1.2-0.2-1.6-0.7c-0.4-0.4-0.7-1-0.7-1.6s0.2-1.2,0.7-1.6
					c0.9-0.9,2.3-0.9,3.2,0C71.4,50.2,71.7,50.8,71.7,51.4z"/>
				<path d="M71,60.8c0.4,0.4,0.7,1,0.7,1.6c0,0.1,0,0.3,0,0.4c-0.1,0.2-0.1,0.3-0.1,0.4c-0.1,0.1-0.1,0.3-0.2,0.4
					c-0.1,0.1-0.2,0.2-0.3,0.3c-0.4,0.4-1,0.7-1.6,0.7c-0.9,0-1.7-0.6-2.1-1.4c-0.3-0.8-0.1-1.8,0.5-2.5C68.7,60,70.1,60,71,60.8z"
					/>
			</g>
		</g>
	</g>
</g>
<g id="Layer_12">
</g>
<g id="Layer_13">
</g>
<g id="Layer_14">
</g>
<g id="Layer_15">
</g>
<g id="Layer_16">
</g>
<g id="Layer_17">
</g>
<g id="Layer_18">
</g>
</svg>
