<?xml version="1.0" encoding="utf-8"?>
<!-- Generator: Adobe Illustrator 26.3.1, SVG Export Plug-In . SVG Version: 6.00 Build 0)  -->
<svg version="1.1" id="Layer_1" xmlns="http://www.w3.org/2000/svg" xmlns:xlink="http://www.w3.org/1999/xlink" x="0px" y="0px"
	 viewBox="0 0 133 133" style="enable-background:new 0 0 133 133;" xml:space="preserve">
<style type="text/css">
	.st0{fill:#896FC9;}
	.st1{fill:#FFFFFF;}
</style>
<g id="Layer_1_00000044873295794470796150000000278353769518299554_">
	<g id="Layer_1_00000130640081086220838410000011721614330154684315_">
		<g id="Layer_2_00000080909792367530824080000017432296311554303617_">
			<path class="st0" d="M121,133H12c-6.6,0-12-5.4-12-12V12C0,5.4,5.4,0,12,0h109c6.6,0,12,5.4,12,12v109
				C133,127.6,127.6,133,121,133z"/>
			<path class="st0" d="M121,133H12c-6.6,0-12-5.4-12-12V12C0,5.4,5.4,0,12,0h109c6.6,0,12,5.4,12,12v109
				C133,127.6,127.6,133,121,133z"/>
		</g>
	</g>
</g>
<g id="Layer_2_00000170979145909033208260000011020591678184695463_">
</g>
<g id="Layer_3">
</g>
<g id="Layer_4">
</g>
<g id="Layer_6">
</g>
<g id="Layer_7">
</g>
<g id="Layer_8">
</g>
<g id="Layer_9">
</g>
<g id="Layer_5">
	<g transform="translate(0,-952.36218)">
		<g id="XMLID_00000170276779254362717910000005392973548536058536_">
			<g>
				<path class="st1" d="M32,984.2l18.9,7.7c-0.2,0.2-0.2,0.5-0.2,0.8l-18.6,7.3C30.1,995.2,29.8,989.6,32,984.2z"/>
				<path class="st1" d="M50.7,996.1l-7.4,16.8c-4.2-2.4-7.7-5.8-9.9-9.9L50.7,996.1z"/>
				<path class="st1" d="M53.7,997l7.7,16.6c-5,1.7-10.4,1.8-15.3,0.5L53.7,997z"/>
				<path class="st1" d="M56.6,994.2l18.5,7.5c-2.6,5-6.4,8.5-10.8,10.6l-8-17.3C56.4,994.8,56.6,994.5,56.6,994.2z"/>
				<path class="st1" d="M73.3,968.3c-1.7,0-3.1,0.7-3.1,1.5s1.4,1.5,3.1,1.5s3.1-0.7,3.1-1.5S74.9,968.3,73.3,968.3z M73.3,967.4
					c13.4,0,24.2,10.8,24.2,24.1s-10.9,24.2-24.2,24.2c-2.4,0-4.7-0.3-6.8-1c5.2-2.7,9.6-7.1,12.3-13.3c0.3-0.8-0.1-1.7-0.8-2.1
					l-28.6-11.6C51.1,976.3,61.1,967.4,73.3,967.4z"/>
				<path d="M73.3,964.3c15.1,0,27.3,12.3,27.3,27.3s-12.3,27.3-27.3,27.3c-3.9,0-7.7-0.8-11.1-2.4c-5.3,1.7-12.6,2.1-18.7-0.2
					c-12.3-5.8-20.4-20.8-13.9-34.9c0.2-0.5,0.8-0.9,1.4-0.9c5.2,0.9,10.2,4.7,15.3,6.1C48.7,974,59.8,964.3,73.3,964.3z
					 M97.5,991.7c0-13.4-10.9-24.1-24.2-24.1c-12.1,0-22.2,8.8-23.9,20.4L78,999.6c0.8,0.3,1.1,1.3,0.8,2.1
					c-2.7,6.2-7.2,10.6-12.3,13.3c2.2,0.6,4.5,1,6.8,1C86.6,1015.8,97.5,1005,97.5,991.7z M75.1,1001.7l-18.5-7.5
					c-0.1,0.3-0.2,0.5-0.4,0.8l8,17.3C68.6,1010.2,72.5,1006.7,75.1,1001.7z M61.4,1013.5l-7.7-16.6l-7.6,17
					C51,1015.3,56.4,1015.2,61.4,1013.5z M50.9,991.9L32,984.2c-2.1,5.5-1.8,10.9,0.1,15.8l18.5-7.3
					C50.6,992.4,50.7,992.2,50.9,991.9z M43.3,1012.9l7.4-16.8l-17.4,6.8C35.6,1007,39.1,1010.5,43.3,1012.9z"/>
				<ellipse cx="73.3" cy="969.8" rx="3.1" ry="1.5"/>
			</g>
		</g>
	</g>
</g>
</svg>
