<?xml version="1.0" encoding="utf-8"?>
<!-- Generator: Adobe Illustrator 26.3.1, SVG Export Plug-In . SVG Version: 6.00 Build 0)  -->
<svg version="1.1" xmlns="http://www.w3.org/2000/svg" xmlns:xlink="http://www.w3.org/1999/xlink" x="0px" y="0px"
	 viewBox="0 0 133 133" style="enable-background:new 0 0 133 133;" xml:space="preserve">
<style type="text/css">
	.st0{fill:#BCD0D8;}
	.st1{fill:#FFFFFF;}
</style>
<g id="Layer_2">
	<path class="st0" d="M121,133H12c-6.6,0-12-5.4-12-12V12C0,5.4,5.4,0,12,0h109c6.6,0,12,5.4,12,12v109C133,127.6,127.6,133,121,133
		z"/>
	<path class="st0" d="M121,133H12c-6.6,0-12-5.4-12-12V12C0,5.4,5.4,0,12,0h109c6.6,0,12,5.4,12,12v109C133,127.6,127.6,133,121,133
		z"/>
</g>
<g id="Layer_1">
</g>
<g id="Layer_3">
	<g>
		<g id="XMLID_00000019668552045606770030000010466676354711724725_">
			<g>
				<path class="st1" d="M83.25,78.02c0.37,0.22,0.65,0.45,0.65,0.64c0.01,0.05,0.01,0.11,0,0.16l-18.27,0.14
					c0.35-1.36,0.03-2.8-0.86-3.89l-5.67-6.84c-0.4-0.47-1.09-0.53-1.56-0.13c-0.47,0.39-0.53,1.09-0.13,1.56l5.76,6.84
					c0.22,0.28,1.25,1.74-0.69,3.59c-1.18,1.18-2.44,2.27-3.78,3.27L50.96,83l3.62-2.13c0.06-0.04,0.11-0.08,0.16-0.13l0.08-0.07
					c0.45-0.54,0.7-1.23,0.7-1.94c0-0.15-0.01-0.3-0.03-0.45c-0.2-0.97-0.84-1.79-1.73-2.21c-0.92-0.52-3.1-1.96-3.57-3.96
					c-0.23-1.16,0.05-2.37,0.77-3.32c0.21-0.44,0.1-0.97-0.28-1.3c-0.46-0.4-1.15-0.35-1.56,0.11c-1.07,1.45-1.47,3.3-1.1,5.06
					c0.65,2.75,3.17,4.54,4.62,5.37c0.38,0.22,0.65,0.45,0.65,0.64c0.01,0.05,0.01,0.11,0,0.16c-10.46,0.09-36.07,0.26-38.1,0
					c-0.31-0.04-0.51-0.12-0.51-0.18c-0.02-0.16-0.01-0.31,0.04-0.46h0.39c0.21,0,0.42-0.01,0.63-0.05h10.22
					c0.61,0,1.1-0.5,1.1-1.11s-0.49-1.1-1.1-1.1H15.62c-0.11-0.02-0.21-0.02-0.32,0c-0.31,0.04-0.62-0.02-0.88-0.19
					c-0.63-0.54-1.03-1.29-1.11-2.11c-0.06-0.26-0.09-0.52-0.08-0.78c0.68,0.02,1.35,0.1,2,0.25c1.75,0.36,3.53,0.51,5.31,0.44
					c3.42-0.21,6.41-3.31,9.07-6.04c1.7-1.77,3.49-3.59,4.6-3.74c1.66-0.18,3.29,0.55,4.27,1.9c0.33,0.5,1,0.63,1.5,0.31
					c0.52-0.32,0.67-1.01,0.34-1.52c-0.02-0.03-0.1-0.16-0.25-0.34c3.38-1.46,12.13-4.84,18.86-4.26c8.85,0.75,36.6,2.48,36.88,2.48
					c0.1,0.01,0.21,0.01,0.31,0c0.93-0.21,5.59-1.41,6.01-4.07c0.34-2.14-2.08-3.56-2.87-4.03c-5.33-3.17-13.59-5.13-19.64-4.42
					c5.8-3.08,12.43-4.21,18.92-3.22c6.6,0.96,12.17,3.96,15.28,8.22c1.94,2.48,2.79,5.64,2.36,8.76
					c-1.99,9.14-10.47,15.38-19.79,14.56c0.07-1.11-0.29-2.2-0.99-3.06l-5.75-6.83c-0.06-0.09-0.13-0.17-0.21-0.24
					c-0.46-0.4-1.16-0.35-1.56,0.11c-0.4,0.46-0.35,1.16,0.11,1.56l5.77,6.79c0.22,0.27,1.25,1.73-0.68,3.59
					c-1.19,1.18-2.46,2.27-3.79,3.26l-7.75-0.35l3.62-2.14c0.06-0.03,0.12-0.08,0.17-0.13l0.06-0.05c0.48-0.55,0.74-1.26,0.74-1.98
					c0-0.13,0-0.25-0.02-0.38c-0.2-0.97-0.84-1.79-1.73-2.21c-0.92-0.52-3.1-1.96-3.58-3.96c-0.23-1.16,0.06-2.37,0.78-3.32
					c0.26-0.47,0.14-1.07-0.3-1.41c-0.48-0.37-1.18-0.28-1.55,0.21c-1.08,1.45-1.48,3.29-1.1,5.06
					C79.28,75.4,81.8,77.19,83.25,78.02z"/>
				<path d="M98.09,56.12c-6.38-3.8-18.03-5.81-22.45-2.81c-0.5,0.35-1.19,0.23-1.54-0.27c-0.21-0.31-0.26-0.7-0.12-1.04
					c1.23-3.09,11.48-9.59,24.87-7.64c7.19,1.04,13.27,4.35,16.75,9.1c2.29,2.96,3.28,6.73,2.76,10.44
					c-1.4,8.31-9.48,16.47-20.53,16.47c-0.69,0-1.41,0-2.14-0.11c-0.31,0.51-0.68,0.98-1.11,1.39c-1.35,1.38-2.83,2.63-4.42,3.73
					c-0.17,0.11-0.37,0.16-0.58,0.17L77.79,85c-0.61-0.03-1.09-0.54-1.06-1.15c0.02-0.38,0.23-0.71,0.55-0.9l3.31-1.94l-16.02,0.11
					c-0.15,0.18-0.32,0.36-0.5,0.53c-1.35,1.38-2.83,2.63-4.42,3.73c-0.17,0.11-0.37,0.16-0.57,0.17l-12-0.5
					c-0.61-0.03-1.08-0.55-1.05-1.16c0.02-0.37,0.22-0.71,0.54-0.9l3.32-1.92c-5.53,0-15.42,0.11-23.31,0.11
					c-5.93,0-10.71,0-11.62-0.16c-0.93-0.04-1.77-0.56-2.21-1.38c-0.33-0.8-0.33-1.69,0-2.49c-0.85-0.83-1.41-1.92-1.61-3.09
					c-0.3-0.95-0.12-1.99,0.49-2.78c0.88-0.9,2.21-0.66,4-0.35c1.58,0.33,3.18,0.46,4.79,0.41c2.55-0.16,5.23-2.93,7.58-5.38
					c2.16-2.21,4.02-4.15,5.93-4.42c1.5-0.2,3.02,0.14,4.3,0.95c2.56-1.17,12.79-5.53,20.89-4.84c8.46,0.72,34.4,2.3,36.61,2.45
					c1.9-0.46,4.06-1.48,4.17-2.21C99.9,57.65,99.6,57.01,98.09,56.12z M83.9,78.66c0-0.19-0.28-0.42-0.65-0.64
					c-1.45-0.83-3.97-2.62-4.62-5.37c-0.38-1.77,0.02-3.61,1.1-5.06c0.37-0.49,1.07-0.58,1.55-0.21c0.44,0.34,0.56,0.94,0.3,1.41
					c-0.72,0.95-1.01,2.16-0.78,3.32c0.48,2,2.66,3.44,3.58,3.96c0.89,0.42,1.53,1.24,1.73,2.21c0.02,0.13,0.02,0.25,0.02,0.38
					c0,0.72-0.26,1.43-0.74,1.98l-0.06,0.05c-0.05,0.05-0.11,0.1-0.17,0.13l-3.62,2.14l7.75,0.35c1.33-0.99,2.6-2.08,3.79-3.26
					c1.93-1.86,0.9-3.32,0.68-3.59l-5.77-6.79c-0.46-0.4-0.51-1.1-0.11-1.56c0.4-0.46,1.1-0.51,1.56-0.11
					c0.08,0.07,0.15,0.15,0.21,0.24l5.75,6.83c0.7,0.86,1.06,1.95,0.99,3.06c9.32,0.82,17.8-5.42,19.79-14.56
					c0.43-3.12-0.42-6.28-2.36-8.76c-3.11-4.26-8.68-7.26-15.28-8.22c-6.49-0.99-13.12,0.14-18.92,3.22
					c6.05-0.71,14.31,1.25,19.64,4.42c0.79,0.47,3.21,1.89,2.87,4.03c-0.42,2.66-5.08,3.86-6.01,4.07c-0.1,0.01-0.21,0.01-0.31,0
					c-0.28,0-28.03-1.73-36.88-2.48c-6.73-0.58-15.48,2.8-18.86,4.26c0.15,0.18,0.23,0.31,0.25,0.34c0.33,0.51,0.18,1.2-0.34,1.52
					c-0.5,0.32-1.17,0.19-1.5-0.31c-0.98-1.35-2.61-2.08-4.27-1.9c-1.11,0.15-2.9,1.97-4.6,3.74c-2.66,2.73-5.65,5.83-9.07,6.04
					c-1.78,0.07-3.56-0.08-5.31-0.44c-0.65-0.15-1.32-0.23-2-0.25c-0.01,0.26,0.02,0.52,0.08,0.78c0.08,0.82,0.48,1.57,1.11,2.11
					c0.26,0.17,0.57,0.23,0.88,0.19c0.11-0.02,0.21-0.02,0.32,0h10.34c0.61,0,1.1,0.49,1.1,1.1s-0.49,1.11-1.1,1.11H15.74
					c-0.21,0.04-0.42,0.05-0.63,0.05h-0.39c-0.05,0.15-0.06,0.3-0.04,0.46c0,0.06,0.2,0.14,0.51,0.18c2.03,0.26,27.64,0.09,38.1,0
					c0.01-0.05,0.01-0.11,0-0.16c0-0.19-0.27-0.42-0.65-0.64c-1.45-0.83-3.97-2.62-4.62-5.37c-0.37-1.76,0.03-3.61,1.1-5.06
					c0.41-0.46,1.1-0.51,1.56-0.11c0.38,0.33,0.49,0.86,0.28,1.3c-0.72,0.95-1,2.16-0.77,3.32c0.47,2,2.65,3.44,3.57,3.96
					c0.89,0.42,1.53,1.24,1.73,2.21c0.02,0.15,0.03,0.3,0.03,0.45c0,0.71-0.25,1.4-0.7,1.94l-0.08,0.07
					c-0.05,0.05-0.1,0.09-0.16,0.13L50.96,83l7.74,0.36c1.34-1,2.6-2.09,3.78-3.27c1.94-1.85,0.91-3.31,0.69-3.59l-5.76-6.84
					c-0.4-0.47-0.34-1.17,0.13-1.56c0.47-0.4,1.16-0.34,1.56,0.13l5.67,6.84c0.89,1.09,1.21,2.53,0.86,3.89l18.27-0.14
					C83.91,78.77,83.91,78.71,83.9,78.66z"/>
			</g>
		</g>
	</g>
</g>
<g id="Layer_5">
</g>
<g id="Layer_6">
</g>
<g id="Layer_7">
</g>
<g id="Layer_8">
</g>
<g id="Layer_9">
</g>
<g id="Layer_10">
</g>
<g id="Layer_11">
</g>
</svg>
