<?xml version="1.0" encoding="utf-8"?>
<!-- Generator: Adobe Illustrator 27.1.1, SVG Export Plug-In . SVG Version: 6.00 Build 0)  -->
<svg version="1.1" id="Layer_1" xmlns="http://www.w3.org/2000/svg" xmlns:xlink="http://www.w3.org/1999/xlink" x="0px" y="0px"
	 viewBox="0 0 133 133" style="enable-background:new 0 0 133 133;" xml:space="preserve">
<style type="text/css">
	.st0{fill:#5B8DA5;}
	.st1{fill:#FFFFFF;}
</style>
<g id="Layer_2_00000117665437831914914640000014882398076016927629_">
	<path class="st0" d="M121,133H12c-6.6,0-12-5.4-12-12V12C0,5.4,5.4,0,12,0h109c6.6,0,12,5.4,12,12v109C133,127.6,127.6,133,121,133
		z"/>
	<path class="st0" d="M121,133H12c-6.6,0-12-5.4-12-12V12C0,5.4,5.4,0,12,0h109c6.6,0,12,5.4,12,12v109C133,127.6,127.6,133,121,133
		z"/>
</g>
<g id="Layer_1_00000120557403953001111790000015355559118921590932_">
</g>
<g id="Layer_3">
	<g>
		<g id="XMLID_00000019668552045606770030000010466676354711724725_">
			<g>
				<path class="st1" d="M83.2,78c0.4,0.2,0.7,0.4,0.7,0.6c0,0.1,0,0.1,0,0.2L65.6,79c0.3-1.4,0-2.8-0.9-3.9l-5.7-6.8
					c-0.4-0.5-1.1-0.5-1.6-0.1c-0.5,0.4-0.5,1.1-0.1,1.6l5.8,6.8c0.2,0.3,1.2,1.7-0.7,3.6c-1.2,1.2-2.4,2.3-3.8,3.3L51,83l3.6-2.1
					c0.1,0,0.1-0.1,0.2-0.1l0.1-0.1c0.5-0.5,0.7-1.2,0.7-1.9c0-0.2,0-0.3,0-0.4c-0.2-1-0.8-1.8-1.7-2.2c-0.9-0.5-3.1-2-3.6-4
					c-0.2-1.2,0-2.4,0.8-3.3c0.2-0.4,0.1-1-0.3-1.3c-0.5-0.4-1.2-0.3-1.6,0.1c-1.1,1.4-1.5,3.3-1.1,5.1c0.7,2.8,3.2,4.5,4.6,5.4
					c0.4,0.2,0.7,0.4,0.7,0.6c0,0.1,0,0.1,0,0.2c-10.5,0.1-36.1,0.3-38.1,0c-0.3,0-0.5-0.1-0.5-0.2c0-0.2,0-0.3,0-0.5h0.4
					c0.2,0,0.4,0,0.6-0.1H26c0.6,0,1.1-0.5,1.1-1.1s-0.5-1.1-1.1-1.1H15.6c-0.1,0-0.2,0-0.3,0c-0.3,0-0.6,0-0.9-0.2
					c-0.6-0.5-1-1.3-1.1-2.1c-0.1-0.3-0.1-0.5-0.1-0.8c0.7,0,1.4,0.1,2,0.2c1.7,0.4,3.5,0.5,5.3,0.4c3.4-0.2,6.4-3.3,9.1-6
					c1.7-1.8,3.5-3.6,4.6-3.7c1.7-0.2,3.3,0.5,4.3,1.9c0.3,0.5,1,0.6,1.5,0.3c0.5-0.3,0.7-1,0.3-1.5c0,0-0.1-0.2-0.2-0.3
					c3.4-1.5,12.1-4.8,18.9-4.3c8.8,0.8,36.6,2.5,36.9,2.5c0.1,0,0.2,0,0.3,0c0.9-0.2,5.6-1.4,6-4.1c0.3-2.1-2.1-3.6-2.9-4
					c-5.3-3.2-13.6-5.1-19.6-4.4c5.8-3.1,12.4-4.2,18.9-3.2c6.6,1,12.2,4,15.3,8.2c1.9,2.5,2.8,5.6,2.4,8.8
					c-2,9.1-10.5,15.4-19.8,14.6c0.1-1.1-0.3-2.2-1-3.1l-5.8-6.8c-0.1-0.1-0.1-0.2-0.2-0.2c-0.5-0.4-1.2-0.3-1.6,0.1
					c-0.4,0.5-0.3,1.2,0.1,1.6l5.8,6.8c0.2,0.3,1.2,1.7-0.7,3.6c-1.2,1.2-2.5,2.3-3.8,3.3L81.5,83l3.6-2.1c0.1,0,0.1-0.1,0.2-0.1
					l0.1-0.1c0.5-0.6,0.7-1.3,0.7-2c0-0.1,0-0.2,0-0.4c-0.2-1-0.8-1.8-1.7-2.2c-0.9-0.5-3.1-2-3.6-4c-0.2-1.2,0.1-2.4,0.8-3.3
					c0.3-0.5,0.1-1.1-0.3-1.4c-0.5-0.4-1.2-0.3-1.6,0.2c-1.1,1.4-1.5,3.3-1.1,5.1C79.3,75.4,81.8,77.2,83.2,78z"/>
				<path d="M98.1,56.1c-6.4-3.8-18-5.8-22.4-2.8c-0.5,0.3-1.2,0.2-1.5-0.3c-0.2-0.3-0.3-0.7-0.1-1c1.2-3.1,11.5-9.6,24.9-7.6
					c7.2,1,13.3,4.3,16.8,9.1c2.3,3,3.3,6.7,2.8,10.4c-1.4,8.3-9.5,16.5-20.5,16.5c-0.7,0-1.4,0-2.1-0.1c-0.3,0.5-0.7,1-1.1,1.4
					c-1.3,1.4-2.8,2.6-4.4,3.7c-0.2,0.1-0.4,0.2-0.6,0.2L77.8,85c-0.6,0-1.1-0.5-1.1-1.2c0-0.4,0.2-0.7,0.6-0.9l3.3-1.9l-16,0.1
					c-0.2,0.2-0.3,0.4-0.5,0.5c-1.3,1.4-2.8,2.6-4.4,3.7c-0.2,0.1-0.4,0.2-0.6,0.2l-12-0.5c-0.6,0-1.1-0.6-1-1.2
					c0-0.4,0.2-0.7,0.5-0.9l3.3-1.9c-5.5,0-15.4,0.1-23.3,0.1c-5.9,0-10.7,0-11.6-0.2c-0.9,0-1.8-0.6-2.2-1.4
					c-0.3-0.8-0.3-1.7,0-2.5c-0.9-0.8-1.4-1.9-1.6-3.1c-0.3-0.9-0.1-2,0.5-2.8c0.9-0.9,2.2-0.7,4-0.3c1.6,0.3,3.2,0.5,4.8,0.4
					c2.5-0.2,5.2-2.9,7.6-5.4c2.2-2.2,4-4.2,5.9-4.4c1.5-0.2,3,0.1,4.3,1c2.6-1.2,12.8-5.5,20.9-4.8c8.5,0.7,34.4,2.3,36.6,2.5
					c1.9-0.5,4.1-1.5,4.2-2.2C99.9,57.7,99.6,57,98.1,56.1z M83.9,78.7c0-0.2-0.3-0.4-0.7-0.6c-1.4-0.8-4-2.6-4.6-5.4
					c-0.4-1.8,0-3.6,1.1-5.1c0.4-0.5,1.1-0.6,1.6-0.2c0.4,0.3,0.6,0.9,0.3,1.4c-0.7,0.9-1,2.2-0.8,3.3c0.5,2,2.7,3.4,3.6,4
					c0.9,0.4,1.5,1.2,1.7,2.2c0,0.1,0,0.2,0,0.4c0,0.7-0.3,1.4-0.7,2l-0.1,0.1c-0.1,0.1-0.1,0.1-0.2,0.1L81.5,83l7.8,0.3
					c1.3-1,2.6-2.1,3.8-3.3c1.9-1.9,0.9-3.3,0.7-3.6L88,69.7c-0.5-0.4-0.5-1.1-0.1-1.6s1.1-0.5,1.6-0.1c0.1,0.1,0.2,0.2,0.2,0.2
					l5.8,6.8c0.7,0.9,1.1,1.9,1,3.1c9.3,0.8,17.8-5.4,19.8-14.6c0.4-3.1-0.4-6.3-2.4-8.8c-3.1-4.3-8.7-7.3-15.3-8.2
					c-6.5-1-13.1,0.1-18.9,3.2c6.1-0.7,14.3,1.2,19.6,4.4c0.8,0.5,3.2,1.9,2.9,4c-0.4,2.7-5.1,3.9-6,4.1c-0.1,0-0.2,0-0.3,0
					c-0.3,0-28-1.7-36.9-2.5c-6.7-0.6-15.5,2.8-18.9,4.3c0.2,0.2,0.2,0.3,0.2,0.3c0.3,0.5,0.2,1.2-0.3,1.5c-0.5,0.3-1.2,0.2-1.5-0.3
					c-1-1.3-2.6-2.1-4.3-1.9c-1.1,0.2-2.9,2-4.6,3.7c-2.7,2.7-5.6,5.8-9.1,6c-1.8,0.1-3.6-0.1-5.3-0.4c-0.6-0.2-1.3-0.2-2-0.2
					c0,0.3,0,0.5,0.1,0.8c0.1,0.8,0.5,1.6,1.1,2.1c0.3,0.2,0.6,0.2,0.9,0.2c0.1,0,0.2,0,0.3,0H26c0.6,0,1.1,0.5,1.1,1.1
					s-0.5,1.1-1.1,1.1H15.7c-0.2,0-0.4,0.1-0.6,0.1h-0.4c-0.1,0.2-0.1,0.3,0,0.5c0,0.1,0.2,0.1,0.5,0.2c2,0.3,27.6,0.1,38.1,0
					c0-0.1,0-0.1,0-0.2c0-0.2-0.3-0.4-0.7-0.6c-1.5-0.8-4-2.6-4.6-5.4c-0.4-1.8,0-3.6,1.1-5.1c0.4-0.5,1.1-0.5,1.6-0.1
					c0.4,0.3,0.5,0.9,0.3,1.3c-0.7,0.9-1,2.2-0.8,3.3c0.5,2,2.7,3.4,3.6,4c0.9,0.4,1.5,1.2,1.7,2.2c0,0.2,0,0.3,0,0.4
					c0,0.7-0.2,1.4-0.7,1.9l-0.1,0.1c0,0.1-0.1,0.1-0.2,0.1L51,83l7.7,0.4c1.3-1,2.6-2.1,3.8-3.3c1.9-1.8,0.9-3.3,0.7-3.6l-5.8-6.8
					c-0.4-0.5-0.3-1.2,0.1-1.6c0.5-0.4,1.2-0.3,1.6,0.1l5.7,6.8c0.9,1.1,1.2,2.5,0.9,3.9l18.3-0.1C83.9,78.8,83.9,78.7,83.9,78.7z"
					/>
			</g>
		</g>
	</g>
</g>
<g id="Layer_5">
</g>
<g id="Layer_6">
</g>
<g id="Layer_7">
</g>
<g id="Layer_8">
</g>
<g id="Layer_9">
</g>
<g id="Layer_10">
</g>
<g id="Layer_11">
</g>
</svg>
