<svg version="1.1" viewBox="0.0 0.0 133.44094488188978 133.44094488188978" fill="none" stroke="none" stroke-linecap="square" stroke-miterlimit="10" xmlns:xlink="http://www.w3.org/1999/xlink" xmlns="http://www.w3.org/2000/svg"><clipPath id="p.0"><path d="m0 0l133.44095 0l0 133.44095l-133.44095 0l0 -133.44095z" clip-rule="nonzero"/></clipPath><g clip-path="url(#p.0)"><path fill="#000000" fill-opacity="0.0" d="m0 0l133.44095 0l0 133.44095l-133.44095 0z" fill-rule="evenodd"/><path fill="#ff8800" d="m1.6141732 23.974182l0 0c0 -11.837395 9.596105 -21.4335 21.433498 -21.4335l86.896774 0l0 0c5.684517 0 11.136215 2.2581658 15.155777 6.2777267c4.019554 4.019561 6.277733 9.471256 6.277733 15.155773l0 85.73142c0 11.837395 -9.596115 21.43351 -21.43351 21.43351l-86.896774 0c-11.837395 0 -21.433498 -9.596115 -21.433498 -21.43351z" fill-rule="evenodd"/><path stroke="#000000" stroke-width="4.0" stroke-linejoin="round" stroke-linecap="butt" d="m1.6141732 23.974182l0 0c0 -11.837395 9.596105 -21.4335 21.433498 -21.4335l86.896774 0l0 0c5.684517 0 11.136215 2.2581658 15.155777 6.2777267c4.019554 4.019561 6.277733 9.471256 6.277733 15.155773l0 85.73142c0 11.837395 -9.596115 21.43351 -21.43351 21.43351l-86.896774 0c-11.837395 0 -21.433498 -9.596115 -21.433498 -21.43351z" fill-rule="evenodd"/><path fill="#000000" d="m19.845978 66.92364q0 -2.9999962 0.890625 -5.015621q0.671875 -1.5 1.828125 -2.6875q1.15625 -1.1875 2.53125 -1.765625q1.828125 -0.765625 4.203125 -0.765625q4.328125 0 6.921875 2.6875q2.59375 2.671875 2.59375 7.453121q0 4.734375 -2.578125 7.40625q-2.5625 2.671875 -6.875 2.671875q-4.359375 0 -6.9375 -2.65625q-2.578125 -2.65625 -2.578125 -7.328125zm4.0625 -0.140625q0 3.328125 1.53125 5.046875q1.546875 1.703125 3.90625 1.703125q2.359375 0 3.875 -1.6875q1.515625 -1.703125 1.515625 -5.109375q0 -3.3593712 -1.484375 -5.015621q-1.46875 -1.65625 -3.90625 -1.65625q-2.4375 0 -3.9375 1.671875q-1.5 1.671875 -1.5 5.046871zm21.553574 9.796875l-3.75 0l0 -14.171871l3.484375 0l0 2.0156212q0.890625 -1.4218712 1.609375 -1.8749962q0.71875 -0.453125 1.625 -0.453125q1.28125 0 2.46875 0.703125l-1.15625 3.2656212q-0.953125 -0.609375 -1.765625 -0.609375q-0.796875 0 -1.34375 0.4375q-0.546875 0.421875 -0.859375 1.5625q-0.3125 1.125 -0.3125 4.75l0 4.375zm9.853775 -9.84375l-3.40625 -0.625q0.578125 -2.046875 1.96875 -3.0312462q1.40625 -0.984375 4.171875 -0.984375q2.515625 0 3.734375 0.59375q1.234375 0.59375 1.734375 1.5156212q0.5 0.90625 0.5 3.34375l-0.046875 4.375q0 1.875 0.171875 2.765625q0.1875 0.875 0.6875 1.890625l-3.71875 0q-0.140625 -0.375 -0.359375 -1.109375q-0.09375 -0.328125 -0.125 -0.4375q-0.96875 0.9375 -2.0625 1.40625q-1.09375 0.453125 -2.328125 0.453125q-2.1875 0 -3.453125 -1.1875q-1.265625 -1.1875 -1.265625 -3.0q0 -1.203125 0.578125 -2.140625q0.578125 -0.9375 1.609375 -1.4375q1.03125 -0.5 2.984375 -0.875q2.625 -0.484375 3.640625 -0.921875l0 -0.375q0 -1.078125 -0.53125 -1.53125q-0.53125 -0.46875 -2.015625 -0.46875q-1.0 0 -1.5625 0.40625q-0.5625 0.390625 -0.90625 1.375zm5.015625 3.03125q-0.71875 0.25 -2.28125 0.59375q-1.5625 0.328125 -2.046875 0.640625q-0.734375 0.515625 -0.734375 1.328125q0 0.78125 0.578125 1.359375q0.59375 0.5625 1.515625 0.5625q1.0 0 1.921875 -0.65625q0.6875 -0.515625 0.90625 -1.25q0.140625 -0.46875 0.140625 -1.828125l0 -0.75zm20.276733 6.8125l-3.75 0l0 -7.234375q0 -2.296875 -0.25 -2.96875q-0.234375 -0.671875 -0.78125 -1.046875q-0.53125 -0.375 -1.296875 -0.375q-0.96875 0 -1.75 0.53125q-0.765625 0.53125 -1.0625 1.421875q-0.28125 0.875 -0.28125 3.25l0 6.421875l-3.75 0l0 -14.171871l3.484375 0l0 2.0781212q1.84375 -2.3906212 4.671875 -2.3906212q1.234375 0 2.265625 0.453125q1.03125 0.4375 1.546875 1.140625q0.53125 0.6874962 0.734375 1.5624962q0.21875 0.875 0.21875 2.515625l0 8.8125zm3.4431152 0.9375l4.28125 0.515625q0.109375 0.75 0.5 1.03125q0.53125 0.390625 1.6875 0.390625q1.46875 0 2.203125 -0.4375q0.484375 -0.296875 0.734375 -0.9375q0.1875 -0.46875 0.1875 -1.734375l0 -2.0625q-1.6875 2.296875 -4.25 2.296875q-2.859375 0 -4.53125 -2.421875q-1.296875 -1.90625 -1.296875 -4.75q0 -3.5625 1.703125 -5.437496q1.71875 -1.875 4.265625 -1.875q2.640625 0 4.34375 2.2968712l0 -1.9843712l3.5 0l0 12.718746q0 2.5 -0.40625 3.734375q-0.40625 1.25 -1.15625 1.953125q-0.75 0.71875 -2.0 1.109375q-1.25 0.40625 -3.15625 0.40625q-3.609375 0 -5.125 -1.234375q-1.5 -1.234375 -1.5 -3.125q0 -0.1875 0.015625 -0.453125zm3.359375 -8.3125q0 2.25 0.875 3.296875q0.875 1.046875 2.15625 1.046875q1.375 0 2.3125 -1.0625q0.953125 -1.078125 0.953125 -3.1875q0 -2.203125 -0.90625 -3.265625q-0.90625 -1.078125 -2.296875 -1.078125q-1.34375 0 -2.21875 1.046875q-0.875 1.046875 -0.875 3.203125zm21.89624 2.859375l3.734375 0.625q-0.71875 2.0625 -2.28125 3.140625q-1.546875 1.0625 -3.890625 1.0625q-3.6875 0 -5.46875 -2.40625q-1.390625 -1.9375 -1.390625 -4.890625q0 -3.515625 1.828125 -5.5q1.84375 -1.9999962 4.65625 -1.9999962q3.171875 0 5.0 2.0937462q1.828125 2.078125 1.75 6.390625l-9.40625 0q0.046875 1.65625 0.90625 2.59375q0.875 0.921875 2.171875 0.921875q0.875 0 1.46875 -0.46875q0.609375 -0.484375 0.921875 -1.5625zm0.203125 -3.78125q-0.03125 -1.625 -0.84375 -2.46875q-0.796875 -0.859375 -1.9375 -0.859375q-1.234375 0 -2.03125 0.890625q-0.796875 0.90625 -0.78125 2.4375l5.59375 0z" fill-rule="nonzero"/></g></svg>