<?xml version="1.0" encoding="utf-8"?>
<!-- Generator: Adobe Illustrator 27.1.1, SVG Export Plug-In . SVG Version: 6.00 Build 0)  -->
<svg version="1.1" id="Layer_1" xmlns="http://www.w3.org/2000/svg" xmlns:xlink="http://www.w3.org/1999/xlink" x="0px" y="0px"
	 viewBox="0 0 133 133" style="enable-background:new 0 0 133 133;" xml:space="preserve">
<style type="text/css">
	.st0{fill:#1C7F52;}
	.st1{fill:#FFFFFF;}
	.st2{fill:none;stroke:#000000;stroke-miterlimit:10;}
</style>
<path class="st0" d="M120.9,133H12.1c-6.6,0-12-5.4-12-12V12c0-6.6,5.4-12,12-12h108.8c6.6,0,12,5.4,12,12v109
	C132.9,127.6,127.5,133,120.9,133z"/>
<g>
	<g id="XMLID_00000147927472071016018280000010978683635909836982_">
		<g>
			<path d="M105.9,90.5c1,1.5,1.1,3.4,0.3,5s-2.5,2.6-4.3,2.6H99l-0.6,2.4c-0.7,3.9-3.2,7-6.7,8.6H99c1.7,0,3.2,0.8,4.2,2.2l2.2,3.3
				c0.7,1.1,0.8,2.5,0.2,3.6c-0.6,1.1-1.8,1.9-3.1,1.9c-1.1,0-2.2-0.5-2.8-1.4l-1.9-2.6H85c-1.3,0-2.4-0.6-3.2-1.6l-3.1-4.4H55.8
				l-7.2,4.6c-1.4,0.9-3.1,1.4-4.8,1.4H28l-2.2,3.3c-1.1,1.7-3,2.7-5,2.7h-0.9c-0.9,0-1.6-0.5-2.1-1.2c-0.4-0.8-0.4-1.7,0.1-2.4
				l5.3-8.3c0.4-0.7,1.2-1.1,2-1.1h6.9c1.5,0,2.9-1,3.4-2.4l2.8-7.9c-2.8-0.7-5-3.4-5-6.6v-1h50.4l1.5-2.3v-2.7H81
				c-1.9,0-3.7-0.7-5-2.1l-5.7-5.9c-0.9-0.9-1-2.3-0.3-3.3s2-1.4,3.1-0.9l7,2.8l-1-6.1c-0.1-0.6,0.1-1.2,0.4-1.6
				c0.4-0.4,0.9-0.7,1.5-0.7c1.1,0,2.4,0.7,3,1.6l7.7,11.1h3.5c2.9,0,5.3,1.3,6.9,3.8L105.9,90.5z M104.4,94.5
				c0.5-1,0.4-2.1-0.2-2.9l-3.8-5.5c-1.3-2-3-2.9-5.3-2.9h-4.4l-8.3-12c-0.2-0.4-0.9-0.7-1.3-0.7l1.5,9.6L72.4,76
				c-0.3-0.1-0.5,0-0.7,0.2s-0.1,0.5,0.1,0.7l5.8,5.8c0.9,0.9,2.2,1.5,3.6,1.5h6.2v5.3l-2.5,3.7H35.5c0.4,2.2,2.1,3.8,4.3,3.8h1.4
				l-3.7,10.4c-0.8,2.2-2.9,3.7-5.3,3.7h-7c-0.1,0-0.2,0.1-0.3,0.2l-5.3,8.3c-0.1,0.2,0,0.3,0,0.4s0.1,0.2,0.3,0.2h0.9
				c1.3,0,2.6-0.7,3.3-1.8l2.8-4.2h16.9c1.3,0,2.6-0.4,3.7-1.1l7.7-4.9h24.5l3.7,5.2c0.4,0.5,0.9,0.8,1.5,0.8h13.8l2.5,3.4
				c0.3,0.4,0.7,0.6,1.2,0.6c0.6,0,1.1-0.3,1.3-0.8c0.3-0.5,0.2-1.1-0.1-1.6l-2.2-3.3c-0.6-0.8-1.5-1.3-2.5-1.3H88.8l-2.9-2.7
				l2.1-0.3c4.3-0.5,7.7-3.7,8.4-8l1-4h4.5C103,96,103.9,95.5,104.4,94.5z"/>
			<path class="st1" d="M104.3,91.6c0.6,0.9,0.7,2,0.2,2.9S103.1,96,102,96h-4.5l-1,4c-0.8,4.2-4.2,7.4-8.4,8l-2.1,0.3l2.9,2.7h10.2
				c1,0,1.9,0.5,2.5,1.3l2.2,3.3c0.3,0.5,0.4,1.1,0.1,1.6s-0.8,0.8-1.3,0.8s-0.9-0.2-1.2-0.6l-2.5-3.4H85c-0.6,0-1.2-0.3-1.5-0.8
				l-3.7-5.2H55.3l-7.7,4.9c-1.1,0.7-2.4,1.1-3.7,1.1h-17l-2.8,4.2c-0.7,1.1-2,1.8-3.3,1.8h-0.9c-0.2,0-0.3-0.1-0.3-0.2
				s-0.1-0.2,0-0.4l5.3-8.3c0.1-0.1,0.2-0.2,0.3-0.2h7c2.4,0,4.5-1.5,5.3-3.7l3.7-10.4h-1.4c-2.1,0-3.9-1.6-4.3-3.8h49.3l2.5-3.7V84
				h-6.2c-1.3,0-2.6-0.5-3.6-1.5l-5.8-5.7c-0.2-0.2-0.2-0.5-0.1-0.7c0.2-0.2,0.4-0.3,0.7-0.2L82.5,80L81,70.4c0.4,0,1.1,0.3,1.3,0.7
				l8.3,12h4.6c2.3,0,4,1,5.3,2.9L104.3,91.6z M99.3,90.1l-0.2-1.5c-0.1-0.9-0.9-1.5-1.7-1.5h-1.9l0.2,1.5c0.1,0.8,0.9,1.5,1.7,1.5
				H99.3z"/>
			<path d="M99.1,88.6l0.2,1.5h-1.9c-0.9,0-1.6-0.6-1.7-1.5l-0.2-1.5h1.9C98.3,87.1,99,87.7,99.1,88.6z"/>
		</g>
		<g>
			<path class="st2" d="M20.8,122h-0.9c-0.9,0-1.6-0.5-2.1-1.2c-0.4-0.8-0.4-1.7,0.1-2.4l5.3-8.3c0.4-0.7,1.2-1.1,2-1.1h6.9
				c1.5,0,2.9-1,3.4-2.4l2.8-7.9c-2.8-0.7-5-3.4-5-6.6v-1h50.4l1.5-2.3v-2.7H81c-1.9,0-3.7-0.7-5-2.1l-5.7-5.8
				c-0.9-0.9-1-2.3-0.3-3.3s2-1.4,3.1-0.9l7,2.8l-1-6.1c-0.1-0.6,0.1-1.2,0.4-1.6c0.4-0.4,0.9-0.7,1.5-0.7c1.1,0,2.4,0.7,3,1.6
				l7.7,11.1h3.5c2.9,0,5.3,1.3,6.9,3.8l3.7,5.5c1,1.5,1.1,3.4,0.3,5s-2.5,2.6-4.3,2.6h-2.9l-0.6,2.4c-0.7,3.9-3.2,7-6.7,8.6h7.3
				c1.7,0,3.2,0.8,4.2,2.2l2.2,3.3c0.7,1.1,0.8,2.5,0.2,3.6c-0.6,1.1-1.8,1.9-3.1,1.9c-1.1,0-2.2-0.5-2.8-1.4l-1.9-2.6H85
				c-1.3,0-2.4-0.6-3.2-1.6l-3.1-4.4H55.8l-7.2,4.6c-1.4,0.9-3.1,1.4-4.8,1.4H28l-2.2,3.3C24.7,121,22.8,122,20.8,122z"/>
			<path class="st2" d="M25.2,111c-0.1,0-0.2,0.1-0.3,0.2l-5.3,8.3c-0.1,0.2,0,0.3,0,0.4s0.1,0.2,0.3,0.2h0.9c1.3,0,2.6-0.7,3.3-1.8
				l2.8-4.2h16.9c1.3,0,2.6-0.4,3.7-1.1l7.7-4.9h24.5l3.7,5.2c0.4,0.5,0.9,0.8,1.5,0.8h13.8l2.5,3.4c0.3,0.4,0.7,0.6,1.2,0.6
				c0.6,0,1.1-0.3,1.3-0.8c0.3-0.5,0.2-1.1-0.1-1.6l-2.2-3.3c-0.6-0.8-1.5-1.3-2.5-1.3H88.8l-2.9-2.7l2.1-0.3c4.3-0.5,7.7-3.7,8.4-8
				l1-4h4.5c1.1,0,2-0.6,2.5-1.5c0.5-1,0.4-2.1-0.2-2.9l-3.8-5.5c-1.3-2-3-2.9-5.3-2.9h-4.4l-8.3-12c-0.2-0.4-0.9-0.7-1.3-0.7
				l1.5,9.6l-10.2-4.1c-0.3-0.1-0.5,0-0.7,0.2s-0.1,0.5,0.1,0.7l5.8,5.8c0.9,0.9,2.2,1.5,3.6,1.5h6.2v5.3l-2.5,3.7H35.5
				c0.4,2.2,2.1,3.8,4.3,3.8h1.4l-3.7,10.4c-0.8,2.2-2.9,3.7-5.3,3.7h-7V111z"/>
			<path class="st2" d="M99.1,88.6l0.2,1.5h-1.9c-0.9,0-1.6-0.6-1.7-1.5l-0.2-1.5h1.9C98.3,87.1,99,87.7,99.1,88.6z"/>
		</g>
	</g>
</g>
</svg>
