<?xml version="1.0" encoding="utf-8"?>
<!-- Generator: Adobe Illustrator 26.3.1, SVG Export Plug-In . SVG Version: 6.00 Build 0)  -->
<svg version="1.1" id="Layer_1" xmlns="http://www.w3.org/2000/svg" xmlns:xlink="http://www.w3.org/1999/xlink" x="0px" y="0px"
	 viewBox="0 0 133 133" style="enable-background:new 0 0 133 133;" xml:space="preserve">
<style type="text/css">
	.st0{fill:#2CC774;}
	.st1{fill:#FFFFFF;}
	.st2{fill:none;stroke:#000000;stroke-miterlimit:10;}
</style>
<path class="st0" d="M120.5,133.5H11.7c-6.6,0-12-5.4-12-12v-109c0-6.6,5.4-12,12-12h108.8c6.6,0,12,5.4,12,12v109
	C132.5,128.1,127.1,133.5,120.5,133.5z"/>
<g>
	<g id="XMLID_00000147927472071016018280000010978683635909836982_">
		<g>
			<path d="M111.2,88.3c1,1.5,1.1,3.4,0.3,5s-2.5,2.6-4.3,2.6h-2.9l-0.6,2.4c-0.7,3.9-3.2,7-6.7,8.6h7.3c1.7,0,3.2,0.8,4.2,2.2
				l2.2,3.3c0.7,1.1,0.8,2.5,0.2,3.6c-0.6,1.1-1.8,1.9-3.1,1.9c-1.1,0-2.2-0.5-2.8-1.4l-1.9-2.6H90.3c-1.3,0-2.4-0.6-3.2-1.6
				l-3.1-4.4H61.1l-7.2,4.6c-1.4,0.9-3.1,1.4-4.8,1.4H33.3l-2.2,3.3c-1.1,1.7-3,2.7-5,2.7h-0.9c-0.9,0-1.6-0.5-2.1-1.2
				c-0.4-0.8-0.4-1.7,0.1-2.4l5.3-8.3c0.4-0.7,1.2-1.1,2-1.1h6.9c1.5,0,2.9-1,3.4-2.4l2.8-7.9c-2.8-0.7-5-3.4-5-6.6v-1H89l1.5-2.3
				v-2.7l-4.2,0c-1.9,0-3.7-0.7-5-2.1L75.6,76c-0.9-0.9-1-2.3-0.3-3.3c0.7-1,2-1.4,3.1-0.9l7,2.8l-1-6.1c-0.1-0.6,0.1-1.2,0.4-1.6
				c0.4-0.4,0.9-0.7,1.5-0.7c1.1,0,2.4,0.7,3,1.6L97,78.9h3.5c2.9,0,5.3,1.3,6.9,3.8L111.2,88.3z M109.7,92.3c0.5-1,0.4-2.1-0.2-2.9
				l-3.8-5.5c-1.3-2-3-2.9-5.3-2.9H96l-8.3-12c-0.2-0.4-0.9-0.7-1.3-0.7l1.5,9.6l-10.2-4.1c-0.3-0.1-0.5,0-0.7,0.2
				c-0.2,0.2-0.1,0.5,0.1,0.7l5.8,5.8c0.9,0.9,2.2,1.5,3.6,1.5l6.2,0v5.3l-2.5,3.7H40.8c0.4,2.2,2.1,3.8,4.3,3.8h1.4l-3.7,10.4
				c-0.8,2.2-2.9,3.7-5.3,3.7h-7c-0.1,0-0.2,0.1-0.3,0.2l-5.3,8.3c-0.1,0.2,0,0.3,0,0.4c0,0.1,0.1,0.2,0.3,0.2h0.9
				c1.3,0,2.6-0.7,3.3-1.8l2.8-4.2h16.9c1.3,0,2.6-0.4,3.7-1.1l7.7-4.9H85l3.7,5.2c0.4,0.5,0.9,0.8,1.5,0.8H104l2.5,3.4
				c0.3,0.4,0.7,0.6,1.2,0.6c0.6,0,1.1-0.3,1.3-0.8c0.3-0.5,0.2-1.1-0.1-1.6l-2.2-3.3c-0.6-0.8-1.5-1.3-2.5-1.3H94.1l-2.9-2.7
				l2.1-0.3c4.3-0.5,7.7-3.7,8.4-8l1-4h4.5C108.3,93.8,109.2,93.3,109.7,92.3z"/>
			<path class="st1" d="M109.6,89.4c0.6,0.9,0.7,2,0.2,2.9c-0.5,0.9-1.4,1.5-2.5,1.5h-4.5l-1,4c-0.8,4.2-4.2,7.4-8.4,8l-2.1,0.3
				l2.9,2.7h10.2c1,0,1.9,0.5,2.5,1.3l2.2,3.3c0.3,0.5,0.4,1.1,0.1,1.6c-0.3,0.5-0.8,0.8-1.3,0.8c-0.5,0-0.9-0.2-1.2-0.6l-2.5-3.4
				H90.3c-0.6,0-1.2-0.3-1.5-0.8l-3.7-5.2H60.6l-7.7,4.9c-1.1,0.7-2.4,1.1-3.7,1.1H32.2l-2.8,4.2c-0.7,1.1-2,1.8-3.3,1.8h-0.9
				c-0.2,0-0.3-0.1-0.3-0.2c0-0.1-0.1-0.2,0-0.4l5.3-8.3c0.1-0.1,0.2-0.2,0.3-0.2h7c2.4,0,4.5-1.5,5.3-3.7l3.7-10.4h-1.4
				c-2.1,0-3.9-1.6-4.3-3.8h49.3l2.5-3.7v-5.3l-6.2,0c-1.3,0-2.6-0.5-3.6-1.5L77,74.6c-0.2-0.2-0.2-0.5-0.1-0.7
				c0.2-0.2,0.4-0.3,0.7-0.2l10.2,4.1l-1.5-9.6c0.4,0,1.1,0.3,1.3,0.7l8.3,12h4.6c2.3,0,4,1,5.3,2.9L109.6,89.4z M104.6,87.9
				l-0.2-1.5c-0.1-0.9-0.9-1.5-1.7-1.5h-1.9l0.2,1.5c0.1,0.8,0.9,1.5,1.7,1.5H104.6z"/>
			<path d="M104.4,86.4l0.2,1.5h-1.9c-0.9,0-1.6-0.6-1.7-1.5l-0.2-1.5h1.9C103.6,84.9,104.3,85.5,104.4,86.4z"/>
		</g>
		<g>
			<path class="st2" d="M26.1,119.8h-0.9c-0.9,0-1.6-0.5-2.1-1.2c-0.4-0.8-0.4-1.7,0.1-2.4l5.3-8.3c0.4-0.7,1.2-1.1,2-1.1h6.9
				c1.5,0,2.9-1,3.4-2.4l2.8-7.9c-2.8-0.7-5-3.4-5-6.6v-1H89l1.5-2.3v-2.7l-4.2,0c-1.9,0-3.7-0.7-5-2.1L75.6,76
				c-0.9-0.9-1-2.3-0.3-3.3c0.7-1,2-1.4,3.1-0.9l7,2.8l-1-6.1c-0.1-0.6,0.1-1.2,0.4-1.6c0.4-0.4,0.9-0.7,1.5-0.7
				c1.1,0,2.4,0.7,3,1.6L97,78.9h3.5c2.9,0,5.3,1.3,6.9,3.8l3.7,5.5c1,1.5,1.1,3.4,0.3,5s-2.5,2.6-4.3,2.6h-2.9l-0.6,2.4
				c-0.7,3.9-3.2,7-6.7,8.6h7.3c1.7,0,3.2,0.8,4.2,2.2l2.2,3.3c0.7,1.1,0.8,2.5,0.2,3.6c-0.6,1.1-1.8,1.9-3.1,1.9
				c-1.1,0-2.2-0.5-2.8-1.4l-1.9-2.6H90.3c-1.3,0-2.4-0.6-3.2-1.6l-3.1-4.4H61.1l-7.2,4.6c-1.4,0.9-3.1,1.4-4.8,1.4H33.3l-2.2,3.3
				C30,118.8,28.1,119.8,26.1,119.8z"/>
			<path class="st2" d="M30.5,108.8c-0.1,0-0.2,0.1-0.3,0.2l-5.3,8.3c-0.1,0.2,0,0.3,0,0.4c0,0.1,0.1,0.2,0.3,0.2h0.9
				c1.3,0,2.6-0.7,3.3-1.8l2.8-4.2h16.9c1.3,0,2.6-0.4,3.7-1.1l7.7-4.9H85l3.7,5.2c0.4,0.5,0.9,0.8,1.5,0.8H104l2.5,3.4
				c0.3,0.4,0.7,0.6,1.2,0.6c0.6,0,1.1-0.3,1.3-0.8c0.3-0.5,0.2-1.1-0.1-1.6l-2.2-3.3c-0.6-0.8-1.5-1.3-2.5-1.3H94.1l-2.9-2.7
				l2.1-0.3c4.3-0.5,7.7-3.7,8.4-8l1-4h4.5c1.1,0,2-0.6,2.5-1.5c0.5-1,0.4-2.1-0.2-2.9l-3.8-5.5c-1.3-2-3-2.9-5.3-2.9H96l-8.3-12
				c-0.2-0.4-0.9-0.7-1.3-0.7l1.5,9.6l-10.2-4.1c-0.3-0.1-0.5,0-0.7,0.2c-0.2,0.2-0.1,0.5,0.1,0.7l5.8,5.8c0.9,0.9,2.2,1.5,3.6,1.5
				l6.2,0v5.3l-2.5,3.7H40.8c0.4,2.2,2.1,3.8,4.3,3.8h1.4l-3.7,10.4c-0.8,2.2-2.9,3.7-5.3,3.7H30.5z"/>
			<path class="st2" d="M104.4,86.4l0.2,1.5h-1.9c-0.9,0-1.6-0.6-1.7-1.5l-0.2-1.5h1.9C103.6,84.9,104.3,85.5,104.4,86.4z"/>
		</g>
	</g>
</g>
</svg>
