<?xml version="1.0" encoding="utf-8"?>
<!-- Generator: Adobe Illustrator 26.3.1, SVG Export Plug-In . SVG Version: 6.00 Build 0)  -->
<svg version="1.1" id="Layer_1" xmlns="http://www.w3.org/2000/svg" xmlns:xlink="http://www.w3.org/1999/xlink" x="0px" y="0px"
	 viewBox="0 0 133 133" style="enable-background:new 0 0 133 133;" xml:space="preserve">
<style type="text/css">
	.st0{fill:#FFFFFF;}
</style>
<g>
	<g id="XMLID_00000055690468685320461520000015166406895952157824_">
		<g>
			<path d="M69,27.6c22.1,0,40,17.9,40,40c0,22.1-17.9,40-40,40s-40-17.9-40-40C29,45.5,46.9,27.6,69,27.6z M105.7,67.6
				C105.7,47.4,89.2,31,69,31S32.3,47.4,32.3,67.6c0,20.2,16.4,36.7,36.7,36.7S105.7,87.8,105.7,67.6z"/>
			<path d="M97.1,64.2c0.4,3.2,0.2,6.4-0.5,9.6c-3.2,14.6-17.3,24.2-32.1,21.9c-13.4-2.1-23.9-13.8-23.9-28
				C40.7,52,53.4,39.3,69,39.3c14.2,0,26.3,10.6,28.1,24.7C97.1,64.1,97.1,64.1,97.1,64.2z M93.8,71.1c0.3-1.9,0.3-3.8,0.1-5.7
				c-0.7-0.3-1.2-0.6-1.6-0.8c-10.6-5.1-20.3-5.5-22.6-5.5c-0.9,0-1.4,0-1.6,0.1c-0.1,0-0.2,0.1-0.3,0.1c-0.1,0-0.3,0-0.4,0
				c-0.6,0-0.6-0.2-1.8-0.2c-4.3,0-12.6,3.1-21.5,7.9C44,67.1,44,67.1,44,67.1c0,1.9,0.1,3.7,0.5,5.5c2.1-1.3,4.6-2.4,7.2-3.1
				c4.7-1.3,9.7-1.1,13.7,0.1c0.7,0.2,1.2,0.9,1.2,1.6v21.3c1.7,0.2,3.3,0.2,5,0v-23c0-0.7,0.5-1.4,1.2-1.6c1.2-0.4,3.2-0.8,5.8-1
				C83.9,66.7,89.1,68.1,93.8,71.1z M93,74.5c-0.2-0.1-0.4-0.2-0.6-0.3c-4.3-2.8-9-4.2-13.9-3.9c-1.5,0.1-2.8,0.3-3.8,0.5v21.2
				C83.5,89.8,90.6,83.1,93,74.5z M93.2,61.3C90.4,50.5,80.5,42.6,69,42.6c-12.2,0-22.4,8.8-24.6,20.5c8.9-4.6,16.6-7.4,21.1-7.4
				c0.6,0,1.2,0,1.8,0.2c0.7-0.1,1.7-0.1,2.4-0.1C71.8,55.7,82,56,93.2,61.3z M63.2,91.9V72.4c-1.3-0.3-2.7-0.5-4.1-0.5
				c-4.8-0.2-9.3,1.2-13.6,3.9c0,0-0.1,0.1-0.1,0.1C48.2,83.9,55,90,63.2,91.9z"/>
			<path class="st0" d="M69,31c20.2,0,36.7,16.5,36.7,36.7c0,20.2-16.4,36.7-36.7,36.7S32.3,87.8,32.3,67.6C32.3,47.4,48.8,31,69,31
				z M96.7,73.8c0.7-3.1,0.8-6.3,0.5-9.6c0-0.1,0-0.1,0-0.2C95.3,49.9,83.2,39.3,69,39.3c-15.6,0-28.3,12.7-28.3,28.3
				c0,14.2,10.5,25.9,23.9,28C79.4,97.9,93.4,88.4,96.7,73.8z"/>
			<path class="st0" d="M93.9,65.4c0.2,1.8,0.1,3.7-0.1,5.7c-4.7-2.9-9.9-4.4-15.3-4.1c-2.5,0.1-4.5,0.6-5.8,1l-1.7-0.2
				c0.8-0.7,1.4-1.8,1.4-3c0-2.1-1.7-3.8-3.8-3.8c-0.2,0-0.3,0-0.5,0l-0.2-1.7c0.1,0,0.2-0.1,0.3-0.1c0.2,0,0.7-0.1,1.6-0.1
				c2.2,0,12,0.4,22.6,5.5C92.7,64.7,93.2,65,93.9,65.4z"/>
			<path class="st0" d="M70.9,67.7l1.7,0.2c-0.7,0.2-1.2,0.9-1.2,1.6v23c-1.7,0.2-3.3,0.2-5,0V71.2c0-0.7-0.5-1.4-1.2-1.6
				c-4-1.2-9-1.4-13.7-0.1c-2.6,0.7-5,1.8-7.2,3.1C44.1,70.8,44,69,44,67.1c0,0,0,0,0.1-0.1c8.9-4.8,17.3-7.9,21.5-7.9
				c1.2,0,1.2,0.2,1.8,0.2c0.1,0,0.3,0,0.4,0l0.2,1.7c-0.9,0.1-1.6,0.5-2.2,1.1c-1.5,1.5-1.5,3.9,0,5.4c0.7,0.7,1.7,1.1,2.7,1.1
				C69.4,68.6,70.3,68.3,70.9,67.7z"/>
			<path d="M68.5,61c2.1,0,3.8,1.7,3.8,3.8c0,1.2-0.5,2.2-1.4,3c-0.7,0.5-1.5,0.9-2.4,0.9c-1,0-2-0.4-2.7-1.1
				c-1.5-1.5-1.5-3.9,0-5.4c0.6-0.6,1.4-1,2.2-1.1C68.2,61,68.3,61,68.5,61z M69,64.8c0-0.3-0.2-0.5-0.5-0.5c-0.4,0-0.7,0.5-0.3,0.8
				c0.1,0.1,0.2,0.1,0.3,0.1C68.8,65.3,69,64.9,69,64.8z"/>
		</g>
	</g>
</g>
</svg>
