<?xml version="1.0" encoding="utf-8"?>
<!-- Generator: Adobe Illustrator 26.3.1, SVG Export Plug-In . SVG Version: 6.00 Build 0)  -->
<svg version="1.1" xmlns="http://www.w3.org/2000/svg" xmlns:xlink="http://www.w3.org/1999/xlink" x="0px" y="0px"
	 viewBox="0 0 133 133" style="enable-background:new 0 0 133 133;" xml:space="preserve">
<style type="text/css">
	.st0{fill:#BCD0D8;}
	.st1{fill:#FFFFFF;}
</style>
<g id="Layer_2">
	<path class="st0" d="M121,133H12c-6.6,0-12-5.4-12-12V12C0,5.4,5.4,0,12,0h109c6.6,0,12,5.4,12,12v109C133,127.6,127.6,133,121,133
		z"/>
</g>
<g id="Layer_1">
</g>
<g id="Layer_3">
</g>
<g id="Layer_5">
</g>
<g id="Layer_6">
</g>
<g id="Layer_7">
</g>
<g id="Layer_8">
</g>
<g id="Layer_9">
</g>
<g id="Layer_10">
</g>
<g id="Layer_11">
	<g>
		<g id="XMLID_00000147932922616080956820000008726257038916122004_">
			<g>
				<path class="st1" d="M102.2,46.1c0.42,0.79,0.93,1.52,1.54,2.17c-0.79,0.42-1.52,0.93-2.18,1.54c-0.41-0.79-0.93-1.52-1.53-2.18
					C100.82,47.21,101.55,46.7,102.2,46.1z"/>
				<path class="st1" d="M29,53.08c0.32,0.84,0.75,1.62,1.27,2.34c-0.83,0.32-1.61,0.75-2.34,1.27c-0.32-0.83-0.74-1.62-1.27-2.34
					C27.5,54.03,28.28,53.61,29,53.08z"/>
				<path class="st1" d="M65.17,87.35v27.04l-24.69-7.27v-18.3l18.96,4.65v0.01c0.65,0.15,1.35-0.1,1.74-0.65L65.17,87.35z"/>
				<path class="st1" d="M93.21,88.82v18.3l-24.7,7.27V87.35l3.99,5.48c0.4,0.55,1.09,0.81,1.75,0.65L93.21,88.82z"/>
				<polygon class="st1" points="98.58,84.07 74.54,89.97 69.71,83.33 92.94,78.53 				"/>
				<polygon class="st1" points="63.97,83.33 59.15,89.96 35.11,84.07 40.75,78.53 				"/>
				<path d="M107.84,47.5c0.49,0.38,0.72,0.99,0.62,1.6c-0.11,0.6-0.54,1.1-1.12,1.29c-2.04,0.53-3.82,1.78-5,3.52
					c-0.32,0.41-0.8,0.64-1.32,0.64c-0.09,0-0.19-0.01-0.28-0.02c-0.61-0.11-1.11-0.54-1.3-1.12c-0.53-2.04-1.78-3.82-3.52-5
					c-0.48-0.38-0.72-1-0.61-1.61c0.1-0.6,0.53-1.1,1.12-1.29c2.04-0.53,3.81-1.78,5-3.52c0.38-0.48,0.99-0.72,1.6-0.61
					c0.6,0.1,1.1,0.53,1.3,1.12C104.85,44.54,106.1,46.31,107.84,47.5z M103.74,48.27c-0.61-0.65-1.12-1.38-1.54-2.17
					c-0.65,0.6-1.38,1.11-2.17,1.53c0.6,0.66,1.12,1.39,1.53,2.18C102.22,49.2,102.95,48.69,103.74,48.27z"/>
				<path d="M39.88,75.09l16.81-3.49l0.68,3.27l-8.91,1.85l18.38,3.8l18.39-3.8l-8.91-1.84l0.67-3.27l16.82,3.47v0.01
					c0.31,0.07,0.6,0.22,0.83,0.44l8.41,8.25c0.43,0.43,0.6,1.05,0.44,1.64c-0.16,0.58-0.62,1.03-1.21,1.17L96.54,88v20.37
					c0,0.74-0.49,1.39-1.19,1.6l-28.04,8.25c-0.15,0.05-0.32,0.07-0.48,0.07c-0.15,0-0.31-0.02-0.46-0.07l-28.03-8.25
					c-0.71-0.21-1.2-0.86-1.2-1.6V88l-5.73-1.41c-0.59-0.14-1.06-0.59-1.22-1.17c-0.15-0.59,0.01-1.21,0.45-1.64l8.41-8.25
					C39.28,75.31,39.56,75.16,39.88,75.09z M74.54,89.97l24.04-5.9l-5.64-5.54l-23.23,4.8L74.54,89.97z M93.21,107.12v-18.3
					l-18.96,4.66c-0.66,0.16-1.35-0.1-1.75-0.65l-3.99-5.48v27.04L93.21,107.12z M65.17,114.39V87.35l-3.99,5.48
					c-0.39,0.55-1.09,0.8-1.74,0.65v-0.01l-18.96-4.65v18.3L65.17,114.39z M59.15,89.96l4.82-6.63l-23.22-4.8l-5.64,5.54
					L59.15,89.96z"/>
				<path d="M95.45,23.37c1.46,2.08,1.6,4.82,0.38,7.05c-1.24,2.23-3.63,3.57-6.17,3.44l-1.05,3.39l-3.19-0.99l1.48-4.78
					c0.13-0.42,0.43-0.77,0.82-0.98s0.85-0.25,1.27-0.11c1.29,0.39,2.69-0.02,3.56-1.06c0.86-1.04,1.01-2.49,0.38-3.69
					c-0.63-1.19-1.91-1.89-3.26-1.77c-1.34,0.13-2.48,1.05-2.88,2.34l-3.19-0.99c0.76-2.43,2.83-4.22,5.35-4.62
					C91.46,20.21,93.99,21.28,95.45,23.37z"/>
				<path d="M94.65,49.98l1.11,3.14c-3.4,1.21-6.63,2.82-9.64,4.83C83.09,60,80.33,62.4,77.9,65.1c-2.43,2.7-4.53,5.7-6.25,8.93
					l-2.94-1.58c3.7-6.94,9.04-12.87,15.56-17.28C87.5,53.02,90.99,51.27,94.65,49.98z"/>
				<path d="M87.62,40.44c-0.13,0.42-0.42,0.77-0.81,0.98c-0.39,0.21-0.85,0.25-1.27,0.12c-0.43-0.13-0.78-0.43-0.99-0.82
					c-0.2-0.39-0.25-0.85-0.12-1.27c0.14-0.42,0.43-0.77,0.82-0.98c0.39-0.21,0.85-0.25,1.27-0.12c0.43,0.13,0.78,0.43,0.98,0.82
					C87.71,39.56,87.75,40.02,87.62,40.44z"/>
				<path d="M75.19,41.87c0.05,4.05-2.73,7.6-6.68,8.5v7.85h-3.33v-9.34c0-0.44,0.17-0.87,0.48-1.18c0.32-0.31,0.74-0.49,1.18-0.49
					c2.86-0.1,5.1-2.48,5.01-5.34c0.09-1.36-0.38-2.7-1.3-3.7c-0.92-1.01-2.2-1.6-3.57-1.64c-1.36-0.03-2.68,0.49-3.65,1.45
					s-1.5,2.27-1.48,3.63h-0.01l-3.33-0.15c0.11-4.54,3.79-8.19,8.33-8.26C71.54,33.3,75.27,37.18,75.19,41.87z"/>
				<path d="M66.84,59.89c0.93,0,1.67,0.93,1.67,1.67c0,0.92-0.74,1.67-1.67,1.67c-0.92,0-1.66-0.92-1.66-1.67
					C65.18,60.64,65.92,59.89,66.84,59.89z"/>
				<path d="M65.07,72.66l-3.13,1.16c-1.13-3.07-7.43-18.46-20.4-20.62c-2.03-0.34-4.1-0.33-6.13,0l-0.53-3.3
					c2.39-0.39,4.82-0.39,7.21,0v0.01C56.88,52.37,63.83,69.3,65.07,72.66z"/>
				<path d="M49.74,19.19c1.06,2.85,0.06,6.06-2.43,7.8l1.24,3.33l-3.13,1.16l-1.75-4.69c-0.32-0.86,0.12-1.82,0.98-2.14
					c1.27-0.48,2.12-1.66,2.17-3.01c0.05-1.35-0.72-2.6-1.95-3.16c-1.23-0.56-2.67-0.32-3.66,0.59c-0.99,0.93-1.32,2.35-0.85,3.62
					l-3.13,1.16c-1.27-3.45,0.48-7.28,3.93-8.57C44.61,14,48.44,15.74,49.74,19.19z"/>
				<path d="M48.84,32.51c0.4,0.18,0.72,0.52,0.87,0.93c0.16,0.42,0.14,0.88-0.04,1.28c-0.18,0.4-0.52,0.72-0.93,0.87
					c-0.42,0.16-0.88,0.14-1.28-0.04c-0.4-0.19-0.72-0.53-0.87-0.94c-0.33-0.87,0.11-1.83,0.97-2.15
					C47.98,32.31,48.44,32.33,48.84,32.51z"/>
				<path d="M34.44,55.13c0.44,0.43,0.6,1.06,0.43,1.66c-0.18,0.58-0.66,1.03-1.27,1.16c-2.08,0.28-3.99,1.32-5.37,2.91
					c-0.31,0.32-0.74,0.49-1.18,0.49c-0.16,0-0.33-0.02-0.48-0.06c-0.59-0.18-1.03-0.66-1.16-1.27c-0.29-2.08-1.32-3.99-2.92-5.37
					c-0.43-0.43-0.6-1.07-0.42-1.66c0.17-0.59,0.66-1.03,1.26-1.16c2.08-0.29,4-1.32,5.38-2.92c0.43-0.43,1.06-0.6,1.66-0.42
					c0.58,0.17,1.03,0.66,1.16,1.26C31.81,51.83,32.85,53.74,34.44,55.13z M30.27,55.42c-0.52-0.72-0.95-1.5-1.27-2.34
					c-0.72,0.53-1.5,0.95-2.34,1.27c0.53,0.72,0.95,1.51,1.27,2.34C28.66,56.17,29.44,55.74,30.27,55.42z"/>
			</g>
		</g>
	</g>
</g>
</svg>
