<?xml version="1.0" encoding="utf-8"?>
<!-- Generator: Adobe Illustrator 26.3.1, SVG Export Plug-In . SVG Version: 6.00 Build 0)  -->
<svg version="1.1" id="Layer_1" xmlns="http://www.w3.org/2000/svg" xmlns:xlink="http://www.w3.org/1999/xlink" x="0px" y="0px"
	 viewBox="0 0 133 70" style="enable-background:new 0 0 133 70;" xml:space="preserve">
<style type="text/css">
	.st0{fill:#FFFFFF;}
	.st1{fill:none;stroke:#000000;stroke-miterlimit:10;}
	.st2{fill:#231F20;}
</style>
<g>
	<g id="XMLID_00000087396644024621433550000007939379001921794993_">
		<g>
			<path d="M115.5,30.4l0.2,1.2h-1.5c-0.7,0-1.3-0.5-1.4-1.2l-0.2-1.2h1.5C114.8,29.2,115.4,29.8,115.5,30.4z"/>
			<path class="st0" d="M51.8,56h-0.7c-0.2,0-0.2-0.1-0.2-0.2s-0.1-0.2,0-0.3l4.3-6.7c0.1-0.1,0.2-0.2,0.2-0.2H61c2,0,3.7-1.2,4.3-3
				l3-8.5h-1.1c-1.7,0-3.2-1.3-3.5-3.1h40.1l2-3v-4.3h-5c-1.1,0-2.1-0.4-2.9-1.2l-4.6-4.6c-0.2-0.2-0.2-0.4-0.1-0.6
				c0.2-0.2,0.3-0.2,0.6-0.2l8.3,3.3l-1.3-7.8c0.3,0,0.9,0.2,1.1,0.6l6.8,9.8h3.7c1.9,0,3.3,0.8,4.3,2.4l3.1,4.5
				c0.5,0.7,0.6,1.6,0.2,2.4s-1.1,1.2-2,1.2h-3.7l-0.7,3.3c-0.7,3.4-3.4,6-6.8,6.5l-1.7,0.2l2.4,2.2h8.3c0.8,0,1.6,0.4,2,1.1
				l1.8,2.7c0.2,0.4,0.2,0.9,0.1,1.3c-0.2,0.4-0.7,0.7-1.1,0.7s-0.7-0.2-1-0.5l-2-2.8h-11.4c-0.5,0-1-0.2-1.2-0.7l-3-4.2H79.9
				l-6.2,4c-0.9,0.6-2,0.9-3,0.9H56.8l-2.3,3.4C53.9,55.4,52.9,56,51.8,56z M115.6,31.6l-0.2-1.2c-0.1-0.7-0.7-1.2-1.4-1.2h-1.5
				l0.2,1.2c0.1,0.7,0.7,1.2,1.4,1.2H115.6z"/>
			<path d="M55.9,55.4c-0.9,1.4-2.4,2.2-4.1,2.2h-0.7c-0.7,0-1.3-0.4-1.7-1c-0.3-0.7-0.3-1.4,0.1-2l4.3-6.7c0.3-0.6,1-0.9,1.6-0.9
				H61c1.2,0,2.4-0.8,2.8-2l2.3-6.4C63.8,38,62,35.8,62,33.2v-0.7h41l1.2-1.9v-2.2h-3.4c-1.5,0-3-0.6-4.1-1.7L92,22
				c-0.7-0.7-0.8-1.9-0.2-2.7s1.6-1.1,2.5-0.7l5.7,2.3l-0.8-5c-0.1-0.5,0.1-1,0.3-1.3c0.3-0.3,0.7-0.6,1.2-0.6c0.9,0,2,0.6,2.4,1.3
				l6.3,9h2.8c2.4,0,4.3,1.1,5.6,3.1l3,4.5c0.8,1.2,0.9,2.8,0.2,4.1c-0.7,1.3-2,2.1-3.5,2.1h-2.4l-0.5,2c-0.6,3.1-2.6,5.7-5.4,7h5.9
				c1.4,0,2.6,0.7,3.4,1.8l1.8,2.7c0.6,0.9,0.7,2,0.2,2.9S119,56,118,56c-0.9,0-1.8-0.4-2.3-1.1l-1.5-2.1h-10.3c-1,0-2-0.5-2.6-1.3
				l-2.5-3.6H80.4l-5.9,3.7c-1.1,0.7-2.5,1.1-3.9,1.1H57.7L55.9,55.4z M51.2,56h0.7c1.1,0,2.1-0.6,2.7-1.5l2.3-3.4h13.7
				c1.1,0,2.1-0.3,3-0.9l6.2-4h19.9l3,4.2c0.3,0.4,0.7,0.7,1.2,0.7h11.2l2,2.8c0.2,0.3,0.6,0.5,1,0.5c0.5,0,0.9-0.2,1.1-0.7
				c0.2-0.4,0.2-0.9-0.1-1.3l-1.8-2.7c-0.5-0.7-1.2-1.1-2-1.1h-8.1l-2.4-2.2l1.7-0.2c3.5-0.4,6.3-3,6.8-6.5l0.7-3.3h3.7
				c0.9,0,1.6-0.5,2-1.2s0.3-1.7-0.2-2.4l-3.1-4.5c-1.1-1.6-2.4-2.4-4.3-2.4h-3.4l-6.8-9.8c-0.2-0.3-0.7-0.6-1.1-0.6l1.3,7.8
				L93.8,20c-0.2-0.1-0.4,0-0.6,0.2s-0.1,0.4,0.1,0.6l4.7,4.7c0.7,0.8,1.8,1.2,2.9,1.2h5V31l-2,3H63.8c0.3,1.8,1.7,3.1,3.5,3.1h1.1
				l-3,8.5c-0.7,1.8-2.4,3-4.3,3h-5.6c-0.1,0-0.2,0.1-0.2,0.2L51,55.5c-0.1,0.2-0.1,0.2,0,0.3C50.9,55.9,51,56,51.2,56z"/>
		</g>
		<g>
			<path class="st1" d="M51.8,57.6h-0.7c-0.7,0-1.3-0.4-1.7-1c-0.3-0.7-0.3-1.4,0.1-2l4.3-6.7c0.3-0.6,1-0.9,1.6-0.9H61
				c1.2,0,2.4-0.8,2.8-2l2.3-6.4C63.8,38,62,35.8,62,33.2v-0.7h41l1.2-1.9v-2.2h-3.4c-1.5,0-3-0.6-4.1-1.7L92,22
				c-0.7-0.7-0.8-1.9-0.2-2.7s1.6-1.1,2.5-0.7l5.7,2.3l-0.8-5c-0.1-0.5,0.1-1,0.3-1.3c0.3-0.3,0.7-0.6,1.2-0.6c0.9,0,2,0.6,2.4,1.3
				l6.3,9h2.8c2.4,0,4.3,1.1,5.6,3.1l3,4.5c0.8,1.2,0.9,2.8,0.2,4.1c-0.7,1.3-2,2.1-3.5,2.1h-2.4l-0.5,2c-0.6,3.1-2.6,5.7-5.4,7h5.9
				c1.4,0,2.6,0.7,3.4,1.8l1.8,2.7c0.6,0.9,0.7,2,0.2,2.9S119,56,118,56c-0.9,0-1.8-0.4-2.3-1.1l-1.5-2.1h-10.3c-1,0-2-0.5-2.6-1.3
				l-2.5-3.6H80.4l-5.9,3.7c-1.1,0.7-2.5,1.1-3.9,1.1H57.7l-1.8,2.7C55,56.8,53.4,57.6,51.8,57.6z"/>
			<path class="st1" d="M55.4,48.6c-0.1,0-0.2,0.1-0.2,0.2l-4.3,6.7c-0.1,0.2-0.1,0.2,0,0.3c0,0.1,0.1,0.2,0.2,0.2h0.7
				c1.1,0,2.1-0.6,2.7-1.5l2.3-3.4h13.7c1.1,0,2.1-0.3,3-0.9l6.2-4h20l3,4.2c0.3,0.4,0.7,0.7,1.2,0.7h11.2l2,2.8
				c0.2,0.3,0.6,0.5,1,0.5c0.5,0,0.9-0.2,1.1-0.7c0.2-0.4,0.2-0.9-0.1-1.3l-1.8-2.7c-0.5-0.7-1.2-1.1-2-1.1h-8.1l-2.4-2.2l1.7-0.2
				c3.5-0.4,6.3-3,6.8-6.5l0.7-3.3h3.7c0.9,0,1.6-0.5,2-1.2s0.3-1.7-0.2-2.4l-3.1-4.5c-1.1-1.6-2.4-2.4-4.3-2.4h-3.4l-6.8-9.8
				c-0.2-0.3-0.7-0.6-1.1-0.6l1.3,7.8L93.8,20c-0.2-0.1-0.4,0-0.6,0.2s-0.1,0.4,0.1,0.6l4.7,4.7c0.7,0.8,1.8,1.2,2.9,1.2h5V31l-2,3
				H63.8c0.3,1.8,1.7,3.1,3.5,3.1h1.1l-3,8.5c-0.7,1.8-2.4,3-4.3,3L55.4,48.6L55.4,48.6z"/>
			<path class="st1" d="M115.5,30.4l0.2,1.2h-1.5c-0.7,0-1.3-0.5-1.4-1.2l-0.2-1.2h1.5C114.8,29.2,115.4,29.8,115.5,30.4z"/>
		</g>
	</g>
</g>
<g>
	<g id="XMLID_00000039821859873842556300000007951130598460893357_">
		<g>
			<path class="st0" d="M30.5,35.5c0.7,2.3,0,4.7-1.9,6.3c-0.2,0.2-0.5,0.3-0.9,0.3c0.3-0.1,0.5-0.2,0.8-0.3
				C30.4,40.3,31.1,37.8,30.5,35.5c-0.6-1.2-1.7-2.1-3-2.6c-0.8-0.2-1.5-0.4-2.3-0.4c0.8,0,1.6,0.1,2.4,0.4
				C28.9,33.3,30,34.2,30.5,35.5z"/>
			<path class="st0" d="M23.6,35.9c0.4-0.2,0.9-0.4,1.3-0.4C24.5,35.5,24.1,35.7,23.6,35.9c-1.6,1-1.8,4.8-0.7,7.3
				c0.7,1.7,2.2,3.1,3.8,3.9c-1.6-0.8-3.1-2.2-3.9-3.9C21.7,40.6,21.8,36.9,23.6,35.9z"/>
			<path class="st0" d="M18.8,28.9c-2.5,1.7-4.3,4.4-4.9,7.4c-0.2,0.8-0.3,1.6-0.3,2.3c0-0.8,0-1.6,0.2-2.5c0.6-3,2.3-5.7,4.9-7.4
				c2.6-1.7,5.7-2.3,8.7-1.7c2.6,0.5,5,1.9,6.7,4c-1.7-2-4-3.4-6.6-3.9C24.5,26.5,21.3,27.2,18.8,28.9z"/>
			<path class="st0" d="M38.8,44.6c-0.9,2.7-3,5-5.6,6.2c-2.3,1.6-5.1,2.4-7.9,2.4c-0.9,0-1.9-0.1-2.8-0.3c-1.2-0.3-2.4-0.7-3.5-1.2
				c-0.1,0.1-0.1,0.2-0.2,0.3c-1.4,1.1-2.6,2.2-3.5,3.7c-0.1,0-0.2,0-0.2-0.1c-0.1-0.1-0.1-0.2,0-0.3c1.1-1.3,2.3-2.6,3.6-3.8
				c0.1-0.1,0.1-0.2,0.2-0.3c1.1,0.6,2.3,0.9,3.5,1.2h0.1c0.9,0.2,1.7,0.3,2.7,0.3c2.8,0,5.5-0.8,7.9-2.4c2.7-1.2,4.7-3.5,5.6-6.2
				h-0.1c1.7-1.1,2.6-2.8,2.6-4.7v-7.8c0-2.3,1.7-4.4,4.2-4.8c1.3-0.1,2.5,0.3,3.6,1.2c0.5,0.4,0.9,0.9,1.2,1.5
				c-0.2-0.4-0.5-0.7-0.9-1c-1-0.9-2.3-1.3-3.6-1.2c-2.5,0.2-4.3,2.3-4.2,4.8v7.8c0,0.9-0.2,1.8-0.7,2.7
				C40.4,43.4,39.7,44.1,38.8,44.6C38.9,44.6,38.8,44.6,38.8,44.6z"/>
			<path class="st0" d="M36.7,37c0.3,2,0.2,4.1-0.5,6c-0.1,0.3-0.1,0.5-0.2,0.8c-0.7,1.8-2,3.3-3.8,4.1h-0.1c2-1,3.4-2.8,4-5
				C36.8,41,37,39,36.7,37z"/>
			<path class="st0" d="M35.5,33.3c-0.1-0.2-0.2-0.3-0.3-0.5C35.4,32.9,35.5,33.1,35.5,33.3z"/>
			<path class="st0" d="M34.9,32.1c0.1,0.2,0.3,0.4,0.4,0.7c-0.2-0.3-0.3-0.5-0.5-0.8c-0.1-0.2-0.2-0.3-0.3-0.5
				C34.6,31.7,34.8,31.9,34.9,32.1z"/>
			<path class="st0" d="M32,47.9h0.1c-0.6,0.2-1.4,0.3-2.2,0.2C30.7,48.2,31.4,48.1,32,47.9z"/>
			<path class="st0" d="M27.7,47.6c0.1,0.1,0.3,0.1,0.4,0.1C28,47.7,27.8,47.7,27.7,47.6z"/>
			<path class="st0" d="M27.7,36.6c0.2,1.1-0.3,2.3-1.2,2.9c-0.6,0.5-0.6,1.6-0.1,2.2c0.2,0.3,0.7,0.5,1.1,0.5
				c-0.4,0-0.9-0.1-1.2-0.5c-0.5-0.6-0.5-1.6,0.1-2.2c0.9-0.6,1.4-1.8,1.2-2.9c-0.2-0.5-0.6-0.7-1.1-0.9c-0.1,0-0.1,0-0.2-0.1
				c0.1,0,0.2,0.1,0.3,0.1C27.1,35.8,27.4,36.2,27.7,36.6z"/>
			<path class="st0" d="M22.9,49.8c-1.8-0.4-3.6-1.1-5-2.3l-0.1-0.1c-0.8-0.7-1.6-1.5-2.2-2.4c-0.6-1-1.1-2-1.5-3.1
				c-0.1-0.3-0.2-0.5-0.2-0.8c-0.1-0.2-0.1-0.4-0.1-0.6s-0.1-0.4-0.1-0.6s-0.1-0.4-0.1-0.6s0-0.4,0-0.6c0-0.8,0.1-1.6,0.3-2.3
				c0.6-3,2.4-5.7,4.9-7.4c2.5-1.7,5.7-2.4,8.7-1.7c2.6,0.4,4.9,1.9,6.6,3.9c0.1,0.2,0.2,0.3,0.4,0.4c0.1,0.2,0.2,0.3,0.3,0.5
				c0.2,0.2,0.3,0.5,0.5,0.8c0.1,0.2,0.2,0.3,0.3,0.5s0.1,0.3,0.2,0.4c0.1,0.3,0.2,0.5,0.3,0.8c0.1,0.4,0.2,0.8,0.3,1.2
				c0.1,0.2,0.1,0.4,0.1,0.6c0.1,0.2,0.1,0.5,0.1,0.7c0.3,2,0.1,4-0.6,5.9c-0.6,2.2-2,4-4,5h-0.1c-0.6,0.2-1.3,0.3-2.1,0.2
				c-0.6,0-1.2-0.2-1.8-0.4c-0.1,0-0.3-0.1-0.4-0.1c-0.3-0.1-0.7-0.3-1-0.5c-1.6-0.8-3-2.2-3.8-3.9c-1.1-2.5-0.9-6.3,0.8-7.3
				c0.4-0.2,0.8-0.3,1.2-0.4c0.1,0,0.3,0,0.4,0s0.2,0,0.2,0c0.3,0,0.5,0.1,0.8,0.1c0.1,0,0.1,0,0.2,0.1c0.5,0.2,0.9,0.4,1.1,0.9
				c0.2,1.1-0.3,2.3-1.2,2.9c-0.6,0.6-0.6,1.6-0.1,2.2c0.3,0.3,0.8,0.5,1.2,0.5c0.1,0,0.2,0,0.2,0c0.3,0,0.6-0.2,0.9-0.3
				c1.9-1.6,2.6-4,1.9-6.3c-0.5-1.3-1.6-2.2-2.9-2.6c-0.8-0.3-1.6-0.4-2.4-0.4c-0.1,0-0.2,0-0.3,0c-1,0-2,0.2-2.8,0.7
				c-3.8,2-3.7,7.8-2.2,11.2c1.1,2.5,3,4.4,5.5,5.6c-0.1,0-0.2,0-0.4,0c-0.3,0-0.5,0-0.8,0c-0.2,0-0.3,0-0.5,0
				C23.5,49.9,23.2,49.9,22.9,49.8z"/>
			<path d="M38.7,44.1c-0.9,2.7-2.9,5-5.6,6.2c-2.4,1.6-5.1,2.4-7.9,2.4c-1,0-1.8-0.1-2.7-0.3l0.5-2.5c0.3,0,0.5,0.1,0.8,0.1
				c0.2,0,0.3,0,0.5,0c0.3,0,0.5,0,0.8,0c0.2,0,0.3,0,0.5,0c-2.4-1.2-4.4-3.1-5.5-5.6c-1.4-3.4-1.5-9.2,2.2-11.2
				c0.9-0.4,1.8-0.6,2.7-0.7c0.1,0,0.2,0,0.3,0c0.8,0,1.5,0.1,2.3,0.4c1.3,0.5,2.4,1.4,2.9,2.6c0.7,2.3,0,4.8-1.9,6.3
				c-0.2,0.2-0.5,0.3-0.8,0.3c-0.1,0-0.2,0-0.2,0c-0.4,0-0.8-0.2-1.1-0.5C26,41,26,39.9,26.6,39.4c0.9-0.6,1.4-1.8,1.2-2.9
				c-0.3-0.4-0.6-0.8-1.1-0.9c-0.1,0-0.2,0-0.3-0.1c-0.4,0-0.6,0-0.9,0c-0.1,0-0.2,0-0.2,0c-0.1,0-0.3,0-0.4,0
				c-0.4,0-0.9,0.1-1.3,0.4c-1.8,1-1.9,4.7-0.8,7.3c0.8,1.7,2.2,3.1,3.9,3.9c0.3,0.2,0.7,0.3,1,0.5c0.1,0.1,0.3,0.1,0.4,0.1
				c0.6,0.2,1.2,0.3,1.8,0.4c0.8,0.1,1.6,0,2.2-0.2h0.1c1.8-0.8,3.1-2.3,3.8-4.1L38.7,44.1L38.7,44.1z"/>
			<path class="st0" d="M17.9,47.5c1.4,1.1,3.2,1.9,5,2.3c0.3,0.1,0.6,0.1,0.9,0.2c-0.2,0-0.5-0.1-0.8-0.1
				C21.1,49.6,19.4,48.7,17.9,47.5z"/>
			<path class="st0" d="M19,51.7c1.1,0.5,2.3,0.9,3.5,1.2c0.9,0.2,1.9,0.3,2.8,0.3c2.8,0,5.6-0.8,7.9-2.4c2.6-1.2,4.7-3.5,5.6-6.2
				h0.1c0.8-0.5,1.5-1.2,1.9-2c0.5-0.8,0.7-1.7,0.7-2.7v-7.8c-0.1-2.5,1.7-4.6,4.2-4.8c1.3-0.1,2.6,0.3,3.6,1.2
				c0.3,0.3,0.6,0.6,0.9,1c0.3,0.6,0.4,1.3,0.4,2c0,0.7-0.1,1.5-0.5,2.1c-1.6,2.9-2.4,6.1-2.5,8.8v2.4c0,3-1.2,5.7-3.2,7.7
				c-2.1,2.1-4.9,3.2-7.7,3.2H15.3l0,0c1-1.4,2.2-2.6,3.5-3.7C18.9,51.9,18.9,51.8,19,51.7z"/>
			<path class="st0" d="M22.2,33.2c-3.7,2-3.6,7.8-2.2,11.2c1.1,2.5,3.1,4.4,5.5,5.6c-0.1,0-0.3,0-0.5,0c0.1,0,0.2,0,0.4,0
				c-2.5-1.2-4.4-3.1-5.5-5.6c-1.5-3.4-1.6-9.2,2.2-11.2c0.9-0.4,1.8-0.7,2.8-0.7C24,32.6,23.1,32.8,22.2,33.2z"/>
			<path class="st2" d="M36.7,55.7c2.8,0,5.6-1.1,7.7-3.2c2-2,3.2-4.7,3.2-7.7v-2.4c0.1-2.7,0.9-5.9,2.5-8.8
				c0.4-0.6,0.5-1.4,0.5-2.1c0-0.7-0.1-1.4-0.4-2c0.5,0.7,0.7,1.6,0.7,2.5c0,0.7-0.2,1.5-0.5,2.1c-1.6,2.9-2.5,6.1-2.6,9.4v2.4
				c0,2.8-1.1,5.6-3.2,7.7c-2,2-4.7,3.2-7.7,3.2H15.4c-0.1,0-0.2,0-0.2-0.1c0-0.7,0-0.8,0-0.9l0.1-0.1l0,0H36.7z"/>
			<path class="st0" d="M13.7,39.9c0-0.2-0.1-0.4-0.1-0.6C13.7,39.5,13.7,39.7,13.7,39.9z"/>
			<path d="M46.8,55.2c-2.6,2.6-6.1,4.1-9.8,4.1H15.4c-1.3,0-2.4-0.7-2.9-1.8S12,55,12.8,54c1-1.5,2.2-2.7,3.6-3.9
				c-3.4-2.6-5.5-6.6-5.7-10.9s1.5-8.5,4.7-11.4c3.1-2.9,7.4-4.3,11.7-3.8s8.1,2.8,10.5,6.4c0.4,0.5,0.6,1.1,0.9,1.6v-0.2
				c0-1.6,0.5-3,1.3-4.3s2-2.3,3.4-3v-6.8c0-0.8,0.7-1.6,1.6-1.6c0.8,0,1.6,0.7,1.6,1.6v6.2c0.6,0,1.4,0.1,2,0.3l2.8-5.6
				c0-0.8,0.9-1.1,1.7-0.8c0.7,0.4,1.1,1.3,0.7,2.1l-2.8,5.6c0.2,0.1,0.3,0.2,0.5,0.3c1.6,1.5,2.6,3.6,2.6,5.7
				c0,1.2-0.3,2.5-0.8,3.5c-1.4,2.5-2.1,5.2-2.2,8v2.4C50.9,49,49.4,52.6,46.8,55.2z M36.9,56.8c3,0,5.7-1.2,7.7-3.2
				c2.1-2.1,3.2-4.9,3.2-7.7v-2.4c0.1-3.3,1-6.5,2.6-9.4c0.3-0.6,0.5-1.4,0.5-2.1c0-0.9-0.3-1.8-0.7-2.5C50,28.9,49.6,28.4,49,28
				c-1.1-0.9-2.3-1.3-3.6-1.2c-2.5,0.4-4.2,2.5-4.2,4.8v7.8c0,1.9-0.9,3.6-2.6,4.7L36,43.8c0.1-0.3,0.2-0.5,0.2-0.8
				c0.7-1.9,0.8-4,0.5-6c0-0.2-0.1-0.5-0.1-0.7s-0.1-0.4-0.1-0.6c-0.1-0.4-0.2-0.8-0.3-1.2c-0.1-0.3-0.2-0.5-0.3-0.8
				c-0.1-0.2-0.1-0.3-0.2-0.4c-0.1-0.2-0.2-0.3-0.3-0.5s-0.2-0.4-0.4-0.7c-0.1-0.2-0.3-0.4-0.4-0.6c-0.1-0.1-0.2-0.3-0.4-0.4
				c-1.7-2.1-4.1-3.4-6.7-4c-3-0.6-6.1,0-8.7,1.7s-4.3,4.4-4.9,7.4c-0.1,0.8-0.2,1.6-0.2,2.5c0,0.2,0,0.4,0,0.6s0,0.4,0.1,0.6
				c0,0.2,0.1,0.4,0.1,0.6s0.1,0.4,0.1,0.6c0.1,0.3,0.1,0.5,0.2,0.8c0.3,1,0.8,2,1.4,3c0.6,1,1.4,1.8,2.3,2.5c0,0,0.1,0,0.1,0.1
				c1.5,1.2,3.2,2.1,5.1,2.4l-0.5,2.5h-0.1c-1.2-0.3-2.4-0.6-3.5-1.2c-0.1,0.1-0.1,0.2-0.2,0.3c-1.3,1.2-2.5,2.5-3.6,3.8
				c-0.1,0.1-0.1,0.2,0,0.3c0,0.1,0.1,0.1,0.2,0.1c0,0,0,0.1-0.1,0.1c0,0.1,0,0.2,0,0.9c0,0.1,0.1,0.1,0.2,0.1
				C15.5,56.8,36.9,56.8,36.9,56.8z"/>
		</g>
	</g>
</g>
</svg>
