<?xml version="1.0" encoding="utf-8"?>
<!-- Generator: Adobe Illustrator 26.3.1, SVG Export Plug-In . SVG Version: 6.00 Build 0)  -->
<svg version="1.1" xmlns="http://www.w3.org/2000/svg" xmlns:xlink="http://www.w3.org/1999/xlink" x="0px" y="0px"
	 viewBox="0 0 133 133" style="enable-background:new 0 0 133 133;" xml:space="preserve">
<style type="text/css">
	.st0{fill:#BCD0D8;}
	.st1{fill:#FFFFFF;}
</style>
<g id="Layer_2">
	<path class="st0" d="M121,133H12c-6.6,0-12-5.4-12-12V12C0,5.4,5.4,0,12,0h109c6.6,0,12,5.4,12,12v109C133,127.6,127.6,133,121,133
		z"/>
	<path class="st0" d="M121,133H12c-6.6,0-12-5.4-12-12V12C0,5.4,5.4,0,12,0h109c6.6,0,12,5.4,12,12v109C133,127.6,127.6,133,121,133
		z"/>
</g>
<g id="Layer_1">
	<g>
		<g id="XMLID_00000002366166893939623800000001959626477532102063_">
			<g>
				<path d="M97.67,68.54c3.4,10.51-4.54,22.86-6.54,25.83c1.36,2.41,5.44,10.7,2.04,17.9c-2.63,5.56-9.02,9.01-19,10.24
					c-2.33,0.3-4.68,0.45-7.03,0.46c-10.27,0-15.79-3.35-17.6-6.93c-1.14-1.99-0.86-4.47,0.68-6.16c2.19-2.31,6.15-2.53,10.56-0.59
					c8.08,3.55,15.01,3.93,19.05,1.06c2.31-1.7,3.52-4.47,3.47-8.09h-39.1l-0.34-0.35c-0.35-0.35-3.33-3.56-2.16-6.58
					c0.82-2.11,3.29-3.33,7.55-3.71c2.09-4.78,3.25-15-3.97-25.92c-6.54-9.8-4.03-22.47-3.13-26.1c-2.47-1.18-8.81-4.77-7.79-9.97
					l0.08-0.39L34.74,29c1.57-1.34,3.75-2.95,5.77-4.4l-2.53-13.09l8.08,3.55l0.34-4.46l1.46,0.6c3.54,1.69,6.22,4.76,7.41,8.49
					c3.39,1.63,8.55,5.77,8.96,16.18c0.12,3.22,4.63,5.81,10.33,9.07C83.18,49.85,93.83,55.96,97.67,68.54z M88.78,93.6
					c0.11-0.14,10.11-13.74,6.78-24.4c-3.52-11.71-13.79-17.56-22-22.28c-6.38-3.63-11.38-6.49-11.55-11
					c-0.41-9.64-5.25-13.12-8.09-14.34l-0.51-0.22l-0.15-0.53c-0.79-2.72-2.5-5.09-4.85-6.69l-0.61,8.2l-0.48,0.31
					c-0.06,0.04-7.01,4.67-10.78,7.79c-0.27,3.52,5.19,6.54,7.4,7.42l0.98,0.41l-0.31,1.02c-0.04,0.15-4.35,14.75,2.58,25.14
					c7.15,10.74,7.09,22.2,3.85,28.84l-0.28,0.59h-0.67c-3.54,0.26-5.76,1.11-6.23,2.31c-0.47,1.2,0.65,2.92,1.37,3.79h9.97
					c-0.46-1.61-0.27-3.32,0.53-4.78c1-1.57,2.85-2.43,5.52-2.43c5.36,0,7.06,1.47,7.34,1.77l-1.66,1.61
					c-0.01,0-1.33-1.06-5.68-1.06c-1.82,0.04-3.03,0.49-3.59,1.37c-0.51,1.12-0.54,2.39-0.09,3.53h27.9l0.09,1.06
					c0.4,4.97-1.13,8.88-4.42,11.19c-4.7,3.35-12.47,3.02-21.27-0.71c-1.45-0.69-3.02-1.09-4.62-1.15
					c-1.22-0.08-2.43,0.34-3.33,1.15c-0.84,0.97-0.97,2.37-0.3,3.47c1.76,3.45,8.64,6.88,22.29,5.2c9.11-1.13,14.88-4.13,17.19-8.93
					c3.4-7.19-2.31-16.27-2.31-16.36l-0.43-0.67l0.47-0.64H88.78z M45.56,21.09l0.32-3.58l-4.8-2.1l1.46,7.75
					C43.85,22.25,44.96,21.49,45.56,21.09z"/>
				<path class="st1" d="M95.56,69.2c3.33,10.66-6.68,24.25-6.78,24.4h0.03l-0.47,0.64l0.43,0.67c0,0.09,5.7,9.17,2.31,16.36
					c-2.31,4.8-8.08,7.8-17.19,8.93c-13.65,1.68-20.53-1.75-22.29-5.2c-0.67-1.1-0.54-2.5,0.3-3.47c0.9-0.82,2.11-1.23,3.33-1.15
					c1.61,0.06,3.17,0.46,4.62,1.15c8.81,3.73,16.57,4.06,21.27,0.71c3.29-2.31,4.82-6.22,4.42-11.19l-0.09-1.06h-27.9
					c-0.45-1.14-0.42-2.41,0.09-3.53c0.56-0.88,1.77-1.33,3.59-1.37c4.35,0,5.67,1.06,5.68,1.06l1.66-1.61
					c-0.28-0.3-1.99-1.77-7.34-1.77c-2.67,0-4.51,0.86-5.52,2.43c-0.81,1.46-0.99,3.17-0.53,4.78h-9.97
					c-0.72-0.87-1.84-2.59-1.37-3.79c0.48-1.21,2.7-2.06,6.23-2.31h0.67l0.28-0.59c3.24-6.64,3.3-18.1-3.85-28.84
					c-6.93-10.39-2.62-24.99-2.58-25.14l0.31-1.02l-0.98-0.41c-2.21-0.89-7.66-3.9-7.4-7.42c3.78-3.12,10.72-7.75,10.78-7.79
					l0.48-0.31l0.61-8.2c2.35,1.6,4.06,3.96,4.85,6.69l0.15,0.53l0.51,0.22c2.84,1.22,7.68,4.7,8.09,14.34
					c0.17,4.5,5.17,7.37,11.55,11C81.77,51.64,92.04,57.5,95.56,69.2z"/>
				<path class="st1" d="M45.88,17.51l-0.32,3.58c-0.59,0.4-1.7,1.15-3.02,2.07l-1.46-7.75L45.88,17.51z"/>
			</g>
		</g>
	</g>
</g>
<g id="Layer_3">
</g>
<g id="Layer_5">
</g>
<g id="Layer_6">
</g>
<g id="Layer_7">
</g>
<g id="Layer_8">
</g>
<g id="Layer_9">
</g>
<g id="Layer_10">
</g>
<g id="Layer_11">
</g>
</svg>
