<?xml version="1.0" encoding="utf-8"?>
<!-- Generator: Adobe Illustrator 27.1.1, SVG Export Plug-In . SVG Version: 6.00 Build 0)  -->
<svg version="1.1" id="Layer_1" xmlns="http://www.w3.org/2000/svg" xmlns:xlink="http://www.w3.org/1999/xlink" x="0px" y="0px"
	 viewBox="0 0 133 133" style="enable-background:new 0 0 133 133;" xml:space="preserve">
<style type="text/css">
	.st0{fill:#5B8DA5;}
	.st1{fill:#FFFFFF;}
</style>
<g id="Layer_2_00000158008262485088430320000005042763990819505575_">
	<path class="st0" d="M121,133H12c-6.6,0-12-5.4-12-12V12C0,5.4,5.4,0,12,0h109c6.6,0,12,5.4,12,12v109C133,127.6,127.6,133,121,133
		z"/>
	<path class="st0" d="M121,133H12c-6.6,0-12-5.4-12-12V12C0,5.4,5.4,0,12,0h109c6.6,0,12,5.4,12,12v109C133,127.6,127.6,133,121,133
		z"/>
</g>
<g id="Layer_1_00000075164293895086272480000002826177027933680793_">
	<g>
		<g id="XMLID_00000002366166893939623800000001959626477532102063_">
			<g>
				<path d="M97.7,68.5c3.4,10.5-4.5,22.9-6.5,25.8c1.4,2.4,5.4,10.7,2,17.9c-2.6,5.6-9,9-19,10.2c-2.3,0.3-4.7,0.4-7,0.5
					c-10.3,0-15.8-3.3-17.6-6.9c-1.1-2-0.9-4.5,0.7-6.2c2.2-2.3,6.2-2.5,10.6-0.6c8.1,3.6,15,3.9,19,1.1c2.3-1.7,3.5-4.5,3.5-8.1
					H44.2l-0.3-0.3c-0.3-0.3-3.3-3.6-2.2-6.6c0.8-2.1,3.3-3.3,7.5-3.7c2.1-4.8,3.2-15-4-25.9c-6.5-9.8-4-22.5-3.1-26.1
					c-2.5-1.2-8.8-4.8-7.8-10l0.1-0.4l0.3-0.2c1.6-1.3,3.8-3,5.8-4.4L38,11.5l8.1,3.6l0.3-4.5l1.5,0.6c3.5,1.7,6.2,4.8,7.4,8.5
					c3.4,1.6,8.5,5.8,9,16.2c0.1,3.2,4.6,5.8,10.3,9.1C83.2,49.8,93.8,56,97.7,68.5z M88.8,93.6c0.1-0.1,10.1-13.7,6.8-24.4
					c-3.5-11.7-13.8-17.6-22-22.3c-6.4-3.6-11.4-6.5-11.5-11c-0.4-9.6-5.2-13.1-8.1-14.3l-0.5-0.2l-0.2-0.5
					c-0.8-2.7-2.5-5.1-4.8-6.7l-0.6,8.2l-0.5,0.3c-0.1,0-7,4.7-10.8,7.8c-0.3,3.5,5.2,6.5,7.4,7.4l1,0.4l-0.3,1
					c0,0.2-4.3,14.8,2.6,25.1c7.2,10.7,7.1,22.2,3.8,28.8l-0.3,0.6h-0.7c-3.5,0.3-5.8,1.1-6.2,2.3c-0.5,1.2,0.7,2.9,1.4,3.8h10
					c-0.5-1.6-0.3-3.3,0.5-4.8c1-1.6,2.8-2.4,5.5-2.4c5.4,0,7.1,1.5,7.3,1.8l-1.7,1.6c0,0-1.3-1.1-5.7-1.1c-1.8,0-3,0.5-3.6,1.4
					c-0.5,1.1-0.5,2.4-0.1,3.5h27.9l0.1,1.1c0.4,5-1.1,8.9-4.4,11.2c-4.7,3.3-12.5,3-21.3-0.7c-1.5-0.7-3-1.1-4.6-1.2
					c-1.2-0.1-2.4,0.3-3.3,1.2c-0.8,1-1,2.4-0.3,3.5c1.8,3.4,8.6,6.9,22.3,5.2c9.1-1.1,14.9-4.1,17.2-8.9c3.4-7.2-2.3-16.3-2.3-16.4
					l-0.4-0.7L88.8,93.6L88.8,93.6L88.8,93.6z M45.6,21.1l0.3-3.6l-4.8-2.1l1.5,7.8C43.8,22.2,45,21.5,45.6,21.1z"/>
				<path class="st1" d="M95.6,69.2c3.3,10.7-6.7,24.2-6.8,24.4h0l-0.5,0.6l0.4,0.7c0,0.1,5.7,9.2,2.3,16.4
					c-2.3,4.8-8.1,7.8-17.2,8.9c-13.7,1.7-20.5-1.8-22.3-5.2c-0.7-1.1-0.5-2.5,0.3-3.5c0.9-0.8,2.1-1.2,3.3-1.2
					c1.6,0.1,3.2,0.5,4.6,1.2c8.8,3.7,16.6,4.1,21.3,0.7c3.3-2.3,4.8-6.2,4.4-11.2l-0.1-1.1H57.5c-0.5-1.1-0.4-2.4,0.1-3.5
					c0.6-0.9,1.8-1.3,3.6-1.4c4.3,0,5.7,1.1,5.7,1.1l1.7-1.6c-0.3-0.3-2-1.8-7.3-1.8c-2.7,0-4.5,0.9-5.5,2.4c-0.8,1.5-1,3.2-0.5,4.8
					h-10c-0.7-0.9-1.8-2.6-1.4-3.8c0.5-1.2,2.7-2.1,6.2-2.3h0.7l0.3-0.6c3.2-6.6,3.3-18.1-3.8-28.8c-6.9-10.4-2.6-25-2.6-25.1l0.3-1
					l-1-0.4c-2.2-0.9-7.7-3.9-7.4-7.4c3.8-3.1,10.7-7.8,10.8-7.8l0.5-0.3l0.6-8.2c2.3,1.6,4.1,4,4.8,6.7l0.2,0.5l0.5,0.2
					c2.8,1.2,7.7,4.7,8.1,14.3c0.2,4.5,5.2,7.4,11.5,11C81.8,51.6,92,57.5,95.6,69.2z"/>
				<path class="st1" d="M45.9,17.5l-0.3,3.6c-0.6,0.4-1.7,1.1-3,2.1l-1.5-7.8L45.9,17.5z"/>
			</g>
		</g>
	</g>
</g>
<g id="Layer_3">
</g>
<g id="Layer_5">
</g>
<g id="Layer_6">
</g>
<g id="Layer_7">
</g>
<g id="Layer_8">
</g>
<g id="Layer_9">
</g>
<g id="Layer_10">
</g>
<g id="Layer_11">
</g>
</svg>
