<?xml version="1.0" encoding="utf-8"?>
<!-- Generator: Adobe Illustrator 27.1.1, SVG Export Plug-In . SVG Version: 6.00 Build 0)  -->
<svg version="1.1" id="Layer_1" xmlns="http://www.w3.org/2000/svg" xmlns:xlink="http://www.w3.org/1999/xlink" x="0px" y="0px"
	 viewBox="0 0 133 133" style="enable-background:new 0 0 133 133;" xml:space="preserve">
<style type="text/css">
	.st0{fill:#5B8DA5;}
	.st1{fill:#FFFFFF;}
</style>
<g id="Layer_2_00000160897274667263137340000006731498296801901238_">
	<path class="st0" d="M121,133H12c-6.6,0-12-5.4-12-12V12C0,5.4,5.4,0,12,0h109c6.6,0,12,5.4,12,12v109C133,127.6,127.6,133,121,133
		z"/>
</g>
<g id="Layer_1_00000127007439677437830300000005925978499312837027_">
</g>
<g id="Layer_3">
</g>
<g id="Layer_5">
</g>
<g id="Layer_6">
	<g>
		<g id="XMLID_00000011021540251874343660000016439043276502850698_">
			<g>
				<path class="st1" d="M51.8,36c2,4,4,8,6,12c0.3,0.6,0.5,1.2,0.8,1.8c0.3,0.6,0.6,1.1,0.9,1.7c0.2,0.3,0.5,0.7,0.9,0.9
					c1.2,1,2.8,1.3,4.3,1.5c0.4,0,0.7,0.1,1.1,0.2c0.5,0.1,0.7,0.1,1.3,0.1c0.6,0,1.1,0.1,1.7,0.2c1.5,0.1,3-0.1,4.5-0.4
					c0.5-0.1,0.5-0.1,1.1-0.2c1.6-0.3,3.2-0.7,4.8-1.1c1.7-0.3,3.4-0.6,5.2-0.4c0.5,0,1,0.1,1.4,0.2c1.3,0.1,2.6,0.2,3.9,0.3
					c0.8,0.1,1.7,0.3,2.4,0.7c0.1,0.1,0.2,0.2,0.4,0.2c0.4,0.3,0.8,0.7,1.2,1l1.4-1c1.3-0.9,2.6-1.9,3.7-3c0.7-0.7,1.4-1.5,2-2.3
					c0.2-0.3,0.3-0.6,0.5-1c0.2-0.5,0.4-1,0.5-1.5c0.2-0.8,0.3-1.7,0.3-2.5c0-0.5-0.1-1-0.2-1.5c-0.3-1.3-1-2.5-1.9-3.5
					c-1.2-1.4-2.7-2.5-4.4-3.2c-0.3-0.1-0.6-0.2-0.9-0.4c-0.7-0.3-1.4-0.5-2-0.8c-0.3-0.1-0.5-0.2-0.8-0.3c-0.2-0.1-0.3-0.2-0.5-0.3
					c-0.1-0.1-0.1-0.2-0.2-0.4L91,32.7l0,0c-0.1-0.1-0.1-0.4-0.1-0.5c0-0.3,0.1-0.6,0.3-0.8c0.1-0.1,0.2-0.2,0.3-0.3
					c0.1-0.1,0.3-0.2,0.4-0.2c0.2,0,0.3,0,0.5,0c0.3,0,0.6,0.1,0.8,0.1c0.8,0.2,1.7,0.4,2.5,0.7c1.8,0.7,3.4,1.8,4.8,3.1
					c0.4,0.4,0.9,0.8,1.2,1.2c1,1.1,1.7,2.5,2.2,4c0.4,1.1,0.7,2.2,0.8,3.4c0,0.5,0,0.9-0.1,1.4c-0.1,0.8-0.2,1.7-0.4,2.5
					c-0.3,1.4-0.7,2.9-1.4,4.1c-0.9,1.4-1.9,2.9-2.8,4.3c-0.6,0.8-1.1,1.6-1.7,2.4l-1,1.2c0.3,0.6,0.7,1.1,1,1.7
					c0.2,0.3,0.4,0.7,0.6,1.1l0.1,0.1l0.1,0.2c0.7,2.1,0.9,4.3,0.9,6.4c0,0.6,0,1.1,0,1.7l0,0.2l0,0.2c0.2,1.5,0.8,3,1.4,4.4
					c0.2,0.4,0.4,0.9,0.6,1.3c0.8,1.6,1.6,3.2,2.4,4.8c0.3,0.6,0.6,1.2,0.9,1.9c0.2,0.5,0.4,1,0.6,1.6c0.2,1.1,0.2,2.2,0.2,3.3
					c0,0.4,0,0.9-0.1,1.3L105,99.8l0,0.1c-0.1,0.3-0.2,0.5-0.3,0.8c-0.4,0.7-1,1.1-1.7,1.3l-3.3,0.1c-0.2,0-0.4-0.1-0.6-0.2
					c-0.2-0.1-0.3-0.1-0.4-0.2c-0.5-0.4-0.6-1-0.7-1.6c-0.1-0.4-0.2-0.9,0.1-1.4c0.1-0.1,0.2-0.3,0.3-0.4c0.1-0.1,0.2-0.2,0.3-0.3
					c0.2-0.2,0.5-0.3,0.7-0.5c0.2-0.2,0.4-0.3,0.5-0.5c1-1.2,1.2-2.7,1.2-4.2c0-0.2,0-0.4,0-0.6c-0.1-1.9-0.2-3.8-0.2-5.6
					c-1.8-0.7-3.6-1.4-5.3-2.2c-0.5-0.2-1-0.5-1.5-0.8c-0.2-0.1-0.4-0.2-0.6-0.4c-0.1,0-0.1-0.1-0.2-0.1c-0.5-0.4-1-0.9-1.5-1.4
					c-1.2-1.2-2.3-2.6-3.3-4.1c-0.2-0.2-0.3-0.5-0.4-0.8c-0.2-0.4-0.4-0.8-0.6-1.2c-0.2-0.3-0.4-0.7-0.6-1c-0.8-1-1.8-1.7-3-2.1
					c-0.6-0.2-1.3-0.3-2-0.3c-0.9,0-1.8,0-2.7,0.1l-7.9,2.8c-1.6,0.7-3.3,1.2-5,1.5c-1.7,0.3-3.4,0.5-5.1,0.5
					c-0.6,0-1.2-0.1-1.8-0.1c-0.5,1.3-0.9,2.6-1.2,4c-0.4,1.6-0.5,3.3-0.3,5c0.1,0.7,0.2,1.4,0.4,2.1c0.1,0.3,0.1,0.3,0.2,0.7
					c0.1,0.3,0.1,0.3,0.2,0.5l1.2,6.4l-1.3,4.8l0,0c-0.3,0.6-0.7,1.1-1.3,1.4c-0.1,0.1-0.2,0.1-0.4,0.2l-4.1-0.1l-0.1,0
					c-0.2-0.2-0.5-0.3-0.7-0.5c-0.5-0.5-0.7-1.1-0.8-1.8l0-0.1c0.2-0.6,0.5-1.1,0.9-1.6c0.1-0.1,0.3-0.3,0.4-0.4
					c0.2-0.2,0.4-0.3,0.6-0.5c0.2-0.2,0.5-0.5,0.7-0.8c0.1-0.2,0.2-0.4,0.3-0.7c0.1-0.2,0.1-0.4,0.2-0.5c0.2-1.1-0.1-2.2-0.5-3.2
					l-4.6-10.9l-0.9-0.9l-0.3-0.3c-1.1-1.1-2.2-2.3-3.2-3.5c-0.8-1-1.5-2.1-1.9-3.4c0-0.1-0.1-0.3-0.1-0.4c-0.6-3.2-0.9-6.4-1.1-9.7
					c0-0.9-0.1-1.8-0.2-2.7c-0.1-1.5-0.5-3-1-4.5c-0.4-1.3-0.9-2.6-1.6-3.8c-0.4-0.8-0.9-1.6-1.4-2.3c-0.1-0.1-0.2-0.3-0.3-0.4
					c-0.1-0.1-0.2-0.2-0.3-0.3c-0.1,0-0.4-0.2-0.6-0.3c-0.5-0.3-1-0.5-1.6-0.6c-0.4-0.1-0.9-0.2-1.3-0.2c-0.4,0-0.4,0-0.7,0
					c-2.2-0.1-4.4,0-6.6-0.3l-0.1,0c-0.2,0-0.5-0.1-0.7-0.2c-1.3-0.5-2.1-1.8-2.6-3.1c-0.1-0.3-0.2-0.5-0.3-0.8
					c-0.1-0.3-0.1-0.7-0.2-1c-0.1-0.4-0.1-0.8-0.1-1.1c0-0.3,0-0.7,0.1-1c0.1-0.2,0.3-0.5,0.4-0.7l0.1,0c0.1,0,0.1,0,0.3-0.1
					c0.3-0.1,0.6-0.2,0.9-0.2c1.5-0.3,3-0.6,4.4-0.9c0.5-0.2,1.1-0.3,1.6-0.5c0.4-0.2,0.8-0.4,1.1-0.7c0.8-0.6,1.3-1.5,1.8-2.4
					c0.3-0.6,0.6-1.3,0.9-1.9c0.2-0.3,0.3-0.6,0.5-0.9l0,0c1-0.5,2-0.8,3.1-1c1.4-0.3,2.9-0.5,4.4-0.7c0.2,0,0.3,0,0.5,0H43
					c1.3,0,2.5,0.1,3.8,0.3c1,0.2,2,0.4,2.7,1.1c0.3,0.3,0.5,0.6,0.7,1c0.1,0.2,0.2,0.4,0.3,0.6C51,34.1,51.4,35,51.8,36z M52,51.7
					c-0.1,0.4-0.3,0.9-0.6,1.3c0,0-0.1,0.1-0.1,0.1c-0.1,0-0.2,0-0.4,0c-0.2,0-0.5-0.1-0.7-0.2c-0.4-0.2-0.8-0.4-1.2-0.6
					c-0.4-0.3-0.9-0.6-1.2-0.9c-0.4-0.3-0.7-0.7-1-1.1c-1.8-2.2-2.6-5.2-2.5-8c0-0.7,0.1-1.3,0.2-1.9c0-0.2,0.1-0.5,0.1-0.7
					c0.2-0.7,0.3-1.4,0.5-2.1c-1.1-0.3-2.1-0.5-3.2-0.8l-0.5,1.9c-0.2,1.1-0.4,2.2-0.4,3.3c-0.2,3.2,0.5,6.5,2.2,9.2
					c0.4,0.6,0.8,1.1,1.2,1.6c0.4,0.4,0.8,0.9,1.2,1.2c0.4,0.3,0.8,0.6,1.2,0.9c0.3,0.2,0.5,0.3,0.8,0.5c1.3,0.7,2.7,1.3,4.2,1
					c0.2,0,0.5-0.1,0.7-0.2c0.2-0.1,0.4-0.2,0.6-0.3c0.3-0.2,0.6-0.5,0.8-0.7c1-1.1,1.3-2.7,1.5-4.1c0.1-0.4,0.1-0.8,0.2-1.2
					c0.1-0.9,0.2-1.9,0.3-2.8l-3.3-0.4l-0.2,2.4C52.3,50,52.2,50.8,52,51.7z"/>
				<path d="M93.9,27.7c0.5,0.1,1,0.2,1.5,0.3c0.5,0.1,1,0.3,1.5,0.5c1.8,0.7,3.5,1.8,5.1,3c1,0.8,1.9,1.6,2.7,2.6
					c1,1.2,1.7,2.7,2.3,4.2c0.5,1.2,0.8,2.5,1,3.8c0.1,0.6,0.1,1.2,0.1,1.7c0,0.6-0.1,1.2-0.2,1.8c-0.1,0.9-0.2,1.7-0.4,2.6
					c-0.4,1.6-0.9,3.2-1.7,4.7c-0.3,0.4-0.5,0.8-0.8,1.3c-0.6,1-1.3,1.9-1.9,2.9c-0.5,0.7-1,1.5-1.5,2.2l-0.2,0.2
					c0.1,0.2,0.2,0.5,0.4,0.7l0.2,0.3c0.2,0.6,0.4,1.1,0.6,1.7c0.5,1.7,0.7,3.4,0.8,5.2c0,0.7,0,1.3,0,2c0,0.2,0,0.7,0,0.9
					c0,0.1,0,0.3,0.1,0.4c0.1,0.7,0.3,1.3,0.6,1.9c0.3,0.8,0.7,1.6,1.1,2.4c0.5,1,1,2,1.5,3c0.3,0.6,0.6,1.1,0.8,1.7
					c0.2,0.5,0.5,1,0.8,1.5c0.4,0.9,0.8,1.8,1,2.7c0.4,1.8,0.4,3.8,0.2,5.6l-1.1,10.6c-0.1,0.5-0.3,1-0.5,1.5
					c-0.5,1.2-1.3,2.1-2.4,2.7c-0.6,0.3-1.2,0.6-1.8,0.8l-4.1,0.2c-0.4-0.1-0.8-0.2-1.1-0.3c-0.7-0.2-1.3-0.6-1.8-1
					c-0.7-0.6-1.2-1.5-1.5-2.4c-0.1-0.4-0.2-0.8-0.2-1.2c-0.1-0.3-0.1-0.7-0.1-1c0-0.7,0.1-1.5,0.4-2.1c0.3-0.8,0.9-1.4,1.5-1.9
					c0.2-0.1,0.3-0.2,0.5-0.4c0.1-0.1,0.3-0.2,0.4-0.3c0.1-0.1,0.1-0.1,0.1-0.2c0.1-0.3,0.2-0.6,0.2-0.8c0.1-0.5,0.1-0.9,0-1.4
					l-0.2-3.4c-0.6-0.2-1.1-0.4-1.6-0.7c-0.5-0.2-1-0.4-1.4-0.6c-1.2-0.6-2.3-1.1-3.4-1.8c-0.3-0.3-0.7-0.6-1-0.9
					c-1.6-1.5-3.1-3.2-4.3-5c-0.3-0.5-0.7-1.1-1-1.6c-0.2-0.3-0.3-0.7-0.6-1.1c-0.1-0.2-0.2-0.3-0.3-0.5c-0.2-0.2-0.4-0.4-0.6-0.6
					c-0.4-0.2-0.8-0.3-1.2-0.4c-0.6-0.1-1.2-0.1-1.8,0l-0.3,0l-0.4,0l-7.4,2.7c-0.3,0.1-0.7,0.3-1,0.4c-0.4,0.1-0.7,0.3-1.1,0.4
					c-2.7,0.8-5.4,1.4-8.2,1.5l-0.4,0h-0.2c-0.1,0.3-0.2,0.6-0.3,0.9c-0.4,1.6-0.5,3.3-0.2,4.9c0.1,0.7,0.4,1.3,0.6,2l1.4,7.5
					l-1.6,5.9c-0.2,0.3-0.2,0.3-0.4,0.7c-0.7,1.1-1.6,2.1-2.8,2.6c-0.4,0.2-0.9,0.3-1.3,0.4l-5.2-0.2c-0.3-0.1-0.5-0.2-0.7-0.3
					c-0.4-0.2-0.8-0.5-1.1-0.8c-1.1-0.9-1.8-2.2-2.1-3.6c0-0.3-0.1-0.6-0.1-0.9c0-0.1,0-0.3,0-0.4c0-0.1,0.1-0.4,0.1-0.5
					c0.1-0.5,0.3-1,0.5-1.4c0.4-0.8,0.9-1.5,1.5-2.1c0.2-0.2,0.5-0.4,0.7-0.6c0.1-0.1,0.2-0.2,0.3-0.3c0,0,0,0,0-0.1
					c0-0.1,0-0.1,0-0.2c0-0.3-0.1-0.6-0.2-0.8l0-0.1l-4.3-10.2c-0.5-0.5-1-1-1.4-1.5c-1-1.1-2.1-2.2-3-3.4c-0.7-0.9-1.3-1.9-1.8-3
					c-0.2-0.5-0.4-0.9-0.5-1.4c-0.2-0.6-0.2-1.2-0.3-1.8c-0.1-0.7-0.2-1.5-0.3-2.2c-0.3-2.2-0.5-4.3-0.6-6.5c0-0.9-0.1-1.8-0.1-2.7
					c0-0.3,0-0.3,0-0.5c-0.3-1.8-0.8-3.6-1.5-5.2c-0.5-1.1-1-2.3-1.8-3.2c0,0-0.1-0.1-0.1-0.1c-0.1,0-0.2-0.1-0.3-0.1
					c-0.5-0.2-1-0.2-1.6-0.3c-0.5,0-1,0-1.5,0l-5.5-0.2c-0.6-0.1-1.2-0.2-1.8-0.4c-0.4-0.2-0.8-0.3-1.1-0.6
					c-0.3-0.2-0.5-0.4-0.8-0.6c-1.9-1.6-2.9-4-3.3-6.4c-0.2-1.2-0.3-2.5,0.1-3.7c0.2-0.6,0.5-1.2,1-1.7c0.3-0.3,0.5-0.6,0.8-0.9
					c0.4-0.1,0.4-0.1,0.7-0.3c0.6-0.2,1.1-0.3,1.7-0.5c0.9-0.2,1.9-0.4,2.8-0.5c0.8-0.2,1.7-0.4,2.5-0.6c0.1,0,0.2-0.1,0.3-0.1
					c0.6-0.3,1-1,1.3-1.7c0.3-0.6,0.5-1.2,0.8-1.7c0.2-0.4,0.5-0.8,0.7-1.2c0.2-0.3,0.3-0.4,0.5-0.7l0.5-0.3
					c1.7-0.9,3.5-1.4,5.4-1.7c1-0.2,1.9-0.3,2.9-0.4c0.2,0,1.1-0.1,1.3-0.1c0.1,0,0.8,0,0.9,0c0.7,0,1.3,0,1.9,0.1
					c2.1,0.2,4.3,0.6,6,1.9c0.6,0.5,1.1,1.1,1.5,1.8c0.6,1,1,2.2,1.5,3.3l0.2,0.3l0.2,0.4c2,4,4,8,6,12c0.3,0.7,0.6,1.4,1,2
					c0.1,0.2,0.2,0.4,0.3,0.6c0.1,0.2,0.3,0.4,0.5,0.6c0.2,0.2,0.5,0.3,0.7,0.4c0.3,0.1,0.6,0.2,1,0.3c0.7,0.2,1.3,0.2,2,0.3
					c0.6,0.1,1.2,0.1,1.9,0.2c0.6,0.1,1.2,0.1,1.9,0.1c1.3,0,2.5-0.3,3.8-0.5c1.2-0.3,2.5-0.6,3.8-0.8c0.6-0.1,0.6-0.1,1.1-0.2
					c1.6-0.3,3.2-0.6,4.9-0.5c0.5,0,1,0,1.4,0.1c0.4,0,0.8,0.1,1.2,0.2c1,0.1,2.1,0.1,3.1,0.2c1.6,0.2,3.1,0.4,4.5,1.2l0.1,0.1
					c0.8-0.6,1.5-1.2,2.2-1.8c0.5-0.5,1-1,1.5-1.5c0.2-0.2,0.3-0.4,0.5-0.6c0.1-0.2,0.2-0.3,0.2-0.5c0.1-0.2,0.2-0.5,0.3-0.7
					c0.2-0.6,0.3-1.2,0.3-1.8c0-0.8-0.2-1.5-0.6-2.2c-0.2-0.3-0.5-0.7-0.8-1c-1.1-1.2-2.4-2-3.9-2.6c-0.6-0.2-1.2-0.4-1.8-0.6
					c-0.3-0.1-0.6-0.2-0.9-0.4c-0.6-0.3-1.2-0.6-1.7-1.1c-0.2-0.2-0.3-0.4-0.5-0.6c-0.1-0.1-0.1-0.1-0.2-0.2
					c-0.1-0.1-0.1-0.1-0.2-0.2c-0.3-0.4-0.5-0.8-0.6-1.3c-0.3-1.2-0.1-2.6,0.6-3.7c0.2-0.3,0.5-0.7,0.8-0.9c0.1-0.1,0.3-0.2,0.5-0.4
					c0.5-0.4,1-0.6,1.5-0.8c0.3-0.1,0.6-0.1,0.9-0.1c0.2,0,0.3,0,0.5,0C93,27.5,93.4,27.6,93.9,27.7z M106.1,88.1
					c0-1.1,0-2.2-0.2-3.3c-0.1-0.5-0.3-1.1-0.6-1.6c-0.3-0.6-0.6-1.3-0.9-1.9c-0.8-1.6-1.6-3.2-2.4-4.8c-0.2-0.4-0.4-0.9-0.6-1.3
					c-0.6-1.4-1.2-2.9-1.4-4.4l0-0.2l0-0.2c0-0.6,0-1.1,0-1.7c0-2.2-0.2-4.4-0.9-6.4L99,62.2L99,62c-0.2-0.4-0.4-0.7-0.6-1.1
					c-0.3-0.6-0.7-1.1-1-1.7l1-1.3c0.6-0.8,1.1-1.6,1.7-2.4c1-1.4,1.9-2.9,2.8-4.3c0.8-1.2,1.2-2.7,1.4-4.1c0.2-0.8,0.3-1.6,0.4-2.5
					c0.1-0.5,0.1-0.9,0.1-1.4c-0.1-1.2-0.4-2.3-0.8-3.4c-0.5-1.4-1.2-2.8-2.2-4c-0.4-0.4-0.8-0.8-1.2-1.2c-1.5-1.3-3.1-2.4-4.8-3.1
					c-0.8-0.3-1.6-0.5-2.5-0.7c-0.3-0.1-0.6-0.1-0.8-0.1c-0.2,0-0.3,0-0.5,0c-0.2,0-0.3,0.1-0.4,0.2c-0.1,0.1-0.2,0.2-0.3,0.3
					c-0.2,0.2-0.3,0.5-0.3,0.8c0,0.2,0,0.4,0.1,0.5l0,0l0.2,0.2c0.1,0.1,0.1,0.2,0.2,0.4c0.1,0.1,0.3,0.2,0.5,0.3
					c0.2,0.1,0.5,0.2,0.8,0.3c0.7,0.3,1.4,0.5,2,0.8c0.3,0.1,0.6,0.2,0.9,0.4c1.7,0.8,3.2,1.8,4.4,3.2c0.9,1,1.6,2.1,1.9,3.5
					c0.1,0.5,0.2,1,0.2,1.5c0,0.8-0.1,1.7-0.3,2.5c-0.1,0.5-0.3,1-0.5,1.5c-0.1,0.3-0.3,0.7-0.5,1c-0.5,0.9-1.2,1.7-2,2.3
					c-1.2,1.1-2.4,2.1-3.7,3l-1.4,1c-0.4-0.3-0.8-0.7-1.2-1c-0.1-0.1-0.2-0.2-0.4-0.2c-0.8-0.4-1.6-0.6-2.4-0.7
					c-1.3-0.2-2.6-0.2-3.9-0.3c-0.5,0-1-0.1-1.4-0.2c-1.7-0.1-3.5,0.1-5.2,0.4c-1.6,0.3-3.2,0.7-4.8,1.1c-0.5,0.1-0.5,0.1-1.1,0.2
					c-1.5,0.3-3,0.5-4.5,0.4c-0.6,0-1.1-0.1-1.7-0.2c-0.5-0.1-0.8-0.1-1.3-0.1c-0.4,0-0.7-0.1-1.1-0.2c-1.5-0.2-3.1-0.5-4.3-1.5
					c-0.3-0.3-0.6-0.6-0.9-0.9c-0.4-0.5-0.7-1.1-0.9-1.7c-0.3-0.6-0.5-1.2-0.8-1.8c-2-4-4-8-6-12c-0.5-0.9-0.8-1.9-1.3-2.9
					c-0.1-0.2-0.2-0.4-0.3-0.6c-0.2-0.4-0.4-0.7-0.7-1c-0.7-0.7-1.8-1-2.7-1.1c-1.2-0.2-2.5-0.3-3.8-0.3h-0.3c-0.2,0-0.3,0-0.5,0
					c-1.5,0.1-2.9,0.4-4.4,0.7c-1.1,0.2-2.1,0.5-3.1,1l0,0c-0.2,0.3-0.4,0.6-0.5,0.9c-0.3,0.6-0.6,1.3-0.9,1.9
					c-0.5,0.9-1,1.8-1.8,2.4c-0.3,0.3-0.7,0.5-1.1,0.7c-0.5,0.2-1.1,0.4-1.6,0.5c-1.5,0.4-3,0.6-4.4,0.9c-0.3,0.1-0.6,0.1-0.9,0.2
					c-0.2,0-0.2,0-0.3,0.1l-0.1,0c-0.2,0.2-0.4,0.4-0.4,0.7c-0.1,0.3-0.1,0.6-0.1,1c0,0.4,0.1,0.8,0.1,1.1c0.1,0.3,0.1,0.7,0.2,1
					c0.1,0.3,0.2,0.5,0.3,0.8c0.5,1.3,1.3,2.6,2.6,3.1c0.2,0.1,0.5,0.2,0.7,0.2l0.1,0c2.2,0.2,4.4,0.2,6.6,0.3c0.4,0,0.4,0,0.7,0
					c0.4,0,0.9,0.1,1.3,0.2c0.6,0.1,1.1,0.3,1.6,0.6c0.2,0.1,0.5,0.3,0.6,0.3c0.1,0.1,0.2,0.2,0.3,0.3c0.1,0.1,0.2,0.3,0.3,0.4
					c0.6,0.7,1,1.5,1.4,2.3c0.6,1.2,1.2,2.5,1.6,3.8c0.5,1.5,0.8,3,1,4.5c0.1,0.9,0.1,1.8,0.2,2.7c0.2,3.2,0.5,6.5,1.1,9.7
					c0,0.1,0,0.3,0.1,0.4c0.4,1.3,1.1,2.4,1.9,3.4c1,1.2,2,2.4,3.2,3.5l0.3,0.3l0.9,0.9L53.9,92c0.4,1,0.7,2.1,0.5,3.2
					c0,0.2-0.1,0.4-0.2,0.5c-0.1,0.2-0.2,0.5-0.3,0.7c-0.2,0.3-0.4,0.6-0.7,0.8c-0.2,0.2-0.4,0.3-0.6,0.5c-0.1,0.1-0.3,0.3-0.4,0.4
					c-0.4,0.5-0.7,1-0.9,1.6l0,0.1c0,0.7,0.3,1.3,0.8,1.8c0.2,0.2,0.4,0.4,0.7,0.5l0.1,0l4.1,0.1c0.1,0,0.2-0.1,0.4-0.2
					c0.6-0.3,1-0.8,1.3-1.4l0,0l1.3-4.8l-1.2-6.4c-0.1-0.3-0.1-0.3-0.2-0.5c-0.1-0.3-0.1-0.3-0.2-0.7c-0.2-0.7-0.3-1.4-0.4-2.1
					c-0.2-1.7,0-3.3,0.3-5c0.3-1.4,0.8-2.7,1.2-4c0.6,0,1.2,0.1,1.8,0.1c1.7,0,3.4-0.2,5.1-0.5c1.7-0.3,3.4-0.8,5-1.5l7.9-2.8
					c0.9-0.1,1.8-0.1,2.7-0.1c0.7,0,1.3,0.1,2,0.3c1.2,0.3,2.2,1.1,3,2.1c0.2,0.3,0.4,0.6,0.6,1c0.2,0.4,0.4,0.8,0.6,1.2
					c0.2,0.3,0.3,0.5,0.4,0.8c0.9,1.5,2.1,2.8,3.3,4.1c0.5,0.5,1,1,1.5,1.4c0.1,0.1,0.1,0.1,0.2,0.1c0.2,0.2,0.4,0.2,0.6,0.4
					c0.5,0.3,1,0.5,1.5,0.8c1.8,0.8,3.6,1.5,5.3,2.2c0.1,1.9,0.2,3.8,0.2,5.6c0,0.2,0,0.4,0,0.6c0,1.5-0.2,3-1.2,4.2
					c-0.2,0.2-0.3,0.3-0.5,0.5c-0.2,0.2-0.5,0.3-0.7,0.5c-0.1,0.1-0.2,0.2-0.3,0.3c-0.1,0.1-0.2,0.2-0.3,0.4
					c-0.2,0.4-0.1,0.9-0.1,1.4c0.1,0.6,0.2,1.2,0.7,1.6c0.1,0.1,0.3,0.2,0.4,0.2c0.2,0.1,0.4,0.1,0.6,0.2l3.3-0.1
					c0.7-0.2,1.3-0.6,1.7-1.3c0.1-0.3,0.2-0.5,0.3-0.8l0-0.1l1.1-10.3C106.1,89,106.1,88.5,106.1,88.1z"/>
				<path d="M55.9,47c-0.1,0.9-0.2,1.9-0.3,2.8c0,0.4-0.1,0.8-0.2,1.2c-0.2,1.4-0.6,3-1.5,4.1c-0.2,0.3-0.5,0.5-0.8,0.7
					c-0.2,0.1-0.4,0.2-0.6,0.3c-0.2,0.1-0.5,0.2-0.7,0.2c-1.5,0.3-3-0.3-4.2-1c-0.3-0.2-0.5-0.3-0.8-0.5c-0.4-0.3-0.8-0.6-1.2-0.9
					c-0.4-0.4-0.9-0.8-1.2-1.2c-0.4-0.5-0.8-1-1.2-1.6c-1.7-2.7-2.4-6-2.2-9.2c0-1.1,0.2-2.2,0.4-3.3l0.5-1.9
					c1.1,0.3,2.1,0.5,3.2,0.8c-0.2,0.7-0.3,1.4-0.5,2.1c0,0.2-0.1,0.5-0.1,0.7c-0.1,0.6-0.2,1.3-0.2,1.9c-0.1,2.8,0.7,5.8,2.5,8
					c0.3,0.4,0.7,0.7,1,1.1c0.4,0.3,0.8,0.6,1.2,0.9c0.4,0.2,0.8,0.5,1.2,0.6c0.2,0.1,0.4,0.1,0.7,0.2c0.1,0,0.2,0,0.4,0
					c0,0,0.1-0.1,0.1-0.1c0.3-0.3,0.5-0.8,0.6-1.3c0.2-0.8,0.3-1.7,0.4-2.6l0.2-2.4L55.9,47z"/>
			</g>
		</g>
	</g>
</g>
<g id="Layer_7">
</g>
<g id="Layer_8">
</g>
<g id="Layer_9">
</g>
<g id="Layer_10">
</g>
<g id="Layer_11">
</g>
</svg>
