<?xml version="1.0" encoding="utf-8"?>
<!-- Generator: Adobe Illustrator 26.3.1, SVG Export Plug-In . SVG Version: 6.00 Build 0)  -->
<svg version="1.1" xmlns="http://www.w3.org/2000/svg" xmlns:xlink="http://www.w3.org/1999/xlink" x="0px" y="0px"
	 viewBox="0 0 133 133" style="enable-background:new 0 0 133 133;" xml:space="preserve">
<style type="text/css">
	.st0{fill:#BCD0D8;}
	.st1{fill:#FFFFFF;}
</style>
<g id="Layer_2">
	<path class="st0" d="M121,133H12c-6.6,0-12-5.4-12-12V12C0,5.4,5.4,0,12,0h109c6.6,0,12,5.4,12,12v109C133,127.6,127.6,133,121,133
		z"/>
</g>
<g id="Layer_1">
</g>
<g id="Layer_3">
</g>
<g id="Layer_5">
</g>
<g id="Layer_6">
	<g>
		<g id="XMLID_00000011021540251874343660000016439043276502850698_">
			<g>
				<path class="st1" d="M51.81,35.98c2.01,4,4.05,7.98,6.03,11.99c0.28,0.58,0.55,1.17,0.83,1.75c0.28,0.57,0.57,1.14,0.94,1.65
					c0.25,0.34,0.54,0.65,0.86,0.93c1.2,1,2.78,1.32,4.27,1.55c0.36,0.05,0.74,0.1,1.1,0.15c0.51,0.06,0.74,0.08,1.26,0.14
					c0.57,0.05,1.13,0.11,1.7,0.16c1.52,0.07,3.02-0.12,4.52-0.39c0.54-0.11,0.54-0.11,1.08-0.22c1.62-0.34,3.22-0.74,4.85-1.06
					c1.69-0.33,3.43-0.57,5.16-0.44c0.49,0.04,0.97,0.12,1.45,0.17c1.3,0.12,2.6,0.15,3.89,0.32c0.84,0.12,1.69,0.3,2.45,0.7
					c0.13,0.08,0.25,0.16,0.37,0.24c0.41,0.32,0.79,0.68,1.17,1.02l1.41-0.99c1.3-0.93,2.56-1.92,3.71-3.03
					c0.74-0.7,1.45-1.46,1.97-2.35c0.18-0.31,0.32-0.64,0.46-0.97c0.2-0.5,0.36-1.01,0.49-1.53c0.21-0.82,0.31-1.68,0.28-2.53
					c-0.02-0.5-0.09-0.99-0.21-1.47c-0.3-1.31-1-2.46-1.87-3.45c-1.23-1.39-2.74-2.45-4.39-3.24c-0.3-0.13-0.59-0.25-0.89-0.37
					c-0.67-0.26-1.36-0.48-2.03-0.75c-0.26-0.1-0.51-0.21-0.75-0.34c-0.17-0.09-0.35-0.2-0.49-0.34c-0.09-0.11-0.14-0.23-0.21-0.36
					l-0.21-0.19L91,32.72c-0.1-0.14-0.11-0.36-0.11-0.52c0.01-0.29,0.09-0.62,0.3-0.82c0.1-0.1,0.22-0.18,0.33-0.26
					c0.13-0.09,0.28-0.2,0.43-0.23c0.15-0.04,0.31-0.01,0.46,0.01c0.28,0.04,0.55,0.09,0.83,0.15c0.85,0.18,1.68,0.37,2.49,0.69
					c1.79,0.69,3.39,1.82,4.85,3.08c0.43,0.37,0.86,0.75,1.23,1.18c1,1.14,1.72,2.53,2.24,3.96c0.41,1.1,0.7,2.25,0.77,3.43
					c0.03,0.47-0.02,0.93-0.07,1.4c-0.09,0.83-0.22,1.65-0.39,2.46c-0.29,1.41-0.68,2.86-1.45,4.07c-0.95,1.44-1.88,2.89-2.84,4.32
					c-0.55,0.8-1.1,1.59-1.68,2.36l-0.98,1.25c0.32,0.56,0.66,1.13,0.98,1.7c0.2,0.35,0.4,0.7,0.59,1.06l0.06,0.14l0.07,0.2
					c0.74,2.06,0.92,4.26,0.94,6.43c0,0.56-0.01,1.11-0.02,1.67l0.02,0.25l0.02,0.17c0.21,1.54,0.76,3,1.37,4.42
					c0.2,0.45,0.41,0.9,0.62,1.34c0.78,1.59,1.59,3.17,2.38,4.76c0.31,0.62,0.63,1.24,0.92,1.88c0.23,0.51,0.42,1.03,0.55,1.57
					c0.24,1.07,0.25,2.17,0.23,3.26c-0.02,0.44-0.03,0.88-0.06,1.32L105,99.77l-0.01,0.05c-0.07,0.27-0.16,0.54-0.29,0.8
					c-0.36,0.69-0.99,1.08-1.7,1.31l-3.31,0.12c-0.19-0.04-0.38-0.09-0.56-0.17c-0.15-0.06-0.3-0.14-0.42-0.24
					c-0.49-0.4-0.58-1.04-0.68-1.63c-0.06-0.44-0.18-0.94,0.05-1.36c0.08-0.14,0.18-0.26,0.29-0.37c0.1-0.1,0.2-0.19,0.31-0.28
					c0.23-0.18,0.49-0.33,0.72-0.52c0.19-0.15,0.36-0.32,0.52-0.5c0.97-1.15,1.22-2.71,1.22-4.18c-0.01-0.22-0.02-0.43-0.03-0.64
					c-0.08-1.88-0.16-3.76-0.24-5.64c-1.8-0.7-3.6-1.38-5.35-2.21c-0.51-0.25-1.02-0.51-1.51-0.78c-0.25-0.14-0.39-0.23-0.64-0.38
					c-0.06-0.04-0.12-0.07-0.18-0.12c-0.53-0.45-1.02-0.94-1.51-1.44c-1.22-1.25-2.34-2.6-3.29-4.08c-0.15-0.25-0.3-0.51-0.45-0.77
					c-0.21-0.39-0.4-0.79-0.61-1.18c-0.18-0.34-0.39-0.67-0.63-0.98c-0.75-0.99-1.77-1.73-2.96-2.05c-0.64-0.18-1.31-0.26-1.97-0.28
					c-0.88-0.03-1.77,0.03-2.65,0.09l-7.94,2.85c-1.6,0.7-3.27,1.19-4.98,1.54c-1.68,0.34-3.39,0.53-5.11,0.52
					c-0.6-0.02-1.2-0.05-1.81-0.08c-0.46,1.31-0.93,2.6-1.22,3.96c-0.36,1.63-0.5,3.31-0.32,4.98c0.08,0.73,0.23,1.43,0.43,2.14
					c0.11,0.35,0.11,0.35,0.23,0.7c0.1,0.26,0.09,0.26,0.2,0.52l1.2,6.39l-1.28,4.82l-0.01,0.03c-0.32,0.57-0.72,1.07-1.3,1.37
					c-0.12,0.06-0.24,0.11-0.36,0.15l-4.11-0.13l-0.07-0.04c-0.25-0.15-0.47-0.32-0.67-0.53c-0.46-0.49-0.7-1.13-0.75-1.8l0.02-0.07
					c0.16-0.6,0.48-1.11,0.89-1.57c0.13-0.14,0.26-0.27,0.4-0.4c0.21-0.18,0.43-0.35,0.63-0.53c0.25-0.22,0.49-0.48,0.68-0.77
					c0.14-0.2,0.25-0.42,0.34-0.66c0.07-0.18,0.12-0.36,0.16-0.54c0.21-1.08-0.1-2.15-0.47-3.15l-4.57-10.93l-0.92-0.91l-0.32-0.33
					c-1.1-1.12-2.18-2.27-3.15-3.51c-0.79-1.03-1.52-2.14-1.88-3.4c-0.04-0.13-0.07-0.26-0.09-0.39c-0.6-3.18-0.88-6.42-1.1-9.66
					c-0.05-0.9-0.09-1.81-0.15-2.71c-0.13-1.54-0.49-3.03-0.95-4.49c-0.43-1.32-0.94-2.61-1.58-3.85c-0.41-0.8-0.87-1.58-1.43-2.3
					c-0.11-0.14-0.22-0.28-0.35-0.42c-0.08-0.1-0.15-0.21-0.26-0.3c-0.06-0.04-0.41-0.25-0.56-0.34c-0.51-0.29-1.05-0.5-1.61-0.64
					c-0.44-0.1-0.87-0.15-1.31-0.2c-0.37-0.02-0.37-0.02-0.74-0.05c-2.21-0.08-4.42-0.04-6.64-0.26l-0.07-0.01
					c-0.25-0.04-0.5-0.1-0.74-0.2c-1.31-0.51-2.13-1.81-2.6-3.1c-0.1-0.27-0.18-0.54-0.26-0.81c-0.08-0.33-0.14-0.65-0.2-0.98
					c-0.06-0.37-0.11-0.75-0.12-1.13c-0.01-0.33,0-0.67,0.12-0.97c0.09-0.25,0.26-0.47,0.44-0.66l0.1-0.04
					c0.15-0.05,0.15-0.05,0.31-0.09c0.3-0.08,0.61-0.15,0.92-0.21c1.48-0.31,2.98-0.56,4.45-0.94c0.55-0.15,1.12-0.29,1.65-0.52
					c0.4-0.17,0.78-0.4,1.12-0.68c0.79-0.63,1.34-1.48,1.81-2.38c0.31-0.64,0.6-1.28,0.92-1.92c0.16-0.31,0.32-0.61,0.52-0.9
					l0.05-0.03c0.98-0.47,2.04-0.77,3.1-1.01c1.44-0.32,2.91-0.52,4.38-0.67c0.16-0.01,0.32-0.03,0.48-0.04h0.34
					c1.27,0.02,2.54,0.07,3.79,0.3c0.95,0.17,1.97,0.44,2.71,1.13c0.3,0.27,0.52,0.62,0.73,0.98c0.11,0.21,0.21,0.42,0.31,0.64
					C50.98,34.06,51.36,35.04,51.81,35.98z M51.98,51.69c-0.12,0.43-0.26,0.92-0.57,1.26c-0.04,0.04-0.08,0.07-0.13,0.1
					c-0.12,0.05-0.25,0.05-0.37,0.04c-0.23-0.02-0.45-0.08-0.67-0.16c-0.43-0.16-0.84-0.38-1.24-0.62
					c-0.44-0.26-0.86-0.56-1.24-0.89c-0.38-0.32-0.72-0.68-1.04-1.06c-1.82-2.2-2.56-5.17-2.47-8.02c0.02-0.65,0.09-1.29,0.19-1.93
					c0.04-0.25,0.08-0.49,0.13-0.73c0.16-0.71,0.33-1.42,0.5-2.13c-1.07-0.27-2.14-0.53-3.21-0.8l-0.45,1.92
					c-0.23,1.08-0.39,2.17-0.44,3.27c-0.16,3.2,0.53,6.5,2.23,9.21c0.36,0.57,0.76,1.12,1.2,1.62c0.38,0.44,0.8,0.86,1.24,1.23
					c0.37,0.33,0.76,0.63,1.17,0.9c0.26,0.17,0.52,0.34,0.79,0.49c1.26,0.72,2.74,1.31,4.21,1.02c0.23-0.05,0.46-0.12,0.68-0.21
					c0.21-0.09,0.42-0.2,0.61-0.33c0.31-0.2,0.59-0.45,0.84-0.74c0.95-1.13,1.31-2.67,1.53-4.11c0.06-0.38,0.11-0.77,0.16-1.16
					c0.1-0.94,0.2-1.88,0.29-2.81l-3.27-0.36L52.4,49.1C52.3,49.97,52.2,50.84,51.98,51.69z"/>
				<path d="M93.9,27.74c0.49,0.1,0.99,0.2,1.48,0.34c0.51,0.14,1.02,0.3,1.51,0.5c1.85,0.71,3.54,1.79,5.09,3.05
					c0.97,0.78,1.91,1.61,2.69,2.6c0.98,1.25,1.74,2.67,2.33,4.16c0.47,1.21,0.83,2.47,1.01,3.76c0.08,0.58,0.13,1.16,0.11,1.74
					c-0.01,0.6-0.08,1.2-0.16,1.79c-0.11,0.87-0.25,1.73-0.44,2.58c-0.36,1.63-0.87,3.24-1.71,4.68c-0.26,0.42-0.54,0.84-0.81,1.26
					c-0.63,0.97-1.27,1.94-1.91,2.91c-0.5,0.74-1,1.47-1.53,2.2l-0.16,0.22c0.13,0.23,0.25,0.45,0.37,0.67l0.18,0.35
					c0.24,0.56,0.44,1.12,0.6,1.7c0.48,1.69,0.69,3.44,0.77,5.19c0.02,0.66,0.03,1.32,0.03,1.99c-0.01,0.25-0.04,0.71-0.02,0.92
					c0.02,0.13,0.04,0.27,0.06,0.41c0.13,0.66,0.34,1.31,0.57,1.95c0.31,0.82,0.68,1.63,1.06,2.43c0.5,1.02,1.01,2.03,1.53,3.04
					c0.28,0.56,0.55,1.12,0.82,1.67c0.25,0.5,0.51,1,0.75,1.5c0.42,0.88,0.78,1.77,1,2.72c0.42,1.85,0.36,3.76,0.24,5.64l-1.1,10.61
					c-0.12,0.52-0.26,1.03-0.47,1.51c-0.51,1.15-1.35,2.1-2.42,2.72c-0.58,0.34-1.2,0.56-1.84,0.75l-4.09,0.15
					c-0.38-0.07-0.75-0.15-1.12-0.27c-0.66-0.22-1.3-0.56-1.83-1.03c-0.71-0.64-1.2-1.5-1.47-2.42c-0.12-0.39-0.18-0.78-0.24-1.18
					c-0.06-0.34-0.11-0.68-0.13-1.03c-0.03-0.73,0.08-1.46,0.36-2.13c0.33-0.77,0.87-1.41,1.5-1.94c0.16-0.13,0.32-0.25,0.48-0.37
					c0.14-0.1,0.3-0.18,0.42-0.3c0.05-0.06,0.09-0.12,0.13-0.19c0.13-0.26,0.2-0.55,0.24-0.84c0.07-0.47,0.07-0.95,0.04-1.42
					l-0.15-3.43c-0.55-0.22-1.09-0.44-1.63-0.67c-0.48-0.21-0.97-0.43-1.45-0.64c-1.17-0.55-2.31-1.14-3.39-1.85
					c-0.33-0.31-0.67-0.61-1-0.92c-1.57-1.52-3.05-3.16-4.27-5c-0.35-0.53-0.68-1.07-0.98-1.64c-0.19-0.35-0.35-0.71-0.55-1.06
					c-0.09-0.16-0.19-0.32-0.3-0.47c-0.18-0.23-0.38-0.44-0.62-0.59c-0.37-0.24-0.8-0.34-1.23-0.39c-0.6-0.07-1.21-0.05-1.81-0.03
					l-0.28,0.02l-0.38,0.03l-7.41,2.65c-0.32,0.14-0.65,0.28-0.97,0.4c-0.36,0.14-0.73,0.27-1.09,0.39
					c-2.65,0.85-5.39,1.37-8.16,1.49l-0.37,0.01H61.6c-0.1,0.32-0.18,0.63-0.26,0.95c-0.37,1.62-0.53,3.29-0.2,4.93
					c0.14,0.68,0.37,1.33,0.63,1.97l1.42,7.51l-1.58,5.93c-0.17,0.34-0.17,0.34-0.36,0.68c-0.66,1.12-1.58,2.06-2.76,2.6
					c-0.43,0.2-0.86,0.32-1.31,0.42l-5.23-0.16c-0.27-0.13-0.46-0.21-0.7-0.34c-0.41-0.22-0.79-0.48-1.14-0.78
					c-1.08-0.92-1.8-2.2-2.06-3.61c-0.05-0.29-0.08-0.59-0.1-0.89c0-0.12-0.02-0.26-0.01-0.38c0.01-0.06,0.08-0.4,0.1-0.51
					c0.12-0.5,0.29-0.98,0.52-1.44c0.39-0.79,0.93-1.5,1.55-2.11c0.22-0.21,0.45-0.41,0.69-0.6c0.11-0.1,0.25-0.18,0.34-0.3
					c0-0.01,0-0.04,0-0.05c0-0.07-0.01-0.13-0.02-0.19c-0.05-0.29-0.14-0.56-0.23-0.83l-0.04-0.12l-4.29-10.25
					c-0.49-0.48-0.97-0.97-1.44-1.46c-1.05-1.1-2.08-2.23-2.99-3.45c-0.7-0.94-1.35-1.94-1.81-3.02c-0.19-0.46-0.36-0.93-0.48-1.42
					c-0.15-0.6-0.25-1.22-0.34-1.83c-0.12-0.73-0.22-1.47-0.31-2.21c-0.28-2.17-0.47-4.35-0.61-6.54c-0.05-0.89-0.09-1.78-0.14-2.67
					c-0.03-0.26-0.03-0.26-0.05-0.5c-0.26-1.81-0.81-3.58-1.52-5.25c-0.49-1.14-1.05-2.27-1.83-3.22c-0.02-0.02-0.11-0.07-0.12-0.07
					c-0.09-0.05-0.17-0.09-0.26-0.13c-0.5-0.19-1.03-0.25-1.57-0.28c-0.5-0.04-1-0.04-1.5-0.05l-5.48-0.24
					c-0.62-0.06-1.22-0.19-1.81-0.42c-0.39-0.15-0.75-0.34-1.1-0.56c-0.27-0.17-0.53-0.36-0.77-0.56c-1.87-1.57-2.87-3.99-3.26-6.38
					c-0.2-1.22-0.29-2.5,0.11-3.69c0.21-0.62,0.55-1.19,0.96-1.69c0.26-0.31,0.55-0.59,0.83-0.87c0.36-0.13,0.36-0.14,0.72-0.26
					c0.57-0.19,1.14-0.33,1.72-0.46c0.94-0.19,1.88-0.36,2.82-0.55c0.84-0.18,1.67-0.39,2.49-0.64c0.1-0.03,0.2-0.07,0.29-0.11
					c0.63-0.34,0.97-1.03,1.28-1.65c0.28-0.58,0.54-1.16,0.82-1.73c0.22-0.43,0.45-0.83,0.71-1.23c0.2-0.29,0.31-0.42,0.55-0.73
					l0.52-0.3c1.68-0.89,3.55-1.35,5.41-1.68c0.95-0.17,1.91-0.31,2.88-0.41c0.18-0.02,1.09-0.12,1.26-0.12
					c0.08-0.01,0.81,0,0.93,0.01c0.65,0.01,1.3,0.04,1.94,0.09c2.07,0.17,4.31,0.56,5.98,1.91c0.61,0.49,1.11,1.1,1.52,1.78
					c0.63,1.03,1.04,2.18,1.52,3.29l0.16,0.35l0.17,0.36c2.01,3.99,4.04,7.97,6.03,11.98c0.32,0.68,0.63,1.36,0.96,2.03
					c0.12,0.22,0.23,0.43,0.35,0.63c0.13,0.21,0.27,0.41,0.46,0.57c0.21,0.17,0.45,0.29,0.7,0.38c0.31,0.12,0.64,0.2,0.96,0.26
					c0.67,0.15,1.34,0.24,2.01,0.32c0.62,0.08,1.25,0.14,1.87,0.2c0.63,0.06,1.25,0.11,1.89,0.09c1.26-0.05,2.51-0.29,3.75-0.55
					c1.25-0.26,2.51-0.56,3.77-0.84c0.55-0.12,0.55-0.12,1.12-0.23c1.62-0.31,3.24-0.56,4.89-0.55c0.49,0.01,0.97,0.03,1.45,0.08
					c0.4,0.05,0.8,0.11,1.21,0.15c1.02,0.1,2.05,0.14,3.06,0.24c1.56,0.15,3.11,0.43,4.51,1.17l0.1,0.06
					c0.75-0.56,1.49-1.15,2.2-1.78c0.52-0.47,1.03-0.96,1.48-1.51c0.17-0.2,0.34-0.41,0.47-0.63c0.09-0.17,0.17-0.35,0.23-0.52
					c0.1-0.24,0.18-0.48,0.26-0.72c0.17-0.57,0.28-1.16,0.27-1.75c0-0.77-0.2-1.51-0.6-2.15c-0.22-0.34-0.48-0.65-0.75-0.95
					c-1.07-1.16-2.42-2.02-3.88-2.58c-0.58-0.22-1.17-0.42-1.75-0.64c-0.31-0.12-0.62-0.25-0.93-0.39
					c-0.63-0.29-1.22-0.64-1.72-1.13c-0.17-0.18-0.32-0.38-0.47-0.58c-0.08-0.12-0.08-0.11-0.18-0.23c-0.05-0.06-0.1-0.13-0.15-0.19
					c-0.26-0.41-0.47-0.82-0.59-1.29c-0.32-1.24-0.11-2.62,0.55-3.7c0.21-0.34,0.46-0.66,0.77-0.93c0.14-0.12,0.31-0.25,0.47-0.36
					c0.46-0.35,0.98-0.65,1.54-0.8c0.29-0.09,0.59-0.12,0.89-0.14c0.18,0,0.35,0.01,0.53,0.02C92.96,27.55,93.43,27.64,93.9,27.74z
					 M106.14,88.1c0.02-1.09,0.01-2.19-0.23-3.26c-0.13-0.54-0.32-1.06-0.55-1.57c-0.29-0.64-0.61-1.26-0.92-1.88
					c-0.79-1.59-1.6-3.17-2.38-4.76c-0.21-0.44-0.42-0.89-0.62-1.34c-0.61-1.42-1.16-2.88-1.37-4.42l-0.02-0.17l-0.02-0.25
					c0.01-0.56,0.02-1.11,0.02-1.67c-0.02-2.17-0.2-4.37-0.94-6.43l-0.07-0.2l-0.06-0.14c-0.19-0.36-0.39-0.71-0.59-1.06
					c-0.32-0.57-0.66-1.14-0.98-1.7L98.39,58c0.58-0.77,1.13-1.56,1.68-2.36c0.96-1.43,1.89-2.88,2.84-4.32
					c0.77-1.21,1.16-2.66,1.45-4.07c0.17-0.81,0.3-1.63,0.39-2.46c0.05-0.47,0.1-0.93,0.07-1.4c-0.07-1.18-0.36-2.33-0.77-3.43
					c-0.52-1.43-1.24-2.82-2.24-3.96c-0.37-0.43-0.8-0.81-1.23-1.18c-1.46-1.26-3.06-2.39-4.85-3.08c-0.81-0.32-1.64-0.51-2.49-0.69
					c-0.28-0.06-0.55-0.11-0.83-0.15c-0.15-0.02-0.31-0.05-0.46-0.01c-0.15,0.03-0.3,0.14-0.43,0.23c-0.11,0.08-0.23,0.16-0.33,0.26
					c-0.21,0.2-0.29,0.53-0.3,0.82c0,0.16,0.01,0.38,0.11,0.52l0.01,0.01l0.21,0.19c0.07,0.13,0.12,0.25,0.21,0.36
					c0.14,0.14,0.32,0.25,0.49,0.34c0.24,0.13,0.49,0.24,0.75,0.34c0.67,0.27,1.36,0.49,2.03,0.75c0.3,0.12,0.59,0.24,0.89,0.37
					c1.65,0.79,3.16,1.85,4.39,3.24c0.87,0.99,1.57,2.14,1.87,3.45c0.12,0.48,0.19,0.97,0.21,1.47c0.03,0.85-0.07,1.71-0.28,2.53
					c-0.13,0.52-0.29,1.03-0.49,1.53c-0.14,0.33-0.28,0.66-0.46,0.97c-0.52,0.89-1.23,1.65-1.97,2.35c-1.15,1.11-2.41,2.1-3.71,3.03
					l-1.41,0.99c-0.38-0.34-0.76-0.7-1.17-1.02c-0.12-0.08-0.24-0.16-0.37-0.24c-0.76-0.4-1.61-0.58-2.45-0.7
					c-1.29-0.17-2.59-0.2-3.89-0.32c-0.48-0.05-0.96-0.13-1.45-0.17c-1.73-0.13-3.47,0.11-5.16,0.44c-1.63,0.32-3.23,0.72-4.85,1.06
					c-0.54,0.11-0.54,0.11-1.08,0.22c-1.5,0.27-3,0.46-4.52,0.39c-0.57-0.05-1.13-0.11-1.7-0.16c-0.52-0.06-0.75-0.08-1.26-0.14
					c-0.36-0.05-0.74-0.1-1.1-0.15c-1.49-0.23-3.07-0.55-4.27-1.55c-0.32-0.28-0.61-0.59-0.86-0.93c-0.37-0.51-0.66-1.08-0.94-1.65
					c-0.28-0.58-0.55-1.17-0.83-1.75c-1.98-4.01-4.02-7.99-6.03-11.99c-0.45-0.94-0.83-1.92-1.26-2.87c-0.1-0.22-0.2-0.43-0.31-0.64
					c-0.21-0.36-0.43-0.71-0.73-0.98c-0.74-0.69-1.76-0.96-2.71-1.13c-1.25-0.23-2.52-0.28-3.79-0.3h-0.34
					c-0.16,0.01-0.32,0.03-0.48,0.04c-1.47,0.15-2.94,0.35-4.38,0.67c-1.06,0.24-2.12,0.54-3.1,1.01l-0.05,0.03
					c-0.2,0.29-0.36,0.59-0.52,0.9c-0.32,0.64-0.61,1.28-0.92,1.92c-0.47,0.9-1.02,1.75-1.81,2.38c-0.34,0.28-0.72,0.51-1.12,0.68
					c-0.53,0.23-1.1,0.37-1.65,0.52c-1.47,0.38-2.97,0.63-4.45,0.94c-0.31,0.06-0.62,0.13-0.92,0.21c-0.16,0.04-0.16,0.04-0.31,0.09
					l-0.1,0.04c-0.18,0.19-0.35,0.41-0.44,0.66c-0.12,0.3-0.13,0.64-0.12,0.97c0.01,0.38,0.06,0.76,0.12,1.13
					c0.06,0.33,0.12,0.65,0.2,0.98c0.08,0.27,0.16,0.54,0.26,0.81c0.47,1.29,1.29,2.59,2.6,3.1c0.24,0.1,0.49,0.16,0.74,0.2
					l0.07,0.01c2.22,0.22,4.43,0.18,6.64,0.26c0.37,0.03,0.37,0.03,0.74,0.05c0.44,0.05,0.87,0.1,1.31,0.2
					c0.56,0.14,1.1,0.35,1.61,0.64c0.15,0.09,0.5,0.3,0.56,0.34c0.11,0.09,0.18,0.2,0.26,0.3c0.13,0.14,0.24,0.28,0.35,0.42
					c0.56,0.72,1.02,1.5,1.43,2.3c0.64,1.24,1.15,2.53,1.58,3.85c0.46,1.46,0.82,2.95,0.95,4.49c0.06,0.9,0.1,1.81,0.15,2.71
					c0.22,3.24,0.5,6.48,1.1,9.66c0.02,0.13,0.05,0.26,0.09,0.39c0.36,1.26,1.09,2.37,1.88,3.4c0.97,1.24,2.05,2.39,3.15,3.51
					l0.32,0.33l0.92,0.91l4.57,10.93c0.37,1,0.68,2.07,0.47,3.15c-0.04,0.18-0.09,0.36-0.16,0.54c-0.09,0.24-0.2,0.46-0.34,0.66
					c-0.19,0.29-0.43,0.55-0.68,0.77c-0.2,0.18-0.42,0.35-0.63,0.53c-0.14,0.13-0.27,0.26-0.4,0.4c-0.41,0.46-0.73,0.97-0.89,1.57
					l-0.02,0.07c0.05,0.67,0.29,1.31,0.75,1.8c0.2,0.21,0.42,0.38,0.67,0.53l0.07,0.04l4.11,0.13c0.12-0.04,0.24-0.09,0.36-0.15
					c0.58-0.3,0.98-0.8,1.3-1.37l0.01-0.03l1.28-4.82l-1.2-6.39c-0.11-0.26-0.1-0.26-0.2-0.52c-0.12-0.35-0.12-0.35-0.23-0.7
					c-0.2-0.71-0.35-1.41-0.43-2.14c-0.18-1.67-0.04-3.35,0.32-4.98c0.29-1.36,0.76-2.65,1.22-3.96c0.61,0.03,1.21,0.06,1.81,0.08
					c1.72,0.01,3.43-0.18,5.11-0.52c1.71-0.35,3.38-0.84,4.98-1.54l7.94-2.85c0.88-0.06,1.77-0.12,2.65-0.09
					c0.66,0.02,1.33,0.1,1.97,0.28c1.19,0.32,2.21,1.06,2.96,2.05c0.24,0.31,0.45,0.64,0.63,0.98c0.21,0.39,0.4,0.79,0.61,1.18
					c0.15,0.26,0.3,0.52,0.45,0.77c0.95,1.48,2.07,2.83,3.29,4.08c0.49,0.5,0.98,0.99,1.51,1.44c0.06,0.05,0.12,0.08,0.18,0.12
					c0.25,0.15,0.39,0.24,0.64,0.38c0.49,0.27,1,0.53,1.51,0.78c1.75,0.83,3.55,1.51,5.35,2.21c0.08,1.88,0.16,3.76,0.24,5.64
					c0.01,0.21,0.02,0.42,0.03,0.64c0,1.47-0.25,3.03-1.22,4.18c-0.16,0.18-0.33,0.35-0.52,0.5c-0.23,0.19-0.49,0.34-0.72,0.52
					c-0.11,0.09-0.21,0.18-0.31,0.28c-0.11,0.11-0.21,0.23-0.29,0.37c-0.23,0.42-0.11,0.92-0.05,1.36c0.1,0.59,0.19,1.23,0.68,1.63
					c0.12,0.1,0.27,0.18,0.42,0.24c0.18,0.08,0.37,0.13,0.56,0.17l3.31-0.12c0.71-0.23,1.34-0.62,1.7-1.31
					c0.13-0.26,0.22-0.53,0.29-0.8l0.01-0.05l1.08-10.35C106.11,88.98,106.12,88.54,106.14,88.1z"/>
				<path d="M55.92,47.05c-0.09,0.93-0.19,1.87-0.29,2.81c-0.05,0.39-0.1,0.78-0.16,1.16c-0.22,1.44-0.58,2.98-1.53,4.11
					c-0.25,0.29-0.53,0.54-0.84,0.74c-0.19,0.13-0.4,0.24-0.61,0.33c-0.22,0.09-0.45,0.16-0.68,0.21c-1.47,0.29-2.95-0.3-4.21-1.02
					c-0.27-0.15-0.53-0.32-0.79-0.49c-0.41-0.27-0.8-0.57-1.17-0.9c-0.44-0.37-0.86-0.79-1.24-1.23c-0.44-0.5-0.84-1.05-1.2-1.62
					c-1.7-2.71-2.39-6.01-2.23-9.21c0.05-1.1,0.21-2.19,0.44-3.27l0.45-1.92c1.07,0.27,2.14,0.53,3.21,0.8
					c-0.17,0.71-0.34,1.42-0.5,2.13c-0.05,0.24-0.09,0.48-0.13,0.73c-0.1,0.64-0.17,1.28-0.19,1.93c-0.09,2.85,0.65,5.82,2.47,8.02
					c0.32,0.38,0.66,0.74,1.04,1.06c0.38,0.33,0.8,0.63,1.24,0.89c0.4,0.24,0.81,0.46,1.24,0.62c0.22,0.08,0.44,0.14,0.67,0.16
					c0.12,0.01,0.25,0.01,0.37-0.04c0.05-0.03,0.09-0.06,0.13-0.1c0.31-0.34,0.45-0.83,0.57-1.26c0.22-0.85,0.32-1.72,0.42-2.59
					l0.25-2.41L55.92,47.05z"/>
			</g>
		</g>
	</g>
</g>
<g id="Layer_7">
</g>
<g id="Layer_8">
</g>
<g id="Layer_9">
</g>
<g id="Layer_10">
</g>
<g id="Layer_11">
</g>
</svg>
