<svg version="1.1" viewBox="0.0 0.0 133.44094488188978 133.44094488188978" fill="none" stroke="none" stroke-linecap="square" stroke-miterlimit="10" xmlns:xlink="http://www.w3.org/1999/xlink" xmlns="http://www.w3.org/2000/svg"><clipPath id="p.0"><path d="m0 0l133.44095 0l0 133.44095l-133.44095 0l0 -133.44095z" clip-rule="nonzero"/></clipPath><g clip-path="url(#p.0)"><path fill="#000000" fill-opacity="0.0" d="m0 0l133.44095 0l0 133.44095l-133.44095 0z" fill-rule="evenodd"/><path fill="#fffc00" d="m1.6141732 23.974182l0 0c0 -11.837395 9.596105 -21.4335 21.433498 -21.4335l86.896774 0l0 0c5.684517 0 11.136215 2.2581658 15.155777 6.2777267c4.019554 4.019561 6.277733 9.471256 6.277733 15.155773l0 85.73142c0 11.837395 -9.596115 21.43351 -21.43351 21.43351l-86.896774 0c-11.837395 0 -21.433498 -9.596115 -21.433498 -21.43351z" fill-rule="evenodd"/><path stroke="#000000" stroke-width="4.0" stroke-linejoin="round" stroke-linecap="butt" d="m1.6141732 23.974182l0 0c0 -11.837395 9.596105 -21.4335 21.433498 -21.4335l86.896774 0l0 0c5.684517 0 11.136215 2.2581658 15.155777 6.2777267c4.019554 4.019561 6.277733 9.471256 6.277733 15.155773l0 85.73142c0 11.837395 -9.596115 21.43351 -21.43351 21.43351l-86.896774 0c-11.837395 0 -21.433498 -9.596115 -21.433498 -21.43351z" fill-rule="evenodd"/><path fill="#000000" d="m30.220673 76.71989l0 -8.4375l-7.34375 -11.609371l4.75 0l4.71875 7.937496l4.625 -7.937496l4.65625 0l-7.375 11.640621l0 8.40625l-4.03125 0zm20.25586 -4.625l3.828125 0.640625q-0.734375 2.109375 -2.328125 3.21875q-1.59375 1.09375 -3.984375 1.09375q-3.796875 0 -5.609375 -2.46875q-1.4375 -1.984375 -1.4375 -5.015625q0 -3.609375 1.875 -5.640621q1.890625 -2.046875 4.78125 -2.046875q3.234375 0 5.109375 2.1406212q1.875 2.140625 1.796875 6.546875l-9.625 0q0.046875 1.71875 0.921875 2.671875q0.890625 0.9375 2.21875 0.9375q0.90625 0 1.515625 -0.484375q0.625 -0.5 0.9375 -1.59375zm0.21875 -3.875q-0.046875 -1.671875 -0.875 -2.53125q-0.8125 -0.875 -1.984375 -0.875q-1.265625 0 -2.078125 0.90625q-0.828125 0.921875 -0.8125 2.5l5.75 0zm6.9472656 8.5l0 -20.046871l3.84375 0l0 20.046871l-3.84375 0zm7.779297 0l0 -20.046871l3.84375 0l0 20.046871l-3.84375 0zm6.888672 -7.46875q0 -1.90625 0.9375 -3.703125q0.953125 -1.7968712 2.671875 -2.7343712q1.734375 -0.9375 3.859375 -0.9375q3.296875 0 5.40625 2.1406212q2.109375 2.140625 2.109375 5.40625q0 3.296875 -2.125 5.46875q-2.125 2.15625 -5.359375 2.15625q-2.0 0 -3.8125 -0.90625q-1.796875 -0.90625 -2.75 -2.640625q-0.9375 -1.75 -0.9375 -4.25zm3.9375 0.203125q0 2.171875 1.015625 3.328125q1.03125 1.140625 2.53125 1.140625q1.515625 0 2.53125 -1.140625q1.015625 -1.15625 1.015625 -3.34375q0 -2.140625 -1.015625 -3.28125q-1.015625 -1.15625 -2.53125 -1.15625q-1.5 0 -2.53125 1.15625q-1.015625 1.140625 -1.015625 3.296875zm16.759766 7.265625l-4.59375 -14.515621l3.734375 0l2.71875 9.515621l2.5 -9.515621l3.703125 0l2.421875 9.515621l2.78125 -9.515621l3.78125 0l-4.65625 14.515621l-3.703125 0l-2.5 -9.34375l-2.453125 9.34375l-3.734375 0z" fill-rule="nonzero"/></g></svg>