<?xml version="1.0" encoding="utf-8"?>
<!-- Generator: Adobe Illustrator 26.3.1, SVG Export Plug-In . SVG Version: 6.00 Build 0)  -->
<svg version="1.1" xmlns="http://www.w3.org/2000/svg" xmlns:xlink="http://www.w3.org/1999/xlink" x="0px" y="0px"
	 viewBox="0 0 133 133" style="enable-background:new 0 0 133 133;" xml:space="preserve">
<style type="text/css">
	.st0{fill:#BCD0D8;}
	.st1{fill:#6699B2;}
	.st2{fill:#496D7F;}
	.st3{fill:#5D699B;}
	.st4{fill:#FFFFFF;}
	.st5{fill:#FFFFFF;stroke:#000000;stroke-width:2;stroke-miterlimit:10;}
</style>
<g id="Layer_1">
	<g id="Layer_2_00000143584259056216677630000000141553962489549959_">
		<path class="st2" d="M121,133H12c-6.6,0-12-5.4-12-12V12C0,5.4,5.4,0,12,0h109c6.6,0,12,5.4,12,12v109
			C133,127.6,127.6,133,121,133z"/>
		<path class="st2" d="M121,133H12c-6.6,0-12-5.4-12-12V12C0,5.4,5.4,0,12,0h109c6.6,0,12,5.4,12,12v109
			C133,127.6,127.6,133,121,133z"/>
	</g>
</g>
<g id="Layer_2">
</g>
<g id="Layer_4">
</g>
<g id="Layer_5_00000096759886075198047500000016841880956640546723_">
</g>
<g id="Layer_6_00000151532325249707469710000014370122528315639221_">
</g>
<g id="Layer_7_00000042717999357893301760000000855885267568530853_">
</g>
<g id="Layer_8_00000168831599467053464300000003505523461608539011_">
</g>
<g id="Layer_9_00000089543259283313251050000005252079673544207528_">
</g>
<g id="Layer_10_00000084509998272139497780000008077192264451833754_">
</g>
<g id="Layer_11_00000116220595310884250560000013807966725250984093_">
</g>
<g id="Layer_12">
</g>
<g id="Layer_13">
</g>
<g id="Layer_14">
	<g>
		<g>
			<g id="XMLID_00000075864664085360107970000014989447859107084462_">
				<g>
					<path d="M81.8,82.7c1.6,4.4,4.7,7.4,9.5,7.4c4.8,0,8-3.1,9.5-7.4l12.3-0.1c1.4-0.1,2.1-0.8,2.1-2.1l0.1-10.4v0
						c-0.4-3.2-2-5.2-5.2-6l-11.4-0.8L74.6,41l-28.8-0.1l-15.8,18l-7.4-0.5c-3,0.8-5.1,1.8-5.2,5.3V80c0.4,1,1,2.3,2.2,2.7h7
						c1.4,4.4,4.5,7.4,9.5,7.4c4.8,0,7.9-3,9.3-7.4H81.8z M91.2,92.5c-4.9,0-9.2-2.8-11.1-7.4H47.2c-1.8,4.5-6.2,7.4-11,7.4
						c-4.9,0-9.2-2.8-11.1-7.4h-5.6c-2.6-0.7-3.6-2.5-4.3-4.8V63.7c0.1-4.8,3.1-6.6,7.3-7.6l6.7,0.5l15.7-18h30.7l24.1,22.5
						c3.6,0.3,7.1,0.5,10.8,0.8c4.3,1,6.7,3.8,7.2,8.2l-0.3,10.5c0,2.6-1.7,4.3-4.1,4.5h-10.9C100.4,89.5,96.2,92.5,91.2,92.5z"/>
					<path d="M91.2,75c-3.1,0-5.6,2.5-5.6,5.6c0,3,2.5,5.4,5.6,5.4c3.1,0,5.6-2.5,5.6-5.4C96.8,77.4,94.3,75,91.2,75z M83.3,80.5
						c0-4.4,3.5-7.9,7.9-7.9c4.4,0,7.9,3.5,7.9,7.9c0,4.3-3.5,7.9-7.9,7.9C86.8,88.4,83.3,84.8,83.3,80.5z"/>
					<path class="st4" d="M71.2,49.5L82,59.9c-13.1-0.8-26.2-1.7-39.2-2.5l7-8.3L71.2,49.5z"/>
					<path class="st4" d="M28.3,80.5c0,4.3,3.5,7.9,7.9,7.9c4.3,0,7.8-3.6,7.8-7.9c0-4.4-3.5-7.9-7.8-7.9
						C31.8,72.6,28.3,76.1,28.3,80.5z M91.2,90.1c-4.8,0-7.9-3-9.5-7.4H45.5c-1.4,4.4-4.5,7.4-9.3,7.4c-4.9,0-8-3-9.5-7.4h-7
						c-1.2-0.4-1.8-1.7-2.2-2.7V63.7c0.1-3.5,2.2-4.5,5.2-5.3l7.4,0.5l15.8-18L74.6,41l24,22.4l11.4,0.8c3.2,0.8,4.8,2.7,5.2,6v0
						l-0.1,10.4c0,1.3-0.7,1.9-2.1,2.1l-12.3,0.1C99.3,87,96,90.1,91.2,90.1z M83.3,80.5c0,4.3,3.5,7.9,7.9,7.9
						c4.4,0,7.9-3.6,7.9-7.9c0-4.4-3.5-7.9-7.9-7.9C86.8,72.6,83.3,76.1,83.3,80.5z M37.9,59.4c16.8,1.2,33.5,2.2,50.4,3.2
						L72.2,47.1l-23.5-0.3L37.9,59.4z"/>
					<path class="st4" d="M36.2,75c3,0,5.4,2.5,5.4,5.6c0,3-2.5,5.4-5.4,5.4c-3.1,0-5.6-2.5-5.6-5.4C30.6,77.4,33.1,75,36.2,75z"/>
					<path class="st4" d="M91.2,75c3.1,0,5.6,2.5,5.6,5.6c0,3-2.5,5.4-5.6,5.4c-3.1,0-5.6-2.5-5.6-5.4C85.7,77.4,88.1,75,91.2,75z"
						/>
					<path d="M36.2,88.4c-4.4,0-7.9-3.6-7.9-7.9c0-4.4,3.5-7.9,7.9-7.9c4.3,0,7.8,3.5,7.8,7.9C44,84.8,40.5,88.4,36.2,88.4z
						 M30.6,80.5c0,3,2.5,5.4,5.6,5.4c3,0,5.4-2.5,5.4-5.4c0-3.1-2.5-5.6-5.4-5.6C33.1,75,30.6,77.4,30.6,80.5z"/>
					<path d="M82,59.9L71.2,49.5l-21.4-0.3l-7,8.3C55.9,58.3,69,59.2,82,59.9z M72.2,47.1l16.1,15.5c-16.8-1-33.5-2.1-50.4-3.2
						l10.9-12.6L72.2,47.1z"/>
				</g>
			</g>
		</g>
	</g>
</g>
<g id="Layer_15">
</g>
<g id="Layer_16">
</g>
<g id="Layer_17">
</g>
<g id="Layer_18">
</g>
</svg>
