<?xml version="1.0" encoding="utf-8"?>
<!-- Generator: Adobe Illustrator 26.3.1, SVG Export Plug-In . SVG Version: 6.00 Build 0)  -->
<svg version="1.1" xmlns="http://www.w3.org/2000/svg" xmlns:xlink="http://www.w3.org/1999/xlink" x="0px" y="0px"
	 viewBox="0 0 133 133" style="enable-background:new 0 0 133 133;" xml:space="preserve">
<style type="text/css">
	.st0{fill:#BCD0D8;}
	.st1{fill:#6699B2;}
	.st2{fill:#496D7F;}
	.st3{fill:#5D699B;}
	.st4{fill:#FFFFFF;}
	.st5{fill:#FFFFFF;stroke:#000000;stroke-width:2;stroke-miterlimit:10;}
</style>
<g id="Layer_1">
	<g id="Layer_2_00000127747359432547905440000009211763619296830091_">
		<path class="st2" d="M121,133H12c-6.6,0-12-5.4-12-12V12C0,5.4,5.4,0,12,0h109c6.6,0,12,5.4,12,12v109
			C133,127.6,127.6,133,121,133z"/>
		<path class="st2" d="M121,133H12c-6.6,0-12-5.4-12-12V12C0,5.4,5.4,0,12,0h109c6.6,0,12,5.4,12,12v109
			C133,127.6,127.6,133,121,133z"/>
	</g>
</g>
<g id="Layer_2">
</g>
<g id="Layer_4">
</g>
<g id="Layer_5_00000096759886075198047500000016841880956640546723_">
</g>
<g id="Layer_6_00000151532325249707469710000014370122528315639221_">
</g>
<g id="Layer_7_00000042717999357893301760000000855885267568530853_">
</g>
<g id="Layer_8_00000168831599467053464300000003505523461608539011_">
</g>
<g id="Layer_9_00000089543259283313251050000005252079673544207528_">
</g>
<g id="Layer_10_00000084509998272139497780000008077192264451833754_">
	<g>
		<g id="XMLID_00000016760125485895078840000005654054338324846258_">
			<g>
				<polygon points="111.8,89.5 114.3,93.4 101.4,101.6 89.8,94.2 78.1,101.6 66.5,94.2 54.8,101.6 43.2,94.2 31.6,101.6 18.7,93.4 
					21.2,89.5 31.6,96.1 43.2,88.7 54.8,96.1 66.5,88.7 78.1,96.1 89.8,88.7 101.4,96.1 				"/>
				<polygon points="111.8,103.3 114.3,107.2 101.4,115.4 89.8,107.9 78.1,115.4 66.5,107.9 54.8,115.4 43.2,107.9 31.6,115.4 
					18.7,107.2 21.2,103.3 31.6,109.9 43.2,102.5 54.8,109.9 66.5,102.5 78.1,109.9 89.8,102.5 101.4,109.9 				"/>
				<path d="M111.2,74.6l2.5,3.8L101,86.6l-10.8-6.9l-0.6-0.4L83.7,83l-2.9,1.8L78,86.6l-2.8-1.8l-8.7-5.5l-8.7,5.5L55,86.6
					l-2.8-1.8L49.3,83l-5.8-3.7l-0.6,0.4l-10.9,7l-12.7-8.2l2.5-3.9L32,81.2l9-5.8L33,57l15.8-8.9l3.7-22.5h5.9v-8h16.1v8h5.9
					l3.7,22.4L100,57l-8,18.4l9,5.8L111.2,74.6z M86.9,75.4L94.1,59l-14.3-8.1l-8.2-4.6l-5.1-2.9l-5.1,2.9l-8.2,4.6L38.9,59L46,75.4
					l9,5.7l11.5-7.4L78,81.2L86.9,75.4z M78.9,45.2l-2.5-14.9H56.4l-2.5,15l12.5-7L78.9,45.2z M69.9,25.6v-3.5H63v3.5H69.9z"/>
				<polygon class="st4" points="94.1,59 86.9,75.4 78,81.2 66.5,73.8 55,81.2 46,75.4 38.9,59 53.2,50.9 61.4,46.3 66.5,43.5 
					71.6,46.3 79.8,50.9 				"/>
				<polygon class="st4" points="76.5,30.2 78.9,45.2 66.5,38.2 54,45.2 56.4,30.2 				"/>
				<rect x="63" y="22.2" class="st4" width="6.9" height="3.5"/>
			</g>
		</g>
	</g>
</g>
<g id="Layer_11_00000116220595310884250560000013807966725250984093_">
</g>
<g id="Layer_12">
</g>
<g id="Layer_13">
</g>
<g id="Layer_14">
</g>
<g id="Layer_15">
</g>
<g id="Layer_16">
</g>
<g id="Layer_17">
</g>
<g id="Layer_18">
</g>
</svg>
