<svg version="1.1" viewBox="0.0 0.0 133.44094488188978 133.44094488188978" fill="none" stroke="none" stroke-linecap="square" stroke-miterlimit="10" xmlns:xlink="http://www.w3.org/1999/xlink" xmlns="http://www.w3.org/2000/svg"><clipPath id="p.0"><path d="m0 0l133.44095 0l0 133.44095l-133.44095 0l0 -133.44095z" clip-rule="nonzero"/></clipPath><g clip-path="url(#p.0)"><path fill="#000000" fill-opacity="0.0" d="m0 0l133.44095 0l0 133.44095l-133.44095 0z" fill-rule="evenodd"/><path fill="#00a7ff" d="m1.6141732 23.974182l0 0c0 -11.837395 9.596105 -21.4335 21.433498 -21.4335l86.896774 0l0 0c5.684517 0 11.136215 2.2581658 15.155777 6.2777267c4.019554 4.019561 6.277733 9.471256 6.277733 15.155773l0 85.73142c0 11.837395 -9.596115 21.43351 -21.43351 21.43351l-86.896774 0c-11.837395 0 -21.433498 -9.596115 -21.433498 -21.43351z" fill-rule="evenodd"/><path stroke="#000000" stroke-width="4.0" stroke-linejoin="round" stroke-linecap="butt" d="m1.6141732 23.974182l0 0c0 -11.837395 9.596105 -21.4335 21.433498 -21.4335l86.896774 0l0 0c5.684517 0 11.136215 2.2581658 15.155777 6.2777267c4.019554 4.019561 6.277733 9.471256 6.277733 15.155773l0 85.73142c0 11.837395 -9.596115 21.43351 -21.43351 21.43351l-86.896774 0c-11.837395 0 -21.433498 -9.596115 -21.433498 -21.43351z" fill-rule="evenodd"/><path fill="#000000" d="m38.205048 56.673016l8.015625 0q2.375 0 3.546875 0.203125q1.171875 0.203125 2.09375 0.828125q0.921875 0.625 1.53125 1.671875q0.625 1.046875 0.625 2.34375q0 1.40625 -0.765625 2.5937462q-0.75 1.171875 -2.046875 1.75q1.828125 0.53125 2.8125 1.828125q0.984375 1.28125 0.984375 3.015625q0 1.375 -0.640625 2.671875q-0.640625 1.28125 -1.734375 2.0625q-1.09375 0.765625 -2.71875 0.9375q-1.0 0.109375 -4.875 0.140625l-6.828125 0l0 -20.046871zm4.046875 3.34375l0 4.624996l2.65625 0q2.359375 0 2.9375 -0.0625q1.046875 -0.125 1.640625 -0.7187462q0.59375 -0.59375 0.59375 -1.5625q0 -0.9375 -0.515625 -1.515625q-0.515625 -0.578125 -1.53125 -0.703125q-0.59375 -0.0625 -3.453125 -0.0625l-2.328125 0zm0 7.968746l0 5.359375l3.75 0q2.1875 0 2.78125 -0.125q0.890625 -0.171875 1.453125 -0.796875q0.578125 -0.640625 0.578125 -1.703125q0 -0.90625 -0.4375 -1.53125q-0.4375 -0.625 -1.265625 -0.90625q-0.828125 -0.296875 -3.59375 -0.296875l-3.265625 0zm16.142578 8.734375l0 -20.046871l3.84375 0l0 20.046871l-3.84375 0zm17.326172 0l0 -2.171875q-0.78125 1.15625 -2.078125 1.828125q-1.296875 0.671875 -2.734375 0.671875q-1.453125 0 -2.625 -0.640625q-1.15625 -0.640625 -1.6875 -1.796875q-0.515625 -1.171875 -0.515625 -3.21875l0 -9.187496l3.84375 0l0 6.671871q0 3.0625 0.203125 3.75q0.21875 0.6875 0.78125 1.09375q0.5625 0.40625 1.421875 0.40625q0.984375 0 1.765625 -0.53125q0.78125 -0.546875 1.0625 -1.34375q0.296875 -0.8125 0.296875 -3.921875l0 -6.124996l3.84375 0l0 14.515621l-3.578125 0zm15.962891 -4.625l3.828125 0.640625q-0.734375 2.109375 -2.328125 3.21875q-1.59375 1.09375 -3.984375 1.09375q-3.796875 0 -5.609375 -2.46875q-1.4375 -1.984375 -1.4375 -5.015625q0 -3.609375 1.875 -5.640621q1.890625 -2.046875 4.78125 -2.046875q3.234375 0 5.109375 2.1406212q1.875 2.140625 1.796875 6.546875l-9.625 0q0.046875 1.71875 0.921875 2.671875q0.890625 0.9375 2.21875 0.9375q0.90625 0 1.515625 -0.484375q0.625 -0.5 0.9375 -1.59375zm0.21875 -3.875q-0.046875 -1.671875 -0.875 -2.53125q-0.8125 -0.875 -1.984375 -0.875q-1.265625 0 -2.078125 0.90625q-0.828125 0.921875 -0.8125 2.5l5.75 0z" fill-rule="nonzero"/></g></svg>