<?xml version="1.0" encoding="utf-8"?>
<!-- Generator: Adobe Illustrator 26.3.1, SVG Export Plug-In . SVG Version: 6.00 Build 0)  -->
<svg version="1.1" id="Layer_1" xmlns="http://www.w3.org/2000/svg" xmlns:xlink="http://www.w3.org/1999/xlink" x="0px" y="0px"
	 viewBox="0 0 133 133" style="enable-background:new 0 0 133 133;" xml:space="preserve">
<style type="text/css">
	.st0{fill:#FFFFFF;}
</style>
<g>
	<g id="XMLID_00000181045529118359566760000004535363806602868902_">
		<g>
			<path class="st0" d="M88.9,40.8c2.6,0,4.6,2,4.6,4.4c0,2.4-2.1,4.3-4.6,4.4c-2.6,0-4.6-2-4.6-4.4C84.3,42.8,86.4,40.8,88.9,40.8z
				"/>
			<path class="st0" d="M108.7,49.3l-11.2,3.9c-0.7,0.3-1.2,1-1.1,1.7l2,13.2c0.2,1,0.5,2,1.1,2.9l8.2,13.3c0.8,1.2,0.9,2.7,0.4,4
				l-4.8,12.1c-0.3,0.6-0.8,1.1-1.4,1.4c-0.7,0.3-1.4,0.3-2.1,0c-0.7-0.2-1.2-0.7-1.5-1.3c-0.3-0.6-0.3-1.3,0-1.9l5.1-11.5
				c0.1-0.2,0.1-0.4,0.1-0.6c0-0.3-0.1-0.6-0.3-0.9L95,74.4h0c-0.4-0.5-1.1-0.8-1.7-0.6c-0.7,0.1-1.2,0.6-1.3,1.2l-2.3,11.4
				c-0.5,2.3-2.2,4.2-4.6,4.9l-9.8,2.9c-0.2,0.1-0.5,0.1-0.7,0.1c-0.4,0-0.8-0.1-1.1-0.3c-0.6-0.3-1-0.8-1.2-1.4
				c-0.2-0.6-0.1-1.2,0.2-1.7c0.3-0.5,0.8-0.9,1.4-1.1l9.1-2.3c0.6-0.2,1.1-0.7,1.2-1.2c0,0,2.4-13,2.4-13.2l-1.1-15l1.7-0.3
				c0.8-0.2,1.3-0.8,1.3-1.5c0-0.1,0-0.2,0-0.3c-0.2-0.8-1.1-1.4-2-1.2l-9.4,1.9c-0.9,0.2-1.5,1-1.3,1.8l1.5,8.8
				c0.1,0.8-0.5,1.5-1.3,1.7c-0.8,0.1-1.6-0.4-1.8-1.2l-1.5-10.7c-0.2-1.5,0.8-2.8,2.4-3.1l10.1-1.8v0c2.4,1.2,5.3,1.2,7.7-0.2
				l12.2-3.8v0c0.4-0.1,0.8-0.5,1-0.9c0.2-0.4,0.2-0.9,0-1.3l-3.1-5.9c-0.2-0.5-0.3-1-0.1-1.5c0.3-0.7,1-1.2,1.8-1.2
				c0.8,0,1.5,0.4,1.9,1l3.8,7.4c0.4,0.7,0.4,1.5,0.1,2.2C110.1,48.5,109.5,49.1,108.7,49.3z"/>
			<path class="st0" d="M45.1,40.8c2.5,0,4.6,2,4.6,4.4c0,2.4-2.1,4.3-4.6,4.4c-2.6,0-4.6-2-4.6-4.4C40.5,42.8,42.5,40.8,45.1,40.8z
				"/>
			<path class="st0" d="M61.6,91c0.3,0.6,0.3,1.2,0.1,1.9c-0.5,1.1-1.8,1.6-2.9,1.3l-9.8-2.9c-2.4-0.7-4.2-2.6-4.6-4.9L42,75
				c-0.1-0.6-0.7-1.1-1.3-1.2c-0.7-0.1-1.3,0.1-1.7,0.6l-8.2,11.4c-0.3,0.4-0.4,1-0.2,1.5l5.1,11.5c0.1,0.3,0.2,0.6,0.2,0.9
				c0,0.3-0.1,0.7-0.2,1c-0.3,0.6-0.8,1.1-1.5,1.3c-0.7,0.2-1.4,0.2-2.1,0c-0.7-0.3-1.2-0.8-1.4-1.4l-4.8-12.1
				c-0.5-1.3-0.4-2.8,0.4-4l8.2-13.3c0.6-0.9,0.9-1.9,1.1-2.9l2-13.2c0-0.1,0-0.2,0-0.2c0-0.7-0.4-1.2-1.1-1.5l-11.2-3.9
				c-0.8-0.3-1.4-0.8-1.7-1.6c-0.3-0.7-0.3-1.5,0.1-2.2l3.8-7.4c0.5-0.9,1.7-1.3,2.6-0.8c1,0.4,1.4,1.5,0.9,2.4l-3.1,5.9
				c-0.2,0.4-0.2,0.9,0,1.3c0.2,0.4,0.5,0.7,1,0.9l12.2,3.8c2.3,1.3,5.2,1.4,7.7,0.2l10.1,1.8c1.5,0.3,2.6,1.6,2.4,3.1l-1.5,10.7
				c-0.1,0.8-0.9,1.3-1.8,1.2c-0.8-0.1-1.4-0.8-1.3-1.7l1.5-8.8c0.1-0.8-0.4-1.6-1.3-1.8l-9.5-1.9c-0.9-0.2-1.8,0.4-2,1.2
				c-0.2,0.8,0.4,1.7,1.3,1.9l1.7,0.3l-1.1,15c0,0.2,2.4,13.2,2.4,13.2l0,0c0.1,0.6,0.6,1.1,1.2,1.2l9.1,2.3
				C60.7,90,61.3,90.4,61.6,91z"/>
			<path d="M95,74.4l8.2,11.4c0.2,0.3,0.3,0.6,0.3,0.9c0,0.2,0,0.4-0.1,0.6l-5.1,11.5c-0.3,0.6-0.2,1.3,0,1.9
				c0.3,0.6,0.8,1.1,1.5,1.3c0.7,0.2,1.4,0.2,2.1,0c0.7-0.3,1.2-0.8,1.4-1.4l4.8-12.1c0.5-1.3,0.4-2.8-0.4-4l-8.2-13.3
				c-0.6-0.9-0.9-1.9-1.1-2.9l-2-13.2c-0.1-0.7,0.3-1.4,1.1-1.7l11.2-3.9c0.8-0.3,1.4-0.8,1.7-1.6c0.3-0.7,0.3-1.5-0.1-2.2l-3.8-7.4
				c-0.3-0.7-1.1-1.1-1.9-1c-0.8,0-1.5,0.5-1.8,1.2c-0.2,0.5-0.2,1,0.1,1.5l3.1,5.9c0.2,0.4,0.2,0.9,0,1.3c-0.2,0.4-0.6,0.7-1,0.9v0
				l-12.2,3.8c-2.3,1.3-5.2,1.4-7.7,0.2v0l-10.1,1.8c-1.5,0.3-2.6,1.6-2.4,3.1l1.5,10.7c0.1,0.8,0.9,1.3,1.8,1.2
				c0.8-0.1,1.4-0.8,1.3-1.7l-1.5-8.8c-0.1-0.8,0.4-1.6,1.3-1.8l9.4-1.9c0.9-0.2,1.8,0.4,2,1.2c0,0.1,0,0.2,0,0.3
				c0,0.7-0.5,1.4-1.3,1.5L85.6,58l1.1,15c0,0.2-2.4,13.2-2.4,13.2c-0.1,0.6-0.6,1.1-1.2,1.2l-9.1,2.3c-0.6,0.2-1.1,0.6-1.4,1.1
				c-0.3,0.5-0.4,1.1-0.2,1.7c0.2,0.6,0.6,1.1,1.2,1.4c0.3,0.2,0.7,0.3,1.1,0.3c0.2,0,0.5,0,0.7-0.1l9.8-2.9
				c2.4-0.7,4.2-2.6,4.6-4.9L92,75c0.1-0.6,0.7-1.1,1.3-1.2C94,73.6,94.7,73.9,95,74.4L95,74.4z M113.4,44.2
				c0.8,1.5,0.8,3.2,0.1,4.8c-0.7,1.5-2,2.7-3.6,3.3l-9.9,3.5l1.8,11.9c-0.3,0.9,8.4,14.1,8.9,15.2c1.2,2,1.5,4.5,0.6,6.7l0,0
				l-4.8,12.1c-0.6,1.4-1.7,2.6-3.2,3.2c-1.5,0.6-3.2,0.7-4.7,0.1c-1.5-0.6-2.7-1.7-3.4-3.1c-0.3-0.7-0.5-1.5-0.5-2.2
				c0-0.7,0.2-1.5,0.5-2.2l4.7-10.7l-5.4-7.6L93,87c-0.7,3.4-3.3,6.2-6.9,7.3l-9.8,2.9c-1.5,0.4-3.1,0.3-4.4-0.4s-2.4-1.8-2.8-3.2
				c-0.4-1.4-0.3-2.9,0.5-4.2c0.8-1.3,2-2.2,3.5-2.6l8.1-2.1l2.2-11.7l-1-14.4l-2.8,0.6l1.2,7.3c0.2,1.2-0.1,2.5-0.9,3.5
				c-0.8,1-2,1.7-3.3,1.8c-1.3,0.2-2.6-0.2-3.7-0.9c-1.1-0.8-1.7-1.9-1.9-3.1l-1.5-10.7c-0.4-3.1,1.8-6,5.1-6.6l7.7-1.4
				c-1.4-2-1.6-4.5-0.7-6.7c0.9-2.2,2.8-3.9,5.3-4.5c2.4-0.7,5-0.2,7.1,1.2c2,1.4,3.2,3.7,3.2,6c0,0.7-0.1,1.4-0.3,2l5.6-1.8
				l-2.2-4.3c-1.3-2.5-0.1-5.5,2.5-6.6c2.7-1.2,5.8-0.2,7.1,2.3L113.4,44.2z M93.5,45.2c0-2.4-2.1-4.3-4.6-4.4c-2.6,0-4.6,2-4.6,4.4
				c0,2.4,2.1,4.3,4.6,4.4C91.5,49.5,93.5,47.6,93.5,45.2z"/>
			<path d="M45.5,55.8c0.2-0.8,1-1.4,2-1.2l9.5,1.9c0.9,0.2,1.5,1,1.3,1.8L56.7,67c-0.1,0.8,0.5,1.5,1.3,1.7
				c0.9,0.1,1.6-0.4,1.8-1.2l1.5-10.7c0.2-1.5-0.8-2.8-2.4-3.1l-10.1-1.8c-2.4,1.2-5.3,1.1-7.7-0.2l-12.2-3.8
				c-0.5-0.1-0.8-0.5-1-0.9c-0.2-0.4-0.2-0.9,0-1.3l3.1-5.9c0.5-0.9,0-2-0.9-2.4c-1-0.4-2.1-0.1-2.6,0.8l-3.8,7.4
				c-0.3,0.7-0.4,1.5-0.1,2.2c0.3,0.7,0.9,1.3,1.7,1.6l11.2,3.9c0.7,0.2,1.1,0.8,1.1,1.5c0,0.1,0,0.2,0,0.2l-2,13.2
				c-0.2,1-0.5,2-1.1,2.9l-8.2,13.3c-0.8,1.2-0.9,2.7-0.4,4l4.8,12.1c0.3,0.6,0.8,1.1,1.4,1.4c0.7,0.3,1.4,0.3,2.1,0
				c0.7-0.2,1.2-0.7,1.5-1.3c0.1-0.3,0.2-0.7,0.2-1c0-0.3-0.1-0.6-0.2-0.9l-5.1-11.5c-0.2-0.5-0.1-1,0.2-1.5L39,74.4
				c0.4-0.5,1.1-0.8,1.7-0.6c0.7,0.1,1.2,0.6,1.3,1.2l2.3,11.4c0.5,2.3,2.2,4.2,4.6,4.9l9.8,2.9c1.2,0.4,2.5-0.2,2.9-1.3
				c0.3-0.6,0.2-1.3-0.1-1.9c-0.3-0.6-0.9-1-1.5-1.2L51,87.5c-0.6-0.2-1.1-0.7-1.2-1.2l0,0c0,0-2.4-13-2.4-13.2l1.1-15l-1.7-0.3
				C45.8,57.5,45.3,56.7,45.5,55.8z M59.5,50.6c3.3,0.6,5.5,3.5,5.1,6.6l-1.5,10.7c-0.2,1.2-0.9,2.3-1.9,3.1c-1,0.7-2.4,1.1-3.7,0.9
				C56.2,71.6,55,71,54.3,70c-0.6-0.8-1-1.8-1-2.7c0-0.2,0-0.5,0.1-0.7l1.2-7.3l-2.9-0.6l-1,14.4l2.1,11.7l8.1,2.1
				c7.4,2.1,4.2,12.3-3.3,10.3l-9.8-2.9c-3.6-1-6.2-3.9-6.9-7.3v0l-1.5-7.7L34,86.8l4.7,10.7c2.9,7.1-8.3,11.2-11.3,4.1l-4.8-12.2
				c-0.9-2.2-0.7-4.7,0.6-6.7l8.2-13.3c0.9-0.9,2.2-12.4,2.5-13.8l-9.9-3.5c-1.6-0.6-3-1.8-3.6-3.3c-0.7-1.5-0.6-3.3,0.1-4.8
				l3.8-7.4c1.3-2.5,4.5-3.5,7.1-2.3c2.7,1.2,3.8,4.2,2.5,6.6l-2.2,4.3l5.6,1.8c-0.2-0.6-0.3-1.3-0.3-2c0-2.4,1.2-4.6,3.2-6
				c2-1.4,4.6-1.9,7-1.2c2.4,0.6,4.4,2.3,5.3,4.5c0.9,2.2,0.6,4.7-0.7,6.7h0L59.5,50.6z M49.7,45.2c0-2.4-2.1-4.3-4.6-4.4
				c-2.6,0-4.6,2-4.6,4.4c0,2.4,2.1,4.3,4.6,4.4C47.6,49.5,49.7,47.6,49.7,45.2z"/>
		</g>
	</g>
</g>
</svg>
