<?xml version="1.0" encoding="utf-8"?>
<!-- Generator: Adobe Illustrator 26.3.1, SVG Export Plug-In . SVG Version: 6.00 Build 0)  -->
<svg version="1.1" xmlns="http://www.w3.org/2000/svg" xmlns:xlink="http://www.w3.org/1999/xlink" x="0px" y="0px"
	 viewBox="0 0 133 133" style="enable-background:new 0 0 133 133;" xml:space="preserve">
<style type="text/css">
	.st0{fill:#BCD0D8;}
	.st1{fill:#6699B2;}
	.st2{fill:#496D7F;}
	.st3{fill:#5D699B;}
	.st4{fill:#FFFFFF;}
	.st5{fill:#FFFFFF;stroke:#000000;stroke-width:2;stroke-miterlimit:10;}
</style>
<g id="Layer_1">
	<g id="Layer_2_00000101089988198094914050000008000703178749639056_">
		<path class="st2" d="M121,133H12c-6.6,0-12-5.4-12-12V12C0,5.4,5.4,0,12,0h109c6.6,0,12,5.4,12,12v109
			C133,127.6,127.6,133,121,133z"/>
		<path class="st2" d="M121,133H12c-6.6,0-12-5.4-12-12V12C0,5.4,5.4,0,12,0h109c6.6,0,12,5.4,12,12v109
			C133,127.6,127.6,133,121,133z"/>
	</g>
</g>
<g id="Layer_2">
</g>
<g id="Layer_4">
</g>
<g id="Layer_5_00000096759886075198047500000016841880956640546723_">
</g>
<g id="Layer_6_00000151532325249707469710000014370122528315639221_">
</g>
<g id="Layer_7_00000042717999357893301760000000855885267568530853_">
</g>
<g id="Layer_8_00000168831599467053464300000003505523461608539011_">
</g>
<g id="Layer_9_00000089543259283313251050000005252079673544207528_">
</g>
<g id="Layer_10_00000084509998272139497780000008077192264451833754_">
</g>
<g id="Layer_11_00000116220595310884250560000013807966725250984093_">
</g>
<g id="Layer_12">
</g>
<g id="Layer_13">
</g>
<g id="Layer_14">
</g>
<g id="Layer_15">
	<g>
		<g id="XMLID_00000173880960357747496370000001773078018165884072_">
			<g>
				<path class="st4" d="M70.7,61.3c2.3,2.3,2.3,6.1,0,8.4c-1.7,1.7-4.3,2.2-6.5,1.3c-2.2-0.9-3.7-3.1-3.7-5.5
					c0-2.4,1.5-4.6,3.7-5.5C66.4,59.1,69,59.6,70.7,61.3z"/>
				<path class="st4" d="M92.4,61c0.5,2.8,0.5,5.7,0.1,8.5l-12.1,0.1c-0.7,0-1.3,0.4-1.6,1.1c-0.3,0.6-0.1,1.4,0.4,1.9l8.5,8.5
					c-0.8,1.1-1.7,2.1-2.6,3c-1.1,1.1-2.3,2.1-3.6,3L73,78.7c-0.5-0.5-1.3-0.6-1.9-0.4c-0.6,0.3-1.1,0.9-1.1,1.6l0.2,11.6
					c-1.2,0.2-2.4,0.3-3.7,0.3c-1.5,0-3.1-0.1-4.6-0.4l0-12c0-0.7-0.4-1.3-1.1-1.6c-0.7-0.3-1.4-0.1-1.9,0.4l-8.3,8.3
					c-2.3-1.8-4.3-3.9-5.9-6.3l8.1-8.1c0.5-0.5,0.7-1.2,0.4-1.9c-0.3-0.7-0.9-1.1-1.6-1.1l-11,0.2c-0.2-1.2-0.3-2.5-0.3-3.7
					c0-1.5,0.1-2.9,0.4-4.3l10.8,0.2h0c0.7,0,1.3-0.4,1.6-1.1c0.3-0.7,0.1-1.4-0.4-1.9l-7.8-7.8c1.7-2.4,3.7-4.5,6-6.2l7.9,7.9
					c0.5,0.5,1.2,0.6,1.9,0.4c0.7-0.3,1.1-0.9,1.1-1.6l0.1-11.4c2.7-0.5,5.5-0.5,8.2-0.2L70,50.6c0,0.7,0.4,1.3,1.1,1.6
					c0.7,0.3,1.4,0.1,1.9-0.4l8.1-8.1c2.4,1.6,4.5,3.6,6.3,5.9L79.1,58h0c-0.5,0.5-0.6,1.2-0.4,1.9c0.3,0.6,0.9,1.1,1.6,1.1L92.4,61
					z M75.2,69.1c1.5-3.5,0.6-7.6-2.1-10.3c-3.7-3.7-9.7-3.7-13.3,0c-2.7,2.7-3.5,6.8-2.1,10.3c1.5,3.5,4.9,5.8,8.7,5.8
					C70.3,75,73.8,72.7,75.2,69.1z"/>
				<path class="st4" d="M110.8,64h-3.8c-1,0-1.7,0.8-1.7,1.7c0,1,0.8,1.7,1.7,1.7h3.8C110.3,78,106.1,88,98.9,95.7L96.3,93
					c-0.3-0.3-0.8-0.5-1.2-0.5s-0.9,0.2-1.2,0.5c-0.3,0.3-0.5,0.8-0.5,1.2c0,0.5,0.2,0.9,0.5,1.2l2.7,2.7
					c-7.8,7.2-17.9,11.3-28.4,11.6v-3.6c0-1-0.8-1.7-1.7-1.7s-1.7,0.8-1.7,1.7v3.6c-10.5-0.5-20.4-4.6-28.1-11.7l2.5-2.6
					c0.7-0.7,0.7-1.8,0-2.4c-0.7-0.7-1.8-0.7-2.5,0L34,95.6c-7.1-7.7-11.3-17.6-11.7-28.1h3.6c1,0,1.7-0.8,1.7-1.7
					c0-1-0.8-1.7-1.7-1.7h-3.6c0.3-10.6,4.5-20.7,11.6-28.4l2.7,2.6c0.3,0.3,0.8,0.5,1.2,0.5s0.9-0.2,1.2-0.5
					c0.3-0.3,0.5-0.8,0.5-1.2s-0.2-0.9-0.5-1.2l-2.7-2.7C44,25.9,54,21.7,64.6,21.3v3.8c0,1,0.8,1.7,1.7,1.7s1.7-0.8,1.7-1.7v-3.9
					c10.6,0.4,20.8,4.5,28.6,11.7l-2.8,2.8c-0.3,0.3-0.5,0.8-0.5,1.2s0.2,0.9,0.5,1.2c0.3,0.3,0.8,0.5,1.2,0.5
					c0.5,0,0.9-0.2,1.2-0.5l2.8-2.8C106.2,43.2,110.4,53.4,110.8,64z M87.5,86.5c11.6-11.6,11.6-30.5,0-42
					c-11.6-11.6-30.5-11.6-42,0s-11.6,30.5,0,42c5.6,5.6,13.1,8.7,21,8.7C74.4,95.2,81.9,92.1,87.5,86.5z"/>
				<path d="M89.4,52.6l-4.9,4.9l7,0C91,55.8,90.2,54.2,89.4,52.6z M61.9,39.7L61.8,51c0,0.7-0.4,1.3-1.1,1.6
					c-0.6,0.3-1.4,0.1-1.9-0.4l-7.9-7.9c-2.3,1.7-4.4,3.8-6,6.2l7.8,7.8c0.5,0.5,0.7,1.3,0.4,1.9c-0.3,0.7-0.9,1.1-1.6,1.1h0
					l-10.8-0.2c-0.2,1.4-0.4,2.9-0.4,4.3c0,1.2,0.1,2.5,0.3,3.7l11-0.2c0.7,0,1.3,0.4,1.6,1.1c0.3,0.7,0.1,1.4-0.4,1.9l-8.1,8.1
					c1.6,2.4,3.6,4.5,5.9,6.3l8.3-8.3c0.5-0.5,1.2-0.6,1.9-0.4c0.6,0.3,1.1,0.9,1.1,1.6l0,12c1.5,0.3,3.1,0.4,4.6,0.4
					c1.2,0,2.5-0.1,3.7-0.3L70,79.9c0-0.7,0.4-1.3,1.1-1.6c0.7-0.3,1.4-0.1,1.9,0.4l8.4,8.4c1.3-0.9,2.5-1.9,3.6-3
					c0.9-0.9,1.8-1.9,2.6-3l-8.5-8.5c-0.5-0.5-0.6-1.2-0.4-1.9c0.3-0.7,0.9-1.1,1.6-1.1l12.1-0.1c0.4-2.8,0.4-5.7-0.1-8.5l-12-0.1
					c-0.7,0-1.3-0.4-1.6-1.1c-0.3-0.7-0.1-1.4,0.4-1.9h0l8.3-8.3c-1.8-2.3-3.9-4.3-6.3-5.9L73,51.8c-0.5,0.5-1.2,0.6-1.9,0.4
					c-0.7-0.3-1.1-0.9-1.1-1.6l0.1-11.1C67.4,39.1,64.6,39.2,61.9,39.7z M87.5,44.5c11.6,11.6,11.6,30.5,0,42
					c-5.6,5.6-13.1,8.7-21,8.7c-7.9,0-15.4-3.1-21-8.7c-11.6-11.6-11.6-30.5,0-42S75.9,32.9,87.5,44.5z M91.7,73L91.7,73L84.5,73
					l5,5.1C90.4,76.4,91.2,74.7,91.7,73z M78.4,88.9l-4.8-4.8l0.1,6.6C75.3,90.3,76.9,89.7,78.4,88.9z M73.6,46.4l4.4-4.5
					c-1.4-0.7-2.9-1.2-4.4-1.7L73.6,46.4z M58.4,90.5v-6.9l-4.8,4.8C55.1,89.2,56.7,89.9,58.4,90.5z M58.4,46.9l0.1-6.3
					c-1.5,0.5-3,1.1-4.5,1.9L58.4,46.9z M42.9,77l4.4-4.4l-6.1,0.1C41.7,74.2,42.2,75.6,42.9,77z M41.5,57.7l5.8,0.1l-4.1-4.1
					C42.4,55,41.9,56.3,41.5,57.7z"/>
				<path d="M73.2,58.8c2.7,2.7,3.5,6.8,2.1,10.3c-1.5,3.5-4.9,5.8-8.7,5.8c-3.8,0-7.3-2.3-8.7-5.8c-1.5-3.5-0.6-7.6,2.1-10.3
					C63.5,55.2,69.5,55.2,73.2,58.8z M70.7,69.7c2.3-2.3,2.3-6.1,0-8.4c-1.7-1.7-4.3-2.2-6.5-1.3c-2.2,0.9-3.7,3.1-3.7,5.5
					c0,2.4,1.5,4.6,3.7,5.5C66.4,71.9,69,71.4,70.7,69.7z"/>
				<path d="M100.3,99.3c-9,9-21.1,14-33.8,14h0c-0.1,0-0.1,0-0.2,0c-0.1,0-0.1,0-0.2,0c-12.4-0.1-24.2-5-33.1-13.7
					c-0.3-0.2-0.5-0.4-0.6-0.6c-8.7-8.8-13.6-20.7-13.7-33c0-0.1,0-0.1,0-0.2c0-0.1,0-0.1,0-0.2v0c0-12.7,5-24.8,14-33.8
					s21.1-14,33.8-14c12.7,0,24.8,5,33.8,14c9,9,14,21.1,14,33.8C114.3,78.2,109.2,90.3,100.3,99.3z M106.9,64h3.8
					c-0.3-10.6-4.5-20.8-11.7-28.6l-2.8,2.8c-0.3,0.3-0.8,0.5-1.2,0.5c-0.5,0-0.9-0.2-1.2-0.5c-0.3-0.3-0.5-0.8-0.5-1.2
					s0.2-0.9,0.5-1.2l2.8-2.8C88.8,25.8,78.6,21.6,68,21.3v3.9c0,1-0.8,1.7-1.7,1.7s-1.7-0.8-1.7-1.7v-3.8
					C54,21.7,44,25.9,36.3,33.1l2.7,2.7c0.3,0.3,0.5,0.8,0.5,1.2s-0.2,0.9-0.5,1.2c-0.3,0.3-0.8,0.5-1.2,0.5s-0.9-0.2-1.2-0.5
					l-2.7-2.6C26.7,43.3,22.6,53.4,22.2,64h3.6c1,0,1.7,0.8,1.7,1.7c0,1-0.8,1.7-1.7,1.7h-3.6c0.4,10.5,4.6,20.4,11.7,28.1l2.5-2.5
					c0.7-0.7,1.8-0.7,2.5,0c0.7,0.7,0.7,1.8,0,2.4l-2.5,2.6c7.7,7.1,17.7,11.3,28.1,11.7v-3.6c0-1,0.8-1.7,1.7-1.7s1.7,0.8,1.7,1.7
					v3.6c10.6-0.3,20.7-4.5,28.4-11.6l-2.7-2.7c-0.3-0.3-0.5-0.8-0.5-1.2c0-0.5,0.2-0.9,0.5-1.2c0.3-0.3,0.8-0.5,1.2-0.5
					s0.9,0.2,1.2,0.5l2.7,2.7c7.2-7.7,11.4-17.7,11.8-28.2h-3.8c-1,0-1.7-0.8-1.7-1.7C105.2,64.8,105.9,64,106.9,64z"/>
			</g>
		</g>
	</g>
</g>
<g id="Layer_16">
</g>
<g id="Layer_17">
</g>
<g id="Layer_18">
</g>
</svg>
