<?xml version="1.0" encoding="utf-8"?>
<!-- Generator: Adobe Illustrator 26.3.1, SVG Export Plug-In . SVG Version: 6.00 Build 0)  -->
<svg version="1.1" id="Layer_1" xmlns="http://www.w3.org/2000/svg" xmlns:xlink="http://www.w3.org/1999/xlink" x="0px" y="0px"
	 viewBox="0 0 133 133" style="enable-background:new 0 0 133 133;" xml:space="preserve">
<style type="text/css">
	.st0{fill:#8123DE;}
	.st1{fill:#FFFFFF;}
</style>
<g id="Layer_1_00000044873295794470796150000000278353769518299554_">
	<g id="Layer_1_00000130640081086220838410000011721614330154684315_">
		<g id="Layer_2_00000080909792367530824080000017432296311554303617_">
			<path class="st0" d="M121,133H12c-6.6,0-12-5.4-12-12V12C0,5.4,5.4,0,12,0h109c6.6,0,12,5.4,12,12v109
				C133,127.6,127.6,133,121,133z"/>
			<path class="st0" d="M121,133H12c-6.6,0-12-5.4-12-12V12C0,5.4,5.4,0,12,0h109c6.6,0,12,5.4,12,12v109
				C133,127.6,127.6,133,121,133z"/>
		</g>
	</g>
</g>
<g id="Layer_2_00000170979145909033208260000011020591678184695463_">
</g>
<g id="Layer_3">
</g>
<g id="Layer_4">
</g>
<g id="Layer_6">
</g>
<g id="Layer_7">
</g>
<g id="Layer_8">
</g>
<g id="Layer_9">
</g>
<g id="Layer_8_00000057865249058894741350000011819249851481251758_">
	<g>
		<g id="XMLID_00000123434775517666122710000015319992002421600408_">
			<g>
				<path class="st1" d="M80.1,16.1c-2.5,0.1-4.4-0.5-6-1.5s-2.7-2.5-3.4-4.8c0.2,0,0.5,0,0.7,0c2.1,0,3.7,0.5,5.2,1.4
					C78.1,12.2,79.2,13.8,80.1,16.1z"/>
				<path class="st1" d="M89.5,44.1c1.3,2.2,1.3,5.7,1,7.1c-0.5,1.9-1.2,4.3-2.6,6.3c-1.5,1.9-3.5,3.5-7.3,3.7s-6.7-1.1-8.8-3
					c-2.2-1.9-3.5-4.5-3.9-6.7c-0.1-0.6-0.2-1.3-0.2-2v-0.3c0-1.8,0.5-3.7,1.5-5c1.5-1.9,4.2-3.2,9.9-1.8c0.1,0.1,0.3,0.1,0.5,0.1
					h0.1h0.1l0,0c0.2,0,0.4-0.1,0.5-0.1c1.8-0.6,3.3-0.9,4.5-0.9l0,0c0.6,0,1.2,0.1,1.7,0.2C87.9,42.2,88.8,42.9,89.5,44.1z
					 M78.8,58.3c0.2-0.4,0.2-0.7,0.1-1.1c-0.1-0.4-0.4-0.6-0.7-0.8c-1.8-0.9-3.2-2.8-3.9-4.9c-0.6-2-0.5-4.2,0.2-5.3
					c0.2-0.4,0.3-0.9,0.1-1.3c-0.4-0.4-0.8-0.7-1.3-0.7s-0.9,0.2-1.2,0.6c-1.3,2.2-1.3,5-0.4,7.6c0.8,2.6,2.6,5.2,5.3,6.4
					c0.4,0.2,0.7,0.2,1.1,0.1C78.4,58.9,78.6,58.6,78.8,58.3z"/>
				<path class="st1" d="M65,49.3v0.2c0,0.7-0.1,1.3-0.2,2c-0.4,2.2-1.8,4.8-3.9,6.7c-2.2,1.9-5,3.2-8.8,3c-3.7-0.2-5.9-1.8-7.3-3.7
					c-1.4-1.9-2.1-4.4-2.6-6.3c-0.4-1.5-0.4-5,1-7.1c0.6-1.1,1.6-1.9,3-2.3c0.5-0.1,1.1-0.2,1.7-0.2c1.2,0,2.7,0.2,4.5,0.9
					c0.2,0.1,0.4,0.1,0.5,0.1H53l0,0c0.2,0,0.4,0,0.5-0.1c5.7-1.4,8.4-0.1,9.9,1.8C64.5,45.6,64.9,47.5,65,49.3z M53.1,58.3
					c0.2-0.4,0.2-0.7,0.1-1.1c-0.1-0.4-0.4-0.6-0.7-0.8c-1.8-0.9-3.2-2.8-3.9-4.9c-0.7-2-0.5-4.2,0.2-5.3c0.2-0.4,0.3-0.9,0.1-1.3
					c-0.2-0.4-0.7-0.7-1.2-0.7s-0.9,0.2-1.2,0.6c-1.3,2.2-1.3,5-0.4,7.6c0.8,2.6,2.6,5.2,5.3,6.4c0.4,0.2,0.7,0.2,1.1,0.1
					C52.7,58.9,53,58.6,53.1,58.3z"/>
				<path d="M78.8,57.2c0.1,0.4,0.1,0.7-0.1,1.1c-0.2,0.4-0.5,0.6-0.8,0.7c-0.4,0.1-0.7,0.1-1.1-0.1c-2.7-1.3-4.4-3.8-5.3-6.4
					c-0.9-2.6-0.9-5.4,0.4-7.6c0.4-0.4,0.9-0.7,1.4-0.7s0.9,0.3,1.2,0.7c0.2,0.4,0.2,0.9-0.1,1.3c-0.7,1.2-0.8,3.3-0.2,5.4
					c0.6,2,2,4,3.9,4.9C78.5,56.6,78.7,56.9,78.8,57.2z"/>
				<path d="M64.7,4.6c0.1,0.1,0.1,0.1,0.2,0.2c0,0.1,0.1,0.1,0.1,0.1C65,5,65.1,5,65.1,5c0.1,0.1,0.1,0.2,0.1,0.2
					c0,0.1,0,0.1,0,0.1c0,0.1,0,0.2,0,0.3c0,0.2,0,0.3,0,0.5c1.5,0.7,1.9,1,3.8,1.2h0.1c3.6-0.5,6.6,0,9.1,1.7
					c2.4,1.6,4.1,4.3,5.1,7.8c0.2,0.4,0.2,0.9-0.1,1.3c-0.2,0.4-0.7,0.6-1.2,0.6l0,0c-3.6,0.4-6.7-0.2-9.2-1.8
					c-2.3-1.5-3.9-3.9-4.7-7c-0.9-0.2-1.6-0.4-2.3-0.6c1.2,4.2,4.1,8.1,7.1,12.4c3.7,5.1,7.6,10.7,8.1,17.7c2.5-0.6,4.5-0.7,6.3-0.3
					c2.2,0.5,3.7,1.9,4.7,3.5c1.9,3.2,1.9,7,1.3,9.2c-0.5,1.9-1.2,4.7-3,7.2s-4.8,4.5-9.3,4.8c-4.4,0.3-8.1-1.3-10.8-3.6
					c-1.6-1.4-2.8-3.1-3.7-4.9c-0.8,1.8-2,3.5-3.7,4.9c-2.6,2.3-6.3,3.9-10.8,3.6c-4.5-0.2-7.5-2.3-9.3-4.8s-2.6-5.3-3-7.1l0,0
					c-0.6-2.3-0.6-6.1,1.3-9.2c1-1.6,2.5-2.9,4.7-3.5c1.7-0.5,3.7-0.4,6.2,0.2c0.4-6,3-11.5,5.4-16.8c2.7-5.7,5.3-11.2,5.3-17
					c0-0.1,0-0.1,0-0.1c0-0.1,0.1-0.3,0.1-0.4c0.1-0.1,0.1-0.2,0.1-0.2c0.1-0.1,0.1-0.1,0.2-0.2c0.1,0,0.1-0.1,0.1-0.1
					c0.1,0,0.1-0.1,0.1-0.1c0.1-0.1,0.2-0.1,0.2-0.1c-0.1-0.1,0.1-0.2,0.3-0.2c0.1,0,0.1,0,0.1,0c0.1,0,0.1,0,0.1,0
					c0.1,0,0.1,0,0.1,0.1c0.1,0,0.1,0,0.1,0.1c0.1,0,0.1,0.1,0.1,0.1l0.1,0.1C64.6,4.5,64.6,4.5,64.7,4.6z M53,42.6
					c-0.2,0-0.4-0.1-0.5-0.1c-1.9-0.6-3.3-0.9-4.6-0.9c-0.6,0-1.2,0.1-1.7,0.2c-1.5,0.4-2.3,1.2-3,2.3c-1.3,2.2-1.3,5.7-1,7.1
					c0.5,1.9,1.2,4.3,2.6,6.3c1.5,1.9,3.5,3.5,7.3,3.7c3.7,0.2,6.7-1.1,8.8-3c2.2-1.9,3.5-4.5,3.9-6.7c0.1-0.6,0.2-1.3,0.2-2v-0.2
					c0-1.8-0.5-3.7-1.5-5c-1.5-1.9-4.2-3.2-9.9-1.8C53.4,42.6,53.2,42.7,53,42.6L53,42.6L53,42.6z M80.2,42.5
					c-0.2,0.1-0.4,0.1-0.5,0.1l0,0h-0.1h-0.1c-0.2,0-0.3,0-0.5-0.1c-5.7-1.4-8.4-0.2-9.9,1.8c-1.1,1.3-1.5,3.2-1.5,5v0.2
					c0,0.7,0.1,1.3,0.2,2c0.4,2.2,1.8,4.8,3.9,6.7c2.2,1.9,5,3.2,8.8,3c3.7-0.2,5.9-1.8,7.3-3.7s2.1-4.4,2.6-6.3
					c0.4-1.5,0.4-5-1-7.1c-0.7-1.1-1.6-1.9-3-2.3c-0.5-0.1-1.1-0.2-1.7-0.2l0,0C83.6,41.6,82.1,41.8,80.2,42.5z M74.1,14.7
					c1.5,1,3.5,1.5,6,1.5c-0.9-2.3-2-3.9-3.5-4.9c-1.3-0.9-3-1.4-5.2-1.4c-0.2,0-0.5,0-0.7,0C71.4,12.1,72.6,13.6,74.1,14.7z
					 M78.2,39.6c-0.5-6.2-4-11.2-7.6-16.3c-2.5-3.3-5-6.6-6.6-10.3l0,0c-1.1,3.8-2.8,7.4-4.4,10.8c-2.5,5.3-4.9,10.4-5.2,15.8
					c5.4-1,9.2,0.5,11.2,3c0.3,0.4,0.5,0.8,0.8,1.1c0.2-0.4,0.5-0.8,0.8-1.1C69.1,40.1,72.8,38.6,78.2,39.6z"/>
				<path d="M48.8,46.3c-0.7,1.2-0.8,3.3-0.2,5.4c0.6,2,2,4,3.9,4.9c0.4,0.2,0.6,0.4,0.7,0.8c0.1,0.4,0.1,0.7-0.1,1.1
					c-0.2,0.4-0.5,0.6-0.8,0.7c-0.3,0-0.6,0-1-0.2c-2.7-1.3-4.4-3.8-5.3-6.4c-0.9-2.6-0.9-5.4,0.4-7.6c0.2-0.4,0.7-0.7,1.2-0.6
					c0.5,0,0.9,0.3,1.2,0.7C49,45.3,49,45.9,48.8,46.3z"/>
			</g>
		</g>
	</g>
</g>
</svg>
