<?xml version="1.0" encoding="utf-8"?>
<!-- Generator: Adobe Illustrator 27.1.1, SVG Export Plug-In . SVG Version: 6.00 Build 0)  -->
<svg version="1.1" id="Layer_1" xmlns="http://www.w3.org/2000/svg" xmlns:xlink="http://www.w3.org/1999/xlink" x="0px" y="0px"
	 viewBox="0 0 133 133" style="enable-background:new 0 0 133 133;" xml:space="preserve">
<style type="text/css">
	.st0{fill:#1C7F52;}
	.st1{fill:#FFFFFF;}
	.st2{fill:#231F20;}
</style>
<path class="st0" d="M120.9,133H12.1c-6.6,0-12-5.4-12-12V12c0-6.6,5.4-12,12-12h108.8c6.6,0,12,5.4,12,12v109
	C132.9,127.6,127.5,133,120.9,133z"/>
<g>
	<g id="XMLID_00000000907265322131139180000009535862150648820642_">
		<g>
			<path class="st1" d="M46.6,98.7c-0.6,0.6-1.2,1.1-1.9,1.5h-0.1c-2.7,0.9-6.9-0.5-9.1-3.5c2.3,2.9,6.4,4.3,9,3.4h0.1
				C45.3,99.7,46,99.2,46.6,98.7z"/>
			<path class="st1" d="M39.8,88c0.2,1.2-0.3,2.5-1.3,3.2c-0.3,0.2-0.5,0.6-0.6,1c0-0.4,0.2-0.8,0.5-1.1
				C39.4,90.4,39.9,89.1,39.8,88c-0.2-0.3-0.3-0.4-0.4-0.6C39.5,87.5,39.7,87.7,39.8,88z"/>
			<path class="st1" d="M42.8,86.7c0.6,1.9,0.3,3.8-0.8,5.4C43,90.5,43.2,88.6,42.8,86.7c-0.7-1.3-1.9-2.3-3.3-2.8
				c-1.9-0.7-4.1-0.6-5.9,0.3c-0.5,0.2-0.9,0.5-1.2,0.9c0.4-0.4,0.8-0.7,1.3-1c1.8-0.9,4-1,5.9-0.3C41.1,84.3,42.2,85.3,42.8,86.7z"
				/>
			<path class="st1" d="M37,102.4c0.1,0,0.1,0.1,0.2,0.1c-0.9,0.1-1.8,0-2.7-0.2c-3.3-0.7-6.2-2.6-8.1-5.4c-1.9-2.8-2.6-6.2-1.9-9.5
				c0.3-1.3,0.7-2.5,1.3-3.6c-0.6,1.1-1,2.3-1.2,3.5c-0.7,3.3,0,6.7,1.9,9.5c1.9,2.8,4.8,4.8,8.1,5.4
				C35.4,102.3,36.2,102.4,37,102.4z"/>
			<path class="st1" d="M63.2,78.5C63.2,78.5,63.2,78.5,63.2,78.5c-1-0.9-2.4-1.3-3.8-1.2c-2.7,0.3-4.7,2.6-4.6,5.3v8.6
				c0,1-0.3,2-0.8,3c-0.5,0.9-1.2,1.8-2,2.5h-0.1c-1,3-3.2,5.5-6.1,6.8c-2.6,1.7-5.6,2.6-8.7,2.6c-1,0-2.1-0.1-3.1-0.3
				c-1.3-0.3-2.6-0.7-3.8-1.3c-0.1,0.1-0.1,0.2-0.2,0.3c-1.5,1.2-2.8,2.6-3.9,4.2c0,0,0,0.1,0,0.1c-0.1,0-0.1,0-0.1-0.1
				c-0.1-0.1-0.1-0.2,0-0.3c1.2-1.5,2.5-2.9,3.9-4.2c0.1-0.1,0.1-0.2,0.2-0.3c1.2,0.6,2.5,1,3.8,1.3c1,0.2,2,0.3,3.1,0.3
				c3.1,0,6.1-0.9,8.7-2.6c2.9-1.3,5.1-3.8,6.1-6.8h0.1c1.8-1.2,2.8-3.1,2.8-5.2v-8.7c0-2.6,1.9-4.9,4.6-5.3
				C60.7,77.1,62.1,77.5,63.2,78.5z"/>
			<path d="M67.5,67.3c0.8,0.4,1.2,1.4,0.8,2.3l-3.1,6.1c0.1,0.1,0.3,0.2,0.5,0.3c1.8,1.6,2.8,3.9,2.8,6.3c0,1.3-0.3,2.7-0.9,3.8
				c-1.5,2.7-2.4,5.7-2.4,8.8v2.6c0,4-1.6,7.9-4.5,10.7c-2.9,2.8-6.7,4.4-10.7,4.5H26.3c-1.4,0-2.6-0.8-3.2-2
				c-0.6-1.2-0.5-2.7,0.3-3.8c1.1-1.6,2.4-3,3.9-4.3c-3.7-2.9-6-7.2-6.2-11.9c-0.2-4.7,1.6-9.2,5.1-12.5C29.6,75,34.3,73.5,39,74
				s8.9,3.1,11.5,7c0.3,0.5,0.6,1.1,0.9,1.8v-0.2c0-1.7,0.5-3.3,1.4-4.7c0.9-1.4,2.2-2.5,3.7-3.3v-7.5c0-0.9,0.8-1.7,1.7-1.7
				s1.7,0.8,1.7,1.7v6.8c0.7,0,1.5,0.1,2.2,0.3l3.1-6.1C65.6,67.3,66.6,66.9,67.5,67.3z M64.9,82.3c0-0.3,0-0.7-0.1-1
				c-0.2-0.9-0.6-1.7-1.2-2.4c-0.1-0.1-0.2-0.2-0.3-0.3c0,0-0.1-0.1-0.1-0.1c-1.1-1-2.5-1.4-3.9-1.3c-2.7,0.4-4.6,2.7-4.6,5.3v8.7
				c0,2.1-1,4-2.8,5.2h-0.1c-1,3-3.2,5.5-6.1,6.8c-2.6,1.7-5.6,2.6-8.7,2.6c-1.1,0-2.1-0.1-3.1-0.3c-1.3-0.3-2.6-0.7-3.8-1.3
				c-0.1,0.1-0.1,0.2-0.2,0.3c-1.4,1.3-2.7,2.7-3.9,4.2c-0.1,0.1-0.1,0.2,0,0.3c0,0.1,0,0.1,0.1,0.1c0,0.1,0,0.1,0,0.2
				c0,0.1,0.1,0.1,0.2,0.1h23.4c3.1,0,6.1-1.3,8.3-3.5c2.2-2.3,3.5-5.3,3.5-8.4v-2.6c0-1.6,0.3-3.2,0.6-4.8c0.5-1.9,1.2-3.8,2.2-5.5
				C64.7,83.9,64.9,83.1,64.9,82.3z M49,94.7c1.3-3.9,0.8-8.3-1.4-11.9c-1.9-2.8-4.8-4.7-8.1-5.4s-6.7,0-9.5,1.9
				c-0.7,0.5-1.4,1.1-2,1.7c-0.1,0.2-0.3,0.3-0.4,0.5c-0.3,0.3-0.5,0.6-0.7,0.9c-0.1,0.2-0.2,0.3-0.4,0.5c-0.2,0.3-0.5,0.7-0.6,1.1
				c-0.6,1.1-1.1,2.3-1.3,3.6c-0.7,3.3,0,6.7,1.9,9.5c1.9,2.8,4.8,4.7,8.1,5.4c0.9,0.2,1.8,0.3,2.7,0.2c-0.1,0-0.1-0.1-0.2-0.1
				c0.1,0,0.2,0,0.3,0c-2.6-1.3-4.8-3.4-6-6.1c-1.4-3.1-1.6-8.2,0.8-11c0.1-0.1,0.2-0.2,0.3-0.3c0.4-0.3,0.8-0.6,1.2-0.9
				c1.8-0.9,4-1,5.9-0.3c1.4,0.5,2.6,1.5,3.2,2.9c0.6,1.8,0.3,3.8-0.7,5.3c-0.1,0.2-0.2,0.3-0.3,0.5c-0.1,0.2-0.3,0.3-0.4,0.5
				c-0.2,0.2-0.3,0.3-0.5,0.5c-0.7,0.6-1.8,0.6-2.4-0.1c-0.3-0.4-0.5-0.9-0.4-1.3c0.1-0.4,0.3-0.7,0.6-1c1-0.7,1.5-2,1.3-3.2
				c-0.1-0.2-0.2-0.4-0.4-0.6c0,0,0,0,0,0c-0.2-0.2-0.5-0.4-0.8-0.5c-0.5-0.2-1-0.3-1.5-0.3c-0.6,0-1.1,0.1-1.7,0.4
				c-1.9,1.1-2.1,5.3-0.9,8c0.2,0.5,0.5,0.9,0.7,1.3c0.1,0.2,0.2,0.3,0.3,0.5c2.2,2.9,6.5,4.4,9.1,3.5h0.1c0.7-0.4,1.4-0.9,1.9-1.5
				c0,0,0.1-0.1,0.1-0.1C47.8,97.5,48.6,96.2,49,94.7z"/>
			<path class="st1" d="M64.8,81.2c0.1,0.3,0.1,0.7,0.1,1c0,0.8-0.2,1.6-0.6,2.3c-1,1.8-1.7,3.6-2.2,5.5c-0.4,1.5-0.6,3-0.7,4.5v2.6
				c0,3.2-1.3,6.2-3.5,8.4c-2.2,2.3-5.2,3.5-8.3,3.5H26.2c0,0-0.1,0-0.1,0c0,0,0-0.1,0-0.1c1.1-1.6,2.4-3,3.9-4.2
				c0.1-0.1,0.1-0.2,0.2-0.3c1.2,0.6,2.5,1,3.8,1.3c1,0.2,2.1,0.3,3.1,0.3c3.1,0,6.1-0.9,8.7-2.6c2.9-1.3,5.1-3.8,6.1-6.8H52
				c0.9-0.8,1.5-1.6,2-2.5c0.5-0.9,0.8-1.9,0.8-3v-8.6c-0.1-2.7,1.9-5,4.6-5.3c1.4-0.1,2.8,0.3,3.9,1.3c0.1,0.1,0.2,0.2,0.3,0.3
				C64.2,79.5,64.6,80.4,64.8,81.2z"/>
			<path class="st1" d="M64.8,81.2c-0.2-0.9-0.6-1.7-1.2-2.4C64.2,79.5,64.6,80.3,64.8,81.2z"/>
			<path class="st2" d="M62.1,90c-0.4,1.6-0.6,3.2-0.6,4.8v2.6c0,3.1-1.3,6.1-3.5,8.4c-2.2,2.2-5.2,3.5-8.3,3.5H26.3
				c-0.1,0-0.2,0-0.2-0.1c0-0.1,0-0.1,0-0.2c0,0,0.1,0,0.1,0h23.4c3.1,0,6.1-1.2,8.3-3.5c2.2-2.2,3.5-5.2,3.5-8.4v-2.6
				C61.5,93.1,61.7,91.6,62.1,90z"/>
			<path class="st1" d="M47.6,82.8c2.2,3.6,2.7,8,1.4,11.9c-0.4,1.5-1.2,2.9-2.2,3.9c1-1.1,1.8-2.4,2.2-3.8c1.4-4,0.9-8.4-1.4-11.9
				c-1.9-2.8-4.8-4.7-8.1-5.4c-3.3-0.7-6.7,0-9.5,1.9c-0.7,0.5-1.3,1-1.9,1.6c0.6-0.6,1.3-1.2,2-1.7c2.8-1.9,6.2-2.6,9.5-1.9
				S45.7,80,47.6,82.8z"/>
			<path class="st1" d="M47.5,82.9c2.3,3.5,2.8,7.9,1.4,11.9c-0.4,1.4-1.1,2.8-2.2,3.8c0,0-0.1,0.1-0.1,0.1c-0.6,0.6-1.3,1-2,1.4
				h-0.1c-2.6,0.9-6.7-0.5-9-3.4c-0.1-0.2-0.2-0.3-0.3-0.5c-0.2-0.4-0.5-0.8-0.6-1.2c-0.5-1.1-0.8-2.5-0.8-3.8
				c0-1.8,0.5-3.5,1.7-4.2c1-0.4,2.2-0.5,3.2-0.1c0.2,0.1,0.5,0.2,0.7,0.4c0,0,0,0,0,0c0.1,0.1,0.2,0.3,0.3,0.5
				c0.2,1.2-0.3,2.5-1.3,3.2c-0.3,0.3-0.5,0.7-0.5,1.1c-0.1,0.5-0.1,1,0.3,1.4c0.7,0.7,1.7,0.7,2.4,0.1c0.2-0.2,0.5-0.4,0.6-0.6
				c0.2-0.2,0.3-0.3,0.4-0.5c0.1-0.2,0.3-0.3,0.3-0.5c1.1-1.6,1.3-3.6,0.8-5.4c-0.6-1.4-1.7-2.4-3.2-2.9c-1.9-0.7-4.1-0.6-5.9,0.3
				c-0.5,0.3-0.9,0.6-1.3,1c-0.1,0.1-0.2,0.2-0.3,0.3c-2.5,2.8-2.3,8-0.9,11.1c1.2,2.6,3.2,4.7,5.8,6c-0.8,0-1.6-0.1-2.4-0.2
				c-3.3-0.6-6.2-2.6-8.1-5.4c-1.9-2.8-2.6-6.2-1.9-9.5c0.2-1.2,0.6-2.4,1.2-3.5c0.2-0.4,0.4-0.7,0.6-1.1c0.1-0.2,0.2-0.3,0.4-0.5
				c0.2-0.3,0.5-0.6,0.7-0.9c0.1-0.2,0.3-0.3,0.4-0.5c0.6-0.6,1.2-1.1,1.9-1.6c2.8-1.9,6.2-2.6,9.5-1.9
				C42.7,78.2,45.6,80.1,47.5,82.9z"/>
			<path class="st1" d="M41.2,93.1c0.2-0.2,0.3-0.3,0.4-0.5C41.5,92.7,41.4,92.9,41.2,93.1z"/>
			<path class="st1" d="M40.7,93.6c0.2-0.2,0.4-0.3,0.5-0.5c-0.2,0.2-0.4,0.4-0.6,0.6c-0.7,0.6-1.7,0.6-2.4-0.1
				c-0.4-0.4-0.5-0.9-0.3-1.4c0,0.5,0.1,1,0.4,1.3C38.9,94.2,40,94.2,40.7,93.6z"/>
			<path class="st1" d="M39.3,87.3c-0.2-0.2-0.5-0.3-0.7-0.4c-1-0.4-2.2-0.3-3.2,0.1c-1.1,0.7-1.7,2.3-1.7,4.2
				c0,1.3,0.3,2.7,0.8,3.8c0.2,0.4,0.4,0.8,0.6,1.2c-0.3-0.4-0.5-0.8-0.7-1.3c-1.2-2.7-1-6.9,0.9-8c0.5-0.3,1.1-0.4,1.7-0.4
				c0.5,0,1,0.1,1.5,0.3C38.8,86.9,39,87.1,39.3,87.3z"/>
			<path class="st1" d="M37.3,102.5c-0.1,0-0.2,0-0.3,0c-2.6-1.3-4.6-3.4-5.8-6c-1.4-3.2-1.6-8.3,0.9-11.1c-2.4,2.8-2.2,7.9-0.8,11
				C32.5,99.1,34.7,101.2,37.3,102.5z"/>
			<path class="st1" d="M27.9,81c-0.1,0.2-0.3,0.3-0.4,0.5C27.6,81.3,27.8,81.1,27.9,81z"/>
		</g>
		<g>
		</g>
	</g>
</g>
<g>
	<g id="XMLID_00000166676779302793936930000016655496184585056150_">
		<g>
			<path class="st1" d="M83.1,114.4c-0.9,0.1-1.8,0-2.7-0.2c-0.2,0-0.3-0.1-0.5-0.1c0.2,0.1,0.4,0.1,0.6,0.1
				C81.4,114.3,82.3,114.4,83.1,114.4z"/>
			<path class="st1" d="M82,89.1c-2.1,0.2-4.2,0.9-6.1,2.1c-2.8,1.9-4.7,4.8-5.4,8.1c-0.7,3.3,0,6.7,1.9,9.5
				c1.3,1.9,3.1,3.5,5.1,4.4c-2.1-1-3.9-2.5-5.2-4.4c-1.9-2.8-2.5-6.2-1.9-9.5c0.7-3.3,2.6-6.2,5.4-8.1C77.7,90,79.8,89.2,82,89.1z"
				/>
			<path class="st1" d="M90.6,112c0.5-0.2,1-0.5,1.5-0.9c-0.4,0.4-0.9,0.7-1.5,1h-0.1c-3.1,1.1-8.4-1.1-10.1-5.1
				c-0.8-2-1-4.6-0.4-6.4c-0.6,1.8-0.5,4.4,0.4,6.3c1.8,4,7,6.2,10.1,5.1H90.6z"/>
			<path d="M113.4,79.1c0.8,0.4,1.2,1.4,0.8,2.3l-3.1,6.1c0.2,0.1,0.3,0.2,0.5,0.3c1.8,1.6,2.8,3.9,2.8,6.3c0,1.3-0.3,2.7-0.9,3.8
				c-1.5,2.7-2.3,5.7-2.4,8.8v2.6c0,4-1.6,7.9-4.5,10.7c-2.9,2.8-6.7,4.4-10.7,4.5H72.2c-1.4,0-2.6-0.8-3.2-2
				c-0.6-1.2-0.5-2.7,0.3-3.8c1.1-1.6,2.4-3,3.9-4.3c-3.7-2.9-6-7.2-6.2-11.9c-0.2-4.7,1.6-9.3,5.1-12.5c3.4-3.2,8.1-4.7,12.8-4.2
				c4.7,0.5,8.9,3.1,11.5,7c0.2,0.6,0.6,1.2,0.9,1.8v-0.2c0-1.7,0.5-3.3,1.4-4.7c0.9-1.4,2.2-2.5,3.7-3.3v-7.5
				c0-0.9,0.8-1.7,1.7-1.7s1.7,0.8,1.7,1.7v6.8c0.7,0,1.5,0.1,2.2,0.3l3.1-6.1C111.6,79.1,112.6,78.7,113.4,79.1z M110.8,94.1
				c0-0.2,0-0.3,0-0.5c-0.1-1.2-0.7-2.5-1.7-3.3c-1.1-1-2.5-1.4-3.9-1.3c-2.7,0.4-4.6,2.7-4.6,5.3v8.6c0,2.1-1,4-2.8,5.2h-0.1
				c-1,3-3.2,5.5-6.1,6.8c-2.6,1.7-5.6,2.6-8.7,2.6c-1.1,0-2.1-0.1-3.1-0.3c-1.3-0.3-2.6-0.7-3.8-1.3c-0.1,0.1-0.1,0.2-0.2,0.3
				c-1.4,1.3-2.7,2.7-3.9,4.2c-0.1,0.1-0.1,0.2,0,0.3c0,0.1,0.1,0.1,0.2,0.1c0,0,0,0.1-0.1,0.1c0,0.1-0.1,0.2,0,0.3
				c0,0.1,0.1,0.1,0.2,0.1h23.3c3.2,0,6.2-1.3,8.4-3.5c1.8-1.8,2.9-4.1,3.3-6.5c0.2-0.8,0.3-1.6,0.3-2.5v-2.6c0-2.3,0.5-4.9,1.5-7.3
				c0.1-0.2,0.2-0.5,0.3-0.7c0.3-0.6,0.6-1.2,0.9-1.7C110.7,95.8,110.8,95,110.8,94.1C110.8,94.2,110.8,94.2,110.8,94.1
				C110.8,94.2,110.8,94.1,110.8,94.1z M94.9,106.6c1.3-3.9,0.8-8.3-1.4-11.9c-1.9-2.8-4.8-4.7-8.1-5.4c-0.7-0.1-1.3-0.2-2-0.2
				c-0.5,0-1,0-1.4,0c-2.2,0.2-4.3,0.9-6.2,2.1c-2.8,1.9-4.7,4.8-5.4,8.1c-0.6,3.3,0,6.7,1.9,9.5c1.3,2,3.1,3.5,5.2,4.4
				c0.8,0.4,1.5,0.6,2.4,0.8c0.2,0.1,0.3,0.1,0.5,0.1c0.9,0.2,1.8,0.3,2.7,0.2c0,0,0.1,0,0.1,0c-2.6-1.3-4.8-3.4-6-6.1
				c-0.8-1.9-1.2-4.4-0.9-6.8c0-0.2,0.1-0.3,0.1-0.5c0-0.1,0-0.3,0.1-0.4c0.5-1.9,1.4-3.6,3.2-4.6c1.8-0.9,4-1,5.9-0.3
				c1.2,0.4,2.3,1.3,2.9,2.4c0.1,0.2,0.2,0.3,0.2,0.5c0.3,0.9,0.4,1.8,0.3,2.7c-0.2,1.6-1,3.1-2.4,4.2c-0.4,0.4-1,0.5-1.5,0.4
				c-0.2-0.1-0.4-0.1-0.6-0.3c-0.1-0.1-0.2-0.1-0.2-0.2l0,0c-0.4-0.4-0.5-1-0.4-1.5c0.1-0.3,0.2-0.6,0.5-0.9
				c0.9-0.6,1.4-1.7,1.3-2.7c0-0.1,0-0.1,0-0.2c0-0.1,0-0.2,0-0.4c-0.3-0.5-0.7-0.9-1.2-1s-0.9-0.2-1.4-0.2c-0.6,0-1.2,0.1-1.8,0.4
				c-0.4,0.2-0.8,0.7-1,1.2c-0.1,0.2-0.2,0.3-0.2,0.5c-0.7,1.8-0.5,4.4,0.4,6.4c1.7,4,7,6.2,10.1,5.1h0.1c0.5-0.3,1-0.6,1.5-1
				c0,0,0,0,0.1-0.1C93.5,110,94.5,108.4,94.9,106.6z"/>
			<path class="st1" d="M110.8,94.2C110.8,94.2,110.8,94.2,110.8,94.2c0,0.8-0.2,1.7-0.6,2.3c-0.3,0.6-0.6,1.2-0.9,1.7
				c0.3-0.6,0.6-1.2,0.9-1.8C110.6,95.7,110.8,94.9,110.8,94.2z"/>
			<path class="st1" d="M110.8,93.7c0,0.2,0,0.3,0,0.5c0,0.8-0.2,1.6-0.6,2.2c-0.3,0.6-0.6,1.2-0.9,1.8c-0.1,0.2-0.2,0.5-0.3,0.7
				c-1,2.5-1.6,5.1-1.6,7.8v2.6c0,0.7,0,1.3-0.2,1.9c-0.5,2.3-1.6,4.3-3.2,5.9c-2.3,2.3-5.3,3.5-8.4,3.5H72.2c0,0,0,0,0,0
				c1.1-1.6,2.4-2.9,3.8-4.1c0.1-0.1,0.1-0.2,0.2-0.3c1.2,0.6,2.5,1,3.8,1.3c1,0.2,2.1,0.3,3.1,0.3c3.1,0,6.1-0.9,8.7-2.6
				c2.9-1.3,5.1-3.8,6.1-6.8h0.1c0.9-0.6,1.6-1.4,2-2.3c0.5-0.9,0.8-1.9,0.8-2.9v-8.6c-0.1-2.7,1.9-5,4.6-5.3
				c1.4-0.1,2.8,0.3,3.9,1.3C110.1,91.3,110.7,92.4,110.8,93.7z"/>
			<path class="st1" d="M110.8,93.7c-0.1-1.3-0.7-2.3-1.6-2.8c-1.1-1-2.5-1.4-3.9-1.3c-2.7,0.3-4.7,2.6-4.6,5.3v8.6
				c0,1.1-0.3,2.1-0.8,2.9c-0.5,0.9-1.2,1.7-2,2.3h-0.1c-1,3-3.2,5.5-6.1,6.8c-2.6,1.7-5.6,2.6-8.7,2.6c-1,0-2.1-0.1-3.1-0.3
				c-1.3-0.3-2.6-0.7-3.8-1.3c-0.1,0.1-0.1,0.2-0.2,0.3c-1.5,1.2-2.7,2.5-3.8,4.1c-0.1,0-0.2,0-0.2-0.1c-0.1-0.1-0.1-0.2,0-0.3
				c1.2-1.5,2.5-2.9,3.9-4.2c0.1-0.1,0.1-0.2,0.2-0.3c1.2,0.6,2.5,1,3.8,1.3c1,0.2,2,0.3,3.1,0.3c3.1,0,6.1-0.9,8.7-2.6
				c2.9-1.3,5.1-3.8,6.1-6.8h0.1c1.8-1.2,2.8-3.1,2.8-5.2v-8.6c0-2.6,1.9-4.9,4.6-5.3c1.4-0.1,2.8,0.3,3.9,1.3
				C110.1,91.2,110.7,92.4,110.8,93.7z"/>
			<path class="st2" d="M104.1,117.3c1.6-1.6,2.8-3.7,3.2-5.9c-0.4,2.4-1.5,4.6-3.3,6.5c-2.2,2.2-5.2,3.5-8.4,3.5H72.2
				c-0.1,0-0.2,0-0.2-0.1c-0.1-0.1,0-0.2,0-0.3c0,0,0-0.1,0.1-0.1c0,0,0,0,0,0h23.5C98.8,120.8,101.8,119.6,104.1,117.3z"/>
			<path class="st1" d="M93.6,94.7c2.2,3.6,2.7,8,1.4,11.9c-0.4,1.8-1.5,3.4-2.9,4.5c1.3-1.1,2.3-2.7,2.8-4.5
				c1.4-4,0.9-8.4-1.4-11.9c-1.9-2.8-4.8-4.7-8.1-5.4c-0.6-0.1-1.3-0.2-1.9-0.2c0.7,0,1.3,0.1,2,0.2C88.8,90,91.7,91.9,93.6,94.7z"
				/>
			<path class="st1" d="M93.4,94.7c2.3,3.5,2.8,7.9,1.4,11.9c-0.4,1.8-1.4,3.3-2.8,4.5c0,0,0,0-0.1,0.1c-0.4,0.3-0.9,0.6-1.5,0.9
				h-0.1c-3.1,1.1-8.3-1.1-10.1-5.1c-0.8-1.9-1-4.5-0.4-6.3c0.1-0.2,0.1-0.3,0.2-0.5c0.3-0.5,0.6-0.9,1-1.1c0.6-0.3,1.2-0.4,1.8-0.4
				c0.5,0,0.9,0,1.4,0.2c0.5,0.2,1,0.5,1.2,1c0,0.1,0,0.2,0,0.3c0,0.1,0,0.1,0,0.2c0,1-0.5,2-1.3,2.6c-0.3,0.3-0.4,0.7-0.5,1
				c-0.1,0.5,0,1.1,0.4,1.5v0h0c0.1,0.1,0.2,0.2,0.2,0.2c0.2,0.1,0.4,0.2,0.6,0.3c0.5,0.1,1.1,0,1.5-0.4c1.4-1,2.2-2.6,2.4-4.2
				c0.1-0.9,0-1.8-0.3-2.7c-0.1-0.2-0.2-0.3-0.2-0.5c-0.6-1.1-1.6-1.9-2.9-2.4c-1.9-0.7-4.1-0.6-5.9,0.3c-1.8,0.9-2.7,2.6-3.2,4.6
				c0,0.1-0.1,0.3-0.1,0.4c0,0.2-0.1,0.3-0.1,0.5c-0.3,2.4,0.1,4.9,0.8,6.8c1.2,2.7,3.3,4.8,6,6.1c-0.9,0-1.7-0.1-2.6-0.2
				c-0.2,0-0.4-0.1-0.6-0.1c-0.8-0.2-1.6-0.5-2.4-0.8c-2-1-3.8-2.5-5.1-4.4c-1.9-2.8-2.6-6.2-1.9-9.5c0.7-3.3,2.6-6.2,5.4-8.1
				c1.8-1.2,3.9-2,6.1-2.1c0.5,0,1,0,1.4,0c0.6,0,1.3,0.1,1.9,0.2C88.7,90,91.6,91.9,93.4,94.7z"/>
			<path class="st1" d="M86.7,105.5c1.4-1.1,2.2-2.6,2.4-4.2C88.8,102.9,88,104.5,86.7,105.5z"/>
			<path class="st2" d="M85.7,99.7c0,0.1,0,0.2,0,0.4c0-0.1,0-0.2,0-0.3c-0.2-0.5-0.7-0.8-1.2-1c-0.5-0.2-0.9-0.2-1.4-0.2
				c-0.6,0-1.2,0.1-1.8,0.4c-0.4,0.2-0.8,0.6-1,1.1c0.2-0.5,0.6-0.9,1-1.2c0.6-0.3,1.2-0.4,1.8-0.4c0.5,0,0.9,0.1,1.4,0.2
				S85.3,99.2,85.7,99.7z"/>
			<path class="st1" d="M84.5,105.7c0.2,0.1,0.4,0.2,0.6,0.3C84.9,105.9,84.7,105.8,84.5,105.7z"/>
			<polygon class="st1" points="84.2,105.4 84.3,105.4 84.2,105.4 			"/>
			<path class="st2" d="M83.2,114.4c0,0-0.1,0-0.1,0c-2.7-1.3-4.8-3.4-6-6.1c-0.8-1.9-1.2-4.5-0.8-6.8c-0.3,2.4,0.1,4.9,0.9,6.8
				C78.4,111,80.7,113.1,83.2,114.4z"/>
			<path class="st1" d="M76.4,101c0,0.2-0.1,0.3-0.1,0.5C76.3,101.3,76.4,101.1,76.4,101z"/>
		</g>
		<g>
		</g>
	</g>
</g>
</svg>
