<?xml version="1.0" encoding="utf-8"?>
<!-- Generator: Adobe Illustrator 26.3.1, SVG Export Plug-In . SVG Version: 6.00 Build 0)  -->
<svg version="1.1" xmlns="http://www.w3.org/2000/svg" xmlns:xlink="http://www.w3.org/1999/xlink" x="0px" y="0px"
	 viewBox="0 0 133 133" style="enable-background:new 0 0 133 133;" xml:space="preserve">
<style type="text/css">
	.st0{fill:#BCD0D8;}
	.st1{fill:#FFFFFF;}
</style>
<g id="Layer_2">
	<path class="st0" d="M121,133H12c-6.6,0-12-5.4-12-12V12C0,5.4,5.4,0,12,0h109c6.6,0,12,5.4,12,12v109C133,127.6,127.6,133,121,133
		z"/>
</g>
<g id="Layer_1">
</g>
<g id="Layer_3">
</g>
<g id="Layer_5">
</g>
<g id="Layer_6">
</g>
<g id="Layer_7">
</g>
<g id="Layer_8">
</g>
<g id="Layer_9">
	<g>
		<g id="XMLID_00000160892514732964669500000007247468160761117324_">
			<g>
				<path class="st1" d="M102.93,53.37c5.99,0,10.86,4.87,10.86,10.86v10.71h-4.7c0.69-4.21,1.65-14.02-3.14-18.81
					c-0.16-0.16-0.34-0.28-0.55-0.36l-4.88-1.91c-0.19-0.07-0.39-0.11-0.58-0.11v-0.38H102.93z"/>
				<path class="st1" d="M21.04,34.8l-1.54-1.18c1.61-0.15,3.16-0.09,3.9,0.41c0.39,0.26,0.88,0.34,1.33,0.21
					c0.1-0.03,9.72-2.56,19.92,8.15c1.07,1.53,10.36,13.84,29.08,9c0.14-0.05,14.04-4.35,23.65,1.73c0.26,0.16,0.56,0.25,0.86,0.25
					h1.7v0.38c-0.46,0-0.91,0.2-1.23,0.57c-0.44,0.52-0.51,1.27-0.16,1.86c1.64,2.8,5.41,11.11,3.11,15.85
					c-0.22,0.46-0.21,0.99,0.02,1.44c0.17,0.33,4.03,7.75,8.07,11.49c0.27,2.71,1.45,13.01,3.88,17.95l-1.1,1.5
					c-0.1,0.15-0.18,0.31-0.23,0.48l-0.63,2.04h-3.46c0.7-1.92,1.28-4.77,0.41-7.94c-0.05-1.8-0.84-12.23-12.17-19.5
					c-1.09-0.95-2.7-2.67-3.03-3.66c-0.17-0.49-0.55-0.87-1.04-1.03c-0.49-0.16-1.02-0.07-1.44,0.23c-2.49,1.8-6.37,7.09-3.29,14.24
					c0.09,0.19,0.21,0.37,0.37,0.52c0,0,0.18,0.23,0.14,0.48c-0.07,0.48-0.79,1.31-2.59,2.21c-0.21,0.11-0.4,0.26-0.55,0.45
					c-0.17,0.22-4.11,5.33-5.94,10.89c-0.02,0.01-0.06,0.01-0.09,0.02c-0.57,0.08-1.05,0.45-1.27,0.98
					c-0.19,0.48-0.47,1.27-0.57,2.11h-4.37c-0.17,0-0.25-0.09-0.3-0.17c-0.06-0.1-0.06-0.21,0-0.32c1.85-3.19,5-8.21,9.58-13.99
					c0.08-0.1,0.15-0.2,0.2-0.32c0.9-1.92,1.69-5.6-0.68-7.74c-1.25-3.21-2.45-7.08-2.32-7.97c0.13-0.55-0.04-1.12-0.44-1.51
					c-0.4-0.4-0.97-0.56-1.51-0.42c-0.11,0.03-11.31,2.7-20.56,0.42c-0.53-0.13-1.08,0.02-1.48,0.39c-0.4,0.36-0.59,0.91-0.5,1.44
					c0.12,0.74,3.05,18.25,6.5,25.44c0.05,0.11,0.12,0.22,0.2,0.32c-0.01,0.17-0.33,0.86-1.88,1.86c-0.4,0.25-0.66,0.67-0.73,1.13
					c-0.03,0.26-0.1,0.81-0.09,1.44h-3.24c-0.25-1.51-0.25-3.33,0.45-4.03c0.35-0.35,0.52-0.86,0.45-1.36
					c-0.11-0.84-2.91-20.72-11.23-25.87c-0.52-0.32-1.18-0.32-1.7,0.01c-0.04,0.02-4.13,2.53-11.33,2.98
					c-0.71-0.2-1.58-0.14-2.26,0.44c-1.37,1.14-1.33,3.54,0.11,8.04c0.03,0.09,0.06,0.17,0.11,0.25l1.79,3.48l0.69,3.18
					c0.16,0.74,0.82,1.27,1.58,1.27h0.79v2.41c-2.25-0.53-6.46-2.64-8.26-11c-0.02-0.11-0.06-0.21-0.1-0.32
					c-1.15-2.57-2.86-8.36-0.86-9.99c0.86-0.48,7.49-4.1,12.67-4.58c0.54-0.05,1.02-0.37,1.28-0.85c0.25-0.48,0.24-1.06-0.02-1.54
					c-0.03-0.05-2.95-5.41-1.79-12.55c0.04-0.27,0.75-6.54-2.91-10.85c-0.46-0.54-1.22-0.71-1.87-0.43l-3.25,1.41
					c-0.61,0.27-0.99,0.88-0.97,1.55c0,0.03,0.1,2.68-1.05,4.62c-0.14,0.25-0.22,0.53-0.22,0.82v3.18
					c-0.13,0.03-0.45,0.08-0.72,0.08c-0.31,0-0.63,0.1-0.89,0.27c-0.04,0.03-1.06,0.67-2.06,0.2l-1.26-1.36L21.67,36
					C21.65,35.53,21.42,35.09,21.04,34.8z"/>
				<path d="M30.02,87.14c-1.44-4.5-1.48-6.9-0.11-8.04c0.68-0.58,1.55-0.64,2.26-0.44c7.2-0.45,11.29-2.96,11.33-2.98
					c0.52-0.33,1.18-0.33,1.7-0.01c8.32,5.15,11.12,25.03,11.23,25.87c0.07,0.5-0.1,1.01-0.45,1.36c-0.7,0.7-0.7,2.52-0.45,4.03
					h3.24c-0.01-0.63,0.06-1.18,0.09-1.44c0.07-0.46,0.33-0.88,0.73-1.13c1.55-1,1.87-1.69,1.88-1.86c-0.08-0.1-0.15-0.21-0.2-0.32
					c-3.45-7.19-6.38-24.7-6.5-25.44c-0.09-0.53,0.1-1.08,0.5-1.44c0.4-0.37,0.95-0.52,1.48-0.39c9.25,2.28,20.45-0.39,20.56-0.42
					c0.54-0.14,1.11,0.02,1.51,0.42c0.4,0.39,0.57,0.96,0.44,1.51c-0.13,0.89,1.07,4.76,2.32,7.97c2.37,2.14,1.58,5.82,0.68,7.74
					c-0.05,0.12-0.12,0.22-0.2,0.32c-4.58,5.78-7.73,10.8-9.58,13.99c-0.06,0.11-0.06,0.22,0,0.32c0.05,0.08,0.13,0.17,0.3,0.17
					h4.37c0.1-0.84,0.38-1.63,0.57-2.11c0.22-0.53,0.7-0.9,1.27-0.98c0.03-0.01,0.07-0.01,0.09-0.02
					c1.83-5.56,5.77-10.67,5.94-10.89c0.15-0.19,0.34-0.34,0.55-0.45c1.8-0.9,2.52-1.73,2.59-2.21c0.04-0.25-0.14-0.48-0.14-0.48
					c-0.16-0.15-0.28-0.33-0.37-0.52c-3.08-7.15,0.8-12.44,3.29-14.24c0.42-0.3,0.95-0.39,1.44-0.23c0.49,0.16,0.87,0.54,1.04,1.03
					c0.33,0.99,1.94,2.71,3.03,3.66c11.33,7.27,12.12,17.7,12.17,19.5c0.87,3.17,0.29,6.02-0.41,7.94h3.46l0.63-2.04
					c0.05-0.17,0.13-0.33,0.23-0.48l1.1-1.5c-2.43-4.94-3.61-15.24-3.88-17.95c-4.04-3.74-7.9-11.16-8.07-11.49
					c-0.23-0.45-0.24-0.98-0.02-1.44c2.3-4.74-1.47-13.05-3.11-15.85c-0.35-0.59-0.28-1.34,0.16-1.86c0.32-0.37,0.77-0.57,1.23-0.57
					c0.19,0,0.39,0.04,0.58,0.11l4.88,1.91c0.21,0.08,0.39,0.2,0.55,0.36c4.79,4.79,3.83,14.6,3.14,18.81h4.7V64.23
					c0-5.99-4.87-10.86-10.86-10.86h-2.99h-1.7c-0.3,0-0.6-0.09-0.86-0.25c-9.61-6.08-23.51-1.78-23.65-1.73
					c-18.72,4.84-28.01-7.47-29.08-9c-10.2-10.71-19.82-8.18-19.92-8.15c-0.45,0.13-0.94,0.05-1.33-0.21
					c-0.74-0.5-2.29-0.56-3.9-0.41l1.54,1.18c0.38,0.29,0.61,0.73,0.63,1.2l1.03,20.39l1.26,1.36c1,0.47,2.02-0.17,2.06-0.2
					c0.26-0.17,0.58-0.27,0.89-0.27c0.27,0,0.59-0.05,0.72-0.08v-3.18c0-0.29,0.08-0.57,0.22-0.82c1.15-1.94,1.05-4.59,1.05-4.62
					c-0.02-0.67,0.36-1.28,0.97-1.55l3.25-1.41c0.65-0.28,1.41-0.11,1.87,0.43c3.66,4.31,2.95,10.58,2.91,10.85
					c-1.16,7.14,1.76,12.5,1.79,12.55c0.26,0.48,0.27,1.06,0.02,1.54c-0.26,0.48-0.74,0.8-1.28,0.85
					c-5.18,0.48-11.81,4.1-12.67,4.58c-2,1.63-0.29,7.42,0.86,9.99c0.04,0.11,0.08,0.21,0.1,0.32c1.8,8.36,6.01,10.47,8.26,11v-2.41
					h-0.79c-0.76,0-1.42-0.53-1.58-1.27l-0.69-3.18l-1.79-3.48C30.08,87.31,30.05,87.23,30.02,87.14z M32.13,81.89
					c0.02,0.63,0.2,1.86,0.92,4.14l1.83,3.55c0.07,0.13,0.11,0.26,0.14,0.4l0.47,2.12h1.1c0.89,0,1.61,0.72,1.61,1.61v5.79
					c0,0.84-0.65,1.54-1.48,1.61c-0.1,0.01-9.99,0.65-13.11-13.54c-0.7-1.61-4.24-10.42,0.29-13.79c0.05-0.04,0.11-0.08,0.16-0.11
					c0.28-0.16,6.23-3.54,11.89-4.7c-0.94-2.5-2.13-7.04-1.24-12.53c0,0,0.05-0.43,0.05-1.12c0-1.46-0.22-4.08-1.54-6.23l-1.12,0.49
					c-0.07,1.19-0.34,3.11-1.25,4.85v3.19c0,0.15-0.02,0.29-0.05,0.43c-0.24,0.85-1.22,2.26-3.42,2.44
					c-1.19,0.62-3.27,1.13-5.26-0.08c-0.13-0.08-0.24-0.17-0.34-0.28l-1.84-1.98c-0.26-0.27-0.41-0.63-0.43-1.01l-1.02-20.23
					l-3.85-2.94c-0.49-0.37-0.73-0.99-0.61-1.59c0.12-0.6,0.56-1.08,1.15-1.24c1.07-0.3,6.24-1.6,9.36-0.15
					C27.19,30.5,37,29.6,47.08,40.27c0.07,0.07,0.14,0.16,0.19,0.24c0.32,0.5,8.14,12.29,25.57,7.78
					c0.53-0.17,15.01-4.67,25.86,1.86h4.23c7.77,0,14.09,6.32,14.09,14.08v12.32c0,0.89-0.73,1.61-1.62,1.61h-7.13
					c1.25,1.81,2.67,3.61,4.06,4.78c0.33,0.28,0.53,0.67,0.57,1.09c0.34,3.84,1.73,14.59,3.99,18.14c0.36,0.56,0.33,1.27-0.06,1.81
					l-1.53,2.11l-0.9,2.92c-0.2,0.68-0.83,1.14-1.54,1.14h-7.2c-0.6,0-1.14-0.32-1.42-0.85c-0.28-0.52-0.25-1.16,0.08-1.66
					c0.02-0.03,2.39-3.71,1.15-7.97c-0.05-0.15-0.07-0.31-0.07-0.47c0.01-0.41-0.08-10.24-10.78-17.05
					c-0.06-0.05-0.12-0.09-0.18-0.14c-0.38-0.33-1.8-1.59-2.9-3.06c-1.26,1.59-2.75,4.6-1.02,8.81c0.4,0.5,1.04,1.56,0.83,2.99
					c-0.25,1.68-1.59,3.17-3.99,4.44c-0.83,1.13-3.96,5.55-5.33,10.01c-0.03,0.09-0.06,0.17-0.1,0.25
					c-0.23,0.45-0.71,0.96-1.45,1.29c-0.09,0.32-0.14,0.62-0.14,0.8c0.34,0.43,0.44,1.02,0.25,1.55c-0.23,0.64-0.84,1.06-1.52,1.06
					h-6.29c-1.29,0-2.45-0.66-3.09-1.78c-0.64-1.1-0.64-2.43,0-3.54c1.88-3.25,5.08-8.35,9.71-14.21c0.24-0.62,1.1-3.07-0.11-3.94
					c-0.25-0.18-0.44-0.42-0.55-0.71c-0.7-1.76-2.05-5.35-2.52-7.96c-3.36,0.63-10.75,1.7-17.86,0.52
					c0.91,4.99,3.22,16.72,5.74,22.09c0.28,0.4,0.69,1.16,0.57,2.22c-0.14,1.31-1.04,2.58-2.67,3.77c-0.01,0.47,0.02,0.91,0.1,1.07
					c0.33,0.49,0.35,1.11,0.07,1.64c-0.28,0.52-0.83,0.83-1.43,0.83h-6.5c-0.71,0-1.35-0.47-1.54-1.16
					c-0.16-0.54-1.36-4.97,0.44-7.69c-0.84-5.54-3.75-18.22-8.9-22.36C42.45,79.82,38.26,81.55,32.13,81.89z M105.91,74.44
					c0.71-4.35,1.2-12.22-2.02-15.8l-0.67-0.27c1.61,3.8,3.42,9.68,1.68,14.28C105.14,73.09,105.48,73.71,105.91,74.44z"/>
			</g>
		</g>
	</g>
</g>
<g id="Layer_10">
</g>
<g id="Layer_11">
</g>
</svg>
