<?xml version="1.0" encoding="utf-8"?>
<!-- Generator: Adobe Illustrator 27.1.1, SVG Export Plug-In . SVG Version: 6.00 Build 0)  -->
<svg version="1.1" id="Layer_1" xmlns="http://www.w3.org/2000/svg" xmlns:xlink="http://www.w3.org/1999/xlink" x="0px" y="0px"
	 viewBox="0 0 133 133" style="enable-background:new 0 0 133 133;" xml:space="preserve">
<style type="text/css">
	.st0{fill:#5B8DA5;}
	.st1{fill:#FFFFFF;}
</style>
<g id="Layer_2_00000000923498406920489380000013519618505792203410_">
	<path class="st0" d="M121,133H12c-6.6,0-12-5.4-12-12V12C0,5.4,5.4,0,12,0h109c6.6,0,12,5.4,12,12v109C133,127.6,127.6,133,121,133
		z"/>
</g>
<g id="Layer_1_00000121976873992089420100000004637890613184955020_">
</g>
<g id="Layer_3">
</g>
<g id="Layer_5">
</g>
<g id="Layer_6">
</g>
<g id="Layer_7">
</g>
<g id="Layer_8">
	<g>
		<g id="XMLID_00000139980603444168537590000012050423512868568222_">
			<g>
				<path class="st1" d="M20.6,54c0.5,0,0.9,0,1.4,0c-0.5,1-0.9,2-1.3,3C20.4,56.1,20.4,55.1,20.6,54z"/>
				<path class="st1" d="M58.5,109.5l-1.2,2.8H55l0.9-2.1c0.1-0.2,0.1-0.3,0.1-0.5c-0.3-4.1-0.3-8.2,0-12.2c0.2-1.1,0.3-2.3,0.3-3.5
					c0-2.3,0.2-4.6,0.6-6.9c1,0.2,2,0.3,3.1,0.5c-1,2.1-1.7,4.3-1.9,6.6c-0.1,0.6-0.2,1.2-0.4,1.8C57,97.9,58.1,106.5,58.5,109.5z"
					/>
				<path class="st1" d="M88.7,112.2h-5c-0.1-0.4,0.1-0.9,0.5-1.2c0.1-0.1,0.2-0.1,0.3-0.2l0.6-0.6c4.9-5.7,4.8-14.2-0.3-19.8
					c-0.9-1-1.8-2.1-2.6-3c2.2-0.4,4.3-1,6.4-1.7c0.5,0.8,1.1,1.5,1.6,2.2c0.8,0.9,1.1,3.4,1.1,6.6c0,4.8-0.7,11.1-1.4,15.6
					L88.7,112.2z"/>
				<path class="st1" d="M104.7,59.5c3.2,0,6.4-0.8,9.2-2.3c-0.4,0.9-1,1.6-1.7,2.3c-1.8,1.5-4.2,2.2-6.6,2
					C105.4,60.8,105,60.2,104.7,59.5z"/>
				<path class="st1" d="M29.1,34.5c0.8-1.5,2.9-4,7.9-5c-2.4,1.3-4.2,3.3-5.4,5.7C30.9,34.9,30,34.6,29.1,34.5z"/>
				<path class="st1" d="M101.2,92.1c2,2.3,0.5,12.1-0.9,17.9l-1.2,2.1h-4.9c-0.1-0.4,0.1-0.9,0.5-1.2c0.1-0.1,0.2-0.1,0.3-0.2
					c0.1,0,8-7.9,3-17.3c-0.1-0.1-0.1-0.2-0.2-0.3c-2.9-2.8-5.6-5.9-8-9.2c-1.6-2.2-2.9-4.6-3.9-7.1c-0.2-0.5-0.8-0.8-1.4-0.6
					c-0.5,0.2-0.8,0.8-0.6,1.4c0.9,2.2,2,4.3,3.3,6.3c-7.9,2.6-18.7,3.1-29.7,1.2c0.3-0.6,0.6-1.1,1.1-1.5c0.4-0.4,0.4-1.1,0-1.5
					c0,0,0,0,0,0c-0.4-0.4-1.1-0.4-1.5,0c-1,1-1.7,2.2-2.1,3.5c-0.1,0.1-0.1,0.2-0.1,0.4c-0.6,2.5-1,5-1,7.5c0,0.2,0,0.4,0,0.7
					c0,0.9,0,1.8-0.2,2.8c-0.6,1.8-0.1,10.5,0,12.8l-1.2,2.7h-3.8c0.1-0.3,0.3-0.6,0.7-0.6c0.3-0.1,0.6-0.3,0.8-0.6
					c0.2-0.4,4.6-8.9,1.2-13.4c-2.4-3.1-4.3-15.3-4.8-19.8c0,0,0,0,0-0.1c-0.1-0.6-0.6-1-1.2-0.9c0,0,0,0,0,0
					c-0.6,0.1-1,0.6-0.9,1.2c0,0.1,0.2,1.6,0.5,3.6c-6.7-4.3-12.9-20.7-13.2-24.2c-0.2-2-1.2-3.8-2.9-4.9c-1.2-0.8-2.7-1.3-4.2-1.2
					c-0.4,0-0.8,0.1-1.1,0.2c-1.5,0.4-3.2,0.5-4.8,0.2l-1.4-0.1c-0.3,0-1.1-0.5-2.1-1.7c-0.2-0.2-0.2-0.5,0-0.7
					c1.7-1.7,3.3-3.5,4.8-5.4c0.4-0.5,0.7-1.1,1.2-1.7c2.9-4.3,5.7-7.6,10.9-4.3c-0.5,0.5-0.9,1.1-1.1,1.7c-0.1,0.6,0.3,1.1,0.8,1.2
					c0,0,0,0,0,0c0.6,0.1,1.1-0.3,1.2-0.8c0.2-0.4,0.5-0.8,1-1c0.9-0.5,3.2-1,8.2,0.6c-1.6,1.6-3.6,2.7-5.8,3.2h-0.1
					c-1,0.2-2,0.2-2.9,0.2c-0.6,0-1.1,0.4-1.2,1c0,0.6,0.4,1.1,1,1.2h1c0.7,0,1.3-0.1,1.9-0.2c2.7,3.6,5.4,5.9,8.1,6.7
					c0.2,0,11.6,2.2,15.3,4c4.1,1.9,14,1.2,17.9-0.6c2.2-1,12.8-2.2,20,1.3c3.3,1.5,5.7,4.4,6.5,7.9c0.5,5.8-1.1,11.7-4.5,16.4
					c-0.1,0.1-0.1,0.2-0.2,0.3C99.5,81.2,97.7,88.2,101.2,92.1z"/>
				<path d="M84.6,110.8c-0.1,0.1-0.2,0.2-0.3,0.2c-0.4,0.2-0.6,0.7-0.5,1.2h5l1.2-2c0.7-4.5,1.4-10.8,1.4-15.6
					c0-3.2-0.3-5.7-1.1-6.6c-0.6-0.7-1.1-1.4-1.6-2.2c-2.1,0.8-4.2,1.3-6.4,1.7c0.8,0.9,1.7,1.9,2.6,3c5.1,5.5,5.3,14,0.3,19.8
					L84.6,110.8z M58.1,94.2c0.2-2.3,0.9-4.5,1.9-6.6c-1-0.1-2-0.3-3.1-0.5c-0.5,2.3-0.7,4.6-0.6,6.9c0.1,1.2,0,2.3-0.3,3.5
					c-0.3,4.1-0.3,8.2,0,12.2c0,0.2,0,0.3-0.1,0.5l-0.9,2.1h2.3l1.2-2.8c-0.4-3.1-1.4-11.6-0.8-13.4C57.9,95.5,58,94.9,58.1,94.2z
					 M22,54c-0.5,0-0.9,0-1.4,0c-0.2,1-0.2,2,0,3C21,56,21.5,55,22,54z M37,29.5c-5,1-7.1,3.5-7.9,5c0.9,0.1,1.8,0.4,2.6,0.7
					C32.8,32.8,34.7,30.8,37,29.5z M113.9,57.2c-2.8,1.5-6,2.3-9.2,2.3c0.4,0.6,0.7,1.3,0.9,1.9c2.4,0.2,4.7-0.5,6.6-2
					C112.9,58.9,113.5,58.1,113.9,57.2z M104.3,64.1c-0.8-3.5-3.2-6.4-6.5-7.9c-7.2-3.5-17.8-2.3-20-1.3c-3.9,1.8-13.8,2.5-17.9,0.6
					c-3.7-1.7-15.1-3.9-15.3-4c-2.8-0.8-5.5-3-8.1-6.7c-0.6,0.1-1.3,0.2-1.9,0.2h-1c-0.6,0-1-0.6-1-1.2c0-0.6,0.6-1,1.2-1
					c1,0.1,2,0,2.9-0.2h0.1c2.2-0.5,4.2-1.6,5.8-3.2c-5-1.6-7.3-1.1-8.2-0.6c-0.4,0.2-0.8,0.5-1,1c-0.1,0.6-0.7,0.9-1.2,0.8
					c0,0,0,0,0,0c-0.6-0.1-0.9-0.7-0.8-1.2c0.2-0.7,0.5-1.3,1.1-1.7c-5.2-3.3-8,0-10.9,4.3c-0.4,0.6-0.8,1.2-1.2,1.7
					c-1.5,1.9-3.1,3.7-4.8,5.4c-0.2,0.2-0.2,0.5,0,0.7c1,1.2,1.7,1.7,2.1,1.7l1.4,0.1c1.6,0.3,3.2,0.2,4.8-0.2
					c0.4-0.1,0.8-0.2,1.1-0.2c1.5-0.1,3,0.3,4.2,1.2c1.7,1.1,2.8,2.9,2.9,4.9c0.3,3.6,6.5,19.9,13.2,24.2c-0.3-2-0.5-3.5-0.5-3.6
					c-0.1-0.6,0.3-1.1,0.9-1.2c0,0,0,0,0,0c0.6-0.1,1.1,0.3,1.2,0.9c0,0,0,0,0,0.1c0.5,4.4,2.4,16.7,4.8,19.8c3.5,4.5-1,13-1.2,13.4
					c-0.2,0.3-0.5,0.5-0.8,0.6c-0.3,0.1-0.6,0.3-0.7,0.6h3.8l1.2-2.7c-0.1-2.3-0.6-10.9,0-12.8c0.1-0.9,0.2-1.8,0.2-2.8
					c0-0.2,0-0.4,0-0.7c0-2.5,0.3-5.1,1-7.5c0-0.1,0.1-0.3,0.1-0.4c0.4-1.3,1.1-2.5,2.1-3.5c0.4-0.4,1.1-0.4,1.5,0c0,0,0,0,0,0
					c0.4,0.4,0.4,1.1,0,1.5c-0.5,0.4-0.8,1-1.1,1.5c11,1.8,21.8,1.4,29.7-1.2c-1.3-2-2.4-4.1-3.3-6.3c-0.2-0.6,0.1-1.2,0.6-1.4
					c0.6-0.2,1.2,0.1,1.4,0.6c1,2.5,2.3,4.9,3.9,7.1c2.4,3.3,5,6.4,8,9.2c0.1,0.1,0.2,0.2,0.2,0.3c5,9.4-2.9,17.3-3,17.3
					c-0.1,0.1-0.2,0.2-0.3,0.2c-0.4,0.2-0.6,0.7-0.5,1.2h4.9l1.2-2.1c1.4-5.8,2.9-15.7,0.9-17.9c-3.5-3.9-1.7-10.9-1.6-11.2
					c0-0.1,0.1-0.2,0.2-0.3C103.2,75.8,104.8,70,104.3,64.1z M102.7,90.8c3.5,3.9,0,18.3-0.5,20l-0.1,0.3l-1.6,2.8
					c-0.2,0.3-0.5,0.5-0.9,0.5h-6.5c-0.5,0-0.9-0.3-1-0.8c-0.3-0.9-0.3-1.8,0-2.6c0.3-0.7,0.7-1.3,1.4-1.8c0.9-1,6.4-7.2,2.6-14.6
					c-0.4-0.3-1.5-1.4-2.9-3c0.2,6.4-0.2,12.7-1.3,19c0,0.1,0,0.1,0,0.2c0,0.1-0.1,0.1-0.1,0.2l-1.6,2.8c-0.2,0.3-0.5,0.5-0.9,0.5
					h-6.5c-0.5,0-0.9-0.3-1-0.8c-0.6-1.6,0-3.4,1.4-4.4l0.3-0.3c4.2-4.9,4.1-12.2-0.3-16.9c-1.3-1.4-2.4-2.8-3.5-4.2
					c-3,0.4-6,0.6-9,0.6c-2.8,0-5.7-0.2-8.5-0.5c-1.2,2.1-1.9,4.3-2.1,6.7c-0.1,0.8-0.2,1.5-0.5,2.3c-0.3,1,0.2,7.4,0.9,12.8
					c0,0.2,0,0.4,0,0.6l-1.5,3.6c-0.2,0.4-0.5,0.6-1,0.6H47.7c-0.5,0-1-0.4-1.1-1c-0.2-1,0.1-2.1,0.7-2.9c0.3-0.4,0.8-0.7,1.3-0.9
					c1.2-2.4,3.2-8,1.2-10.7c-2.1-2.7-3.5-9.4-4.3-14.6C37.1,81,29.9,61.2,29.7,57.6c-0.1-1.3-0.9-2.6-2-3.3
					c-0.8-0.6-1.8-0.9-2.9-0.8c-1.4,2-2.4,4.2-3,6.5c-0.1,0.4-0.4,0.7-0.8,0.7h-0.2c-0.3,0-0.6-0.1-0.9-0.3
					c-1.5-1.8-2.1-4.2-1.6-6.5l-1.2-0.1c-1.5-0.3-2.8-1.2-3.6-2.5c-0.8-1.1-0.7-2.6,0.2-3.5c1.6-1.6,3.2-3.4,4.6-5.2
					c0.3-0.4,0.7-1,1.1-1.5c1.5-2.2,3.7-5.6,7.2-6.4c0.7-2.1,4-8.2,16.7-7.6c0.5,0,1,0.4,1,1c0,0.5-0.3,1-0.8,1.1c0,0-2,0.4-4.2,1.5
					c-2.2,1.1-4.7,2.9-5.7,5.6c0.2,0.1,0.3,0.3,0.4,0.5v0.1c2.4-0.8,6-0.3,10.6,1.3c0.6,0.2,0.8,0.8,0.6,1.4c0,0.1-0.1,0.2-0.1,0.2
					c-1.7,2.1-3.9,3.8-6.5,4.6c1.6,2.3,3.8,4.2,6.4,5.2c0.5,0.1,11.8,2.3,15.7,4.1c3.5,1.5,12.8,0.9,16.1-0.6
					c2.9-1.4,14.2-2.6,21.9,1.3c1.6,0.8,3.1,1.8,4.3,3.1c1.7,0.1,9.1,0.2,11.9-4c0.3-0.4,0.8-0.6,1.2-0.4c0.4,0.1,0.7,0.6,0.7,1
					c-0.2,2.7-1.3,5.2-3.2,7c-2.1,1.7-4.7,2.7-7.4,2.6c0,0.1,0,0.1,0,0.2c0.7,6.3-1,12.7-4.7,17.9C101.3,82.7,100.3,88,102.7,90.8z"
					/>
			</g>
		</g>
	</g>
</g>
<g id="Layer_9">
</g>
<g id="Layer_10">
</g>
<g id="Layer_11">
</g>
</svg>
