<?xml version="1.0" encoding="utf-8"?>
<!-- Generator: Adobe Illustrator 26.3.1, SVG Export Plug-In . SVG Version: 6.00 Build 0)  -->
<svg version="1.1" xmlns="http://www.w3.org/2000/svg" xmlns:xlink="http://www.w3.org/1999/xlink" x="0px" y="0px"
	 viewBox="0 0 133 133" style="enable-background:new 0 0 133 133;" xml:space="preserve">
<style type="text/css">
	.st0{fill:#BCD0D8;}
	.st1{fill:#FFFFFF;}
</style>
<g id="Layer_2">
	<path class="st0" d="M121,133H12c-6.6,0-12-5.4-12-12V12C0,5.4,5.4,0,12,0h109c6.6,0,12,5.4,12,12v109C133,127.6,127.6,133,121,133
		z"/>
</g>
<g id="Layer_1">
</g>
<g id="Layer_3">
</g>
<g id="Layer_5">
</g>
<g id="Layer_6">
</g>
<g id="Layer_7">
</g>
<g id="Layer_8">
	<g>
		<g id="XMLID_00000139980603444168537590000012050423512868568222_">
			<g>
				<path class="st1" d="M20.61,54.05c0.45,0.03,0.9,0.03,1.35,0c-0.5,0.99-0.93,2-1.3,3.05C20.42,56.1,20.4,55.06,20.61,54.05z"/>
				<path class="st1" d="M58.48,109.53l-1.16,2.78h-2.3l0.91-2.07c0.07-0.16,0.1-0.32,0.09-0.49c-0.33-4.06-0.33-8.15,0-12.21
					c0.25-1.14,0.34-2.3,0.28-3.46c-0.05-2.32,0.16-4.64,0.62-6.92c1.02,0.19,2.04,0.35,3.06,0.49c-1.03,2.06-1.68,4.3-1.92,6.6
					c-0.07,0.62-0.2,1.24-0.38,1.84C57.04,97.94,58.08,106.48,58.48,109.53z"/>
				<path class="st1" d="M88.73,112.21h-4.96c-0.09-0.45,0.11-0.91,0.5-1.16c0.12-0.05,0.23-0.12,0.33-0.21l0.55-0.59
					c4.91-5.72,4.76-14.21-0.35-19.75c-0.95-1.04-1.81-2.08-2.62-2.99c2.18-0.41,4.32-0.98,6.41-1.73c0.54,0.76,1.08,1.47,1.63,2.16
					c0.8,0.91,1.1,3.43,1.1,6.59c0,4.82-0.7,11.14-1.43,15.64L88.73,112.21z"/>
				<path class="st1" d="M104.68,59.55c3.23,0.03,6.42-0.77,9.25-2.31c-0.42,0.86-1.01,1.62-1.73,2.26c-1.85,1.49-4.2,2.2-6.57,1.97
					C105.36,60.81,105.04,60.17,104.68,59.55z"/>
				<path class="st1" d="M29.09,34.51c0.81-1.51,2.89-4.02,7.94-4.97c-2.36,1.27-4.24,3.28-5.35,5.71
					C30.86,34.87,29.99,34.61,29.09,34.51z"/>
				<path class="st1" d="M101.2,92.13c1.99,2.26,0.5,12.12-0.91,17.92l-1.18,2.07h-4.93c-0.08-0.45,0.13-0.91,0.52-1.16
					c0.12-0.05,0.23-0.13,0.33-0.22c0.07,0,8.01-7.92,3.02-17.3c-0.05-0.1-0.12-0.2-0.2-0.28c-2.94-2.81-5.6-5.9-7.96-9.22
					c-1.58-2.2-2.89-4.59-3.91-7.11c-0.21-0.54-0.82-0.81-1.37-0.6c-0.54,0.21-0.81,0.82-0.6,1.37c0.88,2.21,1.99,4.32,3.3,6.31
					c-7.87,2.61-18.73,3.06-29.68,1.23c0.27-0.58,0.64-1.1,1.09-1.54c0.41-0.42,0.41-1.09,0-1.51c-0.01,0-0.01-0.01-0.02-0.02
					c-0.41-0.4-1.07-0.39-1.47,0.02c-0.97,0.96-1.68,2.15-2.06,3.46c-0.07,0.11-0.12,0.24-0.13,0.37c-0.64,2.46-0.97,4.99-0.97,7.53
					c0,0.21,0.01,0.43,0.01,0.65c0.04,0.92-0.02,1.84-0.15,2.75c-0.59,1.85-0.14,10.46,0,12.76l-1.18,2.7h-3.84
					c0.07-0.32,0.33-0.57,0.66-0.62c0.34-0.05,0.64-0.26,0.81-0.55c0.19-0.37,4.64-8.9,1.18-13.41c-2.39-3.11-4.29-15.33-4.81-19.77
					c0-0.02,0-0.03-0.01-0.05c-0.07-0.57-0.6-0.96-1.17-0.89c0,0.01-0.01,0.01-0.01,0.01c-0.58,0.07-0.99,0.59-0.92,1.17
					c0.03,0.14,0.21,1.59,0.5,3.6c-6.68-4.34-12.94-20.65-13.2-24.22c-0.16-1.99-1.24-3.8-2.92-4.89c-1.23-0.85-2.71-1.27-4.2-1.18
					c-0.38,0.04-0.76,0.11-1.13,0.21c-1.55,0.42-3.19,0.48-4.77,0.17l-1.42-0.14c-0.33,0-1.09-0.5-2.06-1.73
					c-0.19-0.21-0.19-0.53,0-0.74c1.69-1.7,3.29-3.49,4.79-5.36c0.35-0.52,0.73-1.09,1.16-1.73c2.87-4.29,5.71-7.6,10.9-4.29
					c-0.52,0.46-0.89,1.06-1.06,1.73c-0.1,0.57,0.27,1.12,0.83,1.24c0.01,0,0.02,0.01,0.03,0.01c0.56,0.11,1.11-0.26,1.22-0.82
					c0.18-0.43,0.52-0.77,0.95-0.95c0.93-0.49,3.22-1.01,8.23,0.57c-1.59,1.57-3.6,2.67-5.79,3.15h-0.1
					c-0.97,0.19-1.95,0.25-2.93,0.17c-0.59-0.04-1.1,0.4-1.15,0.99c-0.04,0.6,0.4,1.11,1,1.16h0.95c0.65,0,1.3-0.06,1.94-0.16
					c2.66,3.63,5.39,5.88,8.14,6.66c0.21,0.03,11.63,2.23,15.31,3.96c4.07,1.87,14.01,1.21,17.9-0.64c2.22-1.05,12.84-2.18,20,1.28
					c3.29,1.45,5.71,4.36,6.5,7.87c0.53,5.85-1.07,11.68-4.49,16.45c-0.07,0.11-0.12,0.22-0.16,0.35
					C99.47,81.21,97.74,88.18,101.2,92.13z"/>
				<path d="M84.6,110.84c-0.1,0.09-0.21,0.16-0.33,0.21c-0.39,0.25-0.59,0.71-0.5,1.16h4.96l1.16-2.04
					c0.73-4.5,1.43-10.82,1.43-15.64c0-3.16-0.3-5.68-1.1-6.59c-0.55-0.69-1.09-1.4-1.63-2.16c-2.09,0.75-4.23,1.32-6.41,1.73
					c0.81,0.91,1.67,1.95,2.62,2.99c5.11,5.54,5.26,14.03,0.35,19.75L84.6,110.84z M58.06,94.25c0.24-2.3,0.89-4.54,1.92-6.6
					c-1.02-0.14-2.04-0.3-3.06-0.49c-0.46,2.28-0.67,4.6-0.62,6.92c0.06,1.16-0.03,2.32-0.28,3.46c-0.33,4.06-0.33,8.15,0,12.21
					c0.01,0.17-0.02,0.33-0.09,0.49l-0.91,2.07h2.3l1.16-2.78c-0.4-3.05-1.44-11.59-0.8-13.44C57.86,95.49,57.99,94.87,58.06,94.25z
					 M21.96,54.05c-0.45,0.03-0.9,0.03-1.35,0c-0.21,1.01-0.19,2.05,0.05,3.05C21.03,56.05,21.46,55.04,21.96,54.05z M37.03,29.54
					c-5.05,0.95-7.13,3.46-7.94,4.97c0.9,0.1,1.77,0.36,2.59,0.74C32.79,32.82,34.67,30.81,37.03,29.54z M113.93,57.24
					c-2.83,1.54-6.02,2.34-9.25,2.31c0.36,0.62,0.68,1.26,0.95,1.92c2.37,0.23,4.72-0.48,6.57-1.97
					C112.92,58.86,113.51,58.1,113.93,57.24z M104.26,64.12c-0.79-3.51-3.21-6.42-6.5-7.87c-7.16-3.46-17.78-2.33-20-1.28
					c-3.89,1.85-13.83,2.51-17.9,0.64c-3.68-1.73-15.1-3.93-15.31-3.96c-2.75-0.78-5.48-3.03-8.14-6.66
					c-0.64,0.1-1.29,0.16-1.94,0.16h-0.95c-0.6-0.05-1.04-0.56-1-1.16c0.05-0.59,0.56-1.03,1.15-0.99c0.98,0.08,1.96,0.02,2.93-0.17
					h0.1c2.19-0.48,4.2-1.58,5.79-3.15c-5.01-1.58-7.3-1.06-8.23-0.57c-0.43,0.18-0.77,0.52-0.95,0.95
					c-0.11,0.56-0.66,0.93-1.22,0.82c-0.01,0-0.02-0.01-0.03-0.01c-0.56-0.12-0.93-0.67-0.83-1.24c0.17-0.67,0.54-1.27,1.06-1.73
					c-5.19-3.31-8.03,0-10.9,4.29c-0.43,0.64-0.81,1.21-1.16,1.73c-1.5,1.87-3.1,3.66-4.79,5.36c-0.19,0.21-0.19,0.53,0,0.74
					c0.97,1.23,1.73,1.73,2.06,1.73l1.42,0.14c1.58,0.31,3.22,0.25,4.77-0.17c0.37-0.1,0.75-0.17,1.13-0.21
					c1.49-0.09,2.97,0.33,4.2,1.18c1.68,1.09,2.76,2.9,2.92,4.89c0.26,3.57,6.52,19.88,13.2,24.22c-0.29-2.01-0.47-3.46-0.5-3.6
					c-0.07-0.58,0.34-1.1,0.92-1.17c0,0,0.01,0,0.01-0.01c0.57-0.07,1.1,0.32,1.17,0.89c0.01,0.02,0.01,0.03,0.01,0.05
					c0.52,4.44,2.42,16.66,4.81,19.77c3.46,4.51-0.99,13.04-1.18,13.41c-0.17,0.29-0.47,0.5-0.81,0.55
					c-0.33,0.05-0.59,0.3-0.66,0.62h3.84l1.18-2.7c-0.14-2.3-0.59-10.91,0-12.76c0.13-0.91,0.19-1.83,0.15-2.75
					c0-0.22-0.01-0.44-0.01-0.65c0-2.54,0.33-5.07,0.97-7.53c0.01-0.13,0.06-0.26,0.13-0.37c0.38-1.31,1.09-2.5,2.06-3.46
					c0.4-0.41,1.06-0.42,1.47-0.02c0.01,0.01,0.01,0.02,0.02,0.02c0.41,0.42,0.41,1.09,0,1.51c-0.45,0.44-0.82,0.96-1.09,1.54
					c10.95,1.83,21.81,1.38,29.68-1.23c-1.31-1.99-2.42-4.1-3.3-6.31c-0.21-0.55,0.06-1.16,0.6-1.37c0.55-0.21,1.16,0.06,1.37,0.6
					c1.02,2.52,2.33,4.91,3.91,7.11c2.36,3.32,5.02,6.41,7.96,9.22c0.08,0.08,0.15,0.18,0.2,0.28c4.99,9.38-2.95,17.3-3.02,17.3
					c-0.1,0.09-0.21,0.17-0.33,0.22c-0.39,0.25-0.6,0.71-0.52,1.16h4.93l1.18-2.07c1.41-5.8,2.9-15.66,0.91-17.92
					c-3.46-3.95-1.73-10.92-1.59-11.21c0.04-0.13,0.09-0.24,0.16-0.35C103.19,75.8,104.79,69.97,104.26,64.12z M102.74,90.81
					c3.46,3.88,0,18.34-0.48,19.98l-0.11,0.26l-1.57,2.75c-0.19,0.33-0.54,0.54-0.92,0.54h-6.48c-0.47-0.01-0.89-0.32-1.02-0.77
					c-0.34-0.87-0.32-1.8,0-2.62c0.27-0.7,0.74-1.31,1.4-1.75c0.91-0.97,6.41-7.18,2.59-14.58c-0.36-0.35-1.47-1.44-2.9-3.01
					c0.2,6.37-0.25,12.74-1.35,19.02c-0.01,0.07-0.02,0.13-0.04,0.19c-0.02,0.06-0.05,0.11-0.08,0.16l-1.56,2.75
					c-0.19,0.33-0.54,0.54-0.92,0.54h-6.48c-0.47-0.01-0.89-0.31-1.03-0.76c-0.61-1.61-0.03-3.43,1.41-4.38l0.29-0.33
					c4.22-4.9,4.09-12.18-0.29-16.93c-1.28-1.41-2.44-2.79-3.46-4.16c-3,0.41-6.01,0.62-9.03,0.61c-2.83-0.01-5.66-0.17-8.48-0.48
					c-1.17,2.06-1.89,4.35-2.09,6.71c-0.08,0.77-0.23,1.52-0.45,2.26c-0.35,0.99,0.21,7.39,0.93,12.75c0.05,0.19,0.05,0.39,0,0.57
					l-1.55,3.57c-0.17,0.39-0.55,0.64-0.97,0.64H47.72c-0.55,0-1-0.41-1.06-0.96c-0.19-1.02,0.06-2.08,0.68-2.92
					c0.33-0.4,0.77-0.71,1.26-0.88c1.19-2.42,3.25-8.03,1.18-10.71c-2.08-2.68-3.46-9.44-4.34-14.61
					C37.1,80.99,29.87,61.15,29.71,57.6c-0.11-1.35-0.85-2.57-1.99-3.3c-0.83-0.58-1.84-0.87-2.85-0.82
					c-1.39,1.98-2.39,4.2-2.98,6.54c-0.1,0.37-0.4,0.66-0.78,0.74h-0.22c-0.32,0.05-0.65-0.06-0.88-0.29
					c-1.49-1.84-2.08-4.24-1.61-6.55l-1.23-0.14c-1.5-0.28-2.82-1.19-3.61-2.49c-0.82-1.08-0.73-2.58,0.2-3.55
					c1.64-1.64,3.19-3.37,4.64-5.19c0.33-0.41,0.67-0.95,1.07-1.52c1.45-2.2,3.72-5.59,7.18-6.42c0.74-2.13,4-8.23,16.69-7.56
					c0.53,0.03,0.96,0.44,1.01,0.97c0.05,0.53-0.31,1.02-0.83,1.12c0,0-1.98,0.44-4.22,1.55c-2.23,1.11-4.72,2.89-5.71,5.58
					c0.17,0.11,0.3,0.27,0.38,0.45v0.12c2.4-0.78,5.95-0.34,10.58,1.32c0.56,0.2,0.84,0.82,0.64,1.38
					c-0.04,0.08-0.08,0.17-0.14,0.24c-1.68,2.14-3.94,3.75-6.52,4.64c1.56,2.34,3.8,4.15,6.42,5.19c0.47,0.08,11.78,2.33,15.67,4.1
					c3.46,1.55,12.84,0.93,16.14-0.64c2.94-1.42,14.17-2.56,21.95,1.29c1.61,0.77,3.07,1.81,4.33,3.07
					c1.73,0.08,9.08,0.15,11.95-4.02c0.27-0.39,0.76-0.56,1.21-0.41c0.45,0.14,0.74,0.57,0.73,1.04c-0.17,2.66-1.32,5.16-3.24,7.02
					c-2.06,1.74-4.7,2.66-7.4,2.56c0.01,0.06,0.01,0.11,0,0.17c0.68,6.35-1,12.72-4.72,17.91C101.34,82.72,100.3,87.99,102.74,90.81
					z"/>
			</g>
		</g>
	</g>
</g>
<g id="Layer_9">
</g>
<g id="Layer_10">
</g>
<g id="Layer_11">
</g>
</svg>
