<?xml version="1.0" encoding="utf-8"?>
<!-- Generator: Adobe Illustrator 27.1.1, SVG Export Plug-In . SVG Version: 6.00 Build 0)  -->
<svg version="1.1" id="Layer_1" xmlns="http://www.w3.org/2000/svg" xmlns:xlink="http://www.w3.org/1999/xlink" x="0px" y="0px"
	 viewBox="0 0 133 133" style="enable-background:new 0 0 133 133;" xml:space="preserve">
<style type="text/css">
	.st0{fill:#5B8DA5;}
	.st1{fill:#FFFFFF;}
</style>
<g id="Layer_2_00000172430529965363824350000002917216839671182226_">
	<path class="st0" d="M121,133H12c-6.6,0-12-5.4-12-12V12C0,5.4,5.4,0,12,0h109c6.6,0,12,5.4,12,12v109C133,127.6,127.6,133,121,133
		z"/>
</g>
<g id="Layer_1_00000028293190882965337300000000833010000179416236_">
</g>
<g id="Layer_3">
</g>
<g id="Layer_5">
</g>
<g id="Layer_6">
</g>
<g id="Layer_7">
</g>
<g id="Layer_8">
</g>
<g id="Layer_9">
</g>
<g id="Layer_10">
	<g>
		<g id="XMLID_00000163779985745046811790000002725885692469992363_">
			<g>
				<path class="st1" d="M113.7,99.9h-4.6c0.2-0.3,0.5-0.4,1-0.4c0.5,0,1-0.2,1.4-0.6c0.3-0.4,0.6-0.7,0.8-8.8c0-0.5-0.3-1-0.8-1.2
					c-1.7-0.7-6.5-6.2-9.6-10l0.6-1.2c2.5-5.5,4.8-10.9,6.2-15c0.6,4.8,0.6,9.6,0,14.4c-0.7,3.2,2.2,7.9,5.3,12.6
					c0.3,0.4,0.5,0.8,0.7,1C114.4,93.7,114.1,96.8,113.7,99.9z"/>
				<path class="st1" d="M60,99.8c1.1-0.7,1.1-2.2,1.1-5v-1.2c0-2.4-2.5-9-3.3-11.1c0.8-0.6,1.5-1.1,2.3-1.6
					c0.7-0.2,1.2-0.7,1.5-1.2c0.3-0.7,0.6-1.3,0.8-2.1l0.9-0.1c-0.1,5.1-0.5,21.8-0.5,22.8c-0.2,0.6-0.5,1.2-1,1.7l-5.7-0.2
					c0.9-0.6,1.9-1.1,2.9-1.5L60,99.8z"/>
				<path class="st1" d="M31.3,37.6c0.5,1.4,0.2,3-0.8,4.1c-0.5,0.4-0.6,1.2-0.2,1.7c0.1,0.9,0.1,1.8,0,2.8c-0.1,2.3-2,5.3-3.5,7.4
					l-0.5,0.7c-0.2,0.2-0.3,0.5-0.5,0.7c-0.3,0.4-0.5,0.8-0.8,1.2c-0.1,0.1-0.1,0.2-0.2,0.2c-1.3,1-2.8,1.8-4.4,2.3
					c-1.6-2.2-2.9-4.6-3.9-7.2c0-0.1,0-0.2,0-0.3c0.7-0.7,1.4-1.4,2.2-2l0,0c2.6-2.2,2.8-3.5,2.8-4.6c0.2-0.3,0.4-0.5,0.6-0.8
					c0.3-0.3,0.6-0.7,1-1.1l0.3-0.3l0.9-0.2l3.9-0.7c0.6-0.1,1.1-0.7,1-1.4C29.3,39.1,30.1,37.9,31.3,37.6z"/>
				<path class="st1" d="M31.8,34.9c-1.7,0.2-3.2,1.1-4.2,2.5c0.2-0.6,0-1.2-0.5-1.5l-1-0.6l1.1-0.2c0.5-0.1,1-0.4,1.1-1
					c0.2-0.8,0.4-1.7,0.4-2.5c0.8,0.4,1.6,0.8,2.3,1.4c0.5,1.1,1.3,1.3,1.7,1.2c0.4-0.1,0.8-0.3,1-0.7c1.1-0.5,2.1-1.1,3.1-1.7
					c0.5,1.4,1.4,2.9,2.8,3.1c4.3,0.7,8.4,2,12.2,4l1.1,0.6c2.1,1.2,4,2.6,5.8,4.2h-0.2c-0.8,0-1.6,0.2-2.3,0.4
					c-0.3,0.1-0.6,0.4-0.7,0.7c-0.1,0.2-0.1,0.5,0,0.7c0,0.1,0,0.2,0.1,0.3c0.1,0.4,0.2,0.7,0.2,1.1c0,0.4,0.1,0.9,0.1,1.3
					c-0.1,2.9-0.3,5.9-0.8,8.8c-1,0-1.9,0.3-2.7,0.9c-0.5,0.3-0.7,1-0.4,1.5c0.7,1.5,0,4.1-0.4,5.5c-1.5,0.8-2.7,2.1-3.5,3.6
					c-0.3,0.9-0.7,1.7-1,2.5c0,0.1-0.1,0.3-0.2,0.4c-0.2,0.4-0.3,0.8-0.4,1.2c0,0.2-0.1,0.3-0.2,0.4l-0.4,1.2l-0.2,0.6
					c-0.3,1-0.6,1.9-0.9,2.7c-1.2-2-2.5-3.8-4-5.6c-0.2-0.2-0.5-0.3-0.7-0.4c-0.3,0-0.5,0-0.8,0c-0.9,0-1.9,0.3-2.7,0.7
					c0.2-1.7,0.7-3.4,1.4-5c0.2-0.4,0.2-0.9-0.1-1.3s-0.7-0.6-1.2-0.5c-1.5,0.3-2.9,1.1-4,2.1c-0.2-2.3-0.2-4.5-0.2-6.8
					c0-0.4-0.1-0.7-0.4-1c-0.4-0.4-1-0.5-1.5-0.5c-1.2,0.3-2.3,0.9-3.2,1.9c-0.1-1.3,0-2.7,0.1-4c0.2-0.3,0.6-0.9,0.9-1.4
					c1.7-2.5,4.3-6.2,4.4-9.4c0.1-1.2,0.1-2.3-0.1-3.5c1.5-2.2,1.7-5,0.4-7.3C32.9,35.1,32.4,34.8,31.8,34.9z"/>
				<path class="st1" d="M54.8,81.7C49,85.9,40.2,92.8,39.5,93.9c-0.8,0.7-5.1,1.9-7.6,2.3c1.1-1.4,2.7-2.4,4.4-2.7
					c0.3,0,0.7-0.2,0.9-0.5c2.6-3.4,5.5-7,7.7-9.6c0.6,0,1.2-0.4,1.2-1.1c0,0,0-0.2,0.1-0.5c0.6-0.7,1.2-1.3,1.9-1.9
					c0.1-0.1,0.3-0.1,0.4-0.2c0.3-0.3,0.5-0.7,0.4-1.2l-0.3-1.4l-0.4-2c0.1-0.3,0.2-0.6,0.3-0.9c0.5-1.4,1.1-2.9,1.8-4.6
					c0.5-0.9,1.2-1.7,2.1-2.2c0.5,0,1-0.3,1.2-0.8c0.9-2.2,1.2-4.6,1-6.9c0.1,0,0.1,0,0.2,0c0.2,0.5,0.7,0.8,1.3,0.7
					c0.5,0,1-0.5,1.1-1c0.6-3.4,1-6.8,1.2-10.2v-1.2c0-0.5,0-0.9-0.1-1.4v-0.2c1.4-0.2,2.8,0.3,3.9,1.3h0c0,0,0.1,0.1,0.2,0.1
					c0.2,0.2,0.5,0.2,0.8,0.2c0.3,0,0.5-0.1,0.7-0.2c0.3-0.2,0.5-0.5,0.5-0.9c0.9,0.6,1.9,1,2.9,1.4c0.7,0.1,6.6-0.3,24.6-1.7
					l4.4-0.3c2.6,0,5.1,1,6.9,2.8c1.5,1.3,2.7,3,3.4,4.8c0.2,0.4,0.3,0.8,0.4,1.2c0.1,0.4,0.2,0.8,0.3,1.3c0,0.3,0.1,0.6,0.1,0.8
					c0,3.7-5,14.8-7.2,19.6l-0.1,0.2c-0.2,0.5-0.4,0.9-0.6,1.3s-0.4,0.9-0.5,1.2c-0.3,0.7-0.3,1-0.2,1.3v10.6v0.9
					c-0.9,1.1-5.2,4.9-9.2,8.3l-6.8-1.1c0.1-0.3,0.3-0.6,0.5-0.8c0.9-0.1,1.8-0.1,2.7,0c0.6,0.1,1.2,0.1,1.8,0
					c1.3-0.3,5.3-4.6,5.8-5.4c0.7-1.2,0.4-4.1,0.2-5.8h0c0-0.1,0-0.2-0.1-0.3c-0.1-0.3-2.7-6.3-4.1-9c-0.5-1-0.6-5-0.3-9.6
					c0-1,0.1-2.1,0.2-3.1c0.1-1.1,0.2-2.2,0.3-3.3v-0.2h0c0.1-0.7-0.4-1.3-1.1-1.4c-0.7-0.1-1.3,0.4-1.4,1.1c-0.1,1-0.3,3.4-0.5,6.2
					l-0.3,0.7c-0.2,0.3-3.9,7.3-16.4,5.9l-0.3,0l-3.8,0.4l-2.5,0.2H63c0-0.3,0.1-0.7,0.2-1.1c0.2-1.8,0.4-3.8,0.5-5.8v-1.2
					c0.1-2.3,0-4.6-0.3-6.9c0-0.1,0-0.3-0.1-0.4c-0.2-0.7-0.9-1.1-1.5-0.9s-1.1,0.9-0.9,1.5c0.4,2.2,0.5,4.5,0.3,6.7v1.2l-0.1,1.2
					c-0.2,2.1-0.4,4.2-0.7,5.8c-0.1,0.5-0.2,0.9-0.3,1.2c-0.1,0.5-0.2,1.1-0.4,1.6c-0.1,0.2-0.2,0.4-0.3,0.5
					c-0.9,0.5-1.8,1.1-2.6,1.7l-1,0.7L54.8,81.7z"/>
				<path d="M109.1,99.9h4.6c0.4-3.1,0.7-6.2,0.8-9.3c-0.1-0.2-0.3-0.5-0.7-1c-3.1-4.7-6-9.4-5.3-12.6c0.6-4.8,0.6-9.6,0-14.4
					c-1.3,4.2-3.7,9.6-6.2,15.1l-0.6,1.2c3.1,3.8,7.9,9.2,9.6,10c0.5,0.2,0.8,0.7,0.8,1.2c-0.2,8.1-0.5,8.4-0.8,8.8
					c-0.3,0.4-0.8,0.6-1.4,0.6C109.6,99.6,109.3,99.6,109.1,99.9z M60.2,81c-0.8,0.5-1.6,1-2.3,1.6c0.8,2.1,3.3,8.7,3.3,11.1v1.2
					c0,2.8,0,4.3-1.1,5l-0.8,0.4c-1,0.4-2,0.9-2.9,1.5L62,102c0.4-0.5,0.8-1,1-1.7c0-1,0.3-17.7,0.5-22.8l-0.9,0.1
					c-0.2,0.7-0.4,1.4-0.8,2.1C61.4,80.3,60.8,80.8,60.2,81z M36.3,93.5c-1.8,0.3-3.3,1.3-4.4,2.7c2.5-0.4,6.9-1.6,7.6-2.3
					c0.7-1.1,9.5-8,15.2-12.2l1-0.8l1-0.7c0.8-0.6,1.7-1.2,2.6-1.7c0.1-0.2,0.2-0.3,0.3-0.5c0.2-0.5,0.3-1,0.4-1.6
					c0.1-0.3,0.2-0.8,0.3-1.2c0.3-1.7,0.5-3.7,0.7-5.8l0.1-1.2v-1.2c0.2-2.2,0.1-4.5-0.3-6.7c-0.2-0.7,0.2-1.4,0.9-1.5
					s1.4,0.2,1.5,0.9c0.1,0.1,0.1,0.3,0.1,0.4c0.3,2.3,0.4,4.6,0.3,6.9v1.2c-0.1,2-0.2,4-0.5,5.8c0,0.4-0.2,0.7-0.2,1.1h0.3l2.5-0.2
					l3.8-0.4l0.3,0c12.5,1.3,16.2-5.6,16.4-5.9l0.3-0.7c0.2-2.8,0.4-5.2,0.5-6.2c0.1-0.7,0.7-1.2,1.4-1.1c0.7,0.1,1.2,0.7,1.1,1.4h0
					V62c-0.1,1.1-0.2,2.2-0.3,3.3s-0.2,2.1-0.2,3.1C88.9,73,88.9,77,89.5,78c1.5,2.7,4,8.7,4.1,9c0.1,0.1,0.1,0.2,0.1,0.3h0
					c0.2,1.6,0.6,4.6-0.2,5.8c-0.5,0.8-4.5,5.1-5.8,5.4c-0.6,0.1-1.2,0.1-1.8,0c-0.9-0.1-1.8-0.1-2.7,0c-0.2,0.2-0.4,0.5-0.5,0.8
					l6.8,1.1c4-3.4,8.3-7.2,9.2-8.3v-1V80.6c-0.1-0.3-0.1-0.5,0.2-1.3c0.1-0.3,0.4-0.9,0.5-1.2s0.3-0.8,0.6-1.3l0.1-0.2
					c2.1-4.8,7.2-15.9,7.2-19.6c0-0.3,0-0.6-0.1-0.8c-0.1-0.4-0.2-0.8-0.3-1.3c-0.1-0.5-0.3-0.8-0.4-1.2c-0.8-1.8-2-3.5-3.4-4.8
					c-1.8-1.8-4.3-2.9-6.9-2.8l-4.4,0.3c-17.9,1.4-23.9,1.8-24.6,1.7c-1-0.3-2-0.8-2.9-1.4c0,0.3-0.2,0.7-0.5,0.9
					c-0.2,0.2-0.5,0.2-0.7,0.2c-0.3,0-0.6,0-0.8-0.2c0,0-0.2-0.1-0.2-0.1h0c-1-1-2.5-1.5-3.9-1.3v0.2c0.1,0.5,0.1,0.9,0.1,1.4v1.2
					c-0.2,3.4-0.5,6.9-1.2,10.2c-0.1,0.5-0.5,1-1.1,1c-0.5,0.1-1.1-0.2-1.3-0.7c-0.1,0-0.1,0-0.2,0c0.3,2.3-0.1,4.7-1,6.9
					c-0.2,0.5-0.7,0.8-1.2,0.8c-0.8,0.6-1.5,1.3-2.1,2.2c-0.7,1.7-1.3,3.3-1.8,4.6c-0.1,0.3-0.2,0.6-0.3,0.9l0.4,2l0.3,1.4
					c0.1,0.4-0.1,0.9-0.4,1.2c-0.1,0.1-0.2,0.2-0.4,0.2c-0.7,0.6-1.4,1.2-1.9,1.9c-0.1,0.3-0.1,0.5-0.1,0.5
					c-0.1,0.6-0.6,1.1-1.2,1.1c-2.2,2.6-5.1,6.2-7.7,9.6C37,93.3,36.7,93.4,36.3,93.5z M32.9,46.4c-0.1,3.3-2.7,6.9-4.4,9.4
					c-0.4,0.5-0.8,1.1-0.9,1.4c-0.1,1.3-0.2,2.7-0.1,4c0.8-0.9,2-1.6,3.2-1.9c0.6,0,1.1,0.1,1.5,0.5c0.3,0.2,0.4,0.6,0.4,1
					c-0.1,2.3,0,4.6,0.2,6.8c1.1-1.1,2.5-1.8,4-2.1c0.5-0.1,0.9,0.2,1.2,0.5s0.3,0.9,0.1,1.3c-0.7,1.6-1.2,3.3-1.4,5
					c0.8-0.5,1.7-0.7,2.7-0.7c0.3,0,0.5,0,0.8,0c0.3,0,0.5,0.2,0.7,0.4c1.5,1.7,2.9,3.6,4,5.6c0.2-0.8,0.5-1.7,0.9-2.7l0.2-0.6
					l0.4-1.2c0.1-0.1,0.2-0.3,0.2-0.4c0.1-0.4,0.3-0.8,0.4-1.2c0.1-0.1,0.2-0.3,0.2-0.4c0.3-0.8,0.6-1.6,1-2.5
					c0.8-1.5,2-2.8,3.5-3.6c0.4-1.4,1.1-4,0.4-5.5c-0.2-0.5-0.1-1.2,0.4-1.5c0.8-0.6,1.7-0.9,2.7-0.9c0.5-2.9,0.8-5.8,0.8-8.8
					c0-0.4,0-0.9-0.1-1.3c0-0.4-0.1-0.8-0.2-1.1c0-0.1-0.1-0.2-0.1-0.3c-0.1-0.2-0.1-0.5,0-0.7c0.1-0.3,0.4-0.6,0.7-0.7
					c0.8-0.2,1.5-0.4,2.3-0.4h0.2c-1.8-1.6-3.7-3-5.8-4.2l-1.1-0.6c-3.8-2-8-3.4-12.2-4c-1.4-0.2-2.3-1.7-2.8-3.1
					c-1,0.6-2,1.2-3.1,1.7c-0.2,0.4-0.6,0.6-1,0.7c-0.5,0.1-1.2-0.1-1.7-1.2c-0.7-0.5-1.5-1-2.3-1.4c-0.1,0.8-0.2,1.7-0.4,2.5
					c-0.1,0.5-0.5,0.9-1.1,1l-1.1,0.2l1,0.6c0.5,0.3,0.7,1,0.5,1.5c1-1.4,2.5-2.3,4.2-2.5c0.6-0.1,1.1,0.2,1.3,0.7
					c1.3,2.3,1.1,5.1-0.4,7.3C32.9,44.1,33,45.2,32.9,46.4z M24.6,39.7l2.4-0.5c0.1-0.6,0.3-1.2,0.6-1.8c-0.1,0.2-0.2,0.3-0.4,0.4v0
					L24.6,39.7z M25.6,64.2c-0.5-1.5-0.7-3.1-0.6-4.7c-1.4,0.9-3,1.5-4.6,1.7H20c-1.9-0.4-5.7-8.5-5.8-9.5c-0.1-1.7,0.3-2,3-4.4
					c1.9-1.6,1.9-2.2,1.9-2.6c0-0.1,0-0.2,0-0.3c0-0.3,0-0.7,1-2c-0.5,0-1-0.4-1.2-0.9c-0.2-0.5,0-1.1,0.5-1.4l4.8-3.3l-2.5-1.5
					c-0.4-0.3-0.7-0.8-0.6-1.3c0.1-0.5,0.6-0.9,1.1-1l3.9-0.4c0.2-0.8,0.2-1.6,0.2-2.4c-0.6-0.4-0.8-1.2-0.4-1.8
					c0.4-0.6,1.2-0.8,1.8-0.4c1.8,0.7,3.5,1.7,5.1,2.9c1.2-0.6,2.4-1.3,3.6-2.1c0.1-0.4,0.4-0.7,0.8-0.9c0.6-0.2,1.3,0.1,1.5,0.7
					c0.1,0.2,0.1,0.4,0.1,0.5c0.2,1.1,0.6,2.1,1.3,2.9c10.5,1.7,17,6.2,20.5,9.6c2.8,1.6,6.2,3.5,7,3.8c1.6,0,16.6-1.2,24-1.7
					l4.4-0.3c3.3-0.1,6.5,1.2,8.8,3.5c2.2,2,3.8,4.5,4.6,7.3h0c2.5,5.9,2.4,19.4,1.7,23.2c-0.5,2.6,3.6,8.6,4.9,10.6
					c0.3,0.4,0.6,0.9,0.9,1.4c0.1,0.3,0.6,1.2-0.8,11.7c-0.1,0.6-0.6,1.1-1.3,1.1h-7.2c-0.3,0-0.7-0.1-0.9-0.4
					c-0.2-0.2-0.4-0.5-0.4-0.9c0-3.3,2-3.9,3.1-4.1c0.1-1.2,0.2-3.8,0.3-6.3c-2.3-1.6-6.1-5.9-8.5-8.7v9.1v1.2
					c0,0.7,0,1.3-10.5,10.2c-0.2,0.2-0.6,0.3-0.9,0.2v0h-0.2l-8.9-1.3c-0.4-0.1-0.7-0.3-0.9-0.6c-0.2-0.3-0.2-0.7-0.1-1.1
					c0.4-1.1,0.9-2.2,1.7-3.2c0.9-1,2.6-0.9,4.8-0.7l0.8,0.1c1.6-1.3,3-2.8,4.3-4.3c0.1-1.3,0.1-2.6-0.2-3.8c-0.4-0.9-2.7-6.3-4-8.6
					c-0.7-1.2-0.8-4-0.8-7.1c-2.5,2.5-7.6,5.6-16.8,4.7L66,77.4c-0.1,4.6-0.4,22-0.4,23c-0.2,1.4-1,2.8-2,3.8
					c-0.2,0.2-0.6,0.4-0.9,0.4l-7.2-0.2c-0.2,0.2-0.5,0.3-0.7,0.2c-0.3,0-0.7-0.1-0.9-0.4c-0.2-0.2-0.4-0.6-0.4-0.9v-1
					c0-2,2.5-3.3,4.9-4.3l0.3-0.1c0.1-1,0.1-2,0.1-2.9v-1.3c0-1.5-1.6-6.2-2.9-9.6C50.5,88,42.4,94.3,41.6,95.3
					c-1.1,1.8-10.2,3.9-11.9,3.4c-0.6-0.2-1.1-0.7-1.1-1.4c0-1.6,3.3-5.6,6.9-6.3c2.3-3,5.6-7.1,8.1-9.9c-0.5-1.9-2.6-5-4.4-7.1
					c-1.2,0.1-2.3,0.7-3,1.6c-0.3,0.4-0.9,0.6-1.3,0.4C34.4,76,34,75.5,34,75c-0.1-1.9,0-3.9,0.6-5.8c-0.6,0.5-1.2,1.1-1.8,1.7
					c-0.3,0.3-0.8,0.4-1.2,0.3s-0.8-0.4-0.9-0.8c-0.6-2.7-0.8-5.5-0.7-8.3c-0.9,0.7-1.6,1.5-2.3,2.3c-0.3,0.3-0.7,0.5-1.1,0.4
					C26.1,64.9,25.8,64.6,25.6,64.2z M25.9,54.9c0.1-0.2,0.3-0.4,0.5-0.7l0.5-0.7c1.4-2.1,3.4-5.1,3.5-7.4c0.1-0.9,0.1-1.8,0-2.8
					c-0.4-0.5-0.3-1.3,0.2-1.7c1-1.1,1.3-2.7,0.8-4.1c-1.2,0.3-2,1.5-1.8,2.7c0.1,0.7-0.4,1.2-1,1.4l-3.9,0.7l-0.9,0.2l-0.3,0.3
					c-0.4,0.4-0.7,0.8-1,1.1c-0.2,0.2-0.4,0.5-0.6,0.8c0,1.1-0.1,2.4-2.8,4.6l0,0c-0.8,0.6-1.5,1.2-2.2,2c0,0.1,0,0.2,0,0.3
					c1,2.5,2.3,4.9,3.9,7.2c1.6-0.5,3-1.3,4.4-2.3c0.1-0.1,0.1-0.2,0.2-0.2C25.4,55.7,25.6,55.3,25.9,54.9z"/>
			</g>
		</g>
	</g>
</g>
<g id="Layer_11">
</g>
</svg>
