<?xml version="1.0" encoding="utf-8"?>
<!-- Generator: Adobe Illustrator 26.3.1, SVG Export Plug-In . SVG Version: 6.00 Build 0)  -->
<svg version="1.1" xmlns="http://www.w3.org/2000/svg" xmlns:xlink="http://www.w3.org/1999/xlink" x="0px" y="0px"
	 viewBox="0 0 133 133" style="enable-background:new 0 0 133 133;" xml:space="preserve">
<style type="text/css">
	.st0{fill:#BCD0D8;}
	.st1{fill:#FFFFFF;}
</style>
<g id="Layer_2">
	<path class="st0" d="M121,133H12c-6.6,0-12-5.4-12-12V12C0,5.4,5.4,0,12,0h109c6.6,0,12,5.4,12,12v109C133,127.6,127.6,133,121,133
		z"/>
</g>
<g id="Layer_1">
</g>
<g id="Layer_3">
</g>
<g id="Layer_5">
</g>
<g id="Layer_6">
</g>
<g id="Layer_7">
</g>
<g id="Layer_8">
</g>
<g id="Layer_9">
</g>
<g id="Layer_10">
	<g>
		<g id="XMLID_00000163779985745046811790000002725885692469992363_">
			<g>
				<path class="st1" d="M113.7,99.91h-4.64c0.2-0.32,0.54-0.36,0.98-0.42c0.53-0.01,1.02-0.23,1.37-0.62
					c0.29-0.36,0.58-0.72,0.81-8.78c0.01-0.51-0.29-0.98-0.76-1.19c-1.68-0.72-6.53-6.2-9.63-9.96l0.56-1.25
					c2.5-5.47,4.83-10.89,6.18-15.05c0.57,4.79,0.56,9.63-0.04,14.43c-0.67,3.16,2.17,7.88,5.31,12.55
					c0.32,0.44,0.54,0.78,0.66,0.96C114.41,93.71,114.14,96.82,113.7,99.91z"/>
				<path class="st1" d="M60.04,99.84c1.12-0.68,1.12-2.21,1.11-5.02v-1.18c0-2.43-2.51-9.02-3.29-11.11
					c0.75-0.57,1.53-1.09,2.34-1.57c0.65-0.2,1.19-0.65,1.5-1.25c0.34-0.65,0.6-1.34,0.76-2.05l0.94-0.1
					c-0.11,5.08-0.45,21.77-0.45,22.76c-0.19,0.61-0.52,1.18-0.96,1.65l-5.67-0.2c0.9-0.62,1.87-1.13,2.88-1.54L60.04,99.84z"/>
				<path class="st1" d="M31.26,37.59c0.5,1.4,0.2,2.95-0.78,4.06c-0.5,0.43-0.57,1.18-0.17,1.7c0.07,0.92,0.07,1.84,0,2.76
					c-0.09,2.26-2.01,5.26-3.45,7.36l-0.49,0.73c-0.18,0.25-0.34,0.47-0.48,0.69c-0.28,0.39-0.54,0.82-0.75,1.25
					c-0.06,0.09-0.13,0.17-0.21,0.24c-1.3,1.03-2.77,1.81-4.35,2.32c-1.56-2.23-2.87-4.63-3.89-7.15c0.01-0.08,0.01-0.18,0-0.26
					c0.68-0.71,1.42-1.36,2.21-1.96l0.05-0.04c2.62-2.15,2.75-3.51,2.75-4.58c0.18-0.28,0.38-0.54,0.59-0.78
					c0.29-0.34,0.64-0.74,1.03-1.14l0.29-0.32l0.89-0.16l3.93-0.66c0.64-0.13,1.08-0.72,1.02-1.37
					C29.31,39.06,30.08,37.92,31.26,37.59z"/>
				<path class="st1" d="M31.83,34.93c-1.69,0.23-3.22,1.14-4.23,2.51c0.24-0.57,0.03-1.23-0.5-1.55l-0.99-0.59l1.13-0.25
					c0.52-0.06,0.95-0.44,1.07-0.95c0.22-0.83,0.37-1.66,0.44-2.51c0.81,0.36,1.57,0.82,2.27,1.36c0.54,1.08,1.26,1.26,1.73,1.15
					c0.41-0.07,0.77-0.31,0.98-0.67c1.08-0.5,2.12-1.07,3.12-1.71c0.53,1.42,1.39,2.89,2.79,3.12c4.28,0.65,8.42,2.01,12.25,4.02
					l1.1,0.6c2.08,1.2,4.01,2.61,5.76,4.23h-0.19c-0.78,0.02-1.57,0.15-2.32,0.4c-0.34,0.12-0.61,0.38-0.74,0.71
					c-0.07,0.24-0.07,0.49,0,0.72c0.01,0.1,0.04,0.21,0.08,0.3c0.14,0.36,0.23,0.74,0.25,1.13c0.05,0.44,0.07,0.89,0.06,1.33
					c-0.07,2.94-0.35,5.88-0.84,8.78c-0.97,0.01-1.91,0.32-2.69,0.89c-0.48,0.35-0.65,0.99-0.4,1.53c0.67,1.5,0,4.1-0.41,5.5
					c-1.49,0.84-2.72,2.11-3.51,3.63c-0.35,0.89-0.67,1.73-0.98,2.51c0,0.13-0.1,0.27-0.16,0.41c-0.15,0.4-0.29,0.8-0.43,1.18
					c0,0.15-0.09,0.29-0.16,0.43l-0.42,1.25l-0.19,0.56c-0.33,1.01-0.62,1.9-0.87,2.67c-1.16-2-2.52-3.85-4.05-5.58
					c-0.19-0.21-0.45-0.35-0.74-0.39c-0.27-0.02-0.54-0.02-0.8,0c-0.94,0.01-1.86,0.26-2.67,0.72c0.2-1.73,0.67-3.42,1.39-5.02
					c0.2-0.41,0.17-0.89-0.09-1.27c-0.26-0.38-0.71-0.58-1.16-0.53c-1.53,0.32-2.93,1.06-4.05,2.14c-0.18-2.27-0.23-4.55-0.16-6.83
					c0.02-0.37-0.14-0.73-0.41-0.98c-0.41-0.37-0.95-0.55-1.51-0.5c-1.21,0.28-2.32,0.93-3.16,1.86c-0.06-1.35-0.02-2.69,0.13-4.03
					c0.16-0.29,0.56-0.87,0.93-1.39c1.69-2.51,4.26-6.16,4.38-9.42c0.1-1.15,0.07-2.31-0.09-3.45c1.5-2.16,1.65-4.99,0.38-7.3
					C32.92,35.14,32.38,34.85,31.83,34.93z"/>
				<path class="st1" d="M54.75,81.74C49,85.91,40.2,92.84,39.54,93.9c-0.75,0.7-5.1,1.9-7.61,2.31c1.1-1.41,2.65-2.38,4.4-2.73
					c0.34-0.03,0.65-0.21,0.86-0.48c2.64-3.41,5.52-6.99,7.71-9.56c0.63,0.01,1.15-0.44,1.25-1.06c0,0,0-0.18,0.08-0.5
					c0.58-0.7,1.23-1.34,1.94-1.91c0.14-0.06,0.27-0.14,0.39-0.25c0.31-0.29,0.46-0.74,0.37-1.17l-0.29-1.4l-0.41-2.04
					c0.1-0.3,0.22-0.61,0.32-0.92c0.49-1.37,1.06-2.9,1.76-4.64c0.52-0.88,1.22-1.65,2.06-2.23c0.54,0.04,1.05-0.28,1.25-0.78
					c0.9-2.19,1.23-4.57,0.96-6.92c0.07-0.02,0.14-0.02,0.21,0c0.22,0.5,0.74,0.81,1.29,0.74c0.54-0.05,0.99-0.47,1.09-1
					c0.63-3.38,1.03-6.8,1.18-10.24v-1.25c-0.01-0.46-0.05-0.91-0.11-1.36v-0.18c1.41-0.2,2.84,0.26,3.86,1.26h0.03
					c0,0,0.12,0.07,0.17,0.12c0.23,0.16,0.51,0.23,0.79,0.21c0.27,0,0.52-0.08,0.73-0.24c0.27-0.21,0.45-0.53,0.48-0.88
					c0.92,0.58,1.92,1.04,2.95,1.37c0.66,0.09,6.63-0.33,24.57-1.71l4.38-0.34c2.58-0.04,5.06,0.98,6.86,2.82
					c1.47,1.35,2.65,2.99,3.45,4.82c0.18,0.4,0.33,0.8,0.45,1.25c0.12,0.42,0.21,0.84,0.27,1.26c0.04,0.28,0.06,0.57,0.07,0.85
					c0,3.68-5.02,14.8-7.15,19.57l-0.09,0.18c-0.22,0.48-0.4,0.9-0.56,1.26s-0.41,0.94-0.54,1.25c-0.3,0.74-0.31,0.96-0.24,1.26
					V91.2v0.95c-0.9,1.07-5.18,4.87-9.22,8.28l-6.79-1.09c0.13-0.29,0.3-0.57,0.5-0.82c0.9-0.12,1.82-0.12,2.73,0
					c0.59,0.1,1.2,0.1,1.78,0c1.26-0.33,5.31-4.64,5.8-5.43c0.74-1.18,0.42-4.14,0.18-5.78h-0.01c-0.01-0.1-0.04-0.21-0.09-0.3
					c-0.1-0.26-2.68-6.34-4.14-8.99c-0.54-0.98-0.59-5.02-0.35-9.63c0-1.01,0.11-2.08,0.2-3.13c0.09-1.05,0.18-2.22,0.27-3.3v-0.18
					h0.01c0.07-0.7-0.44-1.31-1.13-1.37c-0.68-0.07-1.29,0.43-1.36,1.12c-0.09,0.98-0.32,3.4-0.48,6.17l-0.34,0.66
					c-0.16,0.32-3.95,7.26-16.41,5.95l-0.26-0.01l-3.82,0.39l-2.51,0.25h-0.29c0-0.33,0.11-0.69,0.16-1.06
					c0.25-1.82,0.41-3.77,0.5-5.78v-1.24c0.13-2.31,0.03-4.62-0.27-6.92c0-0.13,0-0.3-0.07-0.41c-0.18-0.67-0.88-1.07-1.55-0.89
					c-0.67,0.18-1.07,0.87-0.89,1.54c0.36,2.21,0.46,4.45,0.29,6.68v1.25l-0.07,1.25c-0.15,2.11-0.38,4.19-0.65,5.85
					c-0.09,0.47-0.18,0.91-0.27,1.25c-0.09,0.53-0.23,1.05-0.42,1.56c-0.07,0.19-0.18,0.37-0.31,0.53
					c-0.91,0.51-1.79,1.08-2.62,1.71l-1.04,0.72L54.75,81.74z"/>
				<path d="M109.06,99.91h4.64c0.44-3.09,0.71-6.2,0.8-9.33c-0.12-0.18-0.34-0.52-0.66-0.96c-3.14-4.67-5.98-9.39-5.31-12.55
					c0.6-4.8,0.61-9.64,0.04-14.43c-1.35,4.16-3.68,9.58-6.18,15.05l-0.56,1.25c3.1,3.76,7.95,9.24,9.63,9.96
					c0.47,0.21,0.77,0.68,0.76,1.19c-0.23,8.06-0.52,8.42-0.81,8.78c-0.35,0.39-0.84,0.61-1.37,0.62
					C109.6,99.55,109.26,99.59,109.06,99.91z M60.2,80.96c-0.81,0.48-1.59,1-2.34,1.57c0.78,2.09,3.29,8.68,3.29,11.11v1.18
					c0.01,2.81,0.01,4.34-1.11,5.02l-0.84,0.39c-1.01,0.41-1.98,0.92-2.88,1.54l5.67,0.2c0.44-0.47,0.77-1.04,0.96-1.65
					c0-0.99,0.34-17.68,0.45-22.76l-0.94,0.1c-0.16,0.71-0.42,1.4-0.76,2.05C61.39,80.31,60.85,80.76,60.2,80.96z M36.33,93.48
					c-1.75,0.35-3.3,1.32-4.4,2.73c2.51-0.41,6.86-1.61,7.61-2.31c0.66-1.06,9.46-7.99,15.21-12.16l1.03-0.76l1.04-0.72
					c0.83-0.63,1.71-1.2,2.62-1.71c0.13-0.16,0.24-0.34,0.31-0.53c0.19-0.51,0.33-1.03,0.42-1.56c0.09-0.34,0.18-0.78,0.27-1.25
					c0.27-1.66,0.5-3.74,0.65-5.85l0.07-1.25v-1.25c0.17-2.23,0.07-4.47-0.29-6.68c-0.18-0.67,0.22-1.36,0.89-1.54
					c0.67-0.18,1.37,0.22,1.55,0.89c0.07,0.11,0.07,0.28,0.07,0.41c0.3,2.3,0.4,4.61,0.27,6.92v1.24c-0.09,2.01-0.25,3.96-0.5,5.78
					c-0.05,0.37-0.16,0.73-0.16,1.06h0.29l2.51-0.25l3.82-0.39l0.26,0.01c12.46,1.31,16.25-5.63,16.41-5.95l0.34-0.66
					c0.16-2.77,0.39-5.19,0.48-6.17c0.07-0.69,0.68-1.19,1.36-1.12c0.69,0.06,1.2,0.67,1.13,1.37h-0.01v0.18
					c-0.09,1.08-0.18,2.25-0.27,3.3c-0.09,1.05-0.2,2.12-0.2,3.13c-0.24,4.61-0.19,8.65,0.35,9.63c1.46,2.65,4.04,8.73,4.14,8.99
					c0.05,0.09,0.08,0.2,0.09,0.3h0.01c0.24,1.64,0.56,4.6-0.18,5.78c-0.49,0.79-4.54,5.1-5.8,5.43c-0.58,0.1-1.19,0.1-1.78,0
					c-0.91-0.12-1.83-0.12-2.73,0c-0.2,0.25-0.37,0.53-0.5,0.82l6.79,1.09c4.04-3.41,8.32-7.21,9.22-8.28V91.2V80.64
					c-0.07-0.3-0.06-0.52,0.24-1.26c0.13-0.31,0.38-0.89,0.54-1.25s0.34-0.78,0.56-1.26l0.09-0.18c2.13-4.77,7.15-15.89,7.15-19.57
					c-0.01-0.28-0.03-0.57-0.07-0.85c-0.06-0.42-0.15-0.84-0.27-1.26c-0.12-0.45-0.27-0.85-0.45-1.25c-0.8-1.83-1.98-3.47-3.45-4.82
					c-1.8-1.84-4.28-2.86-6.86-2.82l-4.38,0.34c-17.94,1.38-23.91,1.8-24.57,1.71c-1.03-0.33-2.03-0.79-2.95-1.37
					c-0.03,0.35-0.21,0.67-0.48,0.88c-0.21,0.16-0.46,0.24-0.73,0.24c-0.28,0.02-0.56-0.05-0.79-0.21
					c-0.05-0.05-0.17-0.12-0.17-0.12H62.1c-1.02-1-2.45-1.46-3.86-1.26v0.18c0.06,0.45,0.1,0.9,0.11,1.36v1.25
					c-0.15,3.44-0.55,6.86-1.18,10.24c-0.1,0.53-0.55,0.95-1.09,1c-0.55,0.07-1.07-0.24-1.29-0.74c-0.07-0.02-0.14-0.02-0.21,0
					c0.27,2.35-0.06,4.73-0.96,6.92c-0.2,0.5-0.71,0.82-1.25,0.78c-0.84,0.58-1.54,1.35-2.06,2.23c-0.7,1.74-1.27,3.27-1.76,4.64
					c-0.1,0.31-0.22,0.62-0.32,0.92l0.41,2.04l0.29,1.4c0.09,0.43-0.06,0.88-0.37,1.17c-0.12,0.11-0.25,0.19-0.39,0.25
					c-0.71,0.57-1.36,1.21-1.94,1.91c-0.08,0.32-0.08,0.5-0.08,0.5c-0.1,0.62-0.62,1.07-1.25,1.06c-2.19,2.57-5.07,6.15-7.71,9.56
					C36.98,93.27,36.67,93.45,36.33,93.48z M32.86,46.4c-0.12,3.26-2.69,6.91-4.38,9.42c-0.37,0.52-0.77,1.1-0.93,1.39
					c-0.15,1.34-0.19,2.68-0.13,4.03c0.84-0.93,1.95-1.58,3.16-1.86c0.56-0.05,1.1,0.13,1.51,0.5c0.27,0.25,0.43,0.61,0.41,0.98
					c-0.07,2.28-0.02,4.56,0.16,6.83c1.12-1.08,2.52-1.82,4.05-2.14c0.45-0.05,0.9,0.15,1.16,0.53c0.26,0.38,0.29,0.86,0.09,1.27
					c-0.72,1.6-1.19,3.29-1.39,5.02c0.81-0.46,1.73-0.71,2.67-0.72c0.26-0.02,0.53-0.02,0.8,0c0.29,0.04,0.55,0.18,0.74,0.39
					c1.53,1.73,2.89,3.58,4.05,5.58c0.25-0.77,0.54-1.66,0.87-2.67l0.19-0.56l0.42-1.25c0.07-0.14,0.16-0.28,0.16-0.43
					c0.14-0.38,0.28-0.78,0.43-1.18c0.06-0.14,0.16-0.28,0.16-0.41c0.31-0.78,0.63-1.62,0.98-2.51c0.79-1.52,2.02-2.79,3.51-3.63
					c0.41-1.4,1.08-4,0.41-5.5c-0.25-0.54-0.08-1.18,0.4-1.53c0.78-0.57,1.72-0.88,2.69-0.89c0.49-2.9,0.77-5.84,0.84-8.78
					c0.01-0.44-0.01-0.89-0.06-1.33c-0.02-0.39-0.11-0.77-0.25-1.13c-0.04-0.09-0.07-0.2-0.08-0.3c-0.07-0.23-0.07-0.48,0-0.72
					c0.13-0.33,0.4-0.59,0.74-0.71c0.75-0.25,1.54-0.38,2.32-0.4h0.19c-1.75-1.62-3.68-3.03-5.76-4.23l-1.1-0.6
					c-3.83-2.01-7.97-3.37-12.25-4.02c-1.4-0.23-2.26-1.7-2.79-3.12c-1,0.64-2.04,1.21-3.12,1.71c-0.21,0.36-0.57,0.6-0.98,0.67
					c-0.47,0.11-1.19-0.07-1.73-1.15c-0.7-0.54-1.46-1-2.27-1.36c-0.07,0.85-0.22,1.68-0.44,2.51c-0.12,0.51-0.55,0.89-1.07,0.95
					l-1.13,0.25l0.99,0.59c0.53,0.32,0.74,0.98,0.5,1.55c1.01-1.37,2.54-2.28,4.23-2.51c0.55-0.08,1.09,0.21,1.32,0.72
					c1.27,2.31,1.12,5.14-0.38,7.3C32.93,44.09,32.96,45.25,32.86,46.4z M24.58,39.71L27,39.26c0.06-0.63,0.26-1.25,0.59-1.79
					c-0.09,0.15-0.21,0.29-0.35,0.39v-0.01L24.58,39.71z M25.56,64.22c-0.52-1.51-0.74-3.11-0.65-4.7c-1.38,0.9-2.95,1.49-4.59,1.72
					h-0.34c-1.9-0.43-5.7-8.47-5.8-9.5c-0.1-1.69,0.26-1.99,3.02-4.39c1.88-1.59,1.88-2.21,1.88-2.58c0-0.1,0-0.19,0-0.29
					c0-0.28,0.03-0.7,0.98-1.96c-0.55,0-1.03-0.36-1.19-0.87c-0.16-0.53,0.03-1.1,0.48-1.41l4.77-3.34l-2.5-1.53
					c-0.44-0.26-0.67-0.77-0.58-1.27c0.12-0.53,0.56-0.92,1.09-0.98l3.9-0.41c0.18-0.77,0.24-1.56,0.19-2.35
					c-0.59-0.39-0.76-1.19-0.37-1.78c0.4-0.59,1.19-0.76,1.79-0.37c1.83,0.73,3.55,1.71,5.1,2.91c1.25-0.59,2.44-1.29,3.56-2.09
					c0.12-0.42,0.43-0.74,0.84-0.87c0.62-0.19,1.29,0.13,1.53,0.73c0.08,0.17,0.13,0.36,0.14,0.54c0.16,1.06,0.59,2.06,1.26,2.91
					c10.51,1.72,16.98,6.22,20.54,9.59c2.77,1.56,6.23,3.45,7.01,3.77c1.58,0,16.64-1.16,23.97-1.72l4.37-0.34
					c3.28-0.11,6.46,1.15,8.78,3.46c2.16,1.96,3.75,4.47,4.62,7.26h-0.01c2.47,5.91,2.44,19.44,1.66,23.2
					c-0.54,2.55,3.59,8.6,4.94,10.58c0.33,0.45,0.63,0.92,0.91,1.4c0.14,0.33,0.55,1.2-0.78,11.73c-0.09,0.62-0.62,1.09-1.26,1.09
					h-7.25c-0.33,0-0.65-0.13-0.88-0.37c-0.24-0.23-0.37-0.54-0.37-0.88c0-3.29,2.01-3.94,3.05-4.12c0.12-1.15,0.25-3.76,0.32-6.27
					c-2.33-1.58-6.14-5.89-8.48-8.66v9.08v1.25c0,0.67,0,1.3-10.53,10.21c-0.25,0.19-0.56,0.28-0.88,0.25v-0.01h-0.17l-8.91-1.32
					c-0.36-0.06-0.68-0.27-0.87-0.58c-0.2-0.32-0.24-0.7-0.13-1.05c0.38-1.14,0.94-2.21,1.67-3.16c0.91-1.02,2.64-0.92,4.81-0.69
					l0.85,0.09c1.57-1.31,3.02-2.75,4.33-4.32c0.13-1.28,0.08-2.56-0.16-3.83c-0.4-0.95-2.71-6.29-3.96-8.61
					c-0.65-1.18-0.79-3.99-0.79-7.06c-2.51,2.46-7.58,5.63-16.75,4.7l-3.76,0.39c-0.1,4.59-0.45,21.96-0.45,22.97
					c-0.24,1.45-0.96,2.78-2.04,3.77c-0.25,0.25-0.59,0.38-0.93,0.37l-7.15-0.25c-0.21,0.17-0.47,0.26-0.74,0.25
					c-0.33,0-0.65-0.13-0.89-0.36c-0.23-0.24-0.37-0.56-0.37-0.89v-0.99c0-2.01,2.51-3.28,4.86-4.32l0.34-0.13
					c0.1-0.98,0.14-1.97,0.1-2.95v-1.26c0.01-1.51-1.62-6.24-2.88-9.56c-5.3,3.92-13.41,10.29-14.19,11.28
					c-1.11,1.76-10.18,3.88-11.9,3.38c-0.64-0.15-1.09-0.72-1.09-1.37c0-1.62,3.29-5.55,6.94-6.27c2.31-2.98,5.57-7.06,8.08-9.94
					c-0.46-1.89-2.6-4.98-4.39-7.06c-1.18,0.11-2.27,0.7-3.02,1.62c-0.32,0.41-0.86,0.58-1.35,0.43c-0.5-0.15-0.85-0.58-0.89-1.09
					c-0.14-1.95,0.05-3.91,0.56-5.79c-0.63,0.53-1.22,1.11-1.77,1.73c-0.3,0.31-0.75,0.45-1.18,0.35s-0.77-0.41-0.91-0.83
					c-0.6-2.73-0.84-5.53-0.71-8.33c-0.85,0.69-1.62,1.47-2.3,2.32c-0.28,0.34-0.71,0.51-1.13,0.45
					C26.13,64.89,25.75,64.61,25.56,64.22z M25.89,54.89c0.14-0.22,0.3-0.44,0.48-0.69l0.49-0.73c1.44-2.1,3.36-5.1,3.45-7.36
					c0.07-0.92,0.07-1.84,0-2.76c-0.4-0.52-0.33-1.27,0.17-1.7c0.98-1.11,1.28-2.66,0.78-4.06c-1.18,0.33-1.95,1.47-1.81,2.69
					c0.06,0.65-0.38,1.24-1.02,1.37l-3.93,0.66l-0.89,0.16l-0.29,0.32c-0.39,0.4-0.74,0.8-1.03,1.14c-0.21,0.24-0.41,0.5-0.59,0.78
					c0,1.07-0.13,2.43-2.75,4.58l-0.05,0.04c-0.79,0.6-1.53,1.25-2.21,1.96c0.01,0.08,0.01,0.18,0,0.26
					c1.02,2.52,2.33,4.92,3.89,7.15c1.58-0.51,3.05-1.29,4.35-2.32c0.08-0.07,0.15-0.15,0.21-0.24
					C25.35,55.71,25.61,55.28,25.89,54.89z"/>
			</g>
		</g>
	</g>
</g>
<g id="Layer_11">
</g>
</svg>
