<svg version="1.1" viewBox="0.0 0.0 133.44094488188978 133.44094488188978" fill="none" stroke="none" stroke-linecap="square" stroke-miterlimit="10" xmlns:xlink="http://www.w3.org/1999/xlink" xmlns="http://www.w3.org/2000/svg"><clipPath id="p.0"><path d="m0 0l133.44095 0l0 133.44095l-133.44095 0l0 -133.44095z" clip-rule="nonzero"/></clipPath><g clip-path="url(#p.0)"><path fill="#000000" fill-opacity="0.0" d="m0 0l133.44095 0l0 133.44095l-133.44095 0z" fill-rule="evenodd"/><path fill="#9901ff" d="m1.8385826 23.856071l0 0c0 -11.837395 9.596105 -21.433498 21.433498 -21.433498l86.89678 0l0 0c5.684517 0 11.136215 2.2581658 15.155777 6.277727c4.019554 4.019561 6.2777176 9.471255 6.2777176 15.155772l0 85.73143c0 11.837395 -9.5961 21.433495 -21.433495 21.433495l-86.89678 0c-11.837394 0 -21.433498 -9.5961 -21.433498 -21.433495z" fill-rule="evenodd"/><path stroke="#000000" stroke-width="4.0" stroke-linejoin="round" stroke-linecap="butt" d="m1.8385826 23.856071l0 0c0 -11.837395 9.596105 -21.433498 21.433498 -21.433498l86.89678 0l0 0c5.684517 0 11.136215 2.2581658 15.155777 6.277727c4.019554 4.019561 6.2777176 9.471255 6.2777176 15.155772l0 85.73143c0 11.837395 -9.5961 21.433495 -21.433495 21.433495l-86.89678 0c-11.837394 0 -21.433498 -9.5961 -21.433498 -21.433495z" fill-rule="evenodd"/><path fill="#ffffff" d="m25.186293 76.60178l0 -20.046879l6.5 0q3.687502 0 4.812502 0.296875q1.71875 0.453125 2.875 1.96875q1.171875 1.515625 1.171875 3.90625q0 1.8437538 -0.671875 3.1093788q-0.671875 1.25 -1.703125 1.96875q-1.03125 0.71875 -2.09375 0.953125q-1.453125 0.28125 -4.203127 0.28125l-2.640625 0l0 7.5625l-4.046875 0zm4.046875 -16.656254l0 5.687504l2.21875 0q2.390627 0 3.203127 -0.3125q0.8125 -0.3125 1.265625 -0.984375q0.453125 -0.6718788 0.453125 -1.5625038q0 -1.09375 -0.640625 -1.796875q-0.640625 -0.71875 -1.625 -0.890625q-0.71875 -0.140625 -2.906252 -0.140625l-1.96875 0zm24.160158 16.656254l0 -2.171875q-0.78125 1.15625 -2.078125 1.828125q-1.296875 0.671875 -2.734375 0.671875q-1.453125 0 -2.625 -0.640625q-1.15625 -0.640625 -1.6875 -1.796875q-0.515625 -1.171875 -0.515625 -3.21875l0 -9.187504l3.84375 0l0 6.671879q0 3.0625 0.203125 3.75q0.21875 0.6875 0.78125 1.09375q0.5625 0.40625 1.421875 0.40625q0.984375 0 1.765625 -0.53125q0.78125 -0.546875 1.0625 -1.34375q0.296875 -0.8125 0.296875 -3.921875l0 -6.125004l3.84375 0l0 14.515629l-3.578125 0zm11.228516 0l-3.84375 0l0 -14.515629l3.578125 0l0 2.0625038q0.90625 -1.4687538 1.640625 -1.9218788q0.734375 -0.46875 1.65625 -0.46875q1.3125 0 2.53125 0.71875l-1.1875 3.3437538q-0.96875 -0.625 -1.796875 -0.625q-0.8125 0 -1.375 0.453125q-0.5625 0.4375 -0.890625 1.609375q-0.3125 1.15625 -0.3125 4.859375l0 4.484375zm7.1152344 -14.515629l3.578125 0l0 2.1250038q0.703125 -1.0937538 1.890625 -1.7656288q1.1875 -0.6875 2.640625 -0.6875q2.515625 0 4.28125 1.984375q1.765625 1.9687538 1.765625 5.515629q0 3.640625 -1.78125 5.65625q-1.765625 2.015625 -4.296875 2.015625q-1.203125 0 -2.1875 -0.46875q-0.96875 -0.484375 -2.046875 -1.65625l0 7.328125l-3.84375 0l0 -20.046879zm3.796875 7.015629q0 2.4375 0.96875 3.609375q0.96875 1.171875 2.359375 1.171875q1.34375 0 2.234375 -1.078125q0.890625 -1.078125 0.890625 -3.515625q0 -2.28125 -0.921875 -3.390625q-0.90625 -1.109375 -2.265625 -1.109375q-1.40625 0 -2.34375 1.09375q-0.921875 1.078125 -0.921875 3.21875zm13.416016 7.5l0 -20.046879l3.84375 0l0 20.046879l-3.84375 0zm16.185547 -4.625l3.828125 0.640625q-0.734375 2.109375 -2.328125 3.21875q-1.59375 1.09375 -3.984375 1.09375q-3.796875 0 -5.609375 -2.46875q-1.4375 -1.984375 -1.4375 -5.015625q0 -3.609375 1.875 -5.640629q1.890625 -2.046875 4.78125 -2.046875q3.234375 0 5.109375 2.140625q1.875 2.1406288 1.796875 6.546879l-9.625 0q0.046875 1.71875 0.921875 2.671875q0.890625 0.9375 2.21875 0.9375q0.90625 0 1.515625 -0.484375q0.625 -0.5 0.9375 -1.59375zm0.21875 -3.875q-0.046875 -1.671875 -0.875 -2.53125q-0.8125 -0.875 -1.984375 -0.875q-1.265625 0 -2.078125 0.90625q-0.828125 0.921875 -0.8125 2.5l5.75 0z" fill-rule="nonzero"/></g></svg>