<?xml version="1.0" encoding="utf-8"?>
<!-- Generator: Adobe Illustrator 27.1.1, SVG Export Plug-In . SVG Version: 6.00 Build 0)  -->
<svg version="1.1" id="Layer_1" xmlns="http://www.w3.org/2000/svg" xmlns:xlink="http://www.w3.org/1999/xlink" x="0px" y="0px"
	 viewBox="0 0 133 133" style="enable-background:new 0 0 133 133;" xml:space="preserve">
<style type="text/css">
	.st0{fill:#8123DE;}
	.st1{fill:#FFFFFF;}
</style>
<g id="Layer_1_00000029027780787945413720000008496243731505363080_">
	<g id="Layer_1_00000062914456741978505350000013971085247844432813_">
		<g id="Layer_2_00000121242036114966112220000015219725071328872611_">
			<path class="st0" d="M121,133H12c-6.6,0-12-5.4-12-12V12C0,5.4,5.4,0,12,0h109c6.6,0,12,5.4,12,12v109
				C133,127.6,127.6,133,121,133z"/>
			<path class="st0" d="M121,133H12c-6.6,0-12-5.4-12-12V12C0,5.4,5.4,0,12,0h109c6.6,0,12,5.4,12,12v109
				C133,127.6,127.6,133,121,133z"/>
		</g>
	</g>
</g>
<g id="Layer_2_00000142137223330988557690000012377003186023014032_">
</g>
<g id="Layer_3">
</g>
<g id="Layer_4">
</g>
<g id="Layer_5">
</g>
<g id="Layer_6">
</g>
<g id="Layer_7">
</g>
<g id="Layer_8">
</g>
<g id="Layer_9">
	<g>
		<g id="XMLID_00000171702823582177244490000004708298057077536935_">
			<g>
				<path d="M98.1,71.1c0.2,0.7,0.2,1.4-0.1,2c-0.3,0.5-0.7,0.9-1.2,1.1C96,74.3,93.6,73,90.9,69C95.1,68.9,97.8,70,98.1,71.1z"/>
				<path d="M80.4,79c3.8,2.1,5.5,4.4,5.4,5.4c-0.1,0.7-0.5,1.3-1,1.7c-0.4,0.2-0.8,0.3-1.2,0.3c-0.1,0-0.2,0-0.4,0
					C82.5,86.3,81.1,83.9,80.4,79z"/>
				<path d="M66.6,84.6c2.6,3.6,3.4,6.5,2.8,7.4c-0.4,0.6-0.9,1-1.6,1.1c-0.5,0.1-1.1-0.1-1.5-0.4C65.6,92.1,65.3,89.2,66.6,84.6z"
					/>
				<path d="M52.1,82c0.8,4.5,0.2,7.5-0.6,8c-0.6,0.3-1.3,0.4-1.9,0.2c-0.5-0.2-1-0.6-1.2-1.1l0,0C48,88.3,48.8,85.6,52.1,82z"/>
				<path d="M41.2,71.7c-1.1,4.5-2.7,6.9-3.8,7c-0.6,0-1.3-0.2-1.8-0.7c-0.4-0.4-0.6-1-0.6-1.5l0,0C35,75.6,36.8,73.5,41.2,71.7z"/>
				<path d="M72.7,66.4c-0.5,0.2-1,0.3-1.6,0.1l0,0c-0.8-0.2-2-2.8-2.1-7.8l0,0c3.5,2.6,5.1,5.1,4.9,6.1
					C73.8,65.5,73.3,66.1,72.7,66.4z"/>
				<path d="M103.8,53.9c0.3,0.6,0.5,1.3,0.4,2c-0.2,0.5-0.5,1-0.9,1.3c-0.6,0.5-3.2-0.1-6.9-3.2C100.5,52.7,103.3,53,103.8,53.9z"
					/>
				<path d="M103.1,37.9c0.2,0.6,0.1,1.2-0.1,1.7c-0.3,0.8-2.8,1.7-7.4,1.2c2.8-3.4,5.4-4.8,6.3-4.3
					C102.4,36.7,102.8,37.3,103.1,37.9z"/>
				<path d="M85,50.3c0.3,0.6,0.4,1.3,0.3,2c-0.2,0.5-0.5,1-1,1.3c-0.6,0.4-3.2-0.2-6.8-3.5l0,0C81.7,48.9,84.5,49.3,85,50.3z"/>
				<path d="M57.5,61.2c0.9,4.5,0.4,7.5-0.4,8c-0.6,0.3-1.2,0.4-1.9,0.2c-0.5-0.2-0.9-0.6-1.2-1.1C53.5,67.6,54.4,64.8,57.5,61.2z"
					/>
				<path class="st1" d="M48.3,105.8C35.1,101.1,24.1,91,17.8,77.6l2.1-1.3C24,85.1,30.3,92.5,38,97.8c8,5.5,17.4,8.4,26.9,8.4
					c7.8,0,15.4-2,22.3-5.8c12.1-6.9,20.9-18.9,24.5-33.2c3.6-14.2,1.8-29.4-5-42.2l2.1-1.2c7.1,13.3,9,29.2,5.2,44.1
					c-3.7,14.9-13,27.5-25.6,34.7C75.9,109.4,61.5,110.6,48.3,105.8z"/>
				<path class="st1" d="M105.9,37c-0.5-1.5-1.5-2.7-2.9-3.4l0,0c-3.4-1.7-8.1,2.7-11.3,7.4c-0.3,0.4-0.4,1-0.2,1.5s0.6,0.9,1.1,1
					c1.8,0.4,3.7,0.6,5.6,0.6c3.4,0,6.4-0.9,7.4-3.2C106.1,39.7,106.2,38.3,105.9,37z M100.9,70.1c-1.2-3.9-7.3-4.6-12.7-4
					c-0.5,0-0.9,0.4-1.1,0.9s-0.2,1,0,1.5c2.6,4.4,6.3,8.8,9.5,8.8c0.4,0,0.8,0,1.2-0.1c1.2-0.4,2.2-1.3,2.8-2.5
					C101.2,73.2,101.3,71.6,100.9,70.1L100.9,70.1z M74.2,48c-0.5,0.2-0.8,0.6-0.9,1.1c0,0.1,0,0.2,0,0.3c0,0.4,0.2,0.8,0.4,1.1
					c3.1,3.3,7.1,6.2,10.1,6.2c0.7,0,1.4-0.2,2-0.6c1.1-0.7,1.8-1.9,2.2-3.2c0.4-1.5,0.1-3.2-0.6-4.5C85.4,45.1,79.3,46,74.2,48z
					 M22.6,75.2l81.8-48.4c6.3,12,8,26.2,4.6,39.5C105.7,79.7,97.3,91,86,97.6c-11.2,6.1-24.1,7.2-36,2.8
					C38.1,96.2,28.3,87.2,22.6,75.2z M58.7,56.7c-0.5-0.1-1,0-1.3,0.4c-4,4-7.5,9.5-5.8,12.9c0.6,1.1,1.6,2,2.7,2.5
					c0.5,0.2,1,0.3,1.5,0.3c1,0,1.9-0.3,2.8-0.8c3.2-2,2.7-8.7,1.1-14.2C59.5,57.2,59.2,56.8,58.7,56.7z M107,56.6
					c0.3-1.6,0-3.2-0.8-4.5l0,0c-2.1-3.3-8.3-2.2-13.2,0c-0.4,0.2-0.8,0.7-0.9,1.2s0.1,1.1,0.5,1.4l0,0c3.1,3.1,7.1,5.8,10.1,5.8
					c0.8,0,1.6-0.2,2.2-0.7C106,59,106.7,57.9,107,56.6z M88.7,85c0.6-4-4.5-7.8-9.4-10c-0.5-0.2-1-0.1-1.4,0.2
					c-0.4,0.3-0.6,0.8-0.6,1.4c0.3,5.8,1.9,12.3,5.5,13c0.3,0.1,0.6,0.1,0.9,0.1c0.9,0,1.9-0.3,2.7-0.8C87.6,87.9,88.4,86.5,88.7,85
					L88.7,85z M76.7,65.7c1-3.9-3.6-8.3-8.3-11.1c-0.4-0.3-1-0.2-1.4,0c-0.4,0.3-0.7,0.8-0.7,1.3C66,61.8,67,68.4,70.4,69.5
					c0.5,0.1,1,0.2,1.4,0.2c0.8,0,1.5-0.2,2.2-0.6C75.3,68.4,76.3,67.2,76.7,65.7z M71.8,93.7c2.1-3.3-1-9.1-4.7-13.3
					c-0.3-0.4-0.8-0.6-1.3-0.5s-0.9,0.5-1.1,1c-1.9,5.5-2.9,12.1,0,14.3c0.9,0.6,1.9,1,2.9,1h0.6C69.6,95.9,70.9,95,71.8,93.7
					L71.8,93.7z M52.8,92.7c3.3-1.9,3-8.6,1.5-14.2c-0.1-0.5-0.5-0.9-1-1.1s-1,0-1.4,0.3c-4.1,4-7.8,9.3-6.1,12.7
					c0.6,1.2,1.6,2.1,2.7,2.6c0.5,0.2,1.1,0.3,1.7,0.3C51.1,93.4,52,93.1,52.8,92.7L52.8,92.7z M44.6,69.6c0.1-0.5-0.1-1.1-0.5-1.4
					c-0.3-0.3-0.6-0.4-1-0.4c-0.1,0-0.3,0-0.4,0.1c-5.2,1.7-10.7,4.8-10.5,8.7c0.1,1.4,0.6,2.6,1.5,3.6c1,1,2.3,1.6,3.7,1.6h0.3
					C41.4,81.6,43.7,75.3,44.6,69.6z"/>
				<path d="M106.2,52.1c0.8,1.3,1.1,2.9,0.8,4.5c-0.3,1.3-1.1,2.5-2.1,3.2c-0.7,0.5-1.4,0.7-2.2,0.7c-3,0-7-2.8-10.1-5.8l0,0
					c-0.4-0.4-0.5-0.9-0.5-1.4c0.1-0.5,0.4-1,0.9-1.2C97.9,49.9,104.1,48.8,106.2,52.1L106.2,52.1z M96.4,54.1
					c3.7,3.1,6.3,3.7,6.9,3.2c0.4-0.3,0.7-0.8,0.9-1.3c0.1-0.7,0-1.4-0.4-2C103.3,53,100.5,52.7,96.4,54.1z"/>
				<path d="M102.9,39.6c0.2-0.5,0.3-1.1,0.1-1.7c-0.2-0.6-0.7-1.2-1.2-1.5c-0.9-0.4-3.5,0.9-6.3,4.3
					C100.2,41.3,102.7,40.4,102.9,39.6z M105.9,37c0.4,1.3,0.3,2.7-0.2,3.9c-1,2.3-4,3.2-7.4,3.2c-1.9,0-3.8-0.2-5.6-0.6
					c-0.5-0.1-0.9-0.5-1.1-1s-0.1-1.1,0.2-1.5c3.2-4.7,7.9-9.1,11.3-7.4l0,0C104.3,34.2,105.4,35.5,105.9,37z"/>
				<path d="M100.9,70.1c0.4,1.5,0.3,3.1-0.4,4.6c-0.6,1.2-1.6,2-2.8,2.5c-0.4,0.1-0.8,0.2-1.2,0.1c-3.2,0-6.9-4.4-9.5-8.8
					c-0.2-0.5-0.2-1,0-1.5s0.6-0.8,1.1-0.9C93.5,65.5,99.7,66.2,100.9,70.1L100.9,70.1z M97.9,73.1c0.3-0.6,0.3-1.3,0.1-2
					c-0.3-1.1-2.9-2.2-7.2-2.1c2.8,4,5.1,5.3,5.8,5.1C97.2,73.9,97.7,73.6,97.9,73.1z"/>
				<path d="M84.3,53.6c0.5-0.3,0.8-0.8,1-1.3c0.1-0.7,0-1.4-0.3-2c-0.5-0.9-3.3-1.3-7.4-0.1l0,0C81.1,53.4,83.7,54.1,84.3,53.6z
					 M88.1,53.1c-0.3,1.3-1.1,2.4-2.2,3.2c-0.6,0.4-1.3,0.6-2,0.6c-3,0-7-3-10.1-6.2c-0.3-0.3-0.4-0.7-0.4-1.1c0-0.1,0-0.2,0-0.3
					c0.1-0.5,0.5-1,0.9-1.1c5.1-2,11.2-2.9,13.2,0.6C88.2,49.9,88.4,51.6,88.1,53.1z"/>
				<path d="M82.8,89.5c-3.6-0.7-5.2-7.2-5.5-13c0-0.5,0.2-1.1,0.6-1.4s0.9-0.4,1.4-0.2c4.9,2.2,10.1,6,9.4,10l0,0
					c-0.3,1.6-1.1,3-2.3,3.8c-0.8,0.5-1.8,0.8-2.7,0.8C83.4,89.6,83.1,89.6,82.8,89.5z M80.4,79c0.6,5,2.1,7.3,2.9,7.4
					c0.1,0,0.2,0,0.4,0c0.4,0,0.8-0.1,1.2-0.3c0.5-0.4,0.8-1,1-1.7C86,83.4,84.2,81.1,80.4,79C80.4,78.9,80.4,78.9,80.4,79L80.4,79
					C80.4,78.9,80.4,79,80.4,79z"/>
				<path d="M80.4,78.9L80.4,78.9C80.4,79,80.4,78.9,80.4,78.9L80.4,78.9z"/>
				<path d="M72.7,66.4c0.6-0.3,1-0.9,1.2-1.6c0.2-1-1.3-3.5-4.9-6.1l0,0c0.1,5,1.3,7.6,2.1,7.8l0,0C71.7,66.7,72.2,66.6,72.7,66.4z
					 M70.4,69.5c-3.4-1.1-4.4-7.8-4.1-13.6c0-0.5,0.3-1,0.7-1.3c0.4-0.3,1-0.3,1.4,0c4.7,2.8,9.4,7.2,8.3,11.1
					c-0.4,1.5-1.4,2.8-2.7,3.5c-0.7,0.4-1.4,0.6-2.2,0.6C71.3,69.8,70.8,69.7,70.4,69.5z"/>
				<path d="M66.6,84.5L66.6,84.5L66.6,84.5L66.6,84.5z"/>
				<path d="M66.6,84.6c-1.3,4.6-1,7.5-0.3,8.1c0.5,0.3,1,0.5,1.5,0.4c0.6-0.1,1.2-0.5,1.6-1.1C70,91.1,69.2,88.2,66.6,84.6
					C66.6,84.5,66.6,84.5,66.6,84.6L66.6,84.6C66.6,84.5,66.6,84.5,66.6,84.6z M67.1,80.4c3.7,4.3,6.8,10,4.7,13.3l0,0
					c-0.8,1.3-2.1,2.2-3.6,2.4h-0.6c-1,0-2.1-0.3-2.9-1c-2.9-2.2-1.9-8.9,0-14.3c0.2-0.5,0.6-0.9,1.1-1C66.3,79.8,66.8,80,67.1,80.4
					z"/>
				<path d="M57.1,69.2c0.8-0.5,1.3-3.5,0.4-8c-3.1,3.6-4,6.4-3.5,7.2c0.3,0.5,0.7,0.9,1.2,1.1C55.9,69.7,56.5,69.6,57.1,69.2z
					 M51.6,70c-1.8-3.4,1.8-8.9,5.8-12.9c0.4-0.4,0.9-0.5,1.3-0.4c0.5,0.1,0.9,0.5,1,1c1.6,5.5,2.2,12.2-1.1,14.2
					c-0.9,0.5-1.8,0.8-2.8,0.8c-0.5,0-1-0.1-1.5-0.3C53.2,72,52.2,71.1,51.6,70z"/>
				<path d="M51.5,90c0.8-0.5,1.4-3.5,0.6-8c-3.2,3.6-4,6.3-3.7,7.1l0,0c0.3,0.5,0.7,0.9,1.2,1.1C50.2,90.3,50.9,90.3,51.5,90z
					 M52.8,92.7c-0.8,0.4-1.7,0.7-2.5,0.7c-0.6,0-1.1-0.1-1.7-0.3c-1.2-0.5-2.1-1.4-2.7-2.6c-1.7-3.4,2-8.7,6.1-12.7
					c0.4-0.3,0.9-0.5,1.4-0.3s0.8,0.6,1,1.1C55.8,84.1,56.1,90.8,52.8,92.7L52.8,92.7z"/>
				<path d="M37.4,78.7c1-0.1,2.7-2.5,3.8-7c-4.4,1.8-6.2,3.9-6.2,4.7l0,0c0,0.6,0.3,1.1,0.6,1.5C36.2,78.4,36.8,78.7,37.4,78.7z
					 M44.6,69.6c-0.9,5.7-3.2,12-6.9,12.2h-0.3c-1.4,0-2.7-0.6-3.7-1.6c-0.9-1-1.4-2.2-1.5-3.6c-0.2-3.9,5.3-7,10.5-8.7
					c0.1,0,0.3-0.1,0.4-0.1c0.3,0,0.7,0.1,1,0.4C44.5,68.5,44.7,69.1,44.6,69.6z"/>
				<path d="M22.6,75.2c5.7,12,15.5,21,27.3,25.2c11.9,4.3,24.8,3.3,36-2.8c11.3-6.5,19.7-17.8,23-31.3c3.4-13.3,1.8-27.5-4.6-39.5
					L22.6,75.2z M38,97.8c-7.7-5.2-14-12.6-18.1-21.4L106.7,25c6.8,12.7,8.7,27.9,5,42.2c-3.6,14.2-12.4,26.3-24.5,33.2
					c-6.9,3.8-14.5,5.8-22.3,5.8C55.4,106.1,46.1,103.2,38,97.8z"/>
				<path d="M106.7,25L19.9,76.4c-0.2-0.4-0.4-0.7-0.5-1.1c-0.3-0.8-0.1-1.7,0.6-2.1l84.2-49.8c0.7-0.4,1.5-0.2,1.9,0.5
					C106.3,24.3,106.5,24.6,106.7,25z"/>
				<path d="M19.4,75.2c0.2,0.4,0.3,0.8,0.5,1.1l-2.1,1.3c6.3,13.4,17.3,23.5,30.5,28.1c13.2,4.8,27.6,3.7,40-3.1
					c12.6-7.2,21.9-19.8,25.6-34.7c3.8-14.9,1.9-30.8-5.2-44.1l-2.1,1.2c-0.2-0.4-0.4-0.7-0.6-1.1c-0.4-0.7-1.2-0.9-1.9-0.5L20,73.2
					C19.3,73.6,19,74.5,19.4,75.2z M14,76.3l95.8-56.7l0.7,1.2c5.4,9.6,8.2,20.6,8.2,31.6c0,5.4-0.7,10.9-2,16.2
					c-3.9,15.8-13.8,29.1-27.2,36.7c-7.6,4.2-16,6.4-24.6,6.4c-10.5,0-20.8-3.2-29.8-9.3c-8.9-6-16.1-14.7-20.7-24.9L14,76.3z"/>
			</g>
		</g>
	</g>
</g>
</svg>
