<?xml version="1.0" encoding="utf-8"?>
<!-- Generator: Adobe Illustrator 27.1.1, SVG Export Plug-In . SVG Version: 6.00 Build 0)  -->
<svg version="1.1" id="Layer_1" xmlns="http://www.w3.org/2000/svg" xmlns:xlink="http://www.w3.org/1999/xlink" x="0px" y="0px"
	 viewBox="0 0 133 133" style="enable-background:new 0 0 133 133;" xml:space="preserve">
<style type="text/css">
	.st0{fill:#5B8DA5;}
	.st1{fill:#FFFFFF;}
</style>
<g id="Layer_2_00000072271156800465634730000007723246365168045501_">
	<path class="st0" d="M121,133H12c-6.6,0-12-5.4-12-12V12C0,5.4,5.4,0,12,0h109c6.6,0,12,5.4,12,12v109C133,127.6,127.6,133,121,133
		z"/>
</g>
<g id="Layer_1_00000028289583012379110720000014666853630040057769_">
</g>
<g id="Layer_3">
</g>
<g id="Layer_5">
</g>
<g id="Layer_6">
</g>
<g id="Layer_7">
	<g>
		<g id="XMLID_00000149363387278970442460000007913459558269713815_">
			<g>
				<path class="st1" d="M30.4,99.3c1.8-0.3,3.1-1.8,3-3.6c0-0.7,0.6-1.4,1.3-1.5c0.5-0.1,1,0.1,1.3,0.5s0.5,0.8,0.4,1.3
					c-0.3,2-1.5,3.8-3.2,5c-1.7,1.1-3.8,1.4-5.7,0.8c-2.6-0.7-4.8-2.5-6-4.8c-3-5.1-4.1-12.3-3.5-21c2.5,0,4.9-0.3,7.3-0.8
					c-3.8,9-1.5,17.8,1.3,21.7C27.9,98.7,29.2,99.5,30.4,99.3z"/>
				<path class="st1" d="M30.5,70.9c-4,2.1-9,3-15,2.8L24,68c0.7-0.5,1.5-0.7,2.3-0.7c0.5,0,0.9,0.1,1.4,0.2
					c1.2,0.4,2.1,1.3,2.5,2.5C30.3,70.3,30.4,70.6,30.5,70.9z"/>
				<path class="st1" d="M30.9,51.9c0.1-0.1,0.2-0.2,0.4-0.1c0.5,0.3,1.3,0.1,1.6-0.4s0.1-1.2-0.4-1.6h-0.1c-1.2-0.7-2.8-0.2-3.4,1
					c-0.1,0.3-0.2,0.6-0.1,0.9c0.1,0.3,0.3,0.5,0.5,0.7c0.2,0.1,0.4,0.2,0.5,0.1C30.3,52.5,30.6,52.3,30.9,51.9z M104.5,38.3
					c9.5,9,10.2,22,2.1,37.6V76l-0.1,0.2c-2.7,7.8-3.6,16.1-2.6,24.3c0,0.2-0.1,0.5-0.2,0.6c-0.2,0.2-0.4,0.3-0.6,0.3h-10
					c-0.3,0-0.6-0.2-0.7-0.4c-0.2-0.3-0.2-0.6,0-0.9c1.8-2.9,3-6.2,3.4-9.6c0-0.1,0-0.1,0-0.2v-3.6c0-1.1-0.1-2.2-0.3-3.3
					c-0.5-2.8-2.5-5.2-5.1-6.2c-5-1.9-6.9-6.7-5.9-14.5c0.1-0.6-0.4-1.2-1-1.3s-1.2,0.4-1.3,1c-1,7.2,0.5,12.4,4.4,15.3
					c-6.2,2.1-14.3,0.4-17.2-0.3c1.7-4.8,3.5-10.1,3.8-10.7c0.2-0.5,0-1.1-0.5-1.4c-0.5-0.3-1.1-0.2-1.5,0.3
					c-0.2,0.3-0.6,1.2-5.9,16.8l-0.3,1c-0.6,1.6-0.9,3.3-0.9,5v12.3c0,0.4-0.4,0.8-0.8,0.8H54c-0.3,0-0.6-0.2-0.8-0.5
					c-0.1-0.3-0.1-0.7,0.2-0.9l2.7-2.8c0.7-0.7,1-1.7,0.8-2.6l-4.1-26.3c6.4-2.5,11.3-7,10.2-17.8c0-0.3-1-7.4-12.4-10.6
					c-0.1,0-0.2,0-0.3,0c-0.5,0-1,0.3-1.1,0.8c-0.2,0.6,0.2,1.2,0.8,1.4c9.8,2.8,10.7,8.5,10.8,8.7c1.1,10.8-4.1,14.4-12.9,16.7
					c-0.2,0.1-0.4,0.1-0.7,0.1c-0.5,0-1-0.2-1.5-0.5c-3.8-3-4.5-16.3-4.4-21.2c0-0.3-0.1-0.6-0.3-0.8c-0.2-0.2-0.5-0.3-0.8-0.3
					c-0.6,0-1.1,0.5-1.1,1.1c0,1.4-0.1,10.8,2,17.4h-2.5c-0.5,0-0.9,0.3-1.1,0.8c-1,2.3-2.7,4.3-4.8,5.7l-0.1-0.4
					c-0.6-1.8-2.1-3.3-4-3.9c-1.9-0.7-4-0.4-5.7,0.8L19,68.7c1.3-7.2,3.4-14.3,6.2-21.1c0-0.1,0.1-0.3,0.1-0.4
					c0.2-3.8,1.6-6.7,4.3-8.4c3.8-2.4,9.9-2.3,15.7,0.1c0.4,0.2,0.9,0.1,1.3-0.2c8.1-8.3,22.7-8.6,38.2-8.2h0
					C92.1,30.6,99.2,33.4,104.5,38.3z"/>
				<path d="M31.2,51.8c-0.1-0.1-0.3,0-0.4,0.1c-0.2,0.4-0.6,0.6-1,0.6c-0.2,0-0.4,0-0.5-0.1c-0.3-0.2-0.5-0.4-0.5-0.7
					c-0.1-0.3,0-0.6,0.1-0.9c0.7-1.2,2.2-1.7,3.4-1h0.1c0.5,0.3,0.7,1,0.4,1.6S31.8,52.2,31.2,51.8z"/>
				<path d="M26.3,67.3c-0.8,0-1.6,0.2-2.3,0.7l-8.5,5.7c6,0.2,11-0.7,15-2.8c-0.1-0.3-0.2-0.6-0.3-0.9c-0.4-1.2-1.4-2.1-2.5-2.5
					C27.2,67.4,26.8,67.3,26.3,67.3z M26.7,96.9c-2.8-3.9-5.1-12.7-1.3-21.7C23,75.7,20.6,76,18.1,76c-0.6,8.7,0.5,15.9,3.5,21
					c1.3,2.3,3.5,4.1,6,4.8c1.9,0.5,4,0.2,5.7-0.8c1.7-1.1,2.9-2.9,3.2-5c0.1-0.5-0.1-1-0.4-1.3s-0.8-0.5-1.3-0.5
					c-0.7,0.1-1.3,0.7-1.3,1.5c0,1.8-1.3,3.3-3,3.6C29.2,99.5,27.9,98.7,26.7,96.9z M66.3,100.6c0,1.7-1.4,3.1-3.1,3.1H54
					c-1.2,0-2.4-0.7-2.9-1.9c-0.2-0.4-0.3-0.8-0.3-1.2c0-0.8,0.3-1.6,0.8-2.1l2.7-2.8c0.2-0.2,0.2-0.4,0.2-0.7l-4-25.9
					c-0.8,0.2-1.5,0.4-2.3,0.6c-0.4,0.1-0.8,0.2-1.3,0.2c-1,0-2-0.4-2.8-1c-1-0.9-1.9-2.1-2.4-3.3h-2.7c-1.5,2.9-3.9,5.3-6.8,7
					c-1.3,0.7-2.7,1.4-4.2,1.8c-3.4,6.3-3.5,13.8-0.4,20.1c1.1,1.9,2,2.6,2.3,2.6c0.5-0.1,1-0.3,1.1-1.5c0.1-1.8,1.5-3.3,3.3-3.5
					c1.2-0.2,2.4,0.3,3.2,1.2c0.8,0.9,1.2,2.1,1,3.3c-0.5,2.6-2,4.9-4.2,6.4c-1.5,1-3.2,1.5-5,1.5c-0.9,0-1.7-0.1-2.5-0.3
					c-3.2-0.9-5.9-3-7.5-5.9c-3.1-5.4-4.4-13.1-3.7-22.2c-1.2,0-2.5-0.1-3.8-0.2c-0.5-0.1-0.9-0.4-1-0.9c-0.1-0.5,0.1-0.9,0.5-1.2
					l4.9-3.3c1.2-8.1,3.5-16,6.7-23.5c0.2-4.5,2.1-7.9,5.3-10c4.3-2.7,10.8-2.8,17.1-0.3c8.8-8.4,23.7-8.8,39.4-8.3
					c7.8,0.1,15.4,3.1,21.1,8.4c3.7,3.4,6.4,7.9,7.6,12.8c1.6,1.8,8.8,11.1,6.2,29.5c-0.1,0.6-0.6,1-1.1,1h-0.1
					c-0.6-0.1-1-0.6-1-1.1c0,0,0-0.1,0-0.1c1.6-11.8-0.9-19.7-3.2-23.9c0.3,6.6-1.6,14.1-5.8,22.2c-2.6,7.5-3.4,15.4-2.5,23.2
					c0.1,0.9-0.1,1.8-0.7,2.4c-0.6,0.7-1.4,1.1-2.3,1.1H93.1c-1.1,0-2.2-0.6-2.7-1.6c-0.6-1-0.5-2.3,0.1-3.2
					c1.7-2.6,2.7-5.6,3.1-8.6v-3.5c0-1-0.1-1.9-0.3-2.8c-0.4-2.1-1.8-3.8-3.7-4.6L89,79.1C86,80.4,82.7,81,79.4,81
					c-3.7,0-7.3-0.5-10.8-1.4l-1.2,3.4l-0.3,1c-0.5,1.4-0.7,2.9-0.7,4.3C66.3,88.3,66.3,100.6,66.3,100.6z M64,88.3
					c0-1.7,0.3-3.4,0.9-5l0.3-1c5.4-15.5,5.8-16.5,5.9-16.8c0.4-0.4,1-0.6,1.5-0.3c0.5,0.3,0.7,0.9,0.5,1.4
					c-0.3,0.6-2.2,5.9-3.8,10.7c2.9,0.7,11,2.4,17.2,0.3c-3.9-2.9-5.3-8.1-4.4-15.3c0.1-0.6,0.7-1.1,1.3-1c0.6,0.1,1.1,0.7,1,1.3
					c-1,7.8,0.9,12.6,5.9,14.5c2.7,1.1,4.6,3.4,5.1,6.2c0.2,1.1,0.3,2.2,0.3,3.3v3.6c0,0.1,0,0.1,0,0.2c-0.4,3.4-1.6,6.7-3.4,9.6
					c-0.2,0.3-0.2,0.6,0,0.9c0.2,0.3,0.4,0.4,0.7,0.4h10c0.2,0,0.5-0.1,0.6-0.3c0.2-0.2,0.2-0.4,0.2-0.6c-1-8.2-0.1-16.5,2.6-24.3
					l0.1-0.2v-0.1c8.1-15.6,7.4-28.6-2.1-37.6c-5.4-4.9-12.4-7.7-19.7-7.8h0c-15.6-0.4-30.2-0.1-38.2,8.2c-0.3,0.3-0.8,0.4-1.3,0.2
					c-5.8-2.4-12-2.5-15.7-0.1c-2.7,1.7-4.1,4.5-4.3,8.4c0,0.1,0,0.3-0.1,0.4c-2.9,6.8-4.9,13.8-6.2,21.1l3.7-2.5
					c1.7-1.1,3.8-1.4,5.7-0.8c1.9,0.6,3.3,2.1,4,3.9l0.1,0.4c2.1-1.4,3.8-3.4,4.8-5.7c0.2-0.5,0.6-0.8,1.1-0.8H41
					c-2.1-6.6-2-16-2-17.4c0-0.6,0.5-1.1,1.1-1.1c0.3,0,0.6,0.1,0.8,0.3c0.2,0.2,0.3,0.5,0.3,0.8c-0.1,4.9,0.6,18.2,4.4,21.2
					c0.4,0.3,0.9,0.5,1.5,0.5c0.2,0,0.4,0,0.7-0.1c8.8-2.3,14-5.9,12.9-16.7c0-0.2-0.9-5.9-10.8-8.7c-0.6-0.2-1-0.8-0.8-1.4
					c0.1-0.5,0.6-0.8,1.1-0.8c0.1,0,0.2,0,0.3,0C61.9,43.1,63,50.2,63,50.5c1.1,10.8-3.8,15.3-10.2,17.8l4.1,26.3
					c0.1,0.9-0.2,1.9-0.8,2.6l-2.7,2.8c-0.2,0.2-0.3,0.6-0.2,0.9c0.1,0.3,0.4,0.5,0.8,0.5h9.2c0.4,0,0.8-0.3,0.8-0.8V88.3z"/>
			</g>
		</g>
	</g>
</g>
<g id="Layer_8">
</g>
<g id="Layer_9">
</g>
<g id="Layer_10">
</g>
<g id="Layer_11">
</g>
</svg>
