<?xml version="1.0" encoding="utf-8"?>
<!-- Generator: Adobe Illustrator 26.3.1, SVG Export Plug-In . SVG Version: 6.00 Build 0)  -->
<svg version="1.1" xmlns="http://www.w3.org/2000/svg" xmlns:xlink="http://www.w3.org/1999/xlink" x="0px" y="0px"
	 viewBox="0 0 133 133" style="enable-background:new 0 0 133 133;" xml:space="preserve">
<style type="text/css">
	.st0{fill:#BCD0D8;}
	.st1{fill:#FFFFFF;}
</style>
<g id="Layer_2">
	<path class="st0" d="M121,133H12c-6.6,0-12-5.4-12-12V12C0,5.4,5.4,0,12,0h109c6.6,0,12,5.4,12,12v109C133,127.6,127.6,133,121,133
		z"/>
</g>
<g id="Layer_1">
</g>
<g id="Layer_3">
</g>
<g id="Layer_5">
</g>
<g id="Layer_6">
</g>
<g id="Layer_7">
	<g>
		<g id="XMLID_00000149363387278970442460000007913459558269713815_">
			<g>
				<path class="st1" d="M30.44,99.33c1.77-0.26,3.08-1.8,3.04-3.59c0.04-0.74,0.6-1.37,1.34-1.48c0.48-0.07,0.97,0.11,1.31,0.46
					s0.49,0.85,0.4,1.33c-0.35,2.04-1.52,3.84-3.23,4.98c-1.7,1.06-3.77,1.37-5.7,0.85c-2.57-0.74-4.75-2.49-6.03-4.84
					c-2.97-5.13-4.13-12.34-3.48-21.01c2.46-0.03,4.9-0.31,7.3-0.84c-3.81,9.02-1.45,17.75,1.31,21.69
					C27.93,98.65,29.23,99.49,30.44,99.33z"/>
				<path class="st1" d="M30.52,70.95c-3.95,2.06-8.98,2.98-14.98,2.79l8.47-5.7c0.7-0.47,1.51-0.71,2.33-0.71
					c0.45,0,0.91,0.07,1.35,0.22c1.19,0.39,2.13,1.3,2.54,2.49C30.32,70.33,30.43,70.64,30.52,70.95z"/>
				<path class="st1" d="M30.85,51.94c0.07-0.12,0.22-0.17,0.35-0.1c0.55,0.31,1.26,0.12,1.57-0.43s0.12-1.25-0.43-1.56h-0.06
					c-1.23-0.66-2.75-0.22-3.43,0.99c-0.14,0.26-0.18,0.57-0.1,0.86c0.09,0.29,0.29,0.54,0.55,0.69c0.16,0.1,0.35,0.15,0.55,0.14
					C30.26,52.54,30.65,52.31,30.85,51.94z M104.52,38.33c9.47,8.99,10.2,22.01,2.09,37.62v0.07l-0.07,0.16
					c-2.71,7.81-3.6,16.13-2.62,24.34c0.02,0.23-0.05,0.46-0.2,0.63c-0.15,0.18-0.38,0.29-0.63,0.28H93.06
					c-0.29,0.01-0.57-0.15-0.72-0.41c-0.16-0.28-0.16-0.64,0-0.92c1.85-2.92,3.02-6.21,3.42-9.63c0.01-0.06,0.01-0.11,0-0.16v-3.59
					c0.01-1.1-0.1-2.19-0.32-3.28c-0.54-2.81-2.47-5.16-5.12-6.25c-4.99-1.94-6.92-6.7-5.92-14.54c0.08-0.63-0.36-1.21-0.99-1.29
					c-0.63-0.08-1.21,0.36-1.29,0.99c-0.96,7.23,0.51,12.36,4.37,15.29c-6.22,2.07-14.27,0.43-17.2-0.3
					c1.68-4.81,3.54-10.06,3.84-10.7c0.22-0.53,0.02-1.13-0.47-1.42c-0.5-0.29-1.12-0.17-1.48,0.28c-0.19,0.28-0.58,1.24-5.95,16.75
					l-0.34,1c-0.58,1.62-0.87,3.32-0.88,5.04v12.34c0,0.45-0.36,0.8-0.8,0.8h-9.25c-0.33,0.01-0.63-0.18-0.76-0.48
					c-0.13-0.31-0.07-0.66,0.16-0.89l2.67-2.8c0.67-0.69,0.97-1.66,0.83-2.61l-4.07-26.34c6.4-2.48,11.27-7.01,10.16-17.79
					c0-0.3-1.01-7.38-12.4-10.62c-0.1-0.03-0.21-0.04-0.31-0.04c-0.5,0-0.96,0.32-1.1,0.83c-0.18,0.61,0.17,1.24,0.78,1.42
					c9.83,2.79,10.73,8.45,10.76,8.66c1.14,10.84-4.1,14.45-12.89,16.74c-0.22,0.06-0.44,0.1-0.66,0.1c-0.53,0-1.05-0.19-1.47-0.54
					c-3.8-2.97-4.45-16.29-4.39-21.17c0-0.3-0.12-0.59-0.33-0.81c-0.22-0.21-0.51-0.33-0.81-0.33c-0.63,0-1.14,0.51-1.14,1.14
					c0,1.4-0.07,10.79,2,17.39h-2.54c-0.49,0-0.92,0.31-1.08,0.77c-1.03,2.33-2.71,4.31-4.84,5.7l-0.14-0.43
					c-0.64-1.85-2.11-3.31-3.97-3.91c-1.92-0.65-4.02-0.37-5.7,0.76l-3.71,2.51c1.29-7.24,3.38-14.31,6.24-21.08
					c0.05-0.13,0.08-0.26,0.09-0.4c0.16-3.85,1.6-6.66,4.28-8.36c3.77-2.38,9.94-2.28,15.72,0.14c0.43,0.19,0.94,0.09,1.26-0.25
					c8.09-8.29,22.7-8.61,38.25-8.19h0.01C92.14,30.63,99.15,33.4,104.52,38.33z"/>
				<path d="M31.2,51.84c-0.13-0.07-0.28-0.02-0.35,0.1c-0.2,0.37-0.59,0.6-1,0.59c-0.2,0.01-0.39-0.04-0.55-0.14
					c-0.26-0.15-0.46-0.4-0.55-0.69c-0.08-0.29-0.04-0.6,0.1-0.86c0.68-1.21,2.2-1.65,3.43-0.99h0.06c0.55,0.31,0.74,1.01,0.43,1.56
					S31.75,52.15,31.2,51.84z"/>
				<path d="M26.34,67.33c-0.82,0-1.63,0.24-2.33,0.71l-8.47,5.7c6,0.19,11.03-0.73,14.98-2.79c-0.09-0.31-0.2-0.62-0.29-0.91
					c-0.41-1.19-1.35-2.1-2.54-2.49C27.25,67.4,26.79,67.33,26.34,67.33z M26.7,96.88c-2.76-3.94-5.12-12.67-1.31-21.69
					c-2.4,0.53-4.84,0.81-7.3,0.84c-0.65,8.67,0.51,15.88,3.48,21.01c1.28,2.35,3.46,4.1,6.03,4.84c1.93,0.52,4,0.21,5.7-0.85
					c1.71-1.14,2.88-2.94,3.23-4.98c0.09-0.48-0.06-0.98-0.4-1.33s-0.83-0.53-1.31-0.46c-0.74,0.11-1.3,0.74-1.34,1.48
					c0.04,1.79-1.27,3.33-3.04,3.59C29.23,99.49,27.93,98.65,26.7,96.88z M66.29,100.64c0,1.69-1.38,3.07-3.08,3.08h-9.22
					c-1.24,0-2.37-0.73-2.87-1.87c-0.17-0.4-0.26-0.82-0.26-1.24c0-0.78,0.29-1.55,0.85-2.13l2.68-2.8
					c0.18-0.19,0.25-0.44,0.22-0.69l-3.97-25.88c-0.77,0.23-1.53,0.45-2.28,0.64c-0.41,0.11-0.84,0.17-1.26,0.17
					c-1.04,0-2.05-0.36-2.85-1.01c-1.05-0.91-1.87-2.05-2.39-3.33H39.2c-1.53,2.93-3.88,5.35-6.78,6.96
					c-1.32,0.74-2.72,1.36-4.17,1.84c-3.39,6.26-3.54,13.75-0.4,20.14c1.06,1.87,2.01,2.57,2.28,2.57c0.48-0.08,0.97-0.32,1.08-1.54
					c0.14-1.81,1.52-3.29,3.32-3.53c1.21-0.15,2.41,0.28,3.24,1.16c0.84,0.88,1.21,2.1,1,3.3c-0.48,2.63-2.01,4.95-4.24,6.42
					c-1.48,0.96-3.21,1.47-4.98,1.46c-0.86,0-1.71-0.11-2.55-0.32c-3.17-0.89-5.85-3.01-7.45-5.89c-3.12-5.42-4.4-13.07-3.74-22.17
					c-1.23-0.04-2.49-0.11-3.79-0.23c-0.47-0.05-0.87-0.39-0.99-0.86c-0.11-0.46,0.07-0.95,0.47-1.22l4.94-3.28
					c1.24-8.07,3.48-15.96,6.67-23.48c0.23-4.48,2.07-7.93,5.33-9.98c4.28-2.72,10.78-2.83,17.11-0.32
					c8.81-8.43,23.65-8.76,39.4-8.34c7.83,0.09,15.36,3.08,21.13,8.38c3.73,3.44,6.37,7.88,7.61,12.79
					c1.63,1.82,8.76,11.1,6.19,29.52c-0.08,0.57-0.57,0.99-1.14,0.98h-0.13c-0.58-0.07-1-0.56-1-1.12c0-0.04,0.01-0.09,0.01-0.13
					c1.64-11.8-0.9-19.65-3.18-23.94c0.32,6.64-1.6,14.11-5.78,22.22c-2.57,7.47-3.41,15.41-2.46,23.25
					c0.12,0.89-0.14,1.77-0.72,2.45c-0.59,0.67-1.44,1.05-2.34,1.05H93.06c-1.13,0.01-2.17-0.61-2.71-1.6
					c-0.56-1.02-0.51-2.27,0.13-3.24c1.65-2.62,2.71-5.57,3.1-8.64v-3.5c0-0.96-0.09-1.91-0.28-2.84c-0.39-2.05-1.8-3.77-3.73-4.56
					l-0.55-0.25c-3.05,1.32-6.34,1.95-9.65,1.87c-3.65-0.04-7.27-0.53-10.81-1.44l-1.2,3.42l-0.34,0.99
					c-0.49,1.4-0.74,2.87-0.73,4.35V100.64z M64.01,88.29c0.01-1.72,0.3-3.42,0.88-5.04l0.34-1c5.37-15.51,5.76-16.47,5.95-16.75
					c0.36-0.45,0.98-0.57,1.48-0.28c0.49,0.29,0.69,0.89,0.47,1.42c-0.3,0.64-2.16,5.89-3.84,10.7c2.93,0.73,10.98,2.37,17.2,0.3
					c-3.86-2.93-5.33-8.06-4.37-15.29c0.08-0.63,0.66-1.07,1.29-0.99c0.63,0.08,1.07,0.66,0.99,1.29c-1,7.84,0.93,12.6,5.92,14.54
					c2.65,1.09,4.58,3.44,5.12,6.25c0.22,1.09,0.33,2.18,0.32,3.28v3.59c0.01,0.05,0.01,0.1,0,0.16c-0.4,3.42-1.57,6.71-3.42,9.63
					c-0.16,0.28-0.16,0.64,0,0.92c0.15,0.26,0.43,0.42,0.72,0.41h10.03c0.25,0.01,0.48-0.1,0.63-0.28c0.15-0.17,0.22-0.4,0.2-0.63
					c-0.98-8.21-0.09-16.53,2.62-24.34l0.07-0.16v-0.07c8.11-15.61,7.38-28.63-2.09-37.62c-5.37-4.93-12.38-7.7-19.66-7.78h-0.01
					c-15.55-0.42-30.16-0.1-38.25,8.19c-0.32,0.34-0.83,0.44-1.26,0.25c-5.78-2.42-11.95-2.52-15.72-0.14
					c-2.68,1.7-4.12,4.51-4.28,8.36c-0.01,0.14-0.04,0.27-0.09,0.4c-2.86,6.77-4.95,13.84-6.24,21.08l3.71-2.51
					c1.68-1.13,3.78-1.41,5.7-0.76c1.86,0.6,3.33,2.06,3.97,3.91l0.14,0.43c2.13-1.39,3.81-3.37,4.84-5.7
					c0.16-0.46,0.59-0.77,1.08-0.77h2.54c-2.07-6.6-2-15.99-2-17.39c0-0.63,0.51-1.14,1.14-1.14c0.3,0,0.59,0.12,0.81,0.33
					c0.21,0.22,0.33,0.51,0.33,0.81c-0.06,4.88,0.59,18.2,4.39,21.17c0.42,0.35,0.94,0.54,1.47,0.54c0.22,0,0.44-0.04,0.66-0.1
					c8.79-2.29,14.03-5.9,12.89-16.74c-0.03-0.21-0.93-5.87-10.76-8.66c-0.61-0.18-0.96-0.81-0.78-1.42c0.14-0.51,0.6-0.83,1.1-0.83
					c0.1,0,0.21,0.01,0.31,0.04c11.39,3.24,12.4,10.32,12.4,10.62c1.11,10.78-3.76,15.31-10.16,17.79l4.07,26.34
					c0.14,0.95-0.16,1.92-0.83,2.61l-2.67,2.8c-0.23,0.23-0.29,0.58-0.16,0.89c0.13,0.3,0.43,0.49,0.76,0.48h9.25
					c0.44,0,0.8-0.35,0.8-0.8V88.29z"/>
			</g>
		</g>
	</g>
</g>
<g id="Layer_8">
</g>
<g id="Layer_9">
</g>
<g id="Layer_10">
</g>
<g id="Layer_11">
</g>
</svg>
