<svg version="1.1" viewBox="0.0 0.0 133.44094488188978 133.44094488188978" fill="none" stroke="none" stroke-linecap="square" stroke-miterlimit="10" xmlns:xlink="http://www.w3.org/1999/xlink" xmlns="http://www.w3.org/2000/svg"><clipPath id="p.0"><path d="m0 0l133.44095 0l0 133.44095l-133.44095 0l0 -133.44095z" clip-rule="nonzero"/></clipPath><g clip-path="url(#p.0)"><path fill="#000000" fill-opacity="0.0" d="m0 0l133.44095 0l0 133.44095l-133.44095 0z" fill-rule="evenodd"/><path fill="#2cc774" d="m0.018372703 22.265537l0 0c0 -12.283871 9.958045 -22.241915 22.241915 -22.241915l88.965 0l0 0c5.898918 0 11.556236 2.3433378 15.727402 6.514506c4.171173 4.1711683 6.514511 9.8284855 6.514511 15.727409l0 88.965c0 12.283867 -9.958046 22.241913 -22.241913 22.241913l-88.965 0c-12.283871 0 -22.241915 -9.958046 -22.241915 -22.241913z" fill-rule="evenodd"/></g></svg>