<?xml version="1.0" encoding="utf-8"?>
<!-- Generator: Adobe Illustrator 26.3.1, SVG Export Plug-In . SVG Version: 6.00 Build 0)  -->
<svg version="1.1" id="Layer_1" xmlns="http://www.w3.org/2000/svg" xmlns:xlink="http://www.w3.org/1999/xlink" x="0px" y="0px"
	 viewBox="0 0 133 133" style="enable-background:new 0 0 133 133;" xml:space="preserve">
<style type="text/css">
	.st0{fill:#FFFFFF;}
</style>
<g>
	<g id="XMLID_00000003093092039129997240000014559952478052554375_">
		<g>
			<path d="M131.7,20.9V48c0,3.5-2.9,6.4-6.4,6.4h-19l-13.4,8.4c-0.3,0.2-0.7,0.3-1,0.3c-0.3,0-0.6-0.1-0.9-0.2c-0.6-0.3-1-1-1-1.7
				v-6.8h-4.4c-3.5,0-6.4-2.9-6.4-6.4V20.9c0-3.5,2.9-6.4,6.4-6.4h39.8C128.8,14.4,131.7,17.3,131.7,20.9z M127.9,48V20.9
				c0-1.4-1.2-2.6-2.6-2.6H85.4c-1.4,0-2.6,1.2-2.6,2.6V48c0,1.4,1.2,2.6,2.6,2.6h6.3c1.1,0,1.9,0.8,1.9,1.9v5.3l11-6.9
				c0.3-0.2,0.7-0.3,1-0.3h19.6C126.7,50.5,127.9,49.4,127.9,48z"/>
			<path class="st0" d="M127.9,20.9V48c0,1.4-1.2,2.6-2.6,2.6h-19.6c-0.4,0-0.7,0.1-1,0.3l-11,6.9v-5.3c0-1-0.8-1.9-1.9-1.9h-6.3
				c-1.4,0-2.6-1.2-2.6-2.6V20.9c0-1.4,1.2-2.6,2.6-2.6h39.8C126.7,18.2,127.9,19.4,127.9,20.9z"/>
		</g>
	</g>
</g>
<g>
	<g id="XMLID_00000178897622752316893320000015223710742800303768_">
		<g>
			<path d="M105,77.8v3.2c0,3-2.2,5.5-5.1,6c1.5,3,2.3,6.3,2.2,9.7v20.5c0,3.3-2.7,6-6.1,6h-5.6c-3.3,0-6-2.7-6-6v-1.5H39.5v1.5
				c0,3.3-2.7,6-6,6h-5.5c-3.3,0-6.1-2.7-6.1-6V96.5c-0.1-3.3,0.7-6.7,2.2-9.7c-2.9-0.5-5-3-5.1-5.9v-3.2c0.1-3.2,2.7-5.8,5.9-5.9
				h1.6c1.4,0,2.8,0.4,4,1.2c1.5-3.6,3.9-9,5.6-11.5c3.2-4.7,7.9-6,11.1-6.5c4.9-0.8,9.8-1.1,14.7-1c0.6,0,1.2,0,1.7,0
				c4.4,0,8.7,0.3,13,1c3.2,0.6,7.8,1.9,11.1,6.5c1.7,2.5,4.1,7.9,5.6,11.5c1.2-0.7,2.6-1.1,4-1.1h0h1.7
				C102.3,71.9,104.9,74.5,105,77.8z M101.5,80.8v-3c0-0.7-0.3-1.3-0.8-1.8c-0.5-0.5-1.2-0.7-1.8-0.7h-1.5c-1.4,0.1-2.7,0.7-3.6,1.7
				c-0.4,0.4-1,0.6-1.6,0.4c-0.6-0.1-1-0.5-1.2-1.1c-2.4-6.1-4.8-11-6.1-12.9c-2.4-3.5-6-4.6-8.8-5.1c-4.7-0.7-9.4-1-14.1-0.9
				c-0.7,0-1.4,0-2,0c-4.1,0-8.1,0.3-12.1,0.9C45,59,41.5,60,39,63.6c-1.3,1.9-3.6,6.8-6.1,12.9c-0.2,0.5-0.7,0.9-1.3,1.1
				c-0.6,0.1-1.1,0-1.6-0.4c-1-1-2.3-1.6-3.6-1.7H25c-1.4,0-2.5,1.1-2.5,2.5v0v2.9c0,1.4,1.2,2.6,2.6,2.6l1.8,0h0.2
				c0.7,0,1.3,0.4,1.6,1c0.3,0.6,0.2,1.3-0.2,1.8c-0.2,0.3-0.4,0.5-0.6,0.8c-1.8,2.8-2.8,6.1-2.6,9.4v20.6c0,1.4,1.1,2.5,2.5,2.5
				h5.6c1.4,0,2.5-1.1,2.5-2.5v-3.2c0-1,0.8-1.8,1.8-1.8h48.4c0.5,0,0.9,0.2,1.2,0.5s0.5,0.8,0.5,1.2v3.2c0,1.4,1.1,2.5,2.5,2.5H96
				c1.4,0,2.5-1.1,2.5-2.5V96.5c0-0.2,0-0.4,0-0.5c0-3.2-0.9-6.3-2.7-8.9c-0.2-0.3-0.4-0.5-0.6-0.8c-0.4-0.5-0.5-1.2-0.2-1.8
				c0.3-0.6,0.9-1,1.6-1h2.1C100.3,83.5,101.5,82.3,101.5,80.8z"/>
			<path class="st0" d="M101.5,77.9v3c0,1.5-1.2,2.6-2.6,2.6h-2.1c-0.7,0-1.3,0.4-1.6,1c-0.3,0.6-0.2,1.3,0.2,1.8
				c0.2,0.3,0.4,0.5,0.6,0.8c1.7,2.7,2.7,5.8,2.7,8.9c0,0.2,0,0.4,0,0.5v20.6c0,1.4-1.1,2.5-2.5,2.5h-5.5c-1.4,0-2.5-1.1-2.5-2.5
				v-3.2c0-0.5-0.2-0.9-0.5-1.2s-0.8-0.5-1.2-0.5H37.8c-1,0-1.8,0.8-1.8,1.8v3.2c0,1.4-1.1,2.5-2.5,2.5h-5.6c-1.4,0-2.5-1.1-2.5-2.5
				V96.5c-0.1-3.3,0.8-6.6,2.6-9.4c0.2-0.3,0.4-0.5,0.6-0.8c0.4-0.5,0.5-1.2,0.2-1.8c-0.3-0.6-0.9-1-1.6-1h-0.2l-1.8,0
				c-1.4,0-2.6-1.2-2.6-2.6v-2.9v0c0-1.4,1.1-2.5,2.5-2.5h1.5c1.4,0.1,2.7,0.7,3.6,1.7c0.4,0.4,1,0.6,1.6,0.4c0.6-0.1,1-0.5,1.3-1.1
				c2.4-6.1,4.8-11,6.1-12.9c2.5-3.5,6-4.6,8.8-5.1c4-0.6,8-0.9,12.1-0.9c0.7,0,1.4,0,2,0c4.7-0.1,9.5,0.2,14.1,0.9
				c2.8,0.5,6.3,1.5,8.8,5.1c1.3,1.9,3.6,6.8,6.1,12.9c0.2,0.5,0.7,0.9,1.2,1.1c0.6,0.1,1.2,0,1.6-0.4c0.9-1,2.2-1.6,3.6-1.7h1.5
				c0.7,0,1.3,0.2,1.8,0.7C101.2,76.6,101.5,77.2,101.5,77.9z M91.1,95.3v-2.1c0-1.6-0.7-3.1-2-4c-1.2-1-2.9-1.3-4.4-0.9l-7.9,2.1
				c-2.5,0.6-4.1,3-3.8,5.6c0.3,2.6,2.5,4.5,5.1,4.4H86C88.8,100.4,91.1,98.2,91.1,95.3z M86.3,81c0.3-0.5,0.4-1.1,0.2-1.6
				c-1.5-3.8-4.4-10.7-5.9-12.8c-1.1-1.5-2.6-2.3-5.3-2.8c-3.8-0.6-7.7-0.9-11.5-0.9c-0.6,0-1.2,0-1.8,0c-4.4-0.1-8.8,0.2-13.2,0.8
				c-2.7,0.5-4.2,1.3-5.3,2.8c-1.5,2.1-4.4,9.1-5.9,12.8v0c-0.2,0.5-0.2,1.1,0.2,1.6c0.3,0.5,0.9,0.8,1.4,0.8h45.6
				C85.4,81.8,85.9,81.5,86.3,81z M51,96c0.3-2.6-1.3-5-3.8-5.6l-7.9-2.1c-1.5-0.4-3.2-0.1-4.4,0.9c-1.2,1-2,2.5-2,4v2.1
				c0,2.8,2.3,5.1,5.1,5.1h7.9C48.5,100.5,50.6,98.6,51,96z"/>
			<path d="M91.1,93.3v2.1c0,2.8-2.3,5.1-5.1,5.1h-7.9c-2.6,0-4.8-1.9-5.1-4.4c-0.3-2.6,1.3-5,3.8-5.6l7.9-2.1
				c1.5-0.4,3.2-0.1,4.4,0.9C90.4,90.2,91.1,91.7,91.1,93.3z M87.6,95.3v-2.1c0-0.5-0.2-1-0.6-1.3c-0.3-0.2-0.6-0.3-1-0.3
				c-0.1,0-0.3,0-0.4,0l-7.9,2.1c-0.8,0.2-1.3,0.9-1.2,1.8c0.1,0.8,0.8,1.4,1.6,1.4H86C86.9,96.9,87.6,96.2,87.6,95.3z"/>
			<path class="st0" d="M87.6,93.3v2.1c0,0.9-0.7,1.6-1.6,1.6h-7.9c-0.8,0-1.5-0.6-1.6-1.4c-0.1-0.8,0.4-1.6,1.2-1.8l7.9-2.1
				c0.1,0,0.3,0,0.4,0c0.3,0,0.7,0.1,1,0.3C87.4,92.3,87.6,92.8,87.6,93.3z"/>
			<path d="M46.3,68.6c-1.7,3.1-3.2,6.3-4.5,9.6h40.3c-1.3-3.3-2.8-6.5-4.5-9.7h0c-0.3-0.4-0.7-1-3-1.4c-4.2-0.6-8.4-0.9-12.6-0.8
				c-4.2-0.1-8.5,0.2-12.6,0.8h0C47,67.7,46.6,68.2,46.3,68.6z M86.4,79.4c0.2,0.5,0.2,1.2-0.2,1.6c-0.3,0.5-0.9,0.8-1.4,0.8H39.2
				c-0.6,0-1.1-0.3-1.4-0.8c-0.3-0.5-0.4-1.1-0.2-1.6v0c1.5-3.7,4.4-10.7,5.9-12.8c1.1-1.5,2.6-2.4,5.3-2.8
				c4.4-0.7,8.8-0.9,13.2-0.8c0.6,0,1.2,0,1.8,0c3.8,0,7.7,0.3,11.5,0.9c2.7,0.5,4.2,1.3,5.3,2.8C82.1,68.7,85,75.6,86.4,79.4z"/>
			<path d="M47.2,90.4c2.5,0.6,4.1,3,3.8,5.6c-0.3,2.6-2.5,4.5-5.1,4.4H38c-2.8,0-5.1-2.3-5.1-5.1v-2.1c0-1.6,0.7-3.1,2-4
				c1.2-1,2.9-1.3,4.4-0.9L47.2,90.4z M47.5,95.6c0.1-0.8-0.4-1.6-1.2-1.8l-7.9-2.1c-0.5-0.1-1,0-1.4,0.3c-0.4,0.3-0.6,0.8-0.6,1.3
				v2.1c0,0.9,0.7,1.6,1.6,1.6h7.9C46.7,96.9,47.4,96.3,47.5,95.6z"/>
			<path class="st0" d="M46.3,93.8c0.8,0.2,1.3,0.9,1.2,1.8c-0.1,0.8-0.8,1.4-1.6,1.4H38c-0.9,0-1.6-0.7-1.6-1.6v-2.1
				c0-0.5,0.2-1,0.6-1.3c0.4-0.3,0.9-0.4,1.4-0.3L46.3,93.8z"/>
		</g>
	</g>
</g>
</svg>
