<svg version="1.1" viewBox="0.0 0.0 133.44094488188978 133.44094488188978" fill="none" stroke="none" stroke-linecap="square" stroke-miterlimit="10" xmlns:xlink="http://www.w3.org/1999/xlink" xmlns="http://www.w3.org/2000/svg"><clipPath id="p.0"><path d="m0 0l133.44095 0l0 133.44095l-133.44095 0l0 -133.44095z" clip-rule="nonzero"/></clipPath><g clip-path="url(#p.0)"><path fill="#000000" fill-opacity="0.0" d="m0 0l133.44095 0l0 133.44095l-133.44095 0z" fill-rule="evenodd"/><path fill="#ffffff" d="m-0.21784776 -0.21784776l133.44882 0l0 133.44882l-133.44882 0z" fill-rule="evenodd"/><path stroke="#ff9c4c" stroke-width="12.0" stroke-linejoin="round" stroke-linecap="butt" d="m-0.21784776 -0.21784776l133.44882 0l0 133.44882l-133.44882 0z" fill-rule="evenodd"/><path fill="#ff9c4c" d="m-0.002624672 130.86089l66.72441 -41.29133l66.72441 41.29133z" fill-rule="evenodd"/><path stroke="#ff9c4c" stroke-width="1.0" stroke-linejoin="round" stroke-linecap="butt" d="m-0.002624672 130.86089l66.72441 -41.29133l66.72441 41.29133z" fill-rule="evenodd"/><path fill="#000000" fill-opacity="0.0" d="m-0.002624672 20.624672l133.44882 0l0 68.944885l-133.44882 0z" fill-rule="evenodd"/><path fill="#000000" d="m11.9505005 64.18467l0 -25.765625l17.390625 0l0 3.03125l-13.984375 0l0 7.984375l12.09375 0l0 3.046875l-12.09375 0l0 11.703125l-3.40625 0zm17.003906 0l9.890625 -25.765625l3.671875 0l10.546875 25.765625l-3.875 0l-3.015625 -7.8125l-10.765625 0l-2.84375 7.8125l-3.609375 0zm7.4375 -10.578125l8.734375 0l-2.6875 -7.140625q-1.234375 -3.25 -1.828125 -5.34375q-0.5 2.484375 -1.390625 4.921875l-2.828125 7.5625zm19.261719 10.578125l0 -25.765625l3.40625 0l0 22.71875l12.6875 0l0 3.046875l-16.09375 0zm19.00586 -8.28125l3.203125 -0.28125q0.234375 1.9375 1.0625 3.171875q0.84375 1.234375 2.59375 2.0q1.765625 0.765625 3.96875 0.765625q1.9375 0 3.4375 -0.578125q1.5 -0.578125 2.21875 -1.578125q0.734375 -1.015625 0.734375 -2.21875q0 -1.203125 -0.703125 -2.109375q-0.703125 -0.90625 -2.3125 -1.53125q-1.046875 -0.40625 -4.59375 -1.25q-3.546875 -0.859375 -4.96875 -1.609375q-1.859375 -0.96875 -2.765625 -2.390625q-0.890625 -1.4375 -0.890625 -3.21875q0 -1.953125 1.09375 -3.640625q1.109375 -1.703125 3.234375 -2.578125q2.140625 -0.875 4.734375 -0.875q2.859375 0 5.046875 0.921875q2.203125 0.921875 3.375 2.71875q1.171875 1.78125 1.265625 4.046875l-3.265625 0.25q-0.265625 -2.4375 -1.796875 -3.6875q-1.515625 -1.25 -4.484375 -1.25q-3.09375 0 -4.515625 1.140625q-1.40625 1.125 -1.40625 2.71875q0 1.390625 1.0 2.296875q0.984375 0.890625 5.140625 1.828125q4.15625 0.9375 5.703125 1.640625q2.25 1.046875 3.3125 2.640625q1.078125 1.578125 1.078125 3.65625q0 2.0625 -1.171875 3.890625q-1.171875 1.8125 -3.390625 2.828125q-2.203125 1.0 -4.953125 1.0q-3.5 0 -5.875 -1.015625q-2.359375 -1.015625 -3.703125 -3.0625q-1.34375 -2.0625 -1.40625 -4.640625zm25.230469 8.28125l0 -25.765625l18.640625 0l0 3.03125l-15.21875 0l0 7.890625l14.25 0l0 3.03125l-14.25 0l0 8.765625l15.8125 0l0 3.046875l-19.234375 0z" fill-rule="nonzero"/></g></svg>