<?xml version="1.0" encoding="utf-8"?>
<!-- Generator: Adobe Illustrator 26.3.1, SVG Export Plug-In . SVG Version: 6.00 Build 0)  -->
<svg version="1.1" id="Layer_1" xmlns="http://www.w3.org/2000/svg" xmlns:xlink="http://www.w3.org/1999/xlink" x="0px" y="0px"
	 viewBox="0 0 133 133" style="enable-background:new 0 0 133 133;" xml:space="preserve">
<style type="text/css">
	.st0{fill:#8123DE;}
	.st1{fill:#FFFFFF;}
</style>
<g id="Layer_1_00000044873295794470796150000000278353769518299554_">
	<g id="Layer_1_00000130640081086220838410000011721614330154684315_">
		<g id="Layer_2_00000080909792367530824080000017432296311554303617_">
			<path class="st0" d="M121,133H12c-6.6,0-12-5.4-12-12V12C0,5.4,5.4,0,12,0h109c6.6,0,12,5.4,12,12v109
				C133,127.6,127.6,133,121,133z"/>
			<path class="st0" d="M121,133H12c-6.6,0-12-5.4-12-12V12C0,5.4,5.4,0,12,0h109c6.6,0,12,5.4,12,12v109
				C133,127.6,127.6,133,121,133z"/>
		</g>
	</g>
</g>
<g id="Layer_2_00000170979145909033208260000011020591678184695463_">
</g>
<g id="Layer_3">
</g>
<g id="Layer_4">
</g>
<g id="Layer_6">
</g>
<g id="Layer_7">
</g>
<g id="Layer_8">
</g>
<g id="Layer_9">
</g>
<g id="Layer_6_00000098928089435667698660000002680440892307924360_">
	<g>
		<g id="XMLID_00000168086789158433584270000013925999398864016550_">
			<g>
				<path class="st1" d="M61.6,47c1.7,3.1,5,5.7,5.1,5.8c0.2,0.2,0.5,0.3,0.8,0.3s0.5-0.1,0.8-0.3c0.5-0.3,0.6-1,0.3-1.6
					c-0.2-0.2-0.2-0.2-0.7-0.7c-7.2-6.3-5.5-11.4-8-10.7C57.7,40.5,60.2,44.4,61.6,47z M74.5,61.4C70.8,58.6,61.6,54.5,58,42
					c-0.2-0.8-1-2.6-1.1-2.8c2.6-1.3,3.2-1.6,5-1.3c1.2,1.6,6,8,7.8,8.6c7.1,13.8,6.7,11.8,10.5,15c-0.3,0.3-1.5,1.2-1.6,1.2l0,0
					c-1.2-0.6-2.6-1-3.9-1.1L74.5,61.4z M69.1,55.1c0,0.7,0.6,1.2,1.3,1.2c0.7,0,1.2-0.6,1.2-1.2c0-0.6-0.6-1.2-1.2-1.2
					C69.6,53.8,69.1,54.4,69.1,55.1z"/>
				<path class="st1" d="M78.1,31.2c7,0.3,8.4,2.8,9.2,9.9c-6-7.8-15.4-6.2-17.1-0.6c-1.9-6.4-0.1-7.1,4.1-8.9
					C75.6,31,76.1,31,78.1,31.2z"/>
				<path class="st1" d="M78.2,21.1c-1.7,2.3-3.1,4.9-3.8,7.8c-1.9,0.6-3.7,1.5-5.3,2.7c0-0.9-0.1-1.6,0.1-3.1
					C69.8,28,70.7,22.4,78.2,21.1z"/>
				<path class="st1" d="M54.4,28.7c-0.1,0.9-0.2,1.7-0.2,2.6c-0.2,0.1-0.4,0.2-0.6,0.2c-1.6-1.7-5-2.5-6.7-2.6
					C51,24.8,52.9,26.1,54.4,28.7z"/>
				<path class="st1" d="M55.7,33.4c1.6-0.1,2.8,0.7,4.2,1.9c-7.1,1.2-10.4,8-11.5,15.1c-0.2-1.1-0.4-2.2-0.6-3.3
					C47.1,39.9,51.1,34.4,55.7,33.4z"/>
				<path class="st1" d="M67,33.5c-0.1,5.6,1.4,6.8,1,7.6c-0.1,0.1-0.2,0.2-0.3,0.3c-1.8,1-4.5-9.9-11-10.4c0.1-1.6,0.3-3.3,0.6-4.9
					c1.8-13.2,8.9-22.6,10.6-14.4c0.7,3.2-0.1,5.7-0.8,15.2c0,0.3-0.1,0.8-0.1,1.1c0,0.5-0.1,0.9-0.1,1.3
					C67.1,30.6,67.1,31.3,67,33.5z"/>
				<path d="M88.9,35.4c0.8,2.1,1.3,10,1.3,10.1c-0.2,0.6-0.9,1-1.6,0.9c-1-0.3-4.5-7.4-9.8-8.2c-1-0.1-2.1-0.1-3.2,0.1
					c-4.4,1.9-3.1,4.7-2.8,6.3c0.7,1.1-0.1,0.9,1.8,5.2c2,4.5,2.4,3.9,2.3,4.6c3,4.8,5.7,5,6,6.6c0.3,1.9-3.2,4-3.8,4.2
					c-0.8,0.3-1.7-0.3-2.3-0.6c-3.2-1.1-1.6,0.4-5.7-2.4c-14.4-9.4-14.2-16.3-16.3-21.4c-6.4,7.6-2.8,17.1-5.2,17.7
					c-2.6,0.8-5.8-12-3.6-18.8c0.8-2.9,2.6-5.3,5.2-6.9c-4-2.7-9.2,0.3-8.4-2.7c0.6-2,7.3-9,12-4.8c0.9-6.4,4-18.5,10.6-19
					c7-0.5,5,10.2,4.1,16.8c3.2-3.8,9.5-5.2,11.7-4.1c3.2,1.5-1.9,2.3-4.2,9.7C84.7,28.8,87.2,31,88.9,35.4z M87.3,41
					c-0.8-7.1-2.2-9.5-9.2-9.9c-2-0.1-2.5-0.1-3.9,0.5c-4.2,1.8-5.9,2.4-4.1,8.9C71.8,34.9,81.2,33.2,87.3,41z M78.6,62.8
					c0.1-0.1,1.3-0.9,1.6-1.2c-3.8-3.3-3.4-1.3-10.5-15.1c-1.9-0.7-6.7-7.1-7.8-8.7c-1.9-0.3-2.4,0.1-5,1.3c0.1,0.3,0.9,2.1,1.1,2.8
					c3.5,12.5,12.8,16.6,16.5,19.4l0.3,0.2C76.1,61.8,77.4,62.1,78.6,62.8L78.6,62.8z M74.4,28.9c0.7-2.8,2-5.5,3.8-7.8
					c-7.4,1.3-8.4,6.8-9.1,7.4C69,30.1,69,30.6,69,31.6C70.7,30.4,72.5,29.5,74.4,28.9z M68,41.1c0.5-0.8-1.1-1.9-1-7.6
					c0.1-2.3,0-3,0.1-4.2c0-0.5,0.1-0.9,0.1-1.3c0-0.3,0.1-0.8,0.1-1.1c0.6-9.5,1.5-12,0.8-15.2c-1.7-8.2-8.8,1.2-10.7,14.3
					c-0.3,1.6-0.5,3.3-0.6,4.9c6.6,0.6,9.2,11.5,11,10.4C67.8,41.4,68,41.2,68,41.1z M59.9,35.3c-1.4-1.2-2.7-2-4.2-1.9
					c-4.5,1-8.6,6.5-7.8,13.8c0.2,1.1,0.3,2.2,0.6,3.3C49.4,43.4,52.8,36.6,59.9,35.3z M54.2,31.3c0-0.9,0.1-1.7,0.2-2.6
					c-1.5-2.6-3.5-3.9-7.5,0.2c1.7,0.1,5.1,0.9,6.7,2.6C53.8,31.4,54,31.3,54.2,31.3z"/>
				<path d="M70.3,53.8c0.7,0,1.2,0.6,1.2,1.2c0,0.6-0.6,1.2-1.2,1.2c-0.7,0-1.3-0.6-1.3-1.2S69.6,53.8,70.3,53.8z"/>
				<path d="M68.6,51.3c0.3,0.5,0.1,1.2-0.3,1.6c-0.2,0.2-0.5,0.3-0.8,0.3s-0.6-0.1-0.8-0.3c-0.1-0.1-3.4-2.7-5.1-5.8
					c-1.4-2.6-3.9-6.5-1.7-7.1c2.6-0.7,0.8,4.4,8,10.7C68.4,51.1,68.4,51.1,68.6,51.3z"/>
			</g>
		</g>
	</g>
</g>
</svg>
